<?xml version="1.0" encoding="UTF-8" standalone="no"?>
<!DOCTYPE svg PUBLIC "-//W3C//DTD SVG 1.1//EN"
 "http://www.w3.org/Graphics/SVG/1.1/DTD/svg11.dtd">
<!-- Generated by graphviz version 2.43.0 (0)
 -->
<!-- Title: src/libs/vpatterndb/variables/vmeasurement.h Pages: 1 -->
<svg width="6695pt" height="374pt"
 viewBox="0.00 0.00 6695.00 374.00" xmlns="http://www.w3.org/2000/svg" xmlns:xlink="http://www.w3.org/1999/xlink">
<g id="graph0" class="graph" transform="scale(1 1) rotate(0) translate(4 370)">
<title>src/libs/vpatterndb/variables/vmeasurement.h</title>
<polygon fill="white" stroke="transparent" points="-4,4 -4,-370 6691,-370 6691,4 -4,4"/>
<!-- Node1 -->
<g id="node1" class="node">
<title>Node1</title>
<g id="a_node1"><a xlink:title=" ">
<polygon fill="#bfbfbf" stroke="black" points="6338.5,-335.5 6338.5,-365.5 6489.5,-365.5 6489.5,-335.5 6338.5,-335.5"/>
<text text-anchor="start" x="6346.5" y="-353.5" font-family="Helvetica,sans-Serif" font-size="10.00">src/libs/vpatterndb</text>
<text text-anchor="middle" x="6414" y="-342.5" font-family="Helvetica,sans-Serif" font-size="10.00">/variables/vmeasurement.h</text>
</a>
</g>
</g>
<!-- Node2 -->
<g id="node2" class="node">
<title>Node2</title>
<g id="a_node2"><a xlink:href="../../de/db3/vmeasurements_8cpp.html" target="_top" xlink:title=" ">
<polygon fill="white" stroke="black" points="6281,-73 6281,-92 6477,-92 6477,-73 6281,-73"/>
<text text-anchor="middle" x="6379" y="-80" font-family="Helvetica,sans-Serif" font-size="10.00">src/libs/vformat/vmeasurements.cpp</text>
</a>
</g>
</g>
<!-- Node1&#45;&gt;Node2 -->
<g id="edge1" class="edge">
<title>Node1&#45;&gt;Node2</title>
<path fill="none" stroke="midnightblue" d="M6448.56,-330.07C6511.6,-292.17 6633.85,-205.8 6578,-134 6561.97,-113.39 6499.12,-99.83 6448.28,-92"/>
<polygon fill="midnightblue" stroke="midnightblue" points="6446.54,-327.2 6439.71,-335.3 6450.1,-333.22 6446.54,-327.2"/>
</g>
<!-- Node3 -->
<g id="node3" class="node">
<title>Node3</title>
<g id="a_node3"><a xlink:href="../../dd/d62/vmeasurement_8cpp.html" target="_top" xlink:title=" ">
<polygon fill="white" stroke="black" points="6525,-67.5 6525,-97.5 6687,-97.5 6687,-67.5 6525,-67.5"/>
<text text-anchor="start" x="6533" y="-85.5" font-family="Helvetica,sans-Serif" font-size="10.00">src/libs/vpatterndb</text>
<text text-anchor="middle" x="6606" y="-74.5" font-family="Helvetica,sans-Serif" font-size="10.00">/variables/vmeasurement.cpp</text>
</a>
</g>
</g>
<!-- Node1&#45;&gt;Node3 -->
<g id="edge2" class="edge">
<title>Node1&#45;&gt;Node3</title>
<path fill="none" stroke="midnightblue" d="M6468.52,-331.78C6511.96,-314.26 6569.13,-282.62 6592,-232 6612.58,-186.45 6610.08,-125.18 6607.61,-97.78"/>
<polygon fill="midnightblue" stroke="midnightblue" points="6467.25,-328.52 6459.2,-335.41 6469.79,-335.04 6467.25,-328.52"/>
</g>
<!-- Node4 -->
<g id="node4" class="node">
<title>Node4</title>
<g id="a_node4"><a xlink:href="../../d6/d46/vcontainer_8cpp.html" target="_top" xlink:title=" ">
<polygon fill="white" stroke="black" points="1321.5,-67.5 1321.5,-97.5 1428.5,-97.5 1428.5,-67.5 1321.5,-67.5"/>
<text text-anchor="start" x="1329.5" y="-85.5" font-family="Helvetica,sans-Serif" font-size="10.00">src/libs/vpatterndb</text>
<text text-anchor="middle" x="1375" y="-74.5" font-family="Helvetica,sans-Serif" font-size="10.00">/vcontainer.cpp</text>
</a>
</g>
</g>
<!-- Node1&#45;&gt;Node4 -->
<g id="edge3" class="edge">
<title>Node1&#45;&gt;Node4</title>
<path fill="none" stroke="midnightblue" d="M6328.11,-348.45C5770.25,-341.25 2654.55,-295.69 1713,-165 1606.72,-150.25 1485.08,-116.69 1420.65,-97.55"/>
<polygon fill="midnightblue" stroke="midnightblue" points="6328.44,-351.95 6338.49,-348.58 6328.53,-344.95 6328.44,-351.95"/>
</g>
<!-- Node5 -->
<g id="node5" class="node">
<title>Node5</title>
<g id="a_node5"><a xlink:href="../../de/dca/variables_8h.html" target="_top" xlink:title=" ">
<polygon fill="white" stroke="black" points="5812.5,-268.5 5812.5,-298.5 5919.5,-298.5 5919.5,-268.5 5812.5,-268.5"/>
<text text-anchor="start" x="5820.5" y="-286.5" font-family="Helvetica,sans-Serif" font-size="10.00">src/libs/vpatterndb</text>
<text text-anchor="middle" x="5866" y="-275.5" font-family="Helvetica,sans-Serif" font-size="10.00">/variables.h</text>
</a>
</g>
</g>
<!-- Node1&#45;&gt;Node5 -->
<g id="edge4" class="edge">
<title>Node1&#45;&gt;Node5</title>
<path fill="none" stroke="midnightblue" d="M6328.27,-339.33C6213.97,-325.77 6015.05,-302.18 5919.82,-290.88"/>
<polygon fill="midnightblue" stroke="midnightblue" points="6328.04,-342.83 6338.38,-340.53 6328.86,-335.88 6328.04,-342.83"/>
</g>
<!-- Node6 -->
<g id="node6" class="node">
<title>Node6</title>
<g id="a_node6"><a xlink:href="../../d3/df7/vcontainer_8h.html" target="_top" xlink:title=" ">
<polygon fill="white" stroke="black" points="5538.5,-201.5 5538.5,-231.5 5645.5,-231.5 5645.5,-201.5 5538.5,-201.5"/>
<text text-anchor="start" x="5546.5" y="-219.5" font-family="Helvetica,sans-Serif" font-size="10.00">src/libs/vpatterndb</text>
<text text-anchor="middle" x="5592" y="-208.5" font-family="Helvetica,sans-Serif" font-size="10.00">/vcontainer.h</text>
</a>
</g>
</g>
<!-- Node5&#45;&gt;Node6 -->
<g id="edge5" class="edge">
<title>Node5&#45;&gt;Node6</title>
<path fill="none" stroke="midnightblue" d="M5802.32,-267.39C5754.81,-256.12 5690.61,-240.89 5645.68,-230.24"/>
<polygon fill="midnightblue" stroke="midnightblue" points="5801.66,-270.83 5812.19,-269.74 5803.27,-264.02 5801.66,-270.83"/>
</g>
<!-- Node6&#45;&gt;Node2 -->
<g id="edge8" class="edge">
<title>Node6&#45;&gt;Node2</title>
<path fill="none" stroke="midnightblue" d="M5655.79,-215.58C5830.42,-215.23 6306.87,-210.09 6360,-165 6381.6,-146.67 6381.32,-108.98 6379.96,-92.05"/>
<polygon fill="midnightblue" stroke="midnightblue" points="5655.71,-212.08 5645.72,-215.6 5655.72,-219.08 5655.71,-212.08"/>
</g>
<!-- Node6&#45;&gt;Node4 -->
<g id="edge55" class="edge">
<title>Node6&#45;&gt;Node4</title>
<path fill="none" stroke="midnightblue" d="M5528.26,-215.07C5127.86,-212.32 2955.33,-196.14 2291,-165 1911.14,-147.19 1813.88,-155.69 1438,-98 1434.89,-97.52 1431.71,-96.98 1428.51,-96.38"/>
<polygon fill="midnightblue" stroke="midnightblue" points="5528.47,-218.58 5538.49,-215.15 5528.52,-211.58 5528.47,-218.58"/>
</g>
<!-- Node7 -->
<g id="node7" class="node">
<title>Node7</title>
<g id="a_node7"><a xlink:href="../../d4/dd6/vmeasurements_8h.html" target="_top" xlink:title=" ">
<polygon fill="white" stroke="black" points="5590.5,-140 5590.5,-159 5775.5,-159 5775.5,-140 5590.5,-140"/>
<text text-anchor="middle" x="5683" y="-147" font-family="Helvetica,sans-Serif" font-size="10.00">src/libs/vformat/vmeasurements.h</text>
</a>
</g>
</g>
<!-- Node6&#45;&gt;Node7 -->
<g id="edge6" class="edge">
<title>Node6&#45;&gt;Node7</title>
<path fill="none" stroke="midnightblue" d="M5620.27,-195.31C5637.36,-183.1 5658.25,-168.18 5671.09,-159.01"/>
<polygon fill="midnightblue" stroke="midnightblue" points="5617.85,-192.74 5611.75,-201.4 5621.92,-198.43 5617.85,-192.74"/>
</g>
<!-- Node8 -->
<g id="node8" class="node">
<title>Node8</title>
<g id="a_node8"><a xlink:href="../../d6/de0/vlayoutpiece_8h.html" target="_top" xlink:title=" ">
<polygon fill="white" stroke="black" points="645,-140 645,-159 811,-159 811,-140 645,-140"/>
<text text-anchor="middle" x="728" y="-147" font-family="Helvetica,sans-Serif" font-size="10.00">src/libs/vlayout/vlayoutpiece.h</text>
</a>
</g>
</g>
<!-- Node6&#45;&gt;Node8 -->
<g id="edge9" class="edge">
<title>Node6&#45;&gt;Node8</title>
<path fill="none" stroke="midnightblue" d="M5528.17,-214.65C5003.52,-207.64 1406.74,-159.57 811.39,-151.61"/>
<polygon fill="midnightblue" stroke="midnightblue" points="5528.16,-218.15 5538.21,-214.78 5528.25,-211.15 5528.16,-218.15"/>
</g>
<!-- Node18 -->
<g id="node17" class="node">
<title>Node18</title>
<g id="a_node17"><a xlink:href="../../d8/d70/vtextmanager_8cpp.html" target="_top" xlink:title=" ">
<polygon fill="white" stroke="black" points="1447,-73 1447,-92 1629,-92 1629,-73 1447,-73"/>
<text text-anchor="middle" x="1538" y="-80" font-family="Helvetica,sans-Serif" font-size="10.00">src/libs/vlayout/vtextmanager.cpp</text>
</a>
</g>
</g>
<!-- Node6&#45;&gt;Node18 -->
<g id="edge20" class="edge">
<title>Node6&#45;&gt;Node18</title>
<path fill="none" stroke="midnightblue" d="M5528.39,-214.67C5084.07,-208.72 2438.97,-170.65 1638,-98 1622.1,-96.56 1604.87,-94.31 1589.26,-92.01"/>
<polygon fill="midnightblue" stroke="midnightblue" points="5528.43,-218.17 5538.48,-214.81 5528.52,-211.17 5528.43,-218.17"/>
</g>
<!-- Node19 -->
<g id="node18" class="node">
<title>Node19</title>
<g id="a_node18"><a xlink:href="../../d5/d74/vabstractapplication_8h.html" target="_top" xlink:title=" ">
<polygon fill="white" stroke="red" points="3461.5,-140 3461.5,-159 3656.5,-159 3656.5,-140 3461.5,-140"/>
<text text-anchor="middle" x="3559" y="-147" font-family="Helvetica,sans-Serif" font-size="10.00">src/libs/vmisc/vabstractapplication.h</text>
</a>
</g>
</g>
<!-- Node6&#45;&gt;Node19 -->
<g id="edge21" class="edge">
<title>Node6&#45;&gt;Node19</title>
<path fill="none" stroke="midnightblue" d="M5528.37,-213.47C5235.05,-204.09 4012.56,-165 3656.63,-153.62"/>
<polygon fill="midnightblue" stroke="midnightblue" points="5528.3,-216.97 5538.41,-213.79 5528.52,-209.97 5528.3,-216.97"/>
</g>
<!-- Node37 -->
<g id="node32" class="node">
<title>Node37</title>
<g id="a_node32"><a xlink:href="../../db/d11/vformula_8cpp.html" target="_top" xlink:title=" ">
<polygon fill="white" stroke="black" points="5271.5,-67.5 5271.5,-97.5 5378.5,-97.5 5378.5,-67.5 5271.5,-67.5"/>
<text text-anchor="start" x="5279.5" y="-85.5" font-family="Helvetica,sans-Serif" font-size="10.00">src/libs/vpatterndb</text>
<text text-anchor="middle" x="5325" y="-74.5" font-family="Helvetica,sans-Serif" font-size="10.00">/vformula.cpp</text>
</a>
</g>
</g>
<!-- Node6&#45;&gt;Node37 -->
<g id="edge56" class="edge">
<title>Node6&#45;&gt;Node37</title>
<path fill="none" stroke="midnightblue" d="M5528.2,-212.86C5482.74,-208.19 5422.12,-196.03 5378,-165 5353.84,-148.01 5337.94,-116.16 5330.3,-97.71"/>
<polygon fill="midnightblue" stroke="midnightblue" points="5527.96,-216.35 5538.24,-213.8 5528.61,-209.38 5527.96,-216.35"/>
</g>
<!-- Node39 -->
<g id="node34" class="node">
<title>Node39</title>
<g id="a_node34"><a xlink:href="../../d8/dba/vpiecenode_8cpp.html" target="_top" xlink:title=" ">
<polygon fill="white" stroke="black" points="5312.5,-0.5 5312.5,-30.5 5419.5,-30.5 5419.5,-0.5 5312.5,-0.5"/>
<text text-anchor="start" x="5320.5" y="-18.5" font-family="Helvetica,sans-Serif" font-size="10.00">src/libs/vpatterndb</text>
<text text-anchor="middle" x="5366" y="-7.5" font-family="Helvetica,sans-Serif" font-size="10.00">/vpiecenode.cpp</text>
</a>
</g>
</g>
<!-- Node6&#45;&gt;Node39 -->
<g id="edge58" class="edge">
<title>Node6&#45;&gt;Node39</title>
<path fill="none" stroke="midnightblue" d="M5528.3,-204.97C5485.01,-196.37 5433.28,-182.74 5420,-165 5411.74,-153.97 5412.23,-145.38 5420,-134 5444.75,-97.73 5487.25,-134.27 5512,-98 5519.77,-86.62 5519.99,-78.22 5512,-67 5491.15,-37.73 5452.13,-25.26 5419.67,-20.03"/>
<polygon fill="midnightblue" stroke="midnightblue" points="5527.76,-208.43 5538.24,-206.89 5529.09,-201.56 5527.76,-208.43"/>
</g>
<!-- Node41 -->
<g id="node36" class="node">
<title>Node41</title>
<g id="a_node36"><a xlink:href="../../df/d7a/vpiece_8cpp.html" target="_top" xlink:title=" ">
<polygon fill="white" stroke="black" points="5396.5,-67.5 5396.5,-97.5 5503.5,-97.5 5503.5,-67.5 5396.5,-67.5"/>
<text text-anchor="start" x="5404.5" y="-85.5" font-family="Helvetica,sans-Serif" font-size="10.00">src/libs/vpatterndb</text>
<text text-anchor="middle" x="5450" y="-74.5" font-family="Helvetica,sans-Serif" font-size="10.00">/vpiece.cpp</text>
</a>
</g>
</g>
<!-- Node6&#45;&gt;Node41 -->
<g id="edge60" class="edge">
<title>Node6&#45;&gt;Node41</title>
<path fill="none" stroke="midnightblue" d="M5528.17,-208.36C5474.69,-200.91 5404.36,-187.16 5387,-165 5368.58,-141.49 5401,-113.97 5425.77,-97.68"/>
<polygon fill="midnightblue" stroke="midnightblue" points="5527.91,-211.86 5538.29,-209.72 5528.84,-204.92 5527.91,-211.86"/>
</g>
<!-- Node56 -->
<g id="node45" class="node">
<title>Node56</title>
<g id="a_node45"><a xlink:href="../../d1/de1/vincrement__p_8h.html" target="_top" xlink:title=" ">
<polygon fill="white" stroke="red" points="5429.5,-134.5 5429.5,-164.5 5572.5,-164.5 5572.5,-134.5 5429.5,-134.5"/>
<text text-anchor="start" x="5437.5" y="-152.5" font-family="Helvetica,sans-Serif" font-size="10.00">src/libs/vpatterndb</text>
<text text-anchor="middle" x="5501" y="-141.5" font-family="Helvetica,sans-Serif" font-size="10.00">/variables/vincrement_p.h</text>
</a>
</g>
</g>
<!-- Node6&#45;&gt;Node56 -->
<g id="edge52" class="edge">
<title>Node6&#45;&gt;Node56</title>
<path fill="none" stroke="midnightblue" d="M5563.93,-195.45C5549.93,-185.45 5533.34,-173.6 5520.71,-164.58"/>
<polygon fill="midnightblue" stroke="midnightblue" points="5562.08,-198.43 5572.25,-201.4 5566.15,-192.74 5562.08,-198.43"/>
</g>
<!-- Node58 -->
<g id="node46" class="node">
<title>Node58</title>
<g id="a_node46"><a xlink:href="../../d6/dc1/vmeasurement__p_8h.html" target="_top" xlink:title=" ">
<polygon fill="white" stroke="black" points="6407,-134.5 6407,-164.5 6569,-164.5 6569,-134.5 6407,-134.5"/>
<text text-anchor="start" x="6415" y="-152.5" font-family="Helvetica,sans-Serif" font-size="10.00">src/libs/vpatterndb</text>
<text text-anchor="middle" x="6488" y="-141.5" font-family="Helvetica,sans-Serif" font-size="10.00">/variables/vmeasurement_p.h</text>
</a>
</g>
</g>
<!-- Node6&#45;&gt;Node58 -->
<g id="edge53" class="edge">
<title>Node6&#45;&gt;Node58</title>
<path fill="none" stroke="midnightblue" d="M5655.79,-213.4C5791.67,-208.5 6119.58,-194.43 6393,-165 6397.56,-164.51 6402.24,-163.96 6406.96,-163.36"/>
<polygon fill="midnightblue" stroke="midnightblue" points="5655.44,-209.91 5645.57,-213.76 5655.69,-216.9 5655.44,-209.91"/>
</g>
<!-- Node59 -->
<g id="node47" class="node">
<title>Node59</title>
<g id="a_node47"><a xlink:href="../../d6/d91/vnodedetail_8cpp.html" target="_top" xlink:title=" ">
<polygon fill="white" stroke="black" points="5793.5,-134.5 5793.5,-164.5 5900.5,-164.5 5900.5,-134.5 5793.5,-134.5"/>
<text text-anchor="start" x="5801.5" y="-152.5" font-family="Helvetica,sans-Serif" font-size="10.00">src/libs/vpatterndb</text>
<text text-anchor="middle" x="5847" y="-141.5" font-family="Helvetica,sans-Serif" font-size="10.00">/vnodedetail.cpp</text>
</a>
</g>
</g>
<!-- Node6&#45;&gt;Node59 -->
<g id="edge57" class="edge">
<title>Node6&#45;&gt;Node59</title>
<path fill="none" stroke="midnightblue" d="M5655.7,-199.26C5698.09,-188.46 5753.15,-174.42 5793.31,-164.19"/>
<polygon fill="midnightblue" stroke="midnightblue" points="5654.59,-195.93 5645.77,-201.79 5656.32,-202.72 5654.59,-195.93"/>
</g>
<!-- Node60 -->
<g id="node48" class="node">
<title>Node60</title>
<g id="a_node48"><a xlink:href="../../da/de1/vpiecepath_8cpp.html" target="_top" xlink:title=" ">
<polygon fill="white" stroke="black" points="5918.5,-134.5 5918.5,-164.5 6025.5,-164.5 6025.5,-134.5 5918.5,-134.5"/>
<text text-anchor="start" x="5926.5" y="-152.5" font-family="Helvetica,sans-Serif" font-size="10.00">src/libs/vpatterndb</text>
<text text-anchor="middle" x="5972" y="-141.5" font-family="Helvetica,sans-Serif" font-size="10.00">/vpiecepath.cpp</text>
</a>
</g>
</g>
<!-- Node6&#45;&gt;Node60 -->
<g id="edge59" class="edge">
<title>Node6&#45;&gt;Node60</title>
<path fill="none" stroke="midnightblue" d="M5655.66,-206.77C5720.03,-197.62 5822.26,-182.2 5910,-165 5912.71,-164.47 5915.49,-163.9 5918.28,-163.31"/>
<polygon fill="midnightblue" stroke="midnightblue" points="5655.07,-203.32 5645.66,-208.19 5656.05,-210.25 5655.07,-203.32"/>
</g>
<!-- Node61 -->
<g id="node49" class="node">
<title>Node61</title>
<g id="a_node49"><a xlink:href="../../d1/d3a/abstracttest_8cpp.html" target="_top" xlink:title=" ">
<polygon fill="white" stroke="black" points="6043.5,-140 6043.5,-159 6204.5,-159 6204.5,-140 6043.5,-140"/>
<text text-anchor="middle" x="6124" y="-147" font-family="Helvetica,sans-Serif" font-size="10.00">src/libs/vtest/abstracttest.cpp</text>
</a>
</g>
</g>
<!-- Node6&#45;&gt;Node61 -->
<g id="edge61" class="edge">
<title>Node6&#45;&gt;Node61</title>
<path fill="none" stroke="midnightblue" d="M5655.78,-209.2C5741.97,-200.47 5900.35,-183.63 6035,-165 6047.72,-163.24 6061.42,-161.12 6074.17,-159.05"/>
<polygon fill="midnightblue" stroke="midnightblue" points="5655.23,-205.74 5645.63,-210.23 5655.94,-212.7 5655.23,-205.74"/>
</g>
<!-- Node62 -->
<g id="node50" class="node">
<title>Node62</title>
<g id="a_node50"><a xlink:href="../../da/db4/piece__tablewidgetitem_8cpp.html" target="_top" xlink:title=" ">
<polygon fill="white" stroke="black" points="6223,-134.5 6223,-164.5 6351,-164.5 6351,-134.5 6223,-134.5"/>
<text text-anchor="start" x="6231" y="-152.5" font-family="Helvetica,sans-Serif" font-size="10.00">src/libs/vwidgets/piece</text>
<text text-anchor="middle" x="6287" y="-141.5" font-family="Helvetica,sans-Serif" font-size="10.00">_tablewidgetitem.cpp</text>
</a>
</g>
</g>
<!-- Node6&#45;&gt;Node62 -->
<g id="edge62" class="edge">
<title>Node6&#45;&gt;Node62</title>
<path fill="none" stroke="midnightblue" d="M5656.1,-212.73C5769.19,-207.31 6011.35,-193.26 6214,-165 6216.94,-164.59 6219.95,-164.14 6222.98,-163.65"/>
<polygon fill="midnightblue" stroke="midnightblue" points="5655.72,-209.25 5645.89,-213.21 5656.05,-216.24 5655.72,-209.25"/>
</g>
<!-- Node7&#45;&gt;Node2 -->
<g id="edge7" class="edge">
<title>Node7&#45;&gt;Node2</title>
<path fill="none" stroke="midnightblue" d="M5748.76,-138.6C5760.8,-136.94 5773.27,-135.33 5785,-134 5959.18,-114.23 6162.9,-98.52 6280.82,-90.14"/>
<polygon fill="midnightblue" stroke="midnightblue" points="5748.2,-135.14 5738.78,-139.99 5749.17,-142.07 5748.2,-135.14"/>
</g>
<!-- Node9 -->
<g id="node9" class="node">
<title>Node9</title>
<g id="a_node9"><a xlink:href="../../dd/d66/vdxfengine_8cpp.html" target="_top" xlink:title=" ">
<polygon fill="white" stroke="black" points="954,-73 954,-92 1108,-92 1108,-73 954,-73"/>
<text text-anchor="middle" x="1031" y="-80" font-family="Helvetica,sans-Serif" font-size="10.00">src/libs/vdxf/vdxfengine.cpp</text>
</a>
</g>
</g>
<!-- Node8&#45;&gt;Node9 -->
<g id="edge10" class="edge">
<title>Node8&#45;&gt;Node9</title>
<path fill="none" stroke="midnightblue" d="M777.86,-137.8C837.49,-125.01 936.1,-103.86 990.99,-92.08"/>
<polygon fill="midnightblue" stroke="midnightblue" points="776.97,-134.42 767.92,-139.94 778.44,-141.26 776.97,-134.42"/>
</g>
<!-- Node10 -->
<g id="node10" class="node">
<title>Node10</title>
<g id="a_node10"><a xlink:href="../../de/da8/vbank_8cpp.html" target="_top" xlink:title=" ">
<polygon fill="white" stroke="black" points="0,-73 0,-92 144,-92 144,-73 0,-73"/>
<text text-anchor="middle" x="72" y="-80" font-family="Helvetica,sans-Serif" font-size="10.00">src/libs/vlayout/vbank.cpp</text>
</a>
</g>
</g>
<!-- Node8&#45;&gt;Node10 -->
<g id="edge11" class="edge">
<title>Node8&#45;&gt;Node10</title>
<path fill="none" stroke="midnightblue" d="M634.82,-142.89C520.86,-135.44 322.22,-120.53 153,-98 140.82,-96.38 127.68,-94.21 115.61,-92.05"/>
<polygon fill="midnightblue" stroke="midnightblue" points="634.7,-146.39 644.9,-143.55 635.15,-139.41 634.7,-146.39"/>
</g>
<!-- Node11 -->
<g id="node11" class="node">
<title>Node11</title>
<g id="a_node11"><a xlink:href="../../df/d5d/vcontour_8cpp.html" target="_top" xlink:title=" ">
<polygon fill="white" stroke="black" points="162,-73 162,-92 318,-92 318,-73 162,-73"/>
<text text-anchor="middle" x="240" y="-80" font-family="Helvetica,sans-Serif" font-size="10.00">src/libs/vlayout/vcontour.cpp</text>
</a>
</g>
</g>
<!-- Node8&#45;&gt;Node11 -->
<g id="edge12" class="edge">
<title>Node8&#45;&gt;Node11</title>
<path fill="none" stroke="midnightblue" d="M643.06,-138.8C561.8,-129.28 435.86,-113.92 327,-98 314.73,-96.21 301.51,-94.09 289.18,-92.05"/>
<polygon fill="midnightblue" stroke="midnightblue" points="642.9,-142.3 653.23,-139.99 643.71,-135.35 642.9,-142.3"/>
</g>
<!-- Node12 -->
<g id="node12" class="node">
<title>Node12</title>
<g id="a_node12"><a xlink:href="../../d3/d39/vlayoutgenerator_8cpp.html" target="_top" xlink:title=" ">
<polygon fill="white" stroke="black" points="336.5,-73 336.5,-92 533.5,-92 533.5,-73 336.5,-73"/>
<text text-anchor="middle" x="435" y="-80" font-family="Helvetica,sans-Serif" font-size="10.00">src/libs/vlayout/vlayoutgenerator.cpp</text>
</a>
</g>
</g>
<!-- Node8&#45;&gt;Node12 -->
<g id="edge13" class="edge">
<title>Node8&#45;&gt;Node12</title>
<path fill="none" stroke="midnightblue" d="M679.42,-137.72C621.73,-124.92 526.66,-103.83 473.69,-92.08"/>
<polygon fill="midnightblue" stroke="midnightblue" points="678.87,-141.19 689.39,-139.94 680.39,-134.35 678.87,-141.19"/>
</g>
<!-- Node13 -->
<g id="node13" class="node">
<title>Node13</title>
<g id="a_node13"><a xlink:href="../../d2/d2d/vlayoutpaper__p_8h.html" target="_top" xlink:title=" ">
<polygon fill="white" stroke="black" points="756.5,-73 756.5,-92 935.5,-92 935.5,-73 756.5,-73"/>
<text text-anchor="middle" x="846" y="-80" font-family="Helvetica,sans-Serif" font-size="10.00">src/libs/vlayout/vlayoutpaper_p.h</text>
</a>
</g>
</g>
<!-- Node8&#45;&gt;Node13 -->
<g id="edge14" class="edge">
<title>Node8&#45;&gt;Node13</title>
<path fill="none" stroke="midnightblue" d="M752.89,-134.79C776.28,-121.9 810.56,-103.02 830.34,-92.13"/>
<polygon fill="midnightblue" stroke="midnightblue" points="750.98,-131.84 743.91,-139.73 754.36,-137.97 750.98,-131.84"/>
</g>
<!-- Node14 -->
<g id="node14" class="node">
<title>Node14</title>
<g id="a_node14"><a xlink:href="../../d1/dd1/vlayoutpaper_8cpp.html" target="_top" xlink:title=" ">
<polygon fill="white" stroke="black" points="639,-6 639,-25 817,-25 817,-6 639,-6"/>
<text text-anchor="middle" x="728" y="-13" font-family="Helvetica,sans-Serif" font-size="10.00">src/libs/vlayout/vlayoutpaper.cpp</text>
</a>
</g>
</g>
<!-- Node8&#45;&gt;Node14 -->
<g id="edge16" class="edge">
<title>Node8&#45;&gt;Node14</title>
<path fill="none" stroke="midnightblue" d="M728,-129.78C728,-100.75 728,-46.04 728,-25.02"/>
<polygon fill="midnightblue" stroke="midnightblue" points="724.5,-129.84 728,-139.84 731.5,-129.84 724.5,-129.84"/>
</g>
<!-- Node15 -->
<g id="node15" class="node">
<title>Node15</title>
<g id="a_node15"><a xlink:href="../../db/d5c/vposition_8h.html" target="_top" xlink:title=" ">
<polygon fill="white" stroke="red" points="552,-73 552,-92 700,-92 700,-73 552,-73"/>
<text text-anchor="middle" x="626" y="-80" font-family="Helvetica,sans-Serif" font-size="10.00">src/libs/vlayout/vposition.h</text>
</a>
</g>
</g>
<!-- Node8&#45;&gt;Node15 -->
<g id="edge17" class="edge">
<title>Node8&#45;&gt;Node15</title>
<path fill="none" stroke="midnightblue" d="M705.67,-134.27C685.48,-121.4 656.41,-102.88 639.54,-92.13"/>
<polygon fill="midnightblue" stroke="midnightblue" points="703.93,-137.31 714.24,-139.73 707.69,-131.41 703.93,-137.31"/>
</g>
<!-- Node17 -->
<g id="node16" class="node">
<title>Node17</title>
<g id="a_node16"><a xlink:href="../../dd/d70/vlayoutpiece_8cpp.html" target="_top" xlink:title=" ">
<polygon fill="white" stroke="black" points="1126.5,-73 1126.5,-92 1303.5,-92 1303.5,-73 1126.5,-73"/>
<text text-anchor="middle" x="1215" y="-80" font-family="Helvetica,sans-Serif" font-size="10.00">src/libs/vlayout/vlayoutpiece.cpp</text>
</a>
</g>
</g>
<!-- Node8&#45;&gt;Node17 -->
<g id="edge19" class="edge">
<title>Node8&#45;&gt;Node17</title>
<path fill="none" stroke="midnightblue" d="M806.87,-138.68C885.5,-128.79 1009.68,-112.9 1117,-98 1130.46,-96.13 1144.94,-94.03 1158.54,-92.03"/>
<polygon fill="midnightblue" stroke="midnightblue" points="806.05,-135.25 796.56,-139.97 806.92,-142.2 806.05,-135.25"/>
</g>
<!-- Node13&#45;&gt;Node14 -->
<g id="edge15" class="edge">
<title>Node13&#45;&gt;Node14</title>
<path fill="none" stroke="midnightblue" d="M821.11,-67.79C797.72,-54.9 763.44,-36.02 743.66,-25.13"/>
<polygon fill="midnightblue" stroke="midnightblue" points="819.64,-70.97 830.09,-72.73 823.02,-64.84 819.64,-70.97"/>
</g>
<!-- Node15&#45;&gt;Node14 -->
<g id="edge18" class="edge">
<title>Node15&#45;&gt;Node14</title>
<path fill="none" stroke="midnightblue" d="M648.33,-67.27C668.52,-54.4 697.59,-35.88 714.46,-25.13"/>
<polygon fill="midnightblue" stroke="midnightblue" points="646.31,-64.41 639.76,-72.73 650.07,-70.31 646.31,-64.41"/>
</g>
<!-- Node19&#45;&gt;Node4 -->
<g id="edge38" class="edge">
<title>Node19&#45;&gt;Node4</title>
<path fill="none" stroke="midnightblue" d="M3451.17,-148.82C3076.64,-149.46 1833.54,-147.71 1438,-98 1434.99,-97.62 1431.92,-97.16 1428.83,-96.64"/>
<polygon fill="midnightblue" stroke="midnightblue" points="3451.2,-152.32 3461.19,-148.8 3451.18,-145.32 3451.2,-152.32"/>
</g>
<!-- Node19&#45;&gt;Node17 -->
<g id="edge32" class="edge">
<title>Node19&#45;&gt;Node17</title>
<path fill="none" stroke="midnightblue" d="M3451.22,-147.88C3062.75,-145.36 1735.06,-134.23 1312,-98 1296.22,-96.65 1279.11,-94.37 1263.71,-92.01"/>
<polygon fill="midnightblue" stroke="midnightblue" points="3451.31,-151.38 3461.33,-147.94 3451.36,-144.38 3451.31,-151.38"/>
</g>
<!-- Node19&#45;&gt;Node18 -->
<g id="edge33" class="edge">
<title>Node19&#45;&gt;Node18</title>
<path fill="none" stroke="midnightblue" d="M3451.31,-145.84C3052.95,-135.98 1683.43,-101.88 1638,-98 1621.83,-96.62 1604.29,-94.34 1588.48,-92"/>
<polygon fill="midnightblue" stroke="midnightblue" points="3451.31,-149.34 3461.39,-146.09 3451.48,-142.34 3451.31,-149.34"/>
</g>
<!-- Node20 -->
<g id="node19" class="node">
<title>Node20</title>
<g id="a_node19"><a xlink:href="../../d4/d90/fvupdater_8cpp.html" target="_top" xlink:title=" ">
<polygon fill="white" stroke="black" points="3482.5,-73 3482.5,-92 3635.5,-92 3635.5,-73 3482.5,-73"/>
<text text-anchor="middle" x="3559" y="-80" font-family="Helvetica,sans-Serif" font-size="10.00">src/libs/fervor/fvupdater.cpp</text>
</a>
</g>
</g>
<!-- Node19&#45;&gt;Node20 -->
<g id="edge22" class="edge">
<title>Node19&#45;&gt;Node20</title>
<path fill="none" stroke="midnightblue" d="M3559,-129.54C3559,-117.17 3559,-101.62 3559,-92.13"/>
<polygon fill="midnightblue" stroke="midnightblue" points="3555.5,-129.73 3559,-139.73 3562.5,-129.73 3555.5,-129.73"/>
</g>
<!-- Node21 -->
<g id="node20" class="node">
<title>Node21</title>
<g id="a_node20"><a xlink:href="../../d9/dc8/dxiface_8cpp.html" target="_top" xlink:title=" ">
<polygon fill="white" stroke="black" points="3653.5,-73 3653.5,-92 3788.5,-92 3788.5,-73 3653.5,-73"/>
<text text-anchor="middle" x="3721" y="-80" font-family="Helvetica,sans-Serif" font-size="10.00">src/libs/vdxf/dxiface.cpp</text>
</a>
</g>
</g>
<!-- Node19&#45;&gt;Node21 -->
<g id="edge23" class="edge">
<title>Node19&#45;&gt;Node21</title>
<path fill="none" stroke="midnightblue" d="M3589.89,-136.1C3622.06,-123.2 3671.58,-103.33 3699.66,-92.06"/>
<polygon fill="midnightblue" stroke="midnightblue" points="3588.49,-132.9 3580.51,-139.87 3591.1,-139.39 3588.49,-132.9"/>
</g>
<!-- Node22 -->
<g id="node21" class="node">
<title>Node22</title>
<g id="a_node21"><a xlink:href="../../da/d75/vabstractarc__p_8h.html" target="_top" xlink:title=" ">
<polygon fill="white" stroke="red" points="3806.5,-67.5 3806.5,-97.5 3913.5,-97.5 3913.5,-67.5 3806.5,-67.5"/>
<text text-anchor="start" x="3814.5" y="-85.5" font-family="Helvetica,sans-Serif" font-size="10.00">src/libs/vgeometry</text>
<text text-anchor="middle" x="3860" y="-74.5" font-family="Helvetica,sans-Serif" font-size="10.00">/vabstractarc_p.h</text>
</a>
</g>
</g>
<!-- Node19&#45;&gt;Node22 -->
<g id="edge24" class="edge">
<title>Node19&#45;&gt;Node22</title>
<path fill="none" stroke="midnightblue" d="M3610.21,-137.9C3658.44,-127.85 3732.7,-112.22 3797,-98 3800.07,-97.32 3803.22,-96.62 3806.4,-95.9"/>
<polygon fill="midnightblue" stroke="midnightblue" points="3609.4,-134.49 3600.32,-139.96 3610.83,-141.35 3609.4,-134.49"/>
</g>
<!-- Node24 -->
<g id="node22" class="node">
<title>Node24</title>
<g id="a_node22"><a xlink:href="../../dc/da3/varc__p_8h.html" target="_top" xlink:title=" ">
<polygon fill="white" stroke="red" points="3931.5,-67.5 3931.5,-97.5 4038.5,-97.5 4038.5,-67.5 3931.5,-67.5"/>
<text text-anchor="start" x="3939.5" y="-85.5" font-family="Helvetica,sans-Serif" font-size="10.00">src/libs/vgeometry</text>
<text text-anchor="middle" x="3985" y="-74.5" font-family="Helvetica,sans-Serif" font-size="10.00">/varc_p.h</text>
</a>
</g>
</g>
<!-- Node19&#45;&gt;Node24 -->
<g id="edge25" class="edge">
<title>Node19&#45;&gt;Node24</title>
<path fill="none" stroke="midnightblue" d="M3644.56,-138.75C3718.34,-129.83 3827.57,-115.4 3922,-98 3925.09,-97.43 3928.26,-96.81 3931.45,-96.16"/>
<polygon fill="midnightblue" stroke="midnightblue" points="3643.91,-135.31 3634.39,-139.97 3644.74,-142.26 3643.91,-135.31"/>
</g>
<!-- Node26 -->
<g id="node23" class="node">
<title>Node26</title>
<g id="a_node23"><a xlink:href="../../d5/d8e/vcubicbezier__p_8h.html" target="_top" xlink:title=" ">
<polygon fill="white" stroke="red" points="4056.5,-67.5 4056.5,-97.5 4163.5,-97.5 4163.5,-67.5 4056.5,-67.5"/>
<text text-anchor="start" x="4064.5" y="-85.5" font-family="Helvetica,sans-Serif" font-size="10.00">src/libs/vgeometry</text>
<text text-anchor="middle" x="4110" y="-74.5" font-family="Helvetica,sans-Serif" font-size="10.00">/vcubicbezier_p.h</text>
</a>
</g>
</g>
<!-- Node19&#45;&gt;Node26 -->
<g id="edge26" class="edge">
<title>Node19&#45;&gt;Node26</title>
<path fill="none" stroke="midnightblue" d="M3666.73,-141.18C3765.95,-133.53 3917.03,-119.6 4047,-98 4050.1,-97.48 4053.28,-96.91 4056.47,-96.29"/>
<polygon fill="midnightblue" stroke="midnightblue" points="3666.4,-137.7 3656.69,-141.95 3666.93,-144.68 3666.4,-137.7"/>
</g>
<!-- Node28 -->
<g id="node24" class="node">
<title>Node28</title>
<g id="a_node24"><a xlink:href="../../df/dde/vellipticalarc__p_8h.html" target="_top" xlink:title=" ">
<polygon fill="white" stroke="black" points="4181.5,-67.5 4181.5,-97.5 4288.5,-97.5 4288.5,-67.5 4181.5,-67.5"/>
<text text-anchor="start" x="4189.5" y="-85.5" font-family="Helvetica,sans-Serif" font-size="10.00">src/libs/vgeometry</text>
<text text-anchor="middle" x="4235" y="-74.5" font-family="Helvetica,sans-Serif" font-size="10.00">/vellipticalarc_p.h</text>
</a>
</g>
</g>
<!-- Node19&#45;&gt;Node28 -->
<g id="edge27" class="edge">
<title>Node19&#45;&gt;Node28</title>
<path fill="none" stroke="midnightblue" d="M3666.82,-144.32C3789.69,-138.47 3996.24,-125.32 4172,-98 4175.11,-97.52 4178.28,-96.97 4181.49,-96.37"/>
<polygon fill="midnightblue" stroke="midnightblue" points="3666.48,-140.83 3656.65,-144.8 3666.81,-147.82 3666.48,-140.83"/>
</g>
<!-- Node29 -->
<g id="node25" class="node">
<title>Node29</title>
<g id="a_node25"><a xlink:href="../../d6/dfb/vellipticalarc_8cpp.html" target="_top" xlink:title=" ">
<polygon fill="white" stroke="black" points="2955.5,-0.5 2955.5,-30.5 3062.5,-30.5 3062.5,-0.5 2955.5,-0.5"/>
<text text-anchor="start" x="2963.5" y="-18.5" font-family="Helvetica,sans-Serif" font-size="10.00">src/libs/vgeometry</text>
<text text-anchor="middle" x="3009" y="-7.5" font-family="Helvetica,sans-Serif" font-size="10.00">/vellipticalarc.cpp</text>
</a>
</g>
</g>
<!-- Node19&#45;&gt;Node29 -->
<g id="edge29" class="edge">
<title>Node19&#45;&gt;Node29</title>
<path fill="none" stroke="midnightblue" d="M3451.02,-145.89C3069.76,-136.62 1809.22,-105.43 1802,-98 1792.4,-88.12 1792.46,-76.94 1802,-67 1842.42,-24.85 2726.32,-17.82 2955.25,-16.7"/>
<polygon fill="midnightblue" stroke="midnightblue" points="3451.14,-149.4 3461.22,-146.14 3451.31,-142.4 3451.14,-149.4"/>
</g>
<!-- Node30 -->
<g id="node26" class="node">
<title>Node30</title>
<g id="a_node26"><a xlink:href="../../d1/d76/vspline__p_8h.html" target="_top" xlink:title=" ">
<polygon fill="white" stroke="red" points="4306.5,-67.5 4306.5,-97.5 4413.5,-97.5 4413.5,-67.5 4306.5,-67.5"/>
<text text-anchor="start" x="4314.5" y="-85.5" font-family="Helvetica,sans-Serif" font-size="10.00">src/libs/vgeometry</text>
<text text-anchor="middle" x="4360" y="-74.5" font-family="Helvetica,sans-Serif" font-size="10.00">/vspline_p.h</text>
</a>
</g>
</g>
<!-- Node19&#45;&gt;Node30 -->
<g id="edge30" class="edge">
<title>Node19&#45;&gt;Node30</title>
<path fill="none" stroke="midnightblue" d="M3666.7,-146.45C3810.94,-142.49 4074.47,-131.01 4297,-98 4300.11,-97.54 4303.29,-97.01 4306.49,-96.42"/>
<polygon fill="midnightblue" stroke="midnightblue" points="3666.43,-142.95 3656.53,-146.72 3666.62,-149.95 3666.43,-142.95"/>
</g>
<!-- Node32 -->
<g id="node27" class="node">
<title>Node32</title>
<g id="a_node27"><a xlink:href="../../d9/d15/vabstractpiece_8cpp.html" target="_top" xlink:title=" ">
<polygon fill="white" stroke="black" points="4432,-73 4432,-92 4618,-92 4618,-73 4432,-73"/>
<text text-anchor="middle" x="4525" y="-80" font-family="Helvetica,sans-Serif" font-size="10.00">src/libs/vlayout/vabstractpiece.cpp</text>
</a>
</g>
</g>
<!-- Node19&#45;&gt;Node32 -->
<g id="edge31" class="edge">
<title>Node19&#45;&gt;Node32</title>
<path fill="none" stroke="midnightblue" d="M3666.66,-145.02C3830.18,-139.09 4150.83,-124.98 4422,-98 4437.81,-96.43 4454.93,-94.22 4470.58,-92.01"/>
<polygon fill="midnightblue" stroke="midnightblue" points="3666.46,-141.52 3656.59,-145.38 3666.71,-148.52 3666.46,-141.52"/>
</g>
<!-- Node33 -->
<g id="node28" class="node">
<title>Node33</title>
<g id="a_node28"><a xlink:href="../../db/d65/dialogexporttocsv_8cpp.html" target="_top" xlink:title=" ">
<polygon fill="white" stroke="black" points="4636.5,-67.5 4636.5,-97.5 4763.5,-97.5 4763.5,-67.5 4636.5,-67.5"/>
<text text-anchor="start" x="4644.5" y="-85.5" font-family="Helvetica,sans-Serif" font-size="10.00">src/libs/vmisc/dialogs</text>
<text text-anchor="middle" x="4700" y="-74.5" font-family="Helvetica,sans-Serif" font-size="10.00">/dialogexporttocsv.cpp</text>
</a>
</g>
</g>
<!-- Node19&#45;&gt;Node33 -->
<g id="edge34" class="edge">
<title>Node19&#45;&gt;Node33</title>
<path fill="none" stroke="midnightblue" d="M3666.75,-148.69C3859.92,-147.86 4277.65,-140.71 4627,-98 4630.08,-97.62 4633.22,-97.19 4636.39,-96.71"/>
<polygon fill="midnightblue" stroke="midnightblue" points="3666.58,-145.19 3656.6,-148.73 3666.61,-152.19 3666.58,-145.19"/>
</g>
<!-- Node34 -->
<g id="node29" class="node">
<title>Node34</title>
<g id="a_node29"><a xlink:href="../../d6/d0b/def_8cpp.html" target="_top" xlink:title=" ">
<polygon fill="white" stroke="black" points="4782,-73 4782,-92 4904,-92 4904,-73 4782,-73"/>
<text text-anchor="middle" x="4843" y="-80" font-family="Helvetica,sans-Serif" font-size="10.00">src/libs/vmisc/def.cpp</text>
</a>
</g>
</g>
<!-- Node19&#45;&gt;Node34 -->
<g id="edge35" class="edge">
<title>Node19&#45;&gt;Node34</title>
<path fill="none" stroke="midnightblue" d="M3666.93,-146.22C3922.65,-140.46 4559.86,-123.91 4772,-98 4783.49,-96.6 4795.89,-94.33 4807.06,-92"/>
<polygon fill="midnightblue" stroke="midnightblue" points="3666.81,-142.72 3656.89,-146.44 3666.96,-149.72 3666.81,-142.72"/>
</g>
<!-- Node35 -->
<g id="node30" class="node">
<title>Node35</title>
<g id="a_node30"><a xlink:href="../../d0/df6/vabstractapplication_8cpp.html" target="_top" xlink:title=" ">
<polygon fill="white" stroke="black" points="4922,-73 4922,-92 5128,-92 5128,-73 4922,-73"/>
<text text-anchor="middle" x="5025" y="-80" font-family="Helvetica,sans-Serif" font-size="10.00">src/libs/vmisc/vabstractapplication.cpp</text>
</a>
</g>
</g>
<!-- Node19&#45;&gt;Node35 -->
<g id="edge36" class="edge">
<title>Node19&#45;&gt;Node35</title>
<path fill="none" stroke="midnightblue" d="M3666.91,-147.82C3896.55,-145.65 4450.44,-136.49 4913,-98 4930.68,-96.53 4949.86,-94.29 4967.27,-92"/>
<polygon fill="midnightblue" stroke="midnightblue" points="3666.85,-144.32 3656.88,-147.92 3666.92,-151.32 3666.85,-144.32"/>
</g>
<!-- Node36 -->
<g id="node31" class="node">
<title>Node36</title>
<g id="a_node31"><a xlink:href="../../d4/d4f/pmsystems_8cpp.html" target="_top" xlink:title=" ">
<polygon fill="white" stroke="black" points="1647.5,-67.5 1647.5,-97.5 1754.5,-97.5 1754.5,-67.5 1647.5,-67.5"/>
<text text-anchor="start" x="1655.5" y="-85.5" font-family="Helvetica,sans-Serif" font-size="10.00">src/libs/vpatterndb</text>
<text text-anchor="middle" x="1701" y="-74.5" font-family="Helvetica,sans-Serif" font-size="10.00">/pmsystems.cpp</text>
</a>
</g>
</g>
<!-- Node19&#45;&gt;Node36 -->
<g id="edge37" class="edge">
<title>Node19&#45;&gt;Node36</title>
<path fill="none" stroke="midnightblue" d="M3451.37,-146C3077.41,-137.26 1852.62,-108.01 1769,-98 1764.33,-97.44 1759.5,-96.71 1754.67,-95.89"/>
<polygon fill="midnightblue" stroke="midnightblue" points="3451.31,-149.5 3461.38,-146.24 3451.47,-142.51 3451.31,-149.5"/>
</g>
<!-- Node19&#45;&gt;Node37 -->
<g id="edge39" class="edge">
<title>Node19&#45;&gt;Node37</title>
<path fill="none" stroke="midnightblue" d="M3667.01,-148.07C3991.04,-146.35 4951.64,-137.92 5262,-98 5265.01,-97.61 5268.08,-97.15 5271.17,-96.62"/>
<polygon fill="midnightblue" stroke="midnightblue" points="3666.66,-144.57 3656.68,-148.13 3666.69,-151.57 3666.66,-144.57"/>
</g>
<!-- Node38 -->
<g id="node33" class="node">
<title>Node38</title>
<g id="a_node33"><a xlink:href="../../df/dba/vpiecenode__p_8h.html" target="_top" xlink:title=" ">
<polygon fill="white" stroke="black" points="5146.5,-67.5 5146.5,-97.5 5253.5,-97.5 5253.5,-67.5 5146.5,-67.5"/>
<text text-anchor="start" x="5154.5" y="-85.5" font-family="Helvetica,sans-Serif" font-size="10.00">src/libs/vpatterndb</text>
<text text-anchor="middle" x="5200" y="-74.5" font-family="Helvetica,sans-Serif" font-size="10.00">/vpiecenode_p.h</text>
</a>
</g>
</g>
<!-- Node19&#45;&gt;Node38 -->
<g id="edge40" class="edge">
<title>Node19&#45;&gt;Node38</title>
<path fill="none" stroke="midnightblue" d="M3667.02,-147.77C3974.73,-145.27 4851.94,-135.01 5137,-98 5140.01,-97.61 5143.08,-97.14 5146.17,-96.61"/>
<polygon fill="midnightblue" stroke="midnightblue" points="3666.73,-144.28 3656.76,-147.86 3666.79,-151.28 3666.73,-144.28"/>
</g>
<!-- Node40 -->
<g id="node35" class="node">
<title>Node40</title>
<g id="a_node35"><a xlink:href="../../de/d3e/vtranslatevars_8cpp.html" target="_top" xlink:title=" ">
<polygon fill="white" stroke="black" points="1811,-67.5 1811,-97.5 1921,-97.5 1921,-67.5 1811,-67.5"/>
<text text-anchor="start" x="1819" y="-85.5" font-family="Helvetica,sans-Serif" font-size="10.00">src/libs/vpatterndb</text>
<text text-anchor="middle" x="1866" y="-74.5" font-family="Helvetica,sans-Serif" font-size="10.00">/vtranslatevars.cpp</text>
</a>
</g>
</g>
<!-- Node19&#45;&gt;Node40 -->
<g id="edge42" class="edge">
<title>Node19&#45;&gt;Node40</title>
<path fill="none" stroke="midnightblue" d="M3451.04,-145.72C3099.41,-136.6 2005.3,-107.61 1930,-98 1927.06,-97.63 1924.06,-97.18 1921.04,-96.67"/>
<polygon fill="midnightblue" stroke="midnightblue" points="3451.14,-149.23 3461.23,-145.99 3451.32,-142.23 3451.14,-149.23"/>
</g>
<!-- Node19&#45;&gt;Node41 -->
<g id="edge43" class="edge">
<title>Node19&#45;&gt;Node41</title>
<path fill="none" stroke="midnightblue" d="M3666.66,-148.33C4006.09,-147.35 5051.16,-140.86 5387,-98 5390.01,-97.62 5393.08,-97.15 5396.17,-96.63"/>
<polygon fill="midnightblue" stroke="midnightblue" points="3666.58,-144.83 3656.59,-148.36 3666.6,-151.83 3666.58,-144.83"/>
</g>
<!-- Node42 -->
<g id="node37" class="node">
<title>Node42</title>
<g id="a_node37"><a xlink:href="../../df/d40/export__format__combobox_8cpp.html" target="_top" xlink:title=" ">
<polygon fill="white" stroke="black" points="1939.5,-67.5 1939.5,-97.5 2072.5,-97.5 2072.5,-67.5 1939.5,-67.5"/>
<text text-anchor="start" x="1947.5" y="-85.5" font-family="Helvetica,sans-Serif" font-size="10.00">src/libs/vwidgets/export</text>
<text text-anchor="middle" x="2006" y="-74.5" font-family="Helvetica,sans-Serif" font-size="10.00">_format_combobox.cpp</text>
</a>
</g>
</g>
<!-- Node19&#45;&gt;Node42 -->
<g id="edge44" class="edge">
<title>Node19&#45;&gt;Node42</title>
<path fill="none" stroke="midnightblue" d="M3451.25,-145.78C3133.92,-137.63 2216.6,-113.05 2082,-98 2078.93,-97.66 2075.8,-97.26 2072.64,-96.82"/>
<polygon fill="midnightblue" stroke="midnightblue" points="3451.29,-149.28 3461.38,-146.04 3451.47,-142.28 3451.29,-149.28"/>
</g>
<!-- Node43 -->
<g id="node38" class="node">
<title>Node43</title>
<g id="a_node38"><a xlink:href="../../d3/d4f/mouse__coordinates_8cpp.html" target="_top" xlink:title=" ">
<polygon fill="white" stroke="black" points="2091,-67.5 2091,-97.5 2225,-97.5 2225,-67.5 2091,-67.5"/>
<text text-anchor="start" x="2099" y="-85.5" font-family="Helvetica,sans-Serif" font-size="10.00">src/libs/vwidgets/mouse</text>
<text text-anchor="middle" x="2158" y="-74.5" font-family="Helvetica,sans-Serif" font-size="10.00">_coordinates.cpp</text>
</a>
</g>
</g>
<!-- Node19&#45;&gt;Node43 -->
<g id="edge45" class="edge">
<title>Node19&#45;&gt;Node43</title>
<path fill="none" stroke="midnightblue" d="M3450.98,-145.32C3156.42,-136.51 2353.17,-111.56 2234,-98 2231.06,-97.67 2228.07,-97.28 2225.05,-96.86"/>
<polygon fill="midnightblue" stroke="midnightblue" points="3451.15,-148.82 3461.25,-145.62 3451.36,-141.83 3451.15,-148.82"/>
</g>
<!-- Node44 -->
<g id="node39" class="node">
<title>Node44</title>
<g id="a_node39"><a xlink:href="../../d8/d76/scene__rect_8cpp.html" target="_top" xlink:title=" ">
<polygon fill="white" stroke="black" points="2243,-67.5 2243,-97.5 2373,-97.5 2373,-67.5 2243,-67.5"/>
<text text-anchor="start" x="2251" y="-85.5" font-family="Helvetica,sans-Serif" font-size="10.00">src/libs/vwidgets/scene</text>
<text text-anchor="middle" x="2308" y="-74.5" font-family="Helvetica,sans-Serif" font-size="10.00">_rect.cpp</text>
</a>
</g>
</g>
<!-- Node19&#45;&gt;Node44 -->
<g id="edge46" class="edge">
<title>Node19&#45;&gt;Node44</title>
<path fill="none" stroke="midnightblue" d="M3451.18,-145.95C3201.06,-139.71 2587.08,-122.35 2382,-98 2379.14,-97.66 2376.22,-97.27 2373.29,-96.85"/>
<polygon fill="midnightblue" stroke="midnightblue" points="3451.29,-149.46 3461.37,-146.21 3451.46,-142.46 3451.29,-149.46"/>
</g>
<!-- Node45 -->
<g id="node40" class="node">
<title>Node45</title>
<g id="a_node40"><a xlink:href="../../d7/d1b/pen__toolbar_8cpp.html" target="_top" xlink:title=" ">
<polygon fill="white" stroke="black" points="2391.5,-67.5 2391.5,-97.5 2510.5,-97.5 2510.5,-67.5 2391.5,-67.5"/>
<text text-anchor="start" x="2399.5" y="-85.5" font-family="Helvetica,sans-Serif" font-size="10.00">src/libs/vwidgets/pen</text>
<text text-anchor="middle" x="2451" y="-74.5" font-family="Helvetica,sans-Serif" font-size="10.00">_toolbar.cpp</text>
</a>
</g>
</g>
<!-- Node19&#45;&gt;Node45 -->
<g id="edge47" class="edge">
<title>Node19&#45;&gt;Node45</title>
<path fill="none" stroke="midnightblue" d="M3451.07,-145.47C3222.63,-138.7 2696.65,-121.1 2519,-98 2516.25,-97.64 2513.44,-97.23 2510.61,-96.78"/>
<polygon fill="midnightblue" stroke="midnightblue" points="3451.29,-148.98 3461.39,-145.78 3451.5,-141.98 3451.29,-148.98"/>
</g>
<!-- Node46 -->
<g id="node41" class="node">
<title>Node46</title>
<g id="a_node41"><a xlink:href="../../dd/df6/vabstractmainwindow_8cpp.html" target="_top" xlink:title=" ">
<polygon fill="white" stroke="black" points="2528.5,-73 2528.5,-92 2757.5,-92 2757.5,-73 2528.5,-73"/>
<text text-anchor="middle" x="2643" y="-80" font-family="Helvetica,sans-Serif" font-size="10.00">src/libs/vwidgets/vabstractmainwindow.cpp</text>
</a>
</g>
</g>
<!-- Node19&#45;&gt;Node46 -->
<g id="edge48" class="edge">
<title>Node19&#45;&gt;Node46</title>
<path fill="none" stroke="midnightblue" d="M3450.89,-143.46C3298.12,-135.92 3010.43,-120.17 2766,-98 2747.69,-96.34 2727.89,-94.17 2709.64,-92.02"/>
<polygon fill="midnightblue" stroke="midnightblue" points="3451.04,-146.97 3461.2,-143.97 3451.39,-139.98 3451.04,-146.97"/>
</g>
<!-- Node47 -->
<g id="node42" class="node">
<title>Node47</title>
<g id="a_node42"><a xlink:href="../../d1/d90/vgrainlineitem_8cpp.html" target="_top" xlink:title=" ">
<polygon fill="white" stroke="black" points="2775.5,-73 2775.5,-92 2968.5,-92 2968.5,-73 2775.5,-73"/>
<text text-anchor="middle" x="2872" y="-80" font-family="Helvetica,sans-Serif" font-size="10.00">src/libs/vwidgets/vgrainlineitem.cpp</text>
</a>
</g>
</g>
<!-- Node19&#45;&gt;Node47 -->
<g id="edge49" class="edge">
<title>Node19&#45;&gt;Node47</title>
<path fill="none" stroke="midnightblue" d="M3451.25,-140.79C3334.3,-132.05 3142.14,-116.55 2977,-98 2961.64,-96.27 2945.05,-94.12 2929.7,-92"/>
<polygon fill="midnightblue" stroke="midnightblue" points="3451.05,-144.29 3461.28,-141.54 3451.57,-137.31 3451.05,-144.29"/>
</g>
<!-- Node48 -->
<g id="node43" class="node">
<title>Node48</title>
<g id="a_node43"><a xlink:href="../../de/d45/vcontrolpointspline_8cpp.html" target="_top" xlink:title=" ">
<polygon fill="white" stroke="black" points="2986.5,-73 2986.5,-92 3201.5,-92 3201.5,-73 2986.5,-73"/>
<text text-anchor="middle" x="3094" y="-80" font-family="Helvetica,sans-Serif" font-size="10.00">src/libs/vwidgets/vcontrolpointspline.cpp</text>
</a>
</g>
</g>
<!-- Node19&#45;&gt;Node48 -->
<g id="edge50" class="edge">
<title>Node19&#45;&gt;Node48</title>
<path fill="none" stroke="midnightblue" d="M3487.78,-138.54C3396.79,-125.83 3240.84,-104.03 3155.03,-92.03"/>
<polygon fill="midnightblue" stroke="midnightblue" points="3487.34,-142.02 3497.73,-139.94 3488.31,-135.08 3487.34,-142.02"/>
</g>
<!-- Node49 -->
<g id="node44" class="node">
<title>Node49</title>
<g id="a_node44"><a xlink:href="../../de/dec/vgraphicssimpletextitem_8cpp.html" target="_top" xlink:title=" ">
<polygon fill="white" stroke="black" points="3220,-73 3220,-92 3464,-92 3464,-73 3220,-73"/>
<text text-anchor="middle" x="3342" y="-80" font-family="Helvetica,sans-Serif" font-size="10.00">src/libs/vwidgets/vgraphicssimpletextitem.cpp</text>
</a>
</g>
</g>
<!-- Node19&#45;&gt;Node49 -->
<g id="edge51" class="edge">
<title>Node19&#45;&gt;Node49</title>
<path fill="none" stroke="midnightblue" d="M3520.37,-136.93C3477.4,-124.06 3409,-103.57 3370.59,-92.06"/>
<polygon fill="midnightblue" stroke="midnightblue" points="3519.6,-140.35 3530.18,-139.87 3521.61,-133.65 3519.6,-140.35"/>
</g>
<!-- Node28&#45;&gt;Node29 -->
<g id="edge28" class="edge">
<title>Node28&#45;&gt;Node29</title>
<path fill="none" stroke="midnightblue" d="M4171.21,-67.12C3933.84,-36.9 3258.65,-21.48 3062.81,-17.53"/>
<polygon fill="midnightblue" stroke="midnightblue" points="4170.79,-70.59 4181.16,-68.43 4171.71,-63.65 4170.79,-70.59"/>
</g>
<!-- Node38&#45;&gt;Node39 -->
<g id="edge41" class="edge">
<title>Node38&#45;&gt;Node39</title>
<path fill="none" stroke="midnightblue" d="M5245.51,-63.68C5272.13,-53.26 5305.27,-40.28 5330.05,-30.58"/>
<polygon fill="midnightblue" stroke="midnightblue" points="5244.05,-60.49 5236.02,-67.4 5246.61,-67.01 5244.05,-60.49"/>
</g>
<!-- Node58&#45;&gt;Node3 -->
<g id="edge54" class="edge">
<title>Node58&#45;&gt;Node3</title>
<path fill="none" stroke="midnightblue" d="M6522.61,-129.44C6541.12,-119.24 6563.52,-106.9 6580.45,-97.58"/>
<polygon fill="midnightblue" stroke="midnightblue" points="6520.67,-126.51 6513.6,-134.4 6524.05,-132.64 6520.67,-126.51"/>
</g>
</g>
</svg>
