<?xml version="1.0" encoding="UTF-8" standalone="no"?>
<!DOCTYPE svg PUBLIC "-//W3C//DTD SVG 1.1//EN"
 "http://www.w3.org/Graphics/SVG/1.1/DTD/svg11.dtd">
<!-- Generated by graphviz version 2.43.0 (0)
 -->
<!-- Title: src/libs/vmisc/vsettings.h Pages: 1 -->
<svg width="7557pt" height="229pt"
 viewBox="0.00 0.00 7556.50 229.00" xmlns="http://www.w3.org/2000/svg" xmlns:xlink="http://www.w3.org/1999/xlink">
<g id="graph0" class="graph" transform="scale(1 1) rotate(0) translate(4 225)">
<title>src/libs/vmisc/vsettings.h</title>
<polygon fill="white" stroke="transparent" points="-4,4 -4,-225 7552.5,-225 7552.5,4 -4,4"/>
<!-- Node1 -->
<g id="node1" class="node">
<title>Node1</title>
<g id="a_node1"><a xlink:title=" ">
<polygon fill="#bfbfbf" stroke="black" points="5696.5,-201.5 5696.5,-220.5 5836.5,-220.5 5836.5,-201.5 5696.5,-201.5"/>
<text text-anchor="middle" x="5766.5" y="-208.5" font-family="Helvetica,sans-Serif" font-size="10.00">src/libs/vmisc/vsettings.h</text>
</a>
</g>
</g>
<!-- Node2 -->
<g id="node2" class="node">
<title>Node2</title>
<g id="a_node2"><a xlink:href="../../d9/d02/vapplication_8h.html" target="_top" xlink:title=" ">
<polygon fill="white" stroke="black" points="2143,-134.5 2143,-164.5 2270,-164.5 2270,-134.5 2143,-134.5"/>
<text text-anchor="start" x="2151" y="-152.5" font-family="Helvetica,sans-Serif" font-size="10.00">src/app/seamly2d/core</text>
<text text-anchor="middle" x="2206.5" y="-141.5" font-family="Helvetica,sans-Serif" font-size="10.00">/vapplication.h</text>
</a>
</g>
</g>
<!-- Node1&#45;&gt;Node2 -->
<g id="edge1" class="edge">
<title>Node1&#45;&gt;Node2</title>
<path fill="none" stroke="midnightblue" d="M5685.83,-208.65C5203.1,-200.58 2702.94,-158.8 2270.32,-151.57"/>
<polygon fill="midnightblue" stroke="midnightblue" points="5686.13,-212.16 5696.19,-208.82 5686.25,-205.16 5686.13,-212.16"/>
</g>
<!-- Node25 -->
<g id="node25" class="node">
<title>Node25</title>
<g id="a_node25"><a xlink:href="../../d5/d74/vabstractapplication_8h.html" target="_top" xlink:title=" ">
<polygon fill="white" stroke="red" points="5607,-140 5607,-159 5802,-159 5802,-140 5607,-140"/>
<text text-anchor="middle" x="5704.5" y="-147" font-family="Helvetica,sans-Serif" font-size="10.00">src/libs/vmisc/vabstractapplication.h</text>
</a>
</g>
</g>
<!-- Node1&#45;&gt;Node25 -->
<g id="edge24" class="edge">
<title>Node1&#45;&gt;Node25</title>
<path fill="none" stroke="midnightblue" d="M5750.17,-194.32C5738.39,-183.02 5722.94,-168.19 5713.37,-159.01"/>
<polygon fill="midnightblue" stroke="midnightblue" points="5747.98,-197.08 5757.62,-201.48 5752.83,-192.03 5747.98,-197.08"/>
</g>
<!-- Node61 -->
<g id="node49" class="node">
<title>Node61</title>
<g id="a_node49"><a xlink:href="../../d2/d31/vmaingraphicsview_8cpp.html" target="_top" xlink:title=" ">
<polygon fill="white" stroke="black" points="7332.5,-73 7332.5,-92 7548.5,-92 7548.5,-73 7332.5,-73"/>
<text text-anchor="middle" x="7440.5" y="-80" font-family="Helvetica,sans-Serif" font-size="10.00">src/libs/vwidgets/vmaingraphicsview.cpp</text>
</a>
</g>
</g>
<!-- Node1&#45;&gt;Node61 -->
<g id="edge51" class="edge">
<title>Node1&#45;&gt;Node61</title>
<path fill="none" stroke="midnightblue" d="M5782.1,-194.4C5803.56,-173.13 5840.45,-137.27 5848.5,-134 5924.39,-103.17 7240.81,-104 7322.5,-98 7341.44,-96.61 7362,-94.34 7380.58,-92.01"/>
<polygon fill="midnightblue" stroke="midnightblue" points="5779.6,-191.96 5774.98,-201.49 5784.53,-196.92 5779.6,-191.96"/>
</g>
<!-- Node66 -->
<g id="node50" class="node">
<title>Node66</title>
<g id="a_node50"><a xlink:href="../../db/d28/vsettings_8cpp.html" target="_top" xlink:title=" ">
<polygon fill="white" stroke="black" points="5857.5,-140 5857.5,-159 6009.5,-159 6009.5,-140 5857.5,-140"/>
<text text-anchor="middle" x="5933.5" y="-147" font-family="Helvetica,sans-Serif" font-size="10.00">src/libs/vmisc/vsettings.cpp</text>
</a>
</g>
</g>
<!-- Node1&#45;&gt;Node66 -->
<g id="edge50" class="edge">
<title>Node1&#45;&gt;Node66</title>
<path fill="none" stroke="midnightblue" d="M5799.95,-198.08C5832.41,-186.52 5880.87,-169.25 5909.62,-159.01"/>
<polygon fill="midnightblue" stroke="midnightblue" points="5798.67,-194.82 5790.43,-201.48 5801.02,-201.42 5798.67,-194.82"/>
</g>
<!-- Node3 -->
<g id="node3" class="node">
<title>Node3</title>
<g id="a_node3"><a xlink:href="../../d3/dd8/vapplication_8cpp.html" target="_top" xlink:title=" ">
<polygon fill="white" stroke="black" points="0,-67.5 0,-97.5 127,-97.5 127,-67.5 0,-67.5"/>
<text text-anchor="start" x="8" y="-85.5" font-family="Helvetica,sans-Serif" font-size="10.00">src/app/seamly2d/core</text>
<text text-anchor="middle" x="63.5" y="-74.5" font-family="Helvetica,sans-Serif" font-size="10.00">/vapplication.cpp</text>
</a>
</g>
</g>
<!-- Node2&#45;&gt;Node3 -->
<g id="edge2" class="edge">
<title>Node2&#45;&gt;Node3</title>
<path fill="none" stroke="midnightblue" d="M2132.64,-148.4C1811.53,-147.69 535.14,-142.12 136.5,-98 133.42,-97.66 130.27,-97.25 127.1,-96.8"/>
<polygon fill="midnightblue" stroke="midnightblue" points="2132.75,-151.9 2142.76,-148.42 2132.77,-144.9 2132.75,-151.9"/>
</g>
<!-- Node4 -->
<g id="node4" class="node">
<title>Node4</title>
<g id="a_node4"><a xlink:href="../../dd/db4/abstractlayout__dialog_8cpp.html" target="_top" xlink:title=" ">
<polygon fill="white" stroke="black" points="145.5,-67.5 145.5,-97.5 291.5,-97.5 291.5,-67.5 145.5,-67.5"/>
<text text-anchor="start" x="153.5" y="-85.5" font-family="Helvetica,sans-Serif" font-size="10.00">src/app/seamly2d/dialogs</text>
<text text-anchor="middle" x="218.5" y="-74.5" font-family="Helvetica,sans-Serif" font-size="10.00">/abstractlayout_dialog.cpp</text>
</a>
</g>
</g>
<!-- Node2&#45;&gt;Node4 -->
<g id="edge3" class="edge">
<title>Node2&#45;&gt;Node4</title>
<path fill="none" stroke="midnightblue" d="M2132.81,-148.01C1828.13,-145.77 665.63,-134.91 300.5,-98 297.62,-97.71 294.7,-97.38 291.74,-97.01"/>
<polygon fill="midnightblue" stroke="midnightblue" points="2132.83,-151.51 2142.86,-148.09 2132.89,-144.51 2132.83,-151.51"/>
</g>
<!-- Node5 -->
<g id="node5" class="node">
<title>Node5</title>
<g id="a_node5"><a xlink:href="../../d7/dfa/calculator__dialog_8cpp.html" target="_top" xlink:title=" ">
<polygon fill="white" stroke="black" points="310,-67.5 310,-97.5 451,-97.5 451,-67.5 310,-67.5"/>
<text text-anchor="start" x="318" y="-85.5" font-family="Helvetica,sans-Serif" font-size="10.00">src/app/seamly2d/dialogs</text>
<text text-anchor="middle" x="380.5" y="-74.5" font-family="Helvetica,sans-Serif" font-size="10.00">/calculator_dialog.cpp</text>
</a>
</g>
</g>
<!-- Node2&#45;&gt;Node5 -->
<g id="edge4" class="edge">
<title>Node2&#45;&gt;Node5</title>
<path fill="none" stroke="midnightblue" d="M2132.39,-147.87C1843.35,-145.16 791.47,-133.06 459.5,-98 456.73,-97.71 453.9,-97.37 451.06,-97"/>
<polygon fill="midnightblue" stroke="midnightblue" points="2132.72,-151.37 2142.75,-147.96 2132.78,-144.37 2132.72,-151.37"/>
</g>
<!-- Node6 -->
<g id="node6" class="node">
<title>Node6</title>
<g id="a_node6"><a xlink:href="../../d2/d2d/preferencesconfigurationpage_8cpp.html" target="_top" xlink:title=" ">
<polygon fill="white" stroke="black" points="469,-67.5 469,-97.5 716,-97.5 716,-67.5 469,-67.5"/>
<text text-anchor="start" x="477" y="-85.5" font-family="Helvetica,sans-Serif" font-size="10.00">src/app/seamly2d/dialogs</text>
<text text-anchor="middle" x="592.5" y="-74.5" font-family="Helvetica,sans-Serif" font-size="10.00">/configpages/preferencesconfigurationpage.cpp</text>
</a>
</g>
</g>
<!-- Node2&#45;&gt;Node6 -->
<g id="edge5" class="edge">
<title>Node2&#45;&gt;Node6</title>
<path fill="none" stroke="midnightblue" d="M2132.56,-147.95C1915.92,-145.91 1263.89,-136.76 724.5,-98 721.74,-97.8 718.95,-97.59 716.14,-97.37"/>
<polygon fill="midnightblue" stroke="midnightblue" points="2132.82,-151.45 2142.85,-148.04 2132.89,-144.45 2132.82,-151.45"/>
</g>
<!-- Node7 -->
<g id="node7" class="node">
<title>Node7</title>
<g id="a_node7"><a xlink:href="../../dc/d20/preferencespathpage_8cpp.html" target="_top" xlink:title=" ">
<polygon fill="white" stroke="black" points="734,-67.5 734,-97.5 939,-97.5 939,-67.5 734,-67.5"/>
<text text-anchor="start" x="742" y="-85.5" font-family="Helvetica,sans-Serif" font-size="10.00">src/app/seamly2d/dialogs</text>
<text text-anchor="middle" x="836.5" y="-74.5" font-family="Helvetica,sans-Serif" font-size="10.00">/configpages/preferencespathpage.cpp</text>
</a>
</g>
</g>
<!-- Node2&#45;&gt;Node7 -->
<g id="edge6" class="edge">
<title>Node2&#45;&gt;Node7</title>
<path fill="none" stroke="midnightblue" d="M2132.74,-147.85C1938.45,-145.65 1396.64,-136.27 947.5,-98 944.79,-97.77 942.04,-97.52 939.27,-97.26"/>
<polygon fill="midnightblue" stroke="midnightblue" points="2132.8,-151.35 2142.83,-147.96 2132.87,-144.35 2132.8,-151.35"/>
</g>
<!-- Node8 -->
<g id="node8" class="node">
<title>Node8</title>
<g id="a_node8"><a xlink:href="../../d9/d70/preferencesgraphicsviewpage_8cpp.html" target="_top" xlink:title=" ">
<polygon fill="white" stroke="black" points="956.5,-67.5 956.5,-97.5 1204.5,-97.5 1204.5,-67.5 956.5,-67.5"/>
<text text-anchor="start" x="964.5" y="-85.5" font-family="Helvetica,sans-Serif" font-size="10.00">src/app/seamly2d/dialogs</text>
<text text-anchor="middle" x="1080.5" y="-74.5" font-family="Helvetica,sans-Serif" font-size="10.00">/configpages/preferencesgraphicsviewpage.cpp</text>
</a>
</g>
</g>
<!-- Node2&#45;&gt;Node8 -->
<g id="edge7" class="edge">
<title>Node2&#45;&gt;Node8</title>
<path fill="none" stroke="midnightblue" d="M2132.78,-146.21C1967.87,-140.76 1556.69,-125.41 1213.5,-98 1210.61,-97.77 1207.68,-97.53 1204.72,-97.27"/>
<polygon fill="midnightblue" stroke="midnightblue" points="2132.7,-149.71 2142.81,-146.54 2132.93,-142.71 2132.7,-149.71"/>
</g>
<!-- Node9 -->
<g id="node9" class="node">
<title>Node9</title>
<g id="a_node9"><a xlink:href="../../d2/d00/vtooloptionspropertybrowser_8cpp.html" target="_top" xlink:title=" ">
<polygon fill="white" stroke="black" points="1222.5,-67.5 1222.5,-97.5 1402.5,-97.5 1402.5,-67.5 1222.5,-67.5"/>
<text text-anchor="start" x="1230.5" y="-85.5" font-family="Helvetica,sans-Serif" font-size="10.00">src/app/seamly2d/core</text>
<text text-anchor="middle" x="1312.5" y="-74.5" font-family="Helvetica,sans-Serif" font-size="10.00">/vtooloptionspropertybrowser.cpp</text>
</a>
</g>
</g>
<!-- Node2&#45;&gt;Node9 -->
<g id="edge8" class="edge">
<title>Node2&#45;&gt;Node9</title>
<path fill="none" stroke="midnightblue" d="M2132.75,-145.84C1992.16,-140.31 1676.18,-125.74 1411.5,-98 1408.56,-97.69 1405.58,-97.36 1402.57,-97.01"/>
<polygon fill="midnightblue" stroke="midnightblue" points="2132.85,-149.34 2142.97,-146.23 2133.12,-142.35 2132.85,-149.34"/>
</g>
<!-- Node10 -->
<g id="node10" class="node">
<title>Node10</title>
<g id="a_node10"><a xlink:href="../../dc/d63/preferencespatternpage_8cpp.html" target="_top" xlink:title=" ">
<polygon fill="white" stroke="black" points="1420.5,-67.5 1420.5,-97.5 1638.5,-97.5 1638.5,-67.5 1420.5,-67.5"/>
<text text-anchor="start" x="1428.5" y="-85.5" font-family="Helvetica,sans-Serif" font-size="10.00">src/app/seamly2d/dialogs</text>
<text text-anchor="middle" x="1529.5" y="-74.5" font-family="Helvetica,sans-Serif" font-size="10.00">/configpages/preferencespatternpage.cpp</text>
</a>
</g>
</g>
<!-- Node2&#45;&gt;Node10 -->
<g id="edge9" class="edge">
<title>Node2&#45;&gt;Node10</title>
<path fill="none" stroke="midnightblue" d="M2132.67,-142.59C2025.63,-133.85 1821.15,-116.51 1647.5,-98 1644.63,-97.69 1641.71,-97.38 1638.78,-97.05"/>
<polygon fill="midnightblue" stroke="midnightblue" points="2132.47,-146.09 2142.72,-143.41 2133.04,-139.11 2132.47,-146.09"/>
</g>
<!-- Node11 -->
<g id="node11" class="node">
<title>Node11</title>
<g id="a_node11"><a xlink:href="../../dd/dc2/decimalchart__dialog_8cpp.html" target="_top" xlink:title=" ">
<polygon fill="white" stroke="black" points="1657,-67.5 1657,-97.5 1798,-97.5 1798,-67.5 1657,-67.5"/>
<text text-anchor="start" x="1665" y="-85.5" font-family="Helvetica,sans-Serif" font-size="10.00">src/app/seamly2d/dialogs</text>
<text text-anchor="middle" x="1727.5" y="-74.5" font-family="Helvetica,sans-Serif" font-size="10.00">/decimalchart_dialog.cpp</text>
</a>
</g>
</g>
<!-- Node2&#45;&gt;Node11 -->
<g id="edge10" class="edge">
<title>Node2&#45;&gt;Node11</title>
<path fill="none" stroke="midnightblue" d="M2132.94,-140.46C2052.56,-131.39 1920.1,-115.58 1806.5,-98 1803.74,-97.57 1800.94,-97.13 1798.1,-96.66"/>
<polygon fill="midnightblue" stroke="midnightblue" points="2132.63,-143.95 2142.96,-141.59 2133.41,-136.99 2132.63,-143.95"/>
</g>
<!-- Node12 -->
<g id="node12" class="node">
<title>Node12</title>
<g id="a_node12"><a xlink:href="../../d6/d89/dialoglayoutprogress_8cpp.html" target="_top" xlink:title=" ">
<polygon fill="white" stroke="black" points="1816,-67.5 1816,-97.5 1959,-97.5 1959,-67.5 1816,-67.5"/>
<text text-anchor="start" x="1824" y="-85.5" font-family="Helvetica,sans-Serif" font-size="10.00">src/app/seamly2d/dialogs</text>
<text text-anchor="middle" x="1887.5" y="-74.5" font-family="Helvetica,sans-Serif" font-size="10.00">/dialoglayoutprogress.cpp</text>
</a>
</g>
</g>
<!-- Node2&#45;&gt;Node12 -->
<g id="edge11" class="edge">
<title>Node2&#45;&gt;Node12</title>
<path fill="none" stroke="midnightblue" d="M2132.68,-133.46C2079.55,-122.63 2008.39,-108.13 1956.43,-97.54"/>
<polygon fill="midnightblue" stroke="midnightblue" points="2132.21,-136.94 2142.71,-135.5 2133.61,-130.08 2132.21,-136.94"/>
</g>
<!-- Node13 -->
<g id="node13" class="node">
<title>Node13</title>
<g id="a_node13"><a xlink:href="../../dd/d64/dialogaboutapp_8cpp.html" target="_top" xlink:title=" ">
<polygon fill="white" stroke="black" points="1977,-67.5 1977,-97.5 2118,-97.5 2118,-67.5 1977,-67.5"/>
<text text-anchor="start" x="1985" y="-85.5" font-family="Helvetica,sans-Serif" font-size="10.00">src/app/seamly2d/dialogs</text>
<text text-anchor="middle" x="2047.5" y="-74.5" font-family="Helvetica,sans-Serif" font-size="10.00">/dialogaboutapp.cpp</text>
</a>
</g>
</g>
<!-- Node2&#45;&gt;Node13 -->
<g id="edge12" class="edge">
<title>Node2&#45;&gt;Node13</title>
<path fill="none" stroke="midnightblue" d="M2162.58,-130.54C2137.13,-120.14 2105.57,-107.24 2081.93,-97.58"/>
<polygon fill="midnightblue" stroke="midnightblue" points="2161.42,-133.85 2172,-134.4 2164.07,-127.37 2161.42,-133.85"/>
</g>
<!-- Node14 -->
<g id="node14" class="node">
<title>Node14</title>
<g id="a_node14"><a xlink:href="../../d5/dc5/dialogpreferences_8cpp.html" target="_top" xlink:title=" ">
<polygon fill="white" stroke="black" points="2136,-67.5 2136,-97.5 2277,-97.5 2277,-67.5 2136,-67.5"/>
<text text-anchor="start" x="2144" y="-85.5" font-family="Helvetica,sans-Serif" font-size="10.00">src/app/seamly2d/dialogs</text>
<text text-anchor="middle" x="2206.5" y="-74.5" font-family="Helvetica,sans-Serif" font-size="10.00">/dialogpreferences.cpp</text>
</a>
</g>
</g>
<!-- Node2&#45;&gt;Node14 -->
<g id="edge13" class="edge">
<title>Node2&#45;&gt;Node14</title>
<path fill="none" stroke="midnightblue" d="M2206.5,-124.11C2206.5,-115.15 2206.5,-105.32 2206.5,-97.58"/>
<polygon fill="midnightblue" stroke="midnightblue" points="2203,-124.4 2206.5,-134.4 2210,-124.4 2203,-124.4"/>
</g>
<!-- Node15 -->
<g id="node15" class="node">
<title>Node15</title>
<g id="a_node15"><a xlink:href="../../dd/d54/export__layout__dialog_8cpp.html" target="_top" xlink:title=" ">
<polygon fill="white" stroke="black" points="2295,-67.5 2295,-97.5 2438,-97.5 2438,-67.5 2295,-67.5"/>
<text text-anchor="start" x="2303" y="-85.5" font-family="Helvetica,sans-Serif" font-size="10.00">src/app/seamly2d/dialogs</text>
<text text-anchor="middle" x="2366.5" y="-74.5" font-family="Helvetica,sans-Serif" font-size="10.00">/export_layout_dialog.cpp</text>
</a>
</g>
</g>
<!-- Node2&#45;&gt;Node15 -->
<g id="edge14" class="edge">
<title>Node2&#45;&gt;Node15</title>
<path fill="none" stroke="midnightblue" d="M2250.7,-130.54C2276.3,-120.14 2308.07,-107.24 2331.85,-97.58"/>
<polygon fill="midnightblue" stroke="midnightblue" points="2249.16,-127.39 2241.22,-134.4 2251.8,-133.87 2249.16,-127.39"/>
</g>
<!-- Node16 -->
<g id="node16" class="node">
<title>Node16</title>
<g id="a_node16"><a xlink:href="../../db/d5c/groups__widget_8cpp.html" target="_top" xlink:title=" ">
<polygon fill="white" stroke="black" points="2456,-67.5 2456,-97.5 2597,-97.5 2597,-67.5 2456,-67.5"/>
<text text-anchor="start" x="2464" y="-85.5" font-family="Helvetica,sans-Serif" font-size="10.00">src/app/seamly2d/dialogs</text>
<text text-anchor="middle" x="2526.5" y="-74.5" font-family="Helvetica,sans-Serif" font-size="10.00">/groups_widget.cpp</text>
</a>
</g>
</g>
<!-- Node2&#45;&gt;Node16 -->
<g id="edge15" class="edge">
<title>Node2&#45;&gt;Node16</title>
<path fill="none" stroke="midnightblue" d="M2280.19,-133.53C2333.56,-122.69 2405.21,-108.14 2457.47,-97.52"/>
<polygon fill="midnightblue" stroke="midnightblue" points="2279.21,-130.16 2270.1,-135.58 2280.6,-137.02 2279.21,-130.16"/>
</g>
<!-- Node17 -->
<g id="node17" class="node">
<title>Node17</title>
<g id="a_node17"><a xlink:href="../../d5/d18/dialogpatternproperties_8cpp.html" target="_top" xlink:title=" ">
<polygon fill="white" stroke="black" points="2615,-67.5 2615,-97.5 2770,-97.5 2770,-67.5 2615,-67.5"/>
<text text-anchor="start" x="2623" y="-85.5" font-family="Helvetica,sans-Serif" font-size="10.00">src/app/seamly2d/dialogs</text>
<text text-anchor="middle" x="2692.5" y="-74.5" font-family="Helvetica,sans-Serif" font-size="10.00">/dialogpatternproperties.cpp</text>
</a>
</g>
</g>
<!-- Node2&#45;&gt;Node17 -->
<g id="edge16" class="edge">
<title>Node2&#45;&gt;Node17</title>
<path fill="none" stroke="midnightblue" d="M2280.18,-140.05C2360.34,-130.66 2492.21,-114.6 2605.5,-98 2608.53,-97.56 2611.62,-97.09 2614.74,-96.62"/>
<polygon fill="midnightblue" stroke="midnightblue" points="2279.71,-136.58 2270.18,-141.22 2280.52,-143.54 2279.71,-136.58"/>
</g>
<!-- Node18 -->
<g id="node18" class="node">
<title>Node18</title>
<g id="a_node18"><a xlink:href="../../d0/dfa/layoutsettings__dialog_8cpp.html" target="_top" xlink:title=" ">
<polygon fill="white" stroke="black" points="2788,-67.5 2788,-97.5 2933,-97.5 2933,-67.5 2788,-67.5"/>
<text text-anchor="start" x="2796" y="-85.5" font-family="Helvetica,sans-Serif" font-size="10.00">src/app/seamly2d/dialogs</text>
<text text-anchor="middle" x="2860.5" y="-74.5" font-family="Helvetica,sans-Serif" font-size="10.00">/layoutsettings_dialog.cpp</text>
</a>
</g>
</g>
<!-- Node2&#45;&gt;Node18 -->
<g id="edge17" class="edge">
<title>Node2&#45;&gt;Node18</title>
<path fill="none" stroke="midnightblue" d="M2280.43,-144.04C2389.65,-136.97 2600.42,-121.56 2778.5,-98 2781.51,-97.6 2784.58,-97.17 2787.67,-96.72"/>
<polygon fill="midnightblue" stroke="midnightblue" points="2279.94,-140.56 2270.18,-144.69 2280.38,-147.55 2279.94,-140.56"/>
</g>
<!-- Node19 -->
<g id="node19" class="node">
<title>Node19</title>
<g id="a_node19"><a xlink:href="../../dc/d14/app_2seamly2d_2main_8cpp.html" target="_top" xlink:title=" ">
<polygon fill="white" stroke="black" points="2951,-73 2951,-92 3102,-92 3102,-73 2951,-73"/>
<text text-anchor="middle" x="3026.5" y="-80" font-family="Helvetica,sans-Serif" font-size="10.00">src/app/seamly2d/main.cpp</text>
</a>
</g>
</g>
<!-- Node2&#45;&gt;Node19 -->
<g id="edge18" class="edge">
<title>Node2&#45;&gt;Node19</title>
<path fill="none" stroke="midnightblue" d="M2280.16,-145.89C2412.8,-140.64 2700.44,-126.77 2941.5,-98 2954.58,-96.44 2968.71,-94.24 2981.63,-92.02"/>
<polygon fill="midnightblue" stroke="midnightblue" points="2279.97,-142.39 2270.11,-146.28 2280.24,-149.39 2279.97,-142.39"/>
</g>
<!-- Node20 -->
<g id="node20" class="node">
<title>Node20</title>
<g id="a_node20"><a xlink:href="../../d2/df4/show__info__dialog_8cpp.html" target="_top" xlink:title=" ">
<polygon fill="white" stroke="black" points="3120,-67.5 3120,-97.5 3261,-97.5 3261,-67.5 3120,-67.5"/>
<text text-anchor="start" x="3128" y="-85.5" font-family="Helvetica,sans-Serif" font-size="10.00">src/app/seamly2d/dialogs</text>
<text text-anchor="middle" x="3190.5" y="-74.5" font-family="Helvetica,sans-Serif" font-size="10.00">/show_info_dialog.cpp</text>
</a>
</g>
</g>
<!-- Node2&#45;&gt;Node20 -->
<g id="edge19" class="edge">
<title>Node2&#45;&gt;Node20</title>
<path fill="none" stroke="midnightblue" d="M2280.34,-147.46C2434.89,-144.6 2803.59,-134.25 3110.5,-98 3113.58,-97.64 3116.73,-97.23 3119.9,-96.78"/>
<polygon fill="midnightblue" stroke="midnightblue" points="2279.96,-143.97 2270.03,-147.64 2280.09,-150.96 2279.96,-143.97"/>
</g>
<!-- Node21 -->
<g id="node21" class="node">
<title>Node21</title>
<g id="a_node21"><a xlink:href="../../dd/d84/shortcuts__dialog_8cpp.html" target="_top" xlink:title=" ">
<polygon fill="white" stroke="black" points="3279,-67.5 3279,-97.5 3420,-97.5 3420,-67.5 3279,-67.5"/>
<text text-anchor="start" x="3287" y="-85.5" font-family="Helvetica,sans-Serif" font-size="10.00">src/app/seamly2d/dialogs</text>
<text text-anchor="middle" x="3349.5" y="-74.5" font-family="Helvetica,sans-Serif" font-size="10.00">/shortcuts_dialog.cpp</text>
</a>
</g>
</g>
<!-- Node2&#45;&gt;Node21 -->
<g id="edge20" class="edge">
<title>Node2&#45;&gt;Node21</title>
<path fill="none" stroke="midnightblue" d="M2280.26,-148.34C2453.49,-147.22 2899.63,-140.12 3269.5,-98 3272.59,-97.65 3275.73,-97.25 3278.9,-96.82"/>
<polygon fill="midnightblue" stroke="midnightblue" points="2280.22,-144.84 2270.24,-148.39 2280.26,-151.84 2280.22,-144.84"/>
</g>
<!-- Node22 -->
<g id="node22" class="node">
<title>Node22</title>
<g id="a_node22"><a xlink:href="../../d8/de8/mainwindowsnogui_8cpp.html" target="_top" xlink:title=" ">
<polygon fill="white" stroke="black" points="3438,-73 3438,-92 3659,-92 3659,-73 3438,-73"/>
<text text-anchor="middle" x="3548.5" y="-80" font-family="Helvetica,sans-Serif" font-size="10.00">src/app/seamly2d/mainwindowsnogui.cpp</text>
</a>
</g>
</g>
<!-- Node2&#45;&gt;Node22 -->
<g id="edge21" class="edge">
<title>Node2&#45;&gt;Node22</title>
<path fill="none" stroke="midnightblue" d="M2280.39,-147.48C2470.88,-144.4 2994.16,-133.16 3428.5,-98 3447.12,-96.49 3467.29,-94.28 3485.69,-92.04"/>
<polygon fill="midnightblue" stroke="midnightblue" points="2280.16,-143.98 2270.22,-147.64 2280.27,-150.98 2280.16,-143.98"/>
</g>
<!-- Node23 -->
<g id="node23" class="node">
<title>Node23</title>
<g id="a_node23"><a xlink:href="../../d3/d49/vpattern_8cpp.html" target="_top" xlink:title=" ">
<polygon fill="white" stroke="black" points="3677,-67.5 3677,-97.5 3802,-97.5 3802,-67.5 3677,-67.5"/>
<text text-anchor="start" x="3685" y="-85.5" font-family="Helvetica,sans-Serif" font-size="10.00">src/app/seamly2d/xml</text>
<text text-anchor="middle" x="3739.5" y="-74.5" font-family="Helvetica,sans-Serif" font-size="10.00">/vpattern.cpp</text>
</a>
</g>
</g>
<!-- Node2&#45;&gt;Node23 -->
<g id="edge22" class="edge">
<title>Node2&#45;&gt;Node23</title>
<path fill="none" stroke="midnightblue" d="M2280.63,-147.55C2538.37,-143.98 3394.63,-129.97 3667.5,-98 3670.54,-97.64 3673.64,-97.23 3676.77,-96.76"/>
<polygon fill="midnightblue" stroke="midnightblue" points="2280.21,-144.05 2270.26,-147.69 2280.31,-151.05 2280.21,-144.05"/>
</g>
<!-- Node24 -->
<g id="node24" class="node">
<title>Node24</title>
<g id="a_node24"><a xlink:href="../../d8/dd9/mainwindow_8cpp.html" target="_top" xlink:title=" ">
<polygon fill="white" stroke="black" points="3820.5,-73 3820.5,-92 4008.5,-92 4008.5,-73 3820.5,-73"/>
<text text-anchor="middle" x="3914.5" y="-80" font-family="Helvetica,sans-Serif" font-size="10.00">src/app/seamly2d/mainwindow.cpp</text>
</a>
</g>
</g>
<!-- Node2&#45;&gt;Node24 -->
<g id="edge23" class="edge">
<title>Node2&#45;&gt;Node24</title>
<path fill="none" stroke="midnightblue" d="M2280.23,-148.98C2508.24,-149.87 3222,-148.14 3810.5,-98 3827.12,-96.58 3845.15,-94.33 3861.45,-92.01"/>
<polygon fill="midnightblue" stroke="midnightblue" points="2280.08,-145.48 2270.07,-148.94 2280.05,-152.48 2280.08,-145.48"/>
</g>
<!-- Node26 -->
<g id="node26" class="node">
<title>Node26</title>
<g id="a_node26"><a xlink:href="../../d4/d90/fvupdater_8cpp.html" target="_top" xlink:title=" ">
<polygon fill="white" stroke="black" points="4027,-73 4027,-92 4180,-92 4180,-73 4027,-73"/>
<text text-anchor="middle" x="4103.5" y="-80" font-family="Helvetica,sans-Serif" font-size="10.00">src/libs/fervor/fvupdater.cpp</text>
</a>
</g>
</g>
<!-- Node25&#45;&gt;Node26 -->
<g id="edge25" class="edge">
<title>Node25&#45;&gt;Node26</title>
<path fill="none" stroke="midnightblue" d="M5596.42,-146.81C5297.17,-141.82 4461.91,-125.74 4188.5,-98 4174.8,-96.61 4159.97,-94.35 4146.59,-92.02"/>
<polygon fill="midnightblue" stroke="midnightblue" points="5596.78,-150.31 5606.83,-146.98 5596.89,-143.31 5596.78,-150.31"/>
</g>
<!-- Node27 -->
<g id="node27" class="node">
<title>Node27</title>
<g id="a_node27"><a xlink:href="../../d9/dc8/dxiface_8cpp.html" target="_top" xlink:title=" ">
<polygon fill="white" stroke="black" points="4198,-73 4198,-92 4333,-92 4333,-73 4198,-73"/>
<text text-anchor="middle" x="4265.5" y="-80" font-family="Helvetica,sans-Serif" font-size="10.00">src/libs/vdxf/dxiface.cpp</text>
</a>
</g>
</g>
<!-- Node25&#45;&gt;Node27 -->
<g id="edge26" class="edge">
<title>Node25&#45;&gt;Node27</title>
<path fill="none" stroke="midnightblue" d="M5596.88,-146.62C5319.3,-141.43 4583.94,-125.46 4341.5,-98 4329.22,-96.61 4315.95,-94.35 4303.99,-92.02"/>
<polygon fill="midnightblue" stroke="midnightblue" points="5596.89,-150.12 5606.96,-146.81 5597.02,-143.12 5596.89,-150.12"/>
</g>
<!-- Node28 -->
<g id="node28" class="node">
<title>Node28</title>
<g id="a_node28"><a xlink:href="../../da/d75/vabstractarc__p_8h.html" target="_top" xlink:title=" ">
<polygon fill="white" stroke="red" points="4351,-67.5 4351,-97.5 4458,-97.5 4458,-67.5 4351,-67.5"/>
<text text-anchor="start" x="4359" y="-85.5" font-family="Helvetica,sans-Serif" font-size="10.00">src/libs/vgeometry</text>
<text text-anchor="middle" x="4404.5" y="-74.5" font-family="Helvetica,sans-Serif" font-size="10.00">/vabstractarc_p.h</text>
</a>
</g>
</g>
<!-- Node25&#45;&gt;Node28 -->
<g id="edge27" class="edge">
<title>Node25&#45;&gt;Node28</title>
<path fill="none" stroke="midnightblue" d="M5596.67,-146.72C5337.15,-142 4683.28,-127.5 4466.5,-98 4463.76,-97.63 4460.97,-97.19 4458.15,-96.7"/>
<polygon fill="midnightblue" stroke="midnightblue" points="5596.79,-150.22 5606.85,-146.9 5596.92,-143.22 5596.79,-150.22"/>
</g>
<!-- Node30 -->
<g id="node29" class="node">
<title>Node30</title>
<g id="a_node29"><a xlink:href="../../dc/da3/varc__p_8h.html" target="_top" xlink:title=" ">
<polygon fill="white" stroke="red" points="4476,-67.5 4476,-97.5 4583,-97.5 4583,-67.5 4476,-67.5"/>
<text text-anchor="start" x="4484" y="-85.5" font-family="Helvetica,sans-Serif" font-size="10.00">src/libs/vgeometry</text>
<text text-anchor="middle" x="4529.5" y="-74.5" font-family="Helvetica,sans-Serif" font-size="10.00">/varc_p.h</text>
</a>
</g>
</g>
<!-- Node25&#45;&gt;Node30 -->
<g id="edge28" class="edge">
<title>Node25&#45;&gt;Node30</title>
<path fill="none" stroke="midnightblue" d="M5596.43,-146.14C5356.07,-140.47 4783.34,-124.55 4591.5,-98 4588.76,-97.62 4585.97,-97.18 4583.15,-96.69"/>
<polygon fill="midnightblue" stroke="midnightblue" points="5596.5,-149.64 5606.58,-146.37 5596.66,-142.64 5596.5,-149.64"/>
</g>
<!-- Node32 -->
<g id="node30" class="node">
<title>Node32</title>
<g id="a_node30"><a xlink:href="../../d5/d8e/vcubicbezier__p_8h.html" target="_top" xlink:title=" ">
<polygon fill="white" stroke="red" points="4601,-67.5 4601,-97.5 4708,-97.5 4708,-67.5 4601,-67.5"/>
<text text-anchor="start" x="4609" y="-85.5" font-family="Helvetica,sans-Serif" font-size="10.00">src/libs/vgeometry</text>
<text text-anchor="middle" x="4654.5" y="-74.5" font-family="Helvetica,sans-Serif" font-size="10.00">/vcubicbezier_p.h</text>
</a>
</g>
</g>
<!-- Node25&#45;&gt;Node32 -->
<g id="edge29" class="edge">
<title>Node25&#45;&gt;Node32</title>
<path fill="none" stroke="midnightblue" d="M5596.71,-149.27C5414.47,-149.16 5034.25,-142.91 4716.5,-98 4713.76,-97.61 4710.97,-97.16 4708.16,-96.67"/>
<polygon fill="midnightblue" stroke="midnightblue" points="5596.84,-152.77 5606.84,-149.27 5596.84,-145.77 5596.84,-152.77"/>
</g>
<!-- Node34 -->
<g id="node31" class="node">
<title>Node34</title>
<g id="a_node31"><a xlink:href="../../df/dde/vellipticalarc__p_8h.html" target="_top" xlink:title=" ">
<polygon fill="white" stroke="black" points="4726,-67.5 4726,-97.5 4833,-97.5 4833,-67.5 4726,-67.5"/>
<text text-anchor="start" x="4734" y="-85.5" font-family="Helvetica,sans-Serif" font-size="10.00">src/libs/vgeometry</text>
<text text-anchor="middle" x="4779.5" y="-74.5" font-family="Helvetica,sans-Serif" font-size="10.00">/vellipticalarc_p.h</text>
</a>
</g>
</g>
<!-- Node25&#45;&gt;Node34 -->
<g id="edge30" class="edge">
<title>Node25&#45;&gt;Node34</title>
<path fill="none" stroke="midnightblue" d="M5596.65,-147.36C5433.7,-144.47 5115.32,-134.23 4847.5,-98 4842.83,-97.37 4838.01,-96.59 4833.19,-95.73"/>
<polygon fill="midnightblue" stroke="midnightblue" points="5596.62,-150.86 5606.68,-147.54 5596.74,-143.87 5596.62,-150.86"/>
</g>
<!-- Node35 -->
<g id="node32" class="node">
<title>Node35</title>
<g id="a_node32"><a xlink:href="../../d6/dfb/vellipticalarc_8cpp.html" target="_top" xlink:title=" ">
<polygon fill="white" stroke="black" points="4767,-0.5 4767,-30.5 4874,-30.5 4874,-0.5 4767,-0.5"/>
<text text-anchor="start" x="4775" y="-18.5" font-family="Helvetica,sans-Serif" font-size="10.00">src/libs/vgeometry</text>
<text text-anchor="middle" x="4820.5" y="-7.5" font-family="Helvetica,sans-Serif" font-size="10.00">/vellipticalarc.cpp</text>
</a>
</g>
</g>
<!-- Node25&#45;&gt;Node35 -->
<g id="edge33" class="edge">
<title>Node25&#45;&gt;Node35</title>
<path fill="none" stroke="midnightblue" d="M5596.68,-146.95C5387.53,-143.22 4941.84,-131.41 4880.5,-98 4853.19,-83.13 4834.96,-49.86 4826.31,-30.74"/>
<polygon fill="midnightblue" stroke="midnightblue" points="5596.7,-150.45 5606.76,-147.13 5596.82,-143.45 5596.7,-150.45"/>
</g>
<!-- Node36 -->
<g id="node33" class="node">
<title>Node36</title>
<g id="a_node33"><a xlink:href="../../d1/d76/vspline__p_8h.html" target="_top" xlink:title=" ">
<polygon fill="white" stroke="red" points="4890,-67.5 4890,-97.5 4997,-97.5 4997,-67.5 4890,-67.5"/>
<text text-anchor="start" x="4898" y="-85.5" font-family="Helvetica,sans-Serif" font-size="10.00">src/libs/vgeometry</text>
<text text-anchor="middle" x="4943.5" y="-74.5" font-family="Helvetica,sans-Serif" font-size="10.00">/vspline_p.h</text>
</a>
</g>
</g>
<!-- Node25&#45;&gt;Node36 -->
<g id="edge32" class="edge">
<title>Node25&#45;&gt;Node36</title>
<path fill="none" stroke="midnightblue" d="M5596.74,-145.85C5459.13,-141.28 5213.97,-129.19 5006.5,-98 5003.39,-97.53 5000.21,-96.99 4997.01,-96.41"/>
<polygon fill="midnightblue" stroke="midnightblue" points="5596.76,-149.35 5606.87,-146.17 5596.99,-142.35 5596.76,-149.35"/>
</g>
<!-- Node38 -->
<g id="node34" class="node">
<title>Node38</title>
<g id="a_node34"><a xlink:href="../../d9/d15/vabstractpiece_8cpp.html" target="_top" xlink:title=" ">
<polygon fill="white" stroke="black" points="5015.5,-73 5015.5,-92 5201.5,-92 5201.5,-73 5015.5,-73"/>
<text text-anchor="middle" x="5108.5" y="-80" font-family="Helvetica,sans-Serif" font-size="10.00">src/libs/vlayout/vabstractpiece.cpp</text>
</a>
</g>
</g>
<!-- Node25&#45;&gt;Node38 -->
<g id="edge34" class="edge">
<title>Node25&#45;&gt;Node38</title>
<path fill="none" stroke="midnightblue" d="M5599.34,-139.03C5499.04,-129.7 5343.79,-114.48 5209.5,-98 5195.08,-96.23 5179.54,-94.11 5165.07,-92.04"/>
<polygon fill="midnightblue" stroke="midnightblue" points="5599.2,-142.53 5609.48,-139.97 5599.84,-135.56 5599.2,-142.53"/>
</g>
<!-- Node39 -->
<g id="node35" class="node">
<title>Node39</title>
<g id="a_node35"><a xlink:href="../../dd/d70/vlayoutpiece_8cpp.html" target="_top" xlink:title=" ">
<polygon fill="white" stroke="black" points="5219,-73 5219,-92 5396,-92 5396,-73 5219,-73"/>
<text text-anchor="middle" x="5307.5" y="-80" font-family="Helvetica,sans-Serif" font-size="10.00">src/libs/vlayout/vlayoutpiece.cpp</text>
</a>
</g>
</g>
<!-- Node25&#45;&gt;Node39 -->
<g id="edge35" class="edge">
<title>Node25&#45;&gt;Node39</title>
<path fill="none" stroke="midnightblue" d="M5642.03,-138.27C5564.12,-125.52 5432.35,-103.94 5359.61,-92.03"/>
<polygon fill="midnightblue" stroke="midnightblue" points="5641.76,-141.77 5652.19,-139.94 5642.89,-134.87 5641.76,-141.77"/>
</g>
<!-- Node40 -->
<g id="node36" class="node">
<title>Node40</title>
<g id="a_node36"><a xlink:href="../../d6/d0b/def_8cpp.html" target="_top" xlink:title=" ">
<polygon fill="white" stroke="black" points="5414.5,-73 5414.5,-92 5536.5,-92 5536.5,-73 5414.5,-73"/>
<text text-anchor="middle" x="5475.5" y="-80" font-family="Helvetica,sans-Serif" font-size="10.00">src/libs/vmisc/def.cpp</text>
</a>
</g>
</g>
<!-- Node25&#45;&gt;Node40 -->
<g id="edge36" class="edge">
<title>Node25&#45;&gt;Node40</title>
<path fill="none" stroke="midnightblue" d="M5664.31,-137.09C5619,-124.23 5546.38,-103.62 5505.67,-92.06"/>
<polygon fill="midnightblue" stroke="midnightblue" points="5663.51,-140.5 5674.09,-139.87 5665.43,-133.77 5663.51,-140.5"/>
</g>
<!-- Node41 -->
<g id="node37" class="node">
<title>Node41</title>
<g id="a_node37"><a xlink:href="../../db/d65/dialogexporttocsv_8cpp.html" target="_top" xlink:title=" ">
<polygon fill="white" stroke="black" points="5555,-67.5 5555,-97.5 5682,-97.5 5682,-67.5 5555,-67.5"/>
<text text-anchor="start" x="5563" y="-85.5" font-family="Helvetica,sans-Serif" font-size="10.00">src/libs/vmisc/dialogs</text>
<text text-anchor="middle" x="5618.5" y="-74.5" font-family="Helvetica,sans-Serif" font-size="10.00">/dialogexporttocsv.cpp</text>
</a>
</g>
</g>
<!-- Node25&#45;&gt;Node41 -->
<g id="edge37" class="edge">
<title>Node25&#45;&gt;Node41</title>
<path fill="none" stroke="midnightblue" d="M5684.71,-133.54C5670.4,-122.73 5651.18,-108.2 5637.14,-97.59"/>
<polygon fill="midnightblue" stroke="midnightblue" points="5682.81,-136.5 5692.9,-139.73 5687.03,-130.91 5682.81,-136.5"/>
</g>
<!-- Node42 -->
<g id="node38" class="node">
<title>Node42</title>
<g id="a_node38"><a xlink:href="../../d8/d70/vtextmanager_8cpp.html" target="_top" xlink:title=" ">
<polygon fill="white" stroke="black" points="5700.5,-73 5700.5,-92 5882.5,-92 5882.5,-73 5700.5,-73"/>
<text text-anchor="middle" x="5791.5" y="-80" font-family="Helvetica,sans-Serif" font-size="10.00">src/libs/vlayout/vtextmanager.cpp</text>
</a>
</g>
</g>
<!-- Node25&#45;&gt;Node42 -->
<g id="edge38" class="edge">
<title>Node25&#45;&gt;Node42</title>
<path fill="none" stroke="midnightblue" d="M5724.49,-133.57C5741.66,-120.74 5765.82,-102.69 5779.95,-92.13"/>
<polygon fill="midnightblue" stroke="midnightblue" points="5722.15,-130.94 5716.23,-139.73 5726.34,-136.55 5722.15,-130.94"/>
</g>
<!-- Node43 -->
<g id="node39" class="node">
<title>Node43</title>
<g id="a_node39"><a xlink:href="../../d0/df6/vabstractapplication_8cpp.html" target="_top" xlink:title=" ">
<polygon fill="white" stroke="black" points="5900.5,-73 5900.5,-92 6106.5,-92 6106.5,-73 5900.5,-73"/>
<text text-anchor="middle" x="6003.5" y="-80" font-family="Helvetica,sans-Serif" font-size="10.00">src/libs/vmisc/vabstractapplication.cpp</text>
</a>
</g>
</g>
<!-- Node25&#45;&gt;Node43 -->
<g id="edge39" class="edge">
<title>Node25&#45;&gt;Node43</title>
<path fill="none" stroke="midnightblue" d="M5753.71,-137.8C5812.55,-125.01 5909.85,-103.86 5964.02,-92.08"/>
<polygon fill="midnightblue" stroke="midnightblue" points="5752.92,-134.39 5743.9,-139.94 5754.41,-141.23 5752.92,-134.39"/>
</g>
<!-- Node44 -->
<g id="node40" class="node">
<title>Node44</title>
<g id="a_node40"><a xlink:href="../../d4/d4f/pmsystems_8cpp.html" target="_top" xlink:title=" ">
<polygon fill="white" stroke="black" points="6125,-67.5 6125,-97.5 6232,-97.5 6232,-67.5 6125,-67.5"/>
<text text-anchor="start" x="6133" y="-85.5" font-family="Helvetica,sans-Serif" font-size="10.00">src/libs/vpatterndb</text>
<text text-anchor="middle" x="6178.5" y="-74.5" font-family="Helvetica,sans-Serif" font-size="10.00">/pmsystems.cpp</text>
</a>
</g>
</g>
<!-- Node25&#45;&gt;Node44 -->
<g id="edge40" class="edge">
<title>Node25&#45;&gt;Node44</title>
<path fill="none" stroke="midnightblue" d="M5778.92,-138.67C5791.14,-137.09 5803.67,-135.48 5815.5,-134 5948.75,-117.3 5983.21,-121.09 6115.5,-98 6118.6,-97.46 6121.77,-96.86 6124.96,-96.23"/>
<polygon fill="midnightblue" stroke="midnightblue" points="5778.22,-135.23 5768.76,-139.99 5779.12,-142.17 5778.22,-135.23"/>
</g>
<!-- Node45 -->
<g id="node41" class="node">
<title>Node45</title>
<g id="a_node41"><a xlink:href="../../db/d11/vformula_8cpp.html" target="_top" xlink:title=" ">
<polygon fill="white" stroke="black" points="6250,-67.5 6250,-97.5 6357,-97.5 6357,-67.5 6250,-67.5"/>
<text text-anchor="start" x="6258" y="-85.5" font-family="Helvetica,sans-Serif" font-size="10.00">src/libs/vpatterndb</text>
<text text-anchor="middle" x="6303.5" y="-74.5" font-family="Helvetica,sans-Serif" font-size="10.00">/vformula.cpp</text>
</a>
</g>
</g>
<!-- Node25&#45;&gt;Node45 -->
<g id="edge41" class="edge">
<title>Node25&#45;&gt;Node45</title>
<path fill="none" stroke="midnightblue" d="M5775.77,-138.7C5788.97,-137.03 5802.64,-135.38 5815.5,-134 6003.98,-113.72 6053.22,-127.33 6240.5,-98 6243.6,-97.51 6246.78,-96.96 6249.98,-96.36"/>
<polygon fill="midnightblue" stroke="midnightblue" points="5775.27,-135.24 5765.8,-139.99 5776.16,-142.18 5775.27,-135.24"/>
</g>
<!-- Node46 -->
<g id="node42" class="node">
<title>Node46</title>
<g id="a_node42"><a xlink:href="../../d6/d46/vcontainer_8cpp.html" target="_top" xlink:title=" ">
<polygon fill="white" stroke="black" points="6375,-67.5 6375,-97.5 6482,-97.5 6482,-67.5 6375,-67.5"/>
<text text-anchor="start" x="6383" y="-85.5" font-family="Helvetica,sans-Serif" font-size="10.00">src/libs/vpatterndb</text>
<text text-anchor="middle" x="6428.5" y="-74.5" font-family="Helvetica,sans-Serif" font-size="10.00">/vcontainer.cpp</text>
</a>
</g>
</g>
<!-- Node25&#45;&gt;Node46 -->
<g id="edge42" class="edge">
<title>Node25&#45;&gt;Node46</title>
<path fill="none" stroke="midnightblue" d="M5774.57,-138.65C5788.13,-136.94 5802.24,-135.3 5815.5,-134 6059.3,-110.12 6123.13,-133.59 6365.5,-98 6368.61,-97.54 6371.79,-97.01 6374.99,-96.43"/>
<polygon fill="midnightblue" stroke="midnightblue" points="5773.8,-135.22 5764.33,-139.96 5774.69,-142.16 5773.8,-135.22"/>
</g>
<!-- Node47 -->
<g id="node43" class="node">
<title>Node47</title>
<g id="a_node43"><a xlink:href="../../df/dba/vpiecenode__p_8h.html" target="_top" xlink:title=" ">
<polygon fill="white" stroke="red" points="6500,-67.5 6500,-97.5 6607,-97.5 6607,-67.5 6500,-67.5"/>
<text text-anchor="start" x="6508" y="-85.5" font-family="Helvetica,sans-Serif" font-size="10.00">src/libs/vpatterndb</text>
<text text-anchor="middle" x="6553.5" y="-74.5" font-family="Helvetica,sans-Serif" font-size="10.00">/vpiecenode_p.h</text>
</a>
</g>
</g>
<!-- Node25&#45;&gt;Node47 -->
<g id="edge43" class="edge">
<title>Node25&#45;&gt;Node47</title>
<path fill="none" stroke="midnightblue" d="M5773.21,-138.69C5787.18,-136.93 5801.8,-135.26 5815.5,-134 6114.67,-106.52 6193,-139.85 6490.5,-98 6493.5,-97.58 6496.57,-97.08 6499.66,-96.54"/>
<polygon fill="midnightblue" stroke="midnightblue" points="5772.64,-135.23 5763.17,-139.98 5773.53,-142.18 5772.64,-135.23"/>
</g>
<!-- Node49 -->
<g id="node44" class="node">
<title>Node49</title>
<g id="a_node44"><a xlink:href="../../df/d7a/vpiece_8cpp.html" target="_top" xlink:title=" ">
<polygon fill="white" stroke="black" points="6625,-67.5 6625,-97.5 6732,-97.5 6732,-67.5 6625,-67.5"/>
<text text-anchor="start" x="6633" y="-85.5" font-family="Helvetica,sans-Serif" font-size="10.00">src/libs/vpatterndb</text>
<text text-anchor="middle" x="6678.5" y="-74.5" font-family="Helvetica,sans-Serif" font-size="10.00">/vpiece.cpp</text>
</a>
</g>
</g>
<!-- Node25&#45;&gt;Node49 -->
<g id="edge44" class="edge">
<title>Node25&#45;&gt;Node49</title>
<path fill="none" stroke="midnightblue" d="M5772.72,-138.66C5786.84,-136.89 5801.63,-135.22 5815.5,-134 6170.06,-102.92 6262.85,-146.11 6615.5,-98 6618.5,-97.59 6621.57,-97.11 6624.66,-96.57"/>
<polygon fill="midnightblue" stroke="midnightblue" points="5772.05,-135.22 5762.58,-139.97 5772.95,-142.16 5772.05,-135.22"/>
</g>
<!-- Node50 -->
<g id="node45" class="node">
<title>Node50</title>
<g id="a_node45"><a xlink:href="../../de/d3e/vtranslatevars_8cpp.html" target="_top" xlink:title=" ">
<polygon fill="white" stroke="black" points="6750.5,-67.5 6750.5,-97.5 6860.5,-97.5 6860.5,-67.5 6750.5,-67.5"/>
<text text-anchor="start" x="6758.5" y="-85.5" font-family="Helvetica,sans-Serif" font-size="10.00">src/libs/vpatterndb</text>
<text text-anchor="middle" x="6805.5" y="-74.5" font-family="Helvetica,sans-Serif" font-size="10.00">/vtranslatevars.cpp</text>
</a>
</g>
</g>
<!-- Node25&#45;&gt;Node50 -->
<g id="edge45" class="edge">
<title>Node25&#45;&gt;Node50</title>
<path fill="none" stroke="midnightblue" d="M5772.24,-138.66C5786.5,-136.86 5801.48,-135.19 5815.5,-134 6225.46,-99.32 6332.51,-151 6740.5,-98 6743.71,-97.58 6747,-97.08 6750.3,-96.53"/>
<polygon fill="midnightblue" stroke="midnightblue" points="5771.47,-135.22 5762,-139.98 5772.37,-142.17 5771.47,-135.22"/>
</g>
<!-- Node51 -->
<g id="node46" class="node">
<title>Node51</title>
<g id="a_node46"><a xlink:href="../../df/d40/export__format__combobox_8cpp.html" target="_top" xlink:title=" ">
<polygon fill="white" stroke="black" points="6879,-67.5 6879,-97.5 7012,-97.5 7012,-67.5 6879,-67.5"/>
<text text-anchor="start" x="6887" y="-85.5" font-family="Helvetica,sans-Serif" font-size="10.00">src/libs/vwidgets/export</text>
<text text-anchor="middle" x="6945.5" y="-74.5" font-family="Helvetica,sans-Serif" font-size="10.00">_format_combobox.cpp</text>
</a>
</g>
</g>
<!-- Node25&#45;&gt;Node51 -->
<g id="edge46" class="edge">
<title>Node25&#45;&gt;Node51</title>
<path fill="none" stroke="midnightblue" d="M5771.76,-138.66C5786.17,-136.85 5801.32,-135.17 5815.5,-134 6282.64,-95.6 6403.68,-150.08 6869.5,-98 6872.57,-97.66 6875.7,-97.26 6878.86,-96.82"/>
<polygon fill="midnightblue" stroke="midnightblue" points="5770.9,-135.25 5761.43,-140 5771.79,-142.19 5770.9,-135.25"/>
</g>
<!-- Node52 -->
<g id="node47" class="node">
<title>Node52</title>
<g id="a_node47"><a xlink:href="../../d3/d4f/mouse__coordinates_8cpp.html" target="_top" xlink:title=" ">
<polygon fill="white" stroke="black" points="7030.5,-67.5 7030.5,-97.5 7164.5,-97.5 7164.5,-67.5 7030.5,-67.5"/>
<text text-anchor="start" x="7038.5" y="-85.5" font-family="Helvetica,sans-Serif" font-size="10.00">src/libs/vwidgets/mouse</text>
<text text-anchor="middle" x="7097.5" y="-74.5" font-family="Helvetica,sans-Serif" font-size="10.00">_coordinates.cpp</text>
</a>
</g>
</g>
<!-- Node25&#45;&gt;Node52 -->
<g id="edge47" class="edge">
<title>Node25&#45;&gt;Node52</title>
<path fill="none" stroke="midnightblue" d="M5771.1,-138.7C5785.7,-136.86 5801.1,-135.15 5815.5,-134 6349.59,-91.25 6487.83,-155.75 7020.5,-98 7023.75,-97.65 7027.06,-97.23 7030.4,-96.77"/>
<polygon fill="midnightblue" stroke="midnightblue" points="5770.61,-135.23 5761.14,-139.99 5771.51,-142.18 5770.61,-135.23"/>
</g>
<!-- Node53 -->
<g id="node48" class="node">
<title>Node53</title>
<g id="a_node48"><a xlink:href="../../d2/d28/page__format__combobox_8cpp.html" target="_top" xlink:title=" ">
<polygon fill="white" stroke="black" points="7183,-67.5 7183,-97.5 7314,-97.5 7314,-67.5 7183,-67.5"/>
<text text-anchor="start" x="7191" y="-85.5" font-family="Helvetica,sans-Serif" font-size="10.00">src/libs/vwidgets/page</text>
<text text-anchor="middle" x="7248.5" y="-74.5" font-family="Helvetica,sans-Serif" font-size="10.00">_format_combobox.cpp</text>
</a>
</g>
</g>
<!-- Node25&#45;&gt;Node53 -->
<g id="edge48" class="edge">
<title>Node25&#45;&gt;Node53</title>
<path fill="none" stroke="midnightblue" d="M5770.86,-138.69C5785.53,-136.84 5801.02,-135.13 5815.5,-134 6417.42,-86.83 6573.3,-163.52 7173.5,-98 7176.53,-97.67 7179.63,-97.28 7182.74,-96.85"/>
<polygon fill="midnightblue" stroke="midnightblue" points="5770.32,-135.23 5760.85,-139.99 5771.22,-142.18 5770.32,-135.23"/>
</g>
<!-- Node25&#45;&gt;Node61 -->
<g id="edge49" class="edge">
<title>Node25&#45;&gt;Node61</title>
<path fill="none" stroke="midnightblue" d="M5770.85,-138.66C5785.53,-136.82 5801.02,-135.12 5815.5,-134 6483.49,-82.54 6654.32,-146.92 7322.5,-98 7341.44,-96.61 7362,-94.35 7380.58,-92.02"/>
<polygon fill="midnightblue" stroke="midnightblue" points="5770.31,-135.21 5760.85,-139.96 5771.22,-142.15 5770.31,-135.21"/>
</g>
<!-- Node34&#45;&gt;Node35 -->
<g id="edge31" class="edge">
<title>Node34&#45;&gt;Node35</title>
<path fill="none" stroke="midnightblue" d="M4793.78,-58.87C4799.71,-49.46 4806.41,-38.83 4811.62,-30.58"/>
<polygon fill="midnightblue" stroke="midnightblue" points="4790.77,-57.07 4788.4,-67.4 4796.69,-60.81 4790.77,-57.07"/>
</g>
</g>
</svg>
