<?xml version="1.0" encoding="UTF-8" standalone="no"?>
<!DOCTYPE svg PUBLIC "-//W3C//DTD SVG 1.1//EN"
 "http://www.w3.org/Graphics/SVG/1.1/DTD/svg11.dtd">
<!-- Generated by graphviz version 2.43.0 (0)
 -->
<!-- Title: src/libs/vmisc/vsettings.h Pages: 1 -->
<svg width="7558pt" height="229pt"
 viewBox="0.00 0.00 7557.50 229.00" xmlns="http://www.w3.org/2000/svg" xmlns:xlink="http://www.w3.org/1999/xlink">
<g id="graph0" class="graph" transform="scale(1 1) rotate(0) translate(4 225)">
<title>src/libs/vmisc/vsettings.h</title>
<polygon fill="white" stroke="transparent" points="-4,4 -4,-225 7553.5,-225 7553.5,4 -4,4"/>
<!-- Node1 -->
<g id="node1" class="node">
<title>Node1</title>
<g id="a_node1"><a xlink:title=" ">
<polygon fill="#bfbfbf" stroke="black" points="5739.5,-201.5 5739.5,-220.5 5879.5,-220.5 5879.5,-201.5 5739.5,-201.5"/>
<text text-anchor="middle" x="5809.5" y="-208.5" font-family="Helvetica,sans-Serif" font-size="10.00">src/libs/vmisc/vsettings.h</text>
</a>
</g>
</g>
<!-- Node2 -->
<g id="node2" class="node">
<title>Node2</title>
<g id="a_node2"><a xlink:href="../../d9/d02/vapplication_8h.html" target="_top" xlink:title=" ">
<polygon fill="white" stroke="black" points="2149,-134.5 2149,-164.5 2276,-164.5 2276,-134.5 2149,-134.5"/>
<text text-anchor="start" x="2157" y="-152.5" font-family="Helvetica,sans-Serif" font-size="10.00">src/app/seamly2d/core</text>
<text text-anchor="middle" x="2212.5" y="-141.5" font-family="Helvetica,sans-Serif" font-size="10.00">/vapplication.h</text>
</a>
</g>
</g>
<!-- Node1&#45;&gt;Node2 -->
<g id="edge1" class="edge">
<title>Node1&#45;&gt;Node2</title>
<path fill="none" stroke="midnightblue" d="M5729.2,-208.67C5244.18,-200.65 2711.99,-158.76 2276.34,-151.56"/>
<polygon fill="midnightblue" stroke="midnightblue" points="5729.2,-212.17 5739.26,-208.84 5729.32,-205.17 5729.2,-212.17"/>
</g>
<!-- Node25 -->
<g id="node25" class="node">
<title>Node25</title>
<g id="a_node25"><a xlink:href="../../d5/d74/vabstractapplication_8h.html" target="_top" xlink:title=" ">
<polygon fill="white" stroke="red" points="5650,-140 5650,-159 5845,-159 5845,-140 5650,-140"/>
<text text-anchor="middle" x="5747.5" y="-147" font-family="Helvetica,sans-Serif" font-size="10.00">src/libs/vmisc/vabstractapplication.h</text>
</a>
</g>
</g>
<!-- Node1&#45;&gt;Node25 -->
<g id="edge24" class="edge">
<title>Node1&#45;&gt;Node25</title>
<path fill="none" stroke="midnightblue" d="M5793.17,-194.32C5781.39,-183.02 5765.94,-168.19 5756.37,-159.01"/>
<polygon fill="midnightblue" stroke="midnightblue" points="5790.98,-197.08 5800.62,-201.48 5795.83,-192.03 5790.98,-197.08"/>
</g>
<!-- Node60 -->
<g id="node49" class="node">
<title>Node60</title>
<g id="a_node49"><a xlink:href="../../d2/d31/vmaingraphicsview_8cpp.html" target="_top" xlink:title=" ">
<polygon fill="white" stroke="black" points="7333.5,-73 7333.5,-92 7549.5,-92 7549.5,-73 7333.5,-73"/>
<text text-anchor="middle" x="7441.5" y="-80" font-family="Helvetica,sans-Serif" font-size="10.00">src/libs/vwidgets/vmaingraphicsview.cpp</text>
</a>
</g>
</g>
<!-- Node1&#45;&gt;Node60 -->
<g id="edge51" class="edge">
<title>Node1&#45;&gt;Node60</title>
<path fill="none" stroke="midnightblue" d="M5825.1,-194.4C5846.56,-173.13 5883.45,-137.27 5891.5,-134 5965.22,-104.02 7244.14,-103.86 7323.5,-98 7342.44,-96.6 7363,-94.34 7381.58,-92.01"/>
<polygon fill="midnightblue" stroke="midnightblue" points="5822.6,-191.96 5817.98,-201.49 5827.54,-196.92 5822.6,-191.96"/>
</g>
<!-- Node66 -->
<g id="node50" class="node">
<title>Node66</title>
<g id="a_node50"><a xlink:href="../../db/d28/vsettings_8cpp.html" target="_top" xlink:title=" ">
<polygon fill="white" stroke="black" points="5900.5,-140 5900.5,-159 6052.5,-159 6052.5,-140 5900.5,-140"/>
<text text-anchor="middle" x="5976.5" y="-147" font-family="Helvetica,sans-Serif" font-size="10.00">src/libs/vmisc/vsettings.cpp</text>
</a>
</g>
</g>
<!-- Node1&#45;&gt;Node66 -->
<g id="edge50" class="edge">
<title>Node1&#45;&gt;Node66</title>
<path fill="none" stroke="midnightblue" d="M5842.95,-198.08C5875.41,-186.52 5923.87,-169.25 5952.62,-159.01"/>
<polygon fill="midnightblue" stroke="midnightblue" points="5841.67,-194.82 5833.43,-201.48 5844.02,-201.42 5841.67,-194.82"/>
</g>
<!-- Node3 -->
<g id="node3" class="node">
<title>Node3</title>
<g id="a_node3"><a xlink:href="../../d3/dd8/vapplication_8cpp.html" target="_top" xlink:title=" ">
<polygon fill="white" stroke="black" points="0,-67.5 0,-97.5 127,-97.5 127,-67.5 0,-67.5"/>
<text text-anchor="start" x="8" y="-85.5" font-family="Helvetica,sans-Serif" font-size="10.00">src/app/seamly2d/core</text>
<text text-anchor="middle" x="63.5" y="-74.5" font-family="Helvetica,sans-Serif" font-size="10.00">/vapplication.cpp</text>
</a>
</g>
</g>
<!-- Node2&#45;&gt;Node3 -->
<g id="edge2" class="edge">
<title>Node2&#45;&gt;Node3</title>
<path fill="none" stroke="midnightblue" d="M2138.69,-148.4C1817.09,-147.73 536.41,-142.25 136.5,-98 133.42,-97.66 130.27,-97.25 127.1,-96.8"/>
<polygon fill="midnightblue" stroke="midnightblue" points="2138.82,-151.9 2148.83,-148.42 2138.84,-144.9 2138.82,-151.9"/>
</g>
<!-- Node4 -->
<g id="node4" class="node">
<title>Node4</title>
<g id="a_node4"><a xlink:href="../../dd/db4/abstractlayout__dialog_8cpp.html" target="_top" xlink:title=" ">
<polygon fill="white" stroke="black" points="145.5,-67.5 145.5,-97.5 291.5,-97.5 291.5,-67.5 145.5,-67.5"/>
<text text-anchor="start" x="153.5" y="-85.5" font-family="Helvetica,sans-Serif" font-size="10.00">src/app/seamly2d/dialogs</text>
<text text-anchor="middle" x="218.5" y="-74.5" font-family="Helvetica,sans-Serif" font-size="10.00">/abstractlayout_dialog.cpp</text>
</a>
</g>
</g>
<!-- Node2&#45;&gt;Node4 -->
<g id="edge3" class="edge">
<title>Node2&#45;&gt;Node4</title>
<path fill="none" stroke="midnightblue" d="M2138.58,-148.02C1832.94,-145.79 666.78,-135.01 300.5,-98 297.62,-97.71 294.7,-97.38 291.74,-97.01"/>
<polygon fill="midnightblue" stroke="midnightblue" points="2138.63,-151.52 2148.66,-148.09 2138.68,-144.52 2138.63,-151.52"/>
</g>
<!-- Node5 -->
<g id="node5" class="node">
<title>Node5</title>
<g id="a_node5"><a xlink:href="../../d7/dfa/calculator__dialog_8cpp.html" target="_top" xlink:title=" ">
<polygon fill="white" stroke="black" points="310,-67.5 310,-97.5 451,-97.5 451,-67.5 310,-67.5"/>
<text text-anchor="start" x="318" y="-85.5" font-family="Helvetica,sans-Serif" font-size="10.00">src/app/seamly2d/dialogs</text>
<text text-anchor="middle" x="380.5" y="-74.5" font-family="Helvetica,sans-Serif" font-size="10.00">/calculator_dialog.cpp</text>
</a>
</g>
</g>
<!-- Node2&#45;&gt;Node5 -->
<g id="edge4" class="edge">
<title>Node2&#45;&gt;Node5</title>
<path fill="none" stroke="midnightblue" d="M2138.62,-147.88C1849.29,-145.2 792.8,-133.18 459.5,-98 456.73,-97.71 453.9,-97.37 451.06,-97"/>
<polygon fill="midnightblue" stroke="midnightblue" points="2138.96,-151.38 2148.99,-147.97 2139.02,-144.38 2138.96,-151.38"/>
</g>
<!-- Node6 -->
<g id="node6" class="node">
<title>Node6</title>
<g id="a_node6"><a xlink:href="../../d2/d2d/preferencesconfigurationpage_8cpp.html" target="_top" xlink:title=" ">
<polygon fill="white" stroke="black" points="469,-67.5 469,-97.5 716,-97.5 716,-67.5 469,-67.5"/>
<text text-anchor="start" x="477" y="-85.5" font-family="Helvetica,sans-Serif" font-size="10.00">src/app/seamly2d/dialogs</text>
<text text-anchor="middle" x="592.5" y="-74.5" font-family="Helvetica,sans-Serif" font-size="10.00">/configpages/preferencesconfigurationpage.cpp</text>
</a>
</g>
</g>
<!-- Node2&#45;&gt;Node6 -->
<g id="edge5" class="edge">
<title>Node2&#45;&gt;Node6</title>
<path fill="none" stroke="midnightblue" d="M2138.64,-147.96C1921.51,-145.97 1266.39,-136.9 724.5,-98 721.74,-97.8 718.95,-97.59 716.14,-97.37"/>
<polygon fill="midnightblue" stroke="midnightblue" points="2138.93,-151.47 2148.96,-148.06 2138.99,-144.47 2138.93,-151.47"/>
</g>
<!-- Node7 -->
<g id="node7" class="node">
<title>Node7</title>
<g id="a_node7"><a xlink:href="../../dc/d20/preferencespathpage_8cpp.html" target="_top" xlink:title=" ">
<polygon fill="white" stroke="black" points="734,-67.5 734,-97.5 939,-97.5 939,-67.5 734,-67.5"/>
<text text-anchor="start" x="742" y="-85.5" font-family="Helvetica,sans-Serif" font-size="10.00">src/app/seamly2d/dialogs</text>
<text text-anchor="middle" x="836.5" y="-74.5" font-family="Helvetica,sans-Serif" font-size="10.00">/configpages/preferencespathpage.cpp</text>
</a>
</g>
</g>
<!-- Node2&#45;&gt;Node7 -->
<g id="edge6" class="edge">
<title>Node2&#45;&gt;Node7</title>
<path fill="none" stroke="midnightblue" d="M2138.74,-147.87C1943.82,-145.71 1399.05,-136.43 947.5,-98 944.79,-97.77 942.04,-97.52 939.27,-97.26"/>
<polygon fill="midnightblue" stroke="midnightblue" points="2138.83,-151.37 2148.86,-147.98 2138.9,-144.37 2138.83,-151.37"/>
</g>
<!-- Node8 -->
<g id="node8" class="node">
<title>Node8</title>
<g id="a_node8"><a xlink:href="../../d9/d70/preferencesgraphicsviewpage_8cpp.html" target="_top" xlink:title=" ">
<polygon fill="white" stroke="black" points="956.5,-67.5 956.5,-97.5 1204.5,-97.5 1204.5,-67.5 956.5,-67.5"/>
<text text-anchor="start" x="964.5" y="-85.5" font-family="Helvetica,sans-Serif" font-size="10.00">src/app/seamly2d/dialogs</text>
<text text-anchor="middle" x="1080.5" y="-74.5" font-family="Helvetica,sans-Serif" font-size="10.00">/configpages/preferencesgraphicsviewpage.cpp</text>
</a>
</g>
</g>
<!-- Node2&#45;&gt;Node8 -->
<g id="edge7" class="edge">
<title>Node2&#45;&gt;Node8</title>
<path fill="none" stroke="midnightblue" d="M2138.64,-146.24C1972.93,-140.83 1558.98,-125.54 1213.5,-98 1210.61,-97.77 1207.68,-97.53 1204.72,-97.27"/>
<polygon fill="midnightblue" stroke="midnightblue" points="2138.61,-149.74 2148.72,-146.56 2138.84,-142.74 2138.61,-149.74"/>
</g>
<!-- Node9 -->
<g id="node9" class="node">
<title>Node9</title>
<g id="a_node9"><a xlink:href="../../dc/d63/preferencespatternpage_8cpp.html" target="_top" xlink:title=" ">
<polygon fill="white" stroke="black" points="1222.5,-67.5 1222.5,-97.5 1440.5,-97.5 1440.5,-67.5 1222.5,-67.5"/>
<text text-anchor="start" x="1230.5" y="-85.5" font-family="Helvetica,sans-Serif" font-size="10.00">src/app/seamly2d/dialogs</text>
<text text-anchor="middle" x="1331.5" y="-74.5" font-family="Helvetica,sans-Serif" font-size="10.00">/configpages/preferencespatternpage.cpp</text>
</a>
</g>
</g>
<!-- Node2&#45;&gt;Node9 -->
<g id="edge8" class="edge">
<title>Node2&#45;&gt;Node9</title>
<path fill="none" stroke="midnightblue" d="M2138.52,-144.99C2002.11,-138.2 1701.81,-121.83 1449.5,-98 1446.62,-97.73 1443.71,-97.44 1440.77,-97.15"/>
<polygon fill="midnightblue" stroke="midnightblue" points="2138.69,-148.5 2148.85,-145.5 2139.03,-141.51 2138.69,-148.5"/>
</g>
<!-- Node10 -->
<g id="node10" class="node">
<title>Node10</title>
<g id="a_node10"><a xlink:href="../../dd/d64/dialogaboutapp_8cpp.html" target="_top" xlink:title=" ">
<polygon fill="white" stroke="black" points="1459,-67.5 1459,-97.5 1600,-97.5 1600,-67.5 1459,-67.5"/>
<text text-anchor="start" x="1467" y="-85.5" font-family="Helvetica,sans-Serif" font-size="10.00">src/app/seamly2d/dialogs</text>
<text text-anchor="middle" x="1529.5" y="-74.5" font-family="Helvetica,sans-Serif" font-size="10.00">/dialogaboutapp.cpp</text>
</a>
</g>
</g>
<!-- Node2&#45;&gt;Node10 -->
<g id="edge9" class="edge">
<title>Node2&#45;&gt;Node10</title>
<path fill="none" stroke="midnightblue" d="M2138.91,-144.61C2025.07,-138.09 1799.56,-123.12 1609.5,-98 1606.42,-97.59 1603.28,-97.15 1600.11,-96.68"/>
<polygon fill="midnightblue" stroke="midnightblue" points="2138.73,-148.11 2148.91,-145.18 2139.12,-141.12 2138.73,-148.11"/>
</g>
<!-- Node11 -->
<g id="node11" class="node">
<title>Node11</title>
<g id="a_node11"><a xlink:href="../../d2/d00/vtooloptionspropertybrowser_8cpp.html" target="_top" xlink:title=" ">
<polygon fill="white" stroke="black" points="1618.5,-67.5 1618.5,-97.5 1798.5,-97.5 1798.5,-67.5 1618.5,-67.5"/>
<text text-anchor="start" x="1626.5" y="-85.5" font-family="Helvetica,sans-Serif" font-size="10.00">src/app/seamly2d/core</text>
<text text-anchor="middle" x="1708.5" y="-74.5" font-family="Helvetica,sans-Serif" font-size="10.00">/vtooloptionspropertybrowser.cpp</text>
</a>
</g>
</g>
<!-- Node2&#45;&gt;Node11 -->
<g id="edge10" class="edge">
<title>Node2&#45;&gt;Node11</title>
<path fill="none" stroke="midnightblue" d="M2138.84,-139.79C2057.63,-130.09 1923.15,-113.68 1807.5,-98 1804.57,-97.6 1801.6,-97.2 1798.6,-96.78"/>
<polygon fill="midnightblue" stroke="midnightblue" points="2138.62,-143.29 2148.96,-141 2139.45,-136.34 2138.62,-143.29"/>
</g>
<!-- Node12 -->
<g id="node12" class="node">
<title>Node12</title>
<g id="a_node12"><a xlink:href="../../dd/dc2/decimalchart__dialog_8cpp.html" target="_top" xlink:title=" ">
<polygon fill="white" stroke="black" points="1817,-67.5 1817,-97.5 1958,-97.5 1958,-67.5 1817,-67.5"/>
<text text-anchor="start" x="1825" y="-85.5" font-family="Helvetica,sans-Serif" font-size="10.00">src/app/seamly2d/dialogs</text>
<text text-anchor="middle" x="1887.5" y="-74.5" font-family="Helvetica,sans-Serif" font-size="10.00">/decimalchart_dialog.cpp</text>
</a>
</g>
</g>
<!-- Node2&#45;&gt;Node12 -->
<g id="edge11" class="edge">
<title>Node2&#45;&gt;Node12</title>
<path fill="none" stroke="midnightblue" d="M2138.77,-133.75C2084.47,-122.89 2011.09,-108.22 1957.65,-97.53"/>
<polygon fill="midnightblue" stroke="midnightblue" points="2138.19,-137.21 2148.68,-135.74 2139.56,-130.34 2138.19,-137.21"/>
</g>
<!-- Node13 -->
<g id="node13" class="node">
<title>Node13</title>
<g id="a_node13"><a xlink:href="../../d5/dc5/dialogpreferences_8cpp.html" target="_top" xlink:title=" ">
<polygon fill="white" stroke="black" points="1976,-67.5 1976,-97.5 2117,-97.5 2117,-67.5 1976,-67.5"/>
<text text-anchor="start" x="1984" y="-85.5" font-family="Helvetica,sans-Serif" font-size="10.00">src/app/seamly2d/dialogs</text>
<text text-anchor="middle" x="2046.5" y="-74.5" font-family="Helvetica,sans-Serif" font-size="10.00">/dialogpreferences.cpp</text>
</a>
</g>
</g>
<!-- Node2&#45;&gt;Node13 -->
<g id="edge12" class="edge">
<title>Node2&#45;&gt;Node13</title>
<path fill="none" stroke="midnightblue" d="M2166.99,-130.68C2140.37,-120.26 2107.23,-107.28 2082.45,-97.58"/>
<polygon fill="midnightblue" stroke="midnightblue" points="2165.89,-134.01 2176.48,-134.4 2168.45,-127.49 2165.89,-134.01"/>
</g>
<!-- Node14 -->
<g id="node14" class="node">
<title>Node14</title>
<g id="a_node14"><a xlink:href="../../d5/d18/dialogpatternproperties_8cpp.html" target="_top" xlink:title=" ">
<polygon fill="white" stroke="black" points="2135,-67.5 2135,-97.5 2290,-97.5 2290,-67.5 2135,-67.5"/>
<text text-anchor="start" x="2143" y="-85.5" font-family="Helvetica,sans-Serif" font-size="10.00">src/app/seamly2d/dialogs</text>
<text text-anchor="middle" x="2212.5" y="-74.5" font-family="Helvetica,sans-Serif" font-size="10.00">/dialogpatternproperties.cpp</text>
</a>
</g>
</g>
<!-- Node2&#45;&gt;Node14 -->
<g id="edge13" class="edge">
<title>Node2&#45;&gt;Node14</title>
<path fill="none" stroke="midnightblue" d="M2212.5,-124.11C2212.5,-115.15 2212.5,-105.32 2212.5,-97.58"/>
<polygon fill="midnightblue" stroke="midnightblue" points="2209,-124.4 2212.5,-134.4 2216,-124.4 2209,-124.4"/>
</g>
<!-- Node15 -->
<g id="node15" class="node">
<title>Node15</title>
<g id="a_node15"><a xlink:href="../../d6/d89/dialoglayoutprogress_8cpp.html" target="_top" xlink:title=" ">
<polygon fill="white" stroke="black" points="2308,-67.5 2308,-97.5 2451,-97.5 2451,-67.5 2308,-67.5"/>
<text text-anchor="start" x="2316" y="-85.5" font-family="Helvetica,sans-Serif" font-size="10.00">src/app/seamly2d/dialogs</text>
<text text-anchor="middle" x="2379.5" y="-74.5" font-family="Helvetica,sans-Serif" font-size="10.00">/dialoglayoutprogress.cpp</text>
</a>
</g>
</g>
<!-- Node2&#45;&gt;Node15 -->
<g id="edge14" class="edge">
<title>Node2&#45;&gt;Node15</title>
<path fill="none" stroke="midnightblue" d="M2258.28,-130.68C2285.06,-120.26 2318.4,-107.28 2343.33,-97.58"/>
<polygon fill="midnightblue" stroke="midnightblue" points="2256.79,-127.51 2248.74,-134.4 2259.33,-134.03 2256.79,-127.51"/>
</g>
<!-- Node16 -->
<g id="node16" class="node">
<title>Node16</title>
<g id="a_node16"><a xlink:href="../../dd/d54/export__layout__dialog_8cpp.html" target="_top" xlink:title=" ">
<polygon fill="white" stroke="black" points="2469,-67.5 2469,-97.5 2612,-97.5 2612,-67.5 2469,-67.5"/>
<text text-anchor="start" x="2477" y="-85.5" font-family="Helvetica,sans-Serif" font-size="10.00">src/app/seamly2d/dialogs</text>
<text text-anchor="middle" x="2540.5" y="-74.5" font-family="Helvetica,sans-Serif" font-size="10.00">/export_layout_dialog.cpp</text>
</a>
</g>
</g>
<!-- Node2&#45;&gt;Node16 -->
<g id="edge15" class="edge">
<title>Node2&#45;&gt;Node16</title>
<path fill="none" stroke="midnightblue" d="M2286.14,-133.91C2341,-123.04 2415.47,-108.28 2469.65,-97.54"/>
<polygon fill="midnightblue" stroke="midnightblue" points="2285.26,-130.51 2276.13,-135.89 2286.62,-137.38 2285.26,-130.51"/>
</g>
<!-- Node17 -->
<g id="node17" class="node">
<title>Node17</title>
<g id="a_node17"><a xlink:href="../../d0/dfa/layoutsettings__dialog_8cpp.html" target="_top" xlink:title=" ">
<polygon fill="white" stroke="black" points="2630,-67.5 2630,-97.5 2775,-97.5 2775,-67.5 2630,-67.5"/>
<text text-anchor="start" x="2638" y="-85.5" font-family="Helvetica,sans-Serif" font-size="10.00">src/app/seamly2d/dialogs</text>
<text text-anchor="middle" x="2702.5" y="-74.5" font-family="Helvetica,sans-Serif" font-size="10.00">/layoutsettings_dialog.cpp</text>
</a>
</g>
</g>
<!-- Node2&#45;&gt;Node17 -->
<g id="edge16" class="edge">
<title>Node2&#45;&gt;Node17</title>
<path fill="none" stroke="midnightblue" d="M2286.19,-140.54C2368.03,-131.44 2503.96,-115.5 2620.5,-98 2623.5,-97.55 2626.56,-97.07 2629.65,-96.58"/>
<polygon fill="midnightblue" stroke="midnightblue" points="2285.8,-137.07 2276.24,-141.65 2286.57,-144.02 2285.8,-137.07"/>
</g>
<!-- Node18 -->
<g id="node18" class="node">
<title>Node18</title>
<g id="a_node18"><a xlink:href="../../db/d5c/groups__widget_8cpp.html" target="_top" xlink:title=" ">
<polygon fill="white" stroke="black" points="2793,-67.5 2793,-97.5 2934,-97.5 2934,-67.5 2793,-67.5"/>
<text text-anchor="start" x="2801" y="-85.5" font-family="Helvetica,sans-Serif" font-size="10.00">src/app/seamly2d/dialogs</text>
<text text-anchor="middle" x="2863.5" y="-74.5" font-family="Helvetica,sans-Serif" font-size="10.00">/groups_widget.cpp</text>
</a>
</g>
</g>
<!-- Node2&#45;&gt;Node18 -->
<g id="edge17" class="edge">
<title>Node2&#45;&gt;Node18</title>
<path fill="none" stroke="midnightblue" d="M2286.31,-144.13C2395.36,-137.18 2605.78,-121.91 2783.5,-98 2786.58,-97.59 2789.72,-97.14 2792.89,-96.66"/>
<polygon fill="midnightblue" stroke="midnightblue" points="2285.84,-140.65 2276.08,-144.77 2286.28,-147.64 2285.84,-140.65"/>
</g>
<!-- Node19 -->
<g id="node19" class="node">
<title>Node19</title>
<g id="a_node19"><a xlink:href="../../dc/d14/app_2seamly2d_2main_8cpp.html" target="_top" xlink:title=" ">
<polygon fill="white" stroke="black" points="2952,-73 2952,-92 3103,-92 3103,-73 2952,-73"/>
<text text-anchor="middle" x="3027.5" y="-80" font-family="Helvetica,sans-Serif" font-size="10.00">src/app/seamly2d/main.cpp</text>
</a>
</g>
</g>
<!-- Node2&#45;&gt;Node19 -->
<g id="edge18" class="edge">
<title>Node2&#45;&gt;Node19</title>
<path fill="none" stroke="midnightblue" d="M2286.17,-145.84C2418.13,-140.53 2703.39,-126.59 2942.5,-98 2955.58,-96.44 2969.71,-94.23 2982.63,-92.02"/>
<polygon fill="midnightblue" stroke="midnightblue" points="2286.02,-142.34 2276.17,-146.24 2286.3,-149.34 2286.02,-142.34"/>
</g>
<!-- Node20 -->
<g id="node20" class="node">
<title>Node20</title>
<g id="a_node20"><a xlink:href="../../dd/d84/shortcuts__dialog_8cpp.html" target="_top" xlink:title=" ">
<polygon fill="white" stroke="black" points="3121,-67.5 3121,-97.5 3262,-97.5 3262,-67.5 3121,-67.5"/>
<text text-anchor="start" x="3129" y="-85.5" font-family="Helvetica,sans-Serif" font-size="10.00">src/app/seamly2d/dialogs</text>
<text text-anchor="middle" x="3191.5" y="-74.5" font-family="Helvetica,sans-Serif" font-size="10.00">/shortcuts_dialog.cpp</text>
</a>
</g>
</g>
<!-- Node2&#45;&gt;Node20 -->
<g id="edge19" class="edge">
<title>Node2&#45;&gt;Node20</title>
<path fill="none" stroke="midnightblue" d="M2286.5,-147.42C2440.54,-144.51 2806.66,-134.05 3111.5,-98 3114.58,-97.64 3117.73,-97.23 3120.9,-96.78"/>
<polygon fill="midnightblue" stroke="midnightblue" points="2286.16,-143.93 2276.22,-147.61 2286.29,-150.93 2286.16,-143.93"/>
</g>
<!-- Node21 -->
<g id="node21" class="node">
<title>Node21</title>
<g id="a_node21"><a xlink:href="../../d2/df4/show__info__dialog_8cpp.html" target="_top" xlink:title=" ">
<polygon fill="white" stroke="black" points="3280,-67.5 3280,-97.5 3421,-97.5 3421,-67.5 3280,-67.5"/>
<text text-anchor="start" x="3288" y="-85.5" font-family="Helvetica,sans-Serif" font-size="10.00">src/app/seamly2d/dialogs</text>
<text text-anchor="middle" x="3350.5" y="-74.5" font-family="Helvetica,sans-Serif" font-size="10.00">/show_info_dialog.cpp</text>
</a>
</g>
</g>
<!-- Node2&#45;&gt;Node21 -->
<g id="edge20" class="edge">
<title>Node2&#45;&gt;Node21</title>
<path fill="none" stroke="midnightblue" d="M2286.49,-148.31C2459.31,-147.14 2902.78,-139.92 3270.5,-98 3273.59,-97.65 3276.73,-97.25 3279.9,-96.82"/>
<polygon fill="midnightblue" stroke="midnightblue" points="2286.22,-144.81 2276.24,-148.37 2286.26,-151.81 2286.22,-144.81"/>
</g>
<!-- Node22 -->
<g id="node22" class="node">
<title>Node22</title>
<g id="a_node22"><a xlink:href="../../d8/de8/mainwindowsnogui_8cpp.html" target="_top" xlink:title=" ">
<polygon fill="white" stroke="black" points="3439,-73 3439,-92 3660,-92 3660,-73 3439,-73"/>
<text text-anchor="middle" x="3549.5" y="-80" font-family="Helvetica,sans-Serif" font-size="10.00">src/app/seamly2d/mainwindowsnogui.cpp</text>
</a>
</g>
</g>
<!-- Node2&#45;&gt;Node22 -->
<g id="edge21" class="edge">
<title>Node2&#45;&gt;Node22</title>
<path fill="none" stroke="midnightblue" d="M2286.43,-147.46C2476.42,-144.35 2997.2,-133.03 3429.5,-98 3448.12,-96.49 3468.29,-94.28 3486.69,-92.04"/>
<polygon fill="midnightblue" stroke="midnightblue" points="2286.22,-143.96 2276.28,-147.62 2286.33,-150.96 2286.22,-143.96"/>
</g>
<!-- Node23 -->
<g id="node23" class="node">
<title>Node23</title>
<g id="a_node23"><a xlink:href="../../d3/d49/vpattern_8cpp.html" target="_top" xlink:title=" ">
<polygon fill="white" stroke="black" points="3678,-67.5 3678,-97.5 3803,-97.5 3803,-67.5 3678,-67.5"/>
<text text-anchor="start" x="3686" y="-85.5" font-family="Helvetica,sans-Serif" font-size="10.00">src/app/seamly2d/xml</text>
<text text-anchor="middle" x="3740.5" y="-74.5" font-family="Helvetica,sans-Serif" font-size="10.00">/vpattern.cpp</text>
</a>
</g>
</g>
<!-- Node2&#45;&gt;Node23 -->
<g id="edge22" class="edge">
<title>Node2&#45;&gt;Node23</title>
<path fill="none" stroke="midnightblue" d="M2286.38,-147.54C2543.24,-143.96 3396.57,-129.88 3668.5,-98 3671.54,-97.64 3674.64,-97.23 3677.77,-96.76"/>
<polygon fill="midnightblue" stroke="midnightblue" points="2285.99,-144.05 2276.04,-147.68 2286.09,-151.05 2285.99,-144.05"/>
</g>
<!-- Node24 -->
<g id="node24" class="node">
<title>Node24</title>
<g id="a_node24"><a xlink:href="../../d8/dd9/mainwindow_8cpp.html" target="_top" xlink:title=" ">
<polygon fill="white" stroke="black" points="3821.5,-73 3821.5,-92 4009.5,-92 4009.5,-73 3821.5,-73"/>
<text text-anchor="middle" x="3915.5" y="-80" font-family="Helvetica,sans-Serif" font-size="10.00">src/app/seamly2d/mainwindow.cpp</text>
</a>
</g>
</g>
<!-- Node2&#45;&gt;Node24 -->
<g id="edge23" class="edge">
<title>Node2&#45;&gt;Node24</title>
<path fill="none" stroke="midnightblue" d="M2286.4,-148.97C2514.13,-149.82 3225.18,-147.99 3811.5,-98 3828.12,-96.58 3846.15,-94.33 3862.45,-92.01"/>
<polygon fill="midnightblue" stroke="midnightblue" points="2286.26,-145.47 2276.24,-148.93 2286.23,-152.47 2286.26,-145.47"/>
</g>
<!-- Node26 -->
<g id="node26" class="node">
<title>Node26</title>
<g id="a_node26"><a xlink:href="../../d4/d90/fvupdater_8cpp.html" target="_top" xlink:title=" ">
<polygon fill="white" stroke="black" points="4028,-73 4028,-92 4181,-92 4181,-73 4028,-73"/>
<text text-anchor="middle" x="4104.5" y="-80" font-family="Helvetica,sans-Serif" font-size="10.00">src/libs/fervor/fvupdater.cpp</text>
</a>
</g>
</g>
<!-- Node25&#45;&gt;Node26 -->
<g id="edge25" class="edge">
<title>Node25&#45;&gt;Node26</title>
<path fill="none" stroke="midnightblue" d="M5639.59,-146.92C5334.83,-142.16 4471.46,-126.48 4189.5,-98 4175.8,-96.62 4160.97,-94.35 4147.59,-92.02"/>
<polygon fill="midnightblue" stroke="midnightblue" points="5639.7,-150.42 5649.76,-147.08 5639.81,-143.43 5639.7,-150.42"/>
</g>
<!-- Node27 -->
<g id="node27" class="node">
<title>Node27</title>
<g id="a_node27"><a xlink:href="../../d9/dc8/dxiface_8cpp.html" target="_top" xlink:title=" ">
<polygon fill="white" stroke="black" points="4199,-73 4199,-92 4334,-92 4334,-73 4199,-73"/>
<text text-anchor="middle" x="4266.5" y="-80" font-family="Helvetica,sans-Serif" font-size="10.00">src/libs/vdxf/dxiface.cpp</text>
</a>
</g>
</g>
<!-- Node25&#45;&gt;Node27 -->
<g id="edge26" class="edge">
<title>Node25&#45;&gt;Node27</title>
<path fill="none" stroke="midnightblue" d="M5639.63,-146.75C5355.89,-141.82 4593.32,-126.27 4342.5,-98 4330.22,-96.62 4316.95,-94.35 4304.99,-92.02"/>
<polygon fill="midnightblue" stroke="midnightblue" points="5639.87,-150.26 5649.93,-146.93 5639.99,-143.26 5639.87,-150.26"/>
</g>
<!-- Node28 -->
<g id="node28" class="node">
<title>Node28</title>
<g id="a_node28"><a xlink:href="../../da/d75/vabstractarc__p_8h.html" target="_top" xlink:title=" ">
<polygon fill="white" stroke="red" points="4352,-67.5 4352,-97.5 4459,-97.5 4459,-67.5 4352,-67.5"/>
<text text-anchor="start" x="4360" y="-85.5" font-family="Helvetica,sans-Serif" font-size="10.00">src/libs/vgeometry</text>
<text text-anchor="middle" x="4405.5" y="-74.5" font-family="Helvetica,sans-Serif" font-size="10.00">/vabstractarc_p.h</text>
</a>
</g>
</g>
<!-- Node25&#45;&gt;Node28 -->
<g id="edge27" class="edge">
<title>Node25&#45;&gt;Node28</title>
<path fill="none" stroke="midnightblue" d="M5639.8,-146.89C5374.11,-142.48 4692.7,-128.49 4467.5,-98 4464.76,-97.63 4461.97,-97.19 4459.15,-96.71"/>
<polygon fill="midnightblue" stroke="midnightblue" points="5639.78,-150.39 5649.84,-147.05 5639.9,-143.39 5639.78,-150.39"/>
</g>
<!-- Node30 -->
<g id="node29" class="node">
<title>Node30</title>
<g id="a_node29"><a xlink:href="../../dc/da3/varc__p_8h.html" target="_top" xlink:title=" ">
<polygon fill="white" stroke="red" points="4477,-67.5 4477,-97.5 4584,-97.5 4584,-67.5 4477,-67.5"/>
<text text-anchor="start" x="4485" y="-85.5" font-family="Helvetica,sans-Serif" font-size="10.00">src/libs/vgeometry</text>
<text text-anchor="middle" x="4530.5" y="-74.5" font-family="Helvetica,sans-Serif" font-size="10.00">/varc_p.h</text>
</a>
</g>
</g>
<!-- Node25&#45;&gt;Node30 -->
<g id="edge28" class="edge">
<title>Node25&#45;&gt;Node30</title>
<path fill="none" stroke="midnightblue" d="M5639.83,-146.35C5393.11,-141.02 4792.79,-125.56 4592.5,-98 4589.76,-97.62 4586.97,-97.18 4584.15,-96.69"/>
<polygon fill="midnightblue" stroke="midnightblue" points="5639.81,-149.85 5649.88,-146.57 5639.96,-142.85 5639.81,-149.85"/>
</g>
<!-- Node32 -->
<g id="node30" class="node">
<title>Node32</title>
<g id="a_node30"><a xlink:href="../../d5/d8e/vcubicbezier__p_8h.html" target="_top" xlink:title=" ">
<polygon fill="white" stroke="red" points="4602,-67.5 4602,-97.5 4709,-97.5 4709,-67.5 4602,-67.5"/>
<text text-anchor="start" x="4610" y="-85.5" font-family="Helvetica,sans-Serif" font-size="10.00">src/libs/vgeometry</text>
<text text-anchor="middle" x="4655.5" y="-74.5" font-family="Helvetica,sans-Serif" font-size="10.00">/vcubicbezier_p.h</text>
</a>
</g>
</g>
<!-- Node25&#45;&gt;Node32 -->
<g id="edge29" class="edge">
<title>Node25&#45;&gt;Node32</title>
<path fill="none" stroke="midnightblue" d="M5639.73,-145.69C5412.96,-139.36 4892.99,-122.62 4717.5,-98 4714.76,-97.62 4711.97,-97.17 4709.16,-96.67"/>
<polygon fill="midnightblue" stroke="midnightblue" points="5639.88,-149.19 5649.97,-145.97 5640.08,-142.19 5639.88,-149.19"/>
</g>
<!-- Node34 -->
<g id="node31" class="node">
<title>Node34</title>
<g id="a_node31"><a xlink:href="../../df/dde/vellipticalarc__p_8h.html" target="_top" xlink:title=" ">
<polygon fill="white" stroke="black" points="4727,-67.5 4727,-97.5 4834,-97.5 4834,-67.5 4727,-67.5"/>
<text text-anchor="start" x="4735" y="-85.5" font-family="Helvetica,sans-Serif" font-size="10.00">src/libs/vgeometry</text>
<text text-anchor="middle" x="4780.5" y="-74.5" font-family="Helvetica,sans-Serif" font-size="10.00">/vellipticalarc_p.h</text>
</a>
</g>
</g>
<!-- Node25&#45;&gt;Node34 -->
<g id="edge30" class="edge">
<title>Node25&#45;&gt;Node34</title>
<path fill="none" stroke="midnightblue" d="M5639.77,-147.79C5470.54,-145.48 5132.44,-136.02 4848.5,-98 4843.83,-97.38 4839.01,-96.6 4834.19,-95.75"/>
<polygon fill="midnightblue" stroke="midnightblue" points="5639.88,-151.3 5649.92,-147.93 5639.97,-144.3 5639.88,-151.3"/>
</g>
<!-- Node35 -->
<g id="node32" class="node">
<title>Node35</title>
<g id="a_node32"><a xlink:href="../../d6/dfb/vellipticalarc_8cpp.html" target="_top" xlink:title=" ">
<polygon fill="white" stroke="black" points="4768,-0.5 4768,-30.5 4875,-30.5 4875,-0.5 4768,-0.5"/>
<text text-anchor="start" x="4776" y="-18.5" font-family="Helvetica,sans-Serif" font-size="10.00">src/libs/vgeometry</text>
<text text-anchor="middle" x="4821.5" y="-7.5" font-family="Helvetica,sans-Serif" font-size="10.00">/vellipticalarc.cpp</text>
</a>
</g>
</g>
<!-- Node25&#45;&gt;Node35 -->
<g id="edge32" class="edge">
<title>Node25&#45;&gt;Node35</title>
<path fill="none" stroke="midnightblue" d="M5639.46,-147.3C5421.98,-144.16 4946.53,-133.29 4881.5,-98 4854.17,-83.17 4835.95,-49.88 4827.31,-30.76"/>
<polygon fill="midnightblue" stroke="midnightblue" points="5639.57,-150.81 5649.62,-147.45 5639.67,-143.81 5639.57,-150.81"/>
</g>
<!-- Node36 -->
<g id="node33" class="node">
<title>Node36</title>
<g id="a_node33"><a xlink:href="../../d1/d76/vspline__p_8h.html" target="_top" xlink:title=" ">
<polygon fill="white" stroke="red" points="4891,-67.5 4891,-97.5 4998,-97.5 4998,-67.5 4891,-67.5"/>
<text text-anchor="start" x="4899" y="-85.5" font-family="Helvetica,sans-Serif" font-size="10.00">src/libs/vgeometry</text>
<text text-anchor="middle" x="4944.5" y="-74.5" font-family="Helvetica,sans-Serif" font-size="10.00">/vspline_p.h</text>
</a>
</g>
</g>
<!-- Node25&#45;&gt;Node36 -->
<g id="edge33" class="edge">
<title>Node25&#45;&gt;Node36</title>
<path fill="none" stroke="midnightblue" d="M5639.5,-146.47C5494.88,-142.53 5230.63,-131.08 5007.5,-98 5004.39,-97.54 5001.21,-97.01 4998.01,-96.42"/>
<polygon fill="midnightblue" stroke="midnightblue" points="5639.62,-149.97 5649.71,-146.74 5639.8,-142.98 5639.62,-149.97"/>
</g>
<!-- Node38 -->
<g id="node34" class="node">
<title>Node38</title>
<g id="a_node34"><a xlink:href="../../d9/d15/vabstractpiece_8cpp.html" target="_top" xlink:title=" ">
<polygon fill="white" stroke="black" points="5016.5,-73 5016.5,-92 5202.5,-92 5202.5,-73 5016.5,-73"/>
<text text-anchor="middle" x="5109.5" y="-80" font-family="Helvetica,sans-Serif" font-size="10.00">src/libs/vlayout/vabstractpiece.cpp</text>
</a>
</g>
</g>
<!-- Node25&#45;&gt;Node38 -->
<g id="edge34" class="edge">
<title>Node25&#45;&gt;Node38</title>
<path fill="none" stroke="midnightblue" d="M5639.87,-139.93C5531.34,-130.93 5359.06,-115.64 5210.5,-98 5195.81,-96.26 5179.96,-94.11 5165.27,-92"/>
<polygon fill="midnightblue" stroke="midnightblue" points="5639.59,-143.42 5649.85,-140.76 5640.17,-136.45 5639.59,-143.42"/>
</g>
<!-- Node39 -->
<g id="node35" class="node">
<title>Node39</title>
<g id="a_node35"><a xlink:href="../../dd/d70/vlayoutpiece_8cpp.html" target="_top" xlink:title=" ">
<polygon fill="white" stroke="black" points="5220,-73 5220,-92 5397,-92 5397,-73 5220,-73"/>
<text text-anchor="middle" x="5308.5" y="-80" font-family="Helvetica,sans-Serif" font-size="10.00">src/libs/vlayout/vlayoutpiece.cpp</text>
</a>
</g>
</g>
<!-- Node25&#45;&gt;Node39 -->
<g id="edge35" class="edge">
<title>Node25&#45;&gt;Node39</title>
<path fill="none" stroke="midnightblue" d="M5679.74,-138.47C5593.76,-125.74 5446.96,-104 5366.12,-92.03"/>
<polygon fill="midnightblue" stroke="midnightblue" points="5679.25,-141.93 5689.66,-139.94 5680.28,-135.01 5679.25,-141.93"/>
</g>
<!-- Node40 -->
<g id="node36" class="node">
<title>Node40</title>
<g id="a_node36"><a xlink:href="../../d8/d70/vtextmanager_8cpp.html" target="_top" xlink:title=" ">
<polygon fill="white" stroke="black" points="5415.5,-73 5415.5,-92 5597.5,-92 5597.5,-73 5415.5,-73"/>
<text text-anchor="middle" x="5506.5" y="-80" font-family="Helvetica,sans-Serif" font-size="10.00">src/libs/vlayout/vtextmanager.cpp</text>
</a>
</g>
</g>
<!-- Node25&#45;&gt;Node40 -->
<g id="edge36" class="edge">
<title>Node25&#45;&gt;Node40</title>
<path fill="none" stroke="midnightblue" d="M5705.8,-137.25C5658.16,-124.41 5581.27,-103.67 5538.25,-92.06"/>
<polygon fill="midnightblue" stroke="midnightblue" points="5704.93,-140.64 5715.5,-139.87 5706.75,-133.89 5704.93,-140.64"/>
</g>
<!-- Node41 -->
<g id="node37" class="node">
<title>Node41</title>
<g id="a_node37"><a xlink:href="../../d6/d0b/def_8cpp.html" target="_top" xlink:title=" ">
<polygon fill="white" stroke="black" points="5615.5,-73 5615.5,-92 5737.5,-92 5737.5,-73 5615.5,-73"/>
<text text-anchor="middle" x="5676.5" y="-80" font-family="Helvetica,sans-Serif" font-size="10.00">src/libs/vmisc/def.cpp</text>
</a>
</g>
</g>
<!-- Node25&#45;&gt;Node41 -->
<g id="edge37" class="edge">
<title>Node25&#45;&gt;Node41</title>
<path fill="none" stroke="midnightblue" d="M5730.41,-132.86C5716.45,-120.08 5697.24,-102.49 5685.92,-92.13"/>
<polygon fill="midnightblue" stroke="midnightblue" points="5728.19,-135.56 5737.92,-139.73 5732.91,-130.4 5728.19,-135.56"/>
</g>
<!-- Node42 -->
<g id="node38" class="node">
<title>Node42</title>
<g id="a_node38"><a xlink:href="../../db/d65/dialogexporttocsv_8cpp.html" target="_top" xlink:title=" ">
<polygon fill="white" stroke="black" points="5756,-67.5 5756,-97.5 5883,-97.5 5883,-67.5 5756,-67.5"/>
<text text-anchor="start" x="5764" y="-85.5" font-family="Helvetica,sans-Serif" font-size="10.00">src/libs/vmisc/dialogs</text>
<text text-anchor="middle" x="5819.5" y="-74.5" font-family="Helvetica,sans-Serif" font-size="10.00">/dialogexporttocsv.cpp</text>
</a>
</g>
</g>
<!-- Node25&#45;&gt;Node42 -->
<g id="edge38" class="edge">
<title>Node25&#45;&gt;Node42</title>
<path fill="none" stroke="midnightblue" d="M5764.75,-132.93C5776.66,-122.18 5792.36,-108 5803.89,-97.59"/>
<polygon fill="midnightblue" stroke="midnightblue" points="5762.29,-130.43 5757.21,-139.73 5766.98,-135.63 5762.29,-130.43"/>
</g>
<!-- Node43 -->
<g id="node39" class="node">
<title>Node43</title>
<g id="a_node39"><a xlink:href="../../d0/df6/vabstractapplication_8cpp.html" target="_top" xlink:title=" ">
<polygon fill="white" stroke="black" points="5901.5,-73 5901.5,-92 6107.5,-92 6107.5,-73 5901.5,-73"/>
<text text-anchor="middle" x="6004.5" y="-80" font-family="Helvetica,sans-Serif" font-size="10.00">src/libs/vmisc/vabstractapplication.cpp</text>
</a>
</g>
</g>
<!-- Node25&#45;&gt;Node43 -->
<g id="edge39" class="edge">
<title>Node25&#45;&gt;Node43</title>
<path fill="none" stroke="midnightblue" d="M5791.37,-137.4C5842.09,-124.58 5924.49,-103.74 5970.56,-92.08"/>
<polygon fill="midnightblue" stroke="midnightblue" points="5790.2,-134.09 5781.36,-139.94 5791.92,-140.88 5790.2,-134.09"/>
</g>
<!-- Node44 -->
<g id="node40" class="node">
<title>Node44</title>
<g id="a_node40"><a xlink:href="../../d4/d4f/pmsystems_8cpp.html" target="_top" xlink:title=" ">
<polygon fill="white" stroke="black" points="6126,-67.5 6126,-97.5 6233,-97.5 6233,-67.5 6126,-67.5"/>
<text text-anchor="start" x="6134" y="-85.5" font-family="Helvetica,sans-Serif" font-size="10.00">src/libs/vpatterndb</text>
<text text-anchor="middle" x="6179.5" y="-74.5" font-family="Helvetica,sans-Serif" font-size="10.00">/pmsystems.cpp</text>
</a>
</g>
</g>
<!-- Node25&#45;&gt;Node44 -->
<g id="edge40" class="edge">
<title>Node25&#45;&gt;Node44</title>
<path fill="none" stroke="midnightblue" d="M5822.1,-138.66C5921.52,-125.48 6088.25,-103.17 6116.5,-98 6119.59,-97.43 6122.76,-96.82 6125.95,-96.17"/>
<polygon fill="midnightblue" stroke="midnightblue" points="5821.56,-135.2 5812.1,-139.98 5822.48,-142.14 5821.56,-135.2"/>
</g>
<!-- Node45 -->
<g id="node41" class="node">
<title>Node45</title>
<g id="a_node41"><a xlink:href="../../db/d11/vformula_8cpp.html" target="_top" xlink:title=" ">
<polygon fill="white" stroke="black" points="6251,-67.5 6251,-97.5 6358,-97.5 6358,-67.5 6251,-67.5"/>
<text text-anchor="start" x="6259" y="-85.5" font-family="Helvetica,sans-Serif" font-size="10.00">src/libs/vpatterndb</text>
<text text-anchor="middle" x="6304.5" y="-74.5" font-family="Helvetica,sans-Serif" font-size="10.00">/vformula.cpp</text>
</a>
</g>
</g>
<!-- Node25&#45;&gt;Node45 -->
<g id="edge41" class="edge">
<title>Node25&#45;&gt;Node45</title>
<path fill="none" stroke="midnightblue" d="M5819.88,-138.66C5832.73,-137.02 5846,-135.4 5858.5,-134 6028.4,-114.92 6072.71,-125.23 6241.5,-98 6244.6,-97.5 6247.78,-96.93 6250.98,-96.33"/>
<polygon fill="midnightblue" stroke="midnightblue" points="5819.15,-135.23 5809.68,-139.97 5820.05,-142.17 5819.15,-135.23"/>
</g>
<!-- Node46 -->
<g id="node42" class="node">
<title>Node46</title>
<g id="a_node42"><a xlink:href="../../df/d7a/vpiece_8cpp.html" target="_top" xlink:title=" ">
<polygon fill="white" stroke="black" points="6376,-67.5 6376,-97.5 6483,-97.5 6483,-67.5 6376,-67.5"/>
<text text-anchor="start" x="6384" y="-85.5" font-family="Helvetica,sans-Serif" font-size="10.00">src/libs/vpatterndb</text>
<text text-anchor="middle" x="6429.5" y="-74.5" font-family="Helvetica,sans-Serif" font-size="10.00">/vpiece.cpp</text>
</a>
</g>
</g>
<!-- Node25&#45;&gt;Node46 -->
<g id="edge42" class="edge">
<title>Node25&#45;&gt;Node46</title>
<path fill="none" stroke="midnightblue" d="M5817.81,-138.68C5831.3,-136.97 5845.33,-135.33 5858.5,-134 6083.71,-111.33 6142.65,-131.48 6366.5,-98 6369.61,-97.54 6372.79,-97 6375.99,-96.41"/>
<polygon fill="midnightblue" stroke="midnightblue" points="5817.1,-135.24 5807.62,-139.99 5817.99,-142.18 5817.1,-135.24"/>
</g>
<!-- Node47 -->
<g id="node43" class="node">
<title>Node47</title>
<g id="a_node43"><a xlink:href="../../df/dba/vpiecenode__p_8h.html" target="_top" xlink:title=" ">
<polygon fill="white" stroke="red" points="6501,-67.5 6501,-97.5 6608,-97.5 6608,-67.5 6501,-67.5"/>
<text text-anchor="start" x="6509" y="-85.5" font-family="Helvetica,sans-Serif" font-size="10.00">src/libs/vpatterndb</text>
<text text-anchor="middle" x="6554.5" y="-74.5" font-family="Helvetica,sans-Serif" font-size="10.00">/vpiecenode_p.h</text>
</a>
</g>
</g>
<!-- Node25&#45;&gt;Node47 -->
<g id="edge43" class="edge">
<title>Node25&#45;&gt;Node47</title>
<path fill="none" stroke="midnightblue" d="M5816.45,-138.7C5830.35,-136.95 5844.88,-135.28 5858.5,-134 6139.06,-107.73 6212.53,-137.74 6491.5,-98 6494.61,-97.56 6497.8,-97.04 6501,-96.46"/>
<polygon fill="midnightblue" stroke="midnightblue" points="5815.93,-135.24 5806.46,-139.98 5816.82,-142.18 5815.93,-135.24"/>
</g>
<!-- Node49 -->
<g id="node44" class="node">
<title>Node49</title>
<g id="a_node44"><a xlink:href="../../d6/d46/vcontainer_8cpp.html" target="_top" xlink:title=" ">
<polygon fill="white" stroke="black" points="6626,-67.5 6626,-97.5 6733,-97.5 6733,-67.5 6626,-67.5"/>
<text text-anchor="start" x="6634" y="-85.5" font-family="Helvetica,sans-Serif" font-size="10.00">src/libs/vpatterndb</text>
<text text-anchor="middle" x="6679.5" y="-74.5" font-family="Helvetica,sans-Serif" font-size="10.00">/vcontainer.cpp</text>
</a>
</g>
</g>
<!-- Node25&#45;&gt;Node49 -->
<g id="edge44" class="edge">
<title>Node25&#45;&gt;Node49</title>
<path fill="none" stroke="midnightblue" d="M5815.72,-138.69C5829.84,-136.91 5844.64,-135.23 5858.5,-134 6194.44,-104.13 6282.38,-144.01 6616.5,-98 6619.5,-97.59 6622.57,-97.1 6625.66,-96.56"/>
<polygon fill="midnightblue" stroke="midnightblue" points="5815.06,-135.24 5805.59,-139.99 5815.95,-142.19 5815.06,-135.24"/>
</g>
<!-- Node50 -->
<g id="node45" class="node">
<title>Node50</title>
<g id="a_node45"><a xlink:href="../../de/d3e/vtranslatevars_8cpp.html" target="_top" xlink:title=" ">
<polygon fill="white" stroke="black" points="6751.5,-67.5 6751.5,-97.5 6861.5,-97.5 6861.5,-67.5 6751.5,-67.5"/>
<text text-anchor="start" x="6759.5" y="-85.5" font-family="Helvetica,sans-Serif" font-size="10.00">src/libs/vpatterndb</text>
<text text-anchor="middle" x="6806.5" y="-74.5" font-family="Helvetica,sans-Serif" font-size="10.00">/vtranslatevars.cpp</text>
</a>
</g>
</g>
<!-- Node25&#45;&gt;Node50 -->
<g id="edge45" class="edge">
<title>Node25&#45;&gt;Node50</title>
<path fill="none" stroke="midnightblue" d="M5815.24,-138.68C5829.5,-136.88 5844.48,-135.2 5858.5,-134 6249.84,-100.53 6352.05,-148.96 6741.5,-98 6744.71,-97.58 6748,-97.08 6751.3,-96.52"/>
<polygon fill="midnightblue" stroke="midnightblue" points="5814.48,-135.24 5805.01,-140 5815.37,-142.19 5814.48,-135.24"/>
</g>
<!-- Node51 -->
<g id="node46" class="node">
<title>Node51</title>
<g id="a_node46"><a xlink:href="../../df/d40/export__format__combobox_8cpp.html" target="_top" xlink:title=" ">
<polygon fill="white" stroke="black" points="6880,-67.5 6880,-97.5 7013,-97.5 7013,-67.5 6880,-67.5"/>
<text text-anchor="start" x="6888" y="-85.5" font-family="Helvetica,sans-Serif" font-size="10.00">src/libs/vwidgets/export</text>
<text text-anchor="middle" x="6946.5" y="-74.5" font-family="Helvetica,sans-Serif" font-size="10.00">_format_combobox.cpp</text>
</a>
</g>
</g>
<!-- Node25&#45;&gt;Node51 -->
<g id="edge46" class="edge">
<title>Node25&#45;&gt;Node51</title>
<path fill="none" stroke="midnightblue" d="M5815,-138.65C5829.33,-136.85 5844.4,-135.17 5858.5,-134 6307.02,-96.81 6423.26,-148.32 6870.5,-98 6873.57,-97.65 6876.7,-97.25 6879.86,-96.81"/>
<polygon fill="midnightblue" stroke="midnightblue" points="5814.18,-135.23 5804.71,-139.98 5815.08,-142.17 5814.18,-135.23"/>
</g>
<!-- Node52 -->
<g id="node47" class="node">
<title>Node52</title>
<g id="a_node47"><a xlink:href="../../d3/d4f/mouse__coordinates_8cpp.html" target="_top" xlink:title=" ">
<polygon fill="white" stroke="black" points="7031.5,-67.5 7031.5,-97.5 7165.5,-97.5 7165.5,-67.5 7031.5,-67.5"/>
<text text-anchor="start" x="7039.5" y="-85.5" font-family="Helvetica,sans-Serif" font-size="10.00">src/libs/vwidgets/mouse</text>
<text text-anchor="middle" x="7098.5" y="-74.5" font-family="Helvetica,sans-Serif" font-size="10.00">_coordinates.cpp</text>
</a>
</g>
</g>
<!-- Node25&#45;&gt;Node52 -->
<g id="edge47" class="edge">
<title>Node25&#45;&gt;Node52</title>
<path fill="none" stroke="midnightblue" d="M5814.76,-138.63C5829.16,-136.82 5844.31,-135.14 5858.5,-134 6373.97,-92.46 6507.41,-154.02 7021.5,-98 7024.75,-97.65 7028.06,-97.23 7031.4,-96.77"/>
<polygon fill="midnightblue" stroke="midnightblue" points="5813.89,-135.21 5804.42,-139.96 5814.79,-142.15 5813.89,-135.21"/>
</g>
<!-- Node53 -->
<g id="node48" class="node">
<title>Node53</title>
<g id="a_node48"><a xlink:href="../../d2/d28/page__format__combobox_8cpp.html" target="_top" xlink:title=" ">
<polygon fill="white" stroke="black" points="7184,-67.5 7184,-97.5 7315,-97.5 7315,-67.5 7184,-67.5"/>
<text text-anchor="start" x="7192" y="-85.5" font-family="Helvetica,sans-Serif" font-size="10.00">src/libs/vwidgets/page</text>
<text text-anchor="middle" x="7249.5" y="-74.5" font-family="Helvetica,sans-Serif" font-size="10.00">_format_combobox.cpp</text>
</a>
</g>
</g>
<!-- Node25&#45;&gt;Node53 -->
<g id="edge48" class="edge">
<title>Node25&#45;&gt;Node53</title>
<path fill="none" stroke="midnightblue" d="M5814.1,-138.67C5828.7,-136.83 5844.1,-135.13 5858.5,-134 6441.8,-88.05 6592.88,-161.75 7174.5,-98 7177.53,-97.67 7180.62,-97.28 7183.74,-96.84"/>
<polygon fill="midnightblue" stroke="midnightblue" points="5813.6,-135.21 5804.14,-139.96 5814.5,-142.15 5813.6,-135.21"/>
</g>
<!-- Node25&#45;&gt;Node60 -->
<g id="edge49" class="edge">
<title>Node25&#45;&gt;Node60</title>
<path fill="none" stroke="midnightblue" d="M5813.85,-138.67C5828.53,-136.82 5844.02,-135.12 5858.5,-134 6507.87,-83.75 6673.95,-145.78 7323.5,-98 7342.44,-96.61 7363,-94.34 7381.58,-92.01"/>
<polygon fill="midnightblue" stroke="midnightblue" points="5813.32,-135.21 5803.85,-139.97 5814.22,-142.15 5813.32,-135.21"/>
</g>
<!-- Node34&#45;&gt;Node35 -->
<g id="edge31" class="edge">
<title>Node34&#45;&gt;Node35</title>
<path fill="none" stroke="midnightblue" d="M4794.78,-58.87C4800.71,-49.46 4807.41,-38.83 4812.62,-30.58"/>
<polygon fill="midnightblue" stroke="midnightblue" points="4791.77,-57.07 4789.4,-67.4 4797.69,-60.81 4791.77,-57.07"/>
</g>
</g>
</svg>
