<?xml version="1.0" encoding="UTF-8" standalone="no"?>
<!DOCTYPE svg PUBLIC "-//W3C//DTD SVG 1.1//EN"
 "http://www.w3.org/Graphics/SVG/1.1/DTD/svg11.dtd">
<!-- Generated by graphviz version 2.43.0 (0)
 -->
<!-- Title: src/libs/vmisc/vsettings.h Pages: 1 -->
<svg width="7560pt" height="229pt"
 viewBox="0.00 0.00 7559.50 229.00" xmlns="http://www.w3.org/2000/svg" xmlns:xlink="http://www.w3.org/1999/xlink">
<g id="graph0" class="graph" transform="scale(1 1) rotate(0) translate(4 225)">
<title>src/libs/vmisc/vsettings.h</title>
<polygon fill="white" stroke="transparent" points="-4,4 -4,-225 7555.5,-225 7555.5,4 -4,4"/>
<!-- Node1 -->
<g id="node1" class="node">
<title>Node1</title>
<g id="a_node1"><a xlink:title=" ">
<polygon fill="#bfbfbf" stroke="black" points="5741.5,-201.5 5741.5,-220.5 5881.5,-220.5 5881.5,-201.5 5741.5,-201.5"/>
<text text-anchor="middle" x="5811.5" y="-208.5" font-family="Helvetica,sans-Serif" font-size="10.00">src/libs/vmisc/vsettings.h</text>
</a>
</g>
</g>
<!-- Node2 -->
<g id="node2" class="node">
<title>Node2</title>
<g id="a_node2"><a xlink:href="../../d9/d02/vapplication_8h.html" target="_top" xlink:title=" ">
<polygon fill="white" stroke="black" points="2082,-134.5 2082,-164.5 2209,-164.5 2209,-134.5 2082,-134.5"/>
<text text-anchor="start" x="2090" y="-152.5" font-family="Helvetica,sans-Serif" font-size="10.00">src/app/seamly2d/core</text>
<text text-anchor="middle" x="2145.5" y="-141.5" font-family="Helvetica,sans-Serif" font-size="10.00">/vapplication.h</text>
</a>
</g>
</g>
<!-- Node1&#45;&gt;Node2 -->
<g id="edge1" class="edge">
<title>Node1&#45;&gt;Node2</title>
<path fill="none" stroke="midnightblue" d="M5730.94,-208.69C5239.32,-200.71 2649.79,-158.68 2209.24,-151.53"/>
<polygon fill="midnightblue" stroke="midnightblue" points="5731.08,-212.2 5741.14,-208.86 5731.19,-205.2 5731.08,-212.2"/>
</g>
<!-- Node25 -->
<g id="node25" class="node">
<title>Node25</title>
<g id="a_node25"><a xlink:href="../../d5/d74/vabstractapplication_8h.html" target="_top" xlink:title=" ">
<polygon fill="white" stroke="red" points="5652,-140 5652,-159 5847,-159 5847,-140 5652,-140"/>
<text text-anchor="middle" x="5749.5" y="-147" font-family="Helvetica,sans-Serif" font-size="10.00">src/libs/vmisc/vabstractapplication.h</text>
</a>
</g>
</g>
<!-- Node1&#45;&gt;Node25 -->
<g id="edge24" class="edge">
<title>Node1&#45;&gt;Node25</title>
<path fill="none" stroke="midnightblue" d="M5795.17,-194.32C5783.39,-183.02 5767.94,-168.19 5758.37,-159.01"/>
<polygon fill="midnightblue" stroke="midnightblue" points="5792.98,-197.08 5802.62,-201.48 5797.83,-192.03 5792.98,-197.08"/>
</g>
<!-- Node60 -->
<g id="node49" class="node">
<title>Node60</title>
<g id="a_node49"><a xlink:href="../../d2/d31/vmaingraphicsview_8cpp.html" target="_top" xlink:title=" ">
<polygon fill="white" stroke="black" points="7335.5,-73 7335.5,-92 7551.5,-92 7551.5,-73 7335.5,-73"/>
<text text-anchor="middle" x="7443.5" y="-80" font-family="Helvetica,sans-Serif" font-size="10.00">src/libs/vwidgets/vmaingraphicsview.cpp</text>
</a>
</g>
</g>
<!-- Node1&#45;&gt;Node60 -->
<g id="edge51" class="edge">
<title>Node1&#45;&gt;Node60</title>
<path fill="none" stroke="midnightblue" d="M5827.1,-194.4C5848.56,-173.13 5885.45,-137.27 5893.5,-134 5967.22,-104.02 7246.14,-103.86 7325.5,-98 7344.44,-96.6 7365,-94.34 7383.58,-92.01"/>
<polygon fill="midnightblue" stroke="midnightblue" points="5824.6,-191.96 5819.98,-201.49 5829.54,-196.92 5824.6,-191.96"/>
</g>
<!-- Node66 -->
<g id="node50" class="node">
<title>Node66</title>
<g id="a_node50"><a xlink:href="../../db/d28/vsettings_8cpp.html" target="_top" xlink:title=" ">
<polygon fill="white" stroke="black" points="5902.5,-140 5902.5,-159 6054.5,-159 6054.5,-140 5902.5,-140"/>
<text text-anchor="middle" x="5978.5" y="-147" font-family="Helvetica,sans-Serif" font-size="10.00">src/libs/vmisc/vsettings.cpp</text>
</a>
</g>
</g>
<!-- Node1&#45;&gt;Node66 -->
<g id="edge50" class="edge">
<title>Node1&#45;&gt;Node66</title>
<path fill="none" stroke="midnightblue" d="M5844.95,-198.08C5877.41,-186.52 5925.87,-169.25 5954.62,-159.01"/>
<polygon fill="midnightblue" stroke="midnightblue" points="5843.67,-194.82 5835.43,-201.48 5846.02,-201.42 5843.67,-194.82"/>
</g>
<!-- Node3 -->
<g id="node3" class="node">
<title>Node3</title>
<g id="a_node3"><a xlink:href="../../d3/dd8/vapplication_8cpp.html" target="_top" xlink:title=" ">
<polygon fill="white" stroke="black" points="0,-67.5 0,-97.5 127,-97.5 127,-67.5 0,-67.5"/>
<text text-anchor="start" x="8" y="-85.5" font-family="Helvetica,sans-Serif" font-size="10.00">src/app/seamly2d/core</text>
<text text-anchor="middle" x="63.5" y="-74.5" font-family="Helvetica,sans-Serif" font-size="10.00">/vapplication.cpp</text>
</a>
</g>
</g>
<!-- Node2&#45;&gt;Node3 -->
<g id="edge2" class="edge">
<title>Node2&#45;&gt;Node3</title>
<path fill="none" stroke="midnightblue" d="M2071.53,-148.33C1756.15,-147.37 522.44,-140.86 136.5,-98 133.42,-97.66 130.27,-97.25 127.1,-96.8"/>
<polygon fill="midnightblue" stroke="midnightblue" points="2071.9,-151.84 2081.91,-148.37 2071.93,-144.84 2071.9,-151.84"/>
</g>
<!-- Node4 -->
<g id="node4" class="node">
<title>Node4</title>
<g id="a_node4"><a xlink:href="../../dd/db4/abstractlayout__dialog_8cpp.html" target="_top" xlink:title=" ">
<polygon fill="white" stroke="black" points="145.5,-67.5 145.5,-97.5 291.5,-97.5 291.5,-67.5 145.5,-67.5"/>
<text text-anchor="start" x="153.5" y="-85.5" font-family="Helvetica,sans-Serif" font-size="10.00">src/app/seamly2d/dialogs</text>
<text text-anchor="middle" x="218.5" y="-74.5" font-family="Helvetica,sans-Serif" font-size="10.00">/abstractlayout_dialog.cpp</text>
</a>
</g>
</g>
<!-- Node2&#45;&gt;Node4 -->
<g id="edge3" class="edge">
<title>Node2&#45;&gt;Node4</title>
<path fill="none" stroke="midnightblue" d="M2071.24,-147.93C1771.86,-145.42 652.77,-133.77 300.5,-98 297.62,-97.71 294.7,-97.37 291.74,-97"/>
<polygon fill="midnightblue" stroke="midnightblue" points="2071.51,-151.43 2081.54,-148.02 2071.57,-144.43 2071.51,-151.43"/>
</g>
<!-- Node5 -->
<g id="node5" class="node">
<title>Node5</title>
<g id="a_node5"><a xlink:href="../../d7/dfa/calculator__dialog_8cpp.html" target="_top" xlink:title=" ">
<polygon fill="white" stroke="black" points="310,-67.5 310,-97.5 451,-97.5 451,-67.5 310,-67.5"/>
<text text-anchor="start" x="318" y="-85.5" font-family="Helvetica,sans-Serif" font-size="10.00">src/app/seamly2d/dialogs</text>
<text text-anchor="middle" x="380.5" y="-74.5" font-family="Helvetica,sans-Serif" font-size="10.00">/calculator_dialog.cpp</text>
</a>
</g>
</g>
<!-- Node2&#45;&gt;Node5 -->
<g id="edge4" class="edge">
<title>Node2&#45;&gt;Node5</title>
<path fill="none" stroke="midnightblue" d="M2071.61,-147.78C1789.34,-144.79 778.97,-131.91 459.5,-98 456.73,-97.71 453.9,-97.37 451.06,-97"/>
<polygon fill="midnightblue" stroke="midnightblue" points="2071.7,-151.28 2081.74,-147.88 2071.77,-144.28 2071.7,-151.28"/>
</g>
<!-- Node6 -->
<g id="node6" class="node">
<title>Node6</title>
<g id="a_node6"><a xlink:href="../../d2/d2d/preferencesconfigurationpage_8cpp.html" target="_top" xlink:title=" ">
<polygon fill="white" stroke="black" points="469,-67.5 469,-97.5 716,-97.5 716,-67.5 469,-67.5"/>
<text text-anchor="start" x="477" y="-85.5" font-family="Helvetica,sans-Serif" font-size="10.00">src/app/seamly2d/dialogs</text>
<text text-anchor="middle" x="592.5" y="-74.5" font-family="Helvetica,sans-Serif" font-size="10.00">/configpages/preferencesconfigurationpage.cpp</text>
</a>
</g>
</g>
<!-- Node2&#45;&gt;Node6 -->
<g id="edge5" class="edge">
<title>Node2&#45;&gt;Node6</title>
<path fill="none" stroke="midnightblue" d="M2071.71,-147.78C1861.23,-145.3 1239.92,-135.14 725.5,-98 722.37,-97.77 719.2,-97.53 716.01,-97.28"/>
<polygon fill="midnightblue" stroke="midnightblue" points="2071.68,-151.28 2081.72,-147.89 2071.76,-144.28 2071.68,-151.28"/>
</g>
<!-- Node7 -->
<g id="node7" class="node">
<title>Node7</title>
<g id="a_node7"><a xlink:href="../../d9/d70/preferencesgraphicsviewpage_8cpp.html" target="_top" xlink:title=" ">
<polygon fill="white" stroke="black" points="734.5,-67.5 734.5,-97.5 982.5,-97.5 982.5,-67.5 734.5,-67.5"/>
<text text-anchor="start" x="742.5" y="-85.5" font-family="Helvetica,sans-Serif" font-size="10.00">src/app/seamly2d/dialogs</text>
<text text-anchor="middle" x="858.5" y="-74.5" font-family="Helvetica,sans-Serif" font-size="10.00">/configpages/preferencesgraphicsviewpage.cpp</text>
</a>
</g>
</g>
<!-- Node2&#45;&gt;Node7 -->
<g id="edge6" class="edge">
<title>Node2&#45;&gt;Node7</title>
<path fill="none" stroke="midnightblue" d="M2071.88,-146.93C1888.92,-142.68 1398.96,-129.09 991.5,-98 988.61,-97.78 985.68,-97.55 982.72,-97.3"/>
<polygon fill="midnightblue" stroke="midnightblue" points="2071.85,-150.43 2081.93,-147.17 2072.01,-143.44 2071.85,-150.43"/>
</g>
<!-- Node8 -->
<g id="node8" class="node">
<title>Node8</title>
<g id="a_node8"><a xlink:href="../../dc/d20/preferencespathpage_8cpp.html" target="_top" xlink:title=" ">
<polygon fill="white" stroke="black" points="1001,-67.5 1001,-97.5 1206,-97.5 1206,-67.5 1001,-67.5"/>
<text text-anchor="start" x="1009" y="-85.5" font-family="Helvetica,sans-Serif" font-size="10.00">src/app/seamly2d/dialogs</text>
<text text-anchor="middle" x="1103.5" y="-74.5" font-family="Helvetica,sans-Serif" font-size="10.00">/configpages/preferencespathpage.cpp</text>
</a>
</g>
</g>
<!-- Node2&#45;&gt;Node8 -->
<g id="edge7" class="edge">
<title>Node2&#45;&gt;Node8</title>
<path fill="none" stroke="midnightblue" d="M2071.83,-146.4C1914.26,-141.49 1532.9,-127.39 1214.5,-98 1211.79,-97.75 1209.05,-97.48 1206.28,-97.2"/>
<polygon fill="midnightblue" stroke="midnightblue" points="2071.78,-149.9 2081.88,-146.71 2072,-142.9 2071.78,-149.9"/>
</g>
<!-- Node9 -->
<g id="node9" class="node">
<title>Node9</title>
<g id="a_node9"><a xlink:href="../../dd/dc2/decimalchart__dialog_8cpp.html" target="_top" xlink:title=" ">
<polygon fill="white" stroke="black" points="1224,-67.5 1224,-97.5 1365,-97.5 1365,-67.5 1224,-67.5"/>
<text text-anchor="start" x="1232" y="-85.5" font-family="Helvetica,sans-Serif" font-size="10.00">src/app/seamly2d/dialogs</text>
<text text-anchor="middle" x="1294.5" y="-74.5" font-family="Helvetica,sans-Serif" font-size="10.00">/decimalchart_dialog.cpp</text>
</a>
</g>
</g>
<!-- Node2&#45;&gt;Node9 -->
<g id="edge8" class="edge">
<title>Node2&#45;&gt;Node9</title>
<path fill="none" stroke="midnightblue" d="M2071.8,-146.47C1934.28,-142.05 1629.4,-129.35 1374.5,-98 1371.42,-97.62 1368.27,-97.2 1365.1,-96.75"/>
<polygon fill="midnightblue" stroke="midnightblue" points="2071.7,-149.96 2081.81,-146.78 2071.92,-142.97 2071.7,-149.96"/>
</g>
<!-- Node10 -->
<g id="node10" class="node">
<title>Node10</title>
<g id="a_node10"><a xlink:href="../../d2/d00/vtooloptionspropertybrowser_8cpp.html" target="_top" xlink:title=" ">
<polygon fill="white" stroke="black" points="1383.5,-67.5 1383.5,-97.5 1563.5,-97.5 1563.5,-67.5 1383.5,-67.5"/>
<text text-anchor="start" x="1391.5" y="-85.5" font-family="Helvetica,sans-Serif" font-size="10.00">src/app/seamly2d/core</text>
<text text-anchor="middle" x="1473.5" y="-74.5" font-family="Helvetica,sans-Serif" font-size="10.00">/vtooloptionspropertybrowser.cpp</text>
</a>
</g>
</g>
<!-- Node2&#45;&gt;Node10 -->
<g id="edge9" class="edge">
<title>Node2&#45;&gt;Node10</title>
<path fill="none" stroke="midnightblue" d="M2071.53,-143.35C1962.23,-135.42 1751.22,-118.95 1572.5,-98 1569.57,-97.66 1566.59,-97.29 1563.58,-96.92"/>
<polygon fill="midnightblue" stroke="midnightblue" points="2071.56,-146.86 2081.78,-144.09 2072.06,-139.88 2071.56,-146.86"/>
</g>
<!-- Node11 -->
<g id="node11" class="node">
<title>Node11</title>
<g id="a_node11"><a xlink:href="../../dd/d64/dialogaboutapp_8cpp.html" target="_top" xlink:title=" ">
<polygon fill="white" stroke="black" points="1582,-67.5 1582,-97.5 1723,-97.5 1723,-67.5 1582,-67.5"/>
<text text-anchor="start" x="1590" y="-85.5" font-family="Helvetica,sans-Serif" font-size="10.00">src/app/seamly2d/dialogs</text>
<text text-anchor="middle" x="1652.5" y="-74.5" font-family="Helvetica,sans-Serif" font-size="10.00">/dialogaboutapp.cpp</text>
</a>
</g>
</g>
<!-- Node2&#45;&gt;Node11 -->
<g id="edge10" class="edge">
<title>Node2&#45;&gt;Node11</title>
<path fill="none" stroke="midnightblue" d="M2071.78,-140.86C1988.84,-131.95 1850.2,-116.12 1731.5,-98 1728.74,-97.58 1725.93,-97.14 1723.1,-96.68"/>
<polygon fill="midnightblue" stroke="midnightblue" points="2071.54,-144.36 2081.86,-141.94 2072.29,-137.4 2071.54,-144.36"/>
</g>
<!-- Node12 -->
<g id="node12" class="node">
<title>Node12</title>
<g id="a_node12"><a xlink:href="../../d6/d89/dialoglayoutprogress_8cpp.html" target="_top" xlink:title=" ">
<polygon fill="white" stroke="black" points="1741,-67.5 1741,-97.5 1884,-97.5 1884,-67.5 1741,-67.5"/>
<text text-anchor="start" x="1749" y="-85.5" font-family="Helvetica,sans-Serif" font-size="10.00">src/app/seamly2d/dialogs</text>
<text text-anchor="middle" x="1812.5" y="-74.5" font-family="Helvetica,sans-Serif" font-size="10.00">/dialoglayoutprogress.cpp</text>
</a>
</g>
</g>
<!-- Node2&#45;&gt;Node12 -->
<g id="edge11" class="edge">
<title>Node2&#45;&gt;Node12</title>
<path fill="none" stroke="midnightblue" d="M2071.85,-134.12C2015.97,-123.22 1939.58,-108.3 1884.18,-97.49"/>
<polygon fill="midnightblue" stroke="midnightblue" points="2071.2,-137.56 2081.69,-136.04 2072.54,-130.69 2071.2,-137.56"/>
</g>
<!-- Node13 -->
<g id="node13" class="node">
<title>Node13</title>
<g id="a_node13"><a xlink:href="../../d5/d18/dialogpatternproperties_8cpp.html" target="_top" xlink:title=" ">
<polygon fill="white" stroke="black" points="1902,-67.5 1902,-97.5 2057,-97.5 2057,-67.5 1902,-67.5"/>
<text text-anchor="start" x="1910" y="-85.5" font-family="Helvetica,sans-Serif" font-size="10.00">src/app/seamly2d/dialogs</text>
<text text-anchor="middle" x="1979.5" y="-74.5" font-family="Helvetica,sans-Serif" font-size="10.00">/dialogpatternproperties.cpp</text>
</a>
</g>
</g>
<!-- Node2&#45;&gt;Node13 -->
<g id="edge12" class="edge">
<title>Node2&#45;&gt;Node13</title>
<path fill="none" stroke="midnightblue" d="M2099.99,-130.68C2073.37,-120.26 2040.23,-107.28 2015.45,-97.58"/>
<polygon fill="midnightblue" stroke="midnightblue" points="2098.89,-134.01 2109.48,-134.4 2101.45,-127.49 2098.89,-134.01"/>
</g>
<!-- Node14 -->
<g id="node14" class="node">
<title>Node14</title>
<g id="a_node14"><a xlink:href="../../d5/dc5/dialogpreferences_8cpp.html" target="_top" xlink:title=" ">
<polygon fill="white" stroke="black" points="2075,-67.5 2075,-97.5 2216,-97.5 2216,-67.5 2075,-67.5"/>
<text text-anchor="start" x="2083" y="-85.5" font-family="Helvetica,sans-Serif" font-size="10.00">src/app/seamly2d/dialogs</text>
<text text-anchor="middle" x="2145.5" y="-74.5" font-family="Helvetica,sans-Serif" font-size="10.00">/dialogpreferences.cpp</text>
</a>
</g>
</g>
<!-- Node2&#45;&gt;Node14 -->
<g id="edge13" class="edge">
<title>Node2&#45;&gt;Node14</title>
<path fill="none" stroke="midnightblue" d="M2145.5,-124.11C2145.5,-115.15 2145.5,-105.32 2145.5,-97.58"/>
<polygon fill="midnightblue" stroke="midnightblue" points="2142,-124.4 2145.5,-134.4 2149,-124.4 2142,-124.4"/>
</g>
<!-- Node15 -->
<g id="node15" class="node">
<title>Node15</title>
<g id="a_node15"><a xlink:href="../../dc/d63/preferencespatternpage_8cpp.html" target="_top" xlink:title=" ">
<polygon fill="white" stroke="black" points="2234.5,-67.5 2234.5,-97.5 2452.5,-97.5 2452.5,-67.5 2234.5,-67.5"/>
<text text-anchor="start" x="2242.5" y="-85.5" font-family="Helvetica,sans-Serif" font-size="10.00">src/app/seamly2d/dialogs</text>
<text text-anchor="middle" x="2343.5" y="-74.5" font-family="Helvetica,sans-Serif" font-size="10.00">/configpages/preferencespatternpage.cpp</text>
</a>
</g>
</g>
<!-- Node2&#45;&gt;Node15 -->
<g id="edge14" class="edge">
<title>Node2&#45;&gt;Node15</title>
<path fill="none" stroke="midnightblue" d="M2198.11,-131.23C2230.14,-120.71 2270.54,-107.45 2300.62,-97.58"/>
<polygon fill="midnightblue" stroke="midnightblue" points="2196.87,-127.95 2188.46,-134.4 2199.06,-134.6 2196.87,-127.95"/>
</g>
<!-- Node16 -->
<g id="node16" class="node">
<title>Node16</title>
<g id="a_node16"><a xlink:href="../../dd/d54/export__layout__dialog_8cpp.html" target="_top" xlink:title=" ">
<polygon fill="white" stroke="black" points="2471,-67.5 2471,-97.5 2614,-97.5 2614,-67.5 2471,-67.5"/>
<text text-anchor="start" x="2479" y="-85.5" font-family="Helvetica,sans-Serif" font-size="10.00">src/app/seamly2d/dialogs</text>
<text text-anchor="middle" x="2542.5" y="-74.5" font-family="Helvetica,sans-Serif" font-size="10.00">/export_layout_dialog.cpp</text>
</a>
</g>
</g>
<!-- Node2&#45;&gt;Node16 -->
<g id="edge15" class="edge">
<title>Node2&#45;&gt;Node16</title>
<path fill="none" stroke="midnightblue" d="M2219.12,-137.13C2283.2,-127.14 2378.57,-112.05 2461.5,-98 2464.6,-97.48 2467.76,-96.93 2470.96,-96.38"/>
<polygon fill="midnightblue" stroke="midnightblue" points="2218.45,-133.69 2209.11,-138.69 2219.53,-140.61 2218.45,-133.69"/>
</g>
<!-- Node17 -->
<g id="node17" class="node">
<title>Node17</title>
<g id="a_node17"><a xlink:href="../../d0/dfa/layoutsettings__dialog_8cpp.html" target="_top" xlink:title=" ">
<polygon fill="white" stroke="black" points="2632,-67.5 2632,-97.5 2777,-97.5 2777,-67.5 2632,-67.5"/>
<text text-anchor="start" x="2640" y="-85.5" font-family="Helvetica,sans-Serif" font-size="10.00">src/app/seamly2d/dialogs</text>
<text text-anchor="middle" x="2704.5" y="-74.5" font-family="Helvetica,sans-Serif" font-size="10.00">/layoutsettings_dialog.cpp</text>
</a>
</g>
</g>
<!-- Node2&#45;&gt;Node17 -->
<g id="edge16" class="edge">
<title>Node2&#45;&gt;Node17</title>
<path fill="none" stroke="midnightblue" d="M2219.29,-142.29C2313.2,-134.02 2480.29,-118.08 2622.5,-98 2625.51,-97.58 2628.57,-97.12 2631.66,-96.65"/>
<polygon fill="midnightblue" stroke="midnightblue" points="2218.98,-138.8 2209.33,-143.16 2219.59,-145.78 2218.98,-138.8"/>
</g>
<!-- Node18 -->
<g id="node18" class="node">
<title>Node18</title>
<g id="a_node18"><a xlink:href="../../db/d5c/groups__widget_8cpp.html" target="_top" xlink:title=" ">
<polygon fill="white" stroke="black" points="2795,-67.5 2795,-97.5 2936,-97.5 2936,-67.5 2795,-67.5"/>
<text text-anchor="start" x="2803" y="-85.5" font-family="Helvetica,sans-Serif" font-size="10.00">src/app/seamly2d/dialogs</text>
<text text-anchor="middle" x="2865.5" y="-74.5" font-family="Helvetica,sans-Serif" font-size="10.00">/groups_widget.cpp</text>
</a>
</g>
</g>
<!-- Node2&#45;&gt;Node18 -->
<g id="edge17" class="edge">
<title>Node2&#45;&gt;Node18</title>
<path fill="none" stroke="midnightblue" d="M2219.43,-145.09C2338.85,-139.03 2581.44,-124.48 2785.5,-98 2788.58,-97.6 2791.72,-97.16 2794.89,-96.7"/>
<polygon fill="midnightblue" stroke="midnightblue" points="2219.12,-141.6 2209.31,-145.59 2219.47,-148.59 2219.12,-141.6"/>
</g>
<!-- Node19 -->
<g id="node19" class="node">
<title>Node19</title>
<g id="a_node19"><a xlink:href="../../dc/d14/app_2seamly2d_2main_8cpp.html" target="_top" xlink:title=" ">
<polygon fill="white" stroke="black" points="2954,-73 2954,-92 3105,-92 3105,-73 2954,-73"/>
<text text-anchor="middle" x="3029.5" y="-80" font-family="Helvetica,sans-Serif" font-size="10.00">src/app/seamly2d/main.cpp</text>
</a>
</g>
</g>
<!-- Node2&#45;&gt;Node19 -->
<g id="edge18" class="edge">
<title>Node2&#45;&gt;Node19</title>
<path fill="none" stroke="midnightblue" d="M2219.41,-146.44C2360.69,-141.93 2678.66,-128.99 2944.5,-98 2957.59,-96.47 2971.72,-94.28 2984.63,-92.07"/>
<polygon fill="midnightblue" stroke="midnightblue" points="2219.03,-142.95 2209.14,-146.77 2219.25,-149.95 2219.03,-142.95"/>
</g>
<!-- Node20 -->
<g id="node20" class="node">
<title>Node20</title>
<g id="a_node20"><a xlink:href="../../d2/df4/show__info__dialog_8cpp.html" target="_top" xlink:title=" ">
<polygon fill="white" stroke="black" points="3123,-67.5 3123,-97.5 3264,-97.5 3264,-67.5 3123,-67.5"/>
<text text-anchor="start" x="3131" y="-85.5" font-family="Helvetica,sans-Serif" font-size="10.00">src/app/seamly2d/dialogs</text>
<text text-anchor="middle" x="3193.5" y="-74.5" font-family="Helvetica,sans-Serif" font-size="10.00">/show_info_dialog.cpp</text>
</a>
</g>
</g>
<!-- Node2&#45;&gt;Node20 -->
<g id="edge19" class="edge">
<title>Node2&#45;&gt;Node20</title>
<path fill="none" stroke="midnightblue" d="M2219.51,-147.84C2381.9,-145.7 2781.46,-136.59 3113.5,-98 3116.58,-97.64 3119.73,-97.24 3122.9,-96.8"/>
<polygon fill="midnightblue" stroke="midnightblue" points="2219.11,-144.35 2209.16,-147.97 2219.2,-151.35 2219.11,-144.35"/>
</g>
<!-- Node21 -->
<g id="node21" class="node">
<title>Node21</title>
<g id="a_node21"><a xlink:href="../../dd/d84/shortcuts__dialog_8cpp.html" target="_top" xlink:title=" ">
<polygon fill="white" stroke="black" points="3282,-67.5 3282,-97.5 3423,-97.5 3423,-67.5 3282,-67.5"/>
<text text-anchor="start" x="3290" y="-85.5" font-family="Helvetica,sans-Serif" font-size="10.00">src/app/seamly2d/dialogs</text>
<text text-anchor="middle" x="3352.5" y="-74.5" font-family="Helvetica,sans-Serif" font-size="10.00">/shortcuts_dialog.cpp</text>
</a>
</g>
</g>
<!-- Node2&#45;&gt;Node21 -->
<g id="edge20" class="edge">
<title>Node2&#45;&gt;Node21</title>
<path fill="none" stroke="midnightblue" d="M2219.46,-148.62C2399.98,-148.16 2877.29,-142.47 3272.5,-98 3275.59,-97.65 3278.73,-97.26 3281.91,-96.83"/>
<polygon fill="midnightblue" stroke="midnightblue" points="2219.27,-145.12 2209.28,-148.64 2219.29,-152.12 2219.27,-145.12"/>
</g>
<!-- Node22 -->
<g id="node22" class="node">
<title>Node22</title>
<g id="a_node22"><a xlink:href="../../d8/de8/mainwindowsnogui_8cpp.html" target="_top" xlink:title=" ">
<polygon fill="white" stroke="black" points="3441,-73 3441,-92 3662,-92 3662,-73 3441,-73"/>
<text text-anchor="middle" x="3551.5" y="-80" font-family="Helvetica,sans-Serif" font-size="10.00">src/app/seamly2d/mainwindowsnogui.cpp</text>
</a>
</g>
</g>
<!-- Node2&#45;&gt;Node22 -->
<g id="edge21" class="edge">
<title>Node2&#45;&gt;Node22</title>
<path fill="none" stroke="midnightblue" d="M2219.41,-147.69C2416.59,-145.08 2971.45,-134.77 3431.5,-98 3450.22,-96.5 3470.52,-94.28 3489,-92.02"/>
<polygon fill="midnightblue" stroke="midnightblue" points="2219.12,-144.19 2209.17,-147.82 2219.21,-151.19 2219.12,-144.19"/>
</g>
<!-- Node23 -->
<g id="node23" class="node">
<title>Node23</title>
<g id="a_node23"><a xlink:href="../../d3/d49/vpattern_8cpp.html" target="_top" xlink:title=" ">
<polygon fill="white" stroke="black" points="3680,-67.5 3680,-97.5 3805,-97.5 3805,-67.5 3680,-67.5"/>
<text text-anchor="start" x="3688" y="-85.5" font-family="Helvetica,sans-Serif" font-size="10.00">src/app/seamly2d/xml</text>
<text text-anchor="middle" x="3742.5" y="-74.5" font-family="Helvetica,sans-Serif" font-size="10.00">/vpattern.cpp</text>
</a>
</g>
</g>
<!-- Node2&#45;&gt;Node23 -->
<g id="edge22" class="edge">
<title>Node2&#45;&gt;Node23</title>
<path fill="none" stroke="midnightblue" d="M2219.29,-147.68C2483.88,-144.47 3384.39,-131.31 3670.5,-98 3673.54,-97.65 3676.64,-97.23 3679.77,-96.77"/>
<polygon fill="midnightblue" stroke="midnightblue" points="2218.99,-144.18 2209.03,-147.8 2219.08,-151.18 2218.99,-144.18"/>
</g>
<!-- Node24 -->
<g id="node24" class="node">
<title>Node24</title>
<g id="a_node24"><a xlink:href="../../d8/dd9/mainwindow_8cpp.html" target="_top" xlink:title=" ">
<polygon fill="white" stroke="black" points="3823.5,-73 3823.5,-92 4011.5,-92 4011.5,-73 3823.5,-73"/>
<text text-anchor="middle" x="3917.5" y="-80" font-family="Helvetica,sans-Serif" font-size="10.00">src/app/seamly2d/mainwindow.cpp</text>
</a>
</g>
</g>
<!-- Node2&#45;&gt;Node24 -->
<g id="edge23" class="edge">
<title>Node2&#45;&gt;Node24</title>
<path fill="none" stroke="midnightblue" d="M2219.37,-149.11C2453.37,-150.43 3199.07,-149.98 3813.5,-98 3830.12,-96.59 3848.15,-94.34 3864.45,-92.03"/>
<polygon fill="midnightblue" stroke="midnightblue" points="2219.29,-145.61 2209.27,-149.05 2219.25,-152.61 2219.29,-145.61"/>
</g>
<!-- Node26 -->
<g id="node26" class="node">
<title>Node26</title>
<g id="a_node26"><a xlink:href="../../d4/d90/fvupdater_8cpp.html" target="_top" xlink:title=" ">
<polygon fill="white" stroke="black" points="4030,-73 4030,-92 4183,-92 4183,-73 4030,-73"/>
<text text-anchor="middle" x="4106.5" y="-80" font-family="Helvetica,sans-Serif" font-size="10.00">src/libs/fervor/fvupdater.cpp</text>
</a>
</g>
</g>
<!-- Node25&#45;&gt;Node26 -->
<g id="edge25" class="edge">
<title>Node25&#45;&gt;Node26</title>
<path fill="none" stroke="midnightblue" d="M5641.59,-146.92C5336.83,-142.16 4473.46,-126.48 4191.5,-98 4177.8,-96.62 4162.97,-94.35 4149.59,-92.02"/>
<polygon fill="midnightblue" stroke="midnightblue" points="5641.7,-150.42 5651.76,-147.08 5641.81,-143.43 5641.7,-150.42"/>
</g>
<!-- Node27 -->
<g id="node27" class="node">
<title>Node27</title>
<g id="a_node27"><a xlink:href="../../d9/dc8/dxiface_8cpp.html" target="_top" xlink:title=" ">
<polygon fill="white" stroke="black" points="4201,-73 4201,-92 4336,-92 4336,-73 4201,-73"/>
<text text-anchor="middle" x="4268.5" y="-80" font-family="Helvetica,sans-Serif" font-size="10.00">src/libs/vdxf/dxiface.cpp</text>
</a>
</g>
</g>
<!-- Node25&#45;&gt;Node27 -->
<g id="edge26" class="edge">
<title>Node25&#45;&gt;Node27</title>
<path fill="none" stroke="midnightblue" d="M5641.63,-146.75C5357.89,-141.82 4595.32,-126.27 4344.5,-98 4332.22,-96.62 4318.95,-94.35 4306.99,-92.02"/>
<polygon fill="midnightblue" stroke="midnightblue" points="5641.87,-150.26 5651.93,-146.93 5641.99,-143.26 5641.87,-150.26"/>
</g>
<!-- Node28 -->
<g id="node28" class="node">
<title>Node28</title>
<g id="a_node28"><a xlink:href="../../da/d75/vabstractarc__p_8h.html" target="_top" xlink:title=" ">
<polygon fill="white" stroke="red" points="4354,-67.5 4354,-97.5 4461,-97.5 4461,-67.5 4354,-67.5"/>
<text text-anchor="start" x="4362" y="-85.5" font-family="Helvetica,sans-Serif" font-size="10.00">src/libs/vgeometry</text>
<text text-anchor="middle" x="4407.5" y="-74.5" font-family="Helvetica,sans-Serif" font-size="10.00">/vabstractarc_p.h</text>
</a>
</g>
</g>
<!-- Node25&#45;&gt;Node28 -->
<g id="edge27" class="edge">
<title>Node25&#45;&gt;Node28</title>
<path fill="none" stroke="midnightblue" d="M5641.8,-146.89C5376.11,-142.48 4694.7,-128.49 4469.5,-98 4466.76,-97.63 4463.97,-97.19 4461.15,-96.71"/>
<polygon fill="midnightblue" stroke="midnightblue" points="5641.78,-150.39 5651.84,-147.05 5641.9,-143.39 5641.78,-150.39"/>
</g>
<!-- Node30 -->
<g id="node29" class="node">
<title>Node30</title>
<g id="a_node29"><a xlink:href="../../dc/da3/varc__p_8h.html" target="_top" xlink:title=" ">
<polygon fill="white" stroke="red" points="4479,-67.5 4479,-97.5 4586,-97.5 4586,-67.5 4479,-67.5"/>
<text text-anchor="start" x="4487" y="-85.5" font-family="Helvetica,sans-Serif" font-size="10.00">src/libs/vgeometry</text>
<text text-anchor="middle" x="4532.5" y="-74.5" font-family="Helvetica,sans-Serif" font-size="10.00">/varc_p.h</text>
</a>
</g>
</g>
<!-- Node25&#45;&gt;Node30 -->
<g id="edge28" class="edge">
<title>Node25&#45;&gt;Node30</title>
<path fill="none" stroke="midnightblue" d="M5641.83,-146.35C5395.11,-141.02 4794.79,-125.56 4594.5,-98 4591.76,-97.62 4588.97,-97.18 4586.15,-96.69"/>
<polygon fill="midnightblue" stroke="midnightblue" points="5641.81,-149.85 5651.88,-146.57 5641.96,-142.85 5641.81,-149.85"/>
</g>
<!-- Node32 -->
<g id="node30" class="node">
<title>Node32</title>
<g id="a_node30"><a xlink:href="../../d5/d8e/vcubicbezier__p_8h.html" target="_top" xlink:title=" ">
<polygon fill="white" stroke="red" points="4604,-67.5 4604,-97.5 4711,-97.5 4711,-67.5 4604,-67.5"/>
<text text-anchor="start" x="4612" y="-85.5" font-family="Helvetica,sans-Serif" font-size="10.00">src/libs/vgeometry</text>
<text text-anchor="middle" x="4657.5" y="-74.5" font-family="Helvetica,sans-Serif" font-size="10.00">/vcubicbezier_p.h</text>
</a>
</g>
</g>
<!-- Node25&#45;&gt;Node32 -->
<g id="edge29" class="edge">
<title>Node25&#45;&gt;Node32</title>
<path fill="none" stroke="midnightblue" d="M5641.86,-148.87C5454.72,-148.24 5057.61,-141.31 4725.5,-98 4720.83,-97.39 4716.01,-96.63 4711.18,-95.78"/>
<polygon fill="midnightblue" stroke="midnightblue" points="5641.96,-152.37 5651.97,-148.89 5641.98,-145.37 5641.96,-152.37"/>
</g>
<!-- Node34 -->
<g id="node31" class="node">
<title>Node34</title>
<g id="a_node31"><a xlink:href="../../d6/dfb/vellipticalarc_8cpp.html" target="_top" xlink:title=" ">
<polygon fill="white" stroke="black" points="4727,-0.5 4727,-30.5 4834,-30.5 4834,-0.5 4727,-0.5"/>
<text text-anchor="start" x="4735" y="-18.5" font-family="Helvetica,sans-Serif" font-size="10.00">src/libs/vgeometry</text>
<text text-anchor="middle" x="4780.5" y="-7.5" font-family="Helvetica,sans-Serif" font-size="10.00">/vellipticalarc.cpp</text>
</a>
</g>
</g>
<!-- Node25&#45;&gt;Node34 -->
<g id="edge30" class="edge">
<title>Node25&#45;&gt;Node34</title>
<path fill="none" stroke="midnightblue" d="M5641.47,-146.94C5390.8,-142.8 4788.53,-129.6 4758.5,-98 4740.93,-79.51 4757.41,-48.51 4769.77,-30.54"/>
<polygon fill="midnightblue" stroke="midnightblue" points="5641.64,-150.45 5651.69,-147.11 5641.75,-143.45 5641.64,-150.45"/>
</g>
<!-- Node35 -->
<g id="node32" class="node">
<title>Node35</title>
<g id="a_node32"><a xlink:href="../../df/dde/vellipticalarc__p_8h.html" target="_top" xlink:title=" ">
<polygon fill="white" stroke="black" points="4768,-67.5 4768,-97.5 4875,-97.5 4875,-67.5 4768,-67.5"/>
<text text-anchor="start" x="4776" y="-85.5" font-family="Helvetica,sans-Serif" font-size="10.00">src/libs/vgeometry</text>
<text text-anchor="middle" x="4821.5" y="-74.5" font-family="Helvetica,sans-Serif" font-size="10.00">/vellipticalarc_p.h</text>
</a>
</g>
</g>
<!-- Node25&#45;&gt;Node35 -->
<g id="edge31" class="edge">
<title>Node25&#45;&gt;Node35</title>
<path fill="none" stroke="midnightblue" d="M5641.76,-148.13C5477.38,-146.25 5154.49,-137.29 4883.5,-98 4880.77,-97.6 4877.97,-97.15 4875.16,-96.64"/>
<polygon fill="midnightblue" stroke="midnightblue" points="5641.83,-151.64 5651.87,-148.24 5641.91,-144.64 5641.83,-151.64"/>
</g>
<!-- Node36 -->
<g id="node33" class="node">
<title>Node36</title>
<g id="a_node33"><a xlink:href="../../d1/d76/vspline__p_8h.html" target="_top" xlink:title=" ">
<polygon fill="white" stroke="red" points="4893,-67.5 4893,-97.5 5000,-97.5 5000,-67.5 4893,-67.5"/>
<text text-anchor="start" x="4901" y="-85.5" font-family="Helvetica,sans-Serif" font-size="10.00">src/libs/vgeometry</text>
<text text-anchor="middle" x="4946.5" y="-74.5" font-family="Helvetica,sans-Serif" font-size="10.00">/vspline_p.h</text>
</a>
</g>
</g>
<!-- Node25&#45;&gt;Node36 -->
<g id="edge33" class="edge">
<title>Node25&#45;&gt;Node36</title>
<path fill="none" stroke="midnightblue" d="M5641.5,-146.47C5496.88,-142.53 5232.63,-131.08 5009.5,-98 5006.39,-97.54 5003.21,-97.01 5000.01,-96.42"/>
<polygon fill="midnightblue" stroke="midnightblue" points="5641.62,-149.97 5651.71,-146.74 5641.8,-142.98 5641.62,-149.97"/>
</g>
<!-- Node38 -->
<g id="node34" class="node">
<title>Node38</title>
<g id="a_node34"><a xlink:href="../../d9/d15/vabstractpiece_8cpp.html" target="_top" xlink:title=" ">
<polygon fill="white" stroke="black" points="5018.5,-73 5018.5,-92 5204.5,-92 5204.5,-73 5018.5,-73"/>
<text text-anchor="middle" x="5111.5" y="-80" font-family="Helvetica,sans-Serif" font-size="10.00">src/libs/vlayout/vabstractpiece.cpp</text>
</a>
</g>
</g>
<!-- Node25&#45;&gt;Node38 -->
<g id="edge34" class="edge">
<title>Node25&#45;&gt;Node38</title>
<path fill="none" stroke="midnightblue" d="M5641.87,-139.93C5533.34,-130.93 5361.06,-115.64 5212.5,-98 5197.81,-96.26 5181.96,-94.11 5167.27,-92"/>
<polygon fill="midnightblue" stroke="midnightblue" points="5641.59,-143.42 5651.85,-140.76 5642.17,-136.45 5641.59,-143.42"/>
</g>
<!-- Node39 -->
<g id="node35" class="node">
<title>Node39</title>
<g id="a_node35"><a xlink:href="../../dd/d70/vlayoutpiece_8cpp.html" target="_top" xlink:title=" ">
<polygon fill="white" stroke="black" points="5222,-73 5222,-92 5399,-92 5399,-73 5222,-73"/>
<text text-anchor="middle" x="5310.5" y="-80" font-family="Helvetica,sans-Serif" font-size="10.00">src/libs/vlayout/vlayoutpiece.cpp</text>
</a>
</g>
</g>
<!-- Node25&#45;&gt;Node39 -->
<g id="edge35" class="edge">
<title>Node25&#45;&gt;Node39</title>
<path fill="none" stroke="midnightblue" d="M5681.74,-138.47C5595.76,-125.74 5448.96,-104 5368.12,-92.03"/>
<polygon fill="midnightblue" stroke="midnightblue" points="5681.25,-141.93 5691.66,-139.94 5682.28,-135.01 5681.25,-141.93"/>
</g>
<!-- Node40 -->
<g id="node36" class="node">
<title>Node40</title>
<g id="a_node36"><a xlink:href="../../d8/d70/vtextmanager_8cpp.html" target="_top" xlink:title=" ">
<polygon fill="white" stroke="black" points="5417.5,-73 5417.5,-92 5599.5,-92 5599.5,-73 5417.5,-73"/>
<text text-anchor="middle" x="5508.5" y="-80" font-family="Helvetica,sans-Serif" font-size="10.00">src/libs/vlayout/vtextmanager.cpp</text>
</a>
</g>
</g>
<!-- Node25&#45;&gt;Node40 -->
<g id="edge36" class="edge">
<title>Node25&#45;&gt;Node40</title>
<path fill="none" stroke="midnightblue" d="M5707.8,-137.25C5660.16,-124.41 5583.27,-103.67 5540.25,-92.06"/>
<polygon fill="midnightblue" stroke="midnightblue" points="5706.93,-140.64 5717.5,-139.87 5708.75,-133.89 5706.93,-140.64"/>
</g>
<!-- Node41 -->
<g id="node37" class="node">
<title>Node41</title>
<g id="a_node37"><a xlink:href="../../d6/d0b/def_8cpp.html" target="_top" xlink:title=" ">
<polygon fill="white" stroke="black" points="5617.5,-73 5617.5,-92 5739.5,-92 5739.5,-73 5617.5,-73"/>
<text text-anchor="middle" x="5678.5" y="-80" font-family="Helvetica,sans-Serif" font-size="10.00">src/libs/vmisc/def.cpp</text>
</a>
</g>
</g>
<!-- Node25&#45;&gt;Node41 -->
<g id="edge37" class="edge">
<title>Node25&#45;&gt;Node41</title>
<path fill="none" stroke="midnightblue" d="M5732.41,-132.86C5718.45,-120.08 5699.24,-102.49 5687.92,-92.13"/>
<polygon fill="midnightblue" stroke="midnightblue" points="5730.19,-135.56 5739.92,-139.73 5734.91,-130.4 5730.19,-135.56"/>
</g>
<!-- Node42 -->
<g id="node38" class="node">
<title>Node42</title>
<g id="a_node38"><a xlink:href="../../db/d65/dialogexporttocsv_8cpp.html" target="_top" xlink:title=" ">
<polygon fill="white" stroke="black" points="5758,-67.5 5758,-97.5 5885,-97.5 5885,-67.5 5758,-67.5"/>
<text text-anchor="start" x="5766" y="-85.5" font-family="Helvetica,sans-Serif" font-size="10.00">src/libs/vmisc/dialogs</text>
<text text-anchor="middle" x="5821.5" y="-74.5" font-family="Helvetica,sans-Serif" font-size="10.00">/dialogexporttocsv.cpp</text>
</a>
</g>
</g>
<!-- Node25&#45;&gt;Node42 -->
<g id="edge38" class="edge">
<title>Node25&#45;&gt;Node42</title>
<path fill="none" stroke="midnightblue" d="M5766.75,-132.93C5778.66,-122.18 5794.36,-108 5805.89,-97.59"/>
<polygon fill="midnightblue" stroke="midnightblue" points="5764.29,-130.43 5759.21,-139.73 5768.98,-135.63 5764.29,-130.43"/>
</g>
<!-- Node43 -->
<g id="node39" class="node">
<title>Node43</title>
<g id="a_node39"><a xlink:href="../../d0/df6/vabstractapplication_8cpp.html" target="_top" xlink:title=" ">
<polygon fill="white" stroke="black" points="5903.5,-73 5903.5,-92 6109.5,-92 6109.5,-73 5903.5,-73"/>
<text text-anchor="middle" x="6006.5" y="-80" font-family="Helvetica,sans-Serif" font-size="10.00">src/libs/vmisc/vabstractapplication.cpp</text>
</a>
</g>
</g>
<!-- Node25&#45;&gt;Node43 -->
<g id="edge39" class="edge">
<title>Node25&#45;&gt;Node43</title>
<path fill="none" stroke="midnightblue" d="M5793.37,-137.4C5844.09,-124.58 5926.49,-103.74 5972.56,-92.08"/>
<polygon fill="midnightblue" stroke="midnightblue" points="5792.2,-134.09 5783.36,-139.94 5793.92,-140.88 5792.2,-134.09"/>
</g>
<!-- Node44 -->
<g id="node40" class="node">
<title>Node44</title>
<g id="a_node40"><a xlink:href="../../d4/d4f/pmsystems_8cpp.html" target="_top" xlink:title=" ">
<polygon fill="white" stroke="black" points="6128,-67.5 6128,-97.5 6235,-97.5 6235,-67.5 6128,-67.5"/>
<text text-anchor="start" x="6136" y="-85.5" font-family="Helvetica,sans-Serif" font-size="10.00">src/libs/vpatterndb</text>
<text text-anchor="middle" x="6181.5" y="-74.5" font-family="Helvetica,sans-Serif" font-size="10.00">/pmsystems.cpp</text>
</a>
</g>
</g>
<!-- Node25&#45;&gt;Node44 -->
<g id="edge40" class="edge">
<title>Node25&#45;&gt;Node44</title>
<path fill="none" stroke="midnightblue" d="M5824.1,-138.66C5923.52,-125.48 6090.25,-103.17 6118.5,-98 6121.59,-97.43 6124.76,-96.82 6127.95,-96.17"/>
<polygon fill="midnightblue" stroke="midnightblue" points="5823.56,-135.2 5814.1,-139.98 5824.48,-142.14 5823.56,-135.2"/>
</g>
<!-- Node45 -->
<g id="node41" class="node">
<title>Node45</title>
<g id="a_node41"><a xlink:href="../../db/d11/vformula_8cpp.html" target="_top" xlink:title=" ">
<polygon fill="white" stroke="black" points="6253,-67.5 6253,-97.5 6360,-97.5 6360,-67.5 6253,-67.5"/>
<text text-anchor="start" x="6261" y="-85.5" font-family="Helvetica,sans-Serif" font-size="10.00">src/libs/vpatterndb</text>
<text text-anchor="middle" x="6306.5" y="-74.5" font-family="Helvetica,sans-Serif" font-size="10.00">/vformula.cpp</text>
</a>
</g>
</g>
<!-- Node25&#45;&gt;Node45 -->
<g id="edge41" class="edge">
<title>Node25&#45;&gt;Node45</title>
<path fill="none" stroke="midnightblue" d="M5821.88,-138.66C5834.73,-137.02 5848,-135.4 5860.5,-134 6030.4,-114.92 6074.71,-125.23 6243.5,-98 6246.6,-97.5 6249.78,-96.93 6252.98,-96.33"/>
<polygon fill="midnightblue" stroke="midnightblue" points="5821.15,-135.23 5811.68,-139.97 5822.05,-142.17 5821.15,-135.23"/>
</g>
<!-- Node46 -->
<g id="node42" class="node">
<title>Node46</title>
<g id="a_node42"><a xlink:href="../../d6/d46/vcontainer_8cpp.html" target="_top" xlink:title=" ">
<polygon fill="white" stroke="black" points="6378,-67.5 6378,-97.5 6485,-97.5 6485,-67.5 6378,-67.5"/>
<text text-anchor="start" x="6386" y="-85.5" font-family="Helvetica,sans-Serif" font-size="10.00">src/libs/vpatterndb</text>
<text text-anchor="middle" x="6431.5" y="-74.5" font-family="Helvetica,sans-Serif" font-size="10.00">/vcontainer.cpp</text>
</a>
</g>
</g>
<!-- Node25&#45;&gt;Node46 -->
<g id="edge42" class="edge">
<title>Node25&#45;&gt;Node46</title>
<path fill="none" stroke="midnightblue" d="M5819.81,-138.68C5833.3,-136.97 5847.33,-135.33 5860.5,-134 6085.71,-111.33 6144.65,-131.48 6368.5,-98 6371.61,-97.54 6374.79,-97 6377.99,-96.41"/>
<polygon fill="midnightblue" stroke="midnightblue" points="5819.1,-135.24 5809.62,-139.99 5819.99,-142.18 5819.1,-135.24"/>
</g>
<!-- Node47 -->
<g id="node43" class="node">
<title>Node47</title>
<g id="a_node43"><a xlink:href="../../df/dba/vpiecenode__p_8h.html" target="_top" xlink:title=" ">
<polygon fill="white" stroke="red" points="6503,-67.5 6503,-97.5 6610,-97.5 6610,-67.5 6503,-67.5"/>
<text text-anchor="start" x="6511" y="-85.5" font-family="Helvetica,sans-Serif" font-size="10.00">src/libs/vpatterndb</text>
<text text-anchor="middle" x="6556.5" y="-74.5" font-family="Helvetica,sans-Serif" font-size="10.00">/vpiecenode_p.h</text>
</a>
</g>
</g>
<!-- Node25&#45;&gt;Node47 -->
<g id="edge43" class="edge">
<title>Node25&#45;&gt;Node47</title>
<path fill="none" stroke="midnightblue" d="M5818.45,-138.7C5832.35,-136.95 5846.88,-135.28 5860.5,-134 6141.06,-107.73 6214.53,-137.74 6493.5,-98 6496.61,-97.56 6499.8,-97.04 6503,-96.46"/>
<polygon fill="midnightblue" stroke="midnightblue" points="5817.93,-135.24 5808.46,-139.98 5818.82,-142.18 5817.93,-135.24"/>
</g>
<!-- Node49 -->
<g id="node44" class="node">
<title>Node49</title>
<g id="a_node44"><a xlink:href="../../df/d7a/vpiece_8cpp.html" target="_top" xlink:title=" ">
<polygon fill="white" stroke="black" points="6628,-67.5 6628,-97.5 6735,-97.5 6735,-67.5 6628,-67.5"/>
<text text-anchor="start" x="6636" y="-85.5" font-family="Helvetica,sans-Serif" font-size="10.00">src/libs/vpatterndb</text>
<text text-anchor="middle" x="6681.5" y="-74.5" font-family="Helvetica,sans-Serif" font-size="10.00">/vpiece.cpp</text>
</a>
</g>
</g>
<!-- Node25&#45;&gt;Node49 -->
<g id="edge44" class="edge">
<title>Node25&#45;&gt;Node49</title>
<path fill="none" stroke="midnightblue" d="M5817.72,-138.69C5831.84,-136.91 5846.64,-135.23 5860.5,-134 6196.44,-104.13 6284.38,-144.01 6618.5,-98 6621.5,-97.59 6624.57,-97.1 6627.66,-96.56"/>
<polygon fill="midnightblue" stroke="midnightblue" points="5817.06,-135.24 5807.59,-139.99 5817.95,-142.19 5817.06,-135.24"/>
</g>
<!-- Node50 -->
<g id="node45" class="node">
<title>Node50</title>
<g id="a_node45"><a xlink:href="../../de/d3e/vtranslatevars_8cpp.html" target="_top" xlink:title=" ">
<polygon fill="white" stroke="black" points="6753.5,-67.5 6753.5,-97.5 6863.5,-97.5 6863.5,-67.5 6753.5,-67.5"/>
<text text-anchor="start" x="6761.5" y="-85.5" font-family="Helvetica,sans-Serif" font-size="10.00">src/libs/vpatterndb</text>
<text text-anchor="middle" x="6808.5" y="-74.5" font-family="Helvetica,sans-Serif" font-size="10.00">/vtranslatevars.cpp</text>
</a>
</g>
</g>
<!-- Node25&#45;&gt;Node50 -->
<g id="edge45" class="edge">
<title>Node25&#45;&gt;Node50</title>
<path fill="none" stroke="midnightblue" d="M5817.24,-138.68C5831.5,-136.88 5846.48,-135.2 5860.5,-134 6251.84,-100.53 6354.05,-148.96 6743.5,-98 6746.71,-97.58 6750,-97.08 6753.3,-96.52"/>
<polygon fill="midnightblue" stroke="midnightblue" points="5816.48,-135.24 5807.01,-140 5817.37,-142.19 5816.48,-135.24"/>
</g>
<!-- Node51 -->
<g id="node46" class="node">
<title>Node51</title>
<g id="a_node46"><a xlink:href="../../df/d40/export__format__combobox_8cpp.html" target="_top" xlink:title=" ">
<polygon fill="white" stroke="black" points="6882,-67.5 6882,-97.5 7015,-97.5 7015,-67.5 6882,-67.5"/>
<text text-anchor="start" x="6890" y="-85.5" font-family="Helvetica,sans-Serif" font-size="10.00">src/libs/vwidgets/export</text>
<text text-anchor="middle" x="6948.5" y="-74.5" font-family="Helvetica,sans-Serif" font-size="10.00">_format_combobox.cpp</text>
</a>
</g>
</g>
<!-- Node25&#45;&gt;Node51 -->
<g id="edge46" class="edge">
<title>Node25&#45;&gt;Node51</title>
<path fill="none" stroke="midnightblue" d="M5817,-138.65C5831.33,-136.85 5846.4,-135.17 5860.5,-134 6309.02,-96.81 6425.26,-148.32 6872.5,-98 6875.57,-97.65 6878.7,-97.25 6881.86,-96.81"/>
<polygon fill="midnightblue" stroke="midnightblue" points="5816.18,-135.23 5806.71,-139.98 5817.08,-142.17 5816.18,-135.23"/>
</g>
<!-- Node52 -->
<g id="node47" class="node">
<title>Node52</title>
<g id="a_node47"><a xlink:href="../../d3/d4f/mouse__coordinates_8cpp.html" target="_top" xlink:title=" ">
<polygon fill="white" stroke="black" points="7033.5,-67.5 7033.5,-97.5 7167.5,-97.5 7167.5,-67.5 7033.5,-67.5"/>
<text text-anchor="start" x="7041.5" y="-85.5" font-family="Helvetica,sans-Serif" font-size="10.00">src/libs/vwidgets/mouse</text>
<text text-anchor="middle" x="7100.5" y="-74.5" font-family="Helvetica,sans-Serif" font-size="10.00">_coordinates.cpp</text>
</a>
</g>
</g>
<!-- Node25&#45;&gt;Node52 -->
<g id="edge47" class="edge">
<title>Node25&#45;&gt;Node52</title>
<path fill="none" stroke="midnightblue" d="M5816.76,-138.63C5831.16,-136.82 5846.31,-135.14 5860.5,-134 6375.97,-92.46 6509.41,-154.02 7023.5,-98 7026.75,-97.65 7030.06,-97.23 7033.4,-96.77"/>
<polygon fill="midnightblue" stroke="midnightblue" points="5815.89,-135.21 5806.42,-139.96 5816.79,-142.15 5815.89,-135.21"/>
</g>
<!-- Node53 -->
<g id="node48" class="node">
<title>Node53</title>
<g id="a_node48"><a xlink:href="../../d2/d28/page__format__combobox_8cpp.html" target="_top" xlink:title=" ">
<polygon fill="white" stroke="black" points="7186,-67.5 7186,-97.5 7317,-97.5 7317,-67.5 7186,-67.5"/>
<text text-anchor="start" x="7194" y="-85.5" font-family="Helvetica,sans-Serif" font-size="10.00">src/libs/vwidgets/page</text>
<text text-anchor="middle" x="7251.5" y="-74.5" font-family="Helvetica,sans-Serif" font-size="10.00">_format_combobox.cpp</text>
</a>
</g>
</g>
<!-- Node25&#45;&gt;Node53 -->
<g id="edge48" class="edge">
<title>Node25&#45;&gt;Node53</title>
<path fill="none" stroke="midnightblue" d="M5816.1,-138.67C5830.7,-136.83 5846.1,-135.13 5860.5,-134 6443.8,-88.05 6594.88,-161.75 7176.5,-98 7179.53,-97.67 7182.62,-97.28 7185.74,-96.84"/>
<polygon fill="midnightblue" stroke="midnightblue" points="5815.6,-135.21 5806.14,-139.96 5816.5,-142.15 5815.6,-135.21"/>
</g>
<!-- Node25&#45;&gt;Node60 -->
<g id="edge49" class="edge">
<title>Node25&#45;&gt;Node60</title>
<path fill="none" stroke="midnightblue" d="M5815.85,-138.67C5830.53,-136.82 5846.02,-135.12 5860.5,-134 6509.87,-83.75 6675.95,-145.78 7325.5,-98 7344.44,-96.61 7365,-94.34 7383.58,-92.01"/>
<polygon fill="midnightblue" stroke="midnightblue" points="5815.32,-135.21 5805.85,-139.97 5816.22,-142.15 5815.32,-135.21"/>
</g>
<!-- Node35&#45;&gt;Node34 -->
<g id="edge32" class="edge">
<title>Node35&#45;&gt;Node34</title>
<path fill="none" stroke="midnightblue" d="M4807.22,-58.87C4801.29,-49.46 4794.59,-38.83 4789.38,-30.58"/>
<polygon fill="midnightblue" stroke="midnightblue" points="4804.31,-60.81 4812.6,-67.4 4810.23,-57.07 4804.31,-60.81"/>
</g>
</g>
</svg>
