<?xml version="1.0" encoding="UTF-8" standalone="no"?>
<!DOCTYPE svg PUBLIC "-//W3C//DTD SVG 1.1//EN"
 "http://www.w3.org/Graphics/SVG/1.1/DTD/svg11.dtd">
<!-- Generated by graphviz version 2.43.0 (0)
 -->
<!-- Title: src/libs/vgeometry/vpointf.h Pages: 1 -->
<svg width="3748pt" height="307pt"
 viewBox="0.00 0.00 3748.00 307.00" xmlns="http://www.w3.org/2000/svg" xmlns:xlink="http://www.w3.org/1999/xlink">
<g id="graph0" class="graph" transform="scale(1 1) rotate(0) translate(4 303)">
<title>src/libs/vgeometry/vpointf.h</title>
<polygon fill="white" stroke="transparent" points="-4,4 -4,-303 3744,-303 3744,4 -4,4"/>
<!-- Node1 -->
<g id="node1" class="node">
<title>Node1</title>
<g id="a_node1"><a xlink:title=" ">
<polygon fill="#bfbfbf" stroke="black" points="1503,-268.5 1503,-298.5 1610,-298.5 1610,-268.5 1503,-268.5"/>
<text text-anchor="start" x="1511" y="-286.5" font-family="Helvetica,sans-Serif" font-size="10.00">src/libs/vgeometry</text>
<text text-anchor="middle" x="1556.5" y="-275.5" font-family="Helvetica,sans-Serif" font-size="10.00">/vpointf.h</text>
</a>
</g>
</g>
<!-- Node2 -->
<g id="node2" class="node">
<title>Node2</title>
<g id="a_node2"><a xlink:href="../../d4/da1/vabstractarc_8cpp.html" target="_top" xlink:title=" ">
<polygon fill="white" stroke="black" points="0,-123.5 0,-153.5 107,-153.5 107,-123.5 0,-123.5"/>
<text text-anchor="start" x="8" y="-141.5" font-family="Helvetica,sans-Serif" font-size="10.00">src/libs/vgeometry</text>
<text text-anchor="middle" x="53.5" y="-130.5" font-family="Helvetica,sans-Serif" font-size="10.00">/vabstractarc.cpp</text>
</a>
</g>
</g>
<!-- Node1&#45;&gt;Node2 -->
<g id="edge1" class="edge">
<title>Node1&#45;&gt;Node2</title>
<path fill="none" stroke="midnightblue" d="M1492.86,-282.83C1210.55,-283.99 83.04,-285.28 31.5,-232 10.96,-210.76 29.9,-174 43.15,-153.81"/>
<polygon fill="midnightblue" stroke="midnightblue" points="1492.95,-286.33 1502.93,-282.79 1492.92,-279.33 1492.95,-286.33"/>
</g>
<!-- Node3 -->
<g id="node3" class="node">
<title>Node3</title>
<g id="a_node3"><a xlink:href="../../da/d75/vabstractarc__p_8h.html" target="_top" xlink:title=" ">
<polygon fill="white" stroke="black" points="41,-196 41,-226 148,-226 148,-196 41,-196"/>
<text text-anchor="start" x="49" y="-214" font-family="Helvetica,sans-Serif" font-size="10.00">src/libs/vgeometry</text>
<text text-anchor="middle" x="94.5" y="-203" font-family="Helvetica,sans-Serif" font-size="10.00">/vabstractarc_p.h</text>
</a>
</g>
</g>
<!-- Node1&#45;&gt;Node3 -->
<g id="edge2" class="edge">
<title>Node1&#45;&gt;Node3</title>
<path fill="none" stroke="midnightblue" d="M1492.49,-282.49C1254.25,-282.09 419.26,-277.4 157.5,-232 149.47,-230.61 141.05,-228.45 133.07,-226.06"/>
<polygon fill="midnightblue" stroke="midnightblue" points="1492.71,-285.99 1502.71,-282.5 1492.72,-278.99 1492.71,-285.99"/>
</g>
<!-- Node4 -->
<g id="node4" class="node">
<title>Node4</title>
<g id="a_node4"><a xlink:href="../../d5/d5a/vabstractcubicbezier_8cpp.html" target="_top" xlink:title=" ">
<polygon fill="white" stroke="black" points="166.5,-196 166.5,-226 306.5,-226 306.5,-196 166.5,-196"/>
<text text-anchor="start" x="174.5" y="-214" font-family="Helvetica,sans-Serif" font-size="10.00">src/libs/vgeometry</text>
<text text-anchor="middle" x="236.5" y="-203" font-family="Helvetica,sans-Serif" font-size="10.00">/vabstractcubicbezier.cpp</text>
</a>
</g>
</g>
<!-- Node1&#45;&gt;Node4 -->
<g id="edge4" class="edge">
<title>Node1&#45;&gt;Node4</title>
<path fill="none" stroke="midnightblue" d="M1492.55,-281.65C1272.3,-278.44 546.17,-265.52 315.5,-232 305.7,-230.58 295.35,-228.44 285.49,-226.08"/>
<polygon fill="midnightblue" stroke="midnightblue" points="1492.6,-285.15 1502.65,-281.79 1492.7,-278.15 1492.6,-285.15"/>
</g>
<!-- Node5 -->
<g id="node5" class="node">
<title>Node5</title>
<g id="a_node5"><a xlink:href="../../de/d12/varc_8h.html" target="_top" xlink:title=" ">
<polygon fill="white" stroke="black" points="614,-196 614,-226 721,-226 721,-196 614,-196"/>
<text text-anchor="start" x="622" y="-214" font-family="Helvetica,sans-Serif" font-size="10.00">src/libs/vgeometry</text>
<text text-anchor="middle" x="667.5" y="-203" font-family="Helvetica,sans-Serif" font-size="10.00">/varc.h</text>
</a>
</g>
</g>
<!-- Node1&#45;&gt;Node5 -->
<g id="edge5" class="edge">
<title>Node1&#45;&gt;Node5</title>
<path fill="none" stroke="midnightblue" d="M1492.7,-280.43C1326.08,-274.72 880.76,-257.49 735.5,-232 727.14,-230.53 718.34,-228.4 709.96,-226.07"/>
<polygon fill="midnightblue" stroke="midnightblue" points="1492.68,-283.93 1502.79,-280.77 1492.91,-276.93 1492.68,-283.93"/>
</g>
<!-- Node7 -->
<g id="node7" class="node">
<title>Node7</title>
<g id="a_node7"><a xlink:href="../../d6/d46/vcontainer_8cpp.html" target="_top" xlink:title=" ">
<polygon fill="white" stroke="black" points="778,-123.5 778,-153.5 885,-153.5 885,-123.5 778,-123.5"/>
<text text-anchor="start" x="786" y="-141.5" font-family="Helvetica,sans-Serif" font-size="10.00">src/libs/vpatterndb</text>
<text text-anchor="middle" x="831.5" y="-130.5" font-family="Helvetica,sans-Serif" font-size="10.00">/vcontainer.cpp</text>
</a>
</g>
</g>
<!-- Node1&#45;&gt;Node7 -->
<g id="edge50" class="edge">
<title>Node1&#45;&gt;Node7</title>
<path fill="none" stroke="midnightblue" d="M1492.82,-280.76C1309.86,-275.47 794.13,-258.26 769.5,-232 756.73,-218.38 761.49,-206.86 769.5,-190 776.89,-174.45 791.67,-162.12 804.94,-153.53"/>
<polygon fill="midnightblue" stroke="midnightblue" points="1492.74,-284.26 1502.84,-281.05 1492.94,-277.27 1492.74,-284.26"/>
</g>
<!-- Node8 -->
<g id="node8" class="node">
<title>Node8</title>
<g id="a_node8"><a xlink:href="../../df/d7a/vpiece_8cpp.html" target="_top" xlink:title=" ">
<polygon fill="white" stroke="black" points="528,-123.5 528,-153.5 635,-153.5 635,-123.5 528,-123.5"/>
<text text-anchor="start" x="536" y="-141.5" font-family="Helvetica,sans-Serif" font-size="10.00">src/libs/vpatterndb</text>
<text text-anchor="middle" x="581.5" y="-130.5" font-family="Helvetica,sans-Serif" font-size="10.00">/vpiece.cpp</text>
</a>
</g>
</g>
<!-- Node1&#45;&gt;Node8 -->
<g id="edge52" class="edge">
<title>Node1&#45;&gt;Node8</title>
<path fill="none" stroke="midnightblue" d="M1492.7,-281.17C1285.05,-276.57 639.85,-260.06 605.5,-232 582.24,-213 579.88,-174.63 580.48,-153.77"/>
<polygon fill="midnightblue" stroke="midnightblue" points="1492.77,-284.67 1502.84,-281.39 1492.92,-277.67 1492.77,-284.67"/>
</g>
<!-- Node9 -->
<g id="node9" class="node">
<title>Node9</title>
<g id="a_node9"><a xlink:href="../../d5/dd5/vcubicbezier_8h.html" target="_top" xlink:title=" ">
<polygon fill="white" stroke="black" points="325,-196 325,-226 432,-226 432,-196 325,-196"/>
<text text-anchor="start" x="333" y="-214" font-family="Helvetica,sans-Serif" font-size="10.00">src/libs/vgeometry</text>
<text text-anchor="middle" x="378.5" y="-203" font-family="Helvetica,sans-Serif" font-size="10.00">/vcubicbezier.h</text>
</a>
</g>
</g>
<!-- Node1&#45;&gt;Node9 -->
<g id="edge9" class="edge">
<title>Node1&#45;&gt;Node9</title>
<path fill="none" stroke="midnightblue" d="M1492.83,-281.81C1287.7,-279.22 645.64,-268.37 441.5,-232 433.59,-230.59 425.3,-228.46 417.42,-226.1"/>
<polygon fill="midnightblue" stroke="midnightblue" points="1492.8,-285.31 1502.84,-281.93 1492.88,-278.31 1492.8,-285.31"/>
</g>
<!-- Node11 -->
<g id="node11" class="node">
<title>Node11</title>
<g id="a_node11"><a xlink:href="../../d5/d8e/vcubicbezier__p_8h.html" target="_top" xlink:title=" ">
<polygon fill="white" stroke="black" points="450,-196 450,-226 557,-226 557,-196 450,-196"/>
<text text-anchor="start" x="458" y="-214" font-family="Helvetica,sans-Serif" font-size="10.00">src/libs/vgeometry</text>
<text text-anchor="middle" x="503.5" y="-203" font-family="Helvetica,sans-Serif" font-size="10.00">/vcubicbezier_p.h</text>
</a>
</g>
</g>
<!-- Node1&#45;&gt;Node11 -->
<g id="edge11" class="edge">
<title>Node1&#45;&gt;Node11</title>
<path fill="none" stroke="midnightblue" d="M1492.71,-281.18C1303.86,-276.98 749.68,-262.34 571.5,-232 563.01,-230.55 554.08,-228.4 545.58,-226.04"/>
<polygon fill="midnightblue" stroke="midnightblue" points="1492.69,-284.69 1502.76,-281.41 1492.84,-277.69 1492.69,-284.69"/>
</g>
<!-- Node12 -->
<g id="node12" class="node">
<title>Node12</title>
<g id="a_node12"><a xlink:href="../../db/d0a/vabstractcubicbezierpath_8cpp.html" target="_top" xlink:title=" ">
<polygon fill="white" stroke="black" points="1028,-123.5 1028,-153.5 1191,-153.5 1191,-123.5 1028,-123.5"/>
<text text-anchor="start" x="1036" y="-141.5" font-family="Helvetica,sans-Serif" font-size="10.00">src/libs/vgeometry</text>
<text text-anchor="middle" x="1109.5" y="-130.5" font-family="Helvetica,sans-Serif" font-size="10.00">/vabstractcubicbezierpath.cpp</text>
</a>
</g>
</g>
<!-- Node1&#45;&gt;Node12 -->
<g id="edge13" class="edge">
<title>Node1&#45;&gt;Node12</title>
<path fill="none" stroke="midnightblue" d="M1492.8,-280.71C1365.02,-276.47 1087.11,-263.66 1058.5,-232 1045.98,-218.15 1051.31,-207.23 1058.5,-190 1064.69,-175.16 1077.59,-162.46 1088.87,-153.5"/>
<polygon fill="midnightblue" stroke="midnightblue" points="1492.74,-284.21 1502.85,-281.04 1492.96,-277.22 1492.74,-284.21"/>
</g>
<!-- Node13 -->
<g id="node13" class="node">
<title>Node13</title>
<g id="a_node13"><a xlink:href="../../d7/dbf/vcubicbezierpath__p_8h.html" target="_top" xlink:title=" ">
<polygon fill="white" stroke="black" points="1317,-196 1317,-226 1440,-226 1440,-196 1317,-196"/>
<text text-anchor="start" x="1325" y="-214" font-family="Helvetica,sans-Serif" font-size="10.00">src/libs/vgeometry</text>
<text text-anchor="middle" x="1378.5" y="-203" font-family="Helvetica,sans-Serif" font-size="10.00">/vcubicbezierpath_p.h</text>
</a>
</g>
</g>
<!-- Node1&#45;&gt;Node13 -->
<g id="edge14" class="edge">
<title>Node1&#45;&gt;Node13</title>
<path fill="none" stroke="midnightblue" d="M1511.44,-264.65C1481.24,-252.69 1442.03,-237.16 1414.03,-226.07"/>
<polygon fill="midnightblue" stroke="midnightblue" points="1510.32,-267.97 1520.91,-268.4 1512.9,-261.47 1510.32,-267.97"/>
</g>
<!-- Node15 -->
<g id="node15" class="node">
<title>Node15</title>
<g id="a_node15"><a xlink:href="../../dd/dbe/vcubicbezierpath_8h.html" target="_top" xlink:title=" ">
<polygon fill="white" stroke="black" points="1458.5,-196 1458.5,-226 1570.5,-226 1570.5,-196 1458.5,-196"/>
<text text-anchor="start" x="1466.5" y="-214" font-family="Helvetica,sans-Serif" font-size="10.00">src/libs/vgeometry</text>
<text text-anchor="middle" x="1514.5" y="-203" font-family="Helvetica,sans-Serif" font-size="10.00">/vcubicbezierpath.h</text>
</a>
</g>
</g>
<!-- Node1&#45;&gt;Node15 -->
<g id="edge16" class="edge">
<title>Node1&#45;&gt;Node15</title>
<path fill="none" stroke="midnightblue" d="M1542.83,-259.56C1536.3,-248.59 1528.68,-235.8 1522.99,-226.25"/>
<polygon fill="midnightblue" stroke="midnightblue" points="1539.88,-261.43 1548,-268.23 1545.89,-257.85 1539.88,-261.43"/>
</g>
<!-- Node16 -->
<g id="node16" class="node">
<title>Node16</title>
<g id="a_node16"><a xlink:href="../../da/ddf/vellipticalarc_8h.html" target="_top" xlink:title=" ">
<polygon fill="white" stroke="black" points="778,-196 778,-226 885,-226 885,-196 778,-196"/>
<text text-anchor="start" x="786" y="-214" font-family="Helvetica,sans-Serif" font-size="10.00">src/libs/vgeometry</text>
<text text-anchor="middle" x="831.5" y="-203" font-family="Helvetica,sans-Serif" font-size="10.00">/vellipticalarc.h</text>
</a>
</g>
</g>
<!-- Node1&#45;&gt;Node16 -->
<g id="edge18" class="edge">
<title>Node1&#45;&gt;Node16</title>
<path fill="none" stroke="midnightblue" d="M1492.72,-282.51C1373.91,-281.45 1111.1,-274.05 894.5,-232 886.73,-230.49 878.57,-228.34 870.79,-226.01"/>
<polygon fill="midnightblue" stroke="midnightblue" points="1492.71,-286.01 1502.74,-282.59 1492.77,-279.01 1492.71,-286.01"/>
</g>
<!-- Node18 -->
<g id="node18" class="node">
<title>Node18</title>
<g id="a_node18"><a xlink:href="../../df/dde/vellipticalarc__p_8h.html" target="_top" xlink:title=" ">
<polygon fill="white" stroke="black" points="903,-196 903,-226 1010,-226 1010,-196 903,-196"/>
<text text-anchor="start" x="911" y="-214" font-family="Helvetica,sans-Serif" font-size="10.00">src/libs/vgeometry</text>
<text text-anchor="middle" x="956.5" y="-203" font-family="Helvetica,sans-Serif" font-size="10.00">/vellipticalarc_p.h</text>
</a>
</g>
</g>
<!-- Node1&#45;&gt;Node18 -->
<g id="edge21" class="edge">
<title>Node1&#45;&gt;Node18</title>
<path fill="none" stroke="midnightblue" d="M1492.5,-280.38C1392.01,-276.16 1191.46,-264.17 1024.5,-232 1016.4,-230.44 1007.89,-228.33 999.73,-226.06"/>
<polygon fill="midnightblue" stroke="midnightblue" points="1492.65,-283.89 1502.78,-280.8 1492.94,-276.89 1492.65,-283.89"/>
</g>
<!-- Node19 -->
<g id="node19" class="node">
<title>Node19</title>
<g id="a_node19"><a xlink:href="../../d1/d76/vspline__p_8h.html" target="_top" xlink:title=" ">
<polygon fill="white" stroke="black" points="1192,-196 1192,-226 1299,-226 1299,-196 1192,-196"/>
<text text-anchor="start" x="1200" y="-214" font-family="Helvetica,sans-Serif" font-size="10.00">src/libs/vgeometry</text>
<text text-anchor="middle" x="1245.5" y="-203" font-family="Helvetica,sans-Serif" font-size="10.00">/vspline_p.h</text>
</a>
</g>
</g>
<!-- Node1&#45;&gt;Node19 -->
<g id="edge23" class="edge">
<title>Node1&#45;&gt;Node19</title>
<path fill="none" stroke="midnightblue" d="M1492.82,-271.46C1442.47,-262.28 1370.57,-248.12 1308.5,-232 1301.72,-230.24 1294.6,-228.18 1287.68,-226.07"/>
<polygon fill="midnightblue" stroke="midnightblue" points="1492.44,-274.95 1502.91,-273.29 1493.69,-268.07 1492.44,-274.95"/>
</g>
<!-- Node21 -->
<g id="node21" class="node">
<title>Node21</title>
<g id="a_node21"><a xlink:href="../../d8/dfd/vspline_8h.html" target="_top" xlink:title=" ">
<polygon fill="white" stroke="black" points="1067,-196 1067,-226 1174,-226 1174,-196 1067,-196"/>
<text text-anchor="start" x="1075" y="-214" font-family="Helvetica,sans-Serif" font-size="10.00">src/libs/vgeometry</text>
<text text-anchor="middle" x="1120.5" y="-203" font-family="Helvetica,sans-Serif" font-size="10.00">/vspline.h</text>
</a>
</g>
</g>
<!-- Node1&#45;&gt;Node21 -->
<g id="edge25" class="edge">
<title>Node1&#45;&gt;Node21</title>
<path fill="none" stroke="midnightblue" d="M1492.67,-277.24C1417.92,-270.31 1290.67,-256.08 1183.5,-232 1176.22,-230.37 1168.58,-228.27 1161.22,-226.06"/>
<polygon fill="midnightblue" stroke="midnightblue" points="1492.59,-280.75 1502.86,-278.17 1493.22,-273.78 1492.59,-280.75"/>
</g>
<!-- Node22 -->
<g id="node22" class="node">
<title>Node22</title>
<g id="a_node22"><a xlink:href="../../d0/d39/vsplinepath_8h.html" target="_top" xlink:title=" ">
<polygon fill="white" stroke="black" points="1627,-123.5 1627,-153.5 1734,-153.5 1734,-123.5 1627,-123.5"/>
<text text-anchor="start" x="1635" y="-141.5" font-family="Helvetica,sans-Serif" font-size="10.00">src/libs/vgeometry</text>
<text text-anchor="middle" x="1680.5" y="-130.5" font-family="Helvetica,sans-Serif" font-size="10.00">/vsplinepath.h</text>
</a>
</g>
</g>
<!-- Node1&#45;&gt;Node22 -->
<g id="edge45" class="edge">
<title>Node1&#45;&gt;Node22</title>
<path fill="none" stroke="midnightblue" d="M1581.69,-261.72C1591.71,-252.98 1603.07,-242.42 1612.5,-232 1635.9,-206.14 1659.09,-172.41 1671.41,-153.65"/>
<polygon fill="midnightblue" stroke="midnightblue" points="1579.32,-259.15 1574,-268.32 1583.87,-264.46 1579.32,-259.15"/>
</g>
<!-- Node24 -->
<g id="node24" class="node">
<title>Node24</title>
<g id="a_node24"><a xlink:href="../../d1/d3a/abstracttest_8cpp.html" target="_top" xlink:title=" ">
<polygon fill="white" stroke="black" points="1394,-62 1394,-81 1555,-81 1555,-62 1394,-62"/>
<text text-anchor="middle" x="1474.5" y="-69" font-family="Helvetica,sans-Serif" font-size="10.00">src/libs/vtest/abstracttest.cpp</text>
</a>
</g>
</g>
<!-- Node1&#45;&gt;Node24 -->
<g id="edge54" class="edge">
<title>Node1&#45;&gt;Node24</title>
<path fill="none" stroke="midnightblue" d="M1569.54,-259.38C1573.56,-251.02 1577.47,-241.34 1579.5,-232 1583.46,-213.76 1584.16,-208.08 1579.5,-190 1571.01,-157.06 1564.89,-148.61 1542.5,-123 1527.02,-105.28 1504.32,-89.99 1489.48,-81"/>
<polygon fill="midnightblue" stroke="midnightblue" points="1566.32,-257.99 1564.86,-268.48 1572.54,-261.19 1566.32,-257.99"/>
</g>
<!-- Node27 -->
<g id="node27" class="node">
<title>Node27</title>
<g id="a_node27"><a xlink:href="../../dd/da8/vpointf_8cpp.html" target="_top" xlink:title=" ">
<polygon fill="white" stroke="black" points="1665,-196 1665,-226 1772,-226 1772,-196 1665,-196"/>
<text text-anchor="start" x="1673" y="-214" font-family="Helvetica,sans-Serif" font-size="10.00">src/libs/vgeometry</text>
<text text-anchor="middle" x="1718.5" y="-203" font-family="Helvetica,sans-Serif" font-size="10.00">/vpointf.cpp</text>
</a>
</g>
</g>
<!-- Node1&#45;&gt;Node27 -->
<g id="edge38" class="edge">
<title>Node1&#45;&gt;Node27</title>
<path fill="none" stroke="midnightblue" d="M1598.22,-264.34C1625.61,-252.42 1660.9,-237.07 1686.16,-226.07"/>
<polygon fill="midnightblue" stroke="midnightblue" points="1596.67,-261.2 1588.89,-268.4 1599.46,-267.62 1596.67,-261.2"/>
</g>
<!-- Node28 -->
<g id="node28" class="node">
<title>Node28</title>
<g id="a_node28"><a xlink:href="../../df/d4b/vsplinepoint_8h.html" target="_top" xlink:title=" ">
<polygon fill="white" stroke="black" points="1790,-196 1790,-226 1897,-226 1897,-196 1790,-196"/>
<text text-anchor="start" x="1798" y="-214" font-family="Helvetica,sans-Serif" font-size="10.00">src/libs/vgeometry</text>
<text text-anchor="middle" x="1843.5" y="-203" font-family="Helvetica,sans-Serif" font-size="10.00">/vsplinepoint.h</text>
</a>
</g>
</g>
<!-- Node1&#45;&gt;Node28 -->
<g id="edge39" class="edge">
<title>Node1&#45;&gt;Node28</title>
<path fill="none" stroke="midnightblue" d="M1620,-269.86C1665.28,-260.46 1727.46,-246.75 1781.5,-232 1788.05,-230.21 1794.93,-228.17 1801.63,-226.08"/>
<polygon fill="midnightblue" stroke="midnightblue" points="1619.11,-266.47 1610.03,-271.92 1620.53,-273.33 1619.11,-266.47"/>
</g>
<!-- Node31 -->
<g id="node31" class="node">
<title>Node31</title>
<g id="a_node31"><a xlink:href="../../da/db2/vsplinepoint__p_8h.html" target="_top" xlink:title=" ">
<polygon fill="white" stroke="black" points="1915,-196 1915,-226 2022,-226 2022,-196 1915,-196"/>
<text text-anchor="start" x="1923" y="-214" font-family="Helvetica,sans-Serif" font-size="10.00">src/libs/vgeometry</text>
<text text-anchor="middle" x="1968.5" y="-203" font-family="Helvetica,sans-Serif" font-size="10.00">/vsplinepoint_p.h</text>
</a>
</g>
</g>
<!-- Node1&#45;&gt;Node31 -->
<g id="edge46" class="edge">
<title>Node1&#45;&gt;Node31</title>
<path fill="none" stroke="midnightblue" d="M1620.16,-276.58C1690.76,-269.26 1807.74,-254.88 1906.5,-232 1913.66,-230.34 1921.18,-228.23 1928.42,-226.02"/>
<polygon fill="midnightblue" stroke="midnightblue" points="1619.68,-273.11 1610.09,-277.61 1620.39,-280.07 1619.68,-273.11"/>
</g>
<!-- Node32 -->
<g id="node32" class="node">
<title>Node32</title>
<g id="a_node32"><a xlink:href="../../d9/d15/vabstractpiece_8cpp.html" target="_top" xlink:title=" ">
<polygon fill="white" stroke="black" points="2040.5,-201.5 2040.5,-220.5 2226.5,-220.5 2226.5,-201.5 2040.5,-201.5"/>
<text text-anchor="middle" x="2133.5" y="-208.5" font-family="Helvetica,sans-Serif" font-size="10.00">src/libs/vlayout/vabstractpiece.cpp</text>
</a>
</g>
</g>
<!-- Node1&#45;&gt;Node32 -->
<g id="edge48" class="edge">
<title>Node1&#45;&gt;Node32</title>
<path fill="none" stroke="midnightblue" d="M1620.32,-277.51C1711.72,-269.95 1885.03,-254.1 2031.5,-232 2052.2,-228.88 2075.08,-224.48 2093.92,-220.6"/>
<polygon fill="midnightblue" stroke="midnightblue" points="1619.8,-274.04 1610.12,-278.34 1620.37,-281.01 1619.8,-274.04"/>
</g>
<!-- Node33 -->
<g id="node33" class="node">
<title>Node33</title>
<g id="a_node33"><a xlink:href="../../dd/d70/vlayoutpiece_8cpp.html" target="_top" xlink:title=" ">
<polygon fill="white" stroke="black" points="2244,-201.5 2244,-220.5 2421,-220.5 2421,-201.5 2244,-201.5"/>
<text text-anchor="middle" x="2332.5" y="-208.5" font-family="Helvetica,sans-Serif" font-size="10.00">src/libs/vlayout/vlayoutpiece.cpp</text>
</a>
</g>
</g>
<!-- Node1&#45;&gt;Node33 -->
<g id="edge49" class="edge">
<title>Node1&#45;&gt;Node33</title>
<path fill="none" stroke="midnightblue" d="M1620.17,-280.51C1740.75,-276.12 2010.55,-263.42 2235.5,-232 2255.94,-229.15 2278.53,-224.57 2296.76,-220.52"/>
<polygon fill="midnightblue" stroke="midnightblue" points="1619.88,-277.01 1610.01,-280.87 1620.13,-284.01 1619.88,-277.01"/>
</g>
<!-- Node34 -->
<g id="node34" class="node">
<title>Node34</title>
<g id="a_node34"><a xlink:href="../../d6/d91/vnodedetail_8cpp.html" target="_top" xlink:title=" ">
<polygon fill="white" stroke="black" points="2439,-196 2439,-226 2546,-226 2546,-196 2439,-196"/>
<text text-anchor="start" x="2447" y="-214" font-family="Helvetica,sans-Serif" font-size="10.00">src/libs/vpatterndb</text>
<text text-anchor="middle" x="2492.5" y="-203" font-family="Helvetica,sans-Serif" font-size="10.00">/vnodedetail.cpp</text>
</a>
</g>
</g>
<!-- Node1&#45;&gt;Node34 -->
<g id="edge51" class="edge">
<title>Node1&#45;&gt;Node34</title>
<path fill="none" stroke="midnightblue" d="M1620.2,-280.92C1794.21,-276.27 2274.96,-261.09 2430.5,-232 2438.28,-230.54 2446.44,-228.39 2454.2,-226.03"/>
<polygon fill="midnightblue" stroke="midnightblue" points="1620.07,-277.42 1610.17,-281.19 1620.26,-284.42 1620.07,-277.42"/>
</g>
<!-- Node35 -->
<g id="node35" class="node">
<title>Node35</title>
<g id="a_node35"><a xlink:href="../../da/de1/vpiecepath_8cpp.html" target="_top" xlink:title=" ">
<polygon fill="white" stroke="black" points="2564,-196 2564,-226 2671,-226 2671,-196 2564,-196"/>
<text text-anchor="start" x="2572" y="-214" font-family="Helvetica,sans-Serif" font-size="10.00">src/libs/vpatterndb</text>
<text text-anchor="middle" x="2617.5" y="-203" font-family="Helvetica,sans-Serif" font-size="10.00">/vpiecepath.cpp</text>
</a>
</g>
</g>
<!-- Node1&#45;&gt;Node35 -->
<g id="edge53" class="edge">
<title>Node1&#45;&gt;Node35</title>
<path fill="none" stroke="midnightblue" d="M1620.23,-281.45C1810.91,-277.98 2374.88,-265.11 2555.5,-232 2563.29,-230.57 2571.45,-228.43 2579.2,-226.07"/>
<polygon fill="midnightblue" stroke="midnightblue" points="1620.03,-277.96 1610.09,-281.64 1620.15,-284.96 1620.03,-277.96"/>
</g>
<!-- Node36 -->
<g id="node36" class="node">
<title>Node36</title>
<g id="a_node36"><a xlink:href="../../d3/d22/insert__nodes__dialog_8cpp.html" target="_top" xlink:title=" ">
<polygon fill="white" stroke="black" points="2689.5,-196 2689.5,-226 2853.5,-226 2853.5,-196 2689.5,-196"/>
<text text-anchor="start" x="2697.5" y="-214" font-family="Helvetica,sans-Serif" font-size="10.00">src/libs/vtools/dialogs</text>
<text text-anchor="middle" x="2771.5" y="-203" font-family="Helvetica,sans-Serif" font-size="10.00">/tools/insert_nodes_dialog.cpp</text>
</a>
</g>
</g>
<!-- Node1&#45;&gt;Node36 -->
<g id="edge55" class="edge">
<title>Node1&#45;&gt;Node36</title>
<path fill="none" stroke="midnightblue" d="M1620.21,-281.08C1826.25,-276.24 2473.14,-259.24 2680.5,-232 2691.57,-230.55 2703.28,-228.42 2714.48,-226.1"/>
<polygon fill="midnightblue" stroke="midnightblue" points="1620.07,-277.58 1610.16,-281.31 1620.24,-284.58 1620.07,-277.58"/>
</g>
<!-- Node37 -->
<g id="node37" class="node">
<title>Node37</title>
<g id="a_node37"><a xlink:href="../../de/d46/pattern__piece__dialog_8cpp.html" target="_top" xlink:title=" ">
<polygon fill="white" stroke="black" points="2872,-190.5 2872,-231.5 3015,-231.5 3015,-190.5 2872,-190.5"/>
<text text-anchor="start" x="2880" y="-219.5" font-family="Helvetica,sans-Serif" font-size="10.00">src/libs/vtools/dialogs</text>
<text text-anchor="start" x="2880" y="-208.5" font-family="Helvetica,sans-Serif" font-size="10.00">/tools/piece/pattern_piece</text>
<text text-anchor="middle" x="2943.5" y="-197.5" font-family="Helvetica,sans-Serif" font-size="10.00">_dialog.cpp</text>
</a>
</g>
</g>
<!-- Node1&#45;&gt;Node37 -->
<g id="edge56" class="edge">
<title>Node1&#45;&gt;Node37</title>
<path fill="none" stroke="midnightblue" d="M1620.32,-281.75C1847.81,-278.81 2618.41,-266.49 2862.5,-232 2865.51,-231.57 2868.57,-231.08 2871.66,-230.54"/>
<polygon fill="midnightblue" stroke="midnightblue" points="1620.18,-278.25 1610.22,-281.88 1620.27,-285.25 1620.18,-278.25"/>
</g>
<!-- Node38 -->
<g id="node38" class="node">
<title>Node38</title>
<g id="a_node38"><a xlink:href="../../d4/d7b/vnodepoint_8cpp.html" target="_top" xlink:title=" ">
<polygon fill="white" stroke="black" points="3033.5,-196 3033.5,-226 3189.5,-226 3189.5,-196 3033.5,-196"/>
<text text-anchor="start" x="3041.5" y="-214" font-family="Helvetica,sans-Serif" font-size="10.00">src/libs/vtools/tools</text>
<text text-anchor="middle" x="3111.5" y="-203" font-family="Helvetica,sans-Serif" font-size="10.00">/nodeDetails/vnodepoint.cpp</text>
</a>
</g>
</g>
<!-- Node1&#45;&gt;Node38 -->
<g id="edge57" class="edge">
<title>Node1&#45;&gt;Node38</title>
<path fill="none" stroke="midnightblue" d="M1620.27,-281.93C1865.36,-279.5 2746.87,-268.35 3024.5,-232 3035.41,-230.57 3046.96,-228.4 3057.96,-226"/>
<polygon fill="midnightblue" stroke="midnightblue" points="1620.07,-278.43 1610.11,-282.03 1620.14,-285.43 1620.07,-278.43"/>
</g>
<!-- Node39 -->
<g id="node39" class="node">
<title>Node39</title>
<g id="a_node39"><a xlink:href="../../d8/d76/scene__rect_8cpp.html" target="_top" xlink:title=" ">
<polygon fill="white" stroke="black" points="3207.5,-196 3207.5,-226 3337.5,-226 3337.5,-196 3207.5,-196"/>
<text text-anchor="start" x="3215.5" y="-214" font-family="Helvetica,sans-Serif" font-size="10.00">src/libs/vwidgets/scene</text>
<text text-anchor="middle" x="3272.5" y="-203" font-family="Helvetica,sans-Serif" font-size="10.00">_rect.cpp</text>
</a>
</g>
</g>
<!-- Node1&#45;&gt;Node39 -->
<g id="edge58" class="edge">
<title>Node1&#45;&gt;Node39</title>
<path fill="none" stroke="midnightblue" d="M1620.32,-282.52C1883.56,-282.31 2885.83,-278.41 3198.5,-232 3207.85,-230.61 3217.7,-228.46 3227.06,-226.06"/>
<polygon fill="midnightblue" stroke="midnightblue" points="1620.17,-279.02 1610.17,-282.53 1620.17,-286.02 1620.17,-279.02"/>
</g>
<!-- Node40 -->
<g id="node40" class="node">
<title>Node40</title>
<g id="a_node40"><a xlink:href="../../d0/d5d/vscenepoint_8cpp.html" target="_top" xlink:title=" ">
<polygon fill="white" stroke="black" points="3356,-201.5 3356,-220.5 3537,-220.5 3537,-201.5 3356,-201.5"/>
<text text-anchor="middle" x="3446.5" y="-208.5" font-family="Helvetica,sans-Serif" font-size="10.00">src/libs/vwidgets/vscenepoint.cpp</text>
</a>
</g>
</g>
<!-- Node1&#45;&gt;Node40 -->
<g id="edge59" class="edge">
<title>Node1&#45;&gt;Node40</title>
<path fill="none" stroke="midnightblue" d="M1620.4,-282.15C1898.15,-280.39 3001.86,-271.04 3346.5,-232 3368.14,-229.55 3392.07,-224.84 3411.09,-220.6"/>
<polygon fill="midnightblue" stroke="midnightblue" points="1620.08,-278.65 1610.1,-282.21 1620.12,-285.65 1620.08,-278.65"/>
</g>
<!-- Node41 -->
<g id="node41" class="node">
<title>Node41</title>
<g id="a_node41"><a xlink:href="../../df/d38/vsimplepoint_8cpp.html" target="_top" xlink:title=" ">
<polygon fill="white" stroke="black" points="3555,-201.5 3555,-220.5 3740,-220.5 3740,-201.5 3555,-201.5"/>
<text text-anchor="middle" x="3647.5" y="-208.5" font-family="Helvetica,sans-Serif" font-size="10.00">src/libs/vwidgets/vsimplepoint.cpp</text>
</a>
</g>
</g>
<!-- Node1&#45;&gt;Node41 -->
<g id="edge60" class="edge">
<title>Node1&#45;&gt;Node41</title>
<path fill="none" stroke="midnightblue" d="M1620.14,-282.34C1916.15,-281.38 3160.14,-274.84 3546.5,-232 3568.53,-229.56 3592.92,-224.79 3612.21,-220.52"/>
<polygon fill="midnightblue" stroke="midnightblue" points="1620.01,-278.84 1610.02,-282.37 1620.03,-285.84 1620.01,-278.84"/>
</g>
<!-- Node3&#45;&gt;Node2 -->
<g id="edge3" class="edge">
<title>Node3&#45;&gt;Node2</title>
<path fill="none" stroke="midnightblue" d="M81.16,-187.06C74.78,-176.09 67.34,-163.3 61.78,-153.75"/>
<polygon fill="midnightblue" stroke="midnightblue" points="78.15,-188.85 86.2,-195.73 84.2,-185.33 78.15,-188.85"/>
</g>
<!-- Node6 -->
<g id="node6" class="node">
<title>Node6</title>
<g id="a_node6"><a xlink:href="../../d5/ded/varc_8cpp.html" target="_top" xlink:title=" ">
<polygon fill="white" stroke="black" points="653,-123.5 653,-153.5 760,-153.5 760,-123.5 653,-123.5"/>
<text text-anchor="start" x="661" y="-141.5" font-family="Helvetica,sans-Serif" font-size="10.00">src/libs/vgeometry</text>
<text text-anchor="middle" x="706.5" y="-130.5" font-family="Helvetica,sans-Serif" font-size="10.00">/varc.cpp</text>
</a>
</g>
</g>
<!-- Node5&#45;&gt;Node6 -->
<g id="edge6" class="edge">
<title>Node5&#45;&gt;Node6</title>
<path fill="none" stroke="midnightblue" d="M680.37,-186.73C686.4,-175.83 693.39,-163.2 698.62,-153.75"/>
<polygon fill="midnightblue" stroke="midnightblue" points="677.17,-185.29 675.39,-195.73 683.3,-188.68 677.17,-185.29"/>
</g>
<!-- Node5&#45;&gt;Node7 -->
<g id="edge7" class="edge">
<title>Node5&#45;&gt;Node7</title>
<path fill="none" stroke="midnightblue" d="M709.74,-191.84C737.46,-179.92 773.19,-164.57 798.76,-153.57"/>
<polygon fill="midnightblue" stroke="midnightblue" points="708.1,-188.74 700.29,-195.9 710.86,-195.17 708.1,-188.74"/>
</g>
<!-- Node5&#45;&gt;Node8 -->
<g id="edge8" class="edge">
<title>Node5&#45;&gt;Node8</title>
<path fill="none" stroke="midnightblue" d="M642.23,-189.29C628.18,-177.77 611.06,-163.73 598.58,-153.5"/>
<polygon fill="midnightblue" stroke="midnightblue" points="640.14,-192.1 650.1,-195.73 644.58,-186.69 640.14,-192.1"/>
</g>
<!-- Node10 -->
<g id="node10" class="node">
<title>Node10</title>
<g id="a_node10"><a xlink:href="../../d2/d26/vcubicbezier_8cpp.html" target="_top" xlink:title=" ">
<polygon fill="white" stroke="black" points="364,-123.5 364,-153.5 471,-153.5 471,-123.5 364,-123.5"/>
<text text-anchor="start" x="372" y="-141.5" font-family="Helvetica,sans-Serif" font-size="10.00">src/libs/vgeometry</text>
<text text-anchor="middle" x="417.5" y="-130.5" font-family="Helvetica,sans-Serif" font-size="10.00">/vcubicbezier.cpp</text>
</a>
</g>
</g>
<!-- Node9&#45;&gt;Node10 -->
<g id="edge10" class="edge">
<title>Node9&#45;&gt;Node10</title>
<path fill="none" stroke="midnightblue" d="M391.37,-186.73C397.4,-175.83 404.39,-163.2 409.62,-153.75"/>
<polygon fill="midnightblue" stroke="midnightblue" points="388.17,-185.29 386.39,-195.73 394.3,-188.68 388.17,-185.29"/>
</g>
<!-- Node11&#45;&gt;Node10 -->
<g id="edge12" class="edge">
<title>Node11&#45;&gt;Node10</title>
<path fill="none" stroke="midnightblue" d="M478.23,-189.29C464.18,-177.77 447.06,-163.73 434.58,-153.5"/>
<polygon fill="midnightblue" stroke="midnightblue" points="476.14,-192.1 486.1,-195.73 480.58,-186.69 476.14,-192.1"/>
</g>
<!-- Node14 -->
<g id="node14" class="node">
<title>Node14</title>
<g id="a_node14"><a xlink:href="../../de/df0/vcubicbezierpath_8cpp.html" target="_top" xlink:title=" ">
<polygon fill="white" stroke="black" points="1410,-123.5 1410,-153.5 1533,-153.5 1533,-123.5 1410,-123.5"/>
<text text-anchor="start" x="1418" y="-141.5" font-family="Helvetica,sans-Serif" font-size="10.00">src/libs/vgeometry</text>
<text text-anchor="middle" x="1471.5" y="-130.5" font-family="Helvetica,sans-Serif" font-size="10.00">/vcubicbezierpath.cpp</text>
</a>
</g>
</g>
<!-- Node13&#45;&gt;Node14 -->
<g id="edge15" class="edge">
<title>Node13&#45;&gt;Node14</title>
<path fill="none" stroke="midnightblue" d="M1405.4,-189.61C1420.67,-178.03 1439.41,-163.83 1453.03,-153.5"/>
<polygon fill="midnightblue" stroke="midnightblue" points="1403.17,-186.9 1397.32,-195.73 1407.4,-192.48 1403.17,-186.9"/>
</g>
<!-- Node15&#45;&gt;Node14 -->
<g id="edge17" class="edge">
<title>Node15&#45;&gt;Node14</title>
<path fill="none" stroke="midnightblue" d="M1500.51,-187.06C1493.81,-176.09 1486.01,-163.3 1480.19,-153.75"/>
<polygon fill="midnightblue" stroke="midnightblue" points="1497.6,-189.02 1505.8,-195.73 1503.58,-185.37 1497.6,-189.02"/>
</g>
<!-- Node16&#45;&gt;Node7 -->
<g id="edge20" class="edge">
<title>Node16&#45;&gt;Node7</title>
<path fill="none" stroke="midnightblue" d="M831.5,-185.73C831.5,-175.07 831.5,-162.91 831.5,-153.75"/>
<polygon fill="midnightblue" stroke="midnightblue" points="828,-185.73 831.5,-195.73 835,-185.73 828,-185.73"/>
</g>
<!-- Node17 -->
<g id="node17" class="node">
<title>Node17</title>
<g id="a_node17"><a xlink:href="../../d6/dfb/vellipticalarc_8cpp.html" target="_top" xlink:title=" ">
<polygon fill="white" stroke="black" points="903,-123.5 903,-153.5 1010,-153.5 1010,-123.5 903,-123.5"/>
<text text-anchor="start" x="911" y="-141.5" font-family="Helvetica,sans-Serif" font-size="10.00">src/libs/vgeometry</text>
<text text-anchor="middle" x="956.5" y="-130.5" font-family="Helvetica,sans-Serif" font-size="10.00">/vellipticalarc.cpp</text>
</a>
</g>
</g>
<!-- Node16&#45;&gt;Node17 -->
<g id="edge19" class="edge">
<title>Node16&#45;&gt;Node17</title>
<path fill="none" stroke="midnightblue" d="M865.37,-190.9C886.25,-179.12 912.57,-164.28 931.55,-153.57"/>
<polygon fill="midnightblue" stroke="midnightblue" points="863.49,-187.94 856.5,-195.9 866.92,-194.04 863.49,-187.94"/>
</g>
<!-- Node18&#45;&gt;Node17 -->
<g id="edge22" class="edge">
<title>Node18&#45;&gt;Node17</title>
<path fill="none" stroke="midnightblue" d="M956.5,-185.73C956.5,-175.07 956.5,-162.91 956.5,-153.75"/>
<polygon fill="midnightblue" stroke="midnightblue" points="953,-185.73 956.5,-195.73 960,-185.73 953,-185.73"/>
</g>
<!-- Node20 -->
<g id="node20" class="node">
<title>Node20</title>
<g id="a_node20"><a xlink:href="../../d5/dd2/vspline_8cpp.html" target="_top" xlink:title=" ">
<polygon fill="white" stroke="black" points="1248,-123.5 1248,-153.5 1355,-153.5 1355,-123.5 1248,-123.5"/>
<text text-anchor="start" x="1256" y="-141.5" font-family="Helvetica,sans-Serif" font-size="10.00">src/libs/vgeometry</text>
<text text-anchor="middle" x="1301.5" y="-130.5" font-family="Helvetica,sans-Serif" font-size="10.00">/vspline.cpp</text>
</a>
</g>
</g>
<!-- Node19&#45;&gt;Node20 -->
<g id="edge24" class="edge">
<title>Node19&#45;&gt;Node20</title>
<path fill="none" stroke="midnightblue" d="M1263.2,-187.71C1272.03,-176.6 1282.45,-163.49 1290.18,-153.75"/>
<polygon fill="midnightblue" stroke="midnightblue" points="1260.31,-185.73 1256.83,-195.73 1265.79,-190.08 1260.31,-185.73"/>
</g>
<!-- Node21&#45;&gt;Node6 -->
<g id="edge26" class="edge">
<title>Node21&#45;&gt;Node6</title>
<path fill="none" stroke="midnightblue" d="M1057.04,-196.91C1044.62,-194.49 1031.67,-192.08 1019.5,-190 908.85,-171.09 879.85,-174.61 769.5,-154 766.41,-153.42 763.24,-152.8 760.05,-152.14"/>
<polygon fill="midnightblue" stroke="midnightblue" points="1056.38,-200.34 1066.87,-198.84 1057.73,-193.47 1056.38,-200.34"/>
</g>
<!-- Node21&#45;&gt;Node7 -->
<g id="edge36" class="edge">
<title>Node21&#45;&gt;Node7</title>
<path fill="none" stroke="midnightblue" d="M1056.82,-194.47C1005.44,-181.93 933.96,-164.49 885.38,-152.64"/>
<polygon fill="midnightblue" stroke="midnightblue" points="1056.27,-197.93 1066.82,-196.9 1057.93,-191.13 1056.27,-197.93"/>
</g>
<!-- Node21&#45;&gt;Node12 -->
<g id="edge27" class="edge">
<title>Node21&#45;&gt;Node12</title>
<path fill="none" stroke="midnightblue" d="M1116.71,-185.73C1115.05,-175.07 1113.15,-162.91 1111.72,-153.75"/>
<polygon fill="midnightblue" stroke="midnightblue" points="1113.27,-186.39 1118.27,-195.73 1120.19,-185.31 1113.27,-186.39"/>
</g>
<!-- Node21&#45;&gt;Node14 -->
<g id="edge28" class="edge">
<title>Node21&#45;&gt;Node14</title>
<path fill="none" stroke="midnightblue" d="M1171.76,-193.11C1175.71,-191.99 1179.66,-190.94 1183.5,-190 1260.66,-171.08 1351.11,-156.42 1409.77,-147.88"/>
<polygon fill="midnightblue" stroke="midnightblue" points="1170.57,-189.8 1161.96,-195.97 1172.54,-196.52 1170.57,-189.8"/>
</g>
<!-- Node21&#45;&gt;Node17 -->
<g id="edge29" class="edge">
<title>Node21&#45;&gt;Node17</title>
<path fill="none" stroke="midnightblue" d="M1078.26,-191.84C1050.54,-179.92 1014.81,-164.57 989.24,-153.57"/>
<polygon fill="midnightblue" stroke="midnightblue" points="1077.14,-195.17 1087.71,-195.9 1079.9,-188.74 1077.14,-195.17"/>
</g>
<!-- Node21&#45;&gt;Node20 -->
<g id="edge30" class="edge">
<title>Node21&#45;&gt;Node20</title>
<path fill="none" stroke="midnightblue" d="M1166.32,-192.15C1197.03,-180.19 1236.9,-164.66 1265.37,-153.57"/>
<polygon fill="midnightblue" stroke="midnightblue" points="1164.74,-189.01 1156.69,-195.9 1167.28,-195.53 1164.74,-189.01"/>
</g>
<!-- Node21&#45;&gt;Node22 -->
<g id="edge31" class="edge">
<title>Node21&#45;&gt;Node22</title>
<path fill="none" stroke="midnightblue" d="M1170.2,-193.18C1174.67,-191.98 1179.15,-190.9 1183.5,-190 1340.54,-157.57 1382.98,-170.38 1542.5,-154 1570.3,-151.15 1601.24,-147.9 1626.77,-145.21"/>
<polygon fill="midnightblue" stroke="midnightblue" points="1169.16,-189.83 1160.5,-195.94 1171.08,-196.57 1169.16,-189.83"/>
</g>
<!-- Node21&#45;&gt;Node24 -->
<g id="edge37" class="edge">
<title>Node21&#45;&gt;Node24</title>
<path fill="none" stroke="midnightblue" d="M1149.98,-190C1165.22,-179.5 1184.03,-166.29 1200.5,-154 1218.24,-140.76 1219.48,-132.46 1239.5,-123 1287.98,-100.08 1347,-87.45 1393.76,-80.55"/>
<polygon fill="midnightblue" stroke="midnightblue" points="1147.73,-187.3 1141.47,-195.84 1151.69,-193.07 1147.73,-187.3"/>
</g>
<!-- Node23 -->
<g id="node23" class="node">
<title>Node23</title>
<g id="a_node23"><a xlink:href="../../db/d6a/vsplinepath_8cpp.html" target="_top" xlink:title=" ">
<polygon fill="white" stroke="black" points="1795,-56.5 1795,-86.5 1902,-86.5 1902,-56.5 1795,-56.5"/>
<text text-anchor="start" x="1803" y="-74.5" font-family="Helvetica,sans-Serif" font-size="10.00">src/libs/vgeometry</text>
<text text-anchor="middle" x="1848.5" y="-63.5" font-family="Helvetica,sans-Serif" font-size="10.00">/vsplinepath.cpp</text>
</a>
</g>
</g>
<!-- Node22&#45;&gt;Node23 -->
<g id="edge32" class="edge">
<title>Node22&#45;&gt;Node23</title>
<path fill="none" stroke="midnightblue" d="M1726.55,-119.68C1753.5,-109.26 1787.04,-96.28 1812.12,-86.58"/>
<polygon fill="midnightblue" stroke="midnightblue" points="1725.02,-116.52 1716.95,-123.4 1727.54,-123.05 1725.02,-116.52"/>
</g>
<!-- Node22&#45;&gt;Node24 -->
<g id="edge33" class="edge">
<title>Node22&#45;&gt;Node24</title>
<path fill="none" stroke="midnightblue" d="M1626.4,-120.43C1586.23,-107.75 1533.13,-91 1501.53,-81.03"/>
<polygon fill="midnightblue" stroke="midnightblue" points="1625.46,-123.8 1636.05,-123.48 1627.57,-117.13 1625.46,-123.8"/>
</g>
<!-- Node25 -->
<g id="node25" class="node">
<title>Node25</title>
<g id="a_node25"><a xlink:href="../../d8/d13/vcontrolpointspline_8h.html" target="_top" xlink:title=" ">
<polygon fill="white" stroke="black" points="1573.5,-62 1573.5,-81 1777.5,-81 1777.5,-62 1573.5,-62"/>
<text text-anchor="middle" x="1675.5" y="-69" font-family="Helvetica,sans-Serif" font-size="10.00">src/libs/vwidgets/vcontrolpointspline.h</text>
</a>
</g>
</g>
<!-- Node22&#45;&gt;Node25 -->
<g id="edge34" class="edge">
<title>Node22&#45;&gt;Node25</title>
<path fill="none" stroke="midnightblue" d="M1678.63,-113.25C1677.77,-102.02 1676.8,-89.38 1676.17,-81.19"/>
<polygon fill="midnightblue" stroke="midnightblue" points="1675.16,-113.69 1679.42,-123.4 1682.14,-113.16 1675.16,-113.69"/>
</g>
<!-- Node26 -->
<g id="node26" class="node">
<title>Node26</title>
<g id="a_node26"><a xlink:href="../../de/d45/vcontrolpointspline_8cpp.html" target="_top" xlink:title=" ">
<polygon fill="white" stroke="black" points="1568,-0.5 1568,-19.5 1783,-19.5 1783,-0.5 1568,-0.5"/>
<text text-anchor="middle" x="1675.5" y="-7.5" font-family="Helvetica,sans-Serif" font-size="10.00">src/libs/vwidgets/vcontrolpointspline.cpp</text>
</a>
</g>
</g>
<!-- Node25&#45;&gt;Node26 -->
<g id="edge35" class="edge">
<title>Node25&#45;&gt;Node26</title>
<path fill="none" stroke="midnightblue" d="M1675.5,-51.82C1675.5,-41 1675.5,-27.9 1675.5,-19.51"/>
<polygon fill="midnightblue" stroke="midnightblue" points="1672,-51.98 1675.5,-61.98 1679,-51.98 1672,-51.98"/>
</g>
<!-- Node28&#45;&gt;Node14 -->
<g id="edge40" class="edge">
<title>Node28&#45;&gt;Node14</title>
<path fill="none" stroke="midnightblue" d="M1793.26,-193.1C1789.3,-191.98 1785.35,-190.93 1781.5,-190 1696.42,-169.47 1596.17,-154.83 1533.22,-146.77"/>
<polygon fill="midnightblue" stroke="midnightblue" points="1792.48,-196.51 1803.06,-195.99 1794.46,-189.8 1792.48,-196.51"/>
</g>
<!-- Node28&#45;&gt;Node22 -->
<g id="edge44" class="edge">
<title>Node28&#45;&gt;Node22</title>
<path fill="none" stroke="midnightblue" d="M1801.52,-191.84C1773.96,-179.92 1738.45,-164.57 1713.04,-153.57"/>
<polygon fill="midnightblue" stroke="midnightblue" points="1800.34,-195.15 1810.91,-195.9 1803.12,-188.72 1800.34,-195.15"/>
</g>
<!-- Node29 -->
<g id="node29" class="node">
<title>Node29</title>
<g id="a_node29"><a xlink:href="../../d0/dd8/vsplinepath__p_8h.html" target="_top" xlink:title=" ">
<polygon fill="white" stroke="black" points="1790,-123.5 1790,-153.5 1897,-153.5 1897,-123.5 1790,-123.5"/>
<text text-anchor="start" x="1798" y="-141.5" font-family="Helvetica,sans-Serif" font-size="10.00">src/libs/vgeometry</text>
<text text-anchor="middle" x="1843.5" y="-130.5" font-family="Helvetica,sans-Serif" font-size="10.00">/vsplinepath_p.h</text>
</a>
</g>
</g>
<!-- Node28&#45;&gt;Node29 -->
<g id="edge41" class="edge">
<title>Node28&#45;&gt;Node29</title>
<path fill="none" stroke="midnightblue" d="M1843.5,-185.73C1843.5,-175.07 1843.5,-162.91 1843.5,-153.75"/>
<polygon fill="midnightblue" stroke="midnightblue" points="1840,-185.73 1843.5,-195.73 1847,-185.73 1840,-185.73"/>
</g>
<!-- Node30 -->
<g id="node30" class="node">
<title>Node30</title>
<g id="a_node30"><a xlink:href="../../d5/d81/vsplinepoint_8cpp.html" target="_top" xlink:title=" ">
<polygon fill="white" stroke="black" points="1915,-123.5 1915,-153.5 2022,-153.5 2022,-123.5 1915,-123.5"/>
<text text-anchor="start" x="1923" y="-141.5" font-family="Helvetica,sans-Serif" font-size="10.00">src/libs/vgeometry</text>
<text text-anchor="middle" x="1968.5" y="-130.5" font-family="Helvetica,sans-Serif" font-size="10.00">/vsplinepoint.cpp</text>
</a>
</g>
</g>
<!-- Node28&#45;&gt;Node30 -->
<g id="edge43" class="edge">
<title>Node28&#45;&gt;Node30</title>
<path fill="none" stroke="midnightblue" d="M1877.37,-190.9C1898.25,-179.12 1924.57,-164.28 1943.55,-153.57"/>
<polygon fill="midnightblue" stroke="midnightblue" points="1875.49,-187.94 1868.5,-195.9 1878.92,-194.04 1875.49,-187.94"/>
</g>
<!-- Node29&#45;&gt;Node23 -->
<g id="edge42" class="edge">
<title>Node29&#45;&gt;Node23</title>
<path fill="none" stroke="midnightblue" d="M1845.35,-113.4C1846.05,-104.37 1846.81,-94.41 1847.42,-86.58"/>
<polygon fill="midnightblue" stroke="midnightblue" points="1841.86,-113.16 1844.58,-123.4 1848.84,-113.69 1841.86,-113.16"/>
</g>
<!-- Node31&#45;&gt;Node30 -->
<g id="edge47" class="edge">
<title>Node31&#45;&gt;Node30</title>
<path fill="none" stroke="midnightblue" d="M1968.5,-185.73C1968.5,-175.07 1968.5,-162.91 1968.5,-153.75"/>
<polygon fill="midnightblue" stroke="midnightblue" points="1965,-185.73 1968.5,-195.73 1972,-185.73 1965,-185.73"/>
</g>
</g>
</svg>
