<?xml version="1.0" encoding="UTF-8" standalone="no"?>
<!DOCTYPE svg PUBLIC "-//W3C//DTD SVG 1.1//EN"
 "http://www.w3.org/Graphics/SVG/1.1/DTD/svg11.dtd">
<!-- Generated by graphviz version 2.43.0 (0)
 -->
<!-- Title: src/libs/vpatterndb/vcontainer.h Pages: 1 -->
<svg width="7108pt" height="251pt"
 viewBox="0.00 0.00 7108.00 251.00" xmlns="http://www.w3.org/2000/svg" xmlns:xlink="http://www.w3.org/1999/xlink">
<g id="graph0" class="graph" transform="scale(1 1) rotate(0) translate(4 247)">
<title>src/libs/vpatterndb/vcontainer.h</title>
<polygon fill="white" stroke="transparent" points="-4,4 -4,-247 7104,-247 7104,4 -4,4"/>
<!-- Node1 -->
<g id="node1" class="node">
<title>Node1</title>
<g id="a_node1"><a xlink:title=" ">
<polygon fill="#bfbfbf" stroke="black" points="6107.5,-212.5 6107.5,-242.5 6214.5,-242.5 6214.5,-212.5 6107.5,-212.5"/>
<text text-anchor="start" x="6115.5" y="-230.5" font-family="Helvetica,sans-Serif" font-size="10.00">src/libs/vpatterndb</text>
<text text-anchor="middle" x="6161" y="-219.5" font-family="Helvetica,sans-Serif" font-size="10.00">/vcontainer.h</text>
</a>
</g>
</g>
<!-- Node2 -->
<g id="node2" class="node">
<title>Node2</title>
<g id="a_node2"><a xlink:href="../../dc/db7/measurements_8h.html" target="_top" xlink:title=" ">
<polygon fill="white" stroke="black" points="138.5,-145.5 138.5,-164.5 317.5,-164.5 317.5,-145.5 138.5,-145.5"/>
<text text-anchor="middle" x="228" y="-152.5" font-family="Helvetica,sans-Serif" font-size="10.00">src/libs/vformat/measurements.h</text>
</a>
</g>
</g>
<!-- Node1&#45;&gt;Node2 -->
<g id="edge1" class="edge">
<title>Node1&#45;&gt;Node2</title>
<path fill="none" stroke="midnightblue" d="M6097.18,-226.32C5557.15,-224.72 1744.4,-212.28 597,-176 501.61,-172.98 392.49,-166.72 317.8,-162"/>
<polygon fill="midnightblue" stroke="midnightblue" points="6097.48,-229.82 6107.49,-226.35 6097.5,-222.82 6097.48,-229.82"/>
</g>
<!-- Node3 -->
<g id="node3" class="node">
<title>Node3</title>
<g id="a_node3"><a xlink:href="../../d9/de3/measurements_8cpp.html" target="_top" xlink:title=" ">
<polygon fill="white" stroke="black" points="0,-73 0,-92 190,-92 190,-73 0,-73"/>
<text text-anchor="middle" x="95" y="-80" font-family="Helvetica,sans-Serif" font-size="10.00">src/libs/vformat/measurements.cpp</text>
</a>
</g>
</g>
<!-- Node1&#45;&gt;Node3 -->
<g id="edge3" class="edge">
<title>Node1&#45;&gt;Node3</title>
<path fill="none" stroke="midnightblue" d="M6097.27,-226.4C5527.72,-225.45 1319.62,-217.07 762,-176 527.36,-158.72 249.43,-111.44 141.28,-92.01"/>
<polygon fill="midnightblue" stroke="midnightblue" points="6097.35,-229.9 6107.35,-226.42 6097.36,-222.9 6097.35,-229.9"/>
</g>
<!-- Node4 -->
<g id="node4" class="node">
<title>Node4</title>
<g id="a_node4"><a xlink:href="../../d6/de0/vlayoutpiece_8h.html" target="_top" xlink:title=" ">
<polygon fill="white" stroke="black" points="771,-145.5 771,-164.5 937,-164.5 937,-145.5 771,-145.5"/>
<text text-anchor="middle" x="854" y="-152.5" font-family="Helvetica,sans-Serif" font-size="10.00">src/libs/vlayout/vlayoutpiece.h</text>
</a>
</g>
</g>
<!-- Node1&#45;&gt;Node4 -->
<g id="edge4" class="edge">
<title>Node1&#45;&gt;Node4</title>
<path fill="none" stroke="midnightblue" d="M6096.98,-225.65C5542.89,-218.29 1563.82,-165.43 937.02,-157.1"/>
<polygon fill="midnightblue" stroke="midnightblue" points="6097.14,-229.15 6107.18,-225.79 6097.23,-222.15 6097.14,-229.15"/>
</g>
<!-- Node14 -->
<g id="node13" class="node">
<title>Node14</title>
<g id="a_node13"><a xlink:href="../../d8/d70/vtextmanager_8cpp.html" target="_top" xlink:title=" ">
<polygon fill="white" stroke="black" points="1530,-73 1530,-92 1712,-92 1712,-73 1530,-73"/>
<text text-anchor="middle" x="1621" y="-80" font-family="Helvetica,sans-Serif" font-size="10.00">src/libs/vlayout/vtextmanager.cpp</text>
</a>
</g>
</g>
<!-- Node1&#45;&gt;Node14 -->
<g id="edge15" class="edge">
<title>Node1&#45;&gt;Node14</title>
<path fill="none" stroke="midnightblue" d="M6097.14,-225C5851.07,-219.2 4940.72,-197.45 4191,-176 3093.12,-144.59 2815.1,-194.29 1721,-98 1705.01,-96.59 1687.68,-94.34 1672,-92.02"/>
<polygon fill="midnightblue" stroke="midnightblue" points="6097.25,-228.5 6107.33,-225.24 6097.41,-221.51 6097.25,-228.5"/>
</g>
<!-- Node15 -->
<g id="node14" class="node">
<title>Node15</title>
<g id="a_node14"><a xlink:href="../../d5/d74/vabstractapplication_8h.html" target="_top" xlink:title=" ">
<polygon fill="white" stroke="red" points="4200.5,-145.5 4200.5,-164.5 4395.5,-164.5 4395.5,-145.5 4200.5,-145.5"/>
<text text-anchor="middle" x="4298" y="-152.5" font-family="Helvetica,sans-Serif" font-size="10.00">src/libs/vmisc/vabstractapplication.h</text>
</a>
</g>
</g>
<!-- Node1&#45;&gt;Node15 -->
<g id="edge16" class="edge">
<title>Node1&#45;&gt;Node15</title>
<path fill="none" stroke="midnightblue" d="M6097.01,-224.08C5820.82,-213.63 4729.88,-172.34 4395.77,-159.7"/>
<polygon fill="midnightblue" stroke="midnightblue" points="6097.13,-227.59 6107.25,-224.47 6097.39,-220.59 6097.13,-227.59"/>
</g>
<!-- Node33 -->
<g id="node28" class="node">
<title>Node33</title>
<g id="a_node28"><a xlink:href="../../db/d11/vformula_8cpp.html" target="_top" xlink:title=" ">
<polygon fill="white" stroke="black" points="5966.5,-67.5 5966.5,-97.5 6073.5,-97.5 6073.5,-67.5 5966.5,-67.5"/>
<text text-anchor="start" x="5974.5" y="-85.5" font-family="Helvetica,sans-Serif" font-size="10.00">src/libs/vpatterndb</text>
<text text-anchor="middle" x="6020" y="-74.5" font-family="Helvetica,sans-Serif" font-size="10.00">/vformula.cpp</text>
</a>
</g>
</g>
<!-- Node1&#45;&gt;Node33 -->
<g id="edge52" class="edge">
<title>Node1&#45;&gt;Node33</title>
<path fill="none" stroke="midnightblue" d="M6139.7,-204.9C6110.48,-175.26 6058.75,-122.8 6033.98,-97.68"/>
<polygon fill="midnightblue" stroke="midnightblue" points="6137.45,-207.6 6146.96,-212.27 6142.44,-202.69 6137.45,-207.6"/>
</g>
<!-- Node34 -->
<g id="node29" class="node">
<title>Node34</title>
<g id="a_node29"><a xlink:href="../../df/d7a/vpiece_8cpp.html" target="_top" xlink:title=" ">
<polygon fill="white" stroke="black" points="6091.5,-67.5 6091.5,-97.5 6198.5,-97.5 6198.5,-67.5 6091.5,-67.5"/>
<text text-anchor="start" x="6099.5" y="-85.5" font-family="Helvetica,sans-Serif" font-size="10.00">src/libs/vpatterndb</text>
<text text-anchor="middle" x="6145" y="-74.5" font-family="Helvetica,sans-Serif" font-size="10.00">/vpiece.cpp</text>
</a>
</g>
</g>
<!-- Node1&#45;&gt;Node34 -->
<g id="edge54" class="edge">
<title>Node1&#45;&gt;Node34</title>
<path fill="none" stroke="midnightblue" d="M6153,-202.37C6150.61,-194.1 6148.28,-184.73 6147,-176 6142.96,-148.51 6143.46,-115.93 6144.22,-97.7"/>
<polygon fill="midnightblue" stroke="midnightblue" points="6149.71,-203.58 6155.98,-212.12 6156.4,-201.53 6149.71,-203.58"/>
</g>
<!-- Node36 -->
<g id="node31" class="node">
<title>Node36</title>
<g id="a_node31"><a xlink:href="../../d8/dba/vpiecenode_8cpp.html" target="_top" xlink:title=" ">
<polygon fill="white" stroke="black" points="5929.5,-0.5 5929.5,-30.5 6036.5,-30.5 6036.5,-0.5 5929.5,-0.5"/>
<text text-anchor="start" x="5937.5" y="-18.5" font-family="Helvetica,sans-Serif" font-size="10.00">src/libs/vpatterndb</text>
<text text-anchor="middle" x="5983" y="-7.5" font-family="Helvetica,sans-Serif" font-size="10.00">/vpiecenode.cpp</text>
</a>
</g>
</g>
<!-- Node1&#45;&gt;Node36 -->
<g id="edge55" class="edge">
<title>Node1&#45;&gt;Node36</title>
<path fill="none" stroke="midnightblue" d="M6172.81,-203.4C6185.57,-179.26 6205.71,-143.56 6218,-134 6260.28,-101.12 6301.29,-141.16 6333,-98 6341.16,-86.9 6342.02,-77.41 6333,-67 6295.32,-23.49 6125.08,-16.63 6036.67,-16.07"/>
<polygon fill="midnightblue" stroke="midnightblue" points="6169.68,-201.84 6168.16,-212.32 6175.89,-205.08 6169.68,-201.84"/>
</g>
<!-- Node38 -->
<g id="node33" class="node">
<title>Node38</title>
<g id="a_node33"><a xlink:href="../../d6/d46/vcontainer_8cpp.html" target="_top" xlink:title=" ">
<polygon fill="white" stroke="black" points="6216.5,-67.5 6216.5,-97.5 6323.5,-97.5 6323.5,-67.5 6216.5,-67.5"/>
<text text-anchor="start" x="6224.5" y="-85.5" font-family="Helvetica,sans-Serif" font-size="10.00">src/libs/vpatterndb</text>
<text text-anchor="middle" x="6270" y="-74.5" font-family="Helvetica,sans-Serif" font-size="10.00">/vcontainer.cpp</text>
</a>
</g>
</g>
<!-- Node1&#45;&gt;Node38 -->
<g id="edge57" class="edge">
<title>Node1&#45;&gt;Node38</title>
<path fill="none" stroke="midnightblue" d="M6162.28,-202.03C6164.43,-181.99 6170.12,-153.81 6185,-134 6197.17,-117.81 6216.18,-105.81 6233.14,-97.59"/>
<polygon fill="midnightblue" stroke="midnightblue" points="6158.77,-201.96 6161.41,-212.22 6165.74,-202.55 6158.77,-201.96"/>
</g>
<!-- Node54 -->
<g id="node45" class="node">
<title>Node54</title>
<g id="a_node45"><a xlink:href="../../d7/d8a/measurement__variable__p_8h.html" target="_top" xlink:title=" ">
<polygon fill="white" stroke="red" points="6227,-134.5 6227,-175.5 6363,-175.5 6363,-134.5 6227,-134.5"/>
<text text-anchor="start" x="6235" y="-163.5" font-family="Helvetica,sans-Serif" font-size="10.00">src/libs/vpatterndb</text>
<text text-anchor="start" x="6235" y="-152.5" font-family="Helvetica,sans-Serif" font-size="10.00">/variables/measurement</text>
<text text-anchor="middle" x="6295" y="-141.5" font-family="Helvetica,sans-Serif" font-size="10.00">_variable_p.h</text>
</a>
</g>
</g>
<!-- Node1&#45;&gt;Node54 -->
<g id="edge50" class="edge">
<title>Node1&#45;&gt;Node54</title>
<path fill="none" stroke="midnightblue" d="M6196.69,-207.72C6215.57,-197.79 6238.75,-185.6 6257.85,-175.55"/>
<polygon fill="midnightblue" stroke="midnightblue" points="6195.02,-204.65 6187.79,-212.4 6198.27,-210.84 6195.02,-204.65"/>
</g>
<!-- Node56 -->
<g id="node46" class="node">
<title>Node56</title>
<g id="a_node46"><a xlink:href="../../d1/de1/vincrement__p_8h.html" target="_top" xlink:title=" ">
<polygon fill="white" stroke="red" points="6381.5,-140 6381.5,-170 6524.5,-170 6524.5,-140 6381.5,-140"/>
<text text-anchor="start" x="6389.5" y="-158" font-family="Helvetica,sans-Serif" font-size="10.00">src/libs/vpatterndb</text>
<text text-anchor="middle" x="6453" y="-147" font-family="Helvetica,sans-Serif" font-size="10.00">/variables/vincrement_p.h</text>
</a>
</g>
</g>
<!-- Node1&#45;&gt;Node56 -->
<g id="edge51" class="edge">
<title>Node1&#45;&gt;Node56</title>
<path fill="none" stroke="midnightblue" d="M6224.59,-211.41C6266.48,-201.43 6322.53,-188.03 6372,-176 6379.88,-174.08 6388.19,-172.05 6396.36,-170.04"/>
<polygon fill="midnightblue" stroke="midnightblue" points="6223.71,-208.02 6214.79,-213.74 6225.33,-214.83 6223.71,-208.02"/>
</g>
<!-- Node58 -->
<g id="node47" class="node">
<title>Node58</title>
<g id="a_node47"><a xlink:href="../../d6/d91/vnodedetail_8cpp.html" target="_top" xlink:title=" ">
<polygon fill="white" stroke="black" points="6542.5,-140 6542.5,-170 6649.5,-170 6649.5,-140 6542.5,-140"/>
<text text-anchor="start" x="6550.5" y="-158" font-family="Helvetica,sans-Serif" font-size="10.00">src/libs/vpatterndb</text>
<text text-anchor="middle" x="6596" y="-147" font-family="Helvetica,sans-Serif" font-size="10.00">/vnodedetail.cpp</text>
</a>
</g>
</g>
<!-- Node1&#45;&gt;Node58 -->
<g id="edge53" class="edge">
<title>Node1&#45;&gt;Node58</title>
<path fill="none" stroke="midnightblue" d="M6224.85,-221.33C6299.62,-214.48 6426.88,-200.33 6534,-176 6541.17,-174.37 6548.69,-172.28 6555.93,-170.07"/>
<polygon fill="midnightblue" stroke="midnightblue" points="6224.3,-217.87 6214.65,-222.25 6224.93,-224.84 6224.3,-217.87"/>
</g>
<!-- Node59 -->
<g id="node48" class="node">
<title>Node59</title>
<g id="a_node48"><a xlink:href="../../da/de1/vpiecepath_8cpp.html" target="_top" xlink:title=" ">
<polygon fill="white" stroke="black" points="6667.5,-140 6667.5,-170 6774.5,-170 6774.5,-140 6667.5,-140"/>
<text text-anchor="start" x="6675.5" y="-158" font-family="Helvetica,sans-Serif" font-size="10.00">src/libs/vpatterndb</text>
<text text-anchor="middle" x="6721" y="-147" font-family="Helvetica,sans-Serif" font-size="10.00">/vpiecepath.cpp</text>
</a>
</g>
</g>
<!-- Node1&#45;&gt;Node59 -->
<g id="edge56" class="edge">
<title>Node1&#45;&gt;Node59</title>
<path fill="none" stroke="midnightblue" d="M6224.69,-224.34C6320.04,-220.13 6505.13,-208.24 6659,-176 6666.42,-174.45 6674.2,-172.34 6681.65,-170.07"/>
<polygon fill="midnightblue" stroke="midnightblue" points="6224.47,-220.84 6214.63,-224.77 6224.77,-227.84 6224.47,-220.84"/>
</g>
<!-- Node60 -->
<g id="node49" class="node">
<title>Node60</title>
<g id="a_node49"><a xlink:href="../../d1/d3a/abstracttest_8cpp.html" target="_top" xlink:title=" ">
<polygon fill="white" stroke="black" points="6792.5,-145.5 6792.5,-164.5 6953.5,-164.5 6953.5,-145.5 6792.5,-145.5"/>
<text text-anchor="middle" x="6873" y="-152.5" font-family="Helvetica,sans-Serif" font-size="10.00">src/libs/vtest/abstracttest.cpp</text>
</a>
</g>
</g>
<!-- Node1&#45;&gt;Node60 -->
<g id="edge58" class="edge">
<title>Node1&#45;&gt;Node60</title>
<path fill="none" stroke="midnightblue" d="M6224.84,-224.28C6338.05,-219.68 6581.14,-206.86 6784,-176 6802.79,-173.14 6823.52,-168.57 6840.24,-164.52"/>
<polygon fill="midnightblue" stroke="midnightblue" points="6224.48,-220.79 6214.63,-224.69 6224.76,-227.78 6224.48,-220.79"/>
</g>
<!-- Node61 -->
<g id="node50" class="node">
<title>Node61</title>
<g id="a_node50"><a xlink:href="../../da/db4/piece__tablewidgetitem_8cpp.html" target="_top" xlink:title=" ">
<polygon fill="white" stroke="black" points="6972,-140 6972,-170 7100,-170 7100,-140 6972,-140"/>
<text text-anchor="start" x="6980" y="-158" font-family="Helvetica,sans-Serif" font-size="10.00">src/libs/vwidgets/piece</text>
<text text-anchor="middle" x="7036" y="-147" font-family="Helvetica,sans-Serif" font-size="10.00">_tablewidgetitem.cpp</text>
</a>
</g>
</g>
<!-- Node1&#45;&gt;Node61 -->
<g id="edge59" class="edge">
<title>Node1&#45;&gt;Node61</title>
<path fill="none" stroke="midnightblue" d="M6225.22,-226.89C6361.92,-226.75 6691.41,-221.27 6963,-176 6971.94,-174.51 6981.37,-172.37 6990.37,-170.04"/>
<polygon fill="midnightblue" stroke="midnightblue" points="6224.93,-223.39 6214.93,-226.89 6224.93,-230.39 6224.93,-223.39"/>
</g>
<!-- Node2&#45;&gt;Node3 -->
<g id="edge2" class="edge">
<title>Node2&#45;&gt;Node3</title>
<path fill="none" stroke="midnightblue" d="M203.12,-140.81C176.18,-126.53 134,-104.17 111.1,-92.03"/>
<polygon fill="midnightblue" stroke="midnightblue" points="201.48,-143.9 211.96,-145.5 204.76,-137.72 201.48,-143.9"/>
</g>
<!-- Node5 -->
<g id="node5" class="node">
<title>Node5</title>
<g id="a_node5"><a xlink:href="../../dd/d66/vdxfengine_8cpp.html" target="_top" xlink:title=" ">
<polygon fill="white" stroke="black" points="1162,-73 1162,-92 1316,-92 1316,-73 1162,-73"/>
<text text-anchor="middle" x="1239" y="-80" font-family="Helvetica,sans-Serif" font-size="10.00">src/libs/vdxf/vdxfengine.cpp</text>
</a>
</g>
</g>
<!-- Node4&#45;&gt;Node5 -->
<g id="edge5" class="edge">
<title>Node4&#45;&gt;Node5</title>
<path fill="none" stroke="midnightblue" d="M910.35,-143.68C986.67,-129.71 1121.48,-105.02 1192.4,-92.03"/>
<polygon fill="midnightblue" stroke="midnightblue" points="909.65,-140.25 900.44,-145.5 910.91,-147.14 909.65,-140.25"/>
</g>
<!-- Node6 -->
<g id="node6" class="node">
<title>Node6</title>
<g id="a_node6"><a xlink:href="../../df/d5d/vcontour_8cpp.html" target="_top" xlink:title=" ">
<polygon fill="white" stroke="black" points="208,-73 208,-92 364,-92 364,-73 208,-73"/>
<text text-anchor="middle" x="286" y="-80" font-family="Helvetica,sans-Serif" font-size="10.00">src/libs/vlayout/vcontour.cpp</text>
</a>
</g>
</g>
<!-- Node4&#45;&gt;Node6 -->
<g id="edge6" class="edge">
<title>Node4&#45;&gt;Node6</title>
<path fill="none" stroke="midnightblue" d="M760.78,-144.52C663.75,-134.33 507.46,-117.02 373,-98 360.57,-96.24 347.17,-94.12 334.71,-92.05"/>
<polygon fill="midnightblue" stroke="midnightblue" points="760.54,-148.02 770.85,-145.58 761.27,-141.05 760.54,-148.02"/>
</g>
<!-- Node7 -->
<g id="node7" class="node">
<title>Node7</title>
<g id="a_node7"><a xlink:href="../../de/da8/vbank_8cpp.html" target="_top" xlink:title=" ">
<polygon fill="white" stroke="black" points="382,-73 382,-92 526,-92 526,-73 382,-73"/>
<text text-anchor="middle" x="454" y="-80" font-family="Helvetica,sans-Serif" font-size="10.00">src/libs/vlayout/vbank.cpp</text>
</a>
</g>
</g>
<!-- Node4&#45;&gt;Node7 -->
<g id="edge7" class="edge">
<title>Node4&#45;&gt;Node7</title>
<path fill="none" stroke="midnightblue" d="M795.45,-143.68C716.16,-129.71 576.1,-105.02 502.42,-92.03"/>
<polygon fill="midnightblue" stroke="midnightblue" points="795.29,-147.21 805.75,-145.5 796.51,-140.31 795.29,-147.21"/>
</g>
<!-- Node8 -->
<g id="node8" class="node">
<title>Node8</title>
<g id="a_node8"><a xlink:href="../../d2/d2d/vlayoutpaper__p_8h.html" target="_top" xlink:title=" ">
<polygon fill="white" stroke="black" points="582.5,-73 582.5,-92 761.5,-92 761.5,-73 582.5,-73"/>
<text text-anchor="middle" x="672" y="-80" font-family="Helvetica,sans-Serif" font-size="10.00">src/libs/vlayout/vlayoutpaper_p.h</text>
</a>
</g>
</g>
<!-- Node4&#45;&gt;Node8 -->
<g id="edge8" class="edge">
<title>Node4&#45;&gt;Node8</title>
<path fill="none" stroke="midnightblue" d="M822.34,-141.74C785.62,-127.51 726.05,-104.44 694.03,-92.03"/>
<polygon fill="midnightblue" stroke="midnightblue" points="821.46,-145.15 832.05,-145.5 823.99,-138.62 821.46,-145.15"/>
</g>
<!-- Node9 -->
<g id="node9" class="node">
<title>Node9</title>
<g id="a_node9"><a xlink:href="../../d1/dd1/vlayoutpaper_8cpp.html" target="_top" xlink:title=" ">
<polygon fill="white" stroke="black" points="583,-6 583,-25 761,-25 761,-6 583,-6"/>
<text text-anchor="middle" x="672" y="-13" font-family="Helvetica,sans-Serif" font-size="10.00">src/libs/vlayout/vlayoutpaper.cpp</text>
</a>
</g>
</g>
<!-- Node4&#45;&gt;Node9 -->
<g id="edge10" class="edge">
<title>Node4&#45;&gt;Node9</title>
<path fill="none" stroke="midnightblue" d="M760.77,-147.91C688.42,-141.01 596.58,-126.74 573,-98 547.23,-66.59 608.52,-38.54 645.83,-25.03"/>
<polygon fill="midnightblue" stroke="midnightblue" points="760.56,-151.41 770.84,-148.84 761.2,-144.44 760.56,-151.41"/>
</g>
<!-- Node10 -->
<g id="node10" class="node">
<title>Node10</title>
<g id="a_node10"><a xlink:href="../../d3/d39/vlayoutgenerator_8cpp.html" target="_top" xlink:title=" ">
<polygon fill="white" stroke="black" points="946.5,-73 946.5,-92 1143.5,-92 1143.5,-73 946.5,-73"/>
<text text-anchor="middle" x="1045" y="-80" font-family="Helvetica,sans-Serif" font-size="10.00">src/libs/vlayout/vlayoutgenerator.cpp</text>
</a>
</g>
</g>
<!-- Node4&#45;&gt;Node10 -->
<g id="edge11" class="edge">
<title>Node4&#45;&gt;Node10</title>
<path fill="none" stroke="midnightblue" d="M886.73,-141.92C925.23,-127.71 988.13,-104.49 1021.88,-92.03"/>
<polygon fill="midnightblue" stroke="midnightblue" points="885.21,-138.75 877.04,-145.5 887.63,-145.32 885.21,-138.75"/>
</g>
<!-- Node11 -->
<g id="node11" class="node">
<title>Node11</title>
<g id="a_node11"><a xlink:href="../../dd/d70/vlayoutpiece_8cpp.html" target="_top" xlink:title=" ">
<polygon fill="white" stroke="black" points="1334.5,-73 1334.5,-92 1511.5,-92 1511.5,-73 1334.5,-73"/>
<text text-anchor="middle" x="1423" y="-80" font-family="Helvetica,sans-Serif" font-size="10.00">src/libs/vlayout/vlayoutpiece.cpp</text>
</a>
</g>
</g>
<!-- Node4&#45;&gt;Node11 -->
<g id="edge12" class="edge">
<title>Node4&#45;&gt;Node11</title>
<path fill="none" stroke="midnightblue" d="M941.7,-144.33C1036.36,-133.72 1191.51,-115.81 1325,-98 1338.72,-96.17 1353.51,-94.06 1367.33,-92.02"/>
<polygon fill="midnightblue" stroke="midnightblue" points="941.14,-140.87 931.6,-145.46 941.92,-147.83 941.14,-140.87"/>
</g>
<!-- Node12 -->
<g id="node12" class="node">
<title>Node12</title>
<g id="a_node12"><a xlink:href="../../db/d5c/vposition_8h.html" target="_top" xlink:title=" ">
<polygon fill="white" stroke="red" points="780,-73 780,-92 928,-92 928,-73 780,-73"/>
<text text-anchor="middle" x="854" y="-80" font-family="Helvetica,sans-Serif" font-size="10.00">src/libs/vlayout/vposition.h</text>
</a>
</g>
</g>
<!-- Node4&#45;&gt;Node12 -->
<g id="edge13" class="edge">
<title>Node4&#45;&gt;Node12</title>
<path fill="none" stroke="midnightblue" d="M854,-134.94C854,-121.03 854,-102.82 854,-92.22"/>
<polygon fill="midnightblue" stroke="midnightblue" points="850.5,-135.36 854,-145.36 857.5,-135.36 850.5,-135.36"/>
</g>
<!-- Node8&#45;&gt;Node9 -->
<g id="edge9" class="edge">
<title>Node8&#45;&gt;Node9</title>
<path fill="none" stroke="midnightblue" d="M672,-62.54C672,-50.17 672,-34.62 672,-25.13"/>
<polygon fill="midnightblue" stroke="midnightblue" points="668.5,-62.73 672,-72.73 675.5,-62.73 668.5,-62.73"/>
</g>
<!-- Node12&#45;&gt;Node9 -->
<g id="edge14" class="edge">
<title>Node12&#45;&gt;Node9</title>
<path fill="none" stroke="midnightblue" d="M820.22,-69.44C784.12,-56.54 727.79,-36.42 695.98,-25.06"/>
<polygon fill="midnightblue" stroke="midnightblue" points="819.24,-72.8 829.83,-72.87 821.59,-66.21 819.24,-72.8"/>
</g>
<!-- Node15&#45;&gt;Node11 -->
<g id="edge27" class="edge">
<title>Node15&#45;&gt;Node11</title>
<path fill="none" stroke="midnightblue" d="M4190.07,-153.65C3745.37,-151.94 2053.5,-142.58 1521,-98 1505.06,-96.67 1487.77,-94.39 1472.21,-92.03"/>
<polygon fill="midnightblue" stroke="midnightblue" points="4190.33,-157.15 4200.34,-153.69 4190.35,-150.15 4190.33,-157.15"/>
</g>
<!-- Node15&#45;&gt;Node14 -->
<g id="edge28" class="edge">
<title>Node15&#45;&gt;Node14</title>
<path fill="none" stroke="midnightblue" d="M4190.23,-152.44C3733.44,-145.71 1969.13,-118.61 1721,-98 1704.74,-96.65 1687.1,-94.37 1671.22,-92.01"/>
<polygon fill="midnightblue" stroke="midnightblue" points="4190.4,-155.94 4200.45,-152.59 4190.51,-148.94 4190.4,-155.94"/>
</g>
<!-- Node16 -->
<g id="node15" class="node">
<title>Node16</title>
<g id="a_node15"><a xlink:href="../../d4/d90/fvupdater_8cpp.html" target="_top" xlink:title=" ">
<polygon fill="white" stroke="black" points="3733.5,-73 3733.5,-92 3886.5,-92 3886.5,-73 3733.5,-73"/>
<text text-anchor="middle" x="3810" y="-80" font-family="Helvetica,sans-Serif" font-size="10.00">src/libs/fervor/fvupdater.cpp</text>
</a>
</g>
</g>
<!-- Node15&#45;&gt;Node16 -->
<g id="edge17" class="edge">
<title>Node15&#45;&gt;Node16</title>
<path fill="none" stroke="midnightblue" d="M4221.82,-144.13C4140.71,-133.45 4008.64,-115.58 3895,-98 3883.16,-96.17 3870.43,-94.07 3858.5,-92.04"/>
<polygon fill="midnightblue" stroke="midnightblue" points="4221.57,-147.62 4231.94,-145.46 4222.48,-140.68 4221.57,-147.62"/>
</g>
<!-- Node17 -->
<g id="node16" class="node">
<title>Node17</title>
<g id="a_node16"><a xlink:href="../../d9/dc8/dxiface_8cpp.html" target="_top" xlink:title=" ">
<polygon fill="white" stroke="black" points="3904.5,-73 3904.5,-92 4039.5,-92 4039.5,-73 3904.5,-73"/>
<text text-anchor="middle" x="3972" y="-80" font-family="Helvetica,sans-Serif" font-size="10.00">src/libs/vdxf/dxiface.cpp</text>
</a>
</g>
</g>
<!-- Node15&#45;&gt;Node17 -->
<g id="edge18" class="edge">
<title>Node15&#45;&gt;Node17</title>
<path fill="none" stroke="midnightblue" d="M4248.69,-143.34C4183.8,-129.3 4071.02,-104.91 4011.46,-92.03"/>
<polygon fill="midnightblue" stroke="midnightblue" points="4248.16,-146.8 4258.68,-145.5 4249.64,-139.96 4248.16,-146.8"/>
</g>
<!-- Node18 -->
<g id="node17" class="node">
<title>Node18</title>
<g id="a_node17"><a xlink:href="../../da/d75/vabstractarc__p_8h.html" target="_top" xlink:title=" ">
<polygon fill="white" stroke="red" points="4057.5,-67.5 4057.5,-97.5 4164.5,-97.5 4164.5,-67.5 4057.5,-67.5"/>
<text text-anchor="start" x="4065.5" y="-85.5" font-family="Helvetica,sans-Serif" font-size="10.00">src/libs/vgeometry</text>
<text text-anchor="middle" x="4111" y="-74.5" font-family="Helvetica,sans-Serif" font-size="10.00">/vabstractarc_p.h</text>
</a>
</g>
</g>
<!-- Node15&#45;&gt;Node18 -->
<g id="edge19" class="edge">
<title>Node15&#45;&gt;Node18</title>
<path fill="none" stroke="midnightblue" d="M4265.91,-141.9C4233.22,-129.58 4182.56,-110.48 4148.15,-97.51"/>
<polygon fill="midnightblue" stroke="midnightblue" points="4264.85,-145.24 4275.44,-145.5 4267.32,-138.69 4264.85,-145.24"/>
</g>
<!-- Node20 -->
<g id="node18" class="node">
<title>Node20</title>
<g id="a_node18"><a xlink:href="../../dc/da3/varc__p_8h.html" target="_top" xlink:title=" ">
<polygon fill="white" stroke="red" points="4182.5,-67.5 4182.5,-97.5 4289.5,-97.5 4289.5,-67.5 4182.5,-67.5"/>
<text text-anchor="start" x="4190.5" y="-85.5" font-family="Helvetica,sans-Serif" font-size="10.00">src/libs/vgeometry</text>
<text text-anchor="middle" x="4236" y="-74.5" font-family="Helvetica,sans-Serif" font-size="10.00">/varc_p.h</text>
</a>
</g>
</g>
<!-- Node15&#45;&gt;Node20 -->
<g id="edge20" class="edge">
<title>Node15&#45;&gt;Node20</title>
<path fill="none" stroke="midnightblue" d="M4283.7,-137.74C4273.02,-125.6 4258.57,-109.16 4248.38,-97.58"/>
<polygon fill="midnightblue" stroke="midnightblue" points="4281.17,-140.16 4290.4,-145.36 4286.42,-135.53 4281.17,-140.16"/>
</g>
<!-- Node22 -->
<g id="node19" class="node">
<title>Node22</title>
<g id="a_node19"><a xlink:href="../../d5/d8e/vcubicbezier__p_8h.html" target="_top" xlink:title=" ">
<polygon fill="white" stroke="red" points="4307.5,-67.5 4307.5,-97.5 4414.5,-97.5 4414.5,-67.5 4307.5,-67.5"/>
<text text-anchor="start" x="4315.5" y="-85.5" font-family="Helvetica,sans-Serif" font-size="10.00">src/libs/vgeometry</text>
<text text-anchor="middle" x="4361" y="-74.5" font-family="Helvetica,sans-Serif" font-size="10.00">/vcubicbezier_p.h</text>
</a>
</g>
</g>
<!-- Node15&#45;&gt;Node22 -->
<g id="edge21" class="edge">
<title>Node15&#45;&gt;Node22</title>
<path fill="none" stroke="midnightblue" d="M4312.53,-137.74C4323.38,-125.6 4338.07,-109.16 4348.42,-97.58"/>
<polygon fill="midnightblue" stroke="midnightblue" points="4309.78,-135.57 4305.73,-145.36 4315,-140.23 4309.78,-135.57"/>
</g>
<!-- Node24 -->
<g id="node20" class="node">
<title>Node24</title>
<g id="a_node20"><a xlink:href="../../df/dde/vellipticalarc__p_8h.html" target="_top" xlink:title=" ">
<polygon fill="white" stroke="black" points="4471.5,-67.5 4471.5,-97.5 4578.5,-97.5 4578.5,-67.5 4471.5,-67.5"/>
<text text-anchor="start" x="4479.5" y="-85.5" font-family="Helvetica,sans-Serif" font-size="10.00">src/libs/vgeometry</text>
<text text-anchor="middle" x="4525" y="-74.5" font-family="Helvetica,sans-Serif" font-size="10.00">/vellipticalarc_p.h</text>
</a>
</g>
</g>
<!-- Node15&#45;&gt;Node24 -->
<g id="edge22" class="edge">
<title>Node15&#45;&gt;Node24</title>
<path fill="none" stroke="midnightblue" d="M4335.17,-142.46C4374.78,-130.15 4437.5,-110.68 4479.9,-97.51"/>
<polygon fill="midnightblue" stroke="midnightblue" points="4333.89,-139.19 4325.38,-145.5 4335.97,-145.87 4333.89,-139.19"/>
</g>
<!-- Node25 -->
<g id="node21" class="node">
<title>Node25</title>
<g id="a_node21"><a xlink:href="../../d6/dfb/vellipticalarc_8cpp.html" target="_top" xlink:title=" ">
<polygon fill="white" stroke="black" points="4430.5,-0.5 4430.5,-30.5 4537.5,-30.5 4537.5,-0.5 4430.5,-0.5"/>
<text text-anchor="start" x="4438.5" y="-18.5" font-family="Helvetica,sans-Serif" font-size="10.00">src/libs/vgeometry</text>
<text text-anchor="middle" x="4484" y="-7.5" font-family="Helvetica,sans-Serif" font-size="10.00">/vellipticalarc.cpp</text>
</a>
</g>
</g>
<!-- Node15&#45;&gt;Node25 -->
<g id="edge24" class="edge">
<title>Node15&#45;&gt;Node25</title>
<path fill="none" stroke="midnightblue" d="M4337.18,-142.23C4363.33,-133.05 4397.48,-118.42 4423,-98 4446.88,-78.9 4466.34,-48.4 4476.45,-30.62"/>
<polygon fill="midnightblue" stroke="midnightblue" points="4335.93,-138.96 4327.58,-145.48 4338.17,-145.59 4335.93,-138.96"/>
</g>
<!-- Node26 -->
<g id="node22" class="node">
<title>Node26</title>
<g id="a_node22"><a xlink:href="../../d1/d76/vspline__p_8h.html" target="_top" xlink:title=" ">
<polygon fill="white" stroke="red" points="4596.5,-67.5 4596.5,-97.5 4703.5,-97.5 4703.5,-67.5 4596.5,-67.5"/>
<text text-anchor="start" x="4604.5" y="-85.5" font-family="Helvetica,sans-Serif" font-size="10.00">src/libs/vgeometry</text>
<text text-anchor="middle" x="4650" y="-74.5" font-family="Helvetica,sans-Serif" font-size="10.00">/vspline_p.h</text>
</a>
</g>
</g>
<!-- Node15&#45;&gt;Node26 -->
<g id="edge25" class="edge">
<title>Node15&#45;&gt;Node26</title>
<path fill="none" stroke="midnightblue" d="M4354.77,-143.6C4413.13,-132.77 4506.58,-115.04 4587,-98 4590.07,-97.35 4593.23,-96.67 4596.41,-95.97"/>
<polygon fill="midnightblue" stroke="midnightblue" points="4353.85,-140.22 4344.65,-145.48 4355.12,-147.1 4353.85,-140.22"/>
</g>
<!-- Node28 -->
<g id="node23" class="node">
<title>Node28</title>
<g id="a_node23"><a xlink:href="../../d9/d15/vabstractpiece_8cpp.html" target="_top" xlink:title=" ">
<polygon fill="white" stroke="black" points="4722,-73 4722,-92 4908,-92 4908,-73 4722,-73"/>
<text text-anchor="middle" x="4815" y="-80" font-family="Helvetica,sans-Serif" font-size="10.00">src/libs/vlayout/vabstractpiece.cpp</text>
</a>
</g>
</g>
<!-- Node15&#45;&gt;Node28 -->
<g id="edge26" class="edge">
<title>Node15&#45;&gt;Node28</title>
<path fill="none" stroke="midnightblue" d="M4371.91,-144.12C4454.74,-133.03 4593.02,-114.42 4712,-98 4725.86,-96.09 4740.77,-94 4754.82,-92.03"/>
<polygon fill="midnightblue" stroke="midnightblue" points="4371.29,-140.68 4361.84,-145.47 4372.22,-147.61 4371.29,-140.68"/>
</g>
<!-- Node29 -->
<g id="node24" class="node">
<title>Node29</title>
<g id="a_node24"><a xlink:href="../../db/d65/dialogexporttocsv_8cpp.html" target="_top" xlink:title=" ">
<polygon fill="white" stroke="black" points="4926.5,-67.5 4926.5,-97.5 5053.5,-97.5 5053.5,-67.5 4926.5,-67.5"/>
<text text-anchor="start" x="4934.5" y="-85.5" font-family="Helvetica,sans-Serif" font-size="10.00">src/libs/vmisc/dialogs</text>
<text text-anchor="middle" x="4990" y="-74.5" font-family="Helvetica,sans-Serif" font-size="10.00">/dialogexporttocsv.cpp</text>
</a>
</g>
</g>
<!-- Node15&#45;&gt;Node29 -->
<g id="edge29" class="edge">
<title>Node15&#45;&gt;Node29</title>
<path fill="none" stroke="midnightblue" d="M4405.91,-147.71C4529.74,-139.69 4738.72,-123.7 4917,-98 4920.07,-97.56 4923.2,-97.07 4926.37,-96.55"/>
<polygon fill="midnightblue" stroke="midnightblue" points="4405.42,-144.24 4395.67,-148.37 4405.87,-151.22 4405.42,-144.24"/>
</g>
<!-- Node30 -->
<g id="node25" class="node">
<title>Node30</title>
<g id="a_node25"><a xlink:href="../../d0/df6/vabstractapplication_8cpp.html" target="_top" xlink:title=" ">
<polygon fill="white" stroke="black" points="5072,-73 5072,-92 5278,-92 5278,-73 5072,-73"/>
<text text-anchor="middle" x="5175" y="-80" font-family="Helvetica,sans-Serif" font-size="10.00">src/libs/vmisc/vabstractapplication.cpp</text>
</a>
</g>
</g>
<!-- Node15&#45;&gt;Node30 -->
<g id="edge30" class="edge">
<title>Node15&#45;&gt;Node30</title>
<path fill="none" stroke="midnightblue" d="M4405.53,-147.97C4553.57,-139.25 4828.36,-121.54 5062,-98 5078.73,-96.31 5096.8,-94.15 5113.49,-92.01"/>
<polygon fill="midnightblue" stroke="midnightblue" points="4405.31,-144.48 4395.53,-148.56 4405.72,-151.46 4405.31,-144.48"/>
</g>
<!-- Node31 -->
<g id="node26" class="node">
<title>Node31</title>
<g id="a_node26"><a xlink:href="../../d6/d0b/def_8cpp.html" target="_top" xlink:title=" ">
<polygon fill="white" stroke="black" points="5296,-73 5296,-92 5418,-92 5418,-73 5296,-73"/>
<text text-anchor="middle" x="5357" y="-80" font-family="Helvetica,sans-Serif" font-size="10.00">src/libs/vmisc/def.cpp</text>
</a>
</g>
</g>
<!-- Node15&#45;&gt;Node31 -->
<g id="edge31" class="edge">
<title>Node15&#45;&gt;Node31</title>
<path fill="none" stroke="midnightblue" d="M4405.78,-153.1C4588.04,-150.41 4968.4,-139.78 5287,-98 5298.07,-96.55 5310.01,-94.32 5320.84,-92.05"/>
<polygon fill="midnightblue" stroke="midnightblue" points="4405.61,-149.6 4395.66,-153.24 4405.71,-156.6 4405.61,-149.6"/>
</g>
<!-- Node32 -->
<g id="node27" class="node">
<title>Node32</title>
<g id="a_node27"><a xlink:href="../../d4/d4f/pmsystems_8cpp.html" target="_top" xlink:title=" ">
<polygon fill="white" stroke="black" points="5436.5,-67.5 5436.5,-97.5 5543.5,-97.5 5543.5,-67.5 5436.5,-67.5"/>
<text text-anchor="start" x="5444.5" y="-85.5" font-family="Helvetica,sans-Serif" font-size="10.00">src/libs/vpatterndb</text>
<text text-anchor="middle" x="5490" y="-74.5" font-family="Helvetica,sans-Serif" font-size="10.00">/pmsystems.cpp</text>
</a>
</g>
</g>
<!-- Node15&#45;&gt;Node32 -->
<g id="edge32" class="edge">
<title>Node15&#45;&gt;Node32</title>
<path fill="none" stroke="midnightblue" d="M4405.86,-154.96C4607.45,-155.37 5054.67,-149.67 5427,-98 5430,-97.58 5433.07,-97.09 5436.16,-96.55"/>
<polygon fill="midnightblue" stroke="midnightblue" points="4405.58,-151.46 4395.57,-154.94 4405.56,-158.46 4405.58,-151.46"/>
</g>
<!-- Node15&#45;&gt;Node33 -->
<g id="edge33" class="edge">
<title>Node15&#45;&gt;Node33</title>
<path fill="none" stroke="midnightblue" d="M4405.72,-153.07C4723.81,-149.9 5655.5,-137.41 5957,-98 5960,-97.61 5963.08,-97.14 5966.17,-96.61"/>
<polygon fill="midnightblue" stroke="midnightblue" points="4405.54,-149.57 4395.58,-153.17 4405.61,-156.57 4405.54,-149.57"/>
</g>
<!-- Node15&#45;&gt;Node34 -->
<g id="edge34" class="edge">
<title>Node15&#45;&gt;Node34</title>
<path fill="none" stroke="midnightblue" d="M4405.93,-153.37C4740.17,-150.97 5755.22,-140.32 6082,-98 6085.01,-97.61 6088.08,-97.14 6091.17,-96.62"/>
<polygon fill="midnightblue" stroke="midnightblue" points="4405.74,-149.87 4395.76,-153.44 4405.79,-156.87 4405.74,-149.87"/>
</g>
<!-- Node35 -->
<g id="node30" class="node">
<title>Node35</title>
<g id="a_node30"><a xlink:href="../../df/dba/vpiecenode__p_8h.html" target="_top" xlink:title=" ">
<polygon fill="white" stroke="black" points="5561.5,-67.5 5561.5,-97.5 5668.5,-97.5 5668.5,-67.5 5561.5,-67.5"/>
<text text-anchor="start" x="5569.5" y="-85.5" font-family="Helvetica,sans-Serif" font-size="10.00">src/libs/vpatterndb</text>
<text text-anchor="middle" x="5615" y="-74.5" font-family="Helvetica,sans-Serif" font-size="10.00">/vpiecenode_p.h</text>
</a>
</g>
</g>
<!-- Node15&#45;&gt;Node35 -->
<g id="edge35" class="edge">
<title>Node15&#45;&gt;Node35</title>
<path fill="none" stroke="midnightblue" d="M4405.79,-151.7C4667.67,-145.71 5331.99,-127.98 5552,-98 5555,-97.59 5558.07,-97.11 5561.16,-96.57"/>
<polygon fill="midnightblue" stroke="midnightblue" points="4405.43,-148.21 4395.52,-151.94 4405.59,-155.21 4405.43,-148.21"/>
</g>
<!-- Node37 -->
<g id="node32" class="node">
<title>Node37</title>
<g id="a_node32"><a xlink:href="../../de/d3e/vtranslatevars_8cpp.html" target="_top" xlink:title=" ">
<polygon fill="white" stroke="black" points="5687,-67.5 5687,-97.5 5797,-97.5 5797,-67.5 5687,-67.5"/>
<text text-anchor="start" x="5695" y="-85.5" font-family="Helvetica,sans-Serif" font-size="10.00">src/libs/vpatterndb</text>
<text text-anchor="middle" x="5742" y="-74.5" font-family="Helvetica,sans-Serif" font-size="10.00">/vtranslatevars.cpp</text>
</a>
</g>
</g>
<!-- Node15&#45;&gt;Node37 -->
<g id="edge37" class="edge">
<title>Node15&#45;&gt;Node37</title>
<path fill="none" stroke="midnightblue" d="M4405.93,-152.11C4686.13,-146.81 5431.9,-130.05 5677,-98 5680.21,-97.58 5683.5,-97.08 5686.8,-96.52"/>
<polygon fill="midnightblue" stroke="midnightblue" points="4405.69,-148.62 4395.76,-152.3 4405.82,-155.62 4405.69,-148.62"/>
</g>
<!-- Node15&#45;&gt;Node38 -->
<g id="edge38" class="edge">
<title>Node15&#45;&gt;Node38</title>
<path fill="none" stroke="midnightblue" d="M4405.89,-153.63C4755.49,-151.98 5854.79,-143.25 6207,-98 6210.01,-97.61 6213.08,-97.15 6216.17,-96.62"/>
<polygon fill="midnightblue" stroke="midnightblue" points="4405.76,-150.13 4395.77,-153.67 4405.79,-157.13 4405.76,-150.13"/>
</g>
<!-- Node39 -->
<g id="node34" class="node">
<title>Node39</title>
<g id="a_node34"><a xlink:href="../../df/d40/export__format__combobox_8cpp.html" target="_top" xlink:title=" ">
<polygon fill="white" stroke="black" points="5815.5,-67.5 5815.5,-97.5 5948.5,-97.5 5948.5,-67.5 5815.5,-67.5"/>
<text text-anchor="start" x="5823.5" y="-85.5" font-family="Helvetica,sans-Serif" font-size="10.00">src/libs/vwidgets/export</text>
<text text-anchor="middle" x="5882" y="-74.5" font-family="Helvetica,sans-Serif" font-size="10.00">_format_combobox.cpp</text>
</a>
</g>
</g>
<!-- Node15&#45;&gt;Node39 -->
<g id="edge39" class="edge">
<title>Node15&#45;&gt;Node39</title>
<path fill="none" stroke="midnightblue" d="M4406.07,-152.11C4704.27,-146.57 5534.5,-128.76 5806,-98 5809.07,-97.65 5812.2,-97.25 5815.36,-96.81"/>
<polygon fill="midnightblue" stroke="midnightblue" points="4405.62,-148.62 4395.69,-152.31 4405.75,-155.62 4405.62,-148.62"/>
</g>
<!-- Node40 -->
<g id="node35" class="node">
<title>Node40</title>
<g id="a_node35"><a xlink:href="../../d3/d4f/mouse__coordinates_8cpp.html" target="_top" xlink:title=" ">
<polygon fill="white" stroke="black" points="1730,-67.5 1730,-97.5 1864,-97.5 1864,-67.5 1730,-67.5"/>
<text text-anchor="start" x="1738" y="-85.5" font-family="Helvetica,sans-Serif" font-size="10.00">src/libs/vwidgets/mouse</text>
<text text-anchor="middle" x="1797" y="-74.5" font-family="Helvetica,sans-Serif" font-size="10.00">_coordinates.cpp</text>
</a>
</g>
</g>
<!-- Node15&#45;&gt;Node40 -->
<g id="edge40" class="edge">
<title>Node15&#45;&gt;Node40</title>
<path fill="none" stroke="midnightblue" d="M4190.04,-152.56C3750.1,-146.55 2104.83,-122.62 1873,-98 1870.06,-97.69 1867.07,-97.32 1864.05,-96.91"/>
<polygon fill="midnightblue" stroke="midnightblue" points="4190.16,-156.06 4200.21,-152.7 4190.26,-149.06 4190.16,-156.06"/>
</g>
<!-- Node41 -->
<g id="node36" class="node">
<title>Node41</title>
<g id="a_node36"><a xlink:href="../../d2/d28/page__format__combobox_8cpp.html" target="_top" xlink:title=" ">
<polygon fill="white" stroke="black" points="1882.5,-67.5 1882.5,-97.5 2013.5,-97.5 2013.5,-67.5 1882.5,-67.5"/>
<text text-anchor="start" x="1890.5" y="-85.5" font-family="Helvetica,sans-Serif" font-size="10.00">src/libs/vwidgets/page</text>
<text text-anchor="middle" x="1948" y="-74.5" font-family="Helvetica,sans-Serif" font-size="10.00">_format_combobox.cpp</text>
</a>
</g>
</g>
<!-- Node15&#45;&gt;Node41 -->
<g id="edge41" class="edge">
<title>Node15&#45;&gt;Node41</title>
<path fill="none" stroke="midnightblue" d="M4190.39,-152.42C3768.32,-146.09 2238.43,-121.7 2022,-98 2019.27,-97.7 2016.48,-97.35 2013.68,-96.97"/>
<polygon fill="midnightblue" stroke="midnightblue" points="4190.4,-155.92 4200.45,-152.57 4190.51,-148.92 4190.4,-155.92"/>
</g>
<!-- Node42 -->
<g id="node37" class="node">
<title>Node42</title>
<g id="a_node37"><a xlink:href="../../d7/d1b/pen__toolbar_8cpp.html" target="_top" xlink:title=" ">
<polygon fill="white" stroke="black" points="2031.5,-67.5 2031.5,-97.5 2150.5,-97.5 2150.5,-67.5 2031.5,-67.5"/>
<text text-anchor="start" x="2039.5" y="-85.5" font-family="Helvetica,sans-Serif" font-size="10.00">src/libs/vwidgets/pen</text>
<text text-anchor="middle" x="2091" y="-74.5" font-family="Helvetica,sans-Serif" font-size="10.00">_toolbar.cpp</text>
</a>
</g>
</g>
<!-- Node15&#45;&gt;Node42 -->
<g id="edge42" class="edge">
<title>Node15&#45;&gt;Node42</title>
<path fill="none" stroke="midnightblue" d="M4190.2,-152.32C3784.46,-145.85 2362.01,-121.67 2160,-98 2156.96,-97.64 2153.86,-97.22 2150.73,-96.74"/>
<polygon fill="midnightblue" stroke="midnightblue" points="4190.41,-155.83 4200.46,-152.48 4190.52,-148.83 4190.41,-155.83"/>
</g>
<!-- Node43 -->
<g id="node38" class="node">
<title>Node43</title>
<g id="a_node38"><a xlink:href="../../d8/d76/scene__rect_8cpp.html" target="_top" xlink:title=" ">
<polygon fill="white" stroke="black" points="2169,-67.5 2169,-97.5 2299,-97.5 2299,-67.5 2169,-67.5"/>
<text text-anchor="start" x="2177" y="-85.5" font-family="Helvetica,sans-Serif" font-size="10.00">src/libs/vwidgets/scene</text>
<text text-anchor="middle" x="2234" y="-74.5" font-family="Helvetica,sans-Serif" font-size="10.00">_rect.cpp</text>
</a>
</g>
</g>
<!-- Node15&#45;&gt;Node43 -->
<g id="edge43" class="edge">
<title>Node15&#45;&gt;Node43</title>
<path fill="none" stroke="midnightblue" d="M4190.23,-153.32C3831.18,-150.67 2677.47,-139.11 2308,-98 2305.14,-97.68 2302.22,-97.31 2299.28,-96.9"/>
<polygon fill="midnightblue" stroke="midnightblue" points="4190.34,-156.82 4200.37,-153.39 4190.39,-149.82 4190.34,-156.82"/>
</g>
<!-- Node44 -->
<g id="node39" class="node">
<title>Node44</title>
<g id="a_node39"><a xlink:href="../../dd/df6/vabstractmainwindow_8cpp.html" target="_top" xlink:title=" ">
<polygon fill="white" stroke="black" points="2317.5,-73 2317.5,-92 2546.5,-92 2546.5,-73 2317.5,-73"/>
<text text-anchor="middle" x="2432" y="-80" font-family="Helvetica,sans-Serif" font-size="10.00">src/libs/vwidgets/vabstractmainwindow.cpp</text>
</a>
</g>
</g>
<!-- Node15&#45;&gt;Node44 -->
<g id="edge44" class="edge">
<title>Node15&#45;&gt;Node44</title>
<path fill="none" stroke="midnightblue" d="M4189.71,-153.73C3915.64,-152.33 3172.4,-144.23 2555,-98 2535.59,-96.55 2514.54,-94.31 2495.42,-92.02"/>
<polygon fill="midnightblue" stroke="midnightblue" points="4190.03,-157.23 4200.04,-153.78 4190.06,-150.23 4190.03,-157.23"/>
</g>
<!-- Node45 -->
<g id="node40" class="node">
<title>Node45</title>
<g id="a_node40"><a xlink:href="../../de/d45/vcontrolpointspline_8cpp.html" target="_top" xlink:title=" ">
<polygon fill="white" stroke="black" points="2564.5,-73 2564.5,-92 2779.5,-92 2779.5,-73 2564.5,-73"/>
<text text-anchor="middle" x="2672" y="-80" font-family="Helvetica,sans-Serif" font-size="10.00">src/libs/vwidgets/vcontrolpointspline.cpp</text>
</a>
</g>
</g>
<!-- Node15&#45;&gt;Node45 -->
<g id="edge45" class="edge">
<title>Node15&#45;&gt;Node45</title>
<path fill="none" stroke="midnightblue" d="M4190.21,-153.19C3942.4,-150.62 3313.19,-140.13 2789,-98 2770.64,-96.52 2750.73,-94.29 2732.62,-92.02"/>
<polygon fill="midnightblue" stroke="midnightblue" points="4190.26,-156.69 4200.29,-153.29 4190.33,-149.69 4190.26,-156.69"/>
</g>
<!-- Node46 -->
<g id="node41" class="node">
<title>Node46</title>
<g id="a_node41"><a xlink:href="../../de/dec/vgraphicssimpletextitem_8cpp.html" target="_top" xlink:title=" ">
<polygon fill="white" stroke="black" points="2798,-73 2798,-92 3042,-92 3042,-73 2798,-73"/>
<text text-anchor="middle" x="2920" y="-80" font-family="Helvetica,sans-Serif" font-size="10.00">src/libs/vwidgets/vgraphicssimpletextitem.cpp</text>
</a>
</g>
</g>
<!-- Node15&#45;&gt;Node46 -->
<g id="edge46" class="edge">
<title>Node15&#45;&gt;Node46</title>
<path fill="none" stroke="midnightblue" d="M4190.38,-151.54C3974.19,-146.06 3471.85,-130.71 3051,-98 3030.92,-96.44 3009.17,-94.24 2989.27,-92.02"/>
<polygon fill="midnightblue" stroke="midnightblue" points="4190.37,-155.04 4200.46,-151.79 4190.55,-148.04 4190.37,-155.04"/>
</g>
<!-- Node47 -->
<g id="node42" class="node">
<title>Node47</title>
<g id="a_node42"><a xlink:href="../../d1/d88/vmaingraphicsscene_8cpp.html" target="_top" xlink:title=" ">
<polygon fill="white" stroke="black" points="3060,-73 3060,-92 3282,-92 3282,-73 3060,-73"/>
<text text-anchor="middle" x="3171" y="-80" font-family="Helvetica,sans-Serif" font-size="10.00">src/libs/vwidgets/vmaingraphicsscene.cpp</text>
</a>
</g>
</g>
<!-- Node15&#45;&gt;Node47 -->
<g id="edge47" class="edge">
<title>Node15&#45;&gt;Node47</title>
<path fill="none" stroke="midnightblue" d="M4190.04,-150.29C4005.52,-143.44 3617.75,-126.8 3291,-98 3272.81,-96.4 3253.13,-94.21 3235.07,-92.02"/>
<polygon fill="midnightblue" stroke="midnightblue" points="4190.16,-153.8 4200.29,-150.67 4190.42,-146.8 4190.16,-153.8"/>
</g>
<!-- Node48 -->
<g id="node43" class="node">
<title>Node48</title>
<g id="a_node43"><a xlink:href="../../d2/d31/vmaingraphicsview_8cpp.html" target="_top" xlink:title=" ">
<polygon fill="white" stroke="black" points="3300,-73 3300,-92 3516,-92 3516,-73 3300,-73"/>
<text text-anchor="middle" x="3408" y="-80" font-family="Helvetica,sans-Serif" font-size="10.00">src/libs/vwidgets/vmaingraphicsview.cpp</text>
</a>
</g>
</g>
<!-- Node15&#45;&gt;Node48 -->
<g id="edge48" class="edge">
<title>Node15&#45;&gt;Node48</title>
<path fill="none" stroke="midnightblue" d="M4190.14,-147.93C4040.61,-139.11 3761.93,-121.25 3525,-98 3507.79,-96.31 3489.19,-94.16 3472,-92.03"/>
<polygon fill="midnightblue" stroke="midnightblue" points="4190.06,-151.43 4200.24,-148.52 4190.47,-144.44 4190.06,-151.43"/>
</g>
<!-- Node49 -->
<g id="node44" class="node">
<title>Node49</title>
<g id="a_node44"><a xlink:href="../../d0/d5d/vscenepoint_8cpp.html" target="_top" xlink:title=" ">
<polygon fill="white" stroke="black" points="3534.5,-73 3534.5,-92 3715.5,-92 3715.5,-73 3534.5,-73"/>
<text text-anchor="middle" x="3625" y="-80" font-family="Helvetica,sans-Serif" font-size="10.00">src/libs/vwidgets/vscenepoint.cpp</text>
</a>
</g>
</g>
<!-- Node15&#45;&gt;Node49 -->
<g id="edge49" class="edge">
<title>Node15&#45;&gt;Node49</title>
<path fill="none" stroke="midnightblue" d="M4190.09,-145.03C4074.59,-135.07 3886.08,-117.76 3724,-98 3709.69,-96.25 3694.25,-94.12 3679.92,-92.02"/>
<polygon fill="midnightblue" stroke="midnightblue" points="4190.08,-148.55 4200.34,-145.92 4190.68,-141.57 4190.08,-148.55"/>
</g>
<!-- Node24&#45;&gt;Node25 -->
<g id="edge23" class="edge">
<title>Node24&#45;&gt;Node25</title>
<path fill="none" stroke="midnightblue" d="M4510.72,-58.87C4504.79,-49.46 4498.09,-38.83 4492.88,-30.58"/>
<polygon fill="midnightblue" stroke="midnightblue" points="4507.81,-60.81 4516.1,-67.4 4513.73,-57.07 4507.81,-60.81"/>
</g>
<!-- Node35&#45;&gt;Node36 -->
<g id="edge36" class="edge">
<title>Node35&#45;&gt;Node36</title>
<path fill="none" stroke="midnightblue" d="M5678.54,-66.97C5772.64,-48.58 5870.4,-33.21 5929.37,-24.35"/>
<polygon fill="midnightblue" stroke="midnightblue" points="5677.7,-63.57 5668.57,-68.93 5679.06,-70.43 5677.7,-63.57"/>
</g>
</g>
</svg>
