<?xml version="1.0" encoding="UTF-8" standalone="no"?>
<!DOCTYPE svg PUBLIC "-//W3C//DTD SVG 1.1//EN"
 "http://www.w3.org/Graphics/SVG/1.1/DTD/svg11.dtd">
<!-- Generated by graphviz version 2.43.0 (0)
 -->
<!-- Title: src/libs/vpatterndb/vcontainer.h Pages: 1 -->
<svg width="7087pt" height="251pt"
 viewBox="0.00 0.00 7087.00 251.00" xmlns="http://www.w3.org/2000/svg" xmlns:xlink="http://www.w3.org/1999/xlink">
<g id="graph0" class="graph" transform="scale(1 1) rotate(0) translate(4 247)">
<title>src/libs/vpatterndb/vcontainer.h</title>
<polygon fill="white" stroke="transparent" points="-4,4 -4,-247 7083,-247 7083,4 -4,4"/>
<!-- Node1 -->
<g id="node1" class="node">
<title>Node1</title>
<g id="a_node1"><a xlink:title=" ">
<polygon fill="#bfbfbf" stroke="black" points="6086.5,-212.5 6086.5,-242.5 6193.5,-242.5 6193.5,-212.5 6086.5,-212.5"/>
<text text-anchor="start" x="6094.5" y="-230.5" font-family="Helvetica,sans-Serif" font-size="10.00">src/libs/vpatterndb</text>
<text text-anchor="middle" x="6140" y="-219.5" font-family="Helvetica,sans-Serif" font-size="10.00">/vcontainer.h</text>
</a>
</g>
</g>
<!-- Node2 -->
<g id="node2" class="node">
<title>Node2</title>
<g id="a_node2"><a xlink:href="../../dc/db7/measurements_8h.html" target="_top" xlink:title=" ">
<polygon fill="white" stroke="black" points="146.5,-145.5 146.5,-164.5 325.5,-164.5 325.5,-145.5 146.5,-145.5"/>
<text text-anchor="middle" x="236" y="-152.5" font-family="Helvetica,sans-Serif" font-size="10.00">src/libs/vformat/measurements.h</text>
</a>
</g>
</g>
<!-- Node1&#45;&gt;Node2 -->
<g id="edge1" class="edge">
<title>Node1&#45;&gt;Node2</title>
<path fill="none" stroke="midnightblue" d="M6075.86,-226.29C5537.19,-224.48 1759.36,-210.65 622,-176 520.38,-172.9 403.85,-166.47 325.65,-161.73"/>
<polygon fill="midnightblue" stroke="midnightblue" points="6076.14,-229.79 6086.16,-226.33 6076.17,-222.79 6076.14,-229.79"/>
</g>
<!-- Node3 -->
<g id="node3" class="node">
<title>Node3</title>
<g id="a_node3"><a xlink:href="../../d9/de3/measurements_8cpp.html" target="_top" xlink:title=" ">
<polygon fill="white" stroke="black" points="0,-73 0,-92 190,-92 190,-73 0,-73"/>
<text text-anchor="middle" x="95" y="-80" font-family="Helvetica,sans-Serif" font-size="10.00">src/libs/vformat/measurements.cpp</text>
</a>
</g>
</g>
<!-- Node1&#45;&gt;Node3 -->
<g id="edge3" class="edge">
<title>Node1&#45;&gt;Node3</title>
<path fill="none" stroke="midnightblue" d="M6076.48,-226.36C5511.03,-225.1 1347.95,-214.52 796,-176 549.55,-158.8 257.36,-111.48 143.66,-92.02"/>
<polygon fill="midnightblue" stroke="midnightblue" points="6076.48,-229.86 6086.49,-226.39 6076.5,-222.86 6076.48,-229.86"/>
</g>
<!-- Node4 -->
<g id="node4" class="node">
<title>Node4</title>
<g id="a_node4"><a xlink:href="../../d6/de0/vlayoutpiece_8h.html" target="_top" xlink:title=" ">
<polygon fill="white" stroke="black" points="805,-145.5 805,-164.5 971,-164.5 971,-145.5 805,-145.5"/>
<text text-anchor="middle" x="888" y="-152.5" font-family="Helvetica,sans-Serif" font-size="10.00">src/libs/vlayout/vlayoutpiece.h</text>
</a>
</g>
</g>
<!-- Node1&#45;&gt;Node4 -->
<g id="edge4" class="edge">
<title>Node1&#45;&gt;Node4</title>
<path fill="none" stroke="midnightblue" d="M6076.19,-225.64C5526.38,-218.26 1594.31,-165.48 971.12,-157.12"/>
<polygon fill="midnightblue" stroke="midnightblue" points="6076.26,-229.14 6086.31,-225.78 6076.36,-222.15 6076.26,-229.14"/>
</g>
<!-- Node14 -->
<g id="node13" class="node">
<title>Node14</title>
<g id="a_node13"><a xlink:href="../../d8/d70/vtextmanager_8cpp.html" target="_top" xlink:title=" ">
<polygon fill="white" stroke="black" points="1530,-73 1530,-92 1712,-92 1712,-73 1530,-73"/>
<text text-anchor="middle" x="1621" y="-80" font-family="Helvetica,sans-Serif" font-size="10.00">src/libs/vlayout/vtextmanager.cpp</text>
</a>
</g>
</g>
<!-- Node1&#45;&gt;Node14 -->
<g id="edge15" class="edge">
<title>Node1&#45;&gt;Node14</title>
<path fill="none" stroke="midnightblue" d="M6076.14,-225.01C5830.07,-219.22 4919.72,-197.55 4170,-176 3081.45,-144.71 2805.79,-193.62 1721,-98 1705.01,-96.59 1687.68,-94.34 1672,-92.02"/>
<polygon fill="midnightblue" stroke="midnightblue" points="6076.25,-228.51 6086.33,-225.25 6076.41,-221.51 6076.25,-228.51"/>
</g>
<!-- Node15 -->
<g id="node14" class="node">
<title>Node15</title>
<g id="a_node14"><a xlink:href="../../d5/d74/vabstractapplication_8h.html" target="_top" xlink:title=" ">
<polygon fill="white" stroke="red" points="4179.5,-145.5 4179.5,-164.5 4374.5,-164.5 4374.5,-145.5 4179.5,-145.5"/>
<text text-anchor="middle" x="4277" y="-152.5" font-family="Helvetica,sans-Serif" font-size="10.00">src/libs/vmisc/vabstractapplication.h</text>
</a>
</g>
</g>
<!-- Node1&#45;&gt;Node15 -->
<g id="edge16" class="edge">
<title>Node1&#45;&gt;Node15</title>
<path fill="none" stroke="midnightblue" d="M6076.01,-224.08C5799.82,-213.63 4708.88,-172.34 4374.77,-159.7"/>
<polygon fill="midnightblue" stroke="midnightblue" points="6076.13,-227.59 6086.25,-224.47 6076.39,-220.59 6076.13,-227.59"/>
</g>
<!-- Node33 -->
<g id="node28" class="node">
<title>Node33</title>
<g id="a_node28"><a xlink:href="../../db/d11/vformula_8cpp.html" target="_top" xlink:title=" ">
<polygon fill="white" stroke="black" points="5945.5,-67.5 5945.5,-97.5 6052.5,-97.5 6052.5,-67.5 5945.5,-67.5"/>
<text text-anchor="start" x="5953.5" y="-85.5" font-family="Helvetica,sans-Serif" font-size="10.00">src/libs/vpatterndb</text>
<text text-anchor="middle" x="5999" y="-74.5" font-family="Helvetica,sans-Serif" font-size="10.00">/vformula.cpp</text>
</a>
</g>
</g>
<!-- Node1&#45;&gt;Node33 -->
<g id="edge52" class="edge">
<title>Node1&#45;&gt;Node33</title>
<path fill="none" stroke="midnightblue" d="M6118.7,-204.9C6089.48,-175.26 6037.75,-122.8 6012.98,-97.68"/>
<polygon fill="midnightblue" stroke="midnightblue" points="6116.45,-207.6 6125.96,-212.27 6121.44,-202.69 6116.45,-207.6"/>
</g>
<!-- Node34 -->
<g id="node29" class="node">
<title>Node34</title>
<g id="a_node29"><a xlink:href="../../d6/d46/vcontainer_8cpp.html" target="_top" xlink:title=" ">
<polygon fill="white" stroke="black" points="6070.5,-67.5 6070.5,-97.5 6177.5,-97.5 6177.5,-67.5 6070.5,-67.5"/>
<text text-anchor="start" x="6078.5" y="-85.5" font-family="Helvetica,sans-Serif" font-size="10.00">src/libs/vpatterndb</text>
<text text-anchor="middle" x="6124" y="-74.5" font-family="Helvetica,sans-Serif" font-size="10.00">/vcontainer.cpp</text>
</a>
</g>
</g>
<!-- Node1&#45;&gt;Node34 -->
<g id="edge54" class="edge">
<title>Node1&#45;&gt;Node34</title>
<path fill="none" stroke="midnightblue" d="M6132,-202.37C6129.61,-194.1 6127.28,-184.73 6126,-176 6121.96,-148.51 6122.46,-115.93 6123.22,-97.7"/>
<polygon fill="midnightblue" stroke="midnightblue" points="6128.71,-203.58 6134.98,-212.12 6135.4,-201.53 6128.71,-203.58"/>
</g>
<!-- Node35 -->
<g id="node30" class="node">
<title>Node35</title>
<g id="a_node30"><a xlink:href="../../df/d7a/vpiece_8cpp.html" target="_top" xlink:title=" ">
<polygon fill="white" stroke="black" points="6195.5,-67.5 6195.5,-97.5 6302.5,-97.5 6302.5,-67.5 6195.5,-67.5"/>
<text text-anchor="start" x="6203.5" y="-85.5" font-family="Helvetica,sans-Serif" font-size="10.00">src/libs/vpatterndb</text>
<text text-anchor="middle" x="6249" y="-74.5" font-family="Helvetica,sans-Serif" font-size="10.00">/vpiece.cpp</text>
</a>
</g>
</g>
<!-- Node1&#45;&gt;Node35 -->
<g id="edge55" class="edge">
<title>Node1&#45;&gt;Node35</title>
<path fill="none" stroke="midnightblue" d="M6141.28,-202.03C6143.43,-181.99 6149.12,-153.81 6164,-134 6176.17,-117.81 6195.18,-105.81 6212.14,-97.59"/>
<polygon fill="midnightblue" stroke="midnightblue" points="6137.77,-201.96 6140.41,-212.22 6144.74,-202.55 6137.77,-201.96"/>
</g>
<!-- Node37 -->
<g id="node32" class="node">
<title>Node37</title>
<g id="a_node32"><a xlink:href="../../d8/dba/vpiecenode_8cpp.html" target="_top" xlink:title=" ">
<polygon fill="white" stroke="black" points="5908.5,-0.5 5908.5,-30.5 6015.5,-30.5 6015.5,-0.5 5908.5,-0.5"/>
<text text-anchor="start" x="5916.5" y="-18.5" font-family="Helvetica,sans-Serif" font-size="10.00">src/libs/vpatterndb</text>
<text text-anchor="middle" x="5962" y="-7.5" font-family="Helvetica,sans-Serif" font-size="10.00">/vpiecenode.cpp</text>
</a>
</g>
</g>
<!-- Node1&#45;&gt;Node37 -->
<g id="edge56" class="edge">
<title>Node1&#45;&gt;Node37</title>
<path fill="none" stroke="midnightblue" d="M6151.81,-203.41C6164.57,-179.27 6184.72,-143.57 6197,-134 6238.9,-101.33 6279.59,-140.86 6311,-98 6319.14,-86.89 6320.02,-77.42 6311,-67 6273.43,-23.61 6103.68,-16.69 6015.52,-16.09"/>
<polygon fill="midnightblue" stroke="midnightblue" points="6148.68,-201.84 6147.16,-212.33 6154.89,-205.08 6148.68,-201.84"/>
</g>
<!-- Node54 -->
<g id="node45" class="node">
<title>Node54</title>
<g id="a_node45"><a xlink:href="../../d7/d8a/measurement__variable__p_8h.html" target="_top" xlink:title=" ">
<polygon fill="white" stroke="red" points="6206,-134.5 6206,-175.5 6342,-175.5 6342,-134.5 6206,-134.5"/>
<text text-anchor="start" x="6214" y="-163.5" font-family="Helvetica,sans-Serif" font-size="10.00">src/libs/vpatterndb</text>
<text text-anchor="start" x="6214" y="-152.5" font-family="Helvetica,sans-Serif" font-size="10.00">/variables/measurement</text>
<text text-anchor="middle" x="6274" y="-141.5" font-family="Helvetica,sans-Serif" font-size="10.00">_variable_p.h</text>
</a>
</g>
</g>
<!-- Node1&#45;&gt;Node54 -->
<g id="edge50" class="edge">
<title>Node1&#45;&gt;Node54</title>
<path fill="none" stroke="midnightblue" d="M6175.69,-207.72C6194.57,-197.79 6217.75,-185.6 6236.85,-175.55"/>
<polygon fill="midnightblue" stroke="midnightblue" points="6174.02,-204.65 6166.79,-212.4 6177.27,-210.84 6174.02,-204.65"/>
</g>
<!-- Node56 -->
<g id="node46" class="node">
<title>Node56</title>
<g id="a_node46"><a xlink:href="../../d1/de1/vincrement__p_8h.html" target="_top" xlink:title=" ">
<polygon fill="white" stroke="red" points="6360.5,-140 6360.5,-170 6503.5,-170 6503.5,-140 6360.5,-140"/>
<text text-anchor="start" x="6368.5" y="-158" font-family="Helvetica,sans-Serif" font-size="10.00">src/libs/vpatterndb</text>
<text text-anchor="middle" x="6432" y="-147" font-family="Helvetica,sans-Serif" font-size="10.00">/variables/vincrement_p.h</text>
</a>
</g>
</g>
<!-- Node1&#45;&gt;Node56 -->
<g id="edge51" class="edge">
<title>Node1&#45;&gt;Node56</title>
<path fill="none" stroke="midnightblue" d="M6203.59,-211.41C6245.48,-201.43 6301.53,-188.03 6351,-176 6358.88,-174.08 6367.19,-172.05 6375.36,-170.04"/>
<polygon fill="midnightblue" stroke="midnightblue" points="6202.71,-208.02 6193.79,-213.74 6204.33,-214.83 6202.71,-208.02"/>
</g>
<!-- Node58 -->
<g id="node47" class="node">
<title>Node58</title>
<g id="a_node47"><a xlink:href="../../d6/d91/vnodedetail_8cpp.html" target="_top" xlink:title=" ">
<polygon fill="white" stroke="black" points="6521.5,-140 6521.5,-170 6628.5,-170 6628.5,-140 6521.5,-140"/>
<text text-anchor="start" x="6529.5" y="-158" font-family="Helvetica,sans-Serif" font-size="10.00">src/libs/vpatterndb</text>
<text text-anchor="middle" x="6575" y="-147" font-family="Helvetica,sans-Serif" font-size="10.00">/vnodedetail.cpp</text>
</a>
</g>
</g>
<!-- Node1&#45;&gt;Node58 -->
<g id="edge53" class="edge">
<title>Node1&#45;&gt;Node58</title>
<path fill="none" stroke="midnightblue" d="M6203.85,-221.33C6278.62,-214.48 6405.88,-200.33 6513,-176 6520.17,-174.37 6527.69,-172.28 6534.93,-170.07"/>
<polygon fill="midnightblue" stroke="midnightblue" points="6203.3,-217.87 6193.65,-222.25 6203.93,-224.84 6203.3,-217.87"/>
</g>
<!-- Node59 -->
<g id="node48" class="node">
<title>Node59</title>
<g id="a_node48"><a xlink:href="../../da/de1/vpiecepath_8cpp.html" target="_top" xlink:title=" ">
<polygon fill="white" stroke="black" points="6646.5,-140 6646.5,-170 6753.5,-170 6753.5,-140 6646.5,-140"/>
<text text-anchor="start" x="6654.5" y="-158" font-family="Helvetica,sans-Serif" font-size="10.00">src/libs/vpatterndb</text>
<text text-anchor="middle" x="6700" y="-147" font-family="Helvetica,sans-Serif" font-size="10.00">/vpiecepath.cpp</text>
</a>
</g>
</g>
<!-- Node1&#45;&gt;Node59 -->
<g id="edge57" class="edge">
<title>Node1&#45;&gt;Node59</title>
<path fill="none" stroke="midnightblue" d="M6203.69,-224.34C6299.04,-220.13 6484.13,-208.24 6638,-176 6645.42,-174.45 6653.2,-172.34 6660.65,-170.07"/>
<polygon fill="midnightblue" stroke="midnightblue" points="6203.47,-220.84 6193.63,-224.77 6203.77,-227.84 6203.47,-220.84"/>
</g>
<!-- Node60 -->
<g id="node49" class="node">
<title>Node60</title>
<g id="a_node49"><a xlink:href="../../d1/d3a/abstracttest_8cpp.html" target="_top" xlink:title=" ">
<polygon fill="white" stroke="black" points="6771.5,-145.5 6771.5,-164.5 6932.5,-164.5 6932.5,-145.5 6771.5,-145.5"/>
<text text-anchor="middle" x="6852" y="-152.5" font-family="Helvetica,sans-Serif" font-size="10.00">src/libs/vtest/abstracttest.cpp</text>
</a>
</g>
</g>
<!-- Node1&#45;&gt;Node60 -->
<g id="edge58" class="edge">
<title>Node1&#45;&gt;Node60</title>
<path fill="none" stroke="midnightblue" d="M6203.84,-224.28C6317.05,-219.68 6560.14,-206.86 6763,-176 6781.79,-173.14 6802.52,-168.57 6819.24,-164.52"/>
<polygon fill="midnightblue" stroke="midnightblue" points="6203.48,-220.79 6193.63,-224.69 6203.76,-227.78 6203.48,-220.79"/>
</g>
<!-- Node61 -->
<g id="node50" class="node">
<title>Node61</title>
<g id="a_node50"><a xlink:href="../../da/db4/piece__tablewidgetitem_8cpp.html" target="_top" xlink:title=" ">
<polygon fill="white" stroke="black" points="6951,-140 6951,-170 7079,-170 7079,-140 6951,-140"/>
<text text-anchor="start" x="6959" y="-158" font-family="Helvetica,sans-Serif" font-size="10.00">src/libs/vwidgets/piece</text>
<text text-anchor="middle" x="7015" y="-147" font-family="Helvetica,sans-Serif" font-size="10.00">_tablewidgetitem.cpp</text>
</a>
</g>
</g>
<!-- Node1&#45;&gt;Node61 -->
<g id="edge59" class="edge">
<title>Node1&#45;&gt;Node61</title>
<path fill="none" stroke="midnightblue" d="M6204.22,-226.89C6340.92,-226.75 6670.41,-221.27 6942,-176 6950.94,-174.51 6960.37,-172.37 6969.37,-170.04"/>
<polygon fill="midnightblue" stroke="midnightblue" points="6203.93,-223.39 6193.93,-226.89 6203.93,-230.39 6203.93,-223.39"/>
</g>
<!-- Node2&#45;&gt;Node3 -->
<g id="edge2" class="edge">
<title>Node2&#45;&gt;Node3</title>
<path fill="none" stroke="midnightblue" d="M210,-141C181.45,-126.73 136.45,-104.23 112.07,-92.03"/>
<polygon fill="midnightblue" stroke="midnightblue" points="208.48,-144.15 218.99,-145.5 211.61,-137.89 208.48,-144.15"/>
</g>
<!-- Node5 -->
<g id="node5" class="node">
<title>Node5</title>
<g id="a_node5"><a xlink:href="../../dd/d66/vdxfengine_8cpp.html" target="_top" xlink:title=" ">
<polygon fill="white" stroke="black" points="1162,-73 1162,-92 1316,-92 1316,-73 1162,-73"/>
<text text-anchor="middle" x="1239" y="-80" font-family="Helvetica,sans-Serif" font-size="10.00">src/libs/vdxf/vdxfengine.cpp</text>
</a>
</g>
</g>
<!-- Node4&#45;&gt;Node5 -->
<g id="edge5" class="edge">
<title>Node4&#45;&gt;Node5</title>
<path fill="none" stroke="midnightblue" d="M940.23,-143.51C1009.96,-129.5 1132.12,-104.97 1196.51,-92.03"/>
<polygon fill="midnightblue" stroke="midnightblue" points="939.45,-140.1 930.34,-145.5 940.83,-146.96 939.45,-140.1"/>
</g>
<!-- Node6 -->
<g id="node6" class="node">
<title>Node6</title>
<g id="a_node6"><a xlink:href="../../de/da8/vbank_8cpp.html" target="_top" xlink:title=" ">
<polygon fill="white" stroke="black" points="208,-73 208,-92 352,-92 352,-73 208,-73"/>
<text text-anchor="middle" x="280" y="-80" font-family="Helvetica,sans-Serif" font-size="10.00">src/libs/vlayout/vbank.cpp</text>
</a>
</g>
</g>
<!-- Node4&#45;&gt;Node6 -->
<g id="edge6" class="edge">
<title>Node4&#45;&gt;Node6</title>
<path fill="none" stroke="midnightblue" d="M794.73,-146.11C689.21,-136.72 512.34,-119.56 361,-98 349.12,-96.31 336.31,-94.16 324.47,-92.05"/>
<polygon fill="midnightblue" stroke="midnightblue" points="794.44,-149.6 804.71,-147 795.06,-142.63 794.44,-149.6"/>
</g>
<!-- Node7 -->
<g id="node7" class="node">
<title>Node7</title>
<g id="a_node7"><a xlink:href="../../df/d5d/vcontour_8cpp.html" target="_top" xlink:title=" ">
<polygon fill="white" stroke="black" points="370,-73 370,-92 526,-92 526,-73 370,-73"/>
<text text-anchor="middle" x="448" y="-80" font-family="Helvetica,sans-Serif" font-size="10.00">src/libs/vlayout/vcontour.cpp</text>
</a>
</g>
</g>
<!-- Node4&#45;&gt;Node7 -->
<g id="edge7" class="edge">
<title>Node4&#45;&gt;Node7</title>
<path fill="none" stroke="midnightblue" d="M823.45,-143.91C752.65,-132.82 635.7,-114.38 535,-98 523.21,-96.08 510.53,-93.99 498.59,-92"/>
<polygon fill="midnightblue" stroke="midnightblue" points="823.13,-147.41 833.55,-145.5 824.22,-140.49 823.13,-147.41"/>
</g>
<!-- Node8 -->
<g id="node8" class="node">
<title>Node8</title>
<g id="a_node8"><a xlink:href="../../d3/d39/vlayoutgenerator_8cpp.html" target="_top" xlink:title=" ">
<polygon fill="white" stroke="black" points="544.5,-73 544.5,-92 741.5,-92 741.5,-73 544.5,-73"/>
<text text-anchor="middle" x="643" y="-80" font-family="Helvetica,sans-Serif" font-size="10.00">src/libs/vlayout/vlayoutgenerator.cpp</text>
</a>
</g>
</g>
<!-- Node4&#45;&gt;Node8 -->
<g id="edge8" class="edge">
<title>Node4&#45;&gt;Node8</title>
<path fill="none" stroke="midnightblue" d="M848.81,-142.72C799.74,-128.6 716.77,-104.73 672.66,-92.03"/>
<polygon fill="midnightblue" stroke="midnightblue" points="847.87,-146.09 858.45,-145.5 849.81,-139.37 847.87,-146.09"/>
</g>
<!-- Node9 -->
<g id="node9" class="node">
<title>Node9</title>
<g id="a_node9"><a xlink:href="../../d2/d2d/vlayoutpaper__p_8h.html" target="_top" xlink:title=" ">
<polygon fill="white" stroke="black" points="798.5,-73 798.5,-92 977.5,-92 977.5,-73 798.5,-73"/>
<text text-anchor="middle" x="888" y="-80" font-family="Helvetica,sans-Serif" font-size="10.00">src/libs/vlayout/vlayoutpaper_p.h</text>
</a>
</g>
</g>
<!-- Node4&#45;&gt;Node9 -->
<g id="edge9" class="edge">
<title>Node4&#45;&gt;Node9</title>
<path fill="none" stroke="midnightblue" d="M888,-134.94C888,-121.03 888,-102.82 888,-92.22"/>
<polygon fill="midnightblue" stroke="midnightblue" points="884.5,-135.36 888,-145.36 891.5,-135.36 884.5,-135.36"/>
</g>
<!-- Node10 -->
<g id="node10" class="node">
<title>Node10</title>
<g id="a_node10"><a xlink:href="../../d1/dd1/vlayoutpaper_8cpp.html" target="_top" xlink:title=" ">
<polygon fill="white" stroke="black" points="799,-6 799,-25 977,-25 977,-6 799,-6"/>
<text text-anchor="middle" x="888" y="-13" font-family="Helvetica,sans-Serif" font-size="10.00">src/libs/vlayout/vlayoutpaper.cpp</text>
</a>
</g>
</g>
<!-- Node4&#45;&gt;Node10 -->
<g id="edge11" class="edge">
<title>Node4&#45;&gt;Node10</title>
<path fill="none" stroke="midnightblue" d="M846.91,-141.92C825.61,-133.34 801.51,-119.45 789,-98 782.06,-86.1 781.8,-78.75 789,-67 802.4,-45.12 828.6,-32.34 850.68,-25.12"/>
<polygon fill="midnightblue" stroke="midnightblue" points="845.85,-145.26 856.44,-145.5 848.31,-138.71 845.85,-145.26"/>
</g>
<!-- Node11 -->
<g id="node11" class="node">
<title>Node11</title>
<g id="a_node11"><a xlink:href="../../db/d5c/vposition_8h.html" target="_top" xlink:title=" ">
<polygon fill="white" stroke="red" points="996,-73 996,-92 1144,-92 1144,-73 996,-73"/>
<text text-anchor="middle" x="1070" y="-80" font-family="Helvetica,sans-Serif" font-size="10.00">src/libs/vlayout/vposition.h</text>
</a>
</g>
</g>
<!-- Node4&#45;&gt;Node11 -->
<g id="edge12" class="edge">
<title>Node4&#45;&gt;Node11</title>
<path fill="none" stroke="midnightblue" d="M919.66,-141.74C956.38,-127.51 1015.95,-104.44 1047.97,-92.03"/>
<polygon fill="midnightblue" stroke="midnightblue" points="918.01,-138.62 909.95,-145.5 920.54,-145.15 918.01,-138.62"/>
</g>
<!-- Node13 -->
<g id="node12" class="node">
<title>Node13</title>
<g id="a_node12"><a xlink:href="../../dd/d70/vlayoutpiece_8cpp.html" target="_top" xlink:title=" ">
<polygon fill="white" stroke="black" points="1334.5,-73 1334.5,-92 1511.5,-92 1511.5,-73 1334.5,-73"/>
<text text-anchor="middle" x="1423" y="-80" font-family="Helvetica,sans-Serif" font-size="10.00">src/libs/vlayout/vlayoutpiece.cpp</text>
</a>
</g>
</g>
<!-- Node4&#45;&gt;Node13 -->
<g id="edge14" class="edge">
<title>Node4&#45;&gt;Node13</title>
<path fill="none" stroke="midnightblue" d="M967.82,-144.24C1055.48,-133.42 1200.37,-115.2 1325,-98 1338.54,-96.13 1353.13,-94.02 1366.8,-92.01"/>
<polygon fill="midnightblue" stroke="midnightblue" points="967.18,-140.8 957.69,-145.49 968.04,-147.74 967.18,-140.8"/>
</g>
<!-- Node9&#45;&gt;Node10 -->
<g id="edge10" class="edge">
<title>Node9&#45;&gt;Node10</title>
<path fill="none" stroke="midnightblue" d="M888,-62.54C888,-50.17 888,-34.62 888,-25.13"/>
<polygon fill="midnightblue" stroke="midnightblue" points="884.5,-62.73 888,-72.73 891.5,-62.73 884.5,-62.73"/>
</g>
<!-- Node11&#45;&gt;Node10 -->
<g id="edge13" class="edge">
<title>Node11&#45;&gt;Node10</title>
<path fill="none" stroke="midnightblue" d="M1036.22,-69.44C1000.12,-56.54 943.79,-36.42 911.98,-25.06"/>
<polygon fill="midnightblue" stroke="midnightblue" points="1035.24,-72.8 1045.83,-72.87 1037.59,-66.21 1035.24,-72.8"/>
</g>
<!-- Node15&#45;&gt;Node13 -->
<g id="edge27" class="edge">
<title>Node15&#45;&gt;Node13</title>
<path fill="none" stroke="midnightblue" d="M4169.14,-153.63C3726.67,-151.85 2049.18,-142.26 1521,-98 1505.06,-96.66 1487.77,-94.39 1472.21,-92.02"/>
<polygon fill="midnightblue" stroke="midnightblue" points="4169.35,-157.14 4179.36,-153.68 4169.38,-150.14 4169.35,-157.14"/>
</g>
<!-- Node15&#45;&gt;Node14 -->
<g id="edge28" class="edge">
<title>Node15&#45;&gt;Node14</title>
<path fill="none" stroke="midnightblue" d="M4168.97,-152.41C3714.12,-145.62 1966.9,-118.44 1721,-98 1704.74,-96.65 1687.1,-94.36 1671.22,-92.01"/>
<polygon fill="midnightblue" stroke="midnightblue" points="4169.1,-155.92 4179.15,-152.56 4169.2,-148.92 4169.1,-155.92"/>
</g>
<!-- Node16 -->
<g id="node15" class="node">
<title>Node16</title>
<g id="a_node15"><a xlink:href="../../d4/d90/fvupdater_8cpp.html" target="_top" xlink:title=" ">
<polygon fill="white" stroke="black" points="3712.5,-73 3712.5,-92 3865.5,-92 3865.5,-73 3712.5,-73"/>
<text text-anchor="middle" x="3789" y="-80" font-family="Helvetica,sans-Serif" font-size="10.00">src/libs/fervor/fvupdater.cpp</text>
</a>
</g>
</g>
<!-- Node15&#45;&gt;Node16 -->
<g id="edge17" class="edge">
<title>Node15&#45;&gt;Node16</title>
<path fill="none" stroke="midnightblue" d="M4200.82,-144.13C4119.71,-133.45 3987.64,-115.58 3874,-98 3862.16,-96.17 3849.43,-94.07 3837.5,-92.04"/>
<polygon fill="midnightblue" stroke="midnightblue" points="4200.57,-147.62 4210.94,-145.46 4201.48,-140.68 4200.57,-147.62"/>
</g>
<!-- Node17 -->
<g id="node16" class="node">
<title>Node17</title>
<g id="a_node16"><a xlink:href="../../d9/dc8/dxiface_8cpp.html" target="_top" xlink:title=" ">
<polygon fill="white" stroke="black" points="3883.5,-73 3883.5,-92 4018.5,-92 4018.5,-73 3883.5,-73"/>
<text text-anchor="middle" x="3951" y="-80" font-family="Helvetica,sans-Serif" font-size="10.00">src/libs/vdxf/dxiface.cpp</text>
</a>
</g>
</g>
<!-- Node15&#45;&gt;Node17 -->
<g id="edge18" class="edge">
<title>Node15&#45;&gt;Node17</title>
<path fill="none" stroke="midnightblue" d="M4227.69,-143.34C4162.8,-129.3 4050.02,-104.91 3990.46,-92.03"/>
<polygon fill="midnightblue" stroke="midnightblue" points="4227.16,-146.8 4237.68,-145.5 4228.64,-139.96 4227.16,-146.8"/>
</g>
<!-- Node18 -->
<g id="node17" class="node">
<title>Node18</title>
<g id="a_node17"><a xlink:href="../../da/d75/vabstractarc__p_8h.html" target="_top" xlink:title=" ">
<polygon fill="white" stroke="red" points="4036.5,-67.5 4036.5,-97.5 4143.5,-97.5 4143.5,-67.5 4036.5,-67.5"/>
<text text-anchor="start" x="4044.5" y="-85.5" font-family="Helvetica,sans-Serif" font-size="10.00">src/libs/vgeometry</text>
<text text-anchor="middle" x="4090" y="-74.5" font-family="Helvetica,sans-Serif" font-size="10.00">/vabstractarc_p.h</text>
</a>
</g>
</g>
<!-- Node15&#45;&gt;Node18 -->
<g id="edge19" class="edge">
<title>Node15&#45;&gt;Node18</title>
<path fill="none" stroke="midnightblue" d="M4244.91,-141.9C4212.22,-129.58 4161.56,-110.48 4127.15,-97.51"/>
<polygon fill="midnightblue" stroke="midnightblue" points="4243.85,-145.24 4254.44,-145.5 4246.32,-138.69 4243.85,-145.24"/>
</g>
<!-- Node20 -->
<g id="node18" class="node">
<title>Node20</title>
<g id="a_node18"><a xlink:href="../../dc/da3/varc__p_8h.html" target="_top" xlink:title=" ">
<polygon fill="white" stroke="red" points="4161.5,-67.5 4161.5,-97.5 4268.5,-97.5 4268.5,-67.5 4161.5,-67.5"/>
<text text-anchor="start" x="4169.5" y="-85.5" font-family="Helvetica,sans-Serif" font-size="10.00">src/libs/vgeometry</text>
<text text-anchor="middle" x="4215" y="-74.5" font-family="Helvetica,sans-Serif" font-size="10.00">/varc_p.h</text>
</a>
</g>
</g>
<!-- Node15&#45;&gt;Node20 -->
<g id="edge20" class="edge">
<title>Node15&#45;&gt;Node20</title>
<path fill="none" stroke="midnightblue" d="M4262.7,-137.74C4252.02,-125.6 4237.57,-109.16 4227.38,-97.58"/>
<polygon fill="midnightblue" stroke="midnightblue" points="4260.17,-140.16 4269.4,-145.36 4265.42,-135.53 4260.17,-140.16"/>
</g>
<!-- Node22 -->
<g id="node19" class="node">
<title>Node22</title>
<g id="a_node19"><a xlink:href="../../d5/d8e/vcubicbezier__p_8h.html" target="_top" xlink:title=" ">
<polygon fill="white" stroke="red" points="4286.5,-67.5 4286.5,-97.5 4393.5,-97.5 4393.5,-67.5 4286.5,-67.5"/>
<text text-anchor="start" x="4294.5" y="-85.5" font-family="Helvetica,sans-Serif" font-size="10.00">src/libs/vgeometry</text>
<text text-anchor="middle" x="4340" y="-74.5" font-family="Helvetica,sans-Serif" font-size="10.00">/vcubicbezier_p.h</text>
</a>
</g>
</g>
<!-- Node15&#45;&gt;Node22 -->
<g id="edge21" class="edge">
<title>Node15&#45;&gt;Node22</title>
<path fill="none" stroke="midnightblue" d="M4291.53,-137.74C4302.38,-125.6 4317.07,-109.16 4327.42,-97.58"/>
<polygon fill="midnightblue" stroke="midnightblue" points="4288.78,-135.57 4284.73,-145.36 4294,-140.23 4288.78,-135.57"/>
</g>
<!-- Node24 -->
<g id="node20" class="node">
<title>Node24</title>
<g id="a_node20"><a xlink:href="../../df/dde/vellipticalarc__p_8h.html" target="_top" xlink:title=" ">
<polygon fill="white" stroke="black" points="4450.5,-67.5 4450.5,-97.5 4557.5,-97.5 4557.5,-67.5 4450.5,-67.5"/>
<text text-anchor="start" x="4458.5" y="-85.5" font-family="Helvetica,sans-Serif" font-size="10.00">src/libs/vgeometry</text>
<text text-anchor="middle" x="4504" y="-74.5" font-family="Helvetica,sans-Serif" font-size="10.00">/vellipticalarc_p.h</text>
</a>
</g>
</g>
<!-- Node15&#45;&gt;Node24 -->
<g id="edge22" class="edge">
<title>Node15&#45;&gt;Node24</title>
<path fill="none" stroke="midnightblue" d="M4314.17,-142.46C4353.78,-130.15 4416.5,-110.68 4458.9,-97.51"/>
<polygon fill="midnightblue" stroke="midnightblue" points="4312.89,-139.19 4304.38,-145.5 4314.97,-145.87 4312.89,-139.19"/>
</g>
<!-- Node25 -->
<g id="node21" class="node">
<title>Node25</title>
<g id="a_node21"><a xlink:href="../../d6/dfb/vellipticalarc_8cpp.html" target="_top" xlink:title=" ">
<polygon fill="white" stroke="black" points="4409.5,-0.5 4409.5,-30.5 4516.5,-30.5 4516.5,-0.5 4409.5,-0.5"/>
<text text-anchor="start" x="4417.5" y="-18.5" font-family="Helvetica,sans-Serif" font-size="10.00">src/libs/vgeometry</text>
<text text-anchor="middle" x="4463" y="-7.5" font-family="Helvetica,sans-Serif" font-size="10.00">/vellipticalarc.cpp</text>
</a>
</g>
</g>
<!-- Node15&#45;&gt;Node25 -->
<g id="edge24" class="edge">
<title>Node15&#45;&gt;Node25</title>
<path fill="none" stroke="midnightblue" d="M4316.18,-142.23C4342.33,-133.05 4376.48,-118.42 4402,-98 4425.88,-78.9 4445.34,-48.4 4455.45,-30.62"/>
<polygon fill="midnightblue" stroke="midnightblue" points="4314.93,-138.96 4306.58,-145.48 4317.17,-145.59 4314.93,-138.96"/>
</g>
<!-- Node26 -->
<g id="node22" class="node">
<title>Node26</title>
<g id="a_node22"><a xlink:href="../../d1/d76/vspline__p_8h.html" target="_top" xlink:title=" ">
<polygon fill="white" stroke="red" points="4575.5,-67.5 4575.5,-97.5 4682.5,-97.5 4682.5,-67.5 4575.5,-67.5"/>
<text text-anchor="start" x="4583.5" y="-85.5" font-family="Helvetica,sans-Serif" font-size="10.00">src/libs/vgeometry</text>
<text text-anchor="middle" x="4629" y="-74.5" font-family="Helvetica,sans-Serif" font-size="10.00">/vspline_p.h</text>
</a>
</g>
</g>
<!-- Node15&#45;&gt;Node26 -->
<g id="edge25" class="edge">
<title>Node15&#45;&gt;Node26</title>
<path fill="none" stroke="midnightblue" d="M4333.77,-143.6C4392.13,-132.77 4485.58,-115.04 4566,-98 4569.07,-97.35 4572.23,-96.67 4575.41,-95.97"/>
<polygon fill="midnightblue" stroke="midnightblue" points="4332.85,-140.22 4323.65,-145.48 4334.12,-147.1 4332.85,-140.22"/>
</g>
<!-- Node28 -->
<g id="node23" class="node">
<title>Node28</title>
<g id="a_node23"><a xlink:href="../../d9/d15/vabstractpiece_8cpp.html" target="_top" xlink:title=" ">
<polygon fill="white" stroke="black" points="4701,-73 4701,-92 4887,-92 4887,-73 4701,-73"/>
<text text-anchor="middle" x="4794" y="-80" font-family="Helvetica,sans-Serif" font-size="10.00">src/libs/vlayout/vabstractpiece.cpp</text>
</a>
</g>
</g>
<!-- Node15&#45;&gt;Node28 -->
<g id="edge26" class="edge">
<title>Node15&#45;&gt;Node28</title>
<path fill="none" stroke="midnightblue" d="M4350.91,-144.12C4433.74,-133.03 4572.02,-114.42 4691,-98 4704.86,-96.09 4719.77,-94 4733.82,-92.03"/>
<polygon fill="midnightblue" stroke="midnightblue" points="4350.29,-140.68 4340.84,-145.47 4351.22,-147.61 4350.29,-140.68"/>
</g>
<!-- Node29 -->
<g id="node24" class="node">
<title>Node29</title>
<g id="a_node24"><a xlink:href="../../db/d65/dialogexporttocsv_8cpp.html" target="_top" xlink:title=" ">
<polygon fill="white" stroke="black" points="4905.5,-67.5 4905.5,-97.5 5032.5,-97.5 5032.5,-67.5 4905.5,-67.5"/>
<text text-anchor="start" x="4913.5" y="-85.5" font-family="Helvetica,sans-Serif" font-size="10.00">src/libs/vmisc/dialogs</text>
<text text-anchor="middle" x="4969" y="-74.5" font-family="Helvetica,sans-Serif" font-size="10.00">/dialogexporttocsv.cpp</text>
</a>
</g>
</g>
<!-- Node15&#45;&gt;Node29 -->
<g id="edge29" class="edge">
<title>Node15&#45;&gt;Node29</title>
<path fill="none" stroke="midnightblue" d="M4384.91,-147.71C4508.74,-139.69 4717.72,-123.7 4896,-98 4899.07,-97.56 4902.2,-97.07 4905.37,-96.55"/>
<polygon fill="midnightblue" stroke="midnightblue" points="4384.42,-144.24 4374.67,-148.37 4384.87,-151.22 4384.42,-144.24"/>
</g>
<!-- Node30 -->
<g id="node25" class="node">
<title>Node30</title>
<g id="a_node25"><a xlink:href="../../d6/d0b/def_8cpp.html" target="_top" xlink:title=" ">
<polygon fill="white" stroke="black" points="5051,-73 5051,-92 5173,-92 5173,-73 5051,-73"/>
<text text-anchor="middle" x="5112" y="-80" font-family="Helvetica,sans-Serif" font-size="10.00">src/libs/vmisc/def.cpp</text>
</a>
</g>
</g>
<!-- Node15&#45;&gt;Node30 -->
<g id="edge30" class="edge">
<title>Node15&#45;&gt;Node30</title>
<path fill="none" stroke="midnightblue" d="M4384.52,-150.47C4532.82,-144.61 4808.22,-130.17 5041,-98 5052.09,-96.47 5064.05,-94.25 5074.94,-92"/>
<polygon fill="midnightblue" stroke="midnightblue" points="4384.36,-146.97 4374.5,-150.86 4384.63,-153.97 4384.36,-146.97"/>
</g>
<!-- Node31 -->
<g id="node26" class="node">
<title>Node31</title>
<g id="a_node26"><a xlink:href="../../d0/df6/vabstractapplication_8cpp.html" target="_top" xlink:title=" ">
<polygon fill="white" stroke="black" points="5191,-73 5191,-92 5397,-92 5397,-73 5191,-73"/>
<text text-anchor="middle" x="5294" y="-80" font-family="Helvetica,sans-Serif" font-size="10.00">src/libs/vmisc/vabstractapplication.cpp</text>
</a>
</g>
</g>
<!-- Node15&#45;&gt;Node31 -->
<g id="edge31" class="edge">
<title>Node15&#45;&gt;Node31</title>
<path fill="none" stroke="midnightblue" d="M4384.79,-149.67C4554.59,-142.31 4894.64,-125.46 5182,-98 5198.88,-96.39 5217.14,-94.21 5233.92,-92.03"/>
<polygon fill="midnightblue" stroke="midnightblue" points="4384.44,-146.18 4374.6,-150.11 4384.74,-153.17 4384.44,-146.18"/>
</g>
<!-- Node32 -->
<g id="node27" class="node">
<title>Node32</title>
<g id="a_node27"><a xlink:href="../../d4/d4f/pmsystems_8cpp.html" target="_top" xlink:title=" ">
<polygon fill="white" stroke="black" points="5415.5,-67.5 5415.5,-97.5 5522.5,-97.5 5522.5,-67.5 5415.5,-67.5"/>
<text text-anchor="start" x="5423.5" y="-85.5" font-family="Helvetica,sans-Serif" font-size="10.00">src/libs/vpatterndb</text>
<text text-anchor="middle" x="5469" y="-74.5" font-family="Helvetica,sans-Serif" font-size="10.00">/pmsystems.cpp</text>
</a>
</g>
</g>
<!-- Node15&#45;&gt;Node32 -->
<g id="edge32" class="edge">
<title>Node15&#45;&gt;Node32</title>
<path fill="none" stroke="midnightblue" d="M4384.86,-154.96C4586.45,-155.37 5033.67,-149.67 5406,-98 5409,-97.58 5412.07,-97.09 5415.16,-96.55"/>
<polygon fill="midnightblue" stroke="midnightblue" points="4384.58,-151.46 4374.57,-154.94 4384.56,-158.46 4384.58,-151.46"/>
</g>
<!-- Node15&#45;&gt;Node33 -->
<g id="edge33" class="edge">
<title>Node15&#45;&gt;Node33</title>
<path fill="none" stroke="midnightblue" d="M4384.72,-153.07C4702.81,-149.9 5634.5,-137.41 5936,-98 5939,-97.61 5942.08,-97.14 5945.17,-96.61"/>
<polygon fill="midnightblue" stroke="midnightblue" points="4384.54,-149.57 4374.58,-153.17 4384.61,-156.57 4384.54,-149.57"/>
</g>
<!-- Node15&#45;&gt;Node34 -->
<g id="edge34" class="edge">
<title>Node15&#45;&gt;Node34</title>
<path fill="none" stroke="midnightblue" d="M4384.93,-153.37C4719.17,-150.97 5734.22,-140.32 6061,-98 6064.01,-97.61 6067.08,-97.14 6070.17,-96.62"/>
<polygon fill="midnightblue" stroke="midnightblue" points="4384.74,-149.87 4374.76,-153.44 4384.79,-156.87 4384.74,-149.87"/>
</g>
<!-- Node15&#45;&gt;Node35 -->
<g id="edge35" class="edge">
<title>Node15&#45;&gt;Node35</title>
<path fill="none" stroke="midnightblue" d="M4384.89,-153.63C4734.49,-151.98 5833.79,-143.25 6186,-98 6189.01,-97.61 6192.08,-97.15 6195.17,-96.62"/>
<polygon fill="midnightblue" stroke="midnightblue" points="4384.76,-150.13 4374.77,-153.67 4384.79,-157.13 4384.76,-150.13"/>
</g>
<!-- Node36 -->
<g id="node31" class="node">
<title>Node36</title>
<g id="a_node31"><a xlink:href="../../df/dba/vpiecenode__p_8h.html" target="_top" xlink:title=" ">
<polygon fill="white" stroke="black" points="5540.5,-67.5 5540.5,-97.5 5647.5,-97.5 5647.5,-67.5 5540.5,-67.5"/>
<text text-anchor="start" x="5548.5" y="-85.5" font-family="Helvetica,sans-Serif" font-size="10.00">src/libs/vpatterndb</text>
<text text-anchor="middle" x="5594" y="-74.5" font-family="Helvetica,sans-Serif" font-size="10.00">/vpiecenode_p.h</text>
</a>
</g>
</g>
<!-- Node15&#45;&gt;Node36 -->
<g id="edge36" class="edge">
<title>Node15&#45;&gt;Node36</title>
<path fill="none" stroke="midnightblue" d="M4384.79,-151.7C4646.67,-145.71 5310.99,-127.98 5531,-98 5534,-97.59 5537.07,-97.11 5540.16,-96.57"/>
<polygon fill="midnightblue" stroke="midnightblue" points="4384.43,-148.21 4374.52,-151.94 4384.59,-155.21 4384.43,-148.21"/>
</g>
<!-- Node38 -->
<g id="node33" class="node">
<title>Node38</title>
<g id="a_node33"><a xlink:href="../../de/d3e/vtranslatevars_8cpp.html" target="_top" xlink:title=" ">
<polygon fill="white" stroke="black" points="5666,-67.5 5666,-97.5 5776,-97.5 5776,-67.5 5666,-67.5"/>
<text text-anchor="start" x="5674" y="-85.5" font-family="Helvetica,sans-Serif" font-size="10.00">src/libs/vpatterndb</text>
<text text-anchor="middle" x="5721" y="-74.5" font-family="Helvetica,sans-Serif" font-size="10.00">/vtranslatevars.cpp</text>
</a>
</g>
</g>
<!-- Node15&#45;&gt;Node38 -->
<g id="edge38" class="edge">
<title>Node15&#45;&gt;Node38</title>
<path fill="none" stroke="midnightblue" d="M4384.93,-152.11C4665.13,-146.81 5410.9,-130.05 5656,-98 5659.21,-97.58 5662.5,-97.08 5665.8,-96.52"/>
<polygon fill="midnightblue" stroke="midnightblue" points="4384.69,-148.62 4374.76,-152.3 4384.82,-155.62 4384.69,-148.62"/>
</g>
<!-- Node39 -->
<g id="node34" class="node">
<title>Node39</title>
<g id="a_node34"><a xlink:href="../../df/d40/export__format__combobox_8cpp.html" target="_top" xlink:title=" ">
<polygon fill="white" stroke="black" points="5794.5,-67.5 5794.5,-97.5 5927.5,-97.5 5927.5,-67.5 5794.5,-67.5"/>
<text text-anchor="start" x="5802.5" y="-85.5" font-family="Helvetica,sans-Serif" font-size="10.00">src/libs/vwidgets/export</text>
<text text-anchor="middle" x="5861" y="-74.5" font-family="Helvetica,sans-Serif" font-size="10.00">_format_combobox.cpp</text>
</a>
</g>
</g>
<!-- Node15&#45;&gt;Node39 -->
<g id="edge39" class="edge">
<title>Node15&#45;&gt;Node39</title>
<path fill="none" stroke="midnightblue" d="M4385.07,-152.11C4683.27,-146.57 5513.5,-128.76 5785,-98 5788.07,-97.65 5791.2,-97.25 5794.36,-96.81"/>
<polygon fill="midnightblue" stroke="midnightblue" points="4384.62,-148.62 4374.69,-152.31 4384.75,-155.62 4384.62,-148.62"/>
</g>
<!-- Node40 -->
<g id="node35" class="node">
<title>Node40</title>
<g id="a_node35"><a xlink:href="../../d2/d28/page__format__combobox_8cpp.html" target="_top" xlink:title=" ">
<polygon fill="white" stroke="black" points="1730.5,-67.5 1730.5,-97.5 1861.5,-97.5 1861.5,-67.5 1730.5,-67.5"/>
<text text-anchor="start" x="1738.5" y="-85.5" font-family="Helvetica,sans-Serif" font-size="10.00">src/libs/vwidgets/page</text>
<text text-anchor="middle" x="1796" y="-74.5" font-family="Helvetica,sans-Serif" font-size="10.00">_format_combobox.cpp</text>
</a>
</g>
</g>
<!-- Node15&#45;&gt;Node40 -->
<g id="edge40" class="edge">
<title>Node15&#45;&gt;Node40</title>
<path fill="none" stroke="midnightblue" d="M4169.15,-152.56C3731.55,-146.55 2100.86,-122.72 1871,-98 1867.97,-97.67 1864.87,-97.29 1861.76,-96.86"/>
<polygon fill="midnightblue" stroke="midnightblue" points="4169.22,-156.06 4179.27,-152.69 4169.32,-149.06 4169.22,-156.06"/>
</g>
<!-- Node41 -->
<g id="node36" class="node">
<title>Node41</title>
<g id="a_node36"><a xlink:href="../../d3/d4f/mouse__coordinates_8cpp.html" target="_top" xlink:title=" ">
<polygon fill="white" stroke="black" points="1880,-67.5 1880,-97.5 2014,-97.5 2014,-67.5 1880,-67.5"/>
<text text-anchor="start" x="1888" y="-85.5" font-family="Helvetica,sans-Serif" font-size="10.00">src/libs/vwidgets/mouse</text>
<text text-anchor="middle" x="1947" y="-74.5" font-family="Helvetica,sans-Serif" font-size="10.00">_coordinates.cpp</text>
</a>
</g>
</g>
<!-- Node15&#45;&gt;Node41 -->
<g id="edge41" class="edge">
<title>Node15&#45;&gt;Node41</title>
<path fill="none" stroke="midnightblue" d="M4169.37,-152.36C3749.9,-145.84 2237.21,-120.94 2023,-98 2020.06,-97.69 2017.07,-97.32 2014.05,-96.91"/>
<polygon fill="midnightblue" stroke="midnightblue" points="4169.32,-155.86 4179.37,-152.52 4169.43,-148.86 4169.32,-155.86"/>
</g>
<!-- Node42 -->
<g id="node37" class="node">
<title>Node42</title>
<g id="a_node37"><a xlink:href="../../d7/d1b/pen__toolbar_8cpp.html" target="_top" xlink:title=" ">
<polygon fill="white" stroke="black" points="2032.5,-67.5 2032.5,-97.5 2151.5,-97.5 2151.5,-67.5 2032.5,-67.5"/>
<text text-anchor="start" x="2040.5" y="-85.5" font-family="Helvetica,sans-Serif" font-size="10.00">src/libs/vwidgets/pen</text>
<text text-anchor="middle" x="2092" y="-74.5" font-family="Helvetica,sans-Serif" font-size="10.00">_toolbar.cpp</text>
</a>
</g>
</g>
<!-- Node15&#45;&gt;Node42 -->
<g id="edge42" class="edge">
<title>Node15&#45;&gt;Node42</title>
<path fill="none" stroke="midnightblue" d="M4169.28,-152.29C3766.35,-145.74 2360.76,-121.44 2161,-98 2157.96,-97.64 2154.86,-97.22 2151.73,-96.74"/>
<polygon fill="midnightblue" stroke="midnightblue" points="4169.42,-155.79 4179.48,-152.46 4169.54,-148.79 4169.42,-155.79"/>
</g>
<!-- Node43 -->
<g id="node38" class="node">
<title>Node43</title>
<g id="a_node38"><a xlink:href="../../d8/d76/scene__rect_8cpp.html" target="_top" xlink:title=" ">
<polygon fill="white" stroke="black" points="2170,-67.5 2170,-97.5 2300,-97.5 2300,-67.5 2170,-67.5"/>
<text text-anchor="start" x="2178" y="-85.5" font-family="Helvetica,sans-Serif" font-size="10.00">src/libs/vwidgets/scene</text>
<text text-anchor="middle" x="2235" y="-74.5" font-family="Helvetica,sans-Serif" font-size="10.00">_rect.cpp</text>
</a>
</g>
</g>
<!-- Node15&#45;&gt;Node43 -->
<g id="edge43" class="edge">
<title>Node15&#45;&gt;Node43</title>
<path fill="none" stroke="midnightblue" d="M4169.2,-153.28C3812.72,-150.52 2673.96,-138.67 2309,-98 2306.14,-97.68 2303.22,-97.31 2300.28,-96.9"/>
<polygon fill="midnightblue" stroke="midnightblue" points="4169.23,-156.78 4179.26,-153.35 4169.28,-149.78 4169.23,-156.78"/>
</g>
<!-- Node44 -->
<g id="node39" class="node">
<title>Node44</title>
<g id="a_node39"><a xlink:href="../../dd/df6/vabstractmainwindow_8cpp.html" target="_top" xlink:title=" ">
<polygon fill="white" stroke="black" points="2318.5,-73 2318.5,-92 2547.5,-92 2547.5,-73 2318.5,-73"/>
<text text-anchor="middle" x="2433" y="-80" font-family="Helvetica,sans-Serif" font-size="10.00">src/libs/vwidgets/vabstractmainwindow.cpp</text>
</a>
</g>
</g>
<!-- Node15&#45;&gt;Node44 -->
<g id="edge44" class="edge">
<title>Node15&#45;&gt;Node44</title>
<path fill="none" stroke="midnightblue" d="M4169.09,-153.66C3897.69,-152.13 3164.87,-143.71 2556,-98 2536.6,-96.54 2515.54,-94.3 2496.42,-92.02"/>
<polygon fill="midnightblue" stroke="midnightblue" points="4169.31,-157.17 4179.33,-153.72 4169.35,-150.17 4169.31,-157.17"/>
</g>
<!-- Node45 -->
<g id="node40" class="node">
<title>Node45</title>
<g id="a_node40"><a xlink:href="../../de/d45/vcontrolpointspline_8cpp.html" target="_top" xlink:title=" ">
<polygon fill="white" stroke="black" points="2565.5,-73 2565.5,-92 2780.5,-92 2780.5,-73 2565.5,-73"/>
<text text-anchor="middle" x="2673" y="-80" font-family="Helvetica,sans-Serif" font-size="10.00">src/libs/vwidgets/vcontrolpointspline.cpp</text>
</a>
</g>
</g>
<!-- Node15&#45;&gt;Node45 -->
<g id="edge45" class="edge">
<title>Node15&#45;&gt;Node45</title>
<path fill="none" stroke="midnightblue" d="M4169.06,-153.1C3923.69,-150.36 3305.34,-139.56 2790,-98 2771.64,-96.52 2751.73,-94.29 2733.62,-92.02"/>
<polygon fill="midnightblue" stroke="midnightblue" points="4169.36,-156.6 4179.4,-153.21 4169.44,-149.6 4169.36,-156.6"/>
</g>
<!-- Node46 -->
<g id="node41" class="node">
<title>Node46</title>
<g id="a_node41"><a xlink:href="../../de/dec/vgraphicssimpletextitem_8cpp.html" target="_top" xlink:title=" ">
<polygon fill="white" stroke="black" points="2799,-73 2799,-92 3043,-92 3043,-73 2799,-73"/>
<text text-anchor="middle" x="2921" y="-80" font-family="Helvetica,sans-Serif" font-size="10.00">src/libs/vwidgets/vgraphicssimpletextitem.cpp</text>
</a>
</g>
</g>
<!-- Node15&#45;&gt;Node46 -->
<g id="edge46" class="edge">
<title>Node15&#45;&gt;Node46</title>
<path fill="none" stroke="midnightblue" d="M4168.94,-151.4C3955.3,-145.75 3463.92,-130.18 3052,-98 3031.93,-96.43 3010.17,-94.23 2990.27,-92.01"/>
<polygon fill="midnightblue" stroke="midnightblue" points="4169.12,-154.91 4179.21,-151.67 4169.31,-147.91 4169.12,-154.91"/>
</g>
<!-- Node47 -->
<g id="node42" class="node">
<title>Node47</title>
<g id="a_node42"><a xlink:href="../../d1/d90/vgrainlineitem_8cpp.html" target="_top" xlink:title=" ">
<polygon fill="white" stroke="black" points="3061.5,-73 3061.5,-92 3254.5,-92 3254.5,-73 3061.5,-73"/>
<text text-anchor="middle" x="3158" y="-80" font-family="Helvetica,sans-Serif" font-size="10.00">src/libs/vwidgets/vgrainlineitem.cpp</text>
</a>
</g>
</g>
<!-- Node15&#45;&gt;Node47 -->
<g id="edge47" class="edge">
<title>Node15&#45;&gt;Node47</title>
<path fill="none" stroke="midnightblue" d="M4169.35,-150.9C3984.06,-144.94 3593.05,-129.55 3264,-98 3247.73,-96.44 3230.12,-94.24 3214.01,-92.02"/>
<polygon fill="midnightblue" stroke="midnightblue" points="4169.26,-154.4 4179.37,-151.22 4169.48,-147.41 4169.26,-154.4"/>
</g>
<!-- Node48 -->
<g id="node43" class="node">
<title>Node48</title>
<g id="a_node43"><a xlink:href="../../d1/d88/vmaingraphicsscene_8cpp.html" target="_top" xlink:title=" ">
<polygon fill="white" stroke="black" points="3273,-73 3273,-92 3495,-92 3495,-73 3273,-73"/>
<text text-anchor="middle" x="3384" y="-80" font-family="Helvetica,sans-Serif" font-size="10.00">src/libs/vwidgets/vmaingraphicsscene.cpp</text>
</a>
</g>
</g>
<!-- Node15&#45;&gt;Node48 -->
<g id="edge48" class="edge">
<title>Node15&#45;&gt;Node48</title>
<path fill="none" stroke="midnightblue" d="M4169.15,-147.82C4019.63,-138.89 3740.97,-120.89 3504,-98 3486.35,-96.3 3467.28,-94.14 3449.64,-92.01"/>
<polygon fill="midnightblue" stroke="midnightblue" points="4169.06,-151.32 4179.25,-148.43 4169.48,-144.34 4169.06,-151.32"/>
</g>
<!-- Node49 -->
<g id="node44" class="node">
<title>Node49</title>
<g id="a_node44"><a xlink:href="../../d0/d5d/vscenepoint_8cpp.html" target="_top" xlink:title=" ">
<polygon fill="white" stroke="black" points="3513.5,-73 3513.5,-92 3694.5,-92 3694.5,-73 3513.5,-73"/>
<text text-anchor="middle" x="3604" y="-80" font-family="Helvetica,sans-Serif" font-size="10.00">src/libs/vwidgets/vscenepoint.cpp</text>
</a>
</g>
</g>
<!-- Node15&#45;&gt;Node49 -->
<g id="edge49" class="edge">
<title>Node15&#45;&gt;Node49</title>
<path fill="none" stroke="midnightblue" d="M4169.09,-145.03C4053.59,-135.07 3865.08,-117.76 3703,-98 3688.69,-96.25 3673.25,-94.12 3658.92,-92.02"/>
<polygon fill="midnightblue" stroke="midnightblue" points="4169.08,-148.55 4179.34,-145.92 4169.68,-141.57 4169.08,-148.55"/>
</g>
<!-- Node24&#45;&gt;Node25 -->
<g id="edge23" class="edge">
<title>Node24&#45;&gt;Node25</title>
<path fill="none" stroke="midnightblue" d="M4489.72,-58.87C4483.79,-49.46 4477.09,-38.83 4471.88,-30.58"/>
<polygon fill="midnightblue" stroke="midnightblue" points="4486.81,-60.81 4495.1,-67.4 4492.73,-57.07 4486.81,-60.81"/>
</g>
<!-- Node36&#45;&gt;Node37 -->
<g id="edge37" class="edge">
<title>Node36&#45;&gt;Node37</title>
<path fill="none" stroke="midnightblue" d="M5657.54,-66.97C5751.64,-48.58 5849.4,-33.21 5908.37,-24.35"/>
<polygon fill="midnightblue" stroke="midnightblue" points="5656.7,-63.57 5647.57,-68.93 5658.06,-70.43 5656.7,-63.57"/>
</g>
</g>
</svg>
