<?xml version="1.0" encoding="UTF-8" standalone="no"?>
<!DOCTYPE svg PUBLIC "-//W3C//DTD SVG 1.1//EN"
 "http://www.w3.org/Graphics/SVG/1.1/DTD/svg11.dtd">
<!-- Generated by graphviz version 2.43.0 (0)
 -->
<!-- Title: src/libs/vpatterndb/variables/vcurvelength.h Pages: 1 -->
<svg width="5762pt" height="374pt"
 viewBox="0.00 0.00 5761.50 374.00" xmlns="http://www.w3.org/2000/svg" xmlns:xlink="http://www.w3.org/1999/xlink">
<g id="graph0" class="graph" transform="scale(1 1) rotate(0) translate(4 370)">
<title>src/libs/vpatterndb/variables/vcurvelength.h</title>
<polygon fill="white" stroke="transparent" points="-4,4 -4,-370 5757.5,-370 5757.5,4 -4,4"/>
<!-- Node1 -->
<g id="node1" class="node">
<title>Node1</title>
<g id="a_node1"><a xlink:title=" ">
<polygon fill="#bfbfbf" stroke="black" points="227.5,-335.5 227.5,-365.5 367.5,-365.5 367.5,-335.5 227.5,-335.5"/>
<text text-anchor="start" x="235.5" y="-353.5" font-family="Helvetica,sans-Serif" font-size="10.00">src/libs/vpatterndb</text>
<text text-anchor="middle" x="297.5" y="-342.5" font-family="Helvetica,sans-Serif" font-size="10.00">/variables/vcurvelength.h</text>
</a>
</g>
</g>
<!-- Node2 -->
<g id="node2" class="node">
<title>Node2</title>
<g id="a_node2"><a xlink:href="../../d6/dd4/vcurvelength_8cpp.html" target="_top" xlink:title=" ">
<polygon fill="white" stroke="black" points="117.5,-268.5 117.5,-298.5 269.5,-298.5 269.5,-268.5 117.5,-268.5"/>
<text text-anchor="start" x="125.5" y="-286.5" font-family="Helvetica,sans-Serif" font-size="10.00">src/libs/vpatterndb</text>
<text text-anchor="middle" x="193.5" y="-275.5" font-family="Helvetica,sans-Serif" font-size="10.00">/variables/vcurvelength.cpp</text>
</a>
</g>
</g>
<!-- Node1&#45;&gt;Node2 -->
<g id="edge1" class="edge">
<title>Node1&#45;&gt;Node2</title>
<path fill="none" stroke="midnightblue" d="M266.32,-330.02C250.14,-319.9 230.73,-307.77 216.02,-298.58"/>
<polygon fill="midnightblue" stroke="midnightblue" points="264.6,-333.06 274.93,-335.4 268.31,-327.13 264.6,-333.06"/>
</g>
<!-- Node3 -->
<g id="node3" class="node">
<title>Node3</title>
<g id="a_node3"><a xlink:href="../../d6/d46/vcontainer_8cpp.html" target="_top" xlink:title=" ">
<polygon fill="white" stroke="black" points="0,-67.5 0,-97.5 107,-97.5 107,-67.5 0,-67.5"/>
<text text-anchor="start" x="8" y="-85.5" font-family="Helvetica,sans-Serif" font-size="10.00">src/libs/vpatterndb</text>
<text text-anchor="middle" x="53.5" y="-74.5" font-family="Helvetica,sans-Serif" font-size="10.00">/vcontainer.cpp</text>
</a>
</g>
</g>
<!-- Node1&#45;&gt;Node3 -->
<g id="edge2" class="edge">
<title>Node1&#45;&gt;Node3</title>
<path fill="none" stroke="midnightblue" d="M295.96,-325.2C293.94,-308.12 289.27,-285.3 278.5,-268 227.67,-186.29 127.9,-124.02 80.17,-97.51"/>
<polygon fill="midnightblue" stroke="midnightblue" points="292.51,-325.87 296.95,-335.49 299.48,-325.2 292.51,-325.87"/>
</g>
<!-- Node4 -->
<g id="node4" class="node">
<title>Node4</title>
<g id="a_node4"><a xlink:href="../../de/dca/variables_8h.html" target="_top" xlink:title=" ">
<polygon fill="white" stroke="black" points="2072,-268.5 2072,-298.5 2179,-298.5 2179,-268.5 2072,-268.5"/>
<text text-anchor="start" x="2080" y="-286.5" font-family="Helvetica,sans-Serif" font-size="10.00">src/libs/vpatterndb</text>
<text text-anchor="middle" x="2125.5" y="-275.5" font-family="Helvetica,sans-Serif" font-size="10.00">/variables.h</text>
</a>
</g>
</g>
<!-- Node1&#45;&gt;Node4 -->
<g id="edge3" class="edge">
<title>Node1&#45;&gt;Node4</title>
<path fill="none" stroke="midnightblue" d="M378.07,-346.64C689.83,-335.55 1812.55,-295.63 2071.81,-286.41"/>
<polygon fill="midnightblue" stroke="midnightblue" points="377.63,-343.15 367.76,-347 377.88,-350.14 377.63,-343.15"/>
</g>
<!-- Node5 -->
<g id="node5" class="node">
<title>Node5</title>
<g id="a_node5"><a xlink:href="../../d3/df7/vcontainer_8h.html" target="_top" xlink:title=" ">
<polygon fill="white" stroke="black" points="3742,-201.5 3742,-231.5 3849,-231.5 3849,-201.5 3742,-201.5"/>
<text text-anchor="start" x="3750" y="-219.5" font-family="Helvetica,sans-Serif" font-size="10.00">src/libs/vpatterndb</text>
<text text-anchor="middle" x="3795.5" y="-208.5" font-family="Helvetica,sans-Serif" font-size="10.00">/vcontainer.h</text>
</a>
</g>
</g>
<!-- Node4&#45;&gt;Node5 -->
<g id="edge4" class="edge">
<title>Node4&#45;&gt;Node5</title>
<path fill="none" stroke="midnightblue" d="M2189.53,-280.01C2458.33,-269.55 3493.09,-229.27 3741.61,-219.6"/>
<polygon fill="midnightblue" stroke="midnightblue" points="2189.03,-276.52 2179.17,-280.41 2189.3,-283.52 2189.03,-276.52"/>
</g>
<!-- Node5&#45;&gt;Node3 -->
<g id="edge53" class="edge">
<title>Node5&#45;&gt;Node3</title>
<path fill="none" stroke="midnightblue" d="M3731.93,-215.02C3449.69,-212.72 2281.62,-201.37 1323.5,-165 786.62,-144.62 648.45,-173.42 116.5,-98 113.5,-97.57 110.43,-97.08 107.34,-96.53"/>
<polygon fill="midnightblue" stroke="midnightblue" points="3731.96,-218.52 3741.99,-215.1 3732.02,-211.52 3731.96,-218.52"/>
</g>
<!-- Node6 -->
<g id="node6" class="node">
<title>Node6</title>
<g id="a_node6"><a xlink:href="../../d4/dd6/vmeasurements_8h.html" target="_top" xlink:title=" ">
<polygon fill="white" stroke="black" points="4470,-140 4470,-159 4655,-159 4655,-140 4470,-140"/>
<text text-anchor="middle" x="4562.5" y="-147" font-family="Helvetica,sans-Serif" font-size="10.00">src/libs/vformat/vmeasurements.h</text>
</a>
</g>
</g>
<!-- Node5&#45;&gt;Node6 -->
<g id="edge5" class="edge">
<title>Node5&#45;&gt;Node6</title>
<path fill="none" stroke="midnightblue" d="M3859.45,-211.89C3977.59,-204.93 4237.93,-188.28 4456.5,-165 4472.2,-163.33 4489.16,-161.17 4504.81,-159.03"/>
<polygon fill="midnightblue" stroke="midnightblue" points="3858.93,-208.41 3849.15,-212.49 3859.34,-215.4 3858.93,-208.41"/>
</g>
<!-- Node7 -->
<g id="node7" class="node">
<title>Node7</title>
<g id="a_node7"><a xlink:href="../../de/db3/vmeasurements_8cpp.html" target="_top" xlink:title=" ">
<polygon fill="white" stroke="black" points="4432.5,-73 4432.5,-92 4628.5,-92 4628.5,-73 4432.5,-73"/>
<text text-anchor="middle" x="4530.5" y="-80" font-family="Helvetica,sans-Serif" font-size="10.00">src/libs/vformat/vmeasurements.cpp</text>
</a>
</g>
</g>
<!-- Node5&#45;&gt;Node7 -->
<g id="edge7" class="edge">
<title>Node5&#45;&gt;Node7</title>
<path fill="none" stroke="midnightblue" d="M3859.72,-214.68C3997.54,-212.21 4317.35,-202.49 4418.5,-165 4419.94,-164.47 4490.21,-113.03 4518.69,-92.16"/>
<polygon fill="midnightblue" stroke="midnightblue" points="3859.26,-211.19 3849.33,-214.86 3859.38,-218.18 3859.26,-211.19"/>
</g>
<!-- Node8 -->
<g id="node8" class="node">
<title>Node8</title>
<g id="a_node8"><a xlink:href="../../d6/de0/vlayoutpiece_8h.html" target="_top" xlink:title=" ">
<polygon fill="white" stroke="black" points="4845.5,-140 4845.5,-159 5011.5,-159 5011.5,-140 4845.5,-140"/>
<text text-anchor="middle" x="4928.5" y="-147" font-family="Helvetica,sans-Serif" font-size="10.00">src/libs/vlayout/vlayoutpiece.h</text>
</a>
</g>
</g>
<!-- Node5&#45;&gt;Node8 -->
<g id="edge8" class="edge">
<title>Node5&#45;&gt;Node8</title>
<path fill="none" stroke="midnightblue" d="M3859.25,-211.84C4052.06,-200.78 4629.02,-167.68 4845.35,-155.27"/>
<polygon fill="midnightblue" stroke="midnightblue" points="3858.79,-208.36 3849.01,-212.43 3859.19,-215.35 3858.79,-208.36"/>
</g>
<!-- Node18 -->
<g id="node17" class="node">
<title>Node18</title>
<g id="a_node17"><a xlink:href="../../d8/d70/vtextmanager_8cpp.html" target="_top" xlink:title=" ">
<polygon fill="white" stroke="black" points="125.5,-73 125.5,-92 307.5,-92 307.5,-73 125.5,-73"/>
<text text-anchor="middle" x="216.5" y="-80" font-family="Helvetica,sans-Serif" font-size="10.00">src/libs/vlayout/vtextmanager.cpp</text>
</a>
</g>
</g>
<!-- Node5&#45;&gt;Node18 -->
<g id="edge19" class="edge">
<title>Node5&#45;&gt;Node18</title>
<path fill="none" stroke="midnightblue" d="M3731.63,-213.84C3507.2,-207.97 2733.83,-187.3 2095.5,-165 1752.32,-153.01 1666.63,-147.19 1323.5,-134 887.97,-117.26 778.12,-130.74 343.5,-98 323.69,-96.51 302.21,-94.29 282.65,-92.03"/>
<polygon fill="midnightblue" stroke="midnightblue" points="3731.81,-217.35 3741.9,-214.11 3731.99,-210.35 3731.81,-217.35"/>
</g>
<!-- Node19 -->
<g id="node18" class="node">
<title>Node19</title>
<g id="a_node18"><a xlink:href="../../d5/d74/vabstractapplication_8h.html" target="_top" xlink:title=" ">
<polygon fill="white" stroke="red" points="2105,-140 2105,-159 2300,-159 2300,-140 2105,-140"/>
<text text-anchor="middle" x="2202.5" y="-147" font-family="Helvetica,sans-Serif" font-size="10.00">src/libs/vmisc/vabstractapplication.h</text>
</a>
</g>
</g>
<!-- Node5&#45;&gt;Node19 -->
<g id="edge20" class="edge">
<title>Node5&#45;&gt;Node19</title>
<path fill="none" stroke="midnightblue" d="M3731.36,-212.88C3484.85,-202.82 2597.28,-166.61 2300.17,-154.49"/>
<polygon fill="midnightblue" stroke="midnightblue" points="3731.45,-216.39 3741.59,-213.3 3731.74,-209.4 3731.45,-216.39"/>
</g>
<!-- Node37 -->
<g id="node32" class="node">
<title>Node37</title>
<g id="a_node32"><a xlink:href="../../db/d11/vformula_8cpp.html" target="_top" xlink:title=" ">
<polygon fill="white" stroke="black" points="3950,-67.5 3950,-97.5 4057,-97.5 4057,-67.5 3950,-67.5"/>
<text text-anchor="start" x="3958" y="-85.5" font-family="Helvetica,sans-Serif" font-size="10.00">src/libs/vpatterndb</text>
<text text-anchor="middle" x="4003.5" y="-74.5" font-family="Helvetica,sans-Serif" font-size="10.00">/vformula.cpp</text>
</a>
</g>
</g>
<!-- Node5&#45;&gt;Node37 -->
<g id="edge54" class="edge">
<title>Node5&#45;&gt;Node37</title>
<path fill="none" stroke="midnightblue" d="M3731.81,-216.17C3638.68,-215.64 3472.28,-208.43 3434.5,-165 3425.46,-154.6 3425.11,-144.08 3434.5,-134 3472.99,-92.68 3885.66,-106.46 3941.5,-98 3944.23,-97.59 3947.02,-97.11 3949.83,-96.6"/>
<polygon fill="midnightblue" stroke="midnightblue" points="3731.96,-219.67 3741.97,-216.21 3731.98,-212.67 3731.96,-219.67"/>
</g>
<!-- Node39 -->
<g id="node34" class="node">
<title>Node39</title>
<g id="a_node34"><a xlink:href="../../d8/dba/vpiecenode_8cpp.html" target="_top" xlink:title=" ">
<polygon fill="white" stroke="black" points="3017,-0.5 3017,-30.5 3124,-30.5 3124,-0.5 3017,-0.5"/>
<text text-anchor="start" x="3025" y="-18.5" font-family="Helvetica,sans-Serif" font-size="10.00">src/libs/vpatterndb</text>
<text text-anchor="middle" x="3070.5" y="-7.5" font-family="Helvetica,sans-Serif" font-size="10.00">/vpiecenode.cpp</text>
</a>
</g>
</g>
<!-- Node5&#45;&gt;Node39 -->
<g id="edge56" class="edge">
<title>Node5&#45;&gt;Node39</title>
<path fill="none" stroke="midnightblue" d="M3859.19,-214.77C4004.39,-212.43 4350.16,-202.92 4385.5,-165 4415.2,-133.13 4416.7,-98.39 4386.5,-67 4342.06,-20.82 3365.66,-16.79 3124.16,-16.51"/>
<polygon fill="midnightblue" stroke="midnightblue" points="3859.03,-211.27 3849.09,-214.92 3859.14,-218.27 3859.03,-211.27"/>
</g>
<!-- Node41 -->
<g id="node36" class="node">
<title>Node41</title>
<g id="a_node36"><a xlink:href="../../df/d7a/vpiece_8cpp.html" target="_top" xlink:title=" ">
<polygon fill="white" stroke="black" points="4075,-67.5 4075,-97.5 4182,-97.5 4182,-67.5 4075,-67.5"/>
<text text-anchor="start" x="4083" y="-85.5" font-family="Helvetica,sans-Serif" font-size="10.00">src/libs/vpatterndb</text>
<text text-anchor="middle" x="4128.5" y="-74.5" font-family="Helvetica,sans-Serif" font-size="10.00">/vpiece.cpp</text>
</a>
</g>
</g>
<!-- Node5&#45;&gt;Node41 -->
<g id="edge58" class="edge">
<title>Node5&#45;&gt;Node41</title>
<path fill="none" stroke="midnightblue" d="M3731.87,-215.09C3646.5,-213.04 3501.74,-203.76 3468.5,-165 3459.53,-154.54 3459.05,-144.03 3468.5,-134 3514.13,-85.54 4000.63,-107.61 4066.5,-98 4069.23,-97.6 4072.03,-97.14 4074.84,-96.64"/>
<polygon fill="midnightblue" stroke="midnightblue" points="3731.9,-218.6 3741.97,-215.31 3732.05,-211.6 3731.9,-218.6"/>
</g>
<!-- Node56 -->
<g id="node45" class="node">
<title>Node56</title>
<g id="a_node45"><a xlink:href="../../d1/de1/vincrement__p_8h.html" target="_top" xlink:title=" ">
<polygon fill="white" stroke="red" points="3477,-134.5 3477,-164.5 3620,-164.5 3620,-134.5 3477,-134.5"/>
<text text-anchor="start" x="3485" y="-152.5" font-family="Helvetica,sans-Serif" font-size="10.00">src/libs/vpatterndb</text>
<text text-anchor="middle" x="3548.5" y="-141.5" font-family="Helvetica,sans-Serif" font-size="10.00">/variables/vincrement_p.h</text>
</a>
</g>
</g>
<!-- Node5&#45;&gt;Node56 -->
<g id="edge51" class="edge">
<title>Node5&#45;&gt;Node56</title>
<path fill="none" stroke="midnightblue" d="M3732.49,-198.92C3692.18,-188.31 3640.46,-174.7 3602.12,-164.61"/>
<polygon fill="midnightblue" stroke="midnightblue" points="3731.65,-202.32 3742.21,-201.48 3733.43,-195.55 3731.65,-202.32"/>
</g>
<!-- Node58 -->
<g id="node46" class="node">
<title>Node58</title>
<g id="a_node46"><a xlink:href="../../d6/dc1/vmeasurement__p_8h.html" target="_top" xlink:title=" ">
<polygon fill="white" stroke="red" points="3638.5,-134.5 3638.5,-164.5 3800.5,-164.5 3800.5,-134.5 3638.5,-134.5"/>
<text text-anchor="start" x="3646.5" y="-152.5" font-family="Helvetica,sans-Serif" font-size="10.00">src/libs/vpatterndb</text>
<text text-anchor="middle" x="3719.5" y="-141.5" font-family="Helvetica,sans-Serif" font-size="10.00">/variables/vmeasurement_p.h</text>
</a>
</g>
</g>
<!-- Node5&#45;&gt;Node58 -->
<g id="edge52" class="edge">
<title>Node5&#45;&gt;Node58</title>
<path fill="none" stroke="midnightblue" d="M3771.39,-194.88C3759.84,-185.01 3746.31,-173.43 3735.96,-164.58"/>
<polygon fill="midnightblue" stroke="midnightblue" points="3769.13,-197.56 3779.01,-201.4 3773.68,-192.24 3769.13,-197.56"/>
</g>
<!-- Node60 -->
<g id="node47" class="node">
<title>Node60</title>
<g id="a_node47"><a xlink:href="../../d6/d91/vnodedetail_8cpp.html" target="_top" xlink:title=" ">
<polygon fill="white" stroke="black" points="3819,-134.5 3819,-164.5 3926,-164.5 3926,-134.5 3819,-134.5"/>
<text text-anchor="start" x="3827" y="-152.5" font-family="Helvetica,sans-Serif" font-size="10.00">src/libs/vpatterndb</text>
<text text-anchor="middle" x="3872.5" y="-141.5" font-family="Helvetica,sans-Serif" font-size="10.00">/vnodedetail.cpp</text>
</a>
</g>
</g>
<!-- Node5&#45;&gt;Node60 -->
<g id="edge55" class="edge">
<title>Node5&#45;&gt;Node60</title>
<path fill="none" stroke="midnightblue" d="M3819.92,-194.88C3831.62,-185.01 3845.34,-173.43 3855.82,-164.58"/>
<polygon fill="midnightblue" stroke="midnightblue" points="3817.59,-192.27 3812.21,-201.4 3822.11,-197.62 3817.59,-192.27"/>
</g>
<!-- Node61 -->
<g id="node48" class="node">
<title>Node61</title>
<g id="a_node48"><a xlink:href="../../da/de1/vpiecepath_8cpp.html" target="_top" xlink:title=" ">
<polygon fill="white" stroke="black" points="3944,-134.5 3944,-164.5 4051,-164.5 4051,-134.5 3944,-134.5"/>
<text text-anchor="start" x="3952" y="-152.5" font-family="Helvetica,sans-Serif" font-size="10.00">src/libs/vpatterndb</text>
<text text-anchor="middle" x="3997.5" y="-141.5" font-family="Helvetica,sans-Serif" font-size="10.00">/vpiecepath.cpp</text>
</a>
</g>
</g>
<!-- Node5&#45;&gt;Node61 -->
<g id="edge57" class="edge">
<title>Node5&#45;&gt;Node61</title>
<path fill="none" stroke="midnightblue" d="M3849.18,-198.23C3881.85,-187.71 3923.07,-174.45 3953.75,-164.58"/>
<polygon fill="midnightblue" stroke="midnightblue" points="3847.78,-195 3839.33,-201.4 3849.92,-201.66 3847.78,-195"/>
</g>
<!-- Node62 -->
<g id="node49" class="node">
<title>Node62</title>
<g id="a_node49"><a xlink:href="../../d1/d3a/abstracttest_8cpp.html" target="_top" xlink:title=" ">
<polygon fill="white" stroke="black" points="4069,-140 4069,-159 4230,-159 4230,-140 4069,-140"/>
<text text-anchor="middle" x="4149.5" y="-147" font-family="Helvetica,sans-Serif" font-size="10.00">src/libs/vtest/abstracttest.cpp</text>
</a>
</g>
</g>
<!-- Node5&#45;&gt;Node62 -->
<g id="edge59" class="edge">
<title>Node5&#45;&gt;Node62</title>
<path fill="none" stroke="midnightblue" d="M3859.32,-203.78C3929.57,-190.88 4040.77,-170.46 4103.15,-159.01"/>
<polygon fill="midnightblue" stroke="midnightblue" points="3858.47,-200.38 3849.26,-205.63 3859.73,-207.26 3858.47,-200.38"/>
</g>
<!-- Node63 -->
<g id="node50" class="node">
<title>Node63</title>
<g id="a_node50"><a xlink:href="../../da/db4/piece__tablewidgetitem_8cpp.html" target="_top" xlink:title=" ">
<polygon fill="white" stroke="black" points="4248.5,-134.5 4248.5,-164.5 4376.5,-164.5 4376.5,-134.5 4248.5,-134.5"/>
<text text-anchor="start" x="4256.5" y="-152.5" font-family="Helvetica,sans-Serif" font-size="10.00">src/libs/vwidgets/piece</text>
<text text-anchor="middle" x="4312.5" y="-141.5" font-family="Helvetica,sans-Serif" font-size="10.00">_tablewidgetitem.cpp</text>
</a>
</g>
</g>
<!-- Node5&#45;&gt;Node63 -->
<g id="edge60" class="edge">
<title>Node5&#45;&gt;Node63</title>
<path fill="none" stroke="midnightblue" d="M3859.17,-209.93C3945.59,-201.99 4104.7,-186.02 4239.5,-165 4242.44,-164.54 4245.43,-164.05 4248.46,-163.53"/>
<polygon fill="midnightblue" stroke="midnightblue" points="3858.64,-206.46 3849,-210.86 3859.28,-213.43 3858.64,-206.46"/>
</g>
<!-- Node6&#45;&gt;Node7 -->
<g id="edge6" class="edge">
<title>Node6&#45;&gt;Node7</title>
<path fill="none" stroke="midnightblue" d="M4553.72,-130.66C4547.55,-118.13 4539.56,-101.91 4534.75,-92.13"/>
<polygon fill="midnightblue" stroke="midnightblue" points="4550.63,-132.31 4558.18,-139.73 4556.91,-129.22 4550.63,-132.31"/>
</g>
<!-- Node9 -->
<g id="node9" class="node">
<title>Node9</title>
<g id="a_node9"><a xlink:href="../../dd/d66/vdxfengine_8cpp.html" target="_top" xlink:title=" ">
<polygon fill="white" stroke="black" points="4684.5,-73 4684.5,-92 4838.5,-92 4838.5,-73 4684.5,-73"/>
<text text-anchor="middle" x="4761.5" y="-80" font-family="Helvetica,sans-Serif" font-size="10.00">src/libs/vdxf/vdxfengine.cpp</text>
</a>
</g>
</g>
<!-- Node8&#45;&gt;Node9 -->
<g id="edge9" class="edge">
<title>Node8&#45;&gt;Node9</title>
<path fill="none" stroke="midnightblue" d="M4896.65,-136.1C4863.49,-123.2 4812.44,-103.33 4783.5,-92.06"/>
<polygon fill="midnightblue" stroke="midnightblue" points="4895.74,-139.5 4906.32,-139.87 4898.27,-132.98 4895.74,-139.5"/>
</g>
<!-- Node10 -->
<g id="node10" class="node">
<title>Node10</title>
<g id="a_node10"><a xlink:href="../../de/da8/vbank_8cpp.html" target="_top" xlink:title=" ">
<polygon fill="white" stroke="black" points="4856.5,-73 4856.5,-92 5000.5,-92 5000.5,-73 4856.5,-73"/>
<text text-anchor="middle" x="4928.5" y="-80" font-family="Helvetica,sans-Serif" font-size="10.00">src/libs/vlayout/vbank.cpp</text>
</a>
</g>
</g>
<!-- Node8&#45;&gt;Node10 -->
<g id="edge10" class="edge">
<title>Node8&#45;&gt;Node10</title>
<path fill="none" stroke="midnightblue" d="M4928.5,-129.54C4928.5,-117.17 4928.5,-101.62 4928.5,-92.13"/>
<polygon fill="midnightblue" stroke="midnightblue" points="4925,-129.73 4928.5,-139.73 4932,-129.73 4925,-129.73"/>
</g>
<!-- Node11 -->
<g id="node11" class="node">
<title>Node11</title>
<g id="a_node11"><a xlink:href="../../df/d5d/vcontour_8cpp.html" target="_top" xlink:title=" ">
<polygon fill="white" stroke="black" points="5018.5,-73 5018.5,-92 5174.5,-92 5174.5,-73 5018.5,-73"/>
<text text-anchor="middle" x="5096.5" y="-80" font-family="Helvetica,sans-Serif" font-size="10.00">src/libs/vlayout/vcontour.cpp</text>
</a>
</g>
</g>
<!-- Node8&#45;&gt;Node11 -->
<g id="edge11" class="edge">
<title>Node8&#45;&gt;Node11</title>
<path fill="none" stroke="midnightblue" d="M4960.54,-136.1C4993.89,-123.2 5045.25,-103.33 5074.37,-92.06"/>
<polygon fill="midnightblue" stroke="midnightblue" points="4958.87,-133 4950.81,-139.87 4961.4,-139.52 4958.87,-133"/>
</g>
<!-- Node12 -->
<g id="node12" class="node">
<title>Node12</title>
<g id="a_node12"><a xlink:href="../../d3/d39/vlayoutgenerator_8cpp.html" target="_top" xlink:title=" ">
<polygon fill="white" stroke="black" points="5193,-73 5193,-92 5390,-92 5390,-73 5193,-73"/>
<text text-anchor="middle" x="5291.5" y="-80" font-family="Helvetica,sans-Serif" font-size="10.00">src/libs/vlayout/vlayoutgenerator.cpp</text>
</a>
</g>
</g>
<!-- Node8&#45;&gt;Node12 -->
<g id="edge12" class="edge">
<title>Node8&#45;&gt;Node12</title>
<path fill="none" stroke="midnightblue" d="M4986.49,-138.12C5057.84,-125.34 5177.62,-103.89 5243.85,-92.03"/>
<polygon fill="midnightblue" stroke="midnightblue" points="4985.56,-134.73 4976.33,-139.94 4986.79,-141.62 4985.56,-134.73"/>
</g>
<!-- Node13 -->
<g id="node13" class="node">
<title>Node13</title>
<g id="a_node13"><a xlink:href="../../d2/d2d/vlayoutpaper__p_8h.html" target="_top" xlink:title=" ">
<polygon fill="white" stroke="black" points="5408,-73 5408,-92 5587,-92 5587,-73 5408,-73"/>
<text text-anchor="middle" x="5497.5" y="-80" font-family="Helvetica,sans-Serif" font-size="10.00">src/libs/vlayout/vlayoutpaper_p.h</text>
</a>
</g>
</g>
<!-- Node8&#45;&gt;Node13 -->
<g id="edge13" class="edge">
<title>Node8&#45;&gt;Node13</title>
<path fill="none" stroke="midnightblue" d="M5021.74,-139.62C5116.85,-130.29 5268.64,-114.69 5399.5,-98 5413.49,-96.22 5428.57,-94.09 5442.61,-92.02"/>
<polygon fill="midnightblue" stroke="midnightblue" points="5021.18,-136.15 5011.57,-140.61 5021.87,-143.12 5021.18,-136.15"/>
</g>
<!-- Node14 -->
<g id="node14" class="node">
<title>Node14</title>
<g id="a_node14"><a xlink:href="../../d1/dd1/vlayoutpaper_8cpp.html" target="_top" xlink:title=" ">
<polygon fill="white" stroke="black" points="5408.5,-6 5408.5,-25 5586.5,-25 5586.5,-6 5408.5,-6"/>
<text text-anchor="middle" x="5497.5" y="-13" font-family="Helvetica,sans-Serif" font-size="10.00">src/libs/vlayout/vlayoutpaper.cpp</text>
</a>
</g>
</g>
<!-- Node8&#45;&gt;Node14 -->
<g id="edge15" class="edge">
<title>Node8&#45;&gt;Node14</title>
<path fill="none" stroke="midnightblue" d="M4835.25,-145.93C4743.26,-140.25 4623.39,-122.41 4675.5,-67 4700.31,-40.62 5200.81,-24.36 5408.44,-18.73"/>
<polygon fill="midnightblue" stroke="midnightblue" points="4835.28,-149.44 4845.47,-146.52 4835.68,-142.45 4835.28,-149.44"/>
</g>
<!-- Node15 -->
<g id="node15" class="node">
<title>Node15</title>
<g id="a_node15"><a xlink:href="../../db/d5c/vposition_8h.html" target="_top" xlink:title=" ">
<polygon fill="white" stroke="red" points="5605.5,-73 5605.5,-92 5753.5,-92 5753.5,-73 5605.5,-73"/>
<text text-anchor="middle" x="5679.5" y="-80" font-family="Helvetica,sans-Serif" font-size="10.00">src/libs/vlayout/vposition.h</text>
</a>
</g>
</g>
<!-- Node8&#45;&gt;Node15 -->
<g id="edge16" class="edge">
<title>Node8&#45;&gt;Node15</title>
<path fill="none" stroke="midnightblue" d="M5021.81,-144.32C5151.21,-137.87 5392.28,-123.5 5596.5,-98 5609.13,-96.42 5622.76,-94.24 5635.25,-92.05"/>
<polygon fill="midnightblue" stroke="midnightblue" points="5021.37,-140.84 5011.55,-144.83 5021.71,-147.83 5021.37,-140.84"/>
</g>
<!-- Node17 -->
<g id="node16" class="node">
<title>Node17</title>
<g id="a_node16"><a xlink:href="../../dd/d70/vlayoutpiece_8cpp.html" target="_top" xlink:title=" ">
<polygon fill="white" stroke="black" points="4200,-73 4200,-92 4377,-92 4377,-73 4200,-73"/>
<text text-anchor="middle" x="4288.5" y="-80" font-family="Helvetica,sans-Serif" font-size="10.00">src/libs/vlayout/vlayoutpiece.cpp</text>
</a>
</g>
</g>
<!-- Node8&#45;&gt;Node17 -->
<g id="edge18" class="edge">
<title>Node8&#45;&gt;Node17</title>
<path fill="none" stroke="midnightblue" d="M4835.17,-139.37C4733.8,-129.41 4567.12,-112.89 4423.5,-98 4405.21,-96.1 4385.54,-94.02 4367.01,-92.03"/>
<polygon fill="midnightblue" stroke="midnightblue" points="4835.08,-142.88 4845.38,-140.38 4835.77,-135.92 4835.08,-142.88"/>
</g>
<!-- Node13&#45;&gt;Node14 -->
<g id="edge14" class="edge">
<title>Node13&#45;&gt;Node14</title>
<path fill="none" stroke="midnightblue" d="M5497.5,-62.54C5497.5,-50.17 5497.5,-34.62 5497.5,-25.13"/>
<polygon fill="midnightblue" stroke="midnightblue" points="5494,-62.73 5497.5,-72.73 5501,-62.73 5494,-62.73"/>
</g>
<!-- Node15&#45;&gt;Node14 -->
<g id="edge17" class="edge">
<title>Node15&#45;&gt;Node14</title>
<path fill="none" stroke="midnightblue" d="M5645.72,-69.44C5609.62,-56.54 5553.29,-36.42 5521.48,-25.06"/>
<polygon fill="midnightblue" stroke="midnightblue" points="5644.74,-72.8 5655.33,-72.87 5647.09,-66.21 5644.74,-72.8"/>
</g>
<!-- Node19&#45;&gt;Node3 -->
<g id="edge37" class="edge">
<title>Node19&#45;&gt;Node3</title>
<path fill="none" stroke="midnightblue" d="M2094.65,-146.49C1681.17,-138.72 215.22,-110.43 116.5,-98 113.49,-97.62 110.42,-97.16 107.33,-96.64"/>
<polygon fill="midnightblue" stroke="midnightblue" points="2094.75,-150 2104.81,-146.68 2094.88,-143 2094.75,-150"/>
</g>
<!-- Node19&#45;&gt;Node17 -->
<g id="edge31" class="edge">
<title>Node19&#45;&gt;Node17</title>
<path fill="none" stroke="midnightblue" d="M2310.15,-147.51C2668.81,-143.96 3821.36,-130.24 4191.5,-98 4207.11,-96.64 4224.02,-94.39 4239.29,-92.05"/>
<polygon fill="midnightblue" stroke="midnightblue" points="2309.99,-144.02 2300.03,-147.61 2310.06,-151.02 2309.99,-144.02"/>
</g>
<!-- Node19&#45;&gt;Node18 -->
<g id="edge32" class="edge">
<title>Node19&#45;&gt;Node18</title>
<path fill="none" stroke="midnightblue" d="M2094.68,-143.6C2024.55,-140.53 1931.12,-136.67 1848.5,-134 1170,-112.11 998.16,-152.52 321.5,-98 304.53,-96.63 286.12,-94.36 269.52,-92.02"/>
<polygon fill="midnightblue" stroke="midnightblue" points="2094.71,-147.1 2104.85,-144.04 2095.01,-140.11 2094.71,-147.1"/>
</g>
<!-- Node20 -->
<g id="node19" class="node">
<title>Node20</title>
<g id="a_node19"><a xlink:href="../../d4/d90/fvupdater_8cpp.html" target="_top" xlink:title=" ">
<polygon fill="white" stroke="black" points="860,-73 860,-92 1013,-92 1013,-73 860,-73"/>
<text text-anchor="middle" x="936.5" y="-80" font-family="Helvetica,sans-Serif" font-size="10.00">src/libs/fervor/fvupdater.cpp</text>
</a>
</g>
</g>
<!-- Node19&#45;&gt;Node20 -->
<g id="edge21" class="edge">
<title>Node19&#45;&gt;Node20</title>
<path fill="none" stroke="midnightblue" d="M2094.49,-144.06C1807.87,-132.26 1047.97,-100.81 1021.5,-98 1007.95,-96.56 993.3,-94.31 980.03,-92.01"/>
<polygon fill="midnightblue" stroke="midnightblue" points="2094.76,-147.58 2104.9,-144.49 2095.05,-140.58 2094.76,-147.58"/>
</g>
<!-- Node21 -->
<g id="node20" class="node">
<title>Node21</title>
<g id="a_node20"><a xlink:href="../../d9/dc8/dxiface_8cpp.html" target="_top" xlink:title=" ">
<polygon fill="white" stroke="black" points="1031,-73 1031,-92 1166,-92 1166,-73 1031,-73"/>
<text text-anchor="middle" x="1098.5" y="-80" font-family="Helvetica,sans-Serif" font-size="10.00">src/libs/vdxf/dxiface.cpp</text>
</a>
</g>
</g>
<!-- Node19&#45;&gt;Node21 -->
<g id="edge22" class="edge">
<title>Node19&#45;&gt;Node21</title>
<path fill="none" stroke="midnightblue" d="M2094.56,-144.05C1849.2,-133.82 1263.86,-108.67 1174.5,-98 1162.36,-96.55 1149.25,-94.3 1137.39,-92"/>
<polygon fill="midnightblue" stroke="midnightblue" points="2094.43,-147.55 2104.57,-144.47 2094.72,-140.56 2094.43,-147.55"/>
</g>
<!-- Node22 -->
<g id="node21" class="node">
<title>Node22</title>
<g id="a_node21"><a xlink:href="../../da/d75/vabstractarc__p_8h.html" target="_top" xlink:title=" ">
<polygon fill="white" stroke="red" points="1184,-67.5 1184,-97.5 1291,-97.5 1291,-67.5 1184,-67.5"/>
<text text-anchor="start" x="1192" y="-85.5" font-family="Helvetica,sans-Serif" font-size="10.00">src/libs/vgeometry</text>
<text text-anchor="middle" x="1237.5" y="-74.5" font-family="Helvetica,sans-Serif" font-size="10.00">/vabstractarc_p.h</text>
</a>
</g>
</g>
<!-- Node19&#45;&gt;Node22 -->
<g id="edge23" class="edge">
<title>Node19&#45;&gt;Node22</title>
<path fill="none" stroke="midnightblue" d="M2094.91,-143.54C1872.47,-133.12 1376.27,-109.04 1299.5,-98 1296.76,-97.61 1293.97,-97.15 1291.16,-96.65"/>
<polygon fill="midnightblue" stroke="midnightblue" points="2094.82,-147.04 2104.97,-144.01 2095.14,-140.04 2094.82,-147.04"/>
</g>
<!-- Node24 -->
<g id="node22" class="node">
<title>Node24</title>
<g id="a_node22"><a xlink:href="../../dc/da3/varc__p_8h.html" target="_top" xlink:title=" ">
<polygon fill="white" stroke="red" points="1434,-67.5 1434,-97.5 1541,-97.5 1541,-67.5 1434,-67.5"/>
<text text-anchor="start" x="1442" y="-85.5" font-family="Helvetica,sans-Serif" font-size="10.00">src/libs/vgeometry</text>
<text text-anchor="middle" x="1487.5" y="-74.5" font-family="Helvetica,sans-Serif" font-size="10.00">/varc_p.h</text>
</a>
</g>
</g>
<!-- Node19&#45;&gt;Node24 -->
<g id="edge24" class="edge">
<title>Node19&#45;&gt;Node24</title>
<path fill="none" stroke="midnightblue" d="M2094.54,-145.19C1964.57,-140.05 1740.01,-127.47 1549.5,-98 1546.77,-97.58 1543.98,-97.1 1541.17,-96.58"/>
<polygon fill="midnightblue" stroke="midnightblue" points="2094.76,-148.7 2104.89,-145.59 2095.03,-141.71 2094.76,-148.7"/>
</g>
<!-- Node26 -->
<g id="node23" class="node">
<title>Node26</title>
<g id="a_node23"><a xlink:href="../../d5/d8e/vcubicbezier__p_8h.html" target="_top" xlink:title=" ">
<polygon fill="white" stroke="red" points="1559,-67.5 1559,-97.5 1666,-97.5 1666,-67.5 1559,-67.5"/>
<text text-anchor="start" x="1567" y="-85.5" font-family="Helvetica,sans-Serif" font-size="10.00">src/libs/vgeometry</text>
<text text-anchor="middle" x="1612.5" y="-74.5" font-family="Helvetica,sans-Serif" font-size="10.00">/vcubicbezier_p.h</text>
</a>
</g>
</g>
<!-- Node19&#45;&gt;Node26 -->
<g id="edge25" class="edge">
<title>Node19&#45;&gt;Node26</title>
<path fill="none" stroke="midnightblue" d="M2094.51,-142.43C1987.41,-135.42 1818.87,-121.68 1674.5,-98 1671.77,-97.55 1668.99,-97.05 1666.18,-96.52"/>
<polygon fill="midnightblue" stroke="midnightblue" points="2094.47,-145.94 2104.68,-143.09 2094.93,-138.95 2094.47,-145.94"/>
</g>
<!-- Node28 -->
<g id="node24" class="node">
<title>Node28</title>
<g id="a_node24"><a xlink:href="../../df/dde/vellipticalarc__p_8h.html" target="_top" xlink:title=" ">
<polygon fill="white" stroke="black" points="1309,-67.5 1309,-97.5 1416,-97.5 1416,-67.5 1309,-67.5"/>
<text text-anchor="start" x="1317" y="-85.5" font-family="Helvetica,sans-Serif" font-size="10.00">src/libs/vgeometry</text>
<text text-anchor="middle" x="1362.5" y="-74.5" font-family="Helvetica,sans-Serif" font-size="10.00">/vellipticalarc_p.h</text>
</a>
</g>
</g>
<!-- Node19&#45;&gt;Node28 -->
<g id="edge26" class="edge">
<title>Node19&#45;&gt;Node28</title>
<path fill="none" stroke="midnightblue" d="M2094.54,-143.7C1912.15,-135.22 1550.57,-116.7 1424.5,-98 1421.77,-97.59 1418.98,-97.13 1416.16,-96.62"/>
<polygon fill="midnightblue" stroke="midnightblue" points="2094.54,-147.2 2104.69,-144.17 2094.86,-140.21 2094.54,-147.2"/>
</g>
<!-- Node29 -->
<g id="node25" class="node">
<title>Node29</title>
<g id="a_node25"><a xlink:href="../../d6/dfb/vellipticalarc_8cpp.html" target="_top" xlink:title=" ">
<polygon fill="white" stroke="black" points="796,-0.5 796,-30.5 903,-30.5 903,-0.5 796,-0.5"/>
<text text-anchor="start" x="804" y="-18.5" font-family="Helvetica,sans-Serif" font-size="10.00">src/libs/vgeometry</text>
<text text-anchor="middle" x="849.5" y="-7.5" font-family="Helvetica,sans-Serif" font-size="10.00">/vellipticalarc.cpp</text>
</a>
</g>
</g>
<!-- Node19&#45;&gt;Node29 -->
<g id="edge28" class="edge">
<title>Node19&#45;&gt;Node29</title>
<path fill="none" stroke="midnightblue" d="M2094.68,-143.61C2024.55,-140.55 1931.12,-136.69 1848.5,-134 1807.01,-132.65 383.5,-127.7 354.5,-98 344.88,-88.14 345.27,-77.22 354.5,-67 383.67,-34.71 673.59,-21.96 795.71,-18"/>
<polygon fill="midnightblue" stroke="midnightblue" points="2094.71,-147.12 2104.85,-144.06 2095.01,-140.12 2094.71,-147.12"/>
</g>
<!-- Node30 -->
<g id="node26" class="node">
<title>Node30</title>
<g id="a_node26"><a xlink:href="../../d1/d76/vspline__p_8h.html" target="_top" xlink:title=" ">
<polygon fill="white" stroke="red" points="1809,-67.5 1809,-97.5 1916,-97.5 1916,-67.5 1809,-67.5"/>
<text text-anchor="start" x="1817" y="-85.5" font-family="Helvetica,sans-Serif" font-size="10.00">src/libs/vgeometry</text>
<text text-anchor="middle" x="1862.5" y="-74.5" font-family="Helvetica,sans-Serif" font-size="10.00">/vspline_p.h</text>
</a>
</g>
</g>
<!-- Node19&#45;&gt;Node30 -->
<g id="edge29" class="edge">
<title>Node19&#45;&gt;Node30</title>
<path fill="none" stroke="midnightblue" d="M2141.67,-138.24C2085.45,-128.56 1999.64,-113.28 1925.5,-98 1922.42,-97.37 1919.26,-96.7 1916.08,-96.01"/>
<polygon fill="midnightblue" stroke="midnightblue" points="2141.37,-141.74 2151.82,-139.98 2142.56,-134.84 2141.37,-141.74"/>
</g>
<!-- Node32 -->
<g id="node27" class="node">
<title>Node32</title>
<g id="a_node27"><a xlink:href="../../d9/d15/vabstractpiece_8cpp.html" target="_top" xlink:title=" ">
<polygon fill="white" stroke="black" points="1934.5,-73 1934.5,-92 2120.5,-92 2120.5,-73 1934.5,-73"/>
<text text-anchor="middle" x="2027.5" y="-80" font-family="Helvetica,sans-Serif" font-size="10.00">src/libs/vlayout/vabstractpiece.cpp</text>
</a>
</g>
</g>
<!-- Node19&#45;&gt;Node32 -->
<g id="edge30" class="edge">
<title>Node19&#45;&gt;Node32</title>
<path fill="none" stroke="midnightblue" d="M2169.57,-136.27C2134.84,-123.37 2081.01,-103.38 2050.56,-92.06"/>
<polygon fill="midnightblue" stroke="midnightblue" points="2168.67,-139.67 2179.26,-139.87 2171.11,-133.11 2168.67,-139.67"/>
</g>
<!-- Node33 -->
<g id="node28" class="node">
<title>Node33</title>
<g id="a_node28"><a xlink:href="../../db/d65/dialogexporttocsv_8cpp.html" target="_top" xlink:title=" ">
<polygon fill="white" stroke="black" points="2139,-67.5 2139,-97.5 2266,-97.5 2266,-67.5 2139,-67.5"/>
<text text-anchor="start" x="2147" y="-85.5" font-family="Helvetica,sans-Serif" font-size="10.00">src/libs/vmisc/dialogs</text>
<text text-anchor="middle" x="2202.5" y="-74.5" font-family="Helvetica,sans-Serif" font-size="10.00">/dialogexporttocsv.cpp</text>
</a>
</g>
</g>
<!-- Node19&#45;&gt;Node33 -->
<g id="edge33" class="edge">
<title>Node19&#45;&gt;Node33</title>
<path fill="none" stroke="midnightblue" d="M2202.5,-129.41C2202.5,-119.22 2202.5,-106.9 2202.5,-97.59"/>
<polygon fill="midnightblue" stroke="midnightblue" points="2199,-129.73 2202.5,-139.73 2206,-129.73 2199,-129.73"/>
</g>
<!-- Node34 -->
<g id="node29" class="node">
<title>Node34</title>
<g id="a_node29"><a xlink:href="../../d6/d0b/def_8cpp.html" target="_top" xlink:title=" ">
<polygon fill="white" stroke="black" points="2284.5,-73 2284.5,-92 2406.5,-92 2406.5,-73 2284.5,-73"/>
<text text-anchor="middle" x="2345.5" y="-80" font-family="Helvetica,sans-Serif" font-size="10.00">src/libs/vmisc/def.cpp</text>
</a>
</g>
</g>
<!-- Node19&#45;&gt;Node34 -->
<g id="edge34" class="edge">
<title>Node19&#45;&gt;Node34</title>
<path fill="none" stroke="midnightblue" d="M2230.85,-135.61C2259.17,-122.74 2301.93,-103.31 2326.43,-92.17"/>
<polygon fill="midnightblue" stroke="midnightblue" points="2229.14,-132.54 2221.49,-139.87 2232.04,-138.92 2229.14,-132.54"/>
</g>
<!-- Node35 -->
<g id="node30" class="node">
<title>Node35</title>
<g id="a_node30"><a xlink:href="../../d0/df6/vabstractapplication_8cpp.html" target="_top" xlink:title=" ">
<polygon fill="white" stroke="black" points="2424.5,-73 2424.5,-92 2630.5,-92 2630.5,-73 2424.5,-73"/>
<text text-anchor="middle" x="2527.5" y="-80" font-family="Helvetica,sans-Serif" font-size="10.00">src/libs/vmisc/vabstractapplication.cpp</text>
</a>
</g>
</g>
<!-- Node19&#45;&gt;Node35 -->
<g id="edge35" class="edge">
<title>Node19&#45;&gt;Node35</title>
<path fill="none" stroke="midnightblue" d="M2255.21,-137.96C2319.18,-125.16 2425.78,-103.84 2484.84,-92.03"/>
<polygon fill="midnightblue" stroke="midnightblue" points="2254.44,-134.54 2245.32,-139.94 2255.81,-141.41 2254.44,-134.54"/>
</g>
<!-- Node36 -->
<g id="node31" class="node">
<title>Node36</title>
<g id="a_node31"><a xlink:href="../../d4/d4f/pmsystems_8cpp.html" target="_top" xlink:title=" ">
<polygon fill="white" stroke="black" points="2649,-67.5 2649,-97.5 2756,-97.5 2756,-67.5 2649,-67.5"/>
<text text-anchor="start" x="2657" y="-85.5" font-family="Helvetica,sans-Serif" font-size="10.00">src/libs/vpatterndb</text>
<text text-anchor="middle" x="2702.5" y="-74.5" font-family="Helvetica,sans-Serif" font-size="10.00">/pmsystems.cpp</text>
</a>
</g>
</g>
<!-- Node19&#45;&gt;Node36 -->
<g id="edge36" class="edge">
<title>Node19&#45;&gt;Node36</title>
<path fill="none" stroke="midnightblue" d="M2310.22,-139.42C2398.96,-131.13 2527.89,-117.23 2639.5,-98 2642.6,-97.47 2645.77,-96.88 2648.97,-96.25"/>
<polygon fill="midnightblue" stroke="midnightblue" points="2309.77,-135.94 2300.14,-140.35 2310.42,-142.91 2309.77,-135.94"/>
</g>
<!-- Node19&#45;&gt;Node37 -->
<g id="edge38" class="edge">
<title>Node19&#45;&gt;Node37</title>
<path fill="none" stroke="midnightblue" d="M2310.48,-148.2C2639.1,-146.84 3623.91,-139.32 3941.5,-98 3944.24,-97.64 3947.04,-97.22 3949.85,-96.74"/>
<polygon fill="midnightblue" stroke="midnightblue" points="2310,-144.7 2300.01,-148.24 2310.03,-151.7 2310,-144.7"/>
</g>
<!-- Node38 -->
<g id="node33" class="node">
<title>Node38</title>
<g id="a_node33"><a xlink:href="../../df/dba/vpiecenode__p_8h.html" target="_top" xlink:title=" ">
<polygon fill="white" stroke="black" points="1684,-67.5 1684,-97.5 1791,-97.5 1791,-67.5 1684,-67.5"/>
<text text-anchor="start" x="1692" y="-85.5" font-family="Helvetica,sans-Serif" font-size="10.00">src/libs/vpatterndb</text>
<text text-anchor="middle" x="1737.5" y="-74.5" font-family="Helvetica,sans-Serif" font-size="10.00">/vpiecenode_p.h</text>
</a>
</g>
</g>
<!-- Node19&#45;&gt;Node38 -->
<g id="edge39" class="edge">
<title>Node19&#45;&gt;Node38</title>
<path fill="none" stroke="midnightblue" d="M2102.81,-138.95C2020.99,-130.41 1902.28,-116.4 1799.5,-98 1796.78,-97.51 1794,-96.98 1791.2,-96.42"/>
<polygon fill="midnightblue" stroke="midnightblue" points="2102.55,-142.45 2112.86,-139.99 2103.27,-135.48 2102.55,-142.45"/>
</g>
<!-- Node40 -->
<g id="node35" class="node">
<title>Node40</title>
<g id="a_node35"><a xlink:href="../../de/d3e/vtranslatevars_8cpp.html" target="_top" xlink:title=" ">
<polygon fill="white" stroke="black" points="2774.5,-67.5 2774.5,-97.5 2884.5,-97.5 2884.5,-67.5 2774.5,-67.5"/>
<text text-anchor="start" x="2782.5" y="-85.5" font-family="Helvetica,sans-Serif" font-size="10.00">src/libs/vpatterndb</text>
<text text-anchor="middle" x="2829.5" y="-74.5" font-family="Helvetica,sans-Serif" font-size="10.00">/vtranslatevars.cpp</text>
</a>
</g>
</g>
<!-- Node19&#45;&gt;Node40 -->
<g id="edge41" class="edge">
<title>Node19&#45;&gt;Node40</title>
<path fill="none" stroke="midnightblue" d="M2310.22,-143.12C2423.92,-136.44 2608.11,-122.77 2765.5,-98 2768.43,-97.54 2771.42,-97.02 2774.43,-96.47"/>
<polygon fill="midnightblue" stroke="midnightblue" points="2309.9,-139.63 2300.12,-143.7 2310.31,-146.62 2309.9,-139.63"/>
</g>
<!-- Node19&#45;&gt;Node41 -->
<g id="edge42" class="edge">
<title>Node19&#45;&gt;Node41</title>
<path fill="none" stroke="midnightblue" d="M2310.49,-148.45C2654.71,-147.83 3723.52,-142.29 4066.5,-98 4069.24,-97.65 4072.04,-97.22 4074.85,-96.75"/>
<polygon fill="midnightblue" stroke="midnightblue" points="2310.27,-144.95 2300.27,-148.46 2310.28,-151.95 2310.27,-144.95"/>
</g>
<!-- Node42 -->
<g id="node37" class="node">
<title>Node42</title>
<g id="a_node37"><a xlink:href="../../df/d40/export__format__combobox_8cpp.html" target="_top" xlink:title=" ">
<polygon fill="white" stroke="black" points="2903,-67.5 2903,-97.5 3036,-97.5 3036,-67.5 2903,-67.5"/>
<text text-anchor="start" x="2911" y="-85.5" font-family="Helvetica,sans-Serif" font-size="10.00">src/libs/vwidgets/export</text>
<text text-anchor="middle" x="2969.5" y="-74.5" font-family="Helvetica,sans-Serif" font-size="10.00">_format_combobox.cpp</text>
</a>
</g>
</g>
<!-- Node19&#45;&gt;Node42 -->
<g id="edge43" class="edge">
<title>Node19&#45;&gt;Node42</title>
<path fill="none" stroke="midnightblue" d="M2310.16,-144.49C2446.42,-138.53 2688.15,-125 2893.5,-98 2896.56,-97.6 2899.69,-97.15 2902.84,-96.67"/>
<polygon fill="midnightblue" stroke="midnightblue" points="2309.97,-140.99 2300.13,-144.92 2310.27,-147.99 2309.97,-140.99"/>
</g>
<!-- Node43 -->
<g id="node38" class="node">
<title>Node43</title>
<g id="a_node38"><a xlink:href="../../d3/d4f/mouse__coordinates_8cpp.html" target="_top" xlink:title=" ">
<polygon fill="white" stroke="black" points="3054.5,-67.5 3054.5,-97.5 3188.5,-97.5 3188.5,-67.5 3054.5,-67.5"/>
<text text-anchor="start" x="3062.5" y="-85.5" font-family="Helvetica,sans-Serif" font-size="10.00">src/libs/vwidgets/mouse</text>
<text text-anchor="middle" x="3121.5" y="-74.5" font-family="Helvetica,sans-Serif" font-size="10.00">_coordinates.cpp</text>
</a>
</g>
</g>
<!-- Node19&#45;&gt;Node43 -->
<g id="edge44" class="edge">
<title>Node19&#45;&gt;Node43</title>
<path fill="none" stroke="midnightblue" d="M2310.6,-146.47C2471.39,-142.44 2782.84,-130.79 3045.5,-98 3048.43,-97.63 3051.42,-97.22 3054.44,-96.78"/>
<polygon fill="midnightblue" stroke="midnightblue" points="2310.14,-142.98 2300.23,-146.72 2310.31,-149.98 2310.14,-142.98"/>
</g>
<!-- Node44 -->
<g id="node39" class="node">
<title>Node44</title>
<g id="a_node39"><a xlink:href="../../d8/d76/scene__rect_8cpp.html" target="_top" xlink:title=" ">
<polygon fill="white" stroke="black" points="3206.5,-67.5 3206.5,-97.5 3336.5,-97.5 3336.5,-67.5 3206.5,-67.5"/>
<text text-anchor="start" x="3214.5" y="-85.5" font-family="Helvetica,sans-Serif" font-size="10.00">src/libs/vwidgets/scene</text>
<text text-anchor="middle" x="3271.5" y="-74.5" font-family="Helvetica,sans-Serif" font-size="10.00">_rect.cpp</text>
</a>
</g>
</g>
<!-- Node19&#45;&gt;Node44 -->
<g id="edge45" class="edge">
<title>Node19&#45;&gt;Node44</title>
<path fill="none" stroke="midnightblue" d="M2310.52,-148.06C2493.67,-146.18 2876.52,-137.39 3197.5,-98 3200.36,-97.65 3203.27,-97.25 3206.21,-96.82"/>
<polygon fill="midnightblue" stroke="midnightblue" points="2310.31,-144.56 2300.35,-148.16 2310.38,-151.56 2310.31,-144.56"/>
</g>
<!-- Node45 -->
<g id="node40" class="node">
<title>Node45</title>
<g id="a_node40"><a xlink:href="../../d7/d1b/pen__toolbar_8cpp.html" target="_top" xlink:title=" ">
<polygon fill="white" stroke="black" points="3355,-67.5 3355,-97.5 3474,-97.5 3474,-67.5 3355,-67.5"/>
<text text-anchor="start" x="3363" y="-85.5" font-family="Helvetica,sans-Serif" font-size="10.00">src/libs/vwidgets/pen</text>
<text text-anchor="middle" x="3414.5" y="-74.5" font-family="Helvetica,sans-Serif" font-size="10.00">_toolbar.cpp</text>
</a>
</g>
</g>
<!-- Node19&#45;&gt;Node45 -->
<g id="edge46" class="edge">
<title>Node19&#45;&gt;Node45</title>
<path fill="none" stroke="midnightblue" d="M2310.72,-145.97C2555.84,-139.88 3147.46,-123.01 3345.5,-98 3348.54,-97.62 3351.64,-97.17 3354.76,-96.68"/>
<polygon fill="midnightblue" stroke="midnightblue" points="2310.29,-142.48 2300.38,-146.23 2310.46,-149.48 2310.29,-142.48"/>
</g>
<!-- Node46 -->
<g id="node41" class="node">
<title>Node46</title>
<g id="a_node41"><a xlink:href="../../dd/df6/vabstractmainwindow_8cpp.html" target="_top" xlink:title=" ">
<polygon fill="white" stroke="black" points="3492,-73 3492,-92 3721,-92 3721,-73 3492,-73"/>
<text text-anchor="middle" x="3606.5" y="-80" font-family="Helvetica,sans-Serif" font-size="10.00">src/libs/vwidgets/vabstractmainwindow.cpp</text>
</a>
</g>
</g>
<!-- Node19&#45;&gt;Node46 -->
<g id="edge47" class="edge">
<title>Node19&#45;&gt;Node46</title>
<path fill="none" stroke="midnightblue" d="M2310.56,-147.08C2531.28,-143.56 3049.67,-132.07 3483.5,-98 3502.69,-96.49 3523.49,-94.27 3542.44,-92.01"/>
<polygon fill="midnightblue" stroke="midnightblue" points="2310.22,-143.59 2300.28,-147.24 2310.33,-150.58 2310.22,-143.59"/>
</g>
<!-- Node47 -->
<g id="node42" class="node">
<title>Node47</title>
<g id="a_node42"><a xlink:href="../../d1/d90/vgrainlineitem_8cpp.html" target="_top" xlink:title=" ">
<polygon fill="white" stroke="black" points="3739,-73 3739,-92 3932,-92 3932,-73 3739,-73"/>
<text text-anchor="middle" x="3835.5" y="-80" font-family="Helvetica,sans-Serif" font-size="10.00">src/libs/vwidgets/vgrainlineitem.cpp</text>
</a>
</g>
</g>
<!-- Node19&#45;&gt;Node47 -->
<g id="edge48" class="edge">
<title>Node19&#45;&gt;Node47</title>
<path fill="none" stroke="midnightblue" d="M2310.31,-148.79C2560.35,-148.62 3199.03,-143.36 3730.5,-98 3747.19,-96.58 3765.28,-94.33 3781.66,-92.03"/>
<polygon fill="midnightblue" stroke="midnightblue" points="2310.13,-145.29 2300.13,-148.79 2310.14,-152.29 2310.13,-145.29"/>
</g>
<!-- Node48 -->
<g id="node43" class="node">
<title>Node48</title>
<g id="a_node43"><a xlink:href="../../de/d45/vcontrolpointspline_8cpp.html" target="_top" xlink:title=" ">
<polygon fill="white" stroke="black" points="364,-73 364,-92 579,-92 579,-73 364,-73"/>
<text text-anchor="middle" x="471.5" y="-80" font-family="Helvetica,sans-Serif" font-size="10.00">src/libs/vwidgets/vcontrolpointspline.cpp</text>
</a>
</g>
</g>
<!-- Node19&#45;&gt;Node48 -->
<g id="edge49" class="edge">
<title>Node19&#45;&gt;Node48</title>
<path fill="none" stroke="midnightblue" d="M2094.67,-143.74C2024.55,-140.72 1931.11,-136.87 1848.5,-134 1288.61,-114.54 1147.11,-140.5 588.5,-98 569.83,-96.58 549.55,-94.32 531.21,-92.01"/>
<polygon fill="midnightblue" stroke="midnightblue" points="2094.7,-147.24 2104.85,-144.17 2095.01,-140.25 2094.7,-147.24"/>
</g>
<!-- Node49 -->
<g id="node44" class="node">
<title>Node49</title>
<g id="a_node44"><a xlink:href="../../de/dec/vgraphicssimpletextitem_8cpp.html" target="_top" xlink:title=" ">
<polygon fill="white" stroke="black" points="597.5,-73 597.5,-92 841.5,-92 841.5,-73 597.5,-73"/>
<text text-anchor="middle" x="719.5" y="-80" font-family="Helvetica,sans-Serif" font-size="10.00">src/libs/vwidgets/vgraphicssimpletextitem.cpp</text>
</a>
</g>
</g>
<!-- Node19&#45;&gt;Node49 -->
<g id="edge50" class="edge">
<title>Node19&#45;&gt;Node49</title>
<path fill="none" stroke="midnightblue" d="M2094.66,-143.95C2024.54,-141.02 1931.1,-137.18 1848.5,-134 1404.98,-116.92 1293.16,-130.44 850.5,-98 830.08,-96.5 807.92,-94.28 787.74,-92.02"/>
<polygon fill="midnightblue" stroke="midnightblue" points="2094.7,-147.45 2104.84,-144.37 2094.99,-140.46 2094.7,-147.45"/>
</g>
<!-- Node28&#45;&gt;Node29 -->
<g id="edge27" class="edge">
<title>Node28&#45;&gt;Node29</title>
<path fill="none" stroke="midnightblue" d="M1298.72,-67C1149.72,-42.05 985.84,-27.16 903.12,-20.52"/>
<polygon fill="midnightblue" stroke="midnightblue" points="1298.52,-70.52 1308.97,-68.74 1299.69,-63.62 1298.52,-70.52"/>
</g>
<!-- Node38&#45;&gt;Node39 -->
<g id="edge40" class="edge">
<title>Node38&#45;&gt;Node39</title>
<path fill="none" stroke="midnightblue" d="M1801.28,-66.96C2060.46,-33.99 2809.51,-20.47 3016.8,-17.27"/>
<polygon fill="midnightblue" stroke="midnightblue" points="1800.61,-63.52 1791.15,-68.29 1801.52,-70.46 1800.61,-63.52"/>
</g>
</g>
</svg>
