<?xml version="1.0" encoding="UTF-8" standalone="no"?>
<!DOCTYPE svg PUBLIC "-//W3C//DTD SVG 1.1//EN"
 "http://www.w3.org/Graphics/SVG/1.1/DTD/svg11.dtd">
<!-- Generated by graphviz version 2.43.0 (0)
 -->
<!-- Title: src/libs/vtools/visualization/line/operation/visoperation.h Pages: 1 -->
<svg width="2101pt" height="184pt"
 viewBox="0.00 0.00 2100.50 184.00" xmlns="http://www.w3.org/2000/svg" xmlns:xlink="http://www.w3.org/1999/xlink">
<g id="graph0" class="graph" transform="scale(1 1) rotate(0) translate(4 180)">
<title>src/libs/vtools/visualization/line/operation/visoperation.h</title>
<polygon fill="white" stroke="transparent" points="-4,4 -4,-180 2096.5,-180 2096.5,4 -4,4"/>
<!-- Node1 -->
<g id="node1" class="node">
<title>Node1</title>
<g id="a_node1"><a xlink:title=" ">
<polygon fill="#bfbfbf" stroke="black" points="1270.5,-145.5 1270.5,-175.5 1430.5,-175.5 1430.5,-145.5 1270.5,-145.5"/>
<text text-anchor="start" x="1278.5" y="-163.5" font-family="Helvetica,sans-Serif" font-size="10.00">src/libs/vtools/visualization</text>
<text text-anchor="middle" x="1350.5" y="-152.5" font-family="Helvetica,sans-Serif" font-size="10.00">/line/operation/visoperation.h</text>
</a>
</g>
</g>
<!-- Node2 -->
<g id="node2" class="node">
<title>Node2</title>
<g id="a_node2"><a xlink:href="../../d5/de2/visoperation_8cpp.html" target="_top" xlink:title=" ">
<polygon fill="white" stroke="black" points="167,-78.5 167,-108.5 338,-108.5 338,-78.5 167,-78.5"/>
<text text-anchor="start" x="175" y="-96.5" font-family="Helvetica,sans-Serif" font-size="10.00">src/libs/vtools/visualization</text>
<text text-anchor="middle" x="252.5" y="-85.5" font-family="Helvetica,sans-Serif" font-size="10.00">/line/operation/visoperation.cpp</text>
</a>
</g>
</g>
<!-- Node1&#45;&gt;Node2 -->
<g id="edge1" class="edge">
<title>Node1&#45;&gt;Node2</title>
<path fill="none" stroke="midnightblue" d="M1260.08,-158.01C1084.01,-154.43 682.98,-142.96 347.5,-109 344.43,-108.69 341.31,-108.35 338.15,-107.98"/>
<polygon fill="midnightblue" stroke="midnightblue" points="1260.27,-161.51 1270.33,-158.21 1260.41,-154.52 1260.27,-161.51"/>
</g>
<!-- Node3 -->
<g id="node3" class="node">
<title>Node3</title>
<g id="a_node3"><a xlink:href="../../d8/d1e/vistoolmirrorbyline_8h.html" target="_top" xlink:title=" ">
<polygon fill="white" stroke="black" points="356.5,-78.5 356.5,-108.5 548.5,-108.5 548.5,-78.5 356.5,-78.5"/>
<text text-anchor="start" x="364.5" y="-96.5" font-family="Helvetica,sans-Serif" font-size="10.00">src/libs/vtools/visualization</text>
<text text-anchor="middle" x="452.5" y="-85.5" font-family="Helvetica,sans-Serif" font-size="10.00">/line/operation/vistoolmirrorbyline.h</text>
</a>
</g>
</g>
<!-- Node1&#45;&gt;Node3 -->
<g id="edge2" class="edge">
<title>Node1&#45;&gt;Node3</title>
<path fill="none" stroke="midnightblue" d="M1260.23,-152.97C1090.06,-140.65 723.25,-114.1 548.65,-101.46"/>
<polygon fill="midnightblue" stroke="midnightblue" points="1260.19,-156.47 1270.41,-153.7 1260.69,-149.49 1260.19,-156.47"/>
</g>
<!-- Node7 -->
<g id="node7" class="node">
<title>Node7</title>
<g id="a_node7"><a xlink:href="../../da/d4d/vistoolmirrorbyaxis_8h.html" target="_top" xlink:title=" ">
<polygon fill="white" stroke="black" points="832.5,-78.5 832.5,-108.5 1026.5,-108.5 1026.5,-78.5 832.5,-78.5"/>
<text text-anchor="start" x="840.5" y="-96.5" font-family="Helvetica,sans-Serif" font-size="10.00">src/libs/vtools/visualization</text>
<text text-anchor="middle" x="929.5" y="-85.5" font-family="Helvetica,sans-Serif" font-size="10.00">/line/operation/vistoolmirrorbyaxis.h</text>
</a>
</g>
</g>
<!-- Node1&#45;&gt;Node7 -->
<g id="edge6" class="edge">
<title>Node1&#45;&gt;Node7</title>
<path fill="none" stroke="midnightblue" d="M1260.08,-145.54C1189.28,-134.61 1091.25,-119.47 1020.34,-108.53"/>
<polygon fill="midnightblue" stroke="midnightblue" points="1259.91,-149.05 1270.32,-147.12 1260.97,-142.14 1259.91,-149.05"/>
</g>
<!-- Node11 -->
<g id="node11" class="node">
<title>Node11</title>
<g id="a_node11"><a xlink:href="../../d1/df2/vistoolrotation_8cpp.html" target="_top" xlink:title=" ">
<polygon fill="white" stroke="black" points="1620.5,-6 1620.5,-36 1802.5,-36 1802.5,-6 1620.5,-6"/>
<text text-anchor="start" x="1628.5" y="-24" font-family="Helvetica,sans-Serif" font-size="10.00">src/libs/vtools/visualization</text>
<text text-anchor="middle" x="1711.5" y="-13" font-family="Helvetica,sans-Serif" font-size="10.00">/line/operation/vistoolrotation.cpp</text>
</a>
</g>
</g>
<!-- Node1&#45;&gt;Node11 -->
<g id="edge10" class="edge">
<title>Node1&#45;&gt;Node11</title>
<path fill="none" stroke="midnightblue" d="M1396.79,-141.87C1469.34,-114.24 1608.36,-61.29 1674.62,-36.05"/>
<polygon fill="midnightblue" stroke="midnightblue" points="1395.54,-138.6 1387.44,-145.43 1398.03,-145.14 1395.54,-138.6"/>
</g>
<!-- Node12 -->
<g id="node12" class="node">
<title>Node12</title>
<g id="a_node12"><a xlink:href="../../d0/d44/vistoolmove_8h.html" target="_top" xlink:title=" ">
<polygon fill="white" stroke="black" points="1270.5,-78.5 1270.5,-108.5 1430.5,-108.5 1430.5,-78.5 1270.5,-78.5"/>
<text text-anchor="start" x="1278.5" y="-96.5" font-family="Helvetica,sans-Serif" font-size="10.00">src/libs/vtools/visualization</text>
<text text-anchor="middle" x="1350.5" y="-85.5" font-family="Helvetica,sans-Serif" font-size="10.00">/line/operation/vistoolmove.h</text>
</a>
</g>
</g>
<!-- Node1&#45;&gt;Node12 -->
<g id="edge11" class="edge">
<title>Node1&#45;&gt;Node12</title>
<path fill="none" stroke="midnightblue" d="M1350.5,-135.11C1350.5,-126.15 1350.5,-116.32 1350.5,-108.58"/>
<polygon fill="midnightblue" stroke="midnightblue" points="1347,-135.4 1350.5,-145.4 1354,-135.4 1347,-135.4"/>
</g>
<!-- Node15 -->
<g id="node15" class="node">
<title>Node15</title>
<g id="a_node15"><a xlink:href="../../df/d46/vistoolmove_8cpp.html" target="_top" xlink:title=" ">
<polygon fill="white" stroke="black" points="1431,-6 1431,-36 1602,-36 1602,-6 1431,-6"/>
<text text-anchor="start" x="1439" y="-24" font-family="Helvetica,sans-Serif" font-size="10.00">src/libs/vtools/visualization</text>
<text text-anchor="middle" x="1516.5" y="-13" font-family="Helvetica,sans-Serif" font-size="10.00">/line/operation/vistoolmove.cpp</text>
</a>
</g>
</g>
<!-- Node1&#45;&gt;Node15 -->
<g id="edge15" class="edge">
<title>Node1&#45;&gt;Node15</title>
<path fill="none" stroke="midnightblue" d="M1390.1,-140.65C1406.2,-132.09 1424.5,-121.16 1439.5,-109 1466.76,-86.9 1492.54,-54.65 1506.25,-36.26"/>
<polygon fill="midnightblue" stroke="midnightblue" points="1388.19,-137.7 1380.92,-145.41 1391.41,-143.92 1388.19,-137.7"/>
</g>
<!-- Node16 -->
<g id="node16" class="node">
<title>Node16</title>
<g id="a_node16"><a xlink:href="../../de/d9c/vistoolrotation_8h.html" target="_top" xlink:title=" ">
<polygon fill="white" stroke="black" points="1700.5,-78.5 1700.5,-108.5 1870.5,-108.5 1870.5,-78.5 1700.5,-78.5"/>
<text text-anchor="start" x="1708.5" y="-96.5" font-family="Helvetica,sans-Serif" font-size="10.00">src/libs/vtools/visualization</text>
<text text-anchor="middle" x="1785.5" y="-85.5" font-family="Helvetica,sans-Serif" font-size="10.00">/line/operation/vistoolrotation.h</text>
</a>
</g>
</g>
<!-- Node1&#45;&gt;Node16 -->
<g id="edge16" class="edge">
<title>Node1&#45;&gt;Node16</title>
<path fill="none" stroke="midnightblue" d="M1440.62,-146.03C1516.92,-134.63 1625.52,-118.4 1700.37,-107.22"/>
<polygon fill="midnightblue" stroke="midnightblue" points="1439.91,-142.6 1430.54,-147.54 1440.95,-149.52 1439.91,-142.6"/>
</g>
<!-- Node4 -->
<g id="node4" class="node">
<title>Node4</title>
<g id="a_node4"><a xlink:href="../../df/d5e/dialogmirrorbyline_8cpp.html" target="_top" xlink:title=" ">
<polygon fill="white" stroke="black" points="0,-6 0,-36 157,-36 157,-6 0,-6"/>
<text text-anchor="start" x="8" y="-24" font-family="Helvetica,sans-Serif" font-size="10.00">src/libs/vtools/dialogs</text>
<text text-anchor="middle" x="78.5" y="-13" font-family="Helvetica,sans-Serif" font-size="10.00">/tools/dialogmirrorbyline.cpp</text>
</a>
</g>
</g>
<!-- Node3&#45;&gt;Node4 -->
<g id="edge3" class="edge">
<title>Node3&#45;&gt;Node4</title>
<path fill="none" stroke="midnightblue" d="M356.37,-76.73C300.77,-67.3 229.55,-54.72 166.5,-42 157.44,-40.17 147.88,-38.12 138.53,-36.05"/>
<polygon fill="midnightblue" stroke="midnightblue" points="356.12,-80.24 366.57,-78.45 357.29,-73.33 356.12,-80.24"/>
</g>
<!-- Node5 -->
<g id="node5" class="node">
<title>Node5</title>
<g id="a_node5"><a xlink:href="../../d2/d3c/vtoolmirrorbyline_8cpp.html" target="_top" xlink:title=" ">
<polygon fill="white" stroke="black" points="175.5,-0.5 175.5,-41.5 333.5,-41.5 333.5,-0.5 175.5,-0.5"/>
<text text-anchor="start" x="183.5" y="-29.5" font-family="Helvetica,sans-Serif" font-size="10.00">src/libs/vtools/tools</text>
<text text-anchor="start" x="183.5" y="-18.5" font-family="Helvetica,sans-Serif" font-size="10.00">/drawTools/operation</text>
<text text-anchor="middle" x="254.5" y="-7.5" font-family="Helvetica,sans-Serif" font-size="10.00">/mirror/vtoolmirrorbyline.cpp</text>
</a>
</g>
</g>
<!-- Node3&#45;&gt;Node5 -->
<g id="edge4" class="edge">
<title>Node3&#45;&gt;Node5</title>
<path fill="none" stroke="midnightblue" d="M403.16,-74.93C374.67,-64.79 338.78,-52.01 309.4,-41.55"/>
<polygon fill="midnightblue" stroke="midnightblue" points="402.31,-78.35 412.91,-78.4 404.66,-71.75 402.31,-78.35"/>
</g>
<!-- Node6 -->
<g id="node6" class="node">
<title>Node6</title>
<g id="a_node6"><a xlink:href="../../d0/d35/vistoolmirrorbyline_8cpp.html" target="_top" xlink:title=" ">
<polygon fill="white" stroke="black" points="351,-6 351,-36 554,-36 554,-6 351,-6"/>
<text text-anchor="start" x="359" y="-24" font-family="Helvetica,sans-Serif" font-size="10.00">src/libs/vtools/visualization</text>
<text text-anchor="middle" x="452.5" y="-13" font-family="Helvetica,sans-Serif" font-size="10.00">/line/operation/vistoolmirrorbyline.cpp</text>
</a>
</g>
</g>
<!-- Node3&#45;&gt;Node6 -->
<g id="edge5" class="edge">
<title>Node3&#45;&gt;Node6</title>
<path fill="none" stroke="midnightblue" d="M452.5,-68.23C452.5,-57.57 452.5,-45.41 452.5,-36.25"/>
<polygon fill="midnightblue" stroke="midnightblue" points="449,-68.23 452.5,-78.23 456,-68.23 449,-68.23"/>
</g>
<!-- Node8 -->
<g id="node8" class="node">
<title>Node8</title>
<g id="a_node8"><a xlink:href="../../d9/d34/dialogmirrorbyaxis_8cpp.html" target="_top" xlink:title=" ">
<polygon fill="white" stroke="black" points="572,-6 572,-36 731,-36 731,-6 572,-6"/>
<text text-anchor="start" x="580" y="-24" font-family="Helvetica,sans-Serif" font-size="10.00">src/libs/vtools/dialogs</text>
<text text-anchor="middle" x="651.5" y="-13" font-family="Helvetica,sans-Serif" font-size="10.00">/tools/dialogmirrorbyaxis.cpp</text>
</a>
</g>
</g>
<!-- Node7&#45;&gt;Node8 -->
<g id="edge7" class="edge">
<title>Node7&#45;&gt;Node8</title>
<path fill="none" stroke="midnightblue" d="M864.32,-75.97C816.57,-63.86 752.47,-47.6 707.13,-36.11"/>
<polygon fill="midnightblue" stroke="midnightblue" points="863.69,-79.42 874.24,-78.49 865.41,-72.64 863.69,-79.42"/>
</g>
<!-- Node9 -->
<g id="node9" class="node">
<title>Node9</title>
<g id="a_node9"><a xlink:href="../../d5/d3b/vtoolmirrorbyaxis_8cpp.html" target="_top" xlink:title=" ">
<polygon fill="white" stroke="black" points="749.5,-0.5 749.5,-41.5 909.5,-41.5 909.5,-0.5 749.5,-0.5"/>
<text text-anchor="start" x="757.5" y="-29.5" font-family="Helvetica,sans-Serif" font-size="10.00">src/libs/vtools/tools</text>
<text text-anchor="start" x="757.5" y="-18.5" font-family="Helvetica,sans-Serif" font-size="10.00">/drawTools/operation</text>
<text text-anchor="middle" x="829.5" y="-7.5" font-family="Helvetica,sans-Serif" font-size="10.00">/mirror/vtoolmirrorbyaxis.cpp</text>
</a>
</g>
</g>
<!-- Node7&#45;&gt;Node9 -->
<g id="edge8" class="edge">
<title>Node7&#45;&gt;Node9</title>
<path fill="none" stroke="midnightblue" d="M900.72,-72.21C887.06,-62.58 870.81,-51.12 857.29,-41.59"/>
<polygon fill="midnightblue" stroke="midnightblue" points="899.07,-75.33 909.26,-78.23 903.11,-69.61 899.07,-75.33"/>
</g>
<!-- Node10 -->
<g id="node10" class="node">
<title>Node10</title>
<g id="a_node10"><a xlink:href="../../de/da4/vistoolmirrorbyaxis_8cpp.html" target="_top" xlink:title=" ">
<polygon fill="white" stroke="black" points="927.5,-6 927.5,-36 1133.5,-36 1133.5,-6 927.5,-6"/>
<text text-anchor="start" x="935.5" y="-24" font-family="Helvetica,sans-Serif" font-size="10.00">src/libs/vtools/visualization</text>
<text text-anchor="middle" x="1030.5" y="-13" font-family="Helvetica,sans-Serif" font-size="10.00">/line/operation/vistoolmirrorbyaxis.cpp</text>
</a>
</g>
</g>
<!-- Node7&#45;&gt;Node10 -->
<g id="edge9" class="edge">
<title>Node7&#45;&gt;Node10</title>
<path fill="none" stroke="midnightblue" d="M958.25,-72.43C974.93,-60.79 995.51,-46.42 1010.44,-36"/>
<polygon fill="midnightblue" stroke="midnightblue" points="956.14,-69.64 949.94,-78.23 960.14,-75.38 956.14,-69.64"/>
</g>
<!-- Node13 -->
<g id="node13" class="node">
<title>Node13</title>
<g id="a_node13"><a xlink:href="../../d2/d51/dialogmove_8cpp.html" target="_top" xlink:title=" ">
<polygon fill="white" stroke="black" points="1288,-6 1288,-36 1413,-36 1413,-6 1288,-6"/>
<text text-anchor="start" x="1296" y="-24" font-family="Helvetica,sans-Serif" font-size="10.00">src/libs/vtools/dialogs</text>
<text text-anchor="middle" x="1350.5" y="-13" font-family="Helvetica,sans-Serif" font-size="10.00">/tools/dialogmove.cpp</text>
</a>
</g>
</g>
<!-- Node12&#45;&gt;Node13 -->
<g id="edge12" class="edge">
<title>Node12&#45;&gt;Node13</title>
<path fill="none" stroke="midnightblue" d="M1350.5,-68.23C1350.5,-57.57 1350.5,-45.41 1350.5,-36.25"/>
<polygon fill="midnightblue" stroke="midnightblue" points="1347,-68.23 1350.5,-78.23 1354,-68.23 1347,-68.23"/>
</g>
<!-- Node14 -->
<g id="node14" class="node">
<title>Node14</title>
<g id="a_node14"><a xlink:href="../../d3/d2b/vtoolmove_8cpp.html" target="_top" xlink:title=" ">
<polygon fill="white" stroke="black" points="1151.5,-0.5 1151.5,-41.5 1269.5,-41.5 1269.5,-0.5 1151.5,-0.5"/>
<text text-anchor="start" x="1159.5" y="-29.5" font-family="Helvetica,sans-Serif" font-size="10.00">src/libs/vtools/tools</text>
<text text-anchor="start" x="1159.5" y="-18.5" font-family="Helvetica,sans-Serif" font-size="10.00">/drawTools/operation</text>
<text text-anchor="middle" x="1210.5" y="-7.5" font-family="Helvetica,sans-Serif" font-size="10.00">/vtoolmove.cpp</text>
</a>
</g>
</g>
<!-- Node12&#45;&gt;Node14 -->
<g id="edge13" class="edge">
<title>Node12&#45;&gt;Node14</title>
<path fill="none" stroke="midnightblue" d="M1313.48,-73.86C1293.7,-63.9 1269.36,-51.64 1249.32,-41.55"/>
<polygon fill="midnightblue" stroke="midnightblue" points="1312,-77.03 1322.51,-78.4 1315.15,-70.78 1312,-77.03"/>
</g>
<!-- Node12&#45;&gt;Node15 -->
<g id="edge14" class="edge">
<title>Node12&#45;&gt;Node15</title>
<path fill="none" stroke="midnightblue" d="M1393.25,-74.34C1421.32,-62.42 1457.48,-47.07 1483.36,-36.07"/>
<polygon fill="midnightblue" stroke="midnightblue" points="1391.53,-71.27 1383.69,-78.4 1394.27,-77.72 1391.53,-71.27"/>
</g>
<!-- Node16&#45;&gt;Node11 -->
<g id="edge19" class="edge">
<title>Node16&#45;&gt;Node11</title>
<path fill="none" stroke="midnightblue" d="M1763.13,-71.19C1751.25,-59.87 1736.98,-46.27 1726.45,-36.25"/>
<polygon fill="midnightblue" stroke="midnightblue" points="1760.87,-73.87 1770.52,-78.23 1765.7,-68.8 1760.87,-73.87"/>
</g>
<!-- Node17 -->
<g id="node17" class="node">
<title>Node17</title>
<g id="a_node17"><a xlink:href="../../dc/d64/dialogrotation_8cpp.html" target="_top" xlink:title=" ">
<polygon fill="white" stroke="black" points="1821,-6 1821,-36 1956,-36 1956,-6 1821,-6"/>
<text text-anchor="start" x="1829" y="-24" font-family="Helvetica,sans-Serif" font-size="10.00">src/libs/vtools/dialogs</text>
<text text-anchor="middle" x="1888.5" y="-13" font-family="Helvetica,sans-Serif" font-size="10.00">/tools/dialogrotation.cpp</text>
</a>
</g>
</g>
<!-- Node16&#45;&gt;Node17 -->
<g id="edge17" class="edge">
<title>Node16&#45;&gt;Node17</title>
<path fill="none" stroke="midnightblue" d="M1814.82,-72.43C1831.82,-60.79 1852.82,-46.42 1868.04,-36"/>
<polygon fill="midnightblue" stroke="midnightblue" points="1812.62,-69.7 1806.34,-78.23 1816.57,-75.47 1812.62,-69.7"/>
</g>
<!-- Node18 -->
<g id="node18" class="node">
<title>Node18</title>
<g id="a_node18"><a xlink:href="../../df/dd2/vtoolrotation_8cpp.html" target="_top" xlink:title=" ">
<polygon fill="white" stroke="black" points="1974.5,-0.5 1974.5,-41.5 2092.5,-41.5 2092.5,-0.5 1974.5,-0.5"/>
<text text-anchor="start" x="1982.5" y="-29.5" font-family="Helvetica,sans-Serif" font-size="10.00">src/libs/vtools/tools</text>
<text text-anchor="start" x="1982.5" y="-18.5" font-family="Helvetica,sans-Serif" font-size="10.00">/drawTools/operation</text>
<text text-anchor="middle" x="2033.5" y="-7.5" font-family="Helvetica,sans-Serif" font-size="10.00">/vtoolrotation.cpp</text>
</a>
</g>
</g>
<!-- Node16&#45;&gt;Node18 -->
<g id="edge18" class="edge">
<title>Node16&#45;&gt;Node18</title>
<path fill="none" stroke="midnightblue" d="M1846.4,-75.62C1881.3,-65.89 1925.89,-53.38 1965.5,-42 1968.34,-41.18 1971.24,-40.35 1974.17,-39.5"/>
<polygon fill="midnightblue" stroke="midnightblue" points="1845.06,-72.36 1836.37,-78.41 1846.94,-79.1 1845.06,-72.36"/>
</g>
</g>
</svg>
