<?xml version="1.0" encoding="UTF-8" standalone="no"?>
<!DOCTYPE svg PUBLIC "-//W3C//DTD SVG 1.1//EN"
 "http://www.w3.org/Graphics/SVG/1.1/DTD/svg11.dtd">
<!-- Generated by graphviz version 2.43.0 (0)
 -->
<!-- Title: src/libs/vpatterndb/variables/vcurveangle.h Pages: 1 -->
<svg width="5694pt" height="385pt"
 viewBox="0.00 0.00 5693.50 385.00" xmlns="http://www.w3.org/2000/svg" xmlns:xlink="http://www.w3.org/1999/xlink">
<g id="graph0" class="graph" transform="scale(1 1) rotate(0) translate(4 381)">
<title>src/libs/vpatterndb/variables/vcurveangle.h</title>
<polygon fill="white" stroke="transparent" points="-4,4 -4,-381 5689.5,-381 5689.5,4 -4,4"/>
<!-- Node1 -->
<g id="node1" class="node">
<title>Node1</title>
<g id="a_node1"><a xlink:title=" ">
<polygon fill="#bfbfbf" stroke="black" points="229,-346.5 229,-376.5 366,-376.5 366,-346.5 229,-346.5"/>
<text text-anchor="start" x="237" y="-364.5" font-family="Helvetica,sans-Serif" font-size="10.00">src/libs/vpatterndb</text>
<text text-anchor="middle" x="297.5" y="-353.5" font-family="Helvetica,sans-Serif" font-size="10.00">/variables/vcurveangle.h</text>
</a>
</g>
</g>
<!-- Node2 -->
<g id="node2" class="node">
<title>Node2</title>
<g id="a_node2"><a xlink:href="../../df/db3/vcurveangle_8cpp.html" target="_top" xlink:title=" ">
<polygon fill="white" stroke="black" points="121.5,-279.5 121.5,-309.5 269.5,-309.5 269.5,-279.5 121.5,-279.5"/>
<text text-anchor="start" x="129.5" y="-297.5" font-family="Helvetica,sans-Serif" font-size="10.00">src/libs/vpatterndb</text>
<text text-anchor="middle" x="195.5" y="-286.5" font-family="Helvetica,sans-Serif" font-size="10.00">/variables/vcurveangle.cpp</text>
</a>
</g>
</g>
<!-- Node1&#45;&gt;Node2 -->
<g id="edge1" class="edge">
<title>Node1&#45;&gt;Node2</title>
<path fill="none" stroke="midnightblue" d="M266.92,-341.02C251.05,-330.9 232.02,-318.77 217.59,-309.58"/>
<polygon fill="midnightblue" stroke="midnightblue" points="265.05,-343.97 275.37,-346.4 268.82,-338.07 265.05,-343.97"/>
</g>
<!-- Node3 -->
<g id="node3" class="node">
<title>Node3</title>
<g id="a_node3"><a xlink:href="../../d6/d46/vcontainer_8cpp.html" target="_top" xlink:title=" ">
<polygon fill="white" stroke="black" points="0,-67.5 0,-97.5 107,-97.5 107,-67.5 0,-67.5"/>
<text text-anchor="start" x="8" y="-85.5" font-family="Helvetica,sans-Serif" font-size="10.00">src/libs/vpatterndb</text>
<text text-anchor="middle" x="53.5" y="-74.5" font-family="Helvetica,sans-Serif" font-size="10.00">/vcontainer.cpp</text>
</a>
</g>
</g>
<!-- Node1&#45;&gt;Node3 -->
<g id="edge2" class="edge">
<title>Node1&#45;&gt;Node3</title>
<path fill="none" stroke="midnightblue" d="M295.77,-336C293.66,-318.99 288.96,-296.35 278.5,-279 226.96,-193.45 125.25,-125.78 78.31,-97.65"/>
<polygon fill="midnightblue" stroke="midnightblue" points="292.32,-336.66 296.82,-346.25 299.29,-335.94 292.32,-336.66"/>
</g>
<!-- Node4 -->
<g id="node4" class="node">
<title>Node4</title>
<g id="a_node4"><a xlink:href="../../de/dca/variables_8h.html" target="_top" xlink:title=" ">
<polygon fill="white" stroke="black" points="2041,-279.5 2041,-309.5 2148,-309.5 2148,-279.5 2041,-279.5"/>
<text text-anchor="start" x="2049" y="-297.5" font-family="Helvetica,sans-Serif" font-size="10.00">src/libs/vpatterndb</text>
<text text-anchor="middle" x="2094.5" y="-286.5" font-family="Helvetica,sans-Serif" font-size="10.00">/variables.h</text>
</a>
</g>
</g>
<!-- Node1&#45;&gt;Node4 -->
<g id="edge3" class="edge">
<title>Node1&#45;&gt;Node4</title>
<path fill="none" stroke="midnightblue" d="M376.11,-357.66C681.4,-346.61 1784.06,-306.73 2040.81,-297.44"/>
<polygon fill="midnightblue" stroke="midnightblue" points="375.89,-354.16 366.02,-358.02 376.14,-361.16 375.89,-354.16"/>
</g>
<!-- Node5 -->
<g id="node5" class="node">
<title>Node5</title>
<g id="a_node5"><a xlink:href="../../d3/df7/vcontainer_8h.html" target="_top" xlink:title=" ">
<polygon fill="white" stroke="black" points="3685,-212.5 3685,-242.5 3792,-242.5 3792,-212.5 3685,-212.5"/>
<text text-anchor="start" x="3693" y="-230.5" font-family="Helvetica,sans-Serif" font-size="10.00">src/libs/vpatterndb</text>
<text text-anchor="middle" x="3738.5" y="-219.5" font-family="Helvetica,sans-Serif" font-size="10.00">/vcontainer.h</text>
</a>
</g>
</g>
<!-- Node4&#45;&gt;Node5 -->
<g id="edge4" class="edge">
<title>Node4&#45;&gt;Node5</title>
<path fill="none" stroke="midnightblue" d="M2158.52,-290.97C2424.4,-280.46 3439.12,-240.34 3684.73,-230.63"/>
<polygon fill="midnightblue" stroke="midnightblue" points="2158.12,-287.48 2148.26,-291.37 2158.39,-294.48 2158.12,-287.48"/>
</g>
<!-- Node5&#45;&gt;Node3 -->
<g id="edge54" class="edge">
<title>Node5&#45;&gt;Node3</title>
<path fill="none" stroke="midnightblue" d="M3674.6,-226.19C3395.71,-224.61 2257.34,-215.92 1323.5,-176 786.43,-153.04 648.39,-175.87 116.5,-98 113.39,-97.54 110.21,-97.02 107,-96.43"/>
<polygon fill="midnightblue" stroke="midnightblue" points="3674.91,-229.69 3684.93,-226.24 3674.95,-222.69 3674.91,-229.69"/>
</g>
<!-- Node6 -->
<g id="node6" class="node">
<title>Node6</title>
<g id="a_node6"><a xlink:href="../../dc/db7/measurements_8h.html" target="_top" xlink:title=" ">
<polygon fill="white" stroke="black" points="4409,-145.5 4409,-164.5 4588,-164.5 4588,-145.5 4409,-145.5"/>
<text text-anchor="middle" x="4498.5" y="-152.5" font-family="Helvetica,sans-Serif" font-size="10.00">src/libs/vformat/measurements.h</text>
</a>
</g>
</g>
<!-- Node5&#45;&gt;Node6 -->
<g id="edge5" class="edge">
<title>Node5&#45;&gt;Node6</title>
<path fill="none" stroke="midnightblue" d="M3802.55,-223.98C3920.22,-218.81 4178.56,-204.98 4394.5,-176 4416.19,-173.09 4440.18,-168.56 4459.66,-164.55"/>
<polygon fill="midnightblue" stroke="midnightblue" points="3802.13,-220.49 3792.29,-224.42 3802.43,-227.49 3802.13,-220.49"/>
</g>
<!-- Node7 -->
<g id="node7" class="node">
<title>Node7</title>
<g id="a_node7"><a xlink:href="../../d9/de3/measurements_8cpp.html" target="_top" xlink:title=" ">
<polygon fill="white" stroke="black" points="4370.5,-73 4370.5,-92 4560.5,-92 4560.5,-73 4370.5,-73"/>
<text text-anchor="middle" x="4465.5" y="-80" font-family="Helvetica,sans-Serif" font-size="10.00">src/libs/vformat/measurements.cpp</text>
</a>
</g>
</g>
<!-- Node5&#45;&gt;Node7 -->
<g id="edge7" class="edge">
<title>Node5&#45;&gt;Node7</title>
<path fill="none" stroke="midnightblue" d="M3802.61,-226.63C3940.13,-226.03 4258.87,-219.82 4356.5,-176 4381.16,-164.93 4380.02,-151.65 4400.5,-134 4418.47,-118.51 4440.47,-101.88 4453.71,-92.09"/>
<polygon fill="midnightblue" stroke="midnightblue" points="3802.23,-223.13 3792.24,-226.66 3802.25,-230.13 3802.23,-223.13"/>
</g>
<!-- Node8 -->
<g id="node8" class="node">
<title>Node8</title>
<g id="a_node8"><a xlink:href="../../d6/de0/vlayoutpiece_8h.html" target="_top" xlink:title=" ">
<polygon fill="white" stroke="black" points="4777.5,-145.5 4777.5,-164.5 4943.5,-164.5 4943.5,-145.5 4777.5,-145.5"/>
<text text-anchor="middle" x="4860.5" y="-152.5" font-family="Helvetica,sans-Serif" font-size="10.00">src/libs/vlayout/vlayoutpiece.h</text>
</a>
</g>
</g>
<!-- Node5&#45;&gt;Node8 -->
<g id="edge8" class="edge">
<title>Node5&#45;&gt;Node8</title>
<path fill="none" stroke="midnightblue" d="M3802.61,-223.11C3945.41,-215.47 4300.5,-196.02 4597.5,-176 4657.69,-171.94 4725.59,-166.76 4777.32,-162.69"/>
<polygon fill="midnightblue" stroke="midnightblue" points="3802.09,-219.63 3792.29,-223.66 3802.47,-226.62 3802.09,-219.63"/>
</g>
<!-- Node18 -->
<g id="node17" class="node">
<title>Node18</title>
<g id="a_node17"><a xlink:href="../../d8/d70/vtextmanager_8cpp.html" target="_top" xlink:title=" ">
<polygon fill="white" stroke="black" points="125.5,-73 125.5,-92 307.5,-92 307.5,-73 125.5,-73"/>
<text text-anchor="middle" x="216.5" y="-80" font-family="Helvetica,sans-Serif" font-size="10.00">src/libs/vlayout/vtextmanager.cpp</text>
</a>
</g>
</g>
<!-- Node5&#45;&gt;Node18 -->
<g id="edge19" class="edge">
<title>Node5&#45;&gt;Node18</title>
<path fill="none" stroke="midnightblue" d="M3674.9,-225.09C3455.57,-220.09 2710.51,-202.18 2095.5,-176 1752.19,-161.39 1666.76,-149.64 1323.5,-134 888.1,-114.16 778.12,-130.74 343.5,-98 323.69,-96.51 302.21,-94.29 282.65,-92.03"/>
<polygon fill="midnightblue" stroke="midnightblue" points="3674.86,-228.59 3684.94,-225.31 3675.02,-221.59 3674.86,-228.59"/>
</g>
<!-- Node19 -->
<g id="node18" class="node">
<title>Node19</title>
<g id="a_node18"><a xlink:href="../../d5/d74/vabstractapplication_8h.html" target="_top" xlink:title=" ">
<polygon fill="white" stroke="red" points="2105,-145.5 2105,-164.5 2300,-164.5 2300,-145.5 2105,-145.5"/>
<text text-anchor="middle" x="2202.5" y="-152.5" font-family="Helvetica,sans-Serif" font-size="10.00">src/libs/vmisc/vabstractapplication.h</text>
</a>
</g>
</g>
<!-- Node5&#45;&gt;Node19 -->
<g id="edge20" class="edge">
<title>Node5&#45;&gt;Node19</title>
<path fill="none" stroke="midnightblue" d="M3674.45,-223.56C3434.67,-212.55 2589.11,-173.74 2300.15,-160.48"/>
<polygon fill="midnightblue" stroke="midnightblue" points="3674.58,-227.07 3684.73,-224.03 3674.9,-220.08 3674.58,-227.07"/>
</g>
<!-- Node37 -->
<g id="node32" class="node">
<title>Node37</title>
<g id="a_node32"><a xlink:href="../../db/d11/vformula_8cpp.html" target="_top" xlink:title=" ">
<polygon fill="white" stroke="black" points="3888,-67.5 3888,-97.5 3995,-97.5 3995,-67.5 3888,-67.5"/>
<text text-anchor="start" x="3896" y="-85.5" font-family="Helvetica,sans-Serif" font-size="10.00">src/libs/vpatterndb</text>
<text text-anchor="middle" x="3941.5" y="-74.5" font-family="Helvetica,sans-Serif" font-size="10.00">/vformula.cpp</text>
</a>
</g>
</g>
<!-- Node5&#45;&gt;Node37 -->
<g id="edge53" class="edge">
<title>Node5&#45;&gt;Node37</title>
<path fill="none" stroke="midnightblue" d="M3674.61,-226.49C3586.42,-224.97 3434.3,-216.37 3399.5,-176 3387.31,-161.86 3386.8,-147.68 3399.5,-134 3435.88,-94.79 3826.64,-106.11 3879.5,-98 3882.23,-97.58 3885.02,-97.11 3887.83,-96.59"/>
<polygon fill="midnightblue" stroke="midnightblue" points="3674.72,-230 3684.77,-226.64 3674.83,-223 3674.72,-230"/>
</g>
<!-- Node38 -->
<g id="node33" class="node">
<title>Node38</title>
<g id="a_node33"><a xlink:href="../../df/d7a/vpiece_8cpp.html" target="_top" xlink:title=" ">
<polygon fill="white" stroke="black" points="4013,-67.5 4013,-97.5 4120,-97.5 4120,-67.5 4013,-67.5"/>
<text text-anchor="start" x="4021" y="-85.5" font-family="Helvetica,sans-Serif" font-size="10.00">src/libs/vpatterndb</text>
<text text-anchor="middle" x="4066.5" y="-74.5" font-family="Helvetica,sans-Serif" font-size="10.00">/vpiece.cpp</text>
</a>
</g>
</g>
<!-- Node5&#45;&gt;Node38 -->
<g id="edge56" class="edge">
<title>Node5&#45;&gt;Node38</title>
<path fill="none" stroke="midnightblue" d="M3674.62,-226.57C3565.13,-224.67 3360.09,-211.11 3432.5,-134 3476.09,-87.58 3941.5,-107.28 4004.5,-98 4007.23,-97.6 4010.03,-97.13 4012.84,-96.63"/>
<polygon fill="midnightblue" stroke="midnightblue" points="3674.85,-230.08 3684.9,-226.72 3674.95,-223.08 3674.85,-230.08"/>
</g>
<!-- Node40 -->
<g id="node35" class="node">
<title>Node40</title>
<g id="a_node35"><a xlink:href="../../d8/dba/vpiecenode_8cpp.html" target="_top" xlink:title=" ">
<polygon fill="white" stroke="black" points="2986,-0.5 2986,-30.5 3093,-30.5 3093,-0.5 2986,-0.5"/>
<text text-anchor="start" x="2994" y="-18.5" font-family="Helvetica,sans-Serif" font-size="10.00">src/libs/vpatterndb</text>
<text text-anchor="middle" x="3039.5" y="-7.5" font-family="Helvetica,sans-Serif" font-size="10.00">/vpiecenode.cpp</text>
</a>
</g>
</g>
<!-- Node5&#45;&gt;Node40 -->
<g id="edge57" class="edge">
<title>Node5&#45;&gt;Node40</title>
<path fill="none" stroke="midnightblue" d="M3802.18,-225.72C3946.47,-223.3 4288.56,-213.6 4323.5,-176 4356.48,-140.51 4358.08,-101.92 4324.5,-67 4281.2,-21.96 3330.9,-17.08 3093.08,-16.56"/>
<polygon fill="midnightblue" stroke="midnightblue" points="3802.08,-222.22 3792.14,-225.88 3802.19,-229.22 3802.08,-222.22"/>
</g>
<!-- Node57 -->
<g id="node45" class="node">
<title>Node57</title>
<g id="a_node45"><a xlink:href="../../d7/d8a/measurement__variable__p_8h.html" target="_top" xlink:title=" ">
<polygon fill="white" stroke="red" points="3441.5,-134.5 3441.5,-175.5 3577.5,-175.5 3577.5,-134.5 3441.5,-134.5"/>
<text text-anchor="start" x="3449.5" y="-163.5" font-family="Helvetica,sans-Serif" font-size="10.00">src/libs/vpatterndb</text>
<text text-anchor="start" x="3449.5" y="-152.5" font-family="Helvetica,sans-Serif" font-size="10.00">/variables/measurement</text>
<text text-anchor="middle" x="3509.5" y="-141.5" font-family="Helvetica,sans-Serif" font-size="10.00">_variable_p.h</text>
</a>
</g>
</g>
<!-- Node5&#45;&gt;Node57 -->
<g id="edge51" class="edge">
<title>Node5&#45;&gt;Node57</title>
<path fill="none" stroke="midnightblue" d="M3683.01,-209.42C3649.86,-199.21 3607.63,-186.21 3573.14,-175.59"/>
<polygon fill="midnightblue" stroke="midnightblue" points="3682.4,-212.89 3692.98,-212.49 3684.46,-206.2 3682.4,-212.89"/>
</g>
<!-- Node59 -->
<g id="node46" class="node">
<title>Node59</title>
<g id="a_node46"><a xlink:href="../../d1/de1/vincrement__p_8h.html" target="_top" xlink:title=" ">
<polygon fill="white" stroke="red" points="3596,-140 3596,-170 3739,-170 3739,-140 3596,-140"/>
<text text-anchor="start" x="3604" y="-158" font-family="Helvetica,sans-Serif" font-size="10.00">src/libs/vpatterndb</text>
<text text-anchor="middle" x="3667.5" y="-147" font-family="Helvetica,sans-Serif" font-size="10.00">/variables/vincrement_p.h</text>
</a>
</g>
</g>
<!-- Node5&#45;&gt;Node59 -->
<g id="edge52" class="edge">
<title>Node5&#45;&gt;Node59</title>
<path fill="none" stroke="midnightblue" d="M3716.71,-204.86C3705.38,-193.61 3691.85,-180.18 3681.85,-170.25"/>
<polygon fill="midnightblue" stroke="midnightblue" points="3714.57,-207.67 3724.13,-212.23 3719.5,-202.7 3714.57,-207.67"/>
</g>
<!-- Node61 -->
<g id="node47" class="node">
<title>Node61</title>
<g id="a_node47"><a xlink:href="../../d6/d91/vnodedetail_8cpp.html" target="_top" xlink:title=" ">
<polygon fill="white" stroke="black" points="3757,-140 3757,-170 3864,-170 3864,-140 3757,-140"/>
<text text-anchor="start" x="3765" y="-158" font-family="Helvetica,sans-Serif" font-size="10.00">src/libs/vpatterndb</text>
<text text-anchor="middle" x="3810.5" y="-147" font-family="Helvetica,sans-Serif" font-size="10.00">/vnodedetail.cpp</text>
</a>
</g>
</g>
<!-- Node5&#45;&gt;Node61 -->
<g id="edge55" class="edge">
<title>Node5&#45;&gt;Node61</title>
<path fill="none" stroke="midnightblue" d="M3760.27,-205.19C3771.82,-193.87 3785.71,-180.27 3795.95,-170.25"/>
<polygon fill="midnightblue" stroke="midnightblue" points="3757.77,-202.74 3753.07,-212.23 3762.66,-207.74 3757.77,-202.74"/>
</g>
<!-- Node62 -->
<g id="node48" class="node">
<title>Node62</title>
<g id="a_node48"><a xlink:href="../../da/de1/vpiecepath_8cpp.html" target="_top" xlink:title=" ">
<polygon fill="white" stroke="black" points="3882,-140 3882,-170 3989,-170 3989,-140 3882,-140"/>
<text text-anchor="start" x="3890" y="-158" font-family="Helvetica,sans-Serif" font-size="10.00">src/libs/vpatterndb</text>
<text text-anchor="middle" x="3935.5" y="-147" font-family="Helvetica,sans-Serif" font-size="10.00">/vpiecepath.cpp</text>
</a>
</g>
</g>
<!-- Node5&#45;&gt;Node62 -->
<g id="edge58" class="edge">
<title>Node5&#45;&gt;Node62</title>
<path fill="none" stroke="midnightblue" d="M3787.5,-208.96C3821.04,-196.96 3864.92,-181.26 3896.18,-170.07"/>
<polygon fill="midnightblue" stroke="midnightblue" points="3786.13,-205.74 3777.89,-212.4 3788.49,-212.33 3786.13,-205.74"/>
</g>
<!-- Node63 -->
<g id="node49" class="node">
<title>Node63</title>
<g id="a_node49"><a xlink:href="../../d1/d3a/abstracttest_8cpp.html" target="_top" xlink:title=" ">
<polygon fill="white" stroke="black" points="4007,-145.5 4007,-164.5 4168,-164.5 4168,-145.5 4007,-145.5"/>
<text text-anchor="middle" x="4087.5" y="-152.5" font-family="Helvetica,sans-Serif" font-size="10.00">src/libs/vtest/abstracttest.cpp</text>
</a>
</g>
</g>
<!-- Node5&#45;&gt;Node63 -->
<g id="edge59" class="edge">
<title>Node5&#45;&gt;Node63</title>
<path fill="none" stroke="midnightblue" d="M3802.25,-214.66C3854.95,-204.73 3931.7,-189.99 3998.5,-176 4015.71,-172.4 4034.72,-168.16 4050.75,-164.51"/>
<polygon fill="midnightblue" stroke="midnightblue" points="3801.55,-211.23 3792.37,-216.51 3802.85,-218.1 3801.55,-211.23"/>
</g>
<!-- Node64 -->
<g id="node50" class="node">
<title>Node64</title>
<g id="a_node50"><a xlink:href="../../da/db4/piece__tablewidgetitem_8cpp.html" target="_top" xlink:title=" ">
<polygon fill="white" stroke="black" points="4186.5,-140 4186.5,-170 4314.5,-170 4314.5,-140 4186.5,-140"/>
<text text-anchor="start" x="4194.5" y="-158" font-family="Helvetica,sans-Serif" font-size="10.00">src/libs/vwidgets/piece</text>
<text text-anchor="middle" x="4250.5" y="-147" font-family="Helvetica,sans-Serif" font-size="10.00">_tablewidgetitem.cpp</text>
</a>
</g>
</g>
<!-- Node5&#45;&gt;Node64 -->
<g id="edge60" class="edge">
<title>Node5&#45;&gt;Node64</title>
<path fill="none" stroke="midnightblue" d="M3802.4,-222.23C3888.28,-215.79 4045.4,-201.54 4177.5,-176 4185.89,-174.38 4194.72,-172.29 4203.23,-170.08"/>
<polygon fill="midnightblue" stroke="midnightblue" points="3802,-218.75 3792.29,-222.97 3802.52,-225.73 3802,-218.75"/>
</g>
<!-- Node6&#45;&gt;Node7 -->
<g id="edge6" class="edge">
<title>Node6&#45;&gt;Node7</title>
<path fill="none" stroke="midnightblue" d="M4490.16,-136.18C4483.58,-122.13 4474.69,-103.14 4469.58,-92.22"/>
<polygon fill="midnightblue" stroke="midnightblue" points="4487.04,-137.78 4494.45,-145.36 4493.38,-134.81 4487.04,-137.78"/>
</g>
<!-- Node9 -->
<g id="node9" class="node">
<title>Node9</title>
<g id="a_node9"><a xlink:href="../../dd/d66/vdxfengine_8cpp.html" target="_top" xlink:title=" ">
<polygon fill="white" stroke="black" points="4616.5,-73 4616.5,-92 4770.5,-92 4770.5,-73 4616.5,-73"/>
<text text-anchor="middle" x="4693.5" y="-80" font-family="Helvetica,sans-Serif" font-size="10.00">src/libs/vdxf/vdxfengine.cpp</text>
</a>
</g>
</g>
<!-- Node8&#45;&gt;Node9 -->
<g id="edge9" class="edge">
<title>Node8&#45;&gt;Node9</title>
<path fill="none" stroke="midnightblue" d="M4831.01,-141.55C4797.29,-127.32 4742.97,-104.38 4713.72,-92.03"/>
<polygon fill="midnightblue" stroke="midnightblue" points="4829.78,-144.83 4840.36,-145.5 4832.5,-138.38 4829.78,-144.83"/>
</g>
<!-- Node10 -->
<g id="node10" class="node">
<title>Node10</title>
<g id="a_node10"><a xlink:href="../../de/da8/vbank_8cpp.html" target="_top" xlink:title=" ">
<polygon fill="white" stroke="black" points="4788.5,-73 4788.5,-92 4932.5,-92 4932.5,-73 4788.5,-73"/>
<text text-anchor="middle" x="4860.5" y="-80" font-family="Helvetica,sans-Serif" font-size="10.00">src/libs/vlayout/vbank.cpp</text>
</a>
</g>
</g>
<!-- Node8&#45;&gt;Node10 -->
<g id="edge10" class="edge">
<title>Node8&#45;&gt;Node10</title>
<path fill="none" stroke="midnightblue" d="M4860.5,-134.94C4860.5,-121.03 4860.5,-102.82 4860.5,-92.22"/>
<polygon fill="midnightblue" stroke="midnightblue" points="4857,-135.36 4860.5,-145.36 4864,-135.36 4857,-135.36"/>
</g>
<!-- Node11 -->
<g id="node11" class="node">
<title>Node11</title>
<g id="a_node11"><a xlink:href="../../df/d5d/vcontour_8cpp.html" target="_top" xlink:title=" ">
<polygon fill="white" stroke="black" points="4950.5,-73 4950.5,-92 5106.5,-92 5106.5,-73 4950.5,-73"/>
<text text-anchor="middle" x="5028.5" y="-80" font-family="Helvetica,sans-Serif" font-size="10.00">src/libs/vlayout/vcontour.cpp</text>
</a>
</g>
</g>
<!-- Node8&#45;&gt;Node11 -->
<g id="edge11" class="edge">
<title>Node8&#45;&gt;Node11</title>
<path fill="none" stroke="midnightblue" d="M4890.16,-141.55C4924.09,-127.32 4978.73,-104.38 5008.16,-92.03"/>
<polygon fill="midnightblue" stroke="midnightblue" points="4888.63,-138.4 4880.76,-145.5 4891.34,-144.85 4888.63,-138.4"/>
</g>
<!-- Node12 -->
<g id="node12" class="node">
<title>Node12</title>
<g id="a_node12"><a xlink:href="../../d3/d39/vlayoutgenerator_8cpp.html" target="_top" xlink:title=" ">
<polygon fill="white" stroke="black" points="5125,-73 5125,-92 5322,-92 5322,-73 5125,-73"/>
<text text-anchor="middle" x="5223.5" y="-80" font-family="Helvetica,sans-Serif" font-size="10.00">src/libs/vlayout/vlayoutgenerator.cpp</text>
</a>
</g>
</g>
<!-- Node8&#45;&gt;Node12 -->
<g id="edge12" class="edge">
<title>Node8&#45;&gt;Node12</title>
<path fill="none" stroke="midnightblue" d="M4914.52,-143.51C4986.63,-129.5 5112.97,-104.97 5179.56,-92.03"/>
<polygon fill="midnightblue" stroke="midnightblue" points="4913.44,-140.15 4904.29,-145.5 4914.77,-147.03 4913.44,-140.15"/>
</g>
<!-- Node13 -->
<g id="node13" class="node">
<title>Node13</title>
<g id="a_node13"><a xlink:href="../../d1/dd1/vlayoutpaper_8cpp.html" target="_top" xlink:title=" ">
<polygon fill="white" stroke="black" points="5340.5,-6 5340.5,-25 5518.5,-25 5518.5,-6 5340.5,-6"/>
<text text-anchor="middle" x="5429.5" y="-13" font-family="Helvetica,sans-Serif" font-size="10.00">src/libs/vlayout/vlayoutpaper.cpp</text>
</a>
</g>
</g>
<!-- Node8&#45;&gt;Node13 -->
<g id="edge13" class="edge">
<title>Node8&#45;&gt;Node13</title>
<path fill="none" stroke="midnightblue" d="M4767.12,-149.98C4675.01,-142.79 4555.05,-122.77 4607.5,-67 4632.31,-40.62 5132.81,-24.36 5340.44,-18.73"/>
<polygon fill="midnightblue" stroke="midnightblue" points="4767.12,-153.49 4777.35,-150.73 4767.63,-146.5 4767.12,-153.49"/>
</g>
<!-- Node14 -->
<g id="node14" class="node">
<title>Node14</title>
<g id="a_node14"><a xlink:href="../../d2/d2d/vlayoutpaper__p_8h.html" target="_top" xlink:title=" ">
<polygon fill="white" stroke="black" points="5340,-73 5340,-92 5519,-92 5519,-73 5340,-73"/>
<text text-anchor="middle" x="5429.5" y="-80" font-family="Helvetica,sans-Serif" font-size="10.00">src/libs/vlayout/vlayoutpaper_p.h</text>
</a>
</g>
</g>
<!-- Node8&#45;&gt;Node14 -->
<g id="edge14" class="edge">
<title>Node8&#45;&gt;Node14</title>
<path fill="none" stroke="midnightblue" d="M4948.2,-144.33C5042.86,-133.72 5198.01,-115.81 5331.5,-98 5345.22,-96.17 5360.01,-94.06 5373.83,-92.02"/>
<polygon fill="midnightblue" stroke="midnightblue" points="4947.64,-140.87 4938.1,-145.46 4948.42,-147.83 4947.64,-140.87"/>
</g>
<!-- Node15 -->
<g id="node15" class="node">
<title>Node15</title>
<g id="a_node15"><a xlink:href="../../db/d5c/vposition_8h.html" target="_top" xlink:title=" ">
<polygon fill="white" stroke="red" points="5537.5,-73 5537.5,-92 5685.5,-92 5685.5,-73 5537.5,-73"/>
<text text-anchor="middle" x="5611.5" y="-80" font-family="Helvetica,sans-Serif" font-size="10.00">src/libs/vlayout/vposition.h</text>
</a>
</g>
</g>
<!-- Node8&#45;&gt;Node15 -->
<g id="edge16" class="edge">
<title>Node8&#45;&gt;Node15</title>
<path fill="none" stroke="midnightblue" d="M4953.81,-148.82C5083.19,-141.03 5324.25,-124.35 5528.5,-98 5540.98,-96.39 5554.44,-94.23 5566.81,-92.06"/>
<polygon fill="midnightblue" stroke="midnightblue" points="4953.32,-145.34 4943.54,-149.43 4953.73,-152.33 4953.32,-145.34"/>
</g>
<!-- Node17 -->
<g id="node16" class="node">
<title>Node17</title>
<g id="a_node16"><a xlink:href="../../dd/d70/vlayoutpiece_8cpp.html" target="_top" xlink:title=" ">
<polygon fill="white" stroke="black" points="4138,-73 4138,-92 4315,-92 4315,-73 4138,-73"/>
<text text-anchor="middle" x="4226.5" y="-80" font-family="Helvetica,sans-Serif" font-size="10.00">src/libs/vlayout/vlayoutpiece.cpp</text>
</a>
</g>
</g>
<!-- Node8&#45;&gt;Node17 -->
<g id="edge18" class="edge">
<title>Node8&#45;&gt;Node17</title>
<path fill="none" stroke="midnightblue" d="M4773.78,-144.36C4649.3,-130.51 4421.94,-105.23 4303.25,-92.03"/>
<polygon fill="midnightblue" stroke="midnightblue" points="4773.7,-147.87 4784.02,-145.5 4774.47,-140.91 4773.7,-147.87"/>
</g>
<!-- Node14&#45;&gt;Node13 -->
<g id="edge15" class="edge">
<title>Node14&#45;&gt;Node13</title>
<path fill="none" stroke="midnightblue" d="M5429.5,-62.54C5429.5,-50.17 5429.5,-34.62 5429.5,-25.13"/>
<polygon fill="midnightblue" stroke="midnightblue" points="5426,-62.73 5429.5,-72.73 5433,-62.73 5426,-62.73"/>
</g>
<!-- Node15&#45;&gt;Node13 -->
<g id="edge17" class="edge">
<title>Node15&#45;&gt;Node13</title>
<path fill="none" stroke="midnightblue" d="M5577.72,-69.44C5541.62,-56.54 5485.29,-36.42 5453.48,-25.06"/>
<polygon fill="midnightblue" stroke="midnightblue" points="5576.74,-72.8 5587.33,-72.87 5579.09,-66.21 5576.74,-72.8"/>
</g>
<!-- Node19&#45;&gt;Node3 -->
<g id="edge38" class="edge">
<title>Node19&#45;&gt;Node3</title>
<path fill="none" stroke="midnightblue" d="M2094.85,-151.4C1674.71,-141.22 165.98,-104.29 116.5,-98 113.49,-97.62 110.42,-97.15 107.33,-96.63"/>
<polygon fill="midnightblue" stroke="midnightblue" points="2094.79,-154.9 2104.87,-151.64 2094.96,-147.9 2094.79,-154.9"/>
</g>
<!-- Node19&#45;&gt;Node17 -->
<g id="edge31" class="edge">
<title>Node19&#45;&gt;Node17</title>
<path fill="none" stroke="midnightblue" d="M2310.38,-152.56C2661.89,-147.61 3772.15,-129.79 4129.5,-98 4145.1,-96.61 4162.02,-94.35 4177.29,-92.02"/>
<polygon fill="midnightblue" stroke="midnightblue" points="2310.15,-149.06 2300.2,-152.7 2310.25,-156.06 2310.15,-149.06"/>
</g>
<!-- Node19&#45;&gt;Node18 -->
<g id="edge32" class="edge">
<title>Node19&#45;&gt;Node18</title>
<path fill="none" stroke="midnightblue" d="M2094.7,-146.99C2024.59,-142.66 1931.16,-137.31 1848.5,-134 1170.19,-106.85 998.16,-152.52 321.5,-98 304.53,-96.63 286.12,-94.36 269.52,-92.02"/>
<polygon fill="midnightblue" stroke="midnightblue" points="2094.68,-150.49 2104.87,-147.62 2095.11,-143.51 2094.68,-150.49"/>
</g>
<!-- Node20 -->
<g id="node19" class="node">
<title>Node20</title>
<g id="a_node19"><a xlink:href="../../d4/d90/fvupdater_8cpp.html" target="_top" xlink:title=" ">
<polygon fill="white" stroke="black" points="860,-73 860,-92 1013,-92 1013,-73 860,-73"/>
<text text-anchor="middle" x="936.5" y="-80" font-family="Helvetica,sans-Serif" font-size="10.00">src/libs/fervor/fvupdater.cpp</text>
</a>
</g>
</g>
<!-- Node19&#45;&gt;Node20 -->
<g id="edge21" class="edge">
<title>Node19&#45;&gt;Node20</title>
<path fill="none" stroke="midnightblue" d="M2094.68,-147.55C2024.56,-143.44 1931.12,-138.13 1848.5,-134 1481.06,-115.62 1387.33,-137.01 1021.5,-98 1007.95,-96.56 993.3,-94.31 980.03,-92.01"/>
<polygon fill="midnightblue" stroke="midnightblue" points="2094.66,-151.05 2104.85,-148.14 2095.07,-144.06 2094.66,-151.05"/>
</g>
<!-- Node21 -->
<g id="node20" class="node">
<title>Node21</title>
<g id="a_node20"><a xlink:href="../../d9/dc8/dxiface_8cpp.html" target="_top" xlink:title=" ">
<polygon fill="white" stroke="black" points="1031,-73 1031,-92 1166,-92 1166,-73 1031,-73"/>
<text text-anchor="middle" x="1098.5" y="-80" font-family="Helvetica,sans-Serif" font-size="10.00">src/libs/vdxf/dxiface.cpp</text>
</a>
</g>
</g>
<!-- Node19&#45;&gt;Node21 -->
<g id="edge22" class="edge">
<title>Node19&#45;&gt;Node21</title>
<path fill="none" stroke="midnightblue" d="M2094.66,-147.82C2024.53,-143.82 1931.1,-138.54 1848.5,-134 1548.97,-117.54 1472.29,-134.19 1174.5,-98 1162.5,-96.54 1149.54,-94.32 1137.79,-92.04"/>
<polygon fill="midnightblue" stroke="midnightblue" points="2094.65,-151.33 2104.84,-148.4 2095.05,-144.34 2094.65,-151.33"/>
</g>
<!-- Node22 -->
<g id="node21" class="node">
<title>Node22</title>
<g id="a_node21"><a xlink:href="../../da/d75/vabstractarc__p_8h.html" target="_top" xlink:title=" ">
<polygon fill="white" stroke="red" points="1184,-67.5 1184,-97.5 1291,-97.5 1291,-67.5 1184,-67.5"/>
<text text-anchor="start" x="1192" y="-85.5" font-family="Helvetica,sans-Serif" font-size="10.00">src/libs/vgeometry</text>
<text text-anchor="middle" x="1237.5" y="-74.5" font-family="Helvetica,sans-Serif" font-size="10.00">/vabstractarc_p.h</text>
</a>
</g>
</g>
<!-- Node19&#45;&gt;Node22 -->
<g id="edge23" class="edge">
<title>Node19&#45;&gt;Node22</title>
<path fill="none" stroke="midnightblue" d="M2094.88,-147.81C1863.88,-134.46 1338.21,-103.69 1299.5,-98 1296.77,-97.6 1293.97,-97.14 1291.16,-96.63"/>
<polygon fill="midnightblue" stroke="midnightblue" points="2094.8,-151.31 2104.99,-148.39 2095.21,-144.32 2094.8,-151.31"/>
</g>
<!-- Node24 -->
<g id="node22" class="node">
<title>Node24</title>
<g id="a_node22"><a xlink:href="../../dc/da3/varc__p_8h.html" target="_top" xlink:title=" ">
<polygon fill="white" stroke="red" points="1434,-67.5 1434,-97.5 1541,-97.5 1541,-67.5 1434,-67.5"/>
<text text-anchor="start" x="1442" y="-85.5" font-family="Helvetica,sans-Serif" font-size="10.00">src/libs/vgeometry</text>
<text text-anchor="middle" x="1487.5" y="-74.5" font-family="Helvetica,sans-Serif" font-size="10.00">/varc_p.h</text>
</a>
</g>
</g>
<!-- Node19&#45;&gt;Node24 -->
<g id="edge24" class="edge">
<title>Node19&#45;&gt;Node24</title>
<path fill="none" stroke="midnightblue" d="M2094.54,-149.51C1964.58,-143.02 1740.01,-128.28 1549.5,-98 1546.77,-97.57 1543.98,-97.08 1541.17,-96.55"/>
<polygon fill="midnightblue" stroke="midnightblue" points="2094.73,-153.03 2104.89,-150.02 2095.07,-146.04 2094.73,-153.03"/>
</g>
<!-- Node26 -->
<g id="node23" class="node">
<title>Node26</title>
<g id="a_node23"><a xlink:href="../../d5/d8e/vcubicbezier__p_8h.html" target="_top" xlink:title=" ">
<polygon fill="white" stroke="red" points="1559,-67.5 1559,-97.5 1666,-97.5 1666,-67.5 1559,-67.5"/>
<text text-anchor="start" x="1567" y="-85.5" font-family="Helvetica,sans-Serif" font-size="10.00">src/libs/vgeometry</text>
<text text-anchor="middle" x="1612.5" y="-74.5" font-family="Helvetica,sans-Serif" font-size="10.00">/vcubicbezier_p.h</text>
</a>
</g>
</g>
<!-- Node19&#45;&gt;Node26 -->
<g id="edge25" class="edge">
<title>Node19&#45;&gt;Node26</title>
<path fill="none" stroke="midnightblue" d="M2094.52,-146.49C1987.43,-138.12 1818.9,-122.45 1674.5,-98 1671.78,-97.54 1668.99,-97.03 1666.19,-96.49"/>
<polygon fill="midnightblue" stroke="midnightblue" points="2094.45,-150 2104.69,-147.28 2094.99,-143.02 2094.45,-150"/>
</g>
<!-- Node28 -->
<g id="node24" class="node">
<title>Node28</title>
<g id="a_node24"><a xlink:href="../../df/dde/vellipticalarc__p_8h.html" target="_top" xlink:title=" ">
<polygon fill="white" stroke="black" points="1309,-67.5 1309,-97.5 1416,-97.5 1416,-67.5 1309,-67.5"/>
<text text-anchor="start" x="1317" y="-85.5" font-family="Helvetica,sans-Serif" font-size="10.00">src/libs/vgeometry</text>
<text text-anchor="middle" x="1362.5" y="-74.5" font-family="Helvetica,sans-Serif" font-size="10.00">/vellipticalarc_p.h</text>
</a>
</g>
</g>
<!-- Node19&#45;&gt;Node28 -->
<g id="edge26" class="edge">
<title>Node19&#45;&gt;Node28</title>
<path fill="none" stroke="midnightblue" d="M2094.54,-148.34C1912.15,-138.43 1550.56,-117.16 1424.5,-98 1421.77,-97.58 1418.98,-97.11 1416.17,-96.6"/>
<polygon fill="midnightblue" stroke="midnightblue" points="2094.51,-151.85 2104.69,-148.89 2094.89,-144.86 2094.51,-151.85"/>
</g>
<!-- Node29 -->
<g id="node25" class="node">
<title>Node29</title>
<g id="a_node25"><a xlink:href="../../d6/dfb/vellipticalarc_8cpp.html" target="_top" xlink:title=" ">
<polygon fill="white" stroke="black" points="796,-0.5 796,-30.5 903,-30.5 903,-0.5 796,-0.5"/>
<text text-anchor="start" x="804" y="-18.5" font-family="Helvetica,sans-Serif" font-size="10.00">src/libs/vgeometry</text>
<text text-anchor="middle" x="849.5" y="-7.5" font-family="Helvetica,sans-Serif" font-size="10.00">/vellipticalarc.cpp</text>
</a>
</g>
</g>
<!-- Node19&#45;&gt;Node29 -->
<g id="edge28" class="edge">
<title>Node19&#45;&gt;Node29</title>
<path fill="none" stroke="midnightblue" d="M2094.7,-147C2024.59,-142.68 1931.16,-137.33 1848.5,-134 1807.02,-132.33 383.5,-127.7 354.5,-98 344.88,-88.14 345.27,-77.22 354.5,-67 383.67,-34.71 673.59,-21.96 795.71,-18"/>
<polygon fill="midnightblue" stroke="midnightblue" points="2094.68,-150.51 2104.87,-147.63 2095.11,-143.52 2094.68,-150.51"/>
</g>
<!-- Node30 -->
<g id="node26" class="node">
<title>Node30</title>
<g id="a_node26"><a xlink:href="../../d1/d76/vspline__p_8h.html" target="_top" xlink:title=" ">
<polygon fill="white" stroke="red" points="1809,-67.5 1809,-97.5 1916,-97.5 1916,-67.5 1809,-67.5"/>
<text text-anchor="start" x="1817" y="-85.5" font-family="Helvetica,sans-Serif" font-size="10.00">src/libs/vgeometry</text>
<text text-anchor="middle" x="1862.5" y="-74.5" font-family="Helvetica,sans-Serif" font-size="10.00">/vspline_p.h</text>
</a>
</g>
</g>
<!-- Node19&#45;&gt;Node30 -->
<g id="edge29" class="edge">
<title>Node19&#45;&gt;Node30</title>
<path fill="none" stroke="midnightblue" d="M2148.25,-143.48C2092.34,-132.53 2002.7,-114.68 1925.5,-98 1922.43,-97.34 1919.27,-96.64 1916.09,-95.94"/>
<polygon fill="midnightblue" stroke="midnightblue" points="2147.8,-146.96 2158.29,-145.44 2149.14,-140.09 2147.8,-146.96"/>
</g>
<!-- Node32 -->
<g id="node27" class="node">
<title>Node32</title>
<g id="a_node27"><a xlink:href="../../d9/d15/vabstractpiece_8cpp.html" target="_top" xlink:title=" ">
<polygon fill="white" stroke="black" points="1934.5,-73 1934.5,-92 2120.5,-92 2120.5,-73 1934.5,-73"/>
<text text-anchor="middle" x="2027.5" y="-80" font-family="Helvetica,sans-Serif" font-size="10.00">src/libs/vlayout/vabstractpiece.cpp</text>
</a>
</g>
</g>
<!-- Node19&#45;&gt;Node32 -->
<g id="edge30" class="edge">
<title>Node19&#45;&gt;Node32</title>
<path fill="none" stroke="midnightblue" d="M2172.06,-141.74C2136.75,-127.51 2079.47,-104.44 2048.68,-92.03"/>
<polygon fill="midnightblue" stroke="midnightblue" points="2170.81,-145.01 2181.39,-145.5 2173.42,-138.51 2170.81,-145.01"/>
</g>
<!-- Node33 -->
<g id="node28" class="node">
<title>Node33</title>
<g id="a_node28"><a xlink:href="../../db/d65/dialogexporttocsv_8cpp.html" target="_top" xlink:title=" ">
<polygon fill="white" stroke="black" points="2139,-67.5 2139,-97.5 2266,-97.5 2266,-67.5 2139,-67.5"/>
<text text-anchor="start" x="2147" y="-85.5" font-family="Helvetica,sans-Serif" font-size="10.00">src/libs/vmisc/dialogs</text>
<text text-anchor="middle" x="2202.5" y="-74.5" font-family="Helvetica,sans-Serif" font-size="10.00">/dialogexporttocsv.cpp</text>
</a>
</g>
</g>
<!-- Node19&#45;&gt;Node33 -->
<g id="edge33" class="edge">
<title>Node19&#45;&gt;Node33</title>
<path fill="none" stroke="midnightblue" d="M2202.5,-135.24C2202.5,-123.41 2202.5,-108.38 2202.5,-97.58"/>
<polygon fill="midnightblue" stroke="midnightblue" points="2199,-135.36 2202.5,-145.36 2206,-135.36 2199,-135.36"/>
</g>
<!-- Node34 -->
<g id="node29" class="node">
<title>Node34</title>
<g id="a_node29"><a xlink:href="../../d6/d0b/def_8cpp.html" target="_top" xlink:title=" ">
<polygon fill="white" stroke="black" points="2284.5,-73 2284.5,-92 2406.5,-92 2406.5,-73 2284.5,-73"/>
<text text-anchor="middle" x="2345.5" y="-80" font-family="Helvetica,sans-Serif" font-size="10.00">src/libs/vmisc/def.cpp</text>
</a>
</g>
</g>
<!-- Node19&#45;&gt;Node34 -->
<g id="edge34" class="edge">
<title>Node19&#45;&gt;Node34</title>
<path fill="none" stroke="midnightblue" d="M2228.87,-141C2257.82,-126.73 2303.46,-104.23 2328.19,-92.03"/>
<polygon fill="midnightblue" stroke="midnightblue" points="2227.17,-137.93 2219.75,-145.5 2230.27,-144.21 2227.17,-137.93"/>
</g>
<!-- Node35 -->
<g id="node30" class="node">
<title>Node35</title>
<g id="a_node30"><a xlink:href="../../d0/df6/vabstractapplication_8cpp.html" target="_top" xlink:title=" ">
<polygon fill="white" stroke="black" points="2424.5,-73 2424.5,-92 2630.5,-92 2630.5,-73 2424.5,-73"/>
<text text-anchor="middle" x="2527.5" y="-80" font-family="Helvetica,sans-Serif" font-size="10.00">src/libs/vmisc/vabstractapplication.cpp</text>
</a>
</g>
</g>
<!-- Node19&#45;&gt;Node35 -->
<g id="edge35" class="edge">
<title>Node19&#45;&gt;Node35</title>
<path fill="none" stroke="midnightblue" d="M2251.66,-143.34C2316.35,-129.3 2428.78,-104.91 2488.16,-92.03"/>
<polygon fill="midnightblue" stroke="midnightblue" points="2250.73,-139.96 2241.7,-145.5 2252.22,-146.8 2250.73,-139.96"/>
</g>
<!-- Node36 -->
<g id="node31" class="node">
<title>Node36</title>
<g id="a_node31"><a xlink:href="../../d4/d4f/pmsystems_8cpp.html" target="_top" xlink:title=" ">
<polygon fill="white" stroke="black" points="2649,-67.5 2649,-97.5 2756,-97.5 2756,-67.5 2649,-67.5"/>
<text text-anchor="start" x="2657" y="-85.5" font-family="Helvetica,sans-Serif" font-size="10.00">src/libs/vpatterndb</text>
<text text-anchor="middle" x="2702.5" y="-74.5" font-family="Helvetica,sans-Serif" font-size="10.00">/pmsystems.cpp</text>
</a>
</g>
</g>
<!-- Node19&#45;&gt;Node36 -->
<g id="edge36" class="edge">
<title>Node19&#45;&gt;Node36</title>
<path fill="none" stroke="midnightblue" d="M2298.76,-144.43C2387.59,-134.94 2522.95,-118.83 2639.5,-98 2642.59,-97.45 2645.76,-96.84 2648.96,-96.2"/>
<polygon fill="midnightblue" stroke="midnightblue" points="2298.28,-140.96 2288.7,-145.49 2299.02,-147.92 2298.28,-140.96"/>
</g>
<!-- Node19&#45;&gt;Node37 -->
<g id="edge37" class="edge">
<title>Node19&#45;&gt;Node37</title>
<path fill="none" stroke="midnightblue" d="M2310.27,-153.17C2630.74,-150.25 3574.44,-138.37 3879.5,-98 3882.24,-97.64 3885.04,-97.21 3887.85,-96.73"/>
<polygon fill="midnightblue" stroke="midnightblue" points="2310.02,-149.67 2300.05,-153.26 2310.08,-156.67 2310.02,-149.67"/>
</g>
<!-- Node19&#45;&gt;Node38 -->
<g id="edge39" class="edge">
<title>Node19&#45;&gt;Node38</title>
<path fill="none" stroke="midnightblue" d="M2310.4,-151.9C2673.42,-144.65 3837.21,-119.94 4004.5,-98 4007.24,-97.64 4010.04,-97.21 4012.85,-96.73"/>
<polygon fill="midnightblue" stroke="midnightblue" points="2310.08,-148.4 2300.15,-152.1 2310.22,-155.4 2310.08,-148.4"/>
</g>
<!-- Node39 -->
<g id="node34" class="node">
<title>Node39</title>
<g id="a_node34"><a xlink:href="../../df/dba/vpiecenode__p_8h.html" target="_top" xlink:title=" ">
<polygon fill="white" stroke="black" points="1684,-67.5 1684,-97.5 1791,-97.5 1791,-67.5 1684,-67.5"/>
<text text-anchor="start" x="1692" y="-85.5" font-family="Helvetica,sans-Serif" font-size="10.00">src/libs/vpatterndb</text>
<text text-anchor="middle" x="1737.5" y="-74.5" font-family="Helvetica,sans-Serif" font-size="10.00">/vpiecenode_p.h</text>
</a>
</g>
</g>
<!-- Node19&#45;&gt;Node39 -->
<g id="edge40" class="edge">
<title>Node19&#45;&gt;Node39</title>
<path fill="none" stroke="midnightblue" d="M2116.02,-144.31C2034.16,-134.59 1908,-118.18 1799.5,-98 1796.78,-97.49 1794.01,-96.95 1791.2,-96.38"/>
<polygon fill="midnightblue" stroke="midnightblue" points="2115.69,-147.79 2126.03,-145.49 2116.51,-140.84 2115.69,-147.79"/>
</g>
<!-- Node41 -->
<g id="node36" class="node">
<title>Node41</title>
<g id="a_node36"><a xlink:href="../../de/d3e/vtranslatevars_8cpp.html" target="_top" xlink:title=" ">
<polygon fill="white" stroke="black" points="2774.5,-67.5 2774.5,-97.5 2884.5,-97.5 2884.5,-67.5 2774.5,-67.5"/>
<text text-anchor="start" x="2782.5" y="-85.5" font-family="Helvetica,sans-Serif" font-size="10.00">src/libs/vpatterndb</text>
<text text-anchor="middle" x="2829.5" y="-74.5" font-family="Helvetica,sans-Serif" font-size="10.00">/vtranslatevars.cpp</text>
</a>
</g>
</g>
<!-- Node19&#45;&gt;Node41 -->
<g id="edge42" class="edge">
<title>Node19&#45;&gt;Node41</title>
<path fill="none" stroke="midnightblue" d="M2310.26,-147.13C2423.76,-138.99 2607.45,-123.25 2764.5,-98 2767.7,-97.49 2770.97,-96.91 2774.27,-96.29"/>
<polygon fill="midnightblue" stroke="midnightblue" points="2309.9,-143.64 2300.17,-147.84 2310.4,-150.63 2309.9,-143.64"/>
</g>
<!-- Node42 -->
<g id="node37" class="node">
<title>Node42</title>
<g id="a_node37"><a xlink:href="../../df/d40/export__format__combobox_8cpp.html" target="_top" xlink:title=" ">
<polygon fill="white" stroke="black" points="2903,-67.5 2903,-97.5 3036,-97.5 3036,-67.5 2903,-67.5"/>
<text text-anchor="start" x="2911" y="-85.5" font-family="Helvetica,sans-Serif" font-size="10.00">src/libs/vwidgets/export</text>
<text text-anchor="middle" x="2969.5" y="-74.5" font-family="Helvetica,sans-Serif" font-size="10.00">_format_combobox.cpp</text>
</a>
</g>
</g>
<!-- Node19&#45;&gt;Node42 -->
<g id="edge43" class="edge">
<title>Node19&#45;&gt;Node42</title>
<path fill="none" stroke="midnightblue" d="M2310.15,-148.87C2446.41,-141.56 2688.13,-125.83 2893.5,-98 2896.56,-97.59 2899.69,-97.13 2902.84,-96.64"/>
<polygon fill="midnightblue" stroke="midnightblue" points="2309.93,-145.38 2300.13,-149.41 2310.3,-152.37 2309.93,-145.38"/>
</g>
<!-- Node43 -->
<g id="node38" class="node">
<title>Node43</title>
<g id="a_node38"><a xlink:href="../../d2/d28/page__format__combobox_8cpp.html" target="_top" xlink:title=" ">
<polygon fill="white" stroke="black" points="3054,-67.5 3054,-97.5 3185,-97.5 3185,-67.5 3054,-67.5"/>
<text text-anchor="start" x="3062" y="-85.5" font-family="Helvetica,sans-Serif" font-size="10.00">src/libs/vwidgets/page</text>
<text text-anchor="middle" x="3119.5" y="-74.5" font-family="Helvetica,sans-Serif" font-size="10.00">_format_combobox.cpp</text>
</a>
</g>
</g>
<!-- Node19&#45;&gt;Node43 -->
<g id="edge44" class="edge">
<title>Node19&#45;&gt;Node43</title>
<path fill="none" stroke="midnightblue" d="M2310.48,-151.12C2471.1,-145.86 2782.2,-131.94 3044.5,-98 3047.53,-97.61 3050.61,-97.17 3053.73,-96.7"/>
<polygon fill="midnightblue" stroke="midnightblue" points="2310.01,-147.63 2300.12,-151.45 2310.23,-154.63 2310.01,-147.63"/>
</g>
<!-- Node44 -->
<g id="node39" class="node">
<title>Node44</title>
<g id="a_node39"><a xlink:href="../../d7/d1b/pen__toolbar_8cpp.html" target="_top" xlink:title=" ">
<polygon fill="white" stroke="black" points="3203,-67.5 3203,-97.5 3322,-97.5 3322,-67.5 3203,-67.5"/>
<text text-anchor="start" x="3211" y="-85.5" font-family="Helvetica,sans-Serif" font-size="10.00">src/libs/vwidgets/pen</text>
<text text-anchor="middle" x="3262.5" y="-74.5" font-family="Helvetica,sans-Serif" font-size="10.00">_toolbar.cpp</text>
</a>
</g>
</g>
<!-- Node19&#45;&gt;Node44 -->
<g id="edge45" class="edge">
<title>Node19&#45;&gt;Node44</title>
<path fill="none" stroke="midnightblue" d="M2310.15,-153.22C2492.66,-150.7 2874.11,-140.34 3193.5,-98 3196.53,-97.6 3199.63,-97.14 3202.76,-96.63"/>
<polygon fill="midnightblue" stroke="midnightblue" points="2309.97,-149.72 2300.02,-153.35 2310.06,-156.72 2309.97,-149.72"/>
</g>
<!-- Node45 -->
<g id="node40" class="node">
<title>Node45</title>
<g id="a_node40"><a xlink:href="../../d3/d4f/mouse__coordinates_8cpp.html" target="_top" xlink:title=" ">
<polygon fill="white" stroke="black" points="3340.5,-67.5 3340.5,-97.5 3474.5,-97.5 3474.5,-67.5 3340.5,-67.5"/>
<text text-anchor="start" x="3348.5" y="-85.5" font-family="Helvetica,sans-Serif" font-size="10.00">src/libs/vwidgets/mouse</text>
<text text-anchor="middle" x="3407.5" y="-74.5" font-family="Helvetica,sans-Serif" font-size="10.00">_coordinates.cpp</text>
</a>
</g>
</g>
<!-- Node19&#45;&gt;Node45 -->
<g id="edge46" class="edge">
<title>Node19&#45;&gt;Node45</title>
<path fill="none" stroke="midnightblue" d="M2310.58,-153.62C2512.07,-151.82 2958.5,-142.61 3331.5,-98 3334.43,-97.65 3337.43,-97.25 3340.44,-96.82"/>
<polygon fill="midnightblue" stroke="midnightblue" points="2310.26,-150.13 2300.29,-153.71 2310.32,-157.13 2310.26,-150.13"/>
</g>
<!-- Node46 -->
<g id="node41" class="node">
<title>Node46</title>
<g id="a_node41"><a xlink:href="../../d8/d76/scene__rect_8cpp.html" target="_top" xlink:title=" ">
<polygon fill="white" stroke="black" points="3492.5,-67.5 3492.5,-97.5 3622.5,-97.5 3622.5,-67.5 3492.5,-67.5"/>
<text text-anchor="start" x="3500.5" y="-85.5" font-family="Helvetica,sans-Serif" font-size="10.00">src/libs/vwidgets/scene</text>
<text text-anchor="middle" x="3557.5" y="-74.5" font-family="Helvetica,sans-Serif" font-size="10.00">_rect.cpp</text>
</a>
</g>
</g>
<!-- Node19&#45;&gt;Node46 -->
<g id="edge47" class="edge">
<title>Node19&#45;&gt;Node46</title>
<path fill="none" stroke="midnightblue" d="M2310.42,-154.72C2531.41,-155 3051.04,-149.53 3483.5,-98 3486.36,-97.66 3489.27,-97.27 3492.21,-96.84"/>
<polygon fill="midnightblue" stroke="midnightblue" points="2310.13,-151.22 2300.13,-154.7 2310.12,-158.22 2310.13,-151.22"/>
</g>
<!-- Node47 -->
<g id="node42" class="node">
<title>Node47</title>
<g id="a_node42"><a xlink:href="../../dd/df6/vabstractmainwindow_8cpp.html" target="_top" xlink:title=" ">
<polygon fill="white" stroke="black" points="3641,-73 3641,-92 3870,-92 3870,-73 3641,-73"/>
<text text-anchor="middle" x="3755.5" y="-80" font-family="Helvetica,sans-Serif" font-size="10.00">src/libs/vwidgets/vabstractmainwindow.cpp</text>
</a>
</g>
</g>
<!-- Node19&#45;&gt;Node47 -->
<g id="edge48" class="edge">
<title>Node19&#45;&gt;Node47</title>
<path fill="none" stroke="midnightblue" d="M2310.16,-152.62C2548.56,-148.94 3138.87,-136.4 3631.5,-98 3650.84,-96.49 3671.81,-94.27 3690.91,-92.01"/>
<polygon fill="midnightblue" stroke="midnightblue" points="2310.06,-149.12 2300.11,-152.77 2310.16,-156.12 2310.06,-149.12"/>
</g>
<!-- Node48 -->
<g id="node43" class="node">
<title>Node48</title>
<g id="a_node43"><a xlink:href="../../de/d45/vcontrolpointspline_8cpp.html" target="_top" xlink:title=" ">
<polygon fill="white" stroke="black" points="364,-73 364,-92 579,-92 579,-73 364,-73"/>
<text text-anchor="middle" x="471.5" y="-80" font-family="Helvetica,sans-Serif" font-size="10.00">src/libs/vwidgets/vcontrolpointspline.cpp</text>
</a>
</g>
</g>
<!-- Node19&#45;&gt;Node48 -->
<g id="edge49" class="edge">
<title>Node19&#45;&gt;Node48</title>
<path fill="none" stroke="midnightblue" d="M2094.7,-147.13C2024.58,-142.85 1931.15,-137.51 1848.5,-134 1288.78,-110.2 1147.11,-140.5 588.5,-98 569.83,-96.58 549.55,-94.32 531.21,-92.01"/>
<polygon fill="midnightblue" stroke="midnightblue" points="2094.67,-150.63 2104.87,-147.75 2095.1,-143.65 2094.67,-150.63"/>
</g>
<!-- Node49 -->
<g id="node44" class="node">
<title>Node49</title>
<g id="a_node44"><a xlink:href="../../de/dec/vgraphicssimpletextitem_8cpp.html" target="_top" xlink:title=" ">
<polygon fill="white" stroke="black" points="597.5,-73 597.5,-92 841.5,-92 841.5,-73 597.5,-73"/>
<text text-anchor="middle" x="719.5" y="-80" font-family="Helvetica,sans-Serif" font-size="10.00">src/libs/vwidgets/vgraphicssimpletextitem.cpp</text>
</a>
</g>
</g>
<!-- Node19&#45;&gt;Node49 -->
<g id="edge50" class="edge">
<title>Node19&#45;&gt;Node49</title>
<path fill="none" stroke="midnightblue" d="M2094.69,-147.34C2024.57,-143.15 1931.14,-137.82 1848.5,-134 1405.13,-113.48 1293.16,-130.44 850.5,-98 830.08,-96.5 807.92,-94.28 787.74,-92.02"/>
<polygon fill="midnightblue" stroke="midnightblue" points="2094.67,-150.84 2104.86,-147.95 2095.09,-143.85 2094.67,-150.84"/>
</g>
<!-- Node28&#45;&gt;Node29 -->
<g id="edge27" class="edge">
<title>Node28&#45;&gt;Node29</title>
<path fill="none" stroke="midnightblue" d="M1298.72,-67C1149.72,-42.05 985.84,-27.16 903.12,-20.52"/>
<polygon fill="midnightblue" stroke="midnightblue" points="1298.52,-70.52 1308.97,-68.74 1299.69,-63.62 1298.52,-70.52"/>
</g>
<!-- Node39&#45;&gt;Node40 -->
<g id="edge41" class="edge">
<title>Node39&#45;&gt;Node40</title>
<path fill="none" stroke="midnightblue" d="M1801.39,-66.95C2054.2,-34.71 2781.6,-20.72 2985.71,-17.34"/>
<polygon fill="midnightblue" stroke="midnightblue" points="1800.61,-63.52 1791.15,-68.3 1801.52,-70.46 1800.61,-63.52"/>
</g>
</g>
</svg>
