<?xml version="1.0" encoding="UTF-8" standalone="no"?>
<!DOCTYPE svg PUBLIC "-//W3C//DTD SVG 1.1//EN"
 "http://www.w3.org/Graphics/SVG/1.1/DTD/svg11.dtd">
<!-- Generated by graphviz version 2.43.0 (0)
 -->
<!-- Title: src/app/seamly2d/core/vapplication.h Pages: 1 -->
<svg width="4020pt" height="106pt"
 viewBox="0.00 0.00 4019.50 106.00" xmlns="http://www.w3.org/2000/svg" xmlns:xlink="http://www.w3.org/1999/xlink">
<g id="graph0" class="graph" transform="scale(1 1) rotate(0) translate(4 102)">
<title>src/app/seamly2d/core/vapplication.h</title>
<polygon fill="white" stroke="transparent" points="-4,4 -4,-102 4015.5,-102 4015.5,4 -4,4"/>
<!-- Node1 -->
<g id="node1" class="node">
<title>Node1</title>
<g id="a_node1"><a xlink:title=" ">
<polygon fill="#bfbfbf" stroke="black" points="1999,-67.5 1999,-97.5 2126,-97.5 2126,-67.5 1999,-67.5"/>
<text text-anchor="start" x="2007" y="-85.5" font-family="Helvetica,sans-Serif" font-size="10.00">src/app/seamly2d/core</text>
<text text-anchor="middle" x="2062.5" y="-74.5" font-family="Helvetica,sans-Serif" font-size="10.00">/vapplication.h</text>
</a>
</g>
</g>
<!-- Node2 -->
<g id="node2" class="node">
<title>Node2</title>
<g id="a_node2"><a xlink:href="../../d3/dd8/vapplication_8cpp.html" target="_top" xlink:title=" ">
<polygon fill="white" stroke="black" points="0,-0.5 0,-30.5 127,-30.5 127,-0.5 0,-0.5"/>
<text text-anchor="start" x="8" y="-18.5" font-family="Helvetica,sans-Serif" font-size="10.00">src/app/seamly2d/core</text>
<text text-anchor="middle" x="63.5" y="-7.5" font-family="Helvetica,sans-Serif" font-size="10.00">/vapplication.cpp</text>
</a>
</g>
</g>
<!-- Node1&#45;&gt;Node2 -->
<g id="edge1" class="edge">
<title>Node1&#45;&gt;Node2</title>
<path fill="none" stroke="midnightblue" d="M1988.53,-81.24C1681.36,-79.91 505.25,-72.15 136.5,-31 133.42,-30.66 130.27,-30.25 127.1,-29.79"/>
<polygon fill="midnightblue" stroke="midnightblue" points="1988.64,-84.74 1998.66,-81.28 1988.67,-77.74 1988.64,-84.74"/>
</g>
<!-- Node3 -->
<g id="node3" class="node">
<title>Node3</title>
<g id="a_node3"><a xlink:href="../../dd/db4/abstractlayout__dialog_8cpp.html" target="_top" xlink:title=" ">
<polygon fill="white" stroke="black" points="145.5,-0.5 145.5,-30.5 291.5,-30.5 291.5,-0.5 145.5,-0.5"/>
<text text-anchor="start" x="153.5" y="-18.5" font-family="Helvetica,sans-Serif" font-size="10.00">src/app/seamly2d/dialogs</text>
<text text-anchor="middle" x="218.5" y="-7.5" font-family="Helvetica,sans-Serif" font-size="10.00">/abstractlayout_dialog.cpp</text>
</a>
</g>
</g>
<!-- Node1&#45;&gt;Node3 -->
<g id="edge2" class="edge">
<title>Node1&#45;&gt;Node3</title>
<path fill="none" stroke="midnightblue" d="M1988.25,-80.82C1697.46,-77.94 635.62,-65.25 300.5,-31 297.62,-30.71 294.7,-30.37 291.74,-30"/>
<polygon fill="midnightblue" stroke="midnightblue" points="1988.64,-84.33 1998.67,-80.92 1988.71,-77.33 1988.64,-84.33"/>
</g>
<!-- Node4 -->
<g id="node4" class="node">
<title>Node4</title>
<g id="a_node4"><a xlink:href="../../d7/dfa/calculator__dialog_8cpp.html" target="_top" xlink:title=" ">
<polygon fill="white" stroke="black" points="310,-0.5 310,-30.5 451,-30.5 451,-0.5 310,-0.5"/>
<text text-anchor="start" x="318" y="-18.5" font-family="Helvetica,sans-Serif" font-size="10.00">src/app/seamly2d/dialogs</text>
<text text-anchor="middle" x="380.5" y="-7.5" font-family="Helvetica,sans-Serif" font-size="10.00">/calculator_dialog.cpp</text>
</a>
</g>
</g>
<!-- Node1&#45;&gt;Node4 -->
<g id="edge3" class="edge">
<title>Node1&#45;&gt;Node4</title>
<path fill="none" stroke="midnightblue" d="M1988.64,-80.65C1715.37,-77.26 761.89,-63.33 459.5,-31 456.73,-30.7 453.9,-30.36 451.06,-29.99"/>
<polygon fill="midnightblue" stroke="midnightblue" points="1988.8,-84.15 1998.84,-80.77 1988.88,-77.15 1988.8,-84.15"/>
</g>
<!-- Node5 -->
<g id="node5" class="node">
<title>Node5</title>
<g id="a_node5"><a xlink:href="../../d2/d2d/preferencesconfigurationpage_8cpp.html" target="_top" xlink:title=" ">
<polygon fill="white" stroke="black" points="469,-0.5 469,-30.5 716,-30.5 716,-0.5 469,-0.5"/>
<text text-anchor="start" x="477" y="-18.5" font-family="Helvetica,sans-Serif" font-size="10.00">src/app/seamly2d/dialogs</text>
<text text-anchor="middle" x="592.5" y="-7.5" font-family="Helvetica,sans-Serif" font-size="10.00">/configpages/preferencesconfigurationpage.cpp</text>
</a>
</g>
</g>
<!-- Node1&#45;&gt;Node5 -->
<g id="edge4" class="edge">
<title>Node1&#45;&gt;Node5</title>
<path fill="none" stroke="midnightblue" d="M1988.53,-80.54C1786.12,-77.53 1206.24,-66.24 725.5,-31 722.37,-30.77 719.21,-30.53 716.01,-30.27"/>
<polygon fill="midnightblue" stroke="midnightblue" points="1988.69,-84.05 1998.74,-80.69 1988.79,-77.05 1988.69,-84.05"/>
</g>
<!-- Node6 -->
<g id="node6" class="node">
<title>Node6</title>
<g id="a_node6"><a xlink:href="../../d9/d70/preferencesgraphicsviewpage_8cpp.html" target="_top" xlink:title=" ">
<polygon fill="white" stroke="black" points="734.5,-0.5 734.5,-30.5 982.5,-30.5 982.5,-0.5 734.5,-0.5"/>
<text text-anchor="start" x="742.5" y="-18.5" font-family="Helvetica,sans-Serif" font-size="10.00">src/app/seamly2d/dialogs</text>
<text text-anchor="middle" x="858.5" y="-7.5" font-family="Helvetica,sans-Serif" font-size="10.00">/configpages/preferencesgraphicsviewpage.cpp</text>
</a>
</g>
</g>
<!-- Node1&#45;&gt;Node6 -->
<g id="edge5" class="edge">
<title>Node1&#45;&gt;Node6</title>
<path fill="none" stroke="midnightblue" d="M1988.67,-79.58C1814.73,-74.72 1365.65,-60.19 991.5,-31 988.61,-30.77 985.68,-30.54 982.72,-30.29"/>
<polygon fill="midnightblue" stroke="midnightblue" points="1988.64,-83.08 1998.74,-79.86 1988.84,-76.09 1988.64,-83.08"/>
</g>
<!-- Node7 -->
<g id="node7" class="node">
<title>Node7</title>
<g id="a_node7"><a xlink:href="../../dc/d20/preferencespathpage_8cpp.html" target="_top" xlink:title=" ">
<polygon fill="white" stroke="black" points="1001,-0.5 1001,-30.5 1206,-30.5 1206,-0.5 1001,-0.5"/>
<text text-anchor="start" x="1009" y="-18.5" font-family="Helvetica,sans-Serif" font-size="10.00">src/app/seamly2d/dialogs</text>
<text text-anchor="middle" x="1103.5" y="-7.5" font-family="Helvetica,sans-Serif" font-size="10.00">/configpages/preferencespathpage.cpp</text>
</a>
</g>
</g>
<!-- Node1&#45;&gt;Node7 -->
<g id="edge6" class="edge">
<title>Node1&#45;&gt;Node7</title>
<path fill="none" stroke="midnightblue" d="M1988.63,-78.82C1841.33,-73.09 1500.69,-57.93 1215.5,-31 1212.38,-30.71 1209.21,-30.39 1206.01,-30.06"/>
<polygon fill="midnightblue" stroke="midnightblue" points="1988.77,-82.32 1998.9,-79.21 1989.04,-75.33 1988.77,-82.32"/>
</g>
<!-- Node8 -->
<g id="node8" class="node">
<title>Node8</title>
<g id="a_node8"><a xlink:href="../../d2/d00/vtooloptionspropertybrowser_8cpp.html" target="_top" xlink:title=" ">
<polygon fill="white" stroke="black" points="1224.5,-0.5 1224.5,-30.5 1404.5,-30.5 1404.5,-0.5 1224.5,-0.5"/>
<text text-anchor="start" x="1232.5" y="-18.5" font-family="Helvetica,sans-Serif" font-size="10.00">src/app/seamly2d/core</text>
<text text-anchor="middle" x="1314.5" y="-7.5" font-family="Helvetica,sans-Serif" font-size="10.00">/vtooloptionspropertybrowser.cpp</text>
</a>
</g>
</g>
<!-- Node1&#45;&gt;Node8 -->
<g id="edge7" class="edge">
<title>Node1&#45;&gt;Node8</title>
<path fill="none" stroke="midnightblue" d="M1988.58,-77.38C1867.96,-70.3 1621.39,-54.29 1413.5,-31 1410.57,-30.67 1407.58,-30.32 1404.57,-29.96"/>
<polygon fill="midnightblue" stroke="midnightblue" points="1988.61,-80.89 1998.8,-77.98 1989.02,-73.9 1988.61,-80.89"/>
</g>
<!-- Node9 -->
<g id="node9" class="node">
<title>Node9</title>
<g id="a_node9"><a xlink:href="../../dd/dc2/decimalchart__dialog_8cpp.html" target="_top" xlink:title=" ">
<polygon fill="white" stroke="black" points="1423,-0.5 1423,-30.5 1564,-30.5 1564,-0.5 1423,-0.5"/>
<text text-anchor="start" x="1431" y="-18.5" font-family="Helvetica,sans-Serif" font-size="10.00">src/app/seamly2d/dialogs</text>
<text text-anchor="middle" x="1493.5" y="-7.5" font-family="Helvetica,sans-Serif" font-size="10.00">/decimalchart_dialog.cpp</text>
</a>
</g>
</g>
<!-- Node1&#45;&gt;Node9 -->
<g id="edge8" class="edge">
<title>Node1&#45;&gt;Node9</title>
<path fill="none" stroke="midnightblue" d="M1988.68,-75.72C1892.58,-67.77 1719.53,-52.04 1572.5,-31 1569.74,-30.61 1566.93,-30.18 1564.09,-29.74"/>
<polygon fill="midnightblue" stroke="midnightblue" points="1988.62,-79.22 1998.87,-76.55 1989.19,-72.25 1988.62,-79.22"/>
</g>
<!-- Node10 -->
<g id="node10" class="node">
<title>Node10</title>
<g id="a_node10"><a xlink:href="../../dd/d64/dialogaboutapp_8cpp.html" target="_top" xlink:title=" ">
<polygon fill="white" stroke="black" points="1582,-0.5 1582,-30.5 1723,-30.5 1723,-0.5 1582,-0.5"/>
<text text-anchor="start" x="1590" y="-18.5" font-family="Helvetica,sans-Serif" font-size="10.00">src/app/seamly2d/dialogs</text>
<text text-anchor="middle" x="1652.5" y="-7.5" font-family="Helvetica,sans-Serif" font-size="10.00">/dialogaboutapp.cpp</text>
</a>
</g>
</g>
<!-- Node1&#45;&gt;Node10 -->
<g id="edge9" class="edge">
<title>Node1&#45;&gt;Node10</title>
<path fill="none" stroke="midnightblue" d="M1988.9,-70.92C1921.75,-61.11 1819.83,-45.84 1731.5,-31 1728.75,-30.54 1725.95,-30.06 1723.12,-29.57"/>
<polygon fill="midnightblue" stroke="midnightblue" points="1988.55,-74.41 1998.95,-72.39 1989.56,-67.48 1988.55,-74.41"/>
</g>
<!-- Node11 -->
<g id="node11" class="node">
<title>Node11</title>
<g id="a_node11"><a xlink:href="../../d6/d89/dialoglayoutprogress_8cpp.html" target="_top" xlink:title=" ">
<polygon fill="white" stroke="black" points="1741,-0.5 1741,-30.5 1884,-30.5 1884,-0.5 1741,-0.5"/>
<text text-anchor="start" x="1749" y="-18.5" font-family="Helvetica,sans-Serif" font-size="10.00">src/app/seamly2d/dialogs</text>
<text text-anchor="middle" x="1812.5" y="-7.5" font-family="Helvetica,sans-Serif" font-size="10.00">/dialoglayoutprogress.cpp</text>
</a>
</g>
</g>
<!-- Node1&#45;&gt;Node11 -->
<g id="edge10" class="edge">
<title>Node1&#45;&gt;Node11</title>
<path fill="none" stroke="midnightblue" d="M1998.72,-64.92C1957.92,-54.31 1905.57,-40.7 1866.77,-30.61"/>
<polygon fill="midnightblue" stroke="midnightblue" points="1998,-68.35 2008.56,-67.48 1999.76,-61.57 1998,-68.35"/>
</g>
<!-- Node12 -->
<g id="node12" class="node">
<title>Node12</title>
<g id="a_node12"><a xlink:href="../../d5/d18/dialogpatternproperties_8cpp.html" target="_top" xlink:title=" ">
<polygon fill="white" stroke="black" points="1902,-0.5 1902,-30.5 2057,-30.5 2057,-0.5 1902,-0.5"/>
<text text-anchor="start" x="1910" y="-18.5" font-family="Helvetica,sans-Serif" font-size="10.00">src/app/seamly2d/dialogs</text>
<text text-anchor="middle" x="1979.5" y="-7.5" font-family="Helvetica,sans-Serif" font-size="10.00">/dialogpatternproperties.cpp</text>
</a>
</g>
</g>
<!-- Node1&#45;&gt;Node12 -->
<g id="edge11" class="edge">
<title>Node1&#45;&gt;Node12</title>
<path fill="none" stroke="midnightblue" d="M2036.54,-61.17C2023.85,-51.23 2008.89,-39.51 1997.47,-30.58"/>
<polygon fill="midnightblue" stroke="midnightblue" points="2034.46,-63.99 2044.49,-67.4 2038.78,-58.47 2034.46,-63.99"/>
</g>
<!-- Node13 -->
<g id="node13" class="node">
<title>Node13</title>
<g id="a_node13"><a xlink:href="../../d5/dc5/dialogpreferences_8cpp.html" target="_top" xlink:title=" ">
<polygon fill="white" stroke="black" points="2075,-0.5 2075,-30.5 2216,-30.5 2216,-0.5 2075,-0.5"/>
<text text-anchor="start" x="2083" y="-18.5" font-family="Helvetica,sans-Serif" font-size="10.00">src/app/seamly2d/dialogs</text>
<text text-anchor="middle" x="2145.5" y="-7.5" font-family="Helvetica,sans-Serif" font-size="10.00">/dialogpreferences.cpp</text>
</a>
</g>
</g>
<!-- Node1&#45;&gt;Node13 -->
<g id="edge12" class="edge">
<title>Node1&#45;&gt;Node13</title>
<path fill="none" stroke="midnightblue" d="M2088.46,-61.17C2101.15,-51.23 2116.11,-39.51 2127.53,-30.58"/>
<polygon fill="midnightblue" stroke="midnightblue" points="2086.22,-58.47 2080.51,-67.4 2090.54,-63.99 2086.22,-58.47"/>
</g>
<!-- Node14 -->
<g id="node14" class="node">
<title>Node14</title>
<g id="a_node14"><a xlink:href="../../dd/d54/export__layout__dialog_8cpp.html" target="_top" xlink:title=" ">
<polygon fill="white" stroke="black" points="2234,-0.5 2234,-30.5 2377,-30.5 2377,-0.5 2234,-0.5"/>
<text text-anchor="start" x="2242" y="-18.5" font-family="Helvetica,sans-Serif" font-size="10.00">src/app/seamly2d/dialogs</text>
<text text-anchor="middle" x="2305.5" y="-7.5" font-family="Helvetica,sans-Serif" font-size="10.00">/export_layout_dialog.cpp</text>
</a>
</g>
</g>
<!-- Node1&#45;&gt;Node14 -->
<g id="edge13" class="edge">
<title>Node1&#45;&gt;Node14</title>
<path fill="none" stroke="midnightblue" d="M2124.75,-64.85C2164.36,-54.25 2215.11,-40.68 2252.75,-30.61"/>
<polygon fill="midnightblue" stroke="midnightblue" points="2123.68,-61.51 2114.93,-67.48 2125.49,-68.27 2123.68,-61.51"/>
</g>
<!-- Node15 -->
<g id="node15" class="node">
<title>Node15</title>
<g id="a_node15"><a xlink:href="../../dc/d63/preferencespatternpage_8cpp.html" target="_top" xlink:title=" ">
<polygon fill="white" stroke="black" points="2395.5,-0.5 2395.5,-30.5 2613.5,-30.5 2613.5,-0.5 2395.5,-0.5"/>
<text text-anchor="start" x="2403.5" y="-18.5" font-family="Helvetica,sans-Serif" font-size="10.00">src/app/seamly2d/dialogs</text>
<text text-anchor="middle" x="2504.5" y="-7.5" font-family="Helvetica,sans-Serif" font-size="10.00">/configpages/preferencespatternpage.cpp</text>
</a>
</g>
</g>
<!-- Node1&#45;&gt;Node15 -->
<g id="edge14" class="edge">
<title>Node1&#45;&gt;Node15</title>
<path fill="none" stroke="midnightblue" d="M2136.57,-70.61C2211.39,-59.6 2327.26,-42.56 2408.95,-30.55"/>
<polygon fill="midnightblue" stroke="midnightblue" points="2135.68,-67.2 2126.3,-72.12 2136.7,-74.13 2135.68,-67.2"/>
</g>
<!-- Node16 -->
<g id="node16" class="node">
<title>Node16</title>
<g id="a_node16"><a xlink:href="../../d0/dfa/layoutsettings__dialog_8cpp.html" target="_top" xlink:title=" ">
<polygon fill="white" stroke="black" points="2632,-0.5 2632,-30.5 2777,-30.5 2777,-0.5 2632,-0.5"/>
<text text-anchor="start" x="2640" y="-18.5" font-family="Helvetica,sans-Serif" font-size="10.00">src/app/seamly2d/dialogs</text>
<text text-anchor="middle" x="2704.5" y="-7.5" font-family="Helvetica,sans-Serif" font-size="10.00">/layoutsettings_dialog.cpp</text>
</a>
</g>
</g>
<!-- Node1&#45;&gt;Node16 -->
<g id="edge15" class="edge">
<title>Node1&#45;&gt;Node16</title>
<path fill="none" stroke="midnightblue" d="M2136.17,-76.86C2243.46,-69.65 2448.85,-54.14 2622.5,-31 2625.51,-30.6 2628.58,-30.17 2631.67,-29.71"/>
<polygon fill="midnightblue" stroke="midnightblue" points="2135.85,-73.38 2126.1,-77.53 2136.31,-80.36 2135.85,-73.38"/>
</g>
<!-- Node17 -->
<g id="node17" class="node">
<title>Node17</title>
<g id="a_node17"><a xlink:href="../../db/d5c/groups__widget_8cpp.html" target="_top" xlink:title=" ">
<polygon fill="white" stroke="black" points="2795,-0.5 2795,-30.5 2936,-30.5 2936,-0.5 2795,-0.5"/>
<text text-anchor="start" x="2803" y="-18.5" font-family="Helvetica,sans-Serif" font-size="10.00">src/app/seamly2d/dialogs</text>
<text text-anchor="middle" x="2865.5" y="-7.5" font-family="Helvetica,sans-Serif" font-size="10.00">/groups_widget.cpp</text>
</a>
</g>
</g>
<!-- Node1&#45;&gt;Node17 -->
<g id="edge16" class="edge">
<title>Node1&#45;&gt;Node17</title>
<path fill="none" stroke="midnightblue" d="M2136.5,-79.07C2267.82,-74.16 2550.08,-60.85 2786.5,-31 2789.27,-30.65 2792.08,-30.27 2794.93,-29.86"/>
<polygon fill="midnightblue" stroke="midnightblue" points="2136.03,-75.59 2126.17,-79.45 2136.29,-82.58 2136.03,-75.59"/>
</g>
<!-- Node18 -->
<g id="node18" class="node">
<title>Node18</title>
<g id="a_node18"><a xlink:href="../../d2/df4/show__info__dialog_8cpp.html" target="_top" xlink:title=" ">
<polygon fill="white" stroke="black" points="2954,-0.5 2954,-30.5 3095,-30.5 3095,-0.5 2954,-0.5"/>
<text text-anchor="start" x="2962" y="-18.5" font-family="Helvetica,sans-Serif" font-size="10.00">src/app/seamly2d/dialogs</text>
<text text-anchor="middle" x="3024.5" y="-7.5" font-family="Helvetica,sans-Serif" font-size="10.00">/show_info_dialog.cpp</text>
</a>
</g>
</g>
<!-- Node1&#45;&gt;Node18 -->
<g id="edge17" class="edge">
<title>Node1&#45;&gt;Node18</title>
<path fill="none" stroke="midnightblue" d="M2136.33,-80.38C2288.29,-77.38 2646.88,-66.8 2945.5,-31 2948.27,-30.67 2951.09,-30.3 2953.93,-29.9"/>
<polygon fill="midnightblue" stroke="midnightblue" points="2136.11,-76.88 2126.18,-80.57 2136.25,-83.88 2136.11,-76.88"/>
</g>
<!-- Node19 -->
<g id="node19" class="node">
<title>Node19</title>
<g id="a_node19"><a xlink:href="../../dd/d84/shortcuts__dialog_8cpp.html" target="_top" xlink:title=" ">
<polygon fill="white" stroke="black" points="3113,-0.5 3113,-30.5 3254,-30.5 3254,-0.5 3113,-0.5"/>
<text text-anchor="start" x="3121" y="-18.5" font-family="Helvetica,sans-Serif" font-size="10.00">src/app/seamly2d/dialogs</text>
<text text-anchor="middle" x="3183.5" y="-7.5" font-family="Helvetica,sans-Serif" font-size="10.00">/shortcuts_dialog.cpp</text>
</a>
</g>
</g>
<!-- Node1&#45;&gt;Node19 -->
<g id="edge18" class="edge">
<title>Node1&#45;&gt;Node19</title>
<path fill="none" stroke="midnightblue" d="M2136.31,-81.29C2307.2,-80.07 2743.05,-72.74 3104.5,-31 3107.27,-30.68 3110.09,-30.32 3112.93,-29.93"/>
<polygon fill="midnightblue" stroke="midnightblue" points="2136.15,-77.79 2126.17,-81.36 2136.2,-84.79 2136.15,-77.79"/>
</g>
<!-- Node20 -->
<g id="node20" class="node">
<title>Node20</title>
<g id="a_node20"><a xlink:href="../../dc/d14/app_2seamly2d_2main_8cpp.html" target="_top" xlink:title=" ">
<polygon fill="white" stroke="black" points="3272,-6 3272,-25 3423,-25 3423,-6 3272,-6"/>
<text text-anchor="middle" x="3347.5" y="-13" font-family="Helvetica,sans-Serif" font-size="10.00">src/app/seamly2d/main.cpp</text>
</a>
</g>
</g>
<!-- Node1&#45;&gt;Node20 -->
<g id="edge19" class="edge">
<title>Node1&#45;&gt;Node20</title>
<path fill="none" stroke="midnightblue" d="M2136.25,-81.7C2324.59,-81.49 2838.41,-76.44 3263.5,-31 3276.89,-29.57 3291.38,-27.32 3304.48,-25.02"/>
<polygon fill="midnightblue" stroke="midnightblue" points="2136.19,-78.2 2126.19,-81.71 2136.19,-85.2 2136.19,-78.2"/>
</g>
<!-- Node21 -->
<g id="node21" class="node">
<title>Node21</title>
<g id="a_node21"><a xlink:href="../../d8/de8/mainwindowsnogui_8cpp.html" target="_top" xlink:title=" ">
<polygon fill="white" stroke="black" points="3441,-6 3441,-25 3662,-25 3662,-6 3441,-6"/>
<text text-anchor="middle" x="3551.5" y="-13" font-family="Helvetica,sans-Serif" font-size="10.00">src/app/seamly2d/mainwindowsnogui.cpp</text>
</a>
</g>
</g>
<!-- Node1&#45;&gt;Node21 -->
<g id="edge20" class="edge">
<title>Node1&#45;&gt;Node21</title>
<path fill="none" stroke="midnightblue" d="M2136.18,-80.97C2341.67,-79.02 2938.43,-70.14 3432.5,-31 3451.17,-29.52 3471.42,-27.29 3489.84,-25.02"/>
<polygon fill="midnightblue" stroke="midnightblue" points="2136.08,-77.47 2126.11,-81.06 2136.15,-84.47 2136.08,-77.47"/>
</g>
<!-- Node22 -->
<g id="node22" class="node">
<title>Node22</title>
<g id="a_node22"><a xlink:href="../../d3/d49/vpattern_8cpp.html" target="_top" xlink:title=" ">
<polygon fill="white" stroke="black" points="3680,-0.5 3680,-30.5 3805,-30.5 3805,-0.5 3680,-0.5"/>
<text text-anchor="start" x="3688" y="-18.5" font-family="Helvetica,sans-Serif" font-size="10.00">src/app/seamly2d/xml</text>
<text text-anchor="middle" x="3742.5" y="-7.5" font-family="Helvetica,sans-Serif" font-size="10.00">/vpattern.cpp</text>
</a>
</g>
</g>
<!-- Node1&#45;&gt;Node22 -->
<g id="edge21" class="edge">
<title>Node1&#45;&gt;Node22</title>
<path fill="none" stroke="midnightblue" d="M2136.66,-80.85C2411.03,-78.17 3368.32,-66.46 3671.5,-31 3674.25,-30.68 3677.05,-30.31 3679.87,-29.89"/>
<polygon fill="midnightblue" stroke="midnightblue" points="2136.38,-77.35 2126.42,-80.95 2136.45,-84.35 2136.38,-77.35"/>
</g>
<!-- Node23 -->
<g id="node23" class="node">
<title>Node23</title>
<g id="a_node23"><a xlink:href="../../d8/dd9/mainwindow_8cpp.html" target="_top" xlink:title=" ">
<polygon fill="white" stroke="black" points="3823.5,-6 3823.5,-25 4011.5,-25 4011.5,-6 3823.5,-6"/>
<text text-anchor="middle" x="3917.5" y="-13" font-family="Helvetica,sans-Serif" font-size="10.00">src/app/seamly2d/mainwindow.cpp</text>
</a>
</g>
</g>
<!-- Node1&#45;&gt;Node23 -->
<g id="edge22" class="edge">
<title>Node1&#45;&gt;Node23</title>
<path fill="none" stroke="midnightblue" d="M2136.79,-80.46C2426.5,-76.23 3480.92,-59.2 3814.5,-31 3831.05,-29.6 3849.01,-27.33 3865.23,-25"/>
<polygon fill="midnightblue" stroke="midnightblue" points="2136.35,-76.97 2126.4,-80.61 2136.45,-83.96 2136.35,-76.97"/>
</g>
</g>
</svg>
