<?xml version="1.0" encoding="UTF-8" standalone="no"?>
<!DOCTYPE svg PUBLIC "-//W3C//DTD SVG 1.1//EN"
 "http://www.w3.org/Graphics/SVG/1.1/DTD/svg11.dtd">
<!-- Generated by graphviz version 2.43.0 (0)
 -->
<!-- Title: src/app/seamly2d/core/vapplication.h Pages: 1 -->
<svg width="4019pt" height="106pt"
 viewBox="0.00 0.00 4019.00 106.00" xmlns="http://www.w3.org/2000/svg" xmlns:xlink="http://www.w3.org/1999/xlink">
<g id="graph0" class="graph" transform="scale(1 1) rotate(0) translate(4 102)">
<title>src/app/seamly2d/core/vapplication.h</title>
<polygon fill="white" stroke="transparent" points="-4,4 -4,-102 4015,-102 4015,4 -4,4"/>
<!-- Node1 -->
<g id="node1" class="node">
<title>Node1</title>
<g id="a_node1"><a xlink:title=" ">
<polygon fill="#bfbfbf" stroke="black" points="2046.5,-67.5 2046.5,-97.5 2173.5,-97.5 2173.5,-67.5 2046.5,-67.5"/>
<text text-anchor="start" x="2054.5" y="-85.5" font-family="Helvetica,sans-Serif" font-size="10.00">src/app/seamly2d/core</text>
<text text-anchor="middle" x="2110" y="-74.5" font-family="Helvetica,sans-Serif" font-size="10.00">/vapplication.h</text>
</a>
</g>
</g>
<!-- Node2 -->
<g id="node2" class="node">
<title>Node2</title>
<g id="a_node2"><a xlink:href="../../dd/db4/abstractlayout__dialog_8cpp.html" target="_top" xlink:title=" ">
<polygon fill="white" stroke="black" points="0,-0.5 0,-30.5 146,-30.5 146,-0.5 0,-0.5"/>
<text text-anchor="start" x="8" y="-18.5" font-family="Helvetica,sans-Serif" font-size="10.00">src/app/seamly2d/dialogs</text>
<text text-anchor="middle" x="73" y="-7.5" font-family="Helvetica,sans-Serif" font-size="10.00">/abstractlayout_dialog.cpp</text>
</a>
</g>
</g>
<!-- Node1&#45;&gt;Node2 -->
<g id="edge1" class="edge">
<title>Node1&#45;&gt;Node2</title>
<path fill="none" stroke="midnightblue" d="M2035.98,-81.07C1725.89,-79.02 530.14,-68.8 155,-31 152.12,-30.71 149.2,-30.38 146.24,-30.01"/>
<polygon fill="midnightblue" stroke="midnightblue" points="2036.18,-84.57 2046.2,-81.13 2036.22,-77.57 2036.18,-84.57"/>
</g>
<!-- Node3 -->
<g id="node3" class="node">
<title>Node3</title>
<g id="a_node3"><a xlink:href="../../d3/dd8/vapplication_8cpp.html" target="_top" xlink:title=" ">
<polygon fill="white" stroke="black" points="164.5,-0.5 164.5,-30.5 291.5,-30.5 291.5,-0.5 164.5,-0.5"/>
<text text-anchor="start" x="172.5" y="-18.5" font-family="Helvetica,sans-Serif" font-size="10.00">src/app/seamly2d/core</text>
<text text-anchor="middle" x="228" y="-7.5" font-family="Helvetica,sans-Serif" font-size="10.00">/vapplication.cpp</text>
</a>
</g>
</g>
<!-- Node1&#45;&gt;Node3 -->
<g id="edge2" class="edge">
<title>Node1&#45;&gt;Node3</title>
<path fill="none" stroke="midnightblue" d="M2036.14,-81.12C1740.87,-79.36 644.76,-70.23 300,-31 297.21,-30.68 294.37,-30.31 291.51,-29.9"/>
<polygon fill="midnightblue" stroke="midnightblue" points="2036.28,-84.62 2046.3,-81.18 2036.32,-77.62 2036.28,-84.62"/>
</g>
<!-- Node4 -->
<g id="node4" class="node">
<title>Node4</title>
<g id="a_node4"><a xlink:href="../../d7/dfa/calculator__dialog_8cpp.html" target="_top" xlink:title=" ">
<polygon fill="white" stroke="black" points="309.5,-0.5 309.5,-30.5 450.5,-30.5 450.5,-0.5 309.5,-0.5"/>
<text text-anchor="start" x="317.5" y="-18.5" font-family="Helvetica,sans-Serif" font-size="10.00">src/app/seamly2d/dialogs</text>
<text text-anchor="middle" x="380" y="-7.5" font-family="Helvetica,sans-Serif" font-size="10.00">/calculator_dialog.cpp</text>
</a>
</g>
</g>
<!-- Node1&#45;&gt;Node4 -->
<g id="edge3" class="edge">
<title>Node1&#45;&gt;Node4</title>
<path fill="none" stroke="midnightblue" d="M2035.82,-80.72C1756.92,-77.56 771.15,-64.23 459,-31 456.23,-30.7 453.4,-30.37 450.56,-30"/>
<polygon fill="midnightblue" stroke="midnightblue" points="2036.19,-84.22 2046.23,-80.84 2036.27,-77.23 2036.19,-84.22"/>
</g>
<!-- Node5 -->
<g id="node5" class="node">
<title>Node5</title>
<g id="a_node5"><a xlink:href="../../d2/d2d/preferencesconfigurationpage_8cpp.html" target="_top" xlink:title=" ">
<polygon fill="white" stroke="black" points="468.5,-0.5 468.5,-30.5 715.5,-30.5 715.5,-0.5 468.5,-0.5"/>
<text text-anchor="start" x="476.5" y="-18.5" font-family="Helvetica,sans-Serif" font-size="10.00">src/app/seamly2d/dialogs</text>
<text text-anchor="middle" x="592" y="-7.5" font-family="Helvetica,sans-Serif" font-size="10.00">/configpages/preferencesconfigurationpage.cpp</text>
</a>
</g>
</g>
<!-- Node1&#45;&gt;Node5 -->
<g id="edge4" class="edge">
<title>Node1&#45;&gt;Node5</title>
<path fill="none" stroke="midnightblue" d="M2036.27,-80.68C1829.28,-77.99 1225.31,-67.35 725,-31 721.87,-30.77 718.71,-30.53 715.51,-30.27"/>
<polygon fill="midnightblue" stroke="midnightblue" points="2036.36,-84.18 2046.41,-80.81 2036.45,-77.18 2036.36,-84.18"/>
</g>
<!-- Node6 -->
<g id="node6" class="node">
<title>Node6</title>
<g id="a_node6"><a xlink:href="../../d9/d70/preferencesgraphicsviewpage_8cpp.html" target="_top" xlink:title=" ">
<polygon fill="white" stroke="black" points="734,-0.5 734,-30.5 982,-30.5 982,-0.5 734,-0.5"/>
<text text-anchor="start" x="742" y="-18.5" font-family="Helvetica,sans-Serif" font-size="10.00">src/app/seamly2d/dialogs</text>
<text text-anchor="middle" x="858" y="-7.5" font-family="Helvetica,sans-Serif" font-size="10.00">/configpages/preferencesgraphicsviewpage.cpp</text>
</a>
</g>
</g>
<!-- Node1&#45;&gt;Node6 -->
<g id="edge5" class="edge">
<title>Node1&#45;&gt;Node6</title>
<path fill="none" stroke="midnightblue" d="M2036.09,-79.79C1856.73,-75.28 1384.24,-61.28 991,-31 988.11,-30.78 985.18,-30.54 982.22,-30.29"/>
<polygon fill="midnightblue" stroke="midnightblue" points="2036.12,-83.29 2046.2,-80.04 2036.29,-76.29 2036.12,-83.29"/>
</g>
<!-- Node7 -->
<g id="node7" class="node">
<title>Node7</title>
<g id="a_node7"><a xlink:href="../../dc/d20/preferencespathpage_8cpp.html" target="_top" xlink:title=" ">
<polygon fill="white" stroke="black" points="1000.5,-0.5 1000.5,-30.5 1205.5,-30.5 1205.5,-0.5 1000.5,-0.5"/>
<text text-anchor="start" x="1008.5" y="-18.5" font-family="Helvetica,sans-Serif" font-size="10.00">src/app/seamly2d/dialogs</text>
<text text-anchor="middle" x="1103" y="-7.5" font-family="Helvetica,sans-Serif" font-size="10.00">/configpages/preferencespathpage.cpp</text>
</a>
</g>
</g>
<!-- Node1&#45;&gt;Node7 -->
<g id="edge6" class="edge">
<title>Node1&#45;&gt;Node7</title>
<path fill="none" stroke="midnightblue" d="M2036.09,-79.18C1882.64,-73.95 1518.42,-59.42 1214,-31 1211.29,-30.75 1208.55,-30.48 1205.78,-30.2"/>
<polygon fill="midnightblue" stroke="midnightblue" points="2036.22,-82.68 2046.33,-79.52 2036.45,-75.69 2036.22,-82.68"/>
</g>
<!-- Node8 -->
<g id="node8" class="node">
<title>Node8</title>
<g id="a_node8"><a xlink:href="../../dd/dc2/decimalchart__dialog_8cpp.html" target="_top" xlink:title=" ">
<polygon fill="white" stroke="black" points="1223.5,-0.5 1223.5,-30.5 1364.5,-30.5 1364.5,-0.5 1223.5,-0.5"/>
<text text-anchor="start" x="1231.5" y="-18.5" font-family="Helvetica,sans-Serif" font-size="10.00">src/app/seamly2d/dialogs</text>
<text text-anchor="middle" x="1294" y="-7.5" font-family="Helvetica,sans-Serif" font-size="10.00">/decimalchart_dialog.cpp</text>
</a>
</g>
</g>
<!-- Node1&#45;&gt;Node8 -->
<g id="edge7" class="edge">
<title>Node1&#45;&gt;Node8</title>
<path fill="none" stroke="midnightblue" d="M2036.21,-79.14C1903.34,-74.3 1615.24,-61.04 1374,-31 1370.92,-30.62 1367.78,-30.19 1364.61,-29.74"/>
<polygon fill="midnightblue" stroke="midnightblue" points="2036.15,-82.64 2046.27,-79.5 2036.4,-75.65 2036.15,-82.64"/>
</g>
<!-- Node9 -->
<g id="node9" class="node">
<title>Node9</title>
<g id="a_node9"><a xlink:href="../../d2/d00/vtooloptionspropertybrowser_8cpp.html" target="_top" xlink:title=" ">
<polygon fill="white" stroke="black" points="1383,-0.5 1383,-30.5 1563,-30.5 1563,-0.5 1383,-0.5"/>
<text text-anchor="start" x="1391" y="-18.5" font-family="Helvetica,sans-Serif" font-size="10.00">src/app/seamly2d/core</text>
<text text-anchor="middle" x="1473" y="-7.5" font-family="Helvetica,sans-Serif" font-size="10.00">/vtooloptionspropertybrowser.cpp</text>
</a>
</g>
</g>
<!-- Node1&#45;&gt;Node9 -->
<g id="edge8" class="edge">
<title>Node1&#45;&gt;Node9</title>
<path fill="none" stroke="midnightblue" d="M2036.05,-75.78C1932.23,-67.47 1737.41,-50.86 1572,-31 1569.07,-30.65 1566.09,-30.28 1563.08,-29.9"/>
<polygon fill="midnightblue" stroke="midnightblue" points="2035.87,-79.28 2046.12,-76.58 2036.43,-72.3 2035.87,-79.28"/>
</g>
<!-- Node10 -->
<g id="node10" class="node">
<title>Node10</title>
<g id="a_node10"><a xlink:href="../../dd/d64/dialogaboutapp_8cpp.html" target="_top" xlink:title=" ">
<polygon fill="white" stroke="black" points="1581.5,-0.5 1581.5,-30.5 1722.5,-30.5 1722.5,-0.5 1581.5,-0.5"/>
<text text-anchor="start" x="1589.5" y="-18.5" font-family="Helvetica,sans-Serif" font-size="10.00">src/app/seamly2d/dialogs</text>
<text text-anchor="middle" x="1652" y="-7.5" font-family="Helvetica,sans-Serif" font-size="10.00">/dialogaboutapp.cpp</text>
</a>
</g>
</g>
<!-- Node1&#45;&gt;Node10 -->
<g id="edge9" class="edge">
<title>Node1&#45;&gt;Node10</title>
<path fill="none" stroke="midnightblue" d="M2036.48,-72.79C1960.01,-63.47 1836.88,-47.76 1731,-31 1728.25,-30.56 1725.44,-30.11 1722.61,-29.64"/>
<polygon fill="midnightblue" stroke="midnightblue" points="2036.14,-76.27 2046.49,-74 2036.99,-69.32 2036.14,-76.27"/>
</g>
<!-- Node11 -->
<g id="node11" class="node">
<title>Node11</title>
<g id="a_node11"><a xlink:href="../../d6/d89/dialoglayoutprogress_8cpp.html" target="_top" xlink:title=" ">
<polygon fill="white" stroke="black" points="1740.5,-0.5 1740.5,-30.5 1883.5,-30.5 1883.5,-0.5 1740.5,-0.5"/>
<text text-anchor="start" x="1748.5" y="-18.5" font-family="Helvetica,sans-Serif" font-size="10.00">src/app/seamly2d/dialogs</text>
<text text-anchor="middle" x="1812" y="-7.5" font-family="Helvetica,sans-Serif" font-size="10.00">/dialoglayoutprogress.cpp</text>
</a>
</g>
</g>
<!-- Node1&#45;&gt;Node11 -->
<g id="edge10" class="edge">
<title>Node1&#45;&gt;Node11</title>
<path fill="none" stroke="midnightblue" d="M2036.5,-65.47C1987.36,-54.75 1923.33,-40.78 1876.24,-30.51"/>
<polygon fill="midnightblue" stroke="midnightblue" points="2035.92,-68.92 2046.44,-67.64 2037.41,-62.08 2035.92,-68.92"/>
</g>
<!-- Node12 -->
<g id="node12" class="node">
<title>Node12</title>
<g id="a_node12"><a xlink:href="../../dc/d63/preferencespatternpage_8cpp.html" target="_top" xlink:title=" ">
<polygon fill="white" stroke="black" points="1902,-0.5 1902,-30.5 2120,-30.5 2120,-0.5 1902,-0.5"/>
<text text-anchor="start" x="1910" y="-18.5" font-family="Helvetica,sans-Serif" font-size="10.00">src/app/seamly2d/dialogs</text>
<text text-anchor="middle" x="2011" y="-7.5" font-family="Helvetica,sans-Serif" font-size="10.00">/configpages/preferencespatternpage.cpp</text>
</a>
</g>
</g>
<!-- Node1&#45;&gt;Node12 -->
<g id="edge11" class="edge">
<title>Node1&#45;&gt;Node12</title>
<path fill="none" stroke="midnightblue" d="M2079.89,-61.73C2064.58,-51.68 2046.31,-39.68 2032.44,-30.58"/>
<polygon fill="midnightblue" stroke="midnightblue" points="2078.24,-64.83 2088.52,-67.4 2082.08,-58.98 2078.24,-64.83"/>
</g>
<!-- Node13 -->
<g id="node13" class="node">
<title>Node13</title>
<g id="a_node13"><a xlink:href="../../d5/dc5/dialogpreferences_8cpp.html" target="_top" xlink:title=" ">
<polygon fill="white" stroke="black" points="2138.5,-0.5 2138.5,-30.5 2279.5,-30.5 2279.5,-0.5 2138.5,-0.5"/>
<text text-anchor="start" x="2146.5" y="-18.5" font-family="Helvetica,sans-Serif" font-size="10.00">src/app/seamly2d/dialogs</text>
<text text-anchor="middle" x="2209" y="-7.5" font-family="Helvetica,sans-Serif" font-size="10.00">/dialogpreferences.cpp</text>
</a>
</g>
</g>
<!-- Node1&#45;&gt;Node13 -->
<g id="edge12" class="edge">
<title>Node1&#45;&gt;Node13</title>
<path fill="none" stroke="midnightblue" d="M2140.11,-61.73C2155.42,-51.68 2173.69,-39.68 2187.56,-30.58"/>
<polygon fill="midnightblue" stroke="midnightblue" points="2137.92,-58.98 2131.48,-67.4 2141.76,-64.83 2137.92,-58.98"/>
</g>
<!-- Node14 -->
<g id="node14" class="node">
<title>Node14</title>
<g id="a_node14"><a xlink:href="../../d5/d18/dialogpatternproperties_8cpp.html" target="_top" xlink:title=" ">
<polygon fill="white" stroke="black" points="2297.5,-0.5 2297.5,-30.5 2452.5,-30.5 2452.5,-0.5 2297.5,-0.5"/>
<text text-anchor="start" x="2305.5" y="-18.5" font-family="Helvetica,sans-Serif" font-size="10.00">src/app/seamly2d/dialogs</text>
<text text-anchor="middle" x="2375" y="-7.5" font-family="Helvetica,sans-Serif" font-size="10.00">/dialogpatternproperties.cpp</text>
</a>
</g>
</g>
<!-- Node1&#45;&gt;Node14 -->
<g id="edge13" class="edge">
<title>Node1&#45;&gt;Node14</title>
<path fill="none" stroke="midnightblue" d="M2177.06,-65.05C2220.38,-54.43 2276.17,-40.74 2317.47,-30.61"/>
<polygon fill="midnightblue" stroke="midnightblue" points="2176.05,-61.69 2167.17,-67.48 2177.72,-68.49 2176.05,-61.69"/>
</g>
<!-- Node15 -->
<g id="node15" class="node">
<title>Node15</title>
<g id="a_node15"><a xlink:href="../../dd/d54/export__layout__dialog_8cpp.html" target="_top" xlink:title=" ">
<polygon fill="white" stroke="black" points="2470.5,-0.5 2470.5,-30.5 2613.5,-30.5 2613.5,-0.5 2470.5,-0.5"/>
<text text-anchor="start" x="2478.5" y="-18.5" font-family="Helvetica,sans-Serif" font-size="10.00">src/app/seamly2d/dialogs</text>
<text text-anchor="middle" x="2542" y="-7.5" font-family="Helvetica,sans-Serif" font-size="10.00">/export_layout_dialog.cpp</text>
</a>
</g>
</g>
<!-- Node1&#45;&gt;Node15 -->
<g id="edge14" class="edge">
<title>Node1&#45;&gt;Node15</title>
<path fill="none" stroke="midnightblue" d="M2183.92,-71.7C2255.23,-62.06 2366.16,-46.55 2462,-31 2464.79,-30.55 2467.63,-30.08 2470.49,-29.6"/>
<polygon fill="midnightblue" stroke="midnightblue" points="2183.14,-68.27 2173.7,-73.08 2184.08,-75.21 2183.14,-68.27"/>
</g>
<!-- Node16 -->
<g id="node16" class="node">
<title>Node16</title>
<g id="a_node16"><a xlink:href="../../d0/dfa/layoutsettings__dialog_8cpp.html" target="_top" xlink:title=" ">
<polygon fill="white" stroke="black" points="2631.5,-0.5 2631.5,-30.5 2776.5,-30.5 2776.5,-0.5 2631.5,-0.5"/>
<text text-anchor="start" x="2639.5" y="-18.5" font-family="Helvetica,sans-Serif" font-size="10.00">src/app/seamly2d/dialogs</text>
<text text-anchor="middle" x="2704" y="-7.5" font-family="Helvetica,sans-Serif" font-size="10.00">/layoutsettings_dialog.cpp</text>
</a>
</g>
</g>
<!-- Node1&#45;&gt;Node16 -->
<g id="edge15" class="edge">
<title>Node1&#45;&gt;Node16</title>
<path fill="none" stroke="midnightblue" d="M2183.76,-76.08C2283.61,-68.32 2467.23,-52.57 2623,-31 2625.69,-30.63 2628.42,-30.23 2631.19,-29.81"/>
<polygon fill="midnightblue" stroke="midnightblue" points="2183.47,-72.59 2173.77,-76.85 2184.01,-79.57 2183.47,-72.59"/>
</g>
<!-- Node17 -->
<g id="node17" class="node">
<title>Node17</title>
<g id="a_node17"><a xlink:href="../../d2/df4/show__info__dialog_8cpp.html" target="_top" xlink:title=" ">
<polygon fill="white" stroke="black" points="2794.5,-0.5 2794.5,-30.5 2935.5,-30.5 2935.5,-0.5 2794.5,-0.5"/>
<text text-anchor="start" x="2802.5" y="-18.5" font-family="Helvetica,sans-Serif" font-size="10.00">src/app/seamly2d/dialogs</text>
<text text-anchor="middle" x="2865" y="-7.5" font-family="Helvetica,sans-Serif" font-size="10.00">/show_info_dialog.cpp</text>
</a>
</g>
</g>
<!-- Node1&#45;&gt;Node17 -->
<g id="edge16" class="edge">
<title>Node1&#45;&gt;Node17</title>
<path fill="none" stroke="midnightblue" d="M2183.78,-78.57C2308.33,-73.06 2568.02,-59.07 2786,-31 2788.77,-30.64 2791.58,-30.25 2794.42,-29.84"/>
<polygon fill="midnightblue" stroke="midnightblue" points="2183.44,-75.09 2173.6,-79.02 2183.75,-82.08 2183.44,-75.09"/>
</g>
<!-- Node18 -->
<g id="node18" class="node">
<title>Node18</title>
<g id="a_node18"><a xlink:href="../../dc/d14/app_2seamly2d_2main_8cpp.html" target="_top" xlink:title=" ">
<polygon fill="white" stroke="black" points="2953.5,-6 2953.5,-25 3104.5,-25 3104.5,-6 2953.5,-6"/>
<text text-anchor="middle" x="3029" y="-13" font-family="Helvetica,sans-Serif" font-size="10.00">src/app/seamly2d/main.cpp</text>
</a>
</g>
</g>
<!-- Node1&#45;&gt;Node18 -->
<g id="edge17" class="edge">
<title>Node1&#45;&gt;Node18</title>
<path fill="none" stroke="midnightblue" d="M2183.75,-79.78C2329.6,-75.76 2665,-63.53 2945,-31 2958.08,-29.48 2972.22,-27.26 2985.1,-25.02"/>
<polygon fill="midnightblue" stroke="midnightblue" points="2183.49,-76.28 2173.58,-80.05 2183.67,-83.28 2183.49,-76.28"/>
</g>
<!-- Node19 -->
<g id="node19" class="node">
<title>Node19</title>
<g id="a_node19"><a xlink:href="../../db/d5c/groups__widget_8cpp.html" target="_top" xlink:title=" ">
<polygon fill="white" stroke="black" points="3122.5,-0.5 3122.5,-30.5 3263.5,-30.5 3263.5,-0.5 3122.5,-0.5"/>
<text text-anchor="start" x="3130.5" y="-18.5" font-family="Helvetica,sans-Serif" font-size="10.00">src/app/seamly2d/dialogs</text>
<text text-anchor="middle" x="3193" y="-7.5" font-family="Helvetica,sans-Serif" font-size="10.00">/groups_widget.cpp</text>
</a>
</g>
</g>
<!-- Node1&#45;&gt;Node19 -->
<g id="edge18" class="edge">
<title>Node1&#45;&gt;Node19</title>
<path fill="none" stroke="midnightblue" d="M2183.8,-81.1C2350.29,-79.47 2767.61,-71.32 3114,-31 3116.77,-30.68 3119.59,-30.32 3122.43,-29.93"/>
<polygon fill="midnightblue" stroke="midnightblue" points="2183.64,-77.6 2173.67,-81.19 2183.7,-84.6 2183.64,-77.6"/>
</g>
<!-- Node20 -->
<g id="node20" class="node">
<title>Node20</title>
<g id="a_node20"><a xlink:href="../../dd/d84/shortcuts__dialog_8cpp.html" target="_top" xlink:title=" ">
<polygon fill="white" stroke="black" points="3281.5,-0.5 3281.5,-30.5 3422.5,-30.5 3422.5,-0.5 3281.5,-0.5"/>
<text text-anchor="start" x="3289.5" y="-18.5" font-family="Helvetica,sans-Serif" font-size="10.00">src/app/seamly2d/dialogs</text>
<text text-anchor="middle" x="3352" y="-7.5" font-family="Helvetica,sans-Serif" font-size="10.00">/shortcuts_dialog.cpp</text>
</a>
</g>
</g>
<!-- Node1&#45;&gt;Node20 -->
<g id="edge19" class="edge">
<title>Node1&#45;&gt;Node20</title>
<path fill="none" stroke="midnightblue" d="M2183.7,-81.82C2367.96,-81.86 2863.28,-77.27 3273,-31 3275.77,-30.69 3278.59,-30.33 3281.44,-29.95"/>
<polygon fill="midnightblue" stroke="midnightblue" points="2183.59,-78.32 2173.59,-81.82 2183.59,-85.32 2183.59,-78.32"/>
</g>
<!-- Node21 -->
<g id="node21" class="node">
<title>Node21</title>
<g id="a_node21"><a xlink:href="../../d3/d49/vpattern_8cpp.html" target="_top" xlink:title=" ">
<polygon fill="white" stroke="black" points="3440.5,-0.5 3440.5,-30.5 3565.5,-30.5 3565.5,-0.5 3440.5,-0.5"/>
<text text-anchor="start" x="3448.5" y="-18.5" font-family="Helvetica,sans-Serif" font-size="10.00">src/app/seamly2d/xml</text>
<text text-anchor="middle" x="3503" y="-7.5" font-family="Helvetica,sans-Serif" font-size="10.00">/vpattern.cpp</text>
</a>
</g>
</g>
<!-- Node1&#45;&gt;Node21 -->
<g id="edge20" class="edge">
<title>Node1&#45;&gt;Node21</title>
<path fill="none" stroke="midnightblue" d="M2183.95,-80.27C2425.15,-75.99 3187.52,-60.43 3432,-31 3434.75,-30.67 3437.55,-30.29 3440.37,-29.87"/>
<polygon fill="midnightblue" stroke="midnightblue" points="2183.82,-76.77 2173.88,-80.44 2183.94,-83.77 2183.82,-76.77"/>
</g>
<!-- Node22 -->
<g id="node22" class="node">
<title>Node22</title>
<g id="a_node22"><a xlink:href="../../d8/de8/mainwindowsnogui_8cpp.html" target="_top" xlink:title=" ">
<polygon fill="white" stroke="black" points="3583.5,-6 3583.5,-25 3804.5,-25 3804.5,-6 3583.5,-6"/>
<text text-anchor="middle" x="3694" y="-13" font-family="Helvetica,sans-Serif" font-size="10.00">src/app/seamly2d/mainwindowsnogui.cpp</text>
</a>
</g>
</g>
<!-- Node1&#45;&gt;Node22 -->
<g id="edge21" class="edge">
<title>Node1&#45;&gt;Node22</title>
<path fill="none" stroke="midnightblue" d="M2183.87,-81.22C2398.85,-79.91 3042.66,-72.53 3575,-31 3593.78,-29.54 3614.15,-27.29 3632.65,-25.01"/>
<polygon fill="midnightblue" stroke="midnightblue" points="2183.63,-77.72 2173.65,-81.28 2183.67,-84.72 2183.63,-77.72"/>
</g>
<!-- Node23 -->
<g id="node23" class="node">
<title>Node23</title>
<g id="a_node23"><a xlink:href="../../d8/dd9/mainwindow_8cpp.html" target="_top" xlink:title=" ">
<polygon fill="white" stroke="black" points="3823,-6 3823,-25 4011,-25 4011,-6 3823,-6"/>
<text text-anchor="middle" x="3917" y="-13" font-family="Helvetica,sans-Serif" font-size="10.00">src/app/seamly2d/mainwindow.cpp</text>
</a>
</g>
</g>
<!-- Node1&#45;&gt;Node23 -->
<g id="edge22" class="edge">
<title>Node1&#45;&gt;Node23</title>
<path fill="none" stroke="midnightblue" d="M2184.16,-80.39C2468.63,-75.97 3490.29,-58.5 3814,-31 3830.46,-29.6 3848.32,-27.35 3864.46,-25.03"/>
<polygon fill="midnightblue" stroke="midnightblue" points="2183.9,-76.9 2173.95,-80.55 2184.01,-83.89 2183.9,-76.9"/>
</g>
</g>
</svg>
