<?xml version="1.0" encoding="UTF-8" standalone="no"?>
<!DOCTYPE svg PUBLIC "-//W3C//DTD SVG 1.1//EN"
 "http://www.w3.org/Graphics/SVG/1.1/DTD/svg11.dtd">
<!-- Generated by graphviz version 2.43.0 (0)
 -->
<!-- Title: src/app/seamly2d/core/vapplication.h Pages: 1 -->
<svg width="4018pt" height="106pt"
 viewBox="0.00 0.00 4017.50 106.00" xmlns="http://www.w3.org/2000/svg" xmlns:xlink="http://www.w3.org/1999/xlink">
<g id="graph0" class="graph" transform="scale(1 1) rotate(0) translate(4 102)">
<title>src/app/seamly2d/core/vapplication.h</title>
<polygon fill="white" stroke="transparent" points="-4,4 -4,-102 4013.5,-102 4013.5,4 -4,4"/>
<!-- Node1 -->
<g id="node1" class="node">
<title>Node1</title>
<g id="a_node1"><a xlink:title=" ">
<polygon fill="#bfbfbf" stroke="black" points="2066,-67.5 2066,-97.5 2193,-97.5 2193,-67.5 2066,-67.5"/>
<text text-anchor="start" x="2074" y="-85.5" font-family="Helvetica,sans-Serif" font-size="10.00">src/app/seamly2d/core</text>
<text text-anchor="middle" x="2129.5" y="-74.5" font-family="Helvetica,sans-Serif" font-size="10.00">/vapplication.h</text>
</a>
</g>
</g>
<!-- Node2 -->
<g id="node2" class="node">
<title>Node2</title>
<g id="a_node2"><a xlink:href="../../d3/dd8/vapplication_8cpp.html" target="_top" xlink:title=" ">
<polygon fill="white" stroke="black" points="0,-0.5 0,-30.5 127,-30.5 127,-0.5 0,-0.5"/>
<text text-anchor="start" x="8" y="-18.5" font-family="Helvetica,sans-Serif" font-size="10.00">src/app/seamly2d/core</text>
<text text-anchor="middle" x="63.5" y="-7.5" font-family="Helvetica,sans-Serif" font-size="10.00">/vapplication.cpp</text>
</a>
</g>
</g>
<!-- Node1&#45;&gt;Node2 -->
<g id="edge1" class="edge">
<title>Node1&#45;&gt;Node2</title>
<path fill="none" stroke="midnightblue" d="M2055.59,-81.32C1741.89,-80.28 519.15,-73.54 136.5,-31 133.42,-30.66 130.27,-30.25 127.1,-29.8"/>
<polygon fill="midnightblue" stroke="midnightblue" points="2055.92,-84.82 2065.93,-81.35 2055.94,-77.82 2055.92,-84.82"/>
</g>
<!-- Node3 -->
<g id="node3" class="node">
<title>Node3</title>
<g id="a_node3"><a xlink:href="../../dd/db4/abstractlayout__dialog_8cpp.html" target="_top" xlink:title=" ">
<polygon fill="white" stroke="black" points="145.5,-0.5 145.5,-30.5 291.5,-30.5 291.5,-0.5 145.5,-0.5"/>
<text text-anchor="start" x="153.5" y="-18.5" font-family="Helvetica,sans-Serif" font-size="10.00">src/app/seamly2d/dialogs</text>
<text text-anchor="middle" x="218.5" y="-7.5" font-family="Helvetica,sans-Serif" font-size="10.00">/abstractlayout_dialog.cpp</text>
</a>
</g>
</g>
<!-- Node1&#45;&gt;Node3 -->
<g id="edge2" class="edge">
<title>Node1&#45;&gt;Node3</title>
<path fill="none" stroke="midnightblue" d="M2055.39,-80.91C1757.86,-78.33 649.52,-66.48 300.5,-31 297.62,-30.71 294.7,-30.37 291.74,-30"/>
<polygon fill="midnightblue" stroke="midnightblue" points="2055.6,-84.41 2065.63,-81 2055.66,-77.41 2055.6,-84.41"/>
</g>
<!-- Node4 -->
<g id="node4" class="node">
<title>Node4</title>
<g id="a_node4"><a xlink:href="../../d7/dfa/calculator__dialog_8cpp.html" target="_top" xlink:title=" ">
<polygon fill="white" stroke="black" points="310,-0.5 310,-30.5 451,-30.5 451,-0.5 310,-0.5"/>
<text text-anchor="start" x="318" y="-18.5" font-family="Helvetica,sans-Serif" font-size="10.00">src/app/seamly2d/dialogs</text>
<text text-anchor="middle" x="380.5" y="-7.5" font-family="Helvetica,sans-Serif" font-size="10.00">/calculator_dialog.cpp</text>
</a>
</g>
</g>
<!-- Node1&#45;&gt;Node4 -->
<g id="edge3" class="edge">
<title>Node1&#45;&gt;Node4</title>
<path fill="none" stroke="midnightblue" d="M2055.84,-80.76C1775.59,-77.69 775.76,-64.61 459.5,-31 456.73,-30.71 453.9,-30.37 451.06,-30"/>
<polygon fill="midnightblue" stroke="midnightblue" points="2055.86,-84.26 2065.89,-80.86 2055.93,-77.26 2055.86,-84.26"/>
</g>
<!-- Node5 -->
<g id="node5" class="node">
<title>Node5</title>
<g id="a_node5"><a xlink:href="../../d2/d2d/preferencesconfigurationpage_8cpp.html" target="_top" xlink:title=" ">
<polygon fill="white" stroke="black" points="469,-0.5 469,-30.5 716,-30.5 716,-0.5 469,-0.5"/>
<text text-anchor="start" x="477" y="-18.5" font-family="Helvetica,sans-Serif" font-size="10.00">src/app/seamly2d/dialogs</text>
<text text-anchor="middle" x="592.5" y="-7.5" font-family="Helvetica,sans-Serif" font-size="10.00">/configpages/preferencesconfigurationpage.cpp</text>
</a>
</g>
</g>
<!-- Node1&#45;&gt;Node5 -->
<g id="edge4" class="edge">
<title>Node1&#45;&gt;Node5</title>
<path fill="none" stroke="midnightblue" d="M2055.44,-80.75C1846.17,-78.23 1232.62,-67.99 724.5,-31 721.74,-30.8 718.95,-30.59 716.14,-30.36"/>
<polygon fill="midnightblue" stroke="midnightblue" points="2055.65,-84.26 2065.69,-80.88 2055.74,-77.26 2055.65,-84.26"/>
</g>
<!-- Node6 -->
<g id="node6" class="node">
<title>Node6</title>
<g id="a_node6"><a xlink:href="../../dc/d20/preferencespathpage_8cpp.html" target="_top" xlink:title=" ">
<polygon fill="white" stroke="black" points="734,-0.5 734,-30.5 939,-30.5 939,-0.5 734,-0.5"/>
<text text-anchor="start" x="742" y="-18.5" font-family="Helvetica,sans-Serif" font-size="10.00">src/app/seamly2d/dialogs</text>
<text text-anchor="middle" x="836.5" y="-7.5" font-family="Helvetica,sans-Serif" font-size="10.00">/configpages/preferencespathpage.cpp</text>
</a>
</g>
</g>
<!-- Node1&#45;&gt;Node6 -->
<g id="edge5" class="edge">
<title>Node1&#45;&gt;Node6</title>
<path fill="none" stroke="midnightblue" d="M2055.73,-80.58C1869.57,-77.78 1365.74,-67.18 947.5,-31 944.79,-30.77 942.04,-30.51 939.27,-30.25"/>
<polygon fill="midnightblue" stroke="midnightblue" points="2055.9,-84.08 2065.95,-80.73 2056,-77.09 2055.9,-84.08"/>
</g>
<!-- Node7 -->
<g id="node7" class="node">
<title>Node7</title>
<g id="a_node7"><a xlink:href="../../d9/d70/preferencesgraphicsviewpage_8cpp.html" target="_top" xlink:title=" ">
<polygon fill="white" stroke="black" points="956.5,-0.5 956.5,-30.5 1204.5,-30.5 1204.5,-0.5 956.5,-0.5"/>
<text text-anchor="start" x="964.5" y="-18.5" font-family="Helvetica,sans-Serif" font-size="10.00">src/app/seamly2d/dialogs</text>
<text text-anchor="middle" x="1080.5" y="-7.5" font-family="Helvetica,sans-Serif" font-size="10.00">/configpages/preferencesgraphicsviewpage.cpp</text>
</a>
</g>
</g>
<!-- Node1&#45;&gt;Node7 -->
<g id="edge6" class="edge">
<title>Node1&#45;&gt;Node7</title>
<path fill="none" stroke="midnightblue" d="M2055.44,-78.76C1899.51,-72.7 1525.98,-56.63 1213.5,-31 1210.61,-30.76 1207.68,-30.51 1204.73,-30.26"/>
<polygon fill="midnightblue" stroke="midnightblue" points="2055.71,-82.28 2065.84,-79.16 2055.99,-75.28 2055.71,-82.28"/>
</g>
<!-- Node8 -->
<g id="node8" class="node">
<title>Node8</title>
<g id="a_node8"><a xlink:href="../../dc/d63/preferencespatternpage_8cpp.html" target="_top" xlink:title=" ">
<polygon fill="white" stroke="black" points="1222.5,-0.5 1222.5,-30.5 1440.5,-30.5 1440.5,-0.5 1222.5,-0.5"/>
<text text-anchor="start" x="1230.5" y="-18.5" font-family="Helvetica,sans-Serif" font-size="10.00">src/app/seamly2d/dialogs</text>
<text text-anchor="middle" x="1331.5" y="-7.5" font-family="Helvetica,sans-Serif" font-size="10.00">/configpages/preferencespatternpage.cpp</text>
</a>
</g>
</g>
<!-- Node1&#45;&gt;Node8 -->
<g id="edge7" class="edge">
<title>Node1&#45;&gt;Node8</title>
<path fill="none" stroke="midnightblue" d="M2055.44,-77.17C1930.4,-69.6 1669.51,-52.67 1449.5,-31 1446.62,-30.72 1443.71,-30.42 1440.77,-30.12"/>
<polygon fill="midnightblue" stroke="midnightblue" points="2055.47,-80.68 2065.66,-77.79 2055.89,-73.69 2055.47,-80.68"/>
</g>
<!-- Node9 -->
<g id="node9" class="node">
<title>Node9</title>
<g id="a_node9"><a xlink:href="../../dd/d64/dialogaboutapp_8cpp.html" target="_top" xlink:title=" ">
<polygon fill="white" stroke="black" points="1459,-0.5 1459,-30.5 1600,-30.5 1600,-0.5 1459,-0.5"/>
<text text-anchor="start" x="1467" y="-18.5" font-family="Helvetica,sans-Serif" font-size="10.00">src/app/seamly2d/dialogs</text>
<text text-anchor="middle" x="1529.5" y="-7.5" font-family="Helvetica,sans-Serif" font-size="10.00">/dialogaboutapp.cpp</text>
</a>
</g>
</g>
<!-- Node1&#45;&gt;Node9 -->
<g id="edge8" class="edge">
<title>Node1&#45;&gt;Node9</title>
<path fill="none" stroke="midnightblue" d="M2055.56,-76.25C1954.53,-68.64 1767.8,-52.99 1609.5,-31 1606.42,-30.57 1603.29,-30.11 1600.12,-29.63"/>
<polygon fill="midnightblue" stroke="midnightblue" points="2055.43,-79.75 2065.66,-77.01 2055.95,-72.77 2055.43,-79.75"/>
</g>
<!-- Node10 -->
<g id="node10" class="node">
<title>Node10</title>
<g id="a_node10"><a xlink:href="../../d2/d00/vtooloptionspropertybrowser_8cpp.html" target="_top" xlink:title=" ">
<polygon fill="white" stroke="black" points="1618.5,-0.5 1618.5,-30.5 1798.5,-30.5 1798.5,-0.5 1618.5,-0.5"/>
<text text-anchor="start" x="1626.5" y="-18.5" font-family="Helvetica,sans-Serif" font-size="10.00">src/app/seamly2d/core</text>
<text text-anchor="middle" x="1708.5" y="-7.5" font-family="Helvetica,sans-Serif" font-size="10.00">/vtooloptionspropertybrowser.cpp</text>
</a>
</g>
</g>
<!-- Node1&#45;&gt;Node10 -->
<g id="edge9" class="edge">
<title>Node1&#45;&gt;Node10</title>
<path fill="none" stroke="midnightblue" d="M2055.28,-70.04C1983.75,-59 1875.38,-42.27 1798.86,-30.45"/>
<polygon fill="midnightblue" stroke="midnightblue" points="2055.14,-73.56 2065.56,-71.63 2056.21,-66.64 2055.14,-73.56"/>
</g>
<!-- Node11 -->
<g id="node11" class="node">
<title>Node11</title>
<g id="a_node11"><a xlink:href="../../dd/dc2/decimalchart__dialog_8cpp.html" target="_top" xlink:title=" ">
<polygon fill="white" stroke="black" points="1817,-0.5 1817,-30.5 1958,-30.5 1958,-0.5 1817,-0.5"/>
<text text-anchor="start" x="1825" y="-18.5" font-family="Helvetica,sans-Serif" font-size="10.00">src/app/seamly2d/dialogs</text>
<text text-anchor="middle" x="1887.5" y="-7.5" font-family="Helvetica,sans-Serif" font-size="10.00">/decimalchart_dialog.cpp</text>
</a>
</g>
</g>
<!-- Node1&#45;&gt;Node11 -->
<g id="edge10" class="edge">
<title>Node1&#45;&gt;Node11</title>
<path fill="none" stroke="midnightblue" d="M2067.51,-64.85C2028.05,-54.25 1977.51,-40.68 1940.04,-30.61"/>
<polygon fill="midnightblue" stroke="midnightblue" points="2066.72,-68.26 2077.29,-67.48 2068.54,-61.5 2066.72,-68.26"/>
</g>
<!-- Node12 -->
<g id="node12" class="node">
<title>Node12</title>
<g id="a_node12"><a xlink:href="../../d5/dc5/dialogpreferences_8cpp.html" target="_top" xlink:title=" ">
<polygon fill="white" stroke="black" points="1976,-0.5 1976,-30.5 2117,-30.5 2117,-0.5 1976,-0.5"/>
<text text-anchor="start" x="1984" y="-18.5" font-family="Helvetica,sans-Serif" font-size="10.00">src/app/seamly2d/dialogs</text>
<text text-anchor="middle" x="2046.5" y="-7.5" font-family="Helvetica,sans-Serif" font-size="10.00">/dialogpreferences.cpp</text>
</a>
</g>
</g>
<!-- Node1&#45;&gt;Node12 -->
<g id="edge11" class="edge">
<title>Node1&#45;&gt;Node12</title>
<path fill="none" stroke="midnightblue" d="M2103.54,-61.17C2090.85,-51.23 2075.89,-39.51 2064.47,-30.58"/>
<polygon fill="midnightblue" stroke="midnightblue" points="2101.46,-63.99 2111.49,-67.4 2105.78,-58.47 2101.46,-63.99"/>
</g>
<!-- Node13 -->
<g id="node13" class="node">
<title>Node13</title>
<g id="a_node13"><a xlink:href="../../d5/d18/dialogpatternproperties_8cpp.html" target="_top" xlink:title=" ">
<polygon fill="white" stroke="black" points="2135,-0.5 2135,-30.5 2290,-30.5 2290,-0.5 2135,-0.5"/>
<text text-anchor="start" x="2143" y="-18.5" font-family="Helvetica,sans-Serif" font-size="10.00">src/app/seamly2d/dialogs</text>
<text text-anchor="middle" x="2212.5" y="-7.5" font-family="Helvetica,sans-Serif" font-size="10.00">/dialogpatternproperties.cpp</text>
</a>
</g>
</g>
<!-- Node1&#45;&gt;Node13 -->
<g id="edge12" class="edge">
<title>Node1&#45;&gt;Node13</title>
<path fill="none" stroke="midnightblue" d="M2155.46,-61.17C2168.15,-51.23 2183.11,-39.51 2194.53,-30.58"/>
<polygon fill="midnightblue" stroke="midnightblue" points="2153.22,-58.47 2147.51,-67.4 2157.54,-63.99 2153.22,-58.47"/>
</g>
<!-- Node14 -->
<g id="node14" class="node">
<title>Node14</title>
<g id="a_node14"><a xlink:href="../../d6/d89/dialoglayoutprogress_8cpp.html" target="_top" xlink:title=" ">
<polygon fill="white" stroke="black" points="2308,-0.5 2308,-30.5 2451,-30.5 2451,-0.5 2308,-0.5"/>
<text text-anchor="start" x="2316" y="-18.5" font-family="Helvetica,sans-Serif" font-size="10.00">src/app/seamly2d/dialogs</text>
<text text-anchor="middle" x="2379.5" y="-7.5" font-family="Helvetica,sans-Serif" font-size="10.00">/dialoglayoutprogress.cpp</text>
</a>
</g>
</g>
<!-- Node1&#45;&gt;Node14 -->
<g id="edge13" class="edge">
<title>Node1&#45;&gt;Node14</title>
<path fill="none" stroke="midnightblue" d="M2193.28,-64.92C2234.08,-54.31 2286.43,-40.7 2325.23,-30.61"/>
<polygon fill="midnightblue" stroke="midnightblue" points="2192.24,-61.57 2183.44,-67.48 2194,-68.35 2192.24,-61.57"/>
</g>
<!-- Node15 -->
<g id="node15" class="node">
<title>Node15</title>
<g id="a_node15"><a xlink:href="../../dd/d54/export__layout__dialog_8cpp.html" target="_top" xlink:title=" ">
<polygon fill="white" stroke="black" points="2469,-0.5 2469,-30.5 2612,-30.5 2612,-0.5 2469,-0.5"/>
<text text-anchor="start" x="2477" y="-18.5" font-family="Helvetica,sans-Serif" font-size="10.00">src/app/seamly2d/dialogs</text>
<text text-anchor="middle" x="2540.5" y="-7.5" font-family="Helvetica,sans-Serif" font-size="10.00">/export_layout_dialog.cpp</text>
</a>
</g>
</g>
<!-- Node1&#45;&gt;Node15 -->
<g id="edge14" class="edge">
<title>Node1&#45;&gt;Node15</title>
<path fill="none" stroke="midnightblue" d="M2203.1,-70.87C2270.24,-61.03 2372.15,-45.74 2460.5,-31 2463.28,-30.54 2466.12,-30.05 2468.99,-29.56"/>
<polygon fill="midnightblue" stroke="midnightblue" points="2202.43,-67.43 2193.04,-72.34 2203.44,-74.36 2202.43,-67.43"/>
</g>
<!-- Node16 -->
<g id="node16" class="node">
<title>Node16</title>
<g id="a_node16"><a xlink:href="../../d0/dfa/layoutsettings__dialog_8cpp.html" target="_top" xlink:title=" ">
<polygon fill="white" stroke="black" points="2630,-0.5 2630,-30.5 2775,-30.5 2775,-0.5 2630,-0.5"/>
<text text-anchor="start" x="2638" y="-18.5" font-family="Helvetica,sans-Serif" font-size="10.00">src/app/seamly2d/dialogs</text>
<text text-anchor="middle" x="2702.5" y="-7.5" font-family="Helvetica,sans-Serif" font-size="10.00">/layoutsettings_dialog.cpp</text>
</a>
</g>
</g>
<!-- Node1&#45;&gt;Node16 -->
<g id="edge15" class="edge">
<title>Node1&#45;&gt;Node16</title>
<path fill="none" stroke="midnightblue" d="M2203.61,-75.63C2300.08,-67.6 2473.83,-51.77 2621.5,-31 2624.19,-30.62 2626.92,-30.22 2629.68,-29.8"/>
<polygon fill="midnightblue" stroke="midnightblue" points="2203.05,-72.17 2193.37,-76.48 2203.63,-79.14 2203.05,-72.17"/>
</g>
<!-- Node17 -->
<g id="node17" class="node">
<title>Node17</title>
<g id="a_node17"><a xlink:href="../../db/d5c/groups__widget_8cpp.html" target="_top" xlink:title=" ">
<polygon fill="white" stroke="black" points="2793,-0.5 2793,-30.5 2934,-30.5 2934,-0.5 2793,-0.5"/>
<text text-anchor="start" x="2801" y="-18.5" font-family="Helvetica,sans-Serif" font-size="10.00">src/app/seamly2d/dialogs</text>
<text text-anchor="middle" x="2863.5" y="-7.5" font-family="Helvetica,sans-Serif" font-size="10.00">/groups_widget.cpp</text>
</a>
</g>
</g>
<!-- Node1&#45;&gt;Node17 -->
<g id="edge16" class="edge">
<title>Node1&#45;&gt;Node17</title>
<path fill="none" stroke="midnightblue" d="M2203.73,-78.31C2325.44,-72.51 2574.87,-58.24 2784.5,-31 2787.27,-30.64 2790.08,-30.25 2792.92,-29.83"/>
<polygon fill="midnightblue" stroke="midnightblue" points="2203.24,-74.83 2193.42,-78.79 2203.57,-81.82 2203.24,-74.83"/>
</g>
<!-- Node18 -->
<g id="node18" class="node">
<title>Node18</title>
<g id="a_node18"><a xlink:href="../../dc/d14/app_2seamly2d_2main_8cpp.html" target="_top" xlink:title=" ">
<polygon fill="white" stroke="black" points="2952,-6 2952,-25 3103,-25 3103,-6 2952,-6"/>
<text text-anchor="middle" x="3027.5" y="-13" font-family="Helvetica,sans-Serif" font-size="10.00">src/app/seamly2d/main.cpp</text>
</a>
</g>
</g>
<!-- Node1&#45;&gt;Node18 -->
<g id="edge17" class="edge">
<title>Node1&#45;&gt;Node18</title>
<path fill="none" stroke="midnightblue" d="M2203.45,-79.61C2346.69,-75.35 2671.85,-62.78 2943.5,-31 2956.58,-29.47 2970.72,-27.25 2983.6,-25.01"/>
<polygon fill="midnightblue" stroke="midnightblue" points="2202.93,-76.12 2193.04,-79.91 2203.14,-83.12 2202.93,-76.12"/>
</g>
<!-- Node19 -->
<g id="node19" class="node">
<title>Node19</title>
<g id="a_node19"><a xlink:href="../../dd/d84/shortcuts__dialog_8cpp.html" target="_top" xlink:title=" ">
<polygon fill="white" stroke="black" points="3121,-0.5 3121,-30.5 3262,-30.5 3262,-0.5 3121,-0.5"/>
<text text-anchor="start" x="3129" y="-18.5" font-family="Helvetica,sans-Serif" font-size="10.00">src/app/seamly2d/dialogs</text>
<text text-anchor="middle" x="3191.5" y="-7.5" font-family="Helvetica,sans-Serif" font-size="10.00">/shortcuts_dialog.cpp</text>
</a>
</g>
</g>
<!-- Node1&#45;&gt;Node19 -->
<g id="edge18" class="edge">
<title>Node1&#45;&gt;Node19</title>
<path fill="none" stroke="midnightblue" d="M2203.75,-80.98C2368.08,-79.11 2774.73,-70.5 3112.5,-31 3115.27,-30.68 3118.09,-30.31 3120.93,-29.92"/>
<polygon fill="midnightblue" stroke="midnightblue" points="2203.24,-77.48 2193.28,-81.09 2203.32,-84.48 2203.24,-77.48"/>
</g>
<!-- Node20 -->
<g id="node20" class="node">
<title>Node20</title>
<g id="a_node20"><a xlink:href="../../d2/df4/show__info__dialog_8cpp.html" target="_top" xlink:title=" ">
<polygon fill="white" stroke="black" points="3280,-0.5 3280,-30.5 3421,-30.5 3421,-0.5 3280,-0.5"/>
<text text-anchor="start" x="3288" y="-18.5" font-family="Helvetica,sans-Serif" font-size="10.00">src/app/seamly2d/dialogs</text>
<text text-anchor="middle" x="3350.5" y="-7.5" font-family="Helvetica,sans-Serif" font-size="10.00">/show_info_dialog.cpp</text>
</a>
</g>
</g>
<!-- Node1&#45;&gt;Node20 -->
<g id="edge19" class="edge">
<title>Node1&#45;&gt;Node20</title>
<path fill="none" stroke="midnightblue" d="M2203.46,-81.74C2385.63,-81.56 2870.35,-76.47 3271.5,-31 3274.27,-30.69 3277.09,-30.33 3279.94,-29.95"/>
<polygon fill="midnightblue" stroke="midnightblue" points="2203.19,-78.24 2193.19,-81.74 2203.19,-85.24 2203.19,-78.24"/>
</g>
<!-- Node21 -->
<g id="node21" class="node">
<title>Node21</title>
<g id="a_node21"><a xlink:href="../../d8/de8/mainwindowsnogui_8cpp.html" target="_top" xlink:title=" ">
<polygon fill="white" stroke="black" points="3439,-6 3439,-25 3660,-25 3660,-6 3439,-6"/>
<text text-anchor="middle" x="3549.5" y="-13" font-family="Helvetica,sans-Serif" font-size="10.00">src/app/seamly2d/mainwindowsnogui.cpp</text>
</a>
</g>
</g>
<!-- Node1&#45;&gt;Node21 -->
<g id="edge20" class="edge">
<title>Node1&#45;&gt;Node21</title>
<path fill="none" stroke="midnightblue" d="M2203.26,-80.77C2401.86,-78.33 2964.32,-68.39 3430.5,-31 3449.07,-29.51 3469.2,-27.29 3487.53,-25.03"/>
<polygon fill="midnightblue" stroke="midnightblue" points="2203.19,-77.27 2193.24,-80.89 2203.28,-84.27 2203.19,-77.27"/>
</g>
<!-- Node22 -->
<g id="node22" class="node">
<title>Node22</title>
<g id="a_node22"><a xlink:href="../../d3/d49/vpattern_8cpp.html" target="_top" xlink:title=" ">
<polygon fill="white" stroke="black" points="3678,-0.5 3678,-30.5 3803,-30.5 3803,-0.5 3678,-0.5"/>
<text text-anchor="start" x="3686" y="-18.5" font-family="Helvetica,sans-Serif" font-size="10.00">src/app/seamly2d/xml</text>
<text text-anchor="middle" x="3740.5" y="-7.5" font-family="Helvetica,sans-Serif" font-size="10.00">/vpattern.cpp</text>
</a>
</g>
</g>
<!-- Node1&#45;&gt;Node22 -->
<g id="edge21" class="edge">
<title>Node1&#45;&gt;Node22</title>
<path fill="none" stroke="midnightblue" d="M2203.57,-80.73C2470.19,-77.69 3380.46,-65.01 3669.5,-31 3672.25,-30.68 3675.05,-30.3 3677.87,-29.89"/>
<polygon fill="midnightblue" stroke="midnightblue" points="2203.19,-77.23 2193.23,-80.84 2203.27,-84.23 2203.19,-77.23"/>
</g>
<!-- Node23 -->
<g id="node23" class="node">
<title>Node23</title>
<g id="a_node23"><a xlink:href="../../d8/dd9/mainwindow_8cpp.html" target="_top" xlink:title=" ">
<polygon fill="white" stroke="black" points="3821.5,-6 3821.5,-25 4009.5,-25 4009.5,-6 3821.5,-6"/>
<text text-anchor="middle" x="3915.5" y="-13" font-family="Helvetica,sans-Serif" font-size="10.00">src/app/seamly2d/mainwindow.cpp</text>
</a>
</g>
</g>
<!-- Node1&#45;&gt;Node23 -->
<g id="edge22" class="edge">
<title>Node1&#45;&gt;Node23</title>
<path fill="none" stroke="midnightblue" d="M2203.22,-80.37C2484.85,-75.87 3492.96,-58.2 3812.5,-31 3828.96,-29.6 3846.82,-27.35 3862.96,-25.03"/>
<polygon fill="midnightblue" stroke="midnightblue" points="2203.06,-76.87 2193.12,-80.53 2203.17,-83.87 2203.06,-76.87"/>
</g>
</g>
</svg>
