<?xml version="1.0" encoding="UTF-8" standalone="no"?>
<!DOCTYPE svg PUBLIC "-//W3C//DTD SVG 1.1//EN"
 "http://www.w3.org/Graphics/SVG/1.1/DTD/svg11.dtd">
<!-- Generated by graphviz version 2.43.0 (0)
 -->
<!-- Title: src/app/seamly2d/options.h Pages: 1 -->
<!--zoomable 218 -->
<svg id="main" version="1.1" xmlns="http://www.w3.org/2000/svg" xmlns:xlink="http://www.w3.org/1999/xlink" xml:space="preserve" onload="init(evt)">
<style type="text/css"><![CDATA[
.edge:hover path { stroke: red; }
.edge:hover polygon { stroke: red; fill: red; }
]]></style>
<script type="text/javascript"><![CDATA[
var edges = document.getElementsByTagName('g');
if (edges && edges.length) {
  for (var i=0;i<edges.length;i++) {
    if (edges[i].id.substr(0,4)=='edge') {
      edges[i].setAttribute('class','edge');
    }
  }
}
]]></script>
        <defs>
                <circle id="rim" cx="0" cy="0" r="7"/>
                <circle id="rim2" cx="0" cy="0" r="3.5"/>
                <g id="zoomPlus">
                        <use xlink:href="#rim" fill="#404040">
                                <set attributeName="fill" to="#808080" begin="zoomplus.mouseover" end="zoomplus.mouseout"/>
                        </use>
                        <path d="M-4,0h8M0,-4v8" fill="none" stroke="white" stroke-width="1.5" pointer-events="none"/>
                </g>
                <g id="zoomMin">
                        <use xlink:href="#rim" fill="#404040">
                                <set attributeName="fill" to="#808080" begin="zoomminus.mouseover" end="zoomminus.mouseout"/>
                        </use>
                        <path d="M-4,0h8" fill="none" stroke="white" stroke-width="1.5" pointer-events="none"/>
                </g>
                <g id="dirArrow">
                        <path fill="none" stroke="white" stroke-width="1.5" d="M0,-3.0v7 M-2.5,-0.5L0,-3.0L2.5,-0.5"/>
                </g>
               <g id="resetDef">
                       <use xlink:href="#rim2" fill="#404040">
                               <set attributeName="fill" to="#808080" begin="reset.mouseover" end="reset.mouseout"/>
                       </use>
               </g>
        </defs>

<script type="text/javascript">
var viewWidth = 4033;
var viewHeight = 218;
var sectionId = 'dynsection-1';
</script>
<script xlink:href="../../svgpan.js"/>
<svg id="graph" class="graph">
<g id="viewport">
<title>src/app/seamly2d/options.h</title>
<polygon fill="white" stroke="transparent" points="-4,4 -4,-214 4028.5,-214 4028.5,4 -4,4"/>
<!-- Node1 -->
<g id="node1" class="node">
<title>Node1</title>
<g id="a_node1"><a xlink:title=" ">
<polygon fill="#bfbfbf" stroke="black" points="1353,-190.5 1353,-209.5 1504,-209.5 1504,-190.5 1353,-190.5"/>
<text text-anchor="middle" x="1428.5" y="-197.5" font-family="Helvetica,sans-Serif" font-size="10.00">src/app/seamly2d/options.h</text>
</a>
</g>
</g>
<!-- Node2 -->
<g id="node2" class="node">
<title>Node2</title>
<g id="a_node2"><a xlink:href="../../d9/d02/vapplication_8h.html" target="_top" xlink:title=" ">
<polygon fill="white" stroke="black" points="1637,-123.5 1637,-153.5 1764,-153.5 1764,-123.5 1637,-123.5"/>
<text text-anchor="start" x="1645" y="-141.5" font-family="Helvetica,sans-Serif" font-size="10.00">src/app/seamly2d/core</text>
<text text-anchor="middle" x="1700.5" y="-130.5" font-family="Helvetica,sans-Serif" font-size="10.00">/vapplication.h</text>
</a>
</g>
</g>
<!-- Node1&#45;&gt;Node2 -->
<g id="edge1" class="edge">
<title>Node1&#45;&gt;Node2</title>
<path fill="none" stroke="midnightblue" d="M1477.49,-188.28C1522.1,-178.53 1588.24,-164.06 1636.92,-153.41"/>
<polygon fill="midnightblue" stroke="midnightblue" points="1476.49,-184.92 1467.47,-190.48 1477.99,-191.76 1476.49,-184.92"/>
</g>
<!-- Node5 -->
<g id="node5" class="node">
<title>Node5</title>
<g id="a_node5"><a xlink:href="../../d7/dfa/calculator__dialog_8cpp.html" target="_top" xlink:title=" ">
<polygon fill="white" stroke="black" points="0,-56.5 0,-86.5 141,-86.5 141,-56.5 0,-56.5"/>
<text text-anchor="start" x="8" y="-74.5" font-family="Helvetica,sans-Serif" font-size="10.00">src/app/seamly2d/dialogs</text>
<text text-anchor="middle" x="70.5" y="-63.5" font-family="Helvetica,sans-Serif" font-size="10.00">/calculator_dialog.cpp</text>
</a>
</g>
</g>
<!-- Node1&#45;&gt;Node5 -->
<g id="edge24" class="edge">
<title>Node1&#45;&gt;Node5</title>
<path fill="none" stroke="midnightblue" d="M1342.45,-198.45C1180.72,-196.6 820.56,-188.56 519.5,-154 380.38,-138.03 219.33,-105.26 132.95,-86.5"/>
<polygon fill="midnightblue" stroke="midnightblue" points="1342.77,-201.95 1352.81,-198.56 1342.85,-194.95 1342.77,-201.95"/>
</g>
<!-- Node7 -->
<g id="node7" class="node">
<title>Node7</title>
<g id="a_node7"><a xlink:href="../../dc/d20/preferencespathpage_8cpp.html" target="_top" xlink:title=" ">
<polygon fill="white" stroke="black" points="159,-56.5 159,-86.5 364,-86.5 364,-56.5 159,-56.5"/>
<text text-anchor="start" x="167" y="-74.5" font-family="Helvetica,sans-Serif" font-size="10.00">src/app/seamly2d/dialogs</text>
<text text-anchor="middle" x="261.5" y="-63.5" font-family="Helvetica,sans-Serif" font-size="10.00">/configpages/preferencespathpage.cpp</text>
</a>
</g>
</g>
<!-- Node1&#45;&gt;Node7 -->
<g id="edge25" class="edge">
<title>Node1&#45;&gt;Node7</title>
<path fill="none" stroke="midnightblue" d="M1342.69,-196.46C1210.58,-191.88 949.58,-180.17 729.5,-154 585.77,-136.91 419.16,-104.95 328.59,-86.54"/>
<polygon fill="midnightblue" stroke="midnightblue" points="1342.63,-199.96 1352.75,-196.81 1342.87,-192.97 1342.63,-199.96"/>
</g>
<!-- Node12 -->
<g id="node12" class="node">
<title>Node12</title>
<g id="a_node12"><a xlink:href="../../dd/d64/dialogaboutapp_8cpp.html" target="_top" xlink:title=" ">
<polygon fill="white" stroke="black" points="382,-56.5 382,-86.5 523,-86.5 523,-56.5 382,-56.5"/>
<text text-anchor="start" x="390" y="-74.5" font-family="Helvetica,sans-Serif" font-size="10.00">src/app/seamly2d/dialogs</text>
<text text-anchor="middle" x="452.5" y="-63.5" font-family="Helvetica,sans-Serif" font-size="10.00">/dialogaboutapp.cpp</text>
</a>
</g>
</g>
<!-- Node1&#45;&gt;Node12 -->
<g id="edge26" class="edge">
<title>Node1&#45;&gt;Node12</title>
<path fill="none" stroke="midnightblue" d="M1342.52,-193.07C1243.98,-185.83 1077.73,-172.26 935.5,-154 754.97,-130.82 710.79,-118.32 531.5,-87 528.75,-86.52 525.95,-86.03 523.12,-85.52"/>
<polygon fill="midnightblue" stroke="midnightblue" points="1342.49,-196.58 1352.72,-193.82 1343,-189.6 1342.49,-196.58"/>
</g>
<!-- Node13 -->
<g id="node13" class="node">
<title>Node13</title>
<g id="a_node13"><a xlink:href="../../d6/d89/dialoglayoutprogress_8cpp.html" target="_top" xlink:title=" ">
<polygon fill="white" stroke="black" points="541,-56.5 541,-86.5 684,-86.5 684,-56.5 541,-56.5"/>
<text text-anchor="start" x="549" y="-74.5" font-family="Helvetica,sans-Serif" font-size="10.00">src/app/seamly2d/dialogs</text>
<text text-anchor="middle" x="612.5" y="-63.5" font-family="Helvetica,sans-Serif" font-size="10.00">/dialoglayoutprogress.cpp</text>
</a>
</g>
</g>
<!-- Node1&#45;&gt;Node13 -->
<g id="edge27" class="edge">
<title>Node1&#45;&gt;Node13</title>
<path fill="none" stroke="midnightblue" d="M1360.6,-188.93C1231.53,-169.7 941.92,-126.19 698.5,-87 693.87,-86.25 689.09,-85.48 684.28,-84.68"/>
<polygon fill="midnightblue" stroke="midnightblue" points="1360.32,-192.42 1370.73,-190.43 1361.35,-185.5 1360.32,-192.42"/>
</g>
<!-- Node18 -->
<g id="node18" class="node">
<title>Node18</title>
<g id="a_node18"><a xlink:href="../../dd/d54/export__layout__dialog_8cpp.html" target="_top" xlink:title=" ">
<polygon fill="white" stroke="black" points="3526,-56.5 3526,-86.5 3669,-86.5 3669,-56.5 3526,-56.5"/>
<text text-anchor="start" x="3534" y="-74.5" font-family="Helvetica,sans-Serif" font-size="10.00">src/app/seamly2d/dialogs</text>
<text text-anchor="middle" x="3597.5" y="-63.5" font-family="Helvetica,sans-Serif" font-size="10.00">/export_layout_dialog.cpp</text>
</a>
</g>
</g>
<!-- Node1&#45;&gt;Node18 -->
<g id="edge32" class="edge">
<title>Node1&#45;&gt;Node18</title>
<path fill="none" stroke="midnightblue" d="M1514.49,-198.26C1800.25,-194.97 2743.81,-177.49 3517.5,-87 3520.16,-86.69 3522.87,-86.34 3525.61,-85.97"/>
<polygon fill="midnightblue" stroke="midnightblue" points="1514.16,-194.76 1504.2,-198.37 1514.24,-201.76 1514.16,-194.76"/>
</g>
<!-- Node23 -->
<g id="node23" class="node">
<title>Node23</title>
<g id="a_node23"><a xlink:href="../../d8/dd9/mainwindow_8cpp.html" target="_top" xlink:title=" ">
<polygon fill="white" stroke="black" points="3836.5,-0.5 3836.5,-19.5 4024.5,-19.5 4024.5,-0.5 3836.5,-0.5"/>
<text text-anchor="middle" x="3930.5" y="-7.5" font-family="Helvetica,sans-Serif" font-size="10.00">src/app/seamly2d/mainwindow.cpp</text>
</a>
</g>
</g>
<!-- Node1&#45;&gt;Node23 -->
<g id="edge33" class="edge">
<title>Node1&#45;&gt;Node23</title>
<path fill="none" stroke="midnightblue" d="M1514.41,-199.26C1917.78,-200.24 3613.92,-201.47 3845.5,-154 3923.04,-138.11 3966.3,-152.66 4010.5,-87 4018.19,-75.57 4017.46,-67.89 4010.5,-56 3999.8,-37.71 3978.63,-26.27 3960.75,-19.51"/>
<polygon fill="midnightblue" stroke="midnightblue" points="1514.28,-195.76 1504.27,-199.24 1514.26,-202.76 1514.28,-195.76"/>
</g>
<!-- Node25 -->
<g id="node25" class="node">
<title>Node25</title>
<g id="a_node25"><a xlink:href="../../d5/d4e/dialogpatternproperties_8h.html" target="_top" xlink:title=" ">
<polygon fill="white" stroke="black" points="3693,-123.5 3693,-153.5 3836,-153.5 3836,-123.5 3693,-123.5"/>
<text text-anchor="start" x="3701" y="-141.5" font-family="Helvetica,sans-Serif" font-size="10.00">src/app/seamly2d/dialogs</text>
<text text-anchor="middle" x="3764.5" y="-130.5" font-family="Helvetica,sans-Serif" font-size="10.00">/dialogpatternproperties.h</text>
</a>
</g>
</g>
<!-- Node1&#45;&gt;Node25 -->
<g id="edge28" class="edge">
<title>Node1&#45;&gt;Node25</title>
<path fill="none" stroke="midnightblue" d="M1514.38,-196.81C1885.88,-187.35 3351.18,-150.03 3692.96,-141.32"/>
<polygon fill="midnightblue" stroke="midnightblue" points="1514.14,-193.32 1504.23,-197.07 1514.32,-200.32 1514.14,-193.32"/>
</g>
<!-- Node3 -->
<g id="node3" class="node">
<title>Node3</title>
<g id="a_node3"><a xlink:href="../../d3/dd8/vapplication_8cpp.html" target="_top" xlink:title=" ">
<polygon fill="white" stroke="black" points="1932,-56.5 1932,-86.5 2059,-86.5 2059,-56.5 1932,-56.5"/>
<text text-anchor="start" x="1940" y="-74.5" font-family="Helvetica,sans-Serif" font-size="10.00">src/app/seamly2d/core</text>
<text text-anchor="middle" x="1995.5" y="-63.5" font-family="Helvetica,sans-Serif" font-size="10.00">/vapplication.cpp</text>
</a>
</g>
</g>
<!-- Node2&#45;&gt;Node3 -->
<g id="edge2" class="edge">
<title>Node2&#45;&gt;Node3</title>
<path fill="none" stroke="midnightblue" d="M1773.97,-121.31C1822.54,-110.61 1885.56,-96.72 1931.97,-86.5"/>
<polygon fill="midnightblue" stroke="midnightblue" points="1773.16,-117.91 1764.15,-123.48 1774.67,-124.74 1773.16,-117.91"/>
</g>
<!-- Node4 -->
<g id="node4" class="node">
<title>Node4</title>
<g id="a_node4"><a xlink:href="../../dd/db4/abstractlayout__dialog_8cpp.html" target="_top" xlink:title=" ">
<polygon fill="white" stroke="black" points="2077.5,-56.5 2077.5,-86.5 2223.5,-86.5 2223.5,-56.5 2077.5,-56.5"/>
<text text-anchor="start" x="2085.5" y="-74.5" font-family="Helvetica,sans-Serif" font-size="10.00">src/app/seamly2d/dialogs</text>
<text text-anchor="middle" x="2150.5" y="-63.5" font-family="Helvetica,sans-Serif" font-size="10.00">/abstractlayout_dialog.cpp</text>
</a>
</g>
</g>
<!-- Node2&#45;&gt;Node4 -->
<g id="edge3" class="edge">
<title>Node2&#45;&gt;Node4</title>
<path fill="none" stroke="midnightblue" d="M1774.43,-128.13C1848.63,-118.53 1966.15,-102.82 2067.5,-87 2070.68,-86.5 2073.93,-85.99 2077.2,-85.45"/>
<polygon fill="midnightblue" stroke="midnightblue" points="1773.72,-124.69 1764.25,-129.44 1774.62,-131.63 1773.72,-124.69"/>
</g>
<!-- Node2&#45;&gt;Node5 -->
<g id="edge4" class="edge">
<title>Node2&#45;&gt;Node5</title>
<path fill="none" stroke="midnightblue" d="M1626.38,-136.55C1358.51,-132.9 441.1,-118.33 149.5,-87 146.73,-86.7 143.91,-86.36 141.06,-85.99"/>
<polygon fill="midnightblue" stroke="midnightblue" points="1626.72,-140.06 1636.76,-136.69 1626.81,-133.06 1626.72,-140.06"/>
</g>
<!-- Node6 -->
<g id="node6" class="node">
<title>Node6</title>
<g id="a_node6"><a xlink:href="../../d2/d2d/preferencesconfigurationpage_8cpp.html" target="_top" xlink:title=" ">
<polygon fill="white" stroke="black" points="2242,-56.5 2242,-86.5 2489,-86.5 2489,-56.5 2242,-56.5"/>
<text text-anchor="start" x="2250" y="-74.5" font-family="Helvetica,sans-Serif" font-size="10.00">src/app/seamly2d/dialogs</text>
<text text-anchor="middle" x="2365.5" y="-63.5" font-family="Helvetica,sans-Serif" font-size="10.00">/configpages/preferencesconfigurationpage.cpp</text>
</a>
</g>
</g>
<!-- Node2&#45;&gt;Node6 -->
<g id="edge5" class="edge">
<title>Node2&#45;&gt;Node6</title>
<path fill="none" stroke="midnightblue" d="M1774.37,-130.82C1877.13,-121.44 2069.04,-103.67 2232.5,-87 2235.62,-86.68 2238.78,-86.36 2241.97,-86.03"/>
<polygon fill="midnightblue" stroke="midnightblue" points="1774.04,-127.33 1764.4,-131.72 1774.68,-134.3 1774.04,-127.33"/>
</g>
<!-- Node2&#45;&gt;Node7 -->
<g id="edge6" class="edge">
<title>Node2&#45;&gt;Node7</title>
<path fill="none" stroke="midnightblue" d="M1626.63,-137.07C1425.15,-135.38 849.32,-127.12 372.5,-87 369.79,-86.77 367.04,-86.53 364.27,-86.26"/>
<polygon fill="midnightblue" stroke="midnightblue" points="1626.76,-140.57 1636.79,-137.15 1626.82,-133.57 1626.76,-140.57"/>
</g>
<!-- Node8 -->
<g id="node8" class="node">
<title>Node8</title>
<g id="a_node8"><a xlink:href="../../d9/d70/preferencesgraphicsviewpage_8cpp.html" target="_top" xlink:title=" ">
<polygon fill="white" stroke="black" points="2507.5,-56.5 2507.5,-86.5 2755.5,-86.5 2755.5,-56.5 2507.5,-56.5"/>
<text text-anchor="start" x="2515.5" y="-74.5" font-family="Helvetica,sans-Serif" font-size="10.00">src/app/seamly2d/dialogs</text>
<text text-anchor="middle" x="2631.5" y="-63.5" font-family="Helvetica,sans-Serif" font-size="10.00">/configpages/preferencesgraphicsviewpage.cpp</text>
</a>
</g>
</g>
<!-- Node2&#45;&gt;Node8 -->
<g id="edge7" class="edge">
<title>Node2&#45;&gt;Node8</title>
<path fill="none" stroke="midnightblue" d="M1774.35,-133.92C1915.15,-126.85 2231.67,-109.79 2497.5,-87 2500.76,-86.72 2504.07,-86.43 2507.41,-86.12"/>
<polygon fill="midnightblue" stroke="midnightblue" points="1773.92,-130.44 1764.11,-134.43 1774.27,-137.43 1773.92,-130.44"/>
</g>
<!-- Node9 -->
<g id="node9" class="node">
<title>Node9</title>
<g id="a_node9"><a xlink:href="../../d2/d00/vtooloptionspropertybrowser_8cpp.html" target="_top" xlink:title=" ">
<polygon fill="white" stroke="black" points="2773.5,-56.5 2773.5,-86.5 2953.5,-86.5 2953.5,-56.5 2773.5,-56.5"/>
<text text-anchor="start" x="2781.5" y="-74.5" font-family="Helvetica,sans-Serif" font-size="10.00">src/app/seamly2d/core</text>
<text text-anchor="middle" x="2863.5" y="-63.5" font-family="Helvetica,sans-Serif" font-size="10.00">/vtooloptionspropertybrowser.cpp</text>
</a>
</g>
</g>
<!-- Node2&#45;&gt;Node9 -->
<g id="edge8" class="edge">
<title>Node2&#45;&gt;Node9</title>
<path fill="none" stroke="midnightblue" d="M1774.24,-136.49C1947.45,-133.56 2393.62,-122.87 2764.5,-87 2767.44,-86.72 2770.42,-86.41 2773.44,-86.07"/>
<polygon fill="midnightblue" stroke="midnightblue" points="1774.16,-132.99 1764.22,-136.65 1774.27,-139.99 1774.16,-132.99"/>
</g>
<!-- Node10 -->
<g id="node10" class="node">
<title>Node10</title>
<g id="a_node10"><a xlink:href="../../dc/d63/preferencespatternpage_8cpp.html" target="_top" xlink:title=" ">
<polygon fill="white" stroke="black" points="2971.5,-56.5 2971.5,-86.5 3189.5,-86.5 3189.5,-56.5 2971.5,-56.5"/>
<text text-anchor="start" x="2979.5" y="-74.5" font-family="Helvetica,sans-Serif" font-size="10.00">src/app/seamly2d/dialogs</text>
<text text-anchor="middle" x="3080.5" y="-63.5" font-family="Helvetica,sans-Serif" font-size="10.00">/configpages/preferencespatternpage.cpp</text>
</a>
</g>
</g>
<!-- Node2&#45;&gt;Node10 -->
<g id="edge9" class="edge">
<title>Node2&#45;&gt;Node10</title>
<path fill="none" stroke="midnightblue" d="M1774.42,-136.67C1969.13,-134.01 2512.15,-123.62 2962.5,-87 2965.38,-86.77 2968.3,-86.51 2971.24,-86.25"/>
<polygon fill="midnightblue" stroke="midnightblue" points="1774.25,-133.17 1764.3,-136.8 1774.35,-140.17 1774.25,-133.17"/>
</g>
<!-- Node11 -->
<g id="node11" class="node">
<title>Node11</title>
<g id="a_node11"><a xlink:href="../../dd/dc2/decimalchart__dialog_8cpp.html" target="_top" xlink:title=" ">
<polygon fill="white" stroke="black" points="3208,-56.5 3208,-86.5 3349,-86.5 3349,-56.5 3208,-56.5"/>
<text text-anchor="start" x="3216" y="-74.5" font-family="Helvetica,sans-Serif" font-size="10.00">src/app/seamly2d/dialogs</text>
<text text-anchor="middle" x="3278.5" y="-63.5" font-family="Helvetica,sans-Serif" font-size="10.00">/decimalchart_dialog.cpp</text>
</a>
</g>
</g>
<!-- Node2&#45;&gt;Node11 -->
<g id="edge10" class="edge">
<title>Node2&#45;&gt;Node11</title>
<path fill="none" stroke="midnightblue" d="M1774.3,-136.44C2035.81,-132.44 2917.64,-117.03 3198.5,-87 3201.59,-86.67 3204.74,-86.29 3207.91,-85.87"/>
<polygon fill="midnightblue" stroke="midnightblue" points="1774.1,-132.94 1764.15,-136.59 1774.21,-139.94 1774.1,-132.94"/>
</g>
<!-- Node2&#45;&gt;Node12 -->
<g id="edge11" class="edge">
<title>Node2&#45;&gt;Node12</title>
<path fill="none" stroke="midnightblue" d="M1626.75,-137.85C1441.8,-137.95 943.58,-133.49 531.5,-87 528.73,-86.69 525.91,-86.34 523.06,-85.95"/>
<polygon fill="midnightblue" stroke="midnightblue" points="1626.91,-141.35 1636.9,-137.84 1626.9,-134.35 1626.91,-141.35"/>
</g>
<!-- Node2&#45;&gt;Node13 -->
<g id="edge12" class="edge">
<title>Node2&#45;&gt;Node13</title>
<path fill="none" stroke="midnightblue" d="M1626.89,-136.73C1460.81,-134.34 1044.48,-124.76 698.5,-87 693.83,-86.49 689.04,-85.89 684.21,-85.23"/>
<polygon fill="midnightblue" stroke="midnightblue" points="1626.94,-140.23 1636.99,-136.87 1627.04,-133.23 1626.94,-140.23"/>
</g>
<!-- Node14 -->
<g id="node14" class="node">
<title>Node14</title>
<g id="a_node14"><a xlink:href="../../d5/dc5/dialogpreferences_8cpp.html" target="_top" xlink:title=" ">
<polygon fill="white" stroke="black" points="3367,-56.5 3367,-86.5 3508,-86.5 3508,-56.5 3367,-56.5"/>
<text text-anchor="start" x="3375" y="-74.5" font-family="Helvetica,sans-Serif" font-size="10.00">src/app/seamly2d/dialogs</text>
<text text-anchor="middle" x="3437.5" y="-63.5" font-family="Helvetica,sans-Serif" font-size="10.00">/dialogpreferences.cpp</text>
</a>
</g>
</g>
<!-- Node2&#45;&gt;Node14 -->
<g id="edge13" class="edge">
<title>Node2&#45;&gt;Node14</title>
<path fill="none" stroke="midnightblue" d="M1774.1,-136.74C2052.98,-133.62 3044.69,-120.38 3358.5,-87 3361.27,-86.7 3364.1,-86.37 3366.94,-86"/>
<polygon fill="midnightblue" stroke="midnightblue" points="1774.05,-133.24 1764.09,-136.85 1774.13,-140.24 1774.05,-133.24"/>
</g>
<!-- Node15 -->
<g id="node15" class="node">
<title>Node15</title>
<g id="a_node15"><a xlink:href="../../d5/d18/dialogpatternproperties_8cpp.html" target="_top" xlink:title=" ">
<polygon fill="white" stroke="black" points="3687,-56.5 3687,-86.5 3842,-86.5 3842,-56.5 3687,-56.5"/>
<text text-anchor="start" x="3695" y="-74.5" font-family="Helvetica,sans-Serif" font-size="10.00">src/app/seamly2d/dialogs</text>
<text text-anchor="middle" x="3764.5" y="-63.5" font-family="Helvetica,sans-Serif" font-size="10.00">/dialogpatternproperties.cpp</text>
</a>
</g>
</g>
<!-- Node2&#45;&gt;Node15 -->
<g id="edge14" class="edge">
<title>Node2&#45;&gt;Node15</title>
<path fill="none" stroke="midnightblue" d="M1774.34,-137.01C2086.39,-134.75 3298.37,-123.71 3678.5,-87 3681.21,-86.74 3683.97,-86.44 3686.75,-86.12"/>
<polygon fill="midnightblue" stroke="midnightblue" points="1774.03,-133.52 1764.06,-137.09 1774.08,-140.52 1774.03,-133.52"/>
</g>
<!-- Node16 -->
<g id="node16" class="node">
<title>Node16</title>
<g id="a_node16"><a xlink:href="../../db/d5c/groups__widget_8cpp.html" target="_top" xlink:title=" ">
<polygon fill="white" stroke="black" points="741,-56.5 741,-86.5 882,-86.5 882,-56.5 741,-56.5"/>
<text text-anchor="start" x="749" y="-74.5" font-family="Helvetica,sans-Serif" font-size="10.00">src/app/seamly2d/dialogs</text>
<text text-anchor="middle" x="811.5" y="-63.5" font-family="Helvetica,sans-Serif" font-size="10.00">/groups_widget.cpp</text>
</a>
</g>
</g>
<!-- Node2&#45;&gt;Node16 -->
<g id="edge15" class="edge">
<title>Node2&#45;&gt;Node16</title>
<path fill="none" stroke="midnightblue" d="M1626.62,-135.84C1483.88,-131.98 1160.48,-120.07 890.5,-87 887.73,-86.66 884.91,-86.29 882.07,-85.88"/>
<polygon fill="midnightblue" stroke="midnightblue" points="1626.9,-139.35 1636.99,-136.11 1627.09,-132.35 1626.9,-139.35"/>
</g>
<!-- Node17 -->
<g id="node17" class="node">
<title>Node17</title>
<g id="a_node17"><a xlink:href="../../d0/dfa/layoutsettings__dialog_8cpp.html" target="_top" xlink:title=" ">
<polygon fill="white" stroke="black" points="900,-56.5 900,-86.5 1045,-86.5 1045,-56.5 900,-56.5"/>
<text text-anchor="start" x="908" y="-74.5" font-family="Helvetica,sans-Serif" font-size="10.00">src/app/seamly2d/dialogs</text>
<text text-anchor="middle" x="972.5" y="-63.5" font-family="Helvetica,sans-Serif" font-size="10.00">/layoutsettings_dialog.cpp</text>
</a>
</g>
</g>
<!-- Node2&#45;&gt;Node17 -->
<g id="edge16" class="edge">
<title>Node2&#45;&gt;Node17</title>
<path fill="none" stroke="midnightblue" d="M1626.72,-134.13C1506.34,-128.09 1260.36,-113.52 1053.5,-87 1050.81,-86.65 1048.07,-86.28 1045.31,-85.88"/>
<polygon fill="midnightblue" stroke="midnightblue" points="1626.76,-137.63 1636.92,-134.63 1627.1,-130.64 1626.76,-137.63"/>
</g>
<!-- Node2&#45;&gt;Node18 -->
<g id="edge17" class="edge">
<title>Node2&#45;&gt;Node18</title>
<path fill="none" stroke="midnightblue" d="M1774.24,-136.11C2092.77,-130.03 3342.45,-105.19 3517.5,-87 3520.17,-86.72 3522.88,-86.41 3525.62,-86.06"/>
<polygon fill="midnightblue" stroke="midnightblue" points="1774.12,-132.61 1764.19,-136.3 1774.26,-139.61 1774.12,-132.61"/>
</g>
<!-- Node19 -->
<g id="node19" class="node">
<title>Node19</title>
<g id="a_node19"><a xlink:href="../../d2/df4/show__info__dialog_8cpp.html" target="_top" xlink:title=" ">
<polygon fill="white" stroke="black" points="1063,-56.5 1063,-86.5 1204,-86.5 1204,-56.5 1063,-56.5"/>
<text text-anchor="start" x="1071" y="-74.5" font-family="Helvetica,sans-Serif" font-size="10.00">src/app/seamly2d/dialogs</text>
<text text-anchor="middle" x="1133.5" y="-63.5" font-family="Helvetica,sans-Serif" font-size="10.00">/show_info_dialog.cpp</text>
</a>
</g>
</g>
<!-- Node2&#45;&gt;Node19 -->
<g id="edge18" class="edge">
<title>Node2&#45;&gt;Node19</title>
<path fill="none" stroke="midnightblue" d="M1626.58,-131.67C1530.8,-123.69 1358.73,-107.95 1212.5,-87 1209.74,-86.6 1206.93,-86.18 1204.09,-85.74"/>
<polygon fill="midnightblue" stroke="midnightblue" points="1626.49,-135.17 1636.75,-132.51 1627.07,-128.2 1626.49,-135.17"/>
</g>
<!-- Node20 -->
<g id="node20" class="node">
<title>Node20</title>
<g id="a_node20"><a xlink:href="../../dc/d14/app_2seamly2d_2main_8cpp.html" target="_top" xlink:title=" ">
<polygon fill="white" stroke="black" points="1222,-62 1222,-81 1373,-81 1373,-62 1222,-62"/>
<text text-anchor="middle" x="1297.5" y="-69" font-family="Helvetica,sans-Serif" font-size="10.00">src/app/seamly2d/main.cpp</text>
</a>
</g>
</g>
<!-- Node2&#45;&gt;Node20 -->
<g id="edge19" class="edge">
<title>Node2&#45;&gt;Node20</title>
<path fill="none" stroke="midnightblue" d="M1626.81,-126.13C1562.12,-116.08 1465.52,-100.9 1381.5,-87 1370.11,-85.12 1357.86,-83.03 1346.34,-81.05"/>
<polygon fill="midnightblue" stroke="midnightblue" points="1626.49,-129.62 1636.91,-127.7 1627.56,-122.71 1626.49,-129.62"/>
</g>
<!-- Node21 -->
<g id="node21" class="node">
<title>Node21</title>
<g id="a_node21"><a xlink:href="../../d8/de8/mainwindowsnogui_8cpp.html" target="_top" xlink:title=" ">
<polygon fill="white" stroke="black" points="1391,-62 1391,-81 1612,-81 1612,-62 1391,-62"/>
<text text-anchor="middle" x="1501.5" y="-69" font-family="Helvetica,sans-Serif" font-size="10.00">src/app/seamly2d/mainwindowsnogui.cpp</text>
</a>
</g>
</g>
<!-- Node2&#45;&gt;Node21 -->
<g id="edge20" class="edge">
<title>Node2&#45;&gt;Node21</title>
<path fill="none" stroke="midnightblue" d="M1647.75,-120.27C1608.97,-107.6 1557.94,-90.93 1527.54,-81.01"/>
<polygon fill="midnightblue" stroke="midnightblue" points="1646.73,-123.62 1657.32,-123.4 1648.9,-116.96 1646.73,-123.62"/>
</g>
<!-- Node22 -->
<g id="node22" class="node">
<title>Node22</title>
<g id="a_node22"><a xlink:href="../../dd/d84/shortcuts__dialog_8cpp.html" target="_top" xlink:title=" ">
<polygon fill="white" stroke="black" points="1630,-56.5 1630,-86.5 1771,-86.5 1771,-56.5 1630,-56.5"/>
<text text-anchor="start" x="1638" y="-74.5" font-family="Helvetica,sans-Serif" font-size="10.00">src/app/seamly2d/dialogs</text>
<text text-anchor="middle" x="1700.5" y="-63.5" font-family="Helvetica,sans-Serif" font-size="10.00">/shortcuts_dialog.cpp</text>
</a>
</g>
</g>
<!-- Node2&#45;&gt;Node22 -->
<g id="edge21" class="edge">
<title>Node2&#45;&gt;Node22</title>
<path fill="none" stroke="midnightblue" d="M1700.5,-113.11C1700.5,-104.15 1700.5,-94.32 1700.5,-86.58"/>
<polygon fill="midnightblue" stroke="midnightblue" points="1697,-113.4 1700.5,-123.4 1704,-113.4 1697,-113.4"/>
</g>
<!-- Node2&#45;&gt;Node23 -->
<g id="edge22" class="edge">
<title>Node2&#45;&gt;Node23</title>
<path fill="none" stroke="midnightblue" d="M1626.45,-136.39C1405.16,-132.73 762.2,-119.34 731.5,-87 722.01,-77.01 721.83,-65.81 731.5,-56 759.48,-27.63 3309.66,-13.95 3836.09,-11.43"/>
<polygon fill="midnightblue" stroke="midnightblue" points="1626.61,-139.9 1636.66,-136.56 1626.72,-132.9 1626.61,-139.9"/>
</g>
<!-- Node24 -->
<g id="node24" class="node">
<title>Node24</title>
<g id="a_node24"><a xlink:href="../../d3/d49/vpattern_8cpp.html" target="_top" xlink:title=" ">
<polygon fill="white" stroke="black" points="1789,-56.5 1789,-86.5 1914,-86.5 1914,-56.5 1789,-56.5"/>
<text text-anchor="start" x="1797" y="-74.5" font-family="Helvetica,sans-Serif" font-size="10.00">src/app/seamly2d/xml</text>
<text text-anchor="middle" x="1851.5" y="-63.5" font-family="Helvetica,sans-Serif" font-size="10.00">/vpattern.cpp</text>
</a>
</g>
</g>
<!-- Node2&#45;&gt;Node24 -->
<g id="edge23" class="edge">
<title>Node2&#45;&gt;Node24</title>
<path fill="none" stroke="midnightblue" d="M1742.53,-119.41C1766.64,-109.03 1796.45,-96.2 1818.8,-86.58"/>
<polygon fill="midnightblue" stroke="midnightblue" points="1741.07,-116.23 1733.26,-123.4 1743.83,-122.66 1741.07,-116.23"/>
</g>
<!-- Node25&#45;&gt;Node15 -->
<g id="edge29" class="edge">
<title>Node25&#45;&gt;Node15</title>
<path fill="none" stroke="midnightblue" d="M3764.5,-113.11C3764.5,-104.15 3764.5,-94.32 3764.5,-86.58"/>
<polygon fill="midnightblue" stroke="midnightblue" points="3761,-113.4 3764.5,-123.4 3768,-113.4 3761,-113.4"/>
</g>
<!-- Node26 -->
<g id="node26" class="node">
<title>Node26</title>
<g id="a_node26"><a xlink:href="../../d6/d64/dialogs_8h.html" target="_top" xlink:title=" ">
<polygon fill="white" stroke="black" points="3860,-56.5 3860,-86.5 4001,-86.5 4001,-56.5 3860,-56.5"/>
<text text-anchor="start" x="3868" y="-74.5" font-family="Helvetica,sans-Serif" font-size="10.00">src/app/seamly2d/dialogs</text>
<text text-anchor="middle" x="3930.5" y="-63.5" font-family="Helvetica,sans-Serif" font-size="10.00">/dialogs.h</text>
</a>
</g>
</g>
<!-- Node25&#45;&gt;Node26 -->
<g id="edge30" class="edge">
<title>Node25&#45;&gt;Node26</title>
<path fill="none" stroke="midnightblue" d="M3810.01,-119.68C3836.63,-109.26 3869.77,-96.28 3894.55,-86.58"/>
<polygon fill="midnightblue" stroke="midnightblue" points="3808.55,-116.49 3800.52,-123.4 3811.11,-123.01 3808.55,-116.49"/>
</g>
<!-- Node26&#45;&gt;Node23 -->
<g id="edge31" class="edge">
<title>Node26&#45;&gt;Node23</title>
<path fill="none" stroke="midnightblue" d="M3930.5,-46.29C3930.5,-36.86 3930.5,-26.65 3930.5,-19.66"/>
<polygon fill="midnightblue" stroke="midnightblue" points="3927,-46.4 3930.5,-56.4 3934,-46.4 3927,-46.4"/>
</g>
</g>
</svg>
        <g id="navigator" transform="translate(0 0)" fill="#404254">
                <rect fill="#f2f5e9" fill-opacity="0.5" stroke="#606060" stroke-width=".5" x="0" y="0" width="60" height="60"/>
                <use id="zoomplus" xlink:href="#zoomPlus" x="17" y="9" onmousedown="handleZoom(evt,'in')"/>
                <use id="zoomminus" xlink:href="#zoomMin" x="42" y="9" onmousedown="handleZoom(evt,'out')"/>
                <use id="reset" xlink:href="#resetDef" x="30" y="36" onmousedown="handleReset()"/>
                <g id="arrowUp" xlink:href="#dirArrow" transform="translate(30 24)" onmousedown="handlePan(0,-1)">
                  <use xlink:href="#rim" fill="#404040">
                        <set attributeName="fill" to="#808080" begin="arrowUp.mouseover" end="arrowUp.mouseout"/>
                  </use>
                  <path fill="none" stroke="white" stroke-width="1.5" d="M0,-3.0v7 M-2.5,-0.5L0,-3.0L2.5,-0.5"/>
                </g>
                <g id="arrowRight" xlink:href="#dirArrow" transform="rotate(90) translate(36 -43)" onmousedown="handlePan(1,0)">
                  <use xlink:href="#rim" fill="#404040">
                        <set attributeName="fill" to="#808080" begin="arrowRight.mouseover" end="arrowRight.mouseout"/>
                  </use>
                  <path fill="none" stroke="white" stroke-width="1.5" d="M0,-3.0v7 M-2.5,-0.5L0,-3.0L2.5,-0.5"/>
                </g>
                <g id="arrowDown" xlink:href="#dirArrow" transform="rotate(180) translate(-30 -48)" onmousedown="handlePan(0,1)">
                  <use xlink:href="#rim" fill="#404040">
                        <set attributeName="fill" to="#808080" begin="arrowDown.mouseover" end="arrowDown.mouseout"/>
                  </use>
                  <path fill="none" stroke="white" stroke-width="1.5" d="M0,-3.0v7 M-2.5,-0.5L0,-3.0L2.5,-0.5"/>
                </g>
                <g id="arrowLeft" xlink:href="#dirArrow" transform="rotate(270) translate(-36 17)" onmousedown="handlePan(-1,0)">
                  <use xlink:href="#rim" fill="#404040">
                        <set attributeName="fill" to="#808080" begin="arrowLeft.mouseover" end="arrowLeft.mouseout"/>
                  </use>
                  <path fill="none" stroke="white" stroke-width="1.5" d="M0,-3.0v7 M-2.5,-0.5L0,-3.0L2.5,-0.5"/>
                </g>
        </g>
        <svg viewBox="0 0 15 15" width="100%" height="30px" preserveAspectRatio="xMaxYMin meet">
         <g id="arrow_out" transform="scale(0.3 0.3)">
          <a xlink:href="options_8h__dep__incl_org.svg" target="_base">
           <rect id="button" ry="5" rx="5" y="6" x="6" height="38" width="38"
                fill="#f2f5e9" fill-opacity="0.5" stroke="#606060" stroke-width="1.0"/>
           <path id="arrow"
             d="M 11.500037,31.436501 C 11.940474,20.09759 22.043105,11.32322 32.158766,21.979434 L 37.068811,17.246167 C 37.068811,17.246167 37.088388,32 37.088388,32 L 22.160133,31.978069 C 22.160133,31.978069 26.997745,27.140456 26.997745,27.140456 C 18.528582,18.264221 13.291696,25.230495 11.500037,31.436501 z"
             style="fill:#404040;"/>
          </a>
         </g>
        </svg>
</svg>
