<?xml version="1.0" encoding="UTF-8" standalone="no"?>
<!DOCTYPE svg PUBLIC "-//W3C//DTD SVG 1.1//EN"
 "http://www.w3.org/Graphics/SVG/1.1/DTD/svg11.dtd">
<!-- Generated by graphviz version 2.43.0 (0)
 -->
<!-- Title: src/app/seamly2d/options.h Pages: 1 -->
<svg width="4033pt" height="218pt"
 viewBox="0.00 0.00 4032.50 218.00" xmlns="http://www.w3.org/2000/svg" xmlns:xlink="http://www.w3.org/1999/xlink">
<g id="graph0" class="graph" transform="scale(1 1) rotate(0) translate(4 214)">
<title>src/app/seamly2d/options.h</title>
<polygon fill="white" stroke="transparent" points="-4,4 -4,-214 4028.5,-214 4028.5,4 -4,4"/>
<!-- Node1 -->
<g id="node1" class="node">
<title>Node1</title>
<g id="a_node1"><a xlink:title=" ">
<polygon fill="#bfbfbf" stroke="black" points="2560,-190.5 2560,-209.5 2711,-209.5 2711,-190.5 2560,-190.5"/>
<text text-anchor="middle" x="2635.5" y="-197.5" font-family="Helvetica,sans-Serif" font-size="10.00">src/app/seamly2d/options.h</text>
</a>
</g>
</g>
<!-- Node2 -->
<g id="node2" class="node">
<title>Node2</title>
<g id="a_node2"><a xlink:href="../../d9/d02/vapplication_8h.html" target="_top" xlink:title=" ">
<polygon fill="white" stroke="black" points="1771,-123.5 1771,-153.5 1898,-153.5 1898,-123.5 1771,-123.5"/>
<text text-anchor="start" x="1779" y="-141.5" font-family="Helvetica,sans-Serif" font-size="10.00">src/app/seamly2d/core</text>
<text text-anchor="middle" x="1834.5" y="-130.5" font-family="Helvetica,sans-Serif" font-size="10.00">/vapplication.h</text>
</a>
</g>
</g>
<!-- Node1&#45;&gt;Node2 -->
<g id="edge1" class="edge">
<title>Node1&#45;&gt;Node2</title>
<path fill="none" stroke="midnightblue" d="M2549.38,-192.6C2387.4,-180.57 2040.83,-154.83 1898.02,-144.22"/>
<polygon fill="midnightblue" stroke="midnightblue" points="2549.55,-196.13 2559.78,-193.38 2550.07,-189.14 2549.55,-196.13"/>
</g>
<!-- Node5 -->
<g id="node5" class="node">
<title>Node5</title>
<g id="a_node5"><a xlink:href="../../d7/dfa/calculator__dialog_8cpp.html" target="_top" xlink:title=" ">
<polygon fill="white" stroke="black" points="0,-56.5 0,-86.5 141,-86.5 141,-56.5 0,-56.5"/>
<text text-anchor="start" x="8" y="-74.5" font-family="Helvetica,sans-Serif" font-size="10.00">src/app/seamly2d/dialogs</text>
<text text-anchor="middle" x="70.5" y="-63.5" font-family="Helvetica,sans-Serif" font-size="10.00">/calculator_dialog.cpp</text>
</a>
</g>
</g>
<!-- Node1&#45;&gt;Node5 -->
<g id="edge24" class="edge">
<title>Node1&#45;&gt;Node5</title>
<path fill="none" stroke="midnightblue" d="M2549.54,-198.09C2225,-194.49 1074.1,-180.12 708.5,-154 458.91,-136.17 396.9,-124.49 149.5,-87 146.74,-86.58 143.93,-86.14 141.1,-85.68"/>
<polygon fill="midnightblue" stroke="midnightblue" points="2549.78,-201.59 2559.82,-198.2 2549.86,-194.59 2549.78,-201.59"/>
</g>
<!-- Node7 -->
<g id="node7" class="node">
<title>Node7</title>
<g id="a_node7"><a xlink:href="../../dc/d20/preferencespathpage_8cpp.html" target="_top" xlink:title=" ">
<polygon fill="white" stroke="black" points="159,-56.5 159,-86.5 364,-86.5 364,-56.5 159,-56.5"/>
<text text-anchor="start" x="167" y="-74.5" font-family="Helvetica,sans-Serif" font-size="10.00">src/app/seamly2d/dialogs</text>
<text text-anchor="middle" x="261.5" y="-63.5" font-family="Helvetica,sans-Serif" font-size="10.00">/configpages/preferencespathpage.cpp</text>
</a>
</g>
</g>
<!-- Node1&#45;&gt;Node7 -->
<g id="edge25" class="edge">
<title>Node1&#45;&gt;Node7</title>
<path fill="none" stroke="midnightblue" d="M2549.44,-198.19C2318.97,-195.65 1668.58,-185.97 1128.5,-154 791.77,-134.07 707.81,-123.74 372.5,-87 369.8,-86.7 367.05,-86.4 364.29,-86.08"/>
<polygon fill="midnightblue" stroke="midnightblue" points="2549.73,-201.7 2559.77,-198.31 2549.81,-194.7 2549.73,-201.7"/>
</g>
<!-- Node10 -->
<g id="node10" class="node">
<title>Node10</title>
<g id="a_node10"><a xlink:href="../../dd/d64/dialogaboutapp_8cpp.html" target="_top" xlink:title=" ">
<polygon fill="white" stroke="black" points="382,-56.5 382,-86.5 523,-86.5 523,-56.5 382,-56.5"/>
<text text-anchor="start" x="390" y="-74.5" font-family="Helvetica,sans-Serif" font-size="10.00">src/app/seamly2d/dialogs</text>
<text text-anchor="middle" x="452.5" y="-63.5" font-family="Helvetica,sans-Serif" font-size="10.00">/dialogaboutapp.cpp</text>
</a>
</g>
</g>
<!-- Node1&#45;&gt;Node10 -->
<g id="edge26" class="edge">
<title>Node1&#45;&gt;Node10</title>
<path fill="none" stroke="midnightblue" d="M2549.75,-194.71C2393.17,-186.84 2050.44,-169.49 1761.5,-154 1494.36,-139.68 825.81,-112.43 559.5,-87 547.74,-85.88 535.29,-84.43 523.2,-82.88"/>
<polygon fill="midnightblue" stroke="midnightblue" points="2549.63,-198.2 2559.8,-195.21 2549.99,-191.21 2549.63,-198.2"/>
</g>
<!-- Node15 -->
<g id="node15" class="node">
<title>Node15</title>
<g id="a_node15"><a xlink:href="../../d6/d89/dialoglayoutprogress_8cpp.html" target="_top" xlink:title=" ">
<polygon fill="white" stroke="black" points="3365,-56.5 3365,-86.5 3508,-86.5 3508,-56.5 3365,-56.5"/>
<text text-anchor="start" x="3373" y="-74.5" font-family="Helvetica,sans-Serif" font-size="10.00">src/app/seamly2d/dialogs</text>
<text text-anchor="middle" x="3436.5" y="-63.5" font-family="Helvetica,sans-Serif" font-size="10.00">/dialoglayoutprogress.cpp</text>
</a>
</g>
</g>
<!-- Node1&#45;&gt;Node15 -->
<g id="edge31" class="edge">
<title>Node1&#45;&gt;Node15</title>
<path fill="none" stroke="midnightblue" d="M2703.57,-189.01C2831.59,-170.09 3116.9,-127.32 3356.5,-87 3359.28,-86.53 3362.12,-86.05 3364.99,-85.55"/>
<polygon fill="midnightblue" stroke="midnightblue" points="2702.9,-185.57 2693.52,-190.49 2703.93,-192.5 2702.9,-185.57"/>
</g>
<!-- Node16 -->
<g id="node16" class="node">
<title>Node16</title>
<g id="a_node16"><a xlink:href="../../dd/d54/export__layout__dialog_8cpp.html" target="_top" xlink:title=" ">
<polygon fill="white" stroke="black" points="3526,-56.5 3526,-86.5 3669,-86.5 3669,-56.5 3526,-56.5"/>
<text text-anchor="start" x="3534" y="-74.5" font-family="Helvetica,sans-Serif" font-size="10.00">src/app/seamly2d/dialogs</text>
<text text-anchor="middle" x="3597.5" y="-63.5" font-family="Helvetica,sans-Serif" font-size="10.00">/export_layout_dialog.cpp</text>
</a>
</g>
</g>
<!-- Node1&#45;&gt;Node16 -->
<g id="edge32" class="edge">
<title>Node1&#45;&gt;Node16</title>
<path fill="none" stroke="midnightblue" d="M2721.33,-190.45C2804.74,-181.95 2934.94,-168.17 3047.5,-154 3256.85,-127.65 3309.21,-120.71 3517.5,-87 3520.29,-86.55 3523.13,-86.08 3525.99,-85.6"/>
<polygon fill="midnightblue" stroke="midnightblue" points="2720.74,-187 2711.14,-191.49 2721.45,-193.96 2720.74,-187"/>
</g>
<!-- Node24 -->
<g id="node24" class="node">
<title>Node24</title>
<g id="a_node24"><a xlink:href="../../d8/dd9/mainwindow_8cpp.html" target="_top" xlink:title=" ">
<polygon fill="white" stroke="black" points="3836.5,-0.5 3836.5,-19.5 4024.5,-19.5 4024.5,-0.5 3836.5,-0.5"/>
<text text-anchor="middle" x="3930.5" y="-7.5" font-family="Helvetica,sans-Serif" font-size="10.00">src/app/seamly2d/mainwindow.cpp</text>
</a>
</g>
</g>
<!-- Node1&#45;&gt;Node24 -->
<g id="edge33" class="edge">
<title>Node1&#45;&gt;Node24</title>
<path fill="none" stroke="midnightblue" d="M2721.17,-199.67C2960.16,-200.92 3630.72,-200.1 3845.5,-154 3922.89,-137.39 3966.3,-152.66 4010.5,-87 4018.19,-75.57 4017.46,-67.89 4010.5,-56 3999.8,-37.71 3978.63,-26.27 3960.75,-19.51"/>
<polygon fill="midnightblue" stroke="midnightblue" points="2721.16,-196.17 2711.14,-199.61 2721.12,-203.17 2721.16,-196.17"/>
</g>
<!-- Node25 -->
<g id="node25" class="node">
<title>Node25</title>
<g id="a_node25"><a xlink:href="../../d5/d4e/dialogpatternproperties_8h.html" target="_top" xlink:title=" ">
<polygon fill="white" stroke="black" points="3693,-123.5 3693,-153.5 3836,-153.5 3836,-123.5 3693,-123.5"/>
<text text-anchor="start" x="3701" y="-141.5" font-family="Helvetica,sans-Serif" font-size="10.00">src/app/seamly2d/dialogs</text>
<text text-anchor="middle" x="3764.5" y="-130.5" font-family="Helvetica,sans-Serif" font-size="10.00">/dialogpatternproperties.h</text>
</a>
</g>
</g>
<!-- Node1&#45;&gt;Node25 -->
<g id="edge27" class="edge">
<title>Node1&#45;&gt;Node25</title>
<path fill="none" stroke="midnightblue" d="M2721.61,-194.46C2936.59,-183.13 3493.8,-153.77 3692.66,-143.29"/>
<polygon fill="midnightblue" stroke="midnightblue" points="2721.13,-190.98 2711.33,-195 2721.5,-197.97 2721.13,-190.98"/>
</g>
<!-- Node3 -->
<g id="node3" class="node">
<title>Node3</title>
<g id="a_node3"><a xlink:href="../../d3/dd8/vapplication_8cpp.html" target="_top" xlink:title=" ">
<polygon fill="white" stroke="black" points="1771,-56.5 1771,-86.5 1898,-86.5 1898,-56.5 1771,-56.5"/>
<text text-anchor="start" x="1779" y="-74.5" font-family="Helvetica,sans-Serif" font-size="10.00">src/app/seamly2d/core</text>
<text text-anchor="middle" x="1834.5" y="-63.5" font-family="Helvetica,sans-Serif" font-size="10.00">/vapplication.cpp</text>
</a>
</g>
</g>
<!-- Node2&#45;&gt;Node3 -->
<g id="edge2" class="edge">
<title>Node2&#45;&gt;Node3</title>
<path fill="none" stroke="midnightblue" d="M1834.5,-113.11C1834.5,-104.15 1834.5,-94.32 1834.5,-86.58"/>
<polygon fill="midnightblue" stroke="midnightblue" points="1831,-113.4 1834.5,-123.4 1838,-113.4 1831,-113.4"/>
</g>
<!-- Node4 -->
<g id="node4" class="node">
<title>Node4</title>
<g id="a_node4"><a xlink:href="../../dd/db4/abstractlayout__dialog_8cpp.html" target="_top" xlink:title=" ">
<polygon fill="white" stroke="black" points="1916.5,-56.5 1916.5,-86.5 2062.5,-86.5 2062.5,-56.5 1916.5,-56.5"/>
<text text-anchor="start" x="1924.5" y="-74.5" font-family="Helvetica,sans-Serif" font-size="10.00">src/app/seamly2d/dialogs</text>
<text text-anchor="middle" x="1989.5" y="-63.5" font-family="Helvetica,sans-Serif" font-size="10.00">/abstractlayout_dialog.cpp</text>
</a>
</g>
</g>
<!-- Node2&#45;&gt;Node4 -->
<g id="edge3" class="edge">
<title>Node2&#45;&gt;Node4</title>
<path fill="none" stroke="midnightblue" d="M1877.65,-119.41C1902.39,-109.03 1933,-96.2 1955.93,-86.58"/>
<polygon fill="midnightblue" stroke="midnightblue" points="1876,-116.3 1868.13,-123.4 1878.71,-122.76 1876,-116.3"/>
</g>
<!-- Node2&#45;&gt;Node5 -->
<g id="edge4" class="edge">
<title>Node2&#45;&gt;Node5</title>
<path fill="none" stroke="midnightblue" d="M1760.65,-136.78C1478.55,-133.78 468.78,-120.89 149.5,-87 146.73,-86.71 143.9,-86.37 141.06,-86"/>
<polygon fill="midnightblue" stroke="midnightblue" points="1760.74,-140.28 1770.78,-136.88 1760.81,-133.28 1760.74,-140.28"/>
</g>
<!-- Node6 -->
<g id="node6" class="node">
<title>Node6</title>
<g id="a_node6"><a xlink:href="../../d2/d2d/preferencesconfigurationpage_8cpp.html" target="_top" xlink:title=" ">
<polygon fill="white" stroke="black" points="2081,-56.5 2081,-86.5 2328,-86.5 2328,-56.5 2081,-56.5"/>
<text text-anchor="start" x="2089" y="-74.5" font-family="Helvetica,sans-Serif" font-size="10.00">src/app/seamly2d/dialogs</text>
<text text-anchor="middle" x="2204.5" y="-63.5" font-family="Helvetica,sans-Serif" font-size="10.00">/configpages/preferencesconfigurationpage.cpp</text>
</a>
</g>
</g>
<!-- Node2&#45;&gt;Node6 -->
<g id="edge5" class="edge">
<title>Node2&#45;&gt;Node6</title>
<path fill="none" stroke="midnightblue" d="M1908.29,-124.54C1970.86,-113.54 2060.42,-97.81 2124.65,-86.53"/>
<polygon fill="midnightblue" stroke="midnightblue" points="1907.35,-121.15 1898.11,-126.33 1908.56,-128.04 1907.35,-121.15"/>
</g>
<!-- Node2&#45;&gt;Node7 -->
<g id="edge6" class="edge">
<title>Node2&#45;&gt;Node7</title>
<path fill="none" stroke="midnightblue" d="M1760.39,-135.88C1502.69,-130.09 646.49,-109.58 372.5,-87 369.79,-86.78 367.04,-86.53 364.27,-86.28"/>
<polygon fill="midnightblue" stroke="midnightblue" points="1760.68,-139.38 1770.76,-136.11 1760.84,-132.39 1760.68,-139.38"/>
</g>
<!-- Node8 -->
<g id="node8" class="node">
<title>Node8</title>
<g id="a_node8"><a xlink:href="../../d9/d70/preferencesgraphicsviewpage_8cpp.html" target="_top" xlink:title=" ">
<polygon fill="white" stroke="black" points="2346.5,-56.5 2346.5,-86.5 2594.5,-86.5 2594.5,-56.5 2346.5,-56.5"/>
<text text-anchor="start" x="2354.5" y="-74.5" font-family="Helvetica,sans-Serif" font-size="10.00">src/app/seamly2d/dialogs</text>
<text text-anchor="middle" x="2470.5" y="-63.5" font-family="Helvetica,sans-Serif" font-size="10.00">/configpages/preferencesgraphicsviewpage.cpp</text>
</a>
</g>
</g>
<!-- Node2&#45;&gt;Node8 -->
<g id="edge7" class="edge">
<title>Node2&#45;&gt;Node8</title>
<path fill="none" stroke="midnightblue" d="M1908.4,-130.24C2006.31,-120.58 2184.41,-102.88 2336.5,-87 2339.76,-86.66 2343.06,-86.31 2346.39,-85.96"/>
<polygon fill="midnightblue" stroke="midnightblue" points="1907.92,-126.77 1898.31,-131.24 1908.6,-133.74 1907.92,-126.77"/>
</g>
<!-- Node9 -->
<g id="node9" class="node">
<title>Node9</title>
<g id="a_node9"><a xlink:href="../../dc/d63/preferencespatternpage_8cpp.html" target="_top" xlink:title=" ">
<polygon fill="white" stroke="black" points="2612.5,-56.5 2612.5,-86.5 2830.5,-86.5 2830.5,-56.5 2612.5,-56.5"/>
<text text-anchor="start" x="2620.5" y="-74.5" font-family="Helvetica,sans-Serif" font-size="10.00">src/app/seamly2d/dialogs</text>
<text text-anchor="middle" x="2721.5" y="-63.5" font-family="Helvetica,sans-Serif" font-size="10.00">/configpages/preferencespatternpage.cpp</text>
</a>
</g>
</g>
<!-- Node2&#45;&gt;Node9 -->
<g id="edge8" class="edge">
<title>Node2&#45;&gt;Node9</title>
<path fill="none" stroke="midnightblue" d="M1908.53,-134.04C2045.77,-127.31 2348.89,-110.98 2603.5,-87 2606.38,-86.73 2609.29,-86.44 2612.23,-86.15"/>
<polygon fill="midnightblue" stroke="midnightblue" points="1907.97,-130.56 1898.15,-134.54 1908.31,-137.55 1907.97,-130.56"/>
</g>
<!-- Node2&#45;&gt;Node10 -->
<g id="edge9" class="edge">
<title>Node2&#45;&gt;Node10</title>
<path fill="none" stroke="midnightblue" d="M1760.83,-133.3C1705.03,-130.2 1626.46,-126.02 1557.5,-123 1104.32,-103.14 988.75,-133.24 537.5,-87 532.88,-86.53 528.14,-85.96 523.36,-85.32"/>
<polygon fill="midnightblue" stroke="midnightblue" points="1760.8,-136.81 1770.98,-133.87 1761.19,-129.82 1760.8,-136.81"/>
</g>
<!-- Node11 -->
<g id="node11" class="node">
<title>Node11</title>
<g id="a_node11"><a xlink:href="../../d2/d00/vtooloptionspropertybrowser_8cpp.html" target="_top" xlink:title=" ">
<polygon fill="white" stroke="black" points="2848.5,-56.5 2848.5,-86.5 3028.5,-86.5 3028.5,-56.5 2848.5,-56.5"/>
<text text-anchor="start" x="2856.5" y="-74.5" font-family="Helvetica,sans-Serif" font-size="10.00">src/app/seamly2d/core</text>
<text text-anchor="middle" x="2938.5" y="-63.5" font-family="Helvetica,sans-Serif" font-size="10.00">/vtooloptionspropertybrowser.cpp</text>
</a>
</g>
</g>
<!-- Node2&#45;&gt;Node11 -->
<g id="edge10" class="edge">
<title>Node2&#45;&gt;Node11</title>
<path fill="none" stroke="midnightblue" d="M1908.27,-136.2C2074.73,-132.73 2492.09,-121.09 2839.5,-87 2842.44,-86.71 2845.42,-86.4 2848.44,-86.06"/>
<polygon fill="midnightblue" stroke="midnightblue" points="1908.08,-132.7 1898.15,-136.4 1908.22,-139.7 1908.08,-132.7"/>
</g>
<!-- Node12 -->
<g id="node12" class="node">
<title>Node12</title>
<g id="a_node12"><a xlink:href="../../dd/dc2/decimalchart__dialog_8cpp.html" target="_top" xlink:title=" ">
<polygon fill="white" stroke="black" points="3047,-56.5 3047,-86.5 3188,-86.5 3188,-56.5 3047,-56.5"/>
<text text-anchor="start" x="3055" y="-74.5" font-family="Helvetica,sans-Serif" font-size="10.00">src/app/seamly2d/dialogs</text>
<text text-anchor="middle" x="3117.5" y="-63.5" font-family="Helvetica,sans-Serif" font-size="10.00">/decimalchart_dialog.cpp</text>
</a>
</g>
</g>
<!-- Node2&#45;&gt;Node12 -->
<g id="edge11" class="edge">
<title>Node2&#45;&gt;Node12</title>
<path fill="none" stroke="midnightblue" d="M1908.4,-137.92C2097.1,-138.23 2611.89,-134.28 3037.5,-87 3040.59,-86.66 3043.73,-86.27 3046.91,-85.84"/>
<polygon fill="midnightblue" stroke="midnightblue" points="1908.32,-134.42 1898.32,-137.9 1908.31,-141.42 1908.32,-134.42"/>
</g>
<!-- Node13 -->
<g id="node13" class="node">
<title>Node13</title>
<g id="a_node13"><a xlink:href="../../d5/dc5/dialogpreferences_8cpp.html" target="_top" xlink:title=" ">
<polygon fill="white" stroke="black" points="3206,-56.5 3206,-86.5 3347,-86.5 3347,-56.5 3206,-56.5"/>
<text text-anchor="start" x="3214" y="-74.5" font-family="Helvetica,sans-Serif" font-size="10.00">src/app/seamly2d/dialogs</text>
<text text-anchor="middle" x="3276.5" y="-63.5" font-family="Helvetica,sans-Serif" font-size="10.00">/dialogpreferences.cpp</text>
</a>
</g>
</g>
<!-- Node2&#45;&gt;Node13 -->
<g id="edge12" class="edge">
<title>Node2&#45;&gt;Node13</title>
<path fill="none" stroke="midnightblue" d="M1908.53,-136.14C2154.56,-131.42 2943.58,-114.47 3196.5,-87 3199.59,-86.66 3202.73,-86.28 3205.91,-85.86"/>
<polygon fill="midnightblue" stroke="midnightblue" points="1908.2,-132.65 1898.27,-136.34 1908.33,-139.65 1908.2,-132.65"/>
</g>
<!-- Node14 -->
<g id="node14" class="node">
<title>Node14</title>
<g id="a_node14"><a xlink:href="../../d5/d18/dialogpatternproperties_8cpp.html" target="_top" xlink:title=" ">
<polygon fill="white" stroke="black" points="3687,-56.5 3687,-86.5 3842,-86.5 3842,-56.5 3687,-56.5"/>
<text text-anchor="start" x="3695" y="-74.5" font-family="Helvetica,sans-Serif" font-size="10.00">src/app/seamly2d/dialogs</text>
<text text-anchor="middle" x="3764.5" y="-63.5" font-family="Helvetica,sans-Serif" font-size="10.00">/dialogpatternproperties.cpp</text>
</a>
</g>
</g>
<!-- Node2&#45;&gt;Node14 -->
<g id="edge13" class="edge">
<title>Node2&#45;&gt;Node14</title>
<path fill="none" stroke="midnightblue" d="M1908.71,-136.85C2207.9,-134.03 3326.28,-121.35 3678.5,-87 3681.21,-86.74 3683.97,-86.44 3686.75,-86.11"/>
<polygon fill="midnightblue" stroke="midnightblue" points="1908.38,-133.36 1898.42,-136.95 1908.45,-140.35 1908.38,-133.36"/>
</g>
<!-- Node2&#45;&gt;Node15 -->
<g id="edge14" class="edge">
<title>Node2&#45;&gt;Node15</title>
<path fill="none" stroke="midnightblue" d="M1908.58,-136.48C2173.14,-132.6 3070.81,-117.47 3356.5,-87 3359.17,-86.72 3361.88,-86.39 3364.61,-86.04"/>
<polygon fill="midnightblue" stroke="midnightblue" points="1908.26,-132.98 1898.32,-136.63 1908.37,-139.98 1908.26,-132.98"/>
</g>
<!-- Node2&#45;&gt;Node16 -->
<g id="edge15" class="edge">
<title>Node2&#45;&gt;Node16</title>
<path fill="none" stroke="midnightblue" d="M1908.26,-136.75C2190.02,-133.67 3198.56,-120.5 3517.5,-87 3520.17,-86.72 3522.88,-86.4 3525.61,-86.05"/>
<polygon fill="midnightblue" stroke="midnightblue" points="1908.11,-133.25 1898.15,-136.86 1908.18,-140.25 1908.11,-133.25"/>
</g>
<!-- Node17 -->
<g id="node17" class="node">
<title>Node17</title>
<g id="a_node17"><a xlink:href="../../d0/dfa/layoutsettings__dialog_8cpp.html" target="_top" xlink:title=" ">
<polygon fill="white" stroke="black" points="580,-56.5 580,-86.5 725,-86.5 725,-56.5 580,-56.5"/>
<text text-anchor="start" x="588" y="-74.5" font-family="Helvetica,sans-Serif" font-size="10.00">src/app/seamly2d/dialogs</text>
<text text-anchor="middle" x="652.5" y="-63.5" font-family="Helvetica,sans-Serif" font-size="10.00">/layoutsettings_dialog.cpp</text>
</a>
</g>
</g>
<!-- Node2&#45;&gt;Node17 -->
<g id="edge16" class="edge">
<title>Node2&#45;&gt;Node17</title>
<path fill="none" stroke="midnightblue" d="M1760.82,-133.47C1705.02,-130.46 1626.44,-126.31 1557.5,-123 1191.35,-105.42 1097.84,-127.39 733.5,-87 730.8,-86.7 728.06,-86.37 725.29,-86"/>
<polygon fill="midnightblue" stroke="midnightblue" points="1760.8,-136.97 1770.97,-134.02 1761.18,-129.98 1760.8,-136.97"/>
</g>
<!-- Node18 -->
<g id="node18" class="node">
<title>Node18</title>
<g id="a_node18"><a xlink:href="../../db/d5c/groups__widget_8cpp.html" target="_top" xlink:title=" ">
<polygon fill="white" stroke="black" points="743,-56.5 743,-86.5 884,-86.5 884,-56.5 743,-56.5"/>
<text text-anchor="start" x="751" y="-74.5" font-family="Helvetica,sans-Serif" font-size="10.00">src/app/seamly2d/dialogs</text>
<text text-anchor="middle" x="813.5" y="-63.5" font-family="Helvetica,sans-Serif" font-size="10.00">/groups_widget.cpp</text>
</a>
</g>
</g>
<!-- Node2&#45;&gt;Node18 -->
<g id="edge17" class="edge">
<title>Node2&#45;&gt;Node18</title>
<path fill="none" stroke="midnightblue" d="M1760.8,-133.61C1540.8,-121.99 903.26,-88.27 892.5,-87 889.73,-86.67 886.91,-86.31 884.07,-85.91"/>
<polygon fill="midnightblue" stroke="midnightblue" points="1760.79,-137.12 1770.96,-134.15 1761.16,-130.13 1760.79,-137.12"/>
</g>
<!-- Node19 -->
<g id="node19" class="node">
<title>Node19</title>
<g id="a_node19"><a xlink:href="../../dc/d14/app_2seamly2d_2main_8cpp.html" target="_top" xlink:title=" ">
<polygon fill="white" stroke="black" points="902,-62 902,-81 1053,-81 1053,-62 902,-62"/>
<text text-anchor="middle" x="977.5" y="-69" font-family="Helvetica,sans-Serif" font-size="10.00">src/app/seamly2d/main.cpp</text>
</a>
</g>
</g>
<!-- Node2&#45;&gt;Node19 -->
<g id="edge18" class="edge">
<title>Node2&#45;&gt;Node19</title>
<path fill="none" stroke="midnightblue" d="M1760.87,-133.69C1594.89,-124.93 1195.58,-102.91 1061.5,-87 1048.57,-85.47 1034.6,-83.27 1021.84,-81.06"/>
<polygon fill="midnightblue" stroke="midnightblue" points="1760.82,-137.19 1770.99,-134.22 1761.18,-130.2 1760.82,-137.19"/>
</g>
<!-- Node20 -->
<g id="node20" class="node">
<title>Node20</title>
<g id="a_node20"><a xlink:href="../../dd/d84/shortcuts__dialog_8cpp.html" target="_top" xlink:title=" ">
<polygon fill="white" stroke="black" points="1071,-56.5 1071,-86.5 1212,-86.5 1212,-56.5 1071,-56.5"/>
<text text-anchor="start" x="1079" y="-74.5" font-family="Helvetica,sans-Serif" font-size="10.00">src/app/seamly2d/dialogs</text>
<text text-anchor="middle" x="1141.5" y="-63.5" font-family="Helvetica,sans-Serif" font-size="10.00">/shortcuts_dialog.cpp</text>
</a>
</g>
</g>
<!-- Node2&#45;&gt;Node20 -->
<g id="edge19" class="edge">
<title>Node2&#45;&gt;Node20</title>
<path fill="none" stroke="midnightblue" d="M1760.48,-133.8C1644.86,-127.47 1414.51,-112.72 1220.5,-87 1217.74,-86.63 1214.92,-86.24 1212.08,-85.81"/>
<polygon fill="midnightblue" stroke="midnightblue" points="1760.46,-137.3 1770.64,-134.34 1760.84,-130.31 1760.46,-137.3"/>
</g>
<!-- Node21 -->
<g id="node21" class="node">
<title>Node21</title>
<g id="a_node21"><a xlink:href="../../d2/df4/show__info__dialog_8cpp.html" target="_top" xlink:title=" ">
<polygon fill="white" stroke="black" points="1230,-56.5 1230,-86.5 1371,-86.5 1371,-56.5 1230,-56.5"/>
<text text-anchor="start" x="1238" y="-74.5" font-family="Helvetica,sans-Serif" font-size="10.00">src/app/seamly2d/dialogs</text>
<text text-anchor="middle" x="1300.5" y="-63.5" font-family="Helvetica,sans-Serif" font-size="10.00">/show_info_dialog.cpp</text>
</a>
</g>
</g>
<!-- Node2&#45;&gt;Node21 -->
<g id="edge20" class="edge">
<title>Node2&#45;&gt;Node21</title>
<path fill="none" stroke="midnightblue" d="M1760.52,-130.92C1670.31,-122.51 1513.32,-106.68 1379.5,-87 1376.74,-86.59 1373.93,-86.16 1371.09,-85.71"/>
<polygon fill="midnightblue" stroke="midnightblue" points="1760.36,-134.42 1770.64,-131.85 1761.01,-127.45 1760.36,-134.42"/>
</g>
<!-- Node22 -->
<g id="node22" class="node">
<title>Node22</title>
<g id="a_node22"><a xlink:href="../../d8/de8/mainwindowsnogui_8cpp.html" target="_top" xlink:title=" ">
<polygon fill="white" stroke="black" points="1389,-62 1389,-81 1610,-81 1610,-62 1389,-62"/>
<text text-anchor="middle" x="1499.5" y="-69" font-family="Helvetica,sans-Serif" font-size="10.00">src/app/seamly2d/mainwindowsnogui.cpp</text>
</a>
</g>
</g>
<!-- Node2&#45;&gt;Node22 -->
<g id="edge21" class="edge">
<title>Node2&#45;&gt;Node22</title>
<path fill="none" stroke="midnightblue" d="M1760.69,-123.18C1694.14,-110.27 1598.5,-91.71 1543.32,-81"/>
<polygon fill="midnightblue" stroke="midnightblue" points="1760.22,-126.65 1770.7,-125.12 1761.55,-119.78 1760.22,-126.65"/>
</g>
<!-- Node23 -->
<g id="node23" class="node">
<title>Node23</title>
<g id="a_node23"><a xlink:href="../../d3/d49/vpattern_8cpp.html" target="_top" xlink:title=" ">
<polygon fill="white" stroke="black" points="1628,-56.5 1628,-86.5 1753,-86.5 1753,-56.5 1628,-56.5"/>
<text text-anchor="start" x="1636" y="-74.5" font-family="Helvetica,sans-Serif" font-size="10.00">src/app/seamly2d/xml</text>
<text text-anchor="middle" x="1690.5" y="-63.5" font-family="Helvetica,sans-Serif" font-size="10.00">/vpattern.cpp</text>
</a>
</g>
</g>
<!-- Node2&#45;&gt;Node23 -->
<g id="edge22" class="edge">
<title>Node2&#45;&gt;Node23</title>
<path fill="none" stroke="midnightblue" d="M1794.11,-119.27C1771.18,-108.92 1742.9,-96.15 1721.68,-86.58"/>
<polygon fill="midnightblue" stroke="midnightblue" points="1792.7,-122.47 1803.25,-123.4 1795.58,-116.09 1792.7,-122.47"/>
</g>
<!-- Node2&#45;&gt;Node24 -->
<g id="edge23" class="edge">
<title>Node2&#45;&gt;Node24</title>
<path fill="none" stroke="midnightblue" d="M1760.83,-133.33C1705.03,-130.24 1626.45,-126.06 1557.5,-123 1502.68,-120.57 608.59,-126.5 570.5,-87 560.94,-77.08 560.82,-65.81 570.5,-56 599.98,-26.12 3294.49,-13.59 3836.25,-11.37"/>
<polygon fill="midnightblue" stroke="midnightblue" points="1760.8,-136.83 1770.98,-133.89 1761.19,-129.84 1760.8,-136.83"/>
</g>
<!-- Node25&#45;&gt;Node14 -->
<g id="edge28" class="edge">
<title>Node25&#45;&gt;Node14</title>
<path fill="none" stroke="midnightblue" d="M3764.5,-113.11C3764.5,-104.15 3764.5,-94.32 3764.5,-86.58"/>
<polygon fill="midnightblue" stroke="midnightblue" points="3761,-113.4 3764.5,-123.4 3768,-113.4 3761,-113.4"/>
</g>
<!-- Node26 -->
<g id="node26" class="node">
<title>Node26</title>
<g id="a_node26"><a xlink:href="../../d6/d64/dialogs_8h.html" target="_top" xlink:title=" ">
<polygon fill="white" stroke="black" points="3860,-56.5 3860,-86.5 4001,-86.5 4001,-56.5 3860,-56.5"/>
<text text-anchor="start" x="3868" y="-74.5" font-family="Helvetica,sans-Serif" font-size="10.00">src/app/seamly2d/dialogs</text>
<text text-anchor="middle" x="3930.5" y="-63.5" font-family="Helvetica,sans-Serif" font-size="10.00">/dialogs.h</text>
</a>
</g>
</g>
<!-- Node25&#45;&gt;Node26 -->
<g id="edge29" class="edge">
<title>Node25&#45;&gt;Node26</title>
<path fill="none" stroke="midnightblue" d="M3810.01,-119.68C3836.63,-109.26 3869.77,-96.28 3894.55,-86.58"/>
<polygon fill="midnightblue" stroke="midnightblue" points="3808.55,-116.49 3800.52,-123.4 3811.11,-123.01 3808.55,-116.49"/>
</g>
<!-- Node26&#45;&gt;Node24 -->
<g id="edge30" class="edge">
<title>Node26&#45;&gt;Node24</title>
<path fill="none" stroke="midnightblue" d="M3930.5,-46.29C3930.5,-36.86 3930.5,-26.65 3930.5,-19.66"/>
<polygon fill="midnightblue" stroke="midnightblue" points="3927,-46.4 3930.5,-56.4 3934,-46.4 3927,-46.4"/>
</g>
</g>
</svg>
