<?xml version="1.0" encoding="UTF-8" standalone="no"?>
<!DOCTYPE svg PUBLIC "-//W3C//DTD SVG 1.1//EN"
 "http://www.w3.org/Graphics/SVG/1.1/DTD/svg11.dtd">
<!-- Generated by graphviz version 2.43.0 (0)
 -->
<!-- Title: src/app/seamly2d/options.h Pages: 1 -->
<!--zoomable 218 -->
<svg id="main" version="1.1" xmlns="http://www.w3.org/2000/svg" xmlns:xlink="http://www.w3.org/1999/xlink" xml:space="preserve" onload="init(evt)">
<style type="text/css"><![CDATA[
.edge:hover path { stroke: red; }
.edge:hover polygon { stroke: red; fill: red; }
]]></style>
<script type="text/javascript"><![CDATA[
var edges = document.getElementsByTagName('g');
if (edges && edges.length) {
  for (var i=0;i<edges.length;i++) {
    if (edges[i].id.substr(0,4)=='edge') {
      edges[i].setAttribute('class','edge');
    }
  }
}
]]></script>
        <defs>
                <circle id="rim" cx="0" cy="0" r="7"/>
                <circle id="rim2" cx="0" cy="0" r="3.5"/>
                <g id="zoomPlus">
                        <use xlink:href="#rim" fill="#404040">
                                <set attributeName="fill" to="#808080" begin="zoomplus.mouseover" end="zoomplus.mouseout"/>
                        </use>
                        <path d="M-4,0h8M0,-4v8" fill="none" stroke="white" stroke-width="1.5" pointer-events="none"/>
                </g>
                <g id="zoomMin">
                        <use xlink:href="#rim" fill="#404040">
                                <set attributeName="fill" to="#808080" begin="zoomminus.mouseover" end="zoomminus.mouseout"/>
                        </use>
                        <path d="M-4,0h8" fill="none" stroke="white" stroke-width="1.5" pointer-events="none"/>
                </g>
                <g id="dirArrow">
                        <path fill="none" stroke="white" stroke-width="1.5" d="M0,-3.0v7 M-2.5,-0.5L0,-3.0L2.5,-0.5"/>
                </g>
               <g id="resetDef">
                       <use xlink:href="#rim2" fill="#404040">
                               <set attributeName="fill" to="#808080" begin="reset.mouseover" end="reset.mouseout"/>
                       </use>
               </g>
        </defs>

<script type="text/javascript">
var viewWidth = 4034;
var viewHeight = 218;
var sectionId = 'dynsection-1';
</script>
<script xlink:href="../../svgpan.js"/>
<svg id="graph" class="graph">
<g id="viewport">
<title>src/app/seamly2d/options.h</title>
<polygon fill="white" stroke="transparent" points="-4,4 -4,-214 4029.5,-214 4029.5,4 -4,4"/>
<!-- Node1 -->
<g id="node1" class="node">
<title>Node1</title>
<g id="a_node1"><a xlink:title=" ">
<polygon fill="#bfbfbf" stroke="black" points="2562,-190.5 2562,-209.5 2713,-209.5 2713,-190.5 2562,-190.5"/>
<text text-anchor="middle" x="2637.5" y="-197.5" font-family="Helvetica,sans-Serif" font-size="10.00">src/app/seamly2d/options.h</text>
</a>
</g>
</g>
<!-- Node2 -->
<g id="node2" class="node">
<title>Node2</title>
<g id="a_node2"><a xlink:href="../../d9/d02/vapplication_8h.html" target="_top" xlink:title=" ">
<polygon fill="white" stroke="black" points="1773,-123.5 1773,-153.5 1900,-153.5 1900,-123.5 1773,-123.5"/>
<text text-anchor="start" x="1781" y="-141.5" font-family="Helvetica,sans-Serif" font-size="10.00">src/app/seamly2d/core</text>
<text text-anchor="middle" x="1836.5" y="-130.5" font-family="Helvetica,sans-Serif" font-size="10.00">/vapplication.h</text>
</a>
</g>
</g>
<!-- Node1&#45;&gt;Node2 -->
<g id="edge1" class="edge">
<title>Node1&#45;&gt;Node2</title>
<path fill="none" stroke="midnightblue" d="M2551.38,-192.6C2389.4,-180.57 2042.83,-154.83 1900.02,-144.22"/>
<polygon fill="midnightblue" stroke="midnightblue" points="2551.55,-196.13 2561.78,-193.38 2552.07,-189.14 2551.55,-196.13"/>
</g>
<!-- Node5 -->
<g id="node5" class="node">
<title>Node5</title>
<g id="a_node5"><a xlink:href="../../d7/dfa/calculator__dialog_8cpp.html" target="_top" xlink:title=" ">
<polygon fill="white" stroke="black" points="0,-56.5 0,-86.5 141,-86.5 141,-56.5 0,-56.5"/>
<text text-anchor="start" x="8" y="-74.5" font-family="Helvetica,sans-Serif" font-size="10.00">src/app/seamly2d/dialogs</text>
<text text-anchor="middle" x="70.5" y="-63.5" font-family="Helvetica,sans-Serif" font-size="10.00">/calculator_dialog.cpp</text>
</a>
</g>
</g>
<!-- Node1&#45;&gt;Node5 -->
<g id="edge24" class="edge">
<title>Node1&#45;&gt;Node5</title>
<path fill="none" stroke="midnightblue" d="M2551.5,-198.09C2226.79,-194.48 1075.29,-180.09 709.5,-154 459.47,-136.17 397.34,-124.53 149.5,-87 146.74,-86.58 143.93,-86.14 141.1,-85.68"/>
<polygon fill="midnightblue" stroke="midnightblue" points="2551.74,-201.59 2561.78,-198.2 2551.82,-194.59 2551.74,-201.59"/>
</g>
<!-- Node8 -->
<g id="node8" class="node">
<title>Node8</title>
<g id="a_node8"><a xlink:href="../../dc/d20/preferencespathpage_8cpp.html" target="_top" xlink:title=" ">
<polygon fill="white" stroke="black" points="159,-56.5 159,-86.5 364,-86.5 364,-56.5 159,-56.5"/>
<text text-anchor="start" x="167" y="-74.5" font-family="Helvetica,sans-Serif" font-size="10.00">src/app/seamly2d/dialogs</text>
<text text-anchor="middle" x="261.5" y="-63.5" font-family="Helvetica,sans-Serif" font-size="10.00">/configpages/preferencespathpage.cpp</text>
</a>
</g>
</g>
<!-- Node1&#45;&gt;Node8 -->
<g id="edge25" class="edge">
<title>Node1&#45;&gt;Node8</title>
<path fill="none" stroke="midnightblue" d="M2551.44,-198.19C2320.97,-195.63 1670.59,-185.91 1130.5,-154 792.89,-134.06 708.69,-123.8 372.5,-87 369.8,-86.7 367.05,-86.4 364.29,-86.08"/>
<polygon fill="midnightblue" stroke="midnightblue" points="2551.73,-201.69 2561.77,-198.3 2551.81,-194.69 2551.73,-201.69"/>
</g>
<!-- Node12 -->
<g id="node12" class="node">
<title>Node12</title>
<g id="a_node12"><a xlink:href="../../d6/d89/dialoglayoutprogress_8cpp.html" target="_top" xlink:title=" ">
<polygon fill="white" stroke="black" points="382,-56.5 382,-86.5 525,-86.5 525,-56.5 382,-56.5"/>
<text text-anchor="start" x="390" y="-74.5" font-family="Helvetica,sans-Serif" font-size="10.00">src/app/seamly2d/dialogs</text>
<text text-anchor="middle" x="453.5" y="-63.5" font-family="Helvetica,sans-Serif" font-size="10.00">/dialoglayoutprogress.cpp</text>
</a>
</g>
</g>
<!-- Node1&#45;&gt;Node12 -->
<g id="edge26" class="edge">
<title>Node1&#45;&gt;Node12</title>
<path fill="none" stroke="midnightblue" d="M2551.75,-194.71C2395.17,-186.84 2052.44,-169.49 1763.5,-154 1496.36,-139.68 827.83,-112.26 561.5,-87 549.73,-85.88 537.27,-84.45 525.16,-82.92"/>
<polygon fill="midnightblue" stroke="midnightblue" points="2551.63,-198.2 2561.8,-195.21 2551.99,-191.21 2551.63,-198.2"/>
</g>
<!-- Node15 -->
<g id="node15" class="node">
<title>Node15</title>
<g id="a_node15"><a xlink:href="../../dd/d64/dialogaboutapp_8cpp.html" target="_top" xlink:title=" ">
<polygon fill="white" stroke="black" points="3368,-56.5 3368,-86.5 3509,-86.5 3509,-56.5 3368,-56.5"/>
<text text-anchor="start" x="3376" y="-74.5" font-family="Helvetica,sans-Serif" font-size="10.00">src/app/seamly2d/dialogs</text>
<text text-anchor="middle" x="3438.5" y="-63.5" font-family="Helvetica,sans-Serif" font-size="10.00">/dialogaboutapp.cpp</text>
</a>
</g>
</g>
<!-- Node1&#45;&gt;Node15 -->
<g id="edge31" class="edge">
<title>Node1&#45;&gt;Node15</title>
<path fill="none" stroke="midnightblue" d="M2706.17,-188.99C2834.62,-170.13 3119.92,-127.56 3359.5,-87 3362.25,-86.53 3365.05,-86.05 3367.88,-85.56"/>
<polygon fill="midnightblue" stroke="midnightblue" points="2705.47,-185.56 2696.08,-190.47 2706.48,-192.48 2705.47,-185.56"/>
</g>
<!-- Node16 -->
<g id="node16" class="node">
<title>Node16</title>
<g id="a_node16"><a xlink:href="../../dd/d54/export__layout__dialog_8cpp.html" target="_top" xlink:title=" ">
<polygon fill="white" stroke="black" points="3527,-56.5 3527,-86.5 3670,-86.5 3670,-56.5 3527,-56.5"/>
<text text-anchor="start" x="3535" y="-74.5" font-family="Helvetica,sans-Serif" font-size="10.00">src/app/seamly2d/dialogs</text>
<text text-anchor="middle" x="3598.5" y="-63.5" font-family="Helvetica,sans-Serif" font-size="10.00">/export_layout_dialog.cpp</text>
</a>
</g>
</g>
<!-- Node1&#45;&gt;Node16 -->
<g id="edge32" class="edge">
<title>Node1&#45;&gt;Node16</title>
<path fill="none" stroke="midnightblue" d="M2723.33,-190.46C2806.74,-181.97 2936.94,-168.18 3049.5,-154 3258.41,-127.68 3310.65,-120.67 3518.5,-87 3521.29,-86.55 3524.13,-86.08 3526.99,-85.6"/>
<polygon fill="midnightblue" stroke="midnightblue" points="2722.74,-187 2713.15,-191.5 2723.45,-193.97 2722.74,-187"/>
</g>
<!-- Node24 -->
<g id="node24" class="node">
<title>Node24</title>
<g id="a_node24"><a xlink:href="../../d8/dd9/mainwindow_8cpp.html" target="_top" xlink:title=" ">
<polygon fill="white" stroke="black" points="3837.5,-0.5 3837.5,-19.5 4025.5,-19.5 4025.5,-0.5 3837.5,-0.5"/>
<text text-anchor="middle" x="3931.5" y="-7.5" font-family="Helvetica,sans-Serif" font-size="10.00">src/app/seamly2d/mainwindow.cpp</text>
</a>
</g>
</g>
<!-- Node1&#45;&gt;Node24 -->
<g id="edge33" class="edge">
<title>Node1&#45;&gt;Node24</title>
<path fill="none" stroke="midnightblue" d="M2723.1,-199.67C2961.89,-200.91 3631.9,-200.07 3846.5,-154 3923.89,-137.39 3967.3,-152.66 4011.5,-87 4019.19,-75.57 4018.46,-67.89 4011.5,-56 4000.8,-37.71 3979.63,-26.27 3961.75,-19.51"/>
<polygon fill="midnightblue" stroke="midnightblue" points="2723.1,-196.17 2713.08,-199.61 2723.06,-203.17 2723.1,-196.17"/>
</g>
<!-- Node25 -->
<g id="node25" class="node">
<title>Node25</title>
<g id="a_node25"><a xlink:href="../../d5/d4e/dialogpatternproperties_8h.html" target="_top" xlink:title=" ">
<polygon fill="white" stroke="black" points="3694,-123.5 3694,-153.5 3837,-153.5 3837,-123.5 3694,-123.5"/>
<text text-anchor="start" x="3702" y="-141.5" font-family="Helvetica,sans-Serif" font-size="10.00">src/app/seamly2d/dialogs</text>
<text text-anchor="middle" x="3765.5" y="-130.5" font-family="Helvetica,sans-Serif" font-size="10.00">/dialogpatternproperties.h</text>
</a>
</g>
</g>
<!-- Node1&#45;&gt;Node25 -->
<g id="edge27" class="edge">
<title>Node1&#45;&gt;Node25</title>
<path fill="none" stroke="midnightblue" d="M2723.54,-194.46C2938.32,-183.13 3495.04,-153.77 3693.73,-143.29"/>
<polygon fill="midnightblue" stroke="midnightblue" points="2723.06,-190.98 2713.26,-195 2723.43,-197.97 2723.06,-190.98"/>
</g>
<!-- Node3 -->
<g id="node3" class="node">
<title>Node3</title>
<g id="a_node3"><a xlink:href="../../d3/dd8/vapplication_8cpp.html" target="_top" xlink:title=" ">
<polygon fill="white" stroke="black" points="1773,-56.5 1773,-86.5 1900,-86.5 1900,-56.5 1773,-56.5"/>
<text text-anchor="start" x="1781" y="-74.5" font-family="Helvetica,sans-Serif" font-size="10.00">src/app/seamly2d/core</text>
<text text-anchor="middle" x="1836.5" y="-63.5" font-family="Helvetica,sans-Serif" font-size="10.00">/vapplication.cpp</text>
</a>
</g>
</g>
<!-- Node2&#45;&gt;Node3 -->
<g id="edge2" class="edge">
<title>Node2&#45;&gt;Node3</title>
<path fill="none" stroke="midnightblue" d="M1836.5,-113.11C1836.5,-104.15 1836.5,-94.32 1836.5,-86.58"/>
<polygon fill="midnightblue" stroke="midnightblue" points="1833,-113.4 1836.5,-123.4 1840,-113.4 1833,-113.4"/>
</g>
<!-- Node4 -->
<g id="node4" class="node">
<title>Node4</title>
<g id="a_node4"><a xlink:href="../../dd/db4/abstractlayout__dialog_8cpp.html" target="_top" xlink:title=" ">
<polygon fill="white" stroke="black" points="1918.5,-56.5 1918.5,-86.5 2064.5,-86.5 2064.5,-56.5 1918.5,-56.5"/>
<text text-anchor="start" x="1926.5" y="-74.5" font-family="Helvetica,sans-Serif" font-size="10.00">src/app/seamly2d/dialogs</text>
<text text-anchor="middle" x="1991.5" y="-63.5" font-family="Helvetica,sans-Serif" font-size="10.00">/abstractlayout_dialog.cpp</text>
</a>
</g>
</g>
<!-- Node2&#45;&gt;Node4 -->
<g id="edge3" class="edge">
<title>Node2&#45;&gt;Node4</title>
<path fill="none" stroke="midnightblue" d="M1879.65,-119.41C1904.39,-109.03 1935,-96.2 1957.93,-86.58"/>
<polygon fill="midnightblue" stroke="midnightblue" points="1878,-116.3 1870.13,-123.4 1880.71,-122.76 1878,-116.3"/>
</g>
<!-- Node2&#45;&gt;Node5 -->
<g id="edge4" class="edge">
<title>Node2&#45;&gt;Node5</title>
<path fill="none" stroke="midnightblue" d="M1762.57,-136.78C1480.13,-133.79 469.16,-120.92 149.5,-87 146.73,-86.71 143.9,-86.37 141.06,-86"/>
<polygon fill="midnightblue" stroke="midnightblue" points="1762.66,-140.28 1772.7,-136.89 1762.74,-133.28 1762.66,-140.28"/>
</g>
<!-- Node6 -->
<g id="node6" class="node">
<title>Node6</title>
<g id="a_node6"><a xlink:href="../../d2/d2d/preferencesconfigurationpage_8cpp.html" target="_top" xlink:title=" ">
<polygon fill="white" stroke="black" points="2083,-56.5 2083,-86.5 2330,-86.5 2330,-56.5 2083,-56.5"/>
<text text-anchor="start" x="2091" y="-74.5" font-family="Helvetica,sans-Serif" font-size="10.00">src/app/seamly2d/dialogs</text>
<text text-anchor="middle" x="2206.5" y="-63.5" font-family="Helvetica,sans-Serif" font-size="10.00">/configpages/preferencesconfigurationpage.cpp</text>
</a>
</g>
</g>
<!-- Node2&#45;&gt;Node6 -->
<g id="edge5" class="edge">
<title>Node2&#45;&gt;Node6</title>
<path fill="none" stroke="midnightblue" d="M1910.29,-124.54C1972.86,-113.54 2062.42,-97.81 2126.65,-86.53"/>
<polygon fill="midnightblue" stroke="midnightblue" points="1909.35,-121.15 1900.11,-126.33 1910.56,-128.04 1909.35,-121.15"/>
</g>
<!-- Node7 -->
<g id="node7" class="node">
<title>Node7</title>
<g id="a_node7"><a xlink:href="../../d9/d70/preferencesgraphicsviewpage_8cpp.html" target="_top" xlink:title=" ">
<polygon fill="white" stroke="black" points="2348.5,-56.5 2348.5,-86.5 2596.5,-86.5 2596.5,-56.5 2348.5,-56.5"/>
<text text-anchor="start" x="2356.5" y="-74.5" font-family="Helvetica,sans-Serif" font-size="10.00">src/app/seamly2d/dialogs</text>
<text text-anchor="middle" x="2472.5" y="-63.5" font-family="Helvetica,sans-Serif" font-size="10.00">/configpages/preferencesgraphicsviewpage.cpp</text>
</a>
</g>
</g>
<!-- Node2&#45;&gt;Node7 -->
<g id="edge6" class="edge">
<title>Node2&#45;&gt;Node7</title>
<path fill="none" stroke="midnightblue" d="M1910.4,-130.24C2008.31,-120.58 2186.41,-102.88 2338.5,-87 2341.76,-86.66 2345.06,-86.31 2348.39,-85.96"/>
<polygon fill="midnightblue" stroke="midnightblue" points="1909.92,-126.77 1900.31,-131.24 1910.6,-133.74 1909.92,-126.77"/>
</g>
<!-- Node2&#45;&gt;Node8 -->
<g id="edge7" class="edge">
<title>Node2&#45;&gt;Node8</title>
<path fill="none" stroke="midnightblue" d="M1762.67,-135.89C1505.08,-130.11 647,-109.61 372.5,-87 369.79,-86.78 367.04,-86.53 364.27,-86.28"/>
<polygon fill="midnightblue" stroke="midnightblue" points="1762.59,-139.39 1772.67,-136.11 1762.75,-132.39 1762.59,-139.39"/>
</g>
<!-- Node9 -->
<g id="node9" class="node">
<title>Node9</title>
<g id="a_node9"><a xlink:href="../../dd/dc2/decimalchart__dialog_8cpp.html" target="_top" xlink:title=" ">
<polygon fill="white" stroke="black" points="2615,-56.5 2615,-86.5 2756,-86.5 2756,-56.5 2615,-56.5"/>
<text text-anchor="start" x="2623" y="-74.5" font-family="Helvetica,sans-Serif" font-size="10.00">src/app/seamly2d/dialogs</text>
<text text-anchor="middle" x="2685.5" y="-63.5" font-family="Helvetica,sans-Serif" font-size="10.00">/decimalchart_dialog.cpp</text>
</a>
</g>
</g>
<!-- Node2&#45;&gt;Node9 -->
<g id="edge8" class="edge">
<title>Node2&#45;&gt;Node9</title>
<path fill="none" stroke="midnightblue" d="M1910.42,-135.44C2047.78,-131 2351.51,-118.25 2605.5,-87 2608.58,-86.62 2611.73,-86.2 2614.9,-85.75"/>
<polygon fill="midnightblue" stroke="midnightblue" points="1909.91,-131.96 1900.03,-135.77 1910.14,-138.95 1909.91,-131.96"/>
</g>
<!-- Node10 -->
<g id="node10" class="node">
<title>Node10</title>
<g id="a_node10"><a xlink:href="../../dc/d63/preferencespatternpage_8cpp.html" target="_top" xlink:title=" ">
<polygon fill="white" stroke="black" points="2774.5,-56.5 2774.5,-86.5 2992.5,-86.5 2992.5,-56.5 2774.5,-56.5"/>
<text text-anchor="start" x="2782.5" y="-74.5" font-family="Helvetica,sans-Serif" font-size="10.00">src/app/seamly2d/dialogs</text>
<text text-anchor="middle" x="2883.5" y="-63.5" font-family="Helvetica,sans-Serif" font-size="10.00">/configpages/preferencespatternpage.cpp</text>
</a>
</g>
</g>
<!-- Node2&#45;&gt;Node10 -->
<g id="edge9" class="edge">
<title>Node2&#45;&gt;Node10</title>
<path fill="none" stroke="midnightblue" d="M1910.2,-135.16C2067.41,-129.82 2447.2,-114.93 2764.5,-87 2767.71,-86.72 2770.97,-86.42 2774.26,-86.1"/>
<polygon fill="midnightblue" stroke="midnightblue" points="1910.05,-131.67 1900.17,-135.5 1910.29,-138.66 1910.05,-131.67"/>
</g>
<!-- Node11 -->
<g id="node11" class="node">
<title>Node11</title>
<g id="a_node11"><a xlink:href="../../d2/d00/vtooloptionspropertybrowser_8cpp.html" target="_top" xlink:title=" ">
<polygon fill="white" stroke="black" points="3010.5,-56.5 3010.5,-86.5 3190.5,-86.5 3190.5,-56.5 3010.5,-56.5"/>
<text text-anchor="start" x="3018.5" y="-74.5" font-family="Helvetica,sans-Serif" font-size="10.00">src/app/seamly2d/core</text>
<text text-anchor="middle" x="3100.5" y="-63.5" font-family="Helvetica,sans-Serif" font-size="10.00">/vtooloptionspropertybrowser.cpp</text>
</a>
</g>
</g>
<!-- Node2&#45;&gt;Node11 -->
<g id="edge10" class="edge">
<title>Node2&#45;&gt;Node11</title>
<path fill="none" stroke="midnightblue" d="M1910.23,-136.91C2094.6,-134.88 2590.31,-125.92 3001.5,-87 3004.44,-86.72 3007.43,-86.42 3010.44,-86.09"/>
<polygon fill="midnightblue" stroke="midnightblue" points="1910.08,-133.41 1900.11,-137.02 1910.15,-140.41 1910.08,-133.41"/>
</g>
<!-- Node2&#45;&gt;Node12 -->
<g id="edge11" class="edge">
<title>Node2&#45;&gt;Node12</title>
<path fill="none" stroke="midnightblue" d="M1762.57,-133.31C1706.56,-130.21 1627.7,-126.03 1558.5,-123 1105.76,-103.2 990.35,-132.77 539.5,-87 534.83,-86.53 530.03,-85.95 525.2,-85.31"/>
<polygon fill="midnightblue" stroke="midnightblue" points="1762.57,-136.81 1772.75,-133.87 1762.96,-129.82 1762.57,-136.81"/>
</g>
<!-- Node13 -->
<g id="node13" class="node">
<title>Node13</title>
<g id="a_node13"><a xlink:href="../../d5/dc5/dialogpreferences_8cpp.html" target="_top" xlink:title=" ">
<polygon fill="white" stroke="black" points="3209,-56.5 3209,-86.5 3350,-86.5 3350,-56.5 3209,-56.5"/>
<text text-anchor="start" x="3217" y="-74.5" font-family="Helvetica,sans-Serif" font-size="10.00">src/app/seamly2d/dialogs</text>
<text text-anchor="middle" x="3279.5" y="-63.5" font-family="Helvetica,sans-Serif" font-size="10.00">/dialogpreferences.cpp</text>
</a>
</g>
</g>
<!-- Node2&#45;&gt;Node13 -->
<g id="edge12" class="edge">
<title>Node2&#45;&gt;Node13</title>
<path fill="none" stroke="midnightblue" d="M1910.59,-136.15C2156.8,-131.43 2946.39,-114.49 3199.5,-87 3202.59,-86.66 3205.73,-86.28 3208.91,-85.86"/>
<polygon fill="midnightblue" stroke="midnightblue" points="1910.25,-132.65 1900.32,-136.34 1910.38,-139.65 1910.25,-132.65"/>
</g>
<!-- Node14 -->
<g id="node14" class="node">
<title>Node14</title>
<g id="a_node14"><a xlink:href="../../d5/d18/dialogpatternproperties_8cpp.html" target="_top" xlink:title=" ">
<polygon fill="white" stroke="black" points="3688,-56.5 3688,-86.5 3843,-86.5 3843,-56.5 3688,-56.5"/>
<text text-anchor="start" x="3696" y="-74.5" font-family="Helvetica,sans-Serif" font-size="10.00">src/app/seamly2d/dialogs</text>
<text text-anchor="middle" x="3765.5" y="-63.5" font-family="Helvetica,sans-Serif" font-size="10.00">/dialogpatternproperties.cpp</text>
</a>
</g>
</g>
<!-- Node2&#45;&gt;Node14 -->
<g id="edge13" class="edge">
<title>Node2&#45;&gt;Node14</title>
<path fill="none" stroke="midnightblue" d="M1910.67,-136.85C2209.69,-134.02 3327.47,-121.33 3679.5,-87 3682.21,-86.74 3684.97,-86.44 3687.75,-86.11"/>
<polygon fill="midnightblue" stroke="midnightblue" points="1910.35,-133.35 1900.38,-136.95 1910.41,-140.35 1910.35,-133.35"/>
</g>
<!-- Node2&#45;&gt;Node15 -->
<g id="edge14" class="edge">
<title>Node2&#45;&gt;Node15</title>
<path fill="none" stroke="midnightblue" d="M1910.63,-136.5C2175.38,-132.7 3073.65,-117.8 3359.5,-87 3362.27,-86.7 3365.09,-86.36 3367.94,-85.99"/>
<polygon fill="midnightblue" stroke="midnightblue" points="1910.31,-133 1900.36,-136.65 1910.41,-140 1910.31,-133"/>
</g>
<!-- Node2&#45;&gt;Node16 -->
<g id="edge15" class="edge">
<title>Node2&#45;&gt;Node16</title>
<path fill="none" stroke="midnightblue" d="M1910.21,-136.75C2191.81,-133.67 3199.75,-120.48 3518.5,-87 3521.17,-86.72 3523.88,-86.4 3526.61,-86.05"/>
<polygon fill="midnightblue" stroke="midnightblue" points="1910.07,-133.25 1900.11,-136.86 1910.15,-140.25 1910.07,-133.25"/>
</g>
<!-- Node17 -->
<g id="node17" class="node">
<title>Node17</title>
<g id="a_node17"><a xlink:href="../../db/d5c/groups__widget_8cpp.html" target="_top" xlink:title=" ">
<polygon fill="white" stroke="black" points="582,-56.5 582,-86.5 723,-86.5 723,-56.5 582,-56.5"/>
<text text-anchor="start" x="590" y="-74.5" font-family="Helvetica,sans-Serif" font-size="10.00">src/app/seamly2d/dialogs</text>
<text text-anchor="middle" x="652.5" y="-63.5" font-family="Helvetica,sans-Serif" font-size="10.00">/groups_widget.cpp</text>
</a>
</g>
</g>
<!-- Node2&#45;&gt;Node17 -->
<g id="edge16" class="edge">
<title>Node2&#45;&gt;Node17</title>
<path fill="none" stroke="midnightblue" d="M1762.56,-133.47C1706.55,-130.46 1627.69,-126.31 1558.5,-123 1191.02,-105.42 1097.08,-128.31 731.5,-87 728.73,-86.69 725.91,-86.33 723.06,-85.95"/>
<polygon fill="midnightblue" stroke="midnightblue" points="1762.57,-136.98 1772.74,-134.02 1762.95,-129.99 1762.57,-136.98"/>
</g>
<!-- Node18 -->
<g id="node18" class="node">
<title>Node18</title>
<g id="a_node18"><a xlink:href="../../d0/dfa/layoutsettings__dialog_8cpp.html" target="_top" xlink:title=" ">
<polygon fill="white" stroke="black" points="741,-56.5 741,-86.5 886,-86.5 886,-56.5 741,-56.5"/>
<text text-anchor="start" x="749" y="-74.5" font-family="Helvetica,sans-Serif" font-size="10.00">src/app/seamly2d/dialogs</text>
<text text-anchor="middle" x="813.5" y="-63.5" font-family="Helvetica,sans-Serif" font-size="10.00">/layoutsettings_dialog.cpp</text>
</a>
</g>
</g>
<!-- Node2&#45;&gt;Node18 -->
<g id="edge17" class="edge">
<title>Node2&#45;&gt;Node18</title>
<path fill="none" stroke="midnightblue" d="M1762.8,-133.61C1542.8,-121.99 905.27,-88.25 894.5,-87 891.8,-86.69 889.06,-86.34 886.29,-85.97"/>
<polygon fill="midnightblue" stroke="midnightblue" points="1762.79,-137.11 1772.96,-134.15 1763.16,-130.12 1762.79,-137.11"/>
</g>
<!-- Node19 -->
<g id="node19" class="node">
<title>Node19</title>
<g id="a_node19"><a xlink:href="../../dc/d14/app_2seamly2d_2main_8cpp.html" target="_top" xlink:title=" ">
<polygon fill="white" stroke="black" points="904,-62 904,-81 1055,-81 1055,-62 904,-62"/>
<text text-anchor="middle" x="979.5" y="-69" font-family="Helvetica,sans-Serif" font-size="10.00">src/app/seamly2d/main.cpp</text>
</a>
</g>
</g>
<!-- Node2&#45;&gt;Node19 -->
<g id="edge18" class="edge">
<title>Node2&#45;&gt;Node19</title>
<path fill="none" stroke="midnightblue" d="M1762.87,-133.69C1596.89,-124.93 1197.58,-102.91 1063.5,-87 1050.57,-85.47 1036.6,-83.27 1023.84,-81.06"/>
<polygon fill="midnightblue" stroke="midnightblue" points="1762.82,-137.19 1772.99,-134.22 1763.18,-130.2 1762.82,-137.19"/>
</g>
<!-- Node20 -->
<g id="node20" class="node">
<title>Node20</title>
<g id="a_node20"><a xlink:href="../../d2/df4/show__info__dialog_8cpp.html" target="_top" xlink:title=" ">
<polygon fill="white" stroke="black" points="1073,-56.5 1073,-86.5 1214,-86.5 1214,-56.5 1073,-56.5"/>
<text text-anchor="start" x="1081" y="-74.5" font-family="Helvetica,sans-Serif" font-size="10.00">src/app/seamly2d/dialogs</text>
<text text-anchor="middle" x="1143.5" y="-63.5" font-family="Helvetica,sans-Serif" font-size="10.00">/show_info_dialog.cpp</text>
</a>
</g>
</g>
<!-- Node2&#45;&gt;Node20 -->
<g id="edge19" class="edge">
<title>Node2&#45;&gt;Node20</title>
<path fill="none" stroke="midnightblue" d="M1762.48,-133.8C1646.86,-127.47 1416.51,-112.72 1222.5,-87 1219.74,-86.63 1216.92,-86.24 1214.08,-85.81"/>
<polygon fill="midnightblue" stroke="midnightblue" points="1762.46,-137.3 1772.64,-134.34 1762.84,-130.31 1762.46,-137.3"/>
</g>
<!-- Node21 -->
<g id="node21" class="node">
<title>Node21</title>
<g id="a_node21"><a xlink:href="../../dd/d84/shortcuts__dialog_8cpp.html" target="_top" xlink:title=" ">
<polygon fill="white" stroke="black" points="1232,-56.5 1232,-86.5 1373,-86.5 1373,-56.5 1232,-56.5"/>
<text text-anchor="start" x="1240" y="-74.5" font-family="Helvetica,sans-Serif" font-size="10.00">src/app/seamly2d/dialogs</text>
<text text-anchor="middle" x="1302.5" y="-63.5" font-family="Helvetica,sans-Serif" font-size="10.00">/shortcuts_dialog.cpp</text>
</a>
</g>
</g>
<!-- Node2&#45;&gt;Node21 -->
<g id="edge20" class="edge">
<title>Node2&#45;&gt;Node21</title>
<path fill="none" stroke="midnightblue" d="M1762.52,-130.92C1672.31,-122.51 1515.32,-106.68 1381.5,-87 1378.74,-86.59 1375.93,-86.16 1373.09,-85.71"/>
<polygon fill="midnightblue" stroke="midnightblue" points="1762.36,-134.42 1772.64,-131.85 1763.01,-127.45 1762.36,-134.42"/>
</g>
<!-- Node22 -->
<g id="node22" class="node">
<title>Node22</title>
<g id="a_node22"><a xlink:href="../../d8/de8/mainwindowsnogui_8cpp.html" target="_top" xlink:title=" ">
<polygon fill="white" stroke="black" points="1391,-62 1391,-81 1612,-81 1612,-62 1391,-62"/>
<text text-anchor="middle" x="1501.5" y="-69" font-family="Helvetica,sans-Serif" font-size="10.00">src/app/seamly2d/mainwindowsnogui.cpp</text>
</a>
</g>
</g>
<!-- Node2&#45;&gt;Node22 -->
<g id="edge21" class="edge">
<title>Node2&#45;&gt;Node22</title>
<path fill="none" stroke="midnightblue" d="M1762.69,-123.18C1696.14,-110.27 1600.5,-91.71 1545.32,-81"/>
<polygon fill="midnightblue" stroke="midnightblue" points="1762.22,-126.65 1772.7,-125.12 1763.55,-119.78 1762.22,-126.65"/>
</g>
<!-- Node23 -->
<g id="node23" class="node">
<title>Node23</title>
<g id="a_node23"><a xlink:href="../../d3/d49/vpattern_8cpp.html" target="_top" xlink:title=" ">
<polygon fill="white" stroke="black" points="1630,-56.5 1630,-86.5 1755,-86.5 1755,-56.5 1630,-56.5"/>
<text text-anchor="start" x="1638" y="-74.5" font-family="Helvetica,sans-Serif" font-size="10.00">src/app/seamly2d/xml</text>
<text text-anchor="middle" x="1692.5" y="-63.5" font-family="Helvetica,sans-Serif" font-size="10.00">/vpattern.cpp</text>
</a>
</g>
</g>
<!-- Node2&#45;&gt;Node23 -->
<g id="edge22" class="edge">
<title>Node2&#45;&gt;Node23</title>
<path fill="none" stroke="midnightblue" d="M1796.11,-119.27C1773.18,-108.92 1744.9,-96.15 1723.68,-86.58"/>
<polygon fill="midnightblue" stroke="midnightblue" points="1794.7,-122.47 1805.25,-123.4 1797.58,-116.09 1794.7,-122.47"/>
</g>
<!-- Node2&#45;&gt;Node24 -->
<g id="edge23" class="edge">
<title>Node2&#45;&gt;Node24</title>
<path fill="none" stroke="midnightblue" d="M1762.57,-133.33C1706.56,-130.25 1627.7,-126.07 1558.5,-123 1503.74,-120.57 610.55,-126.46 572.5,-87 562.94,-77.08 562.82,-65.81 572.5,-56 601.97,-26.13 3295.68,-13.59 3837.28,-11.37"/>
<polygon fill="midnightblue" stroke="midnightblue" points="1762.57,-136.83 1772.75,-133.89 1762.96,-129.85 1762.57,-136.83"/>
</g>
<!-- Node25&#45;&gt;Node14 -->
<g id="edge28" class="edge">
<title>Node25&#45;&gt;Node14</title>
<path fill="none" stroke="midnightblue" d="M3765.5,-113.11C3765.5,-104.15 3765.5,-94.32 3765.5,-86.58"/>
<polygon fill="midnightblue" stroke="midnightblue" points="3762,-113.4 3765.5,-123.4 3769,-113.4 3762,-113.4"/>
</g>
<!-- Node26 -->
<g id="node26" class="node">
<title>Node26</title>
<g id="a_node26"><a xlink:href="../../d6/d64/dialogs_8h.html" target="_top" xlink:title=" ">
<polygon fill="white" stroke="black" points="3861,-56.5 3861,-86.5 4002,-86.5 4002,-56.5 3861,-56.5"/>
<text text-anchor="start" x="3869" y="-74.5" font-family="Helvetica,sans-Serif" font-size="10.00">src/app/seamly2d/dialogs</text>
<text text-anchor="middle" x="3931.5" y="-63.5" font-family="Helvetica,sans-Serif" font-size="10.00">/dialogs.h</text>
</a>
</g>
</g>
<!-- Node25&#45;&gt;Node26 -->
<g id="edge29" class="edge">
<title>Node25&#45;&gt;Node26</title>
<path fill="none" stroke="midnightblue" d="M3811.01,-119.68C3837.63,-109.26 3870.77,-96.28 3895.55,-86.58"/>
<polygon fill="midnightblue" stroke="midnightblue" points="3809.55,-116.49 3801.52,-123.4 3812.11,-123.01 3809.55,-116.49"/>
</g>
<!-- Node26&#45;&gt;Node24 -->
<g id="edge30" class="edge">
<title>Node26&#45;&gt;Node24</title>
<path fill="none" stroke="midnightblue" d="M3931.5,-46.29C3931.5,-36.86 3931.5,-26.65 3931.5,-19.66"/>
<polygon fill="midnightblue" stroke="midnightblue" points="3928,-46.4 3931.5,-56.4 3935,-46.4 3928,-46.4"/>
</g>
</g>
</svg>
        <g id="navigator" transform="translate(0 0)" fill="#404254">
                <rect fill="#f2f5e9" fill-opacity="0.5" stroke="#606060" stroke-width=".5" x="0" y="0" width="60" height="60"/>
                <use id="zoomplus" xlink:href="#zoomPlus" x="17" y="9" onmousedown="handleZoom(evt,'in')"/>
                <use id="zoomminus" xlink:href="#zoomMin" x="42" y="9" onmousedown="handleZoom(evt,'out')"/>
                <use id="reset" xlink:href="#resetDef" x="30" y="36" onmousedown="handleReset()"/>
                <g id="arrowUp" xlink:href="#dirArrow" transform="translate(30 24)" onmousedown="handlePan(0,-1)">
                  <use xlink:href="#rim" fill="#404040">
                        <set attributeName="fill" to="#808080" begin="arrowUp.mouseover" end="arrowUp.mouseout"/>
                  </use>
                  <path fill="none" stroke="white" stroke-width="1.5" d="M0,-3.0v7 M-2.5,-0.5L0,-3.0L2.5,-0.5"/>
                </g>
                <g id="arrowRight" xlink:href="#dirArrow" transform="rotate(90) translate(36 -43)" onmousedown="handlePan(1,0)">
                  <use xlink:href="#rim" fill="#404040">
                        <set attributeName="fill" to="#808080" begin="arrowRight.mouseover" end="arrowRight.mouseout"/>
                  </use>
                  <path fill="none" stroke="white" stroke-width="1.5" d="M0,-3.0v7 M-2.5,-0.5L0,-3.0L2.5,-0.5"/>
                </g>
                <g id="arrowDown" xlink:href="#dirArrow" transform="rotate(180) translate(-30 -48)" onmousedown="handlePan(0,1)">
                  <use xlink:href="#rim" fill="#404040">
                        <set attributeName="fill" to="#808080" begin="arrowDown.mouseover" end="arrowDown.mouseout"/>
                  </use>
                  <path fill="none" stroke="white" stroke-width="1.5" d="M0,-3.0v7 M-2.5,-0.5L0,-3.0L2.5,-0.5"/>
                </g>
                <g id="arrowLeft" xlink:href="#dirArrow" transform="rotate(270) translate(-36 17)" onmousedown="handlePan(-1,0)">
                  <use xlink:href="#rim" fill="#404040">
                        <set attributeName="fill" to="#808080" begin="arrowLeft.mouseover" end="arrowLeft.mouseout"/>
                  </use>
                  <path fill="none" stroke="white" stroke-width="1.5" d="M0,-3.0v7 M-2.5,-0.5L0,-3.0L2.5,-0.5"/>
                </g>
        </g>
        <svg viewBox="0 0 15 15" width="100%" height="30px" preserveAspectRatio="xMaxYMin meet">
         <g id="arrow_out" transform="scale(0.3 0.3)">
          <a xlink:href="options_8h__dep__incl_org.svg" target="_base">
           <rect id="button" ry="5" rx="5" y="6" x="6" height="38" width="38"
                fill="#f2f5e9" fill-opacity="0.5" stroke="#606060" stroke-width="1.0"/>
           <path id="arrow"
             d="M 11.500037,31.436501 C 11.940474,20.09759 22.043105,11.32322 32.158766,21.979434 L 37.068811,17.246167 C 37.068811,17.246167 37.088388,32 37.088388,32 L 22.160133,31.978069 C 22.160133,31.978069 26.997745,27.140456 26.997745,27.140456 C 18.528582,18.264221 13.291696,25.230495 11.500037,31.436501 z"
             style="fill:#404040;"/>
          </a>
         </g>
        </svg>
</svg>
