<?xml version="1.0" encoding="UTF-8" standalone="no"?>
<!DOCTYPE svg PUBLIC "-//W3C//DTD SVG 1.1//EN"
 "http://www.w3.org/Graphics/SVG/1.1/DTD/svg11.dtd">
<!-- Generated by graphviz version 2.43.0 (0)
 -->
<!-- Title: src/libs/vwidgets/global.h Pages: 1 -->
<svg width="2288pt" height="95pt"
 viewBox="0.00 0.00 2288.00 95.00" xmlns="http://www.w3.org/2000/svg" xmlns:xlink="http://www.w3.org/1999/xlink">
<g id="graph0" class="graph" transform="scale(1 1) rotate(0) translate(4 91)">
<title>src/libs/vwidgets/global.h</title>
<polygon fill="white" stroke="transparent" points="-4,4 -4,-91 2284,-91 2284,4 -4,4"/>
<!-- Node1 -->
<g id="node1" class="node">
<title>Node1</title>
<g id="a_node1"><a xlink:title=" ">
<polygon fill="#bfbfbf" stroke="black" points="1027.5,-67.5 1027.5,-86.5 1167.5,-86.5 1167.5,-67.5 1027.5,-67.5"/>
<text text-anchor="middle" x="1097.5" y="-74.5" font-family="Helvetica,sans-Serif" font-size="10.00">src/libs/vwidgets/global.h</text>
</a>
</g>
</g>
<!-- Node2 -->
<g id="node2" class="node">
<title>Node2</title>
<g id="a_node2"><a xlink:href="../../dd/d70/vlayoutpiece_8cpp.html" target="_top" xlink:title=" ">
<polygon fill="white" stroke="black" points="0,-6 0,-25 177,-25 177,-6 0,-6"/>
<text text-anchor="middle" x="88.5" y="-13" font-family="Helvetica,sans-Serif" font-size="10.00">src/libs/vlayout/vlayoutpiece.cpp</text>
</a>
</g>
</g>
<!-- Node1&#45;&gt;Node2 -->
<g id="edge1" class="edge">
<title>Node1&#45;&gt;Node2</title>
<path fill="none" stroke="midnightblue" d="M1017.15,-74.66C858.18,-71.43 492.4,-61.11 186.5,-31 171.18,-29.49 154.59,-27.27 139.5,-25.01"/>
<polygon fill="midnightblue" stroke="midnightblue" points="1017.26,-78.16 1027.32,-74.86 1017.39,-71.17 1017.26,-78.16"/>
</g>
<!-- Node3 -->
<g id="node3" class="node">
<title>Node3</title>
<g id="a_node3"><a xlink:href="../../db/d7d/global_8cpp.html" target="_top" xlink:title=" ">
<polygon fill="white" stroke="black" points="195.5,-6 195.5,-25 347.5,-25 347.5,-6 195.5,-6"/>
<text text-anchor="middle" x="271.5" y="-13" font-family="Helvetica,sans-Serif" font-size="10.00">src/libs/vwidgets/global.cpp</text>
</a>
</g>
</g>
<!-- Node1&#45;&gt;Node3 -->
<g id="edge2" class="edge">
<title>Node1&#45;&gt;Node3</title>
<path fill="none" stroke="midnightblue" d="M1016.94,-73.96C880.59,-69.88 595.77,-58.59 356.5,-31 343.26,-29.47 328.96,-27.26 315.93,-25.01"/>
<polygon fill="midnightblue" stroke="midnightblue" points="1017.2,-77.47 1027.3,-74.27 1017.4,-70.48 1017.2,-77.47"/>
</g>
<!-- Node4 -->
<g id="node4" class="node">
<title>Node4</title>
<g id="a_node4"><a xlink:href="../../d4/d50/scalesceneitems_8cpp.html" target="_top" xlink:title=" ">
<polygon fill="white" stroke="black" points="366,-6 366,-25 569,-25 569,-6 366,-6"/>
<text text-anchor="middle" x="467.5" y="-13" font-family="Helvetica,sans-Serif" font-size="10.00">src/libs/vwidgets/scalesceneitems.cpp</text>
</a>
</g>
</g>
<!-- Node1&#45;&gt;Node4 -->
<g id="edge3" class="edge">
<title>Node1&#45;&gt;Node4</title>
<path fill="none" stroke="midnightblue" d="M1017.08,-70.11C914.97,-62.39 733.45,-47.83 578.5,-31 562.46,-29.26 545.16,-27.12 529.09,-25.03"/>
<polygon fill="midnightblue" stroke="midnightblue" points="1017.08,-73.62 1027.31,-70.89 1017.6,-66.64 1017.08,-73.62"/>
</g>
<!-- Node5 -->
<g id="node5" class="node">
<title>Node5</title>
<g id="a_node5"><a xlink:href="../../d8/d76/scene__rect_8cpp.html" target="_top" xlink:title=" ">
<polygon fill="white" stroke="black" points="587.5,-0.5 587.5,-30.5 717.5,-30.5 717.5,-0.5 587.5,-0.5"/>
<text text-anchor="start" x="595.5" y="-18.5" font-family="Helvetica,sans-Serif" font-size="10.00">src/libs/vwidgets/scene</text>
<text text-anchor="middle" x="652.5" y="-7.5" font-family="Helvetica,sans-Serif" font-size="10.00">_rect.cpp</text>
</a>
</g>
</g>
<!-- Node1&#45;&gt;Node5 -->
<g id="edge4" class="edge">
<title>Node1&#45;&gt;Node5</title>
<path fill="none" stroke="midnightblue" d="M1016.84,-67.93C941.53,-59.99 826.11,-46.78 726.5,-31 723.66,-30.55 720.75,-30.07 717.82,-29.57"/>
<polygon fill="midnightblue" stroke="midnightblue" points="1016.89,-71.45 1027.2,-69.01 1017.62,-64.49 1016.89,-71.45"/>
</g>
<!-- Node6 -->
<g id="node6" class="node">
<title>Node6</title>
<g id="a_node6"><a xlink:href="../../de/dec/vgraphicssimpletextitem_8cpp.html" target="_top" xlink:title=" ">
<polygon fill="white" stroke="black" points="735.5,-6 735.5,-25 979.5,-25 979.5,-6 735.5,-6"/>
<text text-anchor="middle" x="857.5" y="-13" font-family="Helvetica,sans-Serif" font-size="10.00">src/libs/vwidgets/vgraphicssimpletextitem.cpp</text>
</a>
</g>
</g>
<!-- Node1&#45;&gt;Node6 -->
<g id="edge5" class="edge">
<title>Node1&#45;&gt;Node6</title>
<path fill="none" stroke="midnightblue" d="M1053.3,-65.04C1006.7,-53.49 934.3,-35.54 891.82,-25.01"/>
<polygon fill="midnightblue" stroke="midnightblue" points="1052.57,-68.47 1063.11,-67.48 1054.25,-61.67 1052.57,-68.47"/>
</g>
<!-- Node7 -->
<g id="node7" class="node">
<title>Node7</title>
<g id="a_node7"><a xlink:href="../../df/dcf/vcurvepathitem_8cpp.html" target="_top" xlink:title=" ">
<polygon fill="white" stroke="black" points="998,-6 998,-25 1197,-25 1197,-6 998,-6"/>
<text text-anchor="middle" x="1097.5" y="-13" font-family="Helvetica,sans-Serif" font-size="10.00">src/libs/vwidgets/vcurvepathitem.cpp</text>
</a>
</g>
</g>
<!-- Node1&#45;&gt;Node7 -->
<g id="edge6" class="edge">
<title>Node1&#45;&gt;Node7</title>
<path fill="none" stroke="midnightblue" d="M1097.5,-57.32C1097.5,-46.5 1097.5,-33.4 1097.5,-25.01"/>
<polygon fill="midnightblue" stroke="midnightblue" points="1094,-57.48 1097.5,-67.48 1101,-57.48 1094,-57.48"/>
</g>
<!-- Node8 -->
<g id="node8" class="node">
<title>Node8</title>
<g id="a_node8"><a xlink:href="../../d1/d88/vmaingraphicsscene_8cpp.html" target="_top" xlink:title=" ">
<polygon fill="white" stroke="black" points="1215.5,-6 1215.5,-25 1437.5,-25 1437.5,-6 1215.5,-6"/>
<text text-anchor="middle" x="1326.5" y="-13" font-family="Helvetica,sans-Serif" font-size="10.00">src/libs/vwidgets/vmaingraphicsscene.cpp</text>
</a>
</g>
</g>
<!-- Node1&#45;&gt;Node8 -->
<g id="edge7" class="edge">
<title>Node1&#45;&gt;Node8</title>
<path fill="none" stroke="midnightblue" d="M1140.24,-64.9C1184.71,-53.34 1253.39,-35.5 1293.75,-25.01"/>
<polygon fill="midnightblue" stroke="midnightblue" points="1139.11,-61.57 1130.31,-67.48 1140.87,-68.35 1139.11,-61.57"/>
</g>
<!-- Node9 -->
<g id="node9" class="node">
<title>Node9</title>
<g id="a_node9"><a xlink:href="../../d0/d5d/vscenepoint_8cpp.html" target="_top" xlink:title=" ">
<polygon fill="white" stroke="black" points="1456,-6 1456,-25 1637,-25 1637,-6 1456,-6"/>
<text text-anchor="middle" x="1546.5" y="-13" font-family="Helvetica,sans-Serif" font-size="10.00">src/libs/vwidgets/vscenepoint.cpp</text>
</a>
</g>
</g>
<!-- Node1&#45;&gt;Node9 -->
<g id="edge8" class="edge">
<title>Node1&#45;&gt;Node9</title>
<path fill="none" stroke="midnightblue" d="M1176.26,-66.2C1247.02,-57.32 1353.76,-43.7 1446.5,-31 1460.23,-29.12 1475.01,-27.02 1488.88,-25.01"/>
<polygon fill="midnightblue" stroke="midnightblue" points="1175.57,-62.76 1166.08,-67.48 1176.44,-69.71 1175.57,-62.76"/>
</g>
<!-- Node10 -->
<g id="node10" class="node">
<title>Node10</title>
<g id="a_node10"><a xlink:href="../../de/d22/vsimplecurve_8cpp.html" target="_top" xlink:title=" ">
<polygon fill="white" stroke="black" points="1655.5,-6 1655.5,-25 1843.5,-25 1843.5,-6 1655.5,-6"/>
<text text-anchor="middle" x="1749.5" y="-13" font-family="Helvetica,sans-Serif" font-size="10.00">src/libs/vwidgets/vsimplecurve.cpp</text>
</a>
</g>
</g>
<!-- Node1&#45;&gt;Node10 -->
<g id="edge9" class="edge">
<title>Node1&#45;&gt;Node10</title>
<path fill="none" stroke="midnightblue" d="M1177.91,-70.88C1285.01,-63.72 1480.3,-49.49 1646.5,-31 1661.67,-29.31 1678.04,-27.16 1693.18,-25.03"/>
<polygon fill="midnightblue" stroke="midnightblue" points="1177.57,-67.39 1167.82,-71.55 1178.03,-74.38 1177.57,-67.39"/>
</g>
<!-- Node11 -->
<g id="node11" class="node">
<title>Node11</title>
<g id="a_node11"><a xlink:href="../../de/d45/vcontrolpointspline_8cpp.html" target="_top" xlink:title=" ">
<polygon fill="white" stroke="black" points="1862,-6 1862,-25 2077,-25 2077,-6 1862,-6"/>
<text text-anchor="middle" x="1969.5" y="-13" font-family="Helvetica,sans-Serif" font-size="10.00">src/libs/vwidgets/vcontrolpointspline.cpp</text>
</a>
</g>
</g>
<!-- Node1&#45;&gt;Node11 -->
<g id="edge10" class="edge">
<title>Node1&#45;&gt;Node11</title>
<path fill="none" stroke="midnightblue" d="M1177.68,-72.9C1315.73,-67.19 1607.09,-53.5 1852.5,-31 1870.13,-29.38 1889.2,-27.2 1906.73,-25.03"/>
<polygon fill="midnightblue" stroke="midnightblue" points="1177.46,-69.41 1167.61,-73.32 1177.75,-76.4 1177.46,-69.41"/>
</g>
<!-- Node12 -->
<g id="node12" class="node">
<title>Node12</title>
<g id="a_node12"><a xlink:href="../../df/d38/vsimplepoint_8cpp.html" target="_top" xlink:title=" ">
<polygon fill="white" stroke="black" points="2095,-6 2095,-25 2280,-25 2280,-6 2095,-6"/>
<text text-anchor="middle" x="2187.5" y="-13" font-family="Helvetica,sans-Serif" font-size="10.00">src/libs/vwidgets/vsimplepoint.cpp</text>
</a>
</g>
</g>
<!-- Node1&#45;&gt;Node12 -->
<g id="edge11" class="edge">
<title>Node1&#45;&gt;Node12</title>
<path fill="none" stroke="midnightblue" d="M1177.54,-74.99C1346.05,-72.29 1749.64,-62.77 2086.5,-31 2102.28,-29.51 2119.38,-27.29 2134.93,-25.03"/>
<polygon fill="midnightblue" stroke="midnightblue" points="1177.45,-71.49 1167.51,-75.15 1177.56,-78.49 1177.45,-71.49"/>
</g>
</g>
</svg>
