<?xml version="1.0" encoding="UTF-8" standalone="no"?>
<!DOCTYPE svg PUBLIC "-//W3C//DTD SVG 1.1//EN"
 "http://www.w3.org/Graphics/SVG/1.1/DTD/svg11.dtd">
<!-- Generated by graphviz version 2.43.0 (0)
 -->
<!-- Title: src/libs/vwidgets/global.h Pages: 1 -->
<svg width="2288pt" height="95pt"
 viewBox="0.00 0.00 2288.00 95.00" xmlns="http://www.w3.org/2000/svg" xmlns:xlink="http://www.w3.org/1999/xlink">
<g id="graph0" class="graph" transform="scale(1 1) rotate(0) translate(4 91)">
<title>src/libs/vwidgets/global.h</title>
<polygon fill="white" stroke="transparent" points="-4,4 -4,-91 2284,-91 2284,4 -4,4"/>
<!-- Node1 -->
<g id="node1" class="node">
<title>Node1</title>
<g id="a_node1"><a xlink:title=" ">
<polygon fill="#bfbfbf" stroke="black" points="1021.5,-67.5 1021.5,-86.5 1161.5,-86.5 1161.5,-67.5 1021.5,-67.5"/>
<text text-anchor="middle" x="1091.5" y="-74.5" font-family="Helvetica,sans-Serif" font-size="10.00">src/libs/vwidgets/global.h</text>
</a>
</g>
</g>
<!-- Node2 -->
<g id="node2" class="node">
<title>Node2</title>
<g id="a_node2"><a xlink:href="../../dd/d70/vlayoutpiece_8cpp.html" target="_top" xlink:title=" ">
<polygon fill="white" stroke="black" points="0,-6 0,-25 177,-25 177,-6 0,-6"/>
<text text-anchor="middle" x="88.5" y="-13" font-family="Helvetica,sans-Serif" font-size="10.00">src/libs/vlayout/vlayoutpiece.cpp</text>
</a>
</g>
</g>
<!-- Node1&#45;&gt;Node2 -->
<g id="edge1" class="edge">
<title>Node1&#45;&gt;Node2</title>
<path fill="none" stroke="midnightblue" d="M1011.38,-74.63C853.3,-71.35 490.2,-60.95 186.5,-31 171.18,-29.49 154.6,-27.26 139.5,-25.01"/>
<polygon fill="midnightblue" stroke="midnightblue" points="1011.43,-78.13 1021.5,-74.84 1011.57,-71.13 1011.43,-78.13"/>
</g>
<!-- Node3 -->
<g id="node3" class="node">
<title>Node3</title>
<g id="a_node3"><a xlink:href="../../db/d7d/global_8cpp.html" target="_top" xlink:title=" ">
<polygon fill="white" stroke="black" points="195.5,-6 195.5,-25 347.5,-25 347.5,-6 195.5,-6"/>
<text text-anchor="middle" x="271.5" y="-13" font-family="Helvetica,sans-Serif" font-size="10.00">src/libs/vwidgets/global.cpp</text>
</a>
</g>
</g>
<!-- Node1&#45;&gt;Node3 -->
<g id="edge2" class="edge">
<title>Node1&#45;&gt;Node3</title>
<path fill="none" stroke="midnightblue" d="M1011.07,-73.91C875.61,-69.76 593.53,-58.39 356.5,-31 343.26,-29.47 328.96,-27.25 315.93,-25.01"/>
<polygon fill="midnightblue" stroke="midnightblue" points="1011.25,-77.42 1021.35,-74.22 1011.46,-70.42 1011.25,-77.42"/>
</g>
<!-- Node4 -->
<g id="node4" class="node">
<title>Node4</title>
<g id="a_node4"><a xlink:href="../../d4/d50/scalesceneitems_8cpp.html" target="_top" xlink:title=" ">
<polygon fill="white" stroke="black" points="366,-6 366,-25 569,-25 569,-6 366,-6"/>
<text text-anchor="middle" x="467.5" y="-13" font-family="Helvetica,sans-Serif" font-size="10.00">src/libs/vwidgets/scalesceneitems.cpp</text>
</a>
</g>
</g>
<!-- Node1&#45;&gt;Node4 -->
<g id="edge3" class="edge">
<title>Node1&#45;&gt;Node4</title>
<path fill="none" stroke="midnightblue" d="M1011.16,-70.01C910.08,-62.24 731.23,-47.67 578.5,-31 562.46,-29.25 545.16,-27.11 529.09,-25.02"/>
<polygon fill="midnightblue" stroke="midnightblue" points="1011.05,-73.51 1021.29,-70.79 1011.59,-66.53 1011.05,-73.51"/>
</g>
<!-- Node5 -->
<g id="node5" class="node">
<title>Node5</title>
<g id="a_node5"><a xlink:href="../../d8/d76/scene__rect_8cpp.html" target="_top" xlink:title=" ">
<polygon fill="white" stroke="black" points="587.5,-0.5 587.5,-30.5 717.5,-30.5 717.5,-0.5 587.5,-0.5"/>
<text text-anchor="start" x="595.5" y="-18.5" font-family="Helvetica,sans-Serif" font-size="10.00">src/libs/vwidgets/scene</text>
<text text-anchor="middle" x="652.5" y="-7.5" font-family="Helvetica,sans-Serif" font-size="10.00">_rect.cpp</text>
</a>
</g>
</g>
<!-- Node1&#45;&gt;Node5 -->
<g id="edge4" class="edge">
<title>Node1&#45;&gt;Node5</title>
<path fill="none" stroke="midnightblue" d="M1011.13,-67.75C937.02,-59.74 824.06,-46.55 726.5,-31 723.66,-30.55 720.75,-30.06 717.83,-29.56"/>
<polygon fill="midnightblue" stroke="midnightblue" points="1011,-71.25 1021.32,-68.84 1011.75,-64.29 1011,-71.25"/>
</g>
<!-- Node6 -->
<g id="node6" class="node">
<title>Node6</title>
<g id="a_node6"><a xlink:href="../../de/d45/vcontrolpointspline_8cpp.html" target="_top" xlink:title=" ">
<polygon fill="white" stroke="black" points="736,-6 736,-25 951,-25 951,-6 736,-6"/>
<text text-anchor="middle" x="843.5" y="-13" font-family="Helvetica,sans-Serif" font-size="10.00">src/libs/vwidgets/vcontrolpointspline.cpp</text>
</a>
</g>
</g>
<!-- Node1&#45;&gt;Node6 -->
<g id="edge5" class="edge">
<title>Node1&#45;&gt;Node6</title>
<path fill="none" stroke="midnightblue" d="M1046.13,-65.11C997.99,-53.57 922.95,-35.56 878.97,-25.01"/>
<polygon fill="midnightblue" stroke="midnightblue" points="1045.43,-68.55 1055.97,-67.48 1047.06,-61.74 1045.43,-68.55"/>
</g>
<!-- Node7 -->
<g id="node7" class="node">
<title>Node7</title>
<g id="a_node7"><a xlink:href="../../de/dec/vgraphicssimpletextitem_8cpp.html" target="_top" xlink:title=" ">
<polygon fill="white" stroke="black" points="969.5,-6 969.5,-25 1213.5,-25 1213.5,-6 969.5,-6"/>
<text text-anchor="middle" x="1091.5" y="-13" font-family="Helvetica,sans-Serif" font-size="10.00">src/libs/vwidgets/vgraphicssimpletextitem.cpp</text>
</a>
</g>
</g>
<!-- Node1&#45;&gt;Node7 -->
<g id="edge6" class="edge">
<title>Node1&#45;&gt;Node7</title>
<path fill="none" stroke="midnightblue" d="M1091.5,-57.32C1091.5,-46.5 1091.5,-33.4 1091.5,-25.01"/>
<polygon fill="midnightblue" stroke="midnightblue" points="1088,-57.48 1091.5,-67.48 1095,-57.48 1088,-57.48"/>
</g>
<!-- Node8 -->
<g id="node8" class="node">
<title>Node8</title>
<g id="a_node8"><a xlink:href="../../d1/d88/vmaingraphicsscene_8cpp.html" target="_top" xlink:title=" ">
<polygon fill="white" stroke="black" points="1231.5,-6 1231.5,-25 1453.5,-25 1453.5,-6 1231.5,-6"/>
<text text-anchor="middle" x="1342.5" y="-13" font-family="Helvetica,sans-Serif" font-size="10.00">src/libs/vwidgets/vmaingraphicsscene.cpp</text>
</a>
</g>
</g>
<!-- Node1&#45;&gt;Node8 -->
<g id="edge7" class="edge">
<title>Node1&#45;&gt;Node8</title>
<path fill="none" stroke="midnightblue" d="M1137.42,-65.11C1186.14,-53.57 1262.09,-35.56 1306.6,-25.01"/>
<polygon fill="midnightblue" stroke="midnightblue" points="1136.39,-61.76 1127.46,-67.48 1138,-68.57 1136.39,-61.76"/>
</g>
<!-- Node9 -->
<g id="node9" class="node">
<title>Node9</title>
<g id="a_node9"><a xlink:href="../../df/dcf/vcurvepathitem_8cpp.html" target="_top" xlink:title=" ">
<polygon fill="white" stroke="black" points="1472,-6 1472,-25 1671,-25 1671,-6 1472,-6"/>
<text text-anchor="middle" x="1571.5" y="-13" font-family="Helvetica,sans-Serif" font-size="10.00">src/libs/vwidgets/vcurvepathitem.cpp</text>
</a>
</g>
</g>
<!-- Node1&#45;&gt;Node9 -->
<g id="edge8" class="edge">
<title>Node1&#45;&gt;Node9</title>
<path fill="none" stroke="midnightblue" d="M1171.95,-66.51C1247.12,-57.58 1362.45,-43.72 1462.5,-31 1477.37,-29.11 1493.36,-27.02 1508.4,-25.02"/>
<polygon fill="midnightblue" stroke="midnightblue" points="1171.14,-63.09 1161.62,-67.74 1171.96,-70.04 1171.14,-63.09"/>
</g>
<!-- Node10 -->
<g id="node10" class="node">
<title>Node10</title>
<g id="a_node10"><a xlink:href="../../d0/d5d/vscenepoint_8cpp.html" target="_top" xlink:title=" ">
<polygon fill="white" stroke="black" points="1689,-6 1689,-25 1870,-25 1870,-6 1689,-6"/>
<text text-anchor="middle" x="1779.5" y="-13" font-family="Helvetica,sans-Serif" font-size="10.00">src/libs/vwidgets/vscenepoint.cpp</text>
</a>
</g>
</g>
<!-- Node1&#45;&gt;Node10 -->
<g id="edge9" class="edge">
<title>Node1&#45;&gt;Node10</title>
<path fill="none" stroke="midnightblue" d="M1171.92,-71.62C1285.47,-65.04 1499.19,-51.18 1680.5,-31 1695.35,-29.35 1711.39,-27.17 1726.15,-25"/>
<polygon fill="midnightblue" stroke="midnightblue" points="1171.7,-68.13 1161.91,-72.2 1172.1,-75.12 1171.7,-68.13"/>
</g>
<!-- Node11 -->
<g id="node11" class="node">
<title>Node11</title>
<g id="a_node11"><a xlink:href="../../de/d22/vsimplecurve_8cpp.html" target="_top" xlink:title=" ">
<polygon fill="white" stroke="black" points="1888.5,-6 1888.5,-25 2076.5,-25 2076.5,-6 1888.5,-6"/>
<text text-anchor="middle" x="1982.5" y="-13" font-family="Helvetica,sans-Serif" font-size="10.00">src/libs/vwidgets/vsimplecurve.cpp</text>
</a>
</g>
</g>
<!-- Node1&#45;&gt;Node11 -->
<g id="edge10" class="edge">
<title>Node1&#45;&gt;Node11</title>
<path fill="none" stroke="midnightblue" d="M1172.17,-73.6C1315.02,-68.85 1621.74,-56.46 1879.5,-31 1895.31,-29.44 1912.43,-27.24 1928.08,-25.02"/>
<polygon fill="midnightblue" stroke="midnightblue" points="1171.63,-70.11 1161.75,-73.94 1171.86,-77.11 1171.63,-70.11"/>
</g>
<!-- Node12 -->
<g id="node12" class="node">
<title>Node12</title>
<g id="a_node12"><a xlink:href="../../df/d38/vsimplepoint_8cpp.html" target="_top" xlink:title=" ">
<polygon fill="white" stroke="black" points="2095,-6 2095,-25 2280,-25 2280,-6 2095,-6"/>
<text text-anchor="middle" x="2187.5" y="-13" font-family="Helvetica,sans-Serif" font-size="10.00">src/libs/vwidgets/vsimplepoint.cpp</text>
</a>
</g>
</g>
<!-- Node1&#45;&gt;Node12 -->
<g id="edge11" class="edge">
<title>Node1&#45;&gt;Node12</title>
<path fill="none" stroke="midnightblue" d="M1171.62,-74.98C1340.79,-72.25 1746.71,-62.68 2085.5,-31 2101.44,-29.51 2118.7,-27.29 2134.41,-25.03"/>
<polygon fill="midnightblue" stroke="midnightblue" points="1171.5,-71.48 1161.56,-75.14 1171.61,-78.48 1171.5,-71.48"/>
</g>
</g>
</svg>
