<?xml version="1.0" encoding="UTF-8" standalone="no"?>
<!DOCTYPE svg PUBLIC "-//W3C//DTD SVG 1.1//EN"
 "http://www.w3.org/Graphics/SVG/1.1/DTD/svg11.dtd">
<!-- Generated by graphviz version 2.43.0 (0)
 -->
<!-- Title: src/libs/vwidgets/global.h Pages: 1 -->
<svg width="2288pt" height="95pt"
 viewBox="0.00 0.00 2288.00 95.00" xmlns="http://www.w3.org/2000/svg" xmlns:xlink="http://www.w3.org/1999/xlink">
<g id="graph0" class="graph" transform="scale(1 1) rotate(0) translate(4 91)">
<title>src/libs/vwidgets/global.h</title>
<polygon fill="white" stroke="transparent" points="-4,4 -4,-91 2284,-91 2284,4 -4,4"/>
<!-- Node1 -->
<g id="node1" class="node">
<title>Node1</title>
<g id="a_node1"><a xlink:title=" ">
<polygon fill="#bfbfbf" stroke="black" points="998.5,-67.5 998.5,-86.5 1138.5,-86.5 1138.5,-67.5 998.5,-67.5"/>
<text text-anchor="middle" x="1068.5" y="-74.5" font-family="Helvetica,sans-Serif" font-size="10.00">src/libs/vwidgets/global.h</text>
</a>
</g>
</g>
<!-- Node2 -->
<g id="node2" class="node">
<title>Node2</title>
<g id="a_node2"><a xlink:href="../../dd/d70/vlayoutpiece_8cpp.html" target="_top" xlink:title=" ">
<polygon fill="white" stroke="black" points="0,-6 0,-25 177,-25 177,-6 0,-6"/>
<text text-anchor="middle" x="88.5" y="-13" font-family="Helvetica,sans-Serif" font-size="10.00">src/libs/vlayout/vlayoutpiece.cpp</text>
</a>
</g>
</g>
<!-- Node1&#45;&gt;Node2 -->
<g id="edge1" class="edge">
<title>Node1&#45;&gt;Node2</title>
<path fill="none" stroke="midnightblue" d="M987.9,-74.47C832.53,-70.96 480.88,-60.22 186.5,-31 171.27,-29.49 154.78,-27.27 139.76,-25.03"/>
<polygon fill="midnightblue" stroke="midnightblue" points="988.22,-77.98 998.3,-74.7 988.38,-70.98 988.22,-77.98"/>
</g>
<!-- Node3 -->
<g id="node3" class="node">
<title>Node3</title>
<g id="a_node3"><a xlink:href="../../db/d7d/global_8cpp.html" target="_top" xlink:title=" ">
<polygon fill="white" stroke="black" points="195.5,-6 195.5,-25 347.5,-25 347.5,-6 195.5,-6"/>
<text text-anchor="middle" x="271.5" y="-13" font-family="Helvetica,sans-Serif" font-size="10.00">src/libs/vwidgets/global.cpp</text>
</a>
</g>
</g>
<!-- Node1&#45;&gt;Node3 -->
<g id="edge2" class="edge">
<title>Node1&#45;&gt;Node3</title>
<path fill="none" stroke="midnightblue" d="M988.26,-73.7C856.16,-69.28 584.76,-57.61 356.5,-31 343.41,-29.47 329.28,-27.28 316.37,-25.07"/>
<polygon fill="midnightblue" stroke="midnightblue" points="988.19,-77.2 998.3,-74.03 988.42,-70.2 988.19,-77.2"/>
</g>
<!-- Node4 -->
<g id="node4" class="node">
<title>Node4</title>
<g id="a_node4"><a xlink:href="../../d4/d50/scalesceneitems_8cpp.html" target="_top" xlink:title=" ">
<polygon fill="white" stroke="black" points="366,-6 366,-25 569,-25 569,-6 366,-6"/>
<text text-anchor="middle" x="467.5" y="-13" font-family="Helvetica,sans-Serif" font-size="10.00">src/libs/vwidgets/scalesceneitems.cpp</text>
</a>
</g>
</g>
<!-- Node1&#45;&gt;Node4 -->
<g id="edge3" class="edge">
<title>Node1&#45;&gt;Node4</title>
<path fill="none" stroke="midnightblue" d="M988.18,-69.57C891.05,-61.58 722.62,-47.02 578.5,-31 562.56,-29.23 545.37,-27.09 529.39,-25.01"/>
<polygon fill="midnightblue" stroke="midnightblue" points="987.97,-73.07 998.23,-70.4 988.54,-66.09 987.97,-73.07"/>
</g>
<!-- Node5 -->
<g id="node5" class="node">
<title>Node5</title>
<g id="a_node5"><a xlink:href="../../d8/d76/scene__rect_8cpp.html" target="_top" xlink:title=" ">
<polygon fill="white" stroke="black" points="587.5,-0.5 587.5,-30.5 717.5,-30.5 717.5,-0.5 587.5,-0.5"/>
<text text-anchor="start" x="595.5" y="-18.5" font-family="Helvetica,sans-Serif" font-size="10.00">src/libs/vwidgets/scene</text>
<text text-anchor="middle" x="652.5" y="-7.5" font-family="Helvetica,sans-Serif" font-size="10.00">_rect.cpp</text>
</a>
</g>
</g>
<!-- Node1&#45;&gt;Node5 -->
<g id="edge4" class="edge">
<title>Node1&#45;&gt;Node5</title>
<path fill="none" stroke="midnightblue" d="M988.23,-66.88C918.79,-58.64 815.78,-45.61 726.5,-31 723.66,-30.53 720.76,-30.04 717.83,-29.53"/>
<polygon fill="midnightblue" stroke="midnightblue" points="987.88,-70.36 998.23,-68.06 988.71,-63.41 987.88,-70.36"/>
</g>
<!-- Node6 -->
<g id="node6" class="node">
<title>Node6</title>
<g id="a_node6"><a xlink:href="../../de/d45/vcontrolpointspline_8cpp.html" target="_top" xlink:title=" ">
<polygon fill="white" stroke="black" points="736,-6 736,-25 951,-25 951,-6 736,-6"/>
<text text-anchor="middle" x="843.5" y="-13" font-family="Helvetica,sans-Serif" font-size="10.00">src/libs/vwidgets/vcontrolpointspline.cpp</text>
</a>
</g>
</g>
<!-- Node1&#45;&gt;Node6 -->
<g id="edge5" class="edge">
<title>Node1&#45;&gt;Node6</title>
<path fill="none" stroke="midnightblue" d="M1026.51,-64.9C982.81,-53.34 915.33,-35.5 875.68,-25.01"/>
<polygon fill="midnightblue" stroke="midnightblue" points="1025.7,-68.3 1036.26,-67.48 1027.49,-61.53 1025.7,-68.3"/>
</g>
<!-- Node7 -->
<g id="node7" class="node">
<title>Node7</title>
<g id="a_node7"><a xlink:href="../../df/dcf/vcurvepathitem_8cpp.html" target="_top" xlink:title=" ">
<polygon fill="white" stroke="black" points="969,-6 969,-25 1168,-25 1168,-6 969,-6"/>
<text text-anchor="middle" x="1068.5" y="-13" font-family="Helvetica,sans-Serif" font-size="10.00">src/libs/vwidgets/vcurvepathitem.cpp</text>
</a>
</g>
</g>
<!-- Node1&#45;&gt;Node7 -->
<g id="edge6" class="edge">
<title>Node1&#45;&gt;Node7</title>
<path fill="none" stroke="midnightblue" d="M1068.5,-57.32C1068.5,-46.5 1068.5,-33.4 1068.5,-25.01"/>
<polygon fill="midnightblue" stroke="midnightblue" points="1065,-57.48 1068.5,-67.48 1072,-57.48 1065,-57.48"/>
</g>
<!-- Node8 -->
<g id="node8" class="node">
<title>Node8</title>
<g id="a_node8"><a xlink:href="../../d1/d88/vmaingraphicsscene_8cpp.html" target="_top" xlink:title=" ">
<polygon fill="white" stroke="black" points="1186.5,-6 1186.5,-25 1408.5,-25 1408.5,-6 1186.5,-6"/>
<text text-anchor="middle" x="1297.5" y="-13" font-family="Helvetica,sans-Serif" font-size="10.00">src/libs/vwidgets/vmaingraphicsscene.cpp</text>
</a>
</g>
</g>
<!-- Node1&#45;&gt;Node8 -->
<g id="edge7" class="edge">
<title>Node1&#45;&gt;Node8</title>
<path fill="none" stroke="midnightblue" d="M1111.24,-64.9C1155.71,-53.34 1224.39,-35.5 1264.75,-25.01"/>
<polygon fill="midnightblue" stroke="midnightblue" points="1110.11,-61.57 1101.31,-67.48 1111.87,-68.35 1110.11,-61.57"/>
</g>
<!-- Node9 -->
<g id="node9" class="node">
<title>Node9</title>
<g id="a_node9"><a xlink:href="../../d0/d5d/vscenepoint_8cpp.html" target="_top" xlink:title=" ">
<polygon fill="white" stroke="black" points="1427,-6 1427,-25 1608,-25 1608,-6 1427,-6"/>
<text text-anchor="middle" x="1517.5" y="-13" font-family="Helvetica,sans-Serif" font-size="10.00">src/libs/vwidgets/vscenepoint.cpp</text>
</a>
</g>
</g>
<!-- Node1&#45;&gt;Node9 -->
<g id="edge8" class="edge">
<title>Node1&#45;&gt;Node9</title>
<path fill="none" stroke="midnightblue" d="M1147.26,-66.2C1218.02,-57.32 1324.76,-43.7 1417.5,-31 1431.23,-29.12 1446.01,-27.02 1459.88,-25.01"/>
<polygon fill="midnightblue" stroke="midnightblue" points="1146.57,-62.76 1137.08,-67.48 1147.44,-69.71 1146.57,-62.76"/>
</g>
<!-- Node10 -->
<g id="node10" class="node">
<title>Node10</title>
<g id="a_node10"><a xlink:href="../../de/d22/vsimplecurve_8cpp.html" target="_top" xlink:title=" ">
<polygon fill="white" stroke="black" points="1626.5,-6 1626.5,-25 1814.5,-25 1814.5,-6 1626.5,-6"/>
<text text-anchor="middle" x="1720.5" y="-13" font-family="Helvetica,sans-Serif" font-size="10.00">src/libs/vwidgets/vsimplecurve.cpp</text>
</a>
</g>
</g>
<!-- Node1&#45;&gt;Node10 -->
<g id="edge9" class="edge">
<title>Node1&#45;&gt;Node10</title>
<path fill="none" stroke="midnightblue" d="M1148.91,-70.88C1256.01,-63.72 1451.3,-49.49 1617.5,-31 1632.67,-29.31 1649.04,-27.16 1664.18,-25.03"/>
<polygon fill="midnightblue" stroke="midnightblue" points="1148.57,-67.39 1138.82,-71.55 1149.03,-74.38 1148.57,-67.39"/>
</g>
<!-- Node11 -->
<g id="node11" class="node">
<title>Node11</title>
<g id="a_node11"><a xlink:href="../../de/dec/vgraphicssimpletextitem_8cpp.html" target="_top" xlink:title=" ">
<polygon fill="white" stroke="black" points="1832.5,-6 1832.5,-25 2076.5,-25 2076.5,-6 1832.5,-6"/>
<text text-anchor="middle" x="1954.5" y="-13" font-family="Helvetica,sans-Serif" font-size="10.00">src/libs/vwidgets/vgraphicssimpletextitem.cpp</text>
</a>
</g>
</g>
<!-- Node1&#45;&gt;Node11 -->
<g id="edge10" class="edge">
<title>Node1&#45;&gt;Node11</title>
<path fill="none" stroke="midnightblue" d="M1148.65,-72.56C1286.65,-66.34 1577.95,-51.89 1823.5,-31 1842.99,-29.34 1864.08,-27.17 1883.52,-25.02"/>
<polygon fill="midnightblue" stroke="midnightblue" points="1148.42,-69.07 1138.59,-73.01 1148.73,-76.06 1148.42,-69.07"/>
</g>
<!-- Node12 -->
<g id="node12" class="node">
<title>Node12</title>
<g id="a_node12"><a xlink:href="../../df/d38/vsimplepoint_8cpp.html" target="_top" xlink:title=" ">
<polygon fill="white" stroke="black" points="2095,-6 2095,-25 2280,-25 2280,-6 2095,-6"/>
<text text-anchor="middle" x="2187.5" y="-13" font-family="Helvetica,sans-Serif" font-size="10.00">src/libs/vwidgets/vsimplepoint.cpp</text>
</a>
</g>
</g>
<!-- Node1&#45;&gt;Node12 -->
<g id="edge11" class="edge">
<title>Node1&#45;&gt;Node12</title>
<path fill="none" stroke="midnightblue" d="M1148.87,-75.09C1320.98,-72.56 1737.79,-63.33 2085.5,-31 2101.53,-29.51 2118.89,-27.28 2134.67,-25"/>
<polygon fill="midnightblue" stroke="midnightblue" points="1148.58,-71.59 1138.63,-75.24 1148.68,-78.59 1148.58,-71.59"/>
</g>
</g>
</svg>
