<?xml version="1.0" encoding="UTF-8" standalone="no"?>
<!DOCTYPE svg PUBLIC "-//W3C//DTD SVG 1.1//EN"
 "http://www.w3.org/Graphics/SVG/1.1/DTD/svg11.dtd">
<!-- Generated by graphviz version 2.43.0 (0)
 -->
<!-- Title: src/libs/vtools/tools/nodeDetails/vabstractnode.h Pages: 1 -->
<!--zoomable 262 -->
<svg id="main" version="1.1" xmlns="http://www.w3.org/2000/svg" xmlns:xlink="http://www.w3.org/1999/xlink" xml:space="preserve" onload="init(evt)">
<style type="text/css"><![CDATA[
.edge:hover path { stroke: red; }
.edge:hover polygon { stroke: red; fill: red; }
]]></style>
<script type="text/javascript"><![CDATA[
var edges = document.getElementsByTagName('g');
if (edges && edges.length) {
  for (var i=0;i<edges.length;i++) {
    if (edges[i].id.substr(0,4)=='edge') {
      edges[i].setAttribute('class','edge');
    }
  }
}
]]></script>
        <defs>
                <circle id="rim" cx="0" cy="0" r="7"/>
                <circle id="rim2" cx="0" cy="0" r="3.5"/>
                <g id="zoomPlus">
                        <use xlink:href="#rim" fill="#404040">
                                <set attributeName="fill" to="#808080" begin="zoomplus.mouseover" end="zoomplus.mouseout"/>
                        </use>
                        <path d="M-4,0h8M0,-4v8" fill="none" stroke="white" stroke-width="1.5" pointer-events="none"/>
                </g>
                <g id="zoomMin">
                        <use xlink:href="#rim" fill="#404040">
                                <set attributeName="fill" to="#808080" begin="zoomminus.mouseover" end="zoomminus.mouseout"/>
                        </use>
                        <path d="M-4,0h8" fill="none" stroke="white" stroke-width="1.5" pointer-events="none"/>
                </g>
                <g id="dirArrow">
                        <path fill="none" stroke="white" stroke-width="1.5" d="M0,-3.0v7 M-2.5,-0.5L0,-3.0L2.5,-0.5"/>
                </g>
               <g id="resetDef">
                       <use xlink:href="#rim2" fill="#404040">
                               <set attributeName="fill" to="#808080" begin="reset.mouseover" end="reset.mouseout"/>
                       </use>
               </g>
        </defs>

<script type="text/javascript">
var viewWidth = 2202;
var viewHeight = 262;
var sectionId = 'dynsection-1';
</script>
<script xlink:href="../../svgpan.js"/>
<svg id="graph" class="graph">
<g id="viewport">
<title>src/libs/vtools/tools/nodeDetails/vabstractnode.h</title>
<polygon fill="white" stroke="transparent" points="-4,4 -4,-258 2198,-258 2198,4 -4,4"/>
<!-- Node1 -->
<g id="node1" class="node">
<title>Node1</title>
<g id="a_node1"><a xlink:title=" ">
<polygon fill="#bfbfbf" stroke="black" points="786.5,-223.5 786.5,-253.5 946.5,-253.5 946.5,-223.5 786.5,-223.5"/>
<text text-anchor="start" x="794.5" y="-241.5" font-family="Helvetica,sans-Serif" font-size="10.00">src/libs/vtools/tools</text>
<text text-anchor="middle" x="866.5" y="-230.5" font-family="Helvetica,sans-Serif" font-size="10.00">/nodeDetails/vabstractnode.h</text>
</a>
</g>
</g>
<!-- Node2 -->
<g id="node2" class="node">
<title>Node2</title>
<g id="a_node2"><a xlink:href="../../d5/dcd/vabstractnode_8cpp.html" target="_top" xlink:title=" ">
<polygon fill="white" stroke="black" points="0,-151 0,-181 171,-181 171,-151 0,-151"/>
<text text-anchor="start" x="8" y="-169" font-family="Helvetica,sans-Serif" font-size="10.00">src/libs/vtools/tools</text>
<text text-anchor="middle" x="85.5" y="-158" font-family="Helvetica,sans-Serif" font-size="10.00">/nodeDetails/vabstractnode.cpp</text>
</a>
</g>
</g>
<!-- Node1&#45;&gt;Node2 -->
<g id="edge1" class="edge">
<title>Node1&#45;&gt;Node2</title>
<path fill="none" stroke="midnightblue" d="M776.12,-234.35C645.34,-228.98 395.93,-215.73 185.5,-187 173.83,-185.41 161.48,-183.29 149.59,-181.03"/>
<polygon fill="midnightblue" stroke="midnightblue" points="776.35,-237.86 786.49,-234.77 776.64,-230.87 776.35,-237.86"/>
</g>
<!-- Node3 -->
<g id="node3" class="node">
<title>Node3</title>
<g id="a_node3"><a xlink:href="../../d0/d43/vnodearc_8cpp.html" target="_top" xlink:title=" ">
<polygon fill="white" stroke="black" points="95.5,-73 95.5,-103 241.5,-103 241.5,-73 95.5,-73"/>
<text text-anchor="start" x="103.5" y="-91" font-family="Helvetica,sans-Serif" font-size="10.00">src/libs/vtools/tools</text>
<text text-anchor="middle" x="168.5" y="-80" font-family="Helvetica,sans-Serif" font-size="10.00">/nodeDetails/vnodearc.cpp</text>
</a>
</g>
</g>
<!-- Node1&#45;&gt;Node3 -->
<g id="edge2" class="edge">
<title>Node1&#45;&gt;Node3</title>
<path fill="none" stroke="midnightblue" d="M775.81,-234.17C614.45,-227.65 290.04,-211.65 244.5,-187 209.47,-168.04 185.38,-125.3 174.71,-103.06"/>
<polygon fill="midnightblue" stroke="midnightblue" points="776.07,-237.68 786.2,-234.58 776.35,-230.69 776.07,-237.68"/>
</g>
<!-- Node4 -->
<g id="node4" class="node">
<title>Node4</title>
<g id="a_node4"><a xlink:href="../../df/d98/vnodearc_8h.html" target="_top" xlink:title=" ">
<polygon fill="white" stroke="black" points="266,-151 266,-181 401,-181 401,-151 266,-151"/>
<text text-anchor="start" x="274" y="-169" font-family="Helvetica,sans-Serif" font-size="10.00">src/libs/vtools/tools</text>
<text text-anchor="middle" x="333.5" y="-158" font-family="Helvetica,sans-Serif" font-size="10.00">/nodeDetails/vnodearc.h</text>
</a>
</g>
</g>
<!-- Node1&#45;&gt;Node4 -->
<g id="edge3" class="edge">
<title>Node1&#45;&gt;Node4</title>
<path fill="none" stroke="midnightblue" d="M776.13,-231.46C683.53,-224.35 535.64,-210.43 409.5,-187 400.78,-185.38 391.59,-183.29 382.73,-181.08"/>
<polygon fill="midnightblue" stroke="midnightblue" points="776.07,-234.97 786.31,-232.23 776.6,-227.99 776.07,-234.97"/>
</g>
<!-- Node10 -->
<g id="node10" class="node">
<title>Node10</title>
<g id="a_node10"><a xlink:href="../../de/d51/anchorpoint__tool_8h.html" target="_top" xlink:title=" ">
<polygon fill="white" stroke="black" points="1402,-145.5 1402,-186.5 1541,-186.5 1541,-145.5 1402,-145.5"/>
<text text-anchor="start" x="1410" y="-174.5" font-family="Helvetica,sans-Serif" font-size="10.00">src/libs/vtools/tools</text>
<text text-anchor="start" x="1410" y="-163.5" font-family="Helvetica,sans-Serif" font-size="10.00">/nodeDetails/anchorpoint</text>
<text text-anchor="middle" x="1471.5" y="-152.5" font-family="Helvetica,sans-Serif" font-size="10.00">_tool.h</text>
</a>
</g>
</g>
<!-- Node1&#45;&gt;Node10 -->
<g id="edge10" class="edge">
<title>Node1&#45;&gt;Node10</title>
<path fill="none" stroke="midnightblue" d="M957.01,-232.5C1061.32,-225.87 1237.64,-211.98 1387.5,-187 1392.23,-186.21 1397.09,-185.31 1401.98,-184.33"/>
<polygon fill="midnightblue" stroke="midnightblue" points="956.59,-229.02 946.83,-233.14 957.03,-236.01 956.59,-229.02"/>
</g>
<!-- Node13 -->
<g id="node13" class="node">
<title>Node13</title>
<g id="a_node13"><a xlink:href="../../d3/d3a/vnodeellipticalarc_8cpp.html" target="_top" xlink:title=" ">
<polygon fill="white" stroke="black" points="259.5,-73 259.5,-103 447.5,-103 447.5,-73 259.5,-73"/>
<text text-anchor="start" x="267.5" y="-91" font-family="Helvetica,sans-Serif" font-size="10.00">src/libs/vtools/tools</text>
<text text-anchor="middle" x="353.5" y="-80" font-family="Helvetica,sans-Serif" font-size="10.00">/nodeDetails/vnodeellipticalarc.cpp</text>
</a>
</g>
</g>
<!-- Node1&#45;&gt;Node13 -->
<g id="edge15" class="edge">
<title>Node1&#45;&gt;Node13</title>
<path fill="none" stroke="midnightblue" d="M775.9,-236.62C614.53,-234.1 290.92,-224.39 256.5,-187 243.86,-173.27 247.17,-161.17 256.5,-145 267.92,-125.21 289.3,-111.79 309.08,-103.06"/>
<polygon fill="midnightblue" stroke="midnightblue" points="776.24,-240.12 786.29,-236.77 776.34,-233.12 776.24,-240.12"/>
</g>
<!-- Node14 -->
<g id="node14" class="node">
<title>Node14</title>
<g id="a_node14"><a xlink:href="../../d5/df0/vnodepoint_8h.html" target="_top" xlink:title=" ">
<polygon fill="white" stroke="black" points="970,-151 970,-181 1115,-181 1115,-151 970,-151"/>
<text text-anchor="start" x="978" y="-169" font-family="Helvetica,sans-Serif" font-size="10.00">src/libs/vtools/tools</text>
<text text-anchor="middle" x="1042.5" y="-158" font-family="Helvetica,sans-Serif" font-size="10.00">/nodeDetails/vnodepoint.h</text>
</a>
</g>
</g>
<!-- Node1&#45;&gt;Node14 -->
<g id="edge16" class="edge">
<title>Node1&#45;&gt;Node14</title>
<path fill="none" stroke="midnightblue" d="M911.05,-219.65C940.91,-207.69 979.69,-192.16 1007.37,-181.07"/>
<polygon fill="midnightblue" stroke="midnightblue" points="909.67,-216.44 901.69,-223.4 912.28,-222.93 909.67,-216.44"/>
</g>
<!-- Node15 -->
<g id="node15" class="node">
<title>Node15</title>
<g id="a_node15"><a xlink:href="../../d4/d7b/vnodepoint_8cpp.html" target="_top" xlink:title=" ">
<polygon fill="white" stroke="black" points="1880.5,-73 1880.5,-103 2036.5,-103 2036.5,-73 1880.5,-73"/>
<text text-anchor="start" x="1888.5" y="-91" font-family="Helvetica,sans-Serif" font-size="10.00">src/libs/vtools/tools</text>
<text text-anchor="middle" x="1958.5" y="-80" font-family="Helvetica,sans-Serif" font-size="10.00">/nodeDetails/vnodepoint.cpp</text>
</a>
</g>
</g>
<!-- Node1&#45;&gt;Node15 -->
<g id="edge33" class="edge">
<title>Node1&#45;&gt;Node15</title>
<path fill="none" stroke="midnightblue" d="M956.64,-235.46C1087.81,-231.45 1338.68,-219.83 1549.5,-187 1682.07,-166.35 1835.05,-124.86 1910.83,-103.08"/>
<polygon fill="midnightblue" stroke="midnightblue" points="956.52,-231.96 946.63,-235.76 956.73,-238.96 956.52,-231.96"/>
</g>
<!-- Node16 -->
<g id="node16" class="node">
<title>Node16</title>
<g id="a_node16"><a xlink:href="../../df/d25/vnodeellipticalarc_8h.html" target="_top" xlink:title=" ">
<polygon fill="white" stroke="black" points="419,-151 419,-181 596,-181 596,-151 419,-151"/>
<text text-anchor="start" x="427" y="-169" font-family="Helvetica,sans-Serif" font-size="10.00">src/libs/vtools/tools</text>
<text text-anchor="middle" x="507.5" y="-158" font-family="Helvetica,sans-Serif" font-size="10.00">/nodeDetails/vnodeellipticalarc.h</text>
</a>
</g>
</g>
<!-- Node1&#45;&gt;Node16 -->
<g id="edge21" class="edge">
<title>Node1&#45;&gt;Node16</title>
<path fill="none" stroke="midnightblue" d="M782.41,-221.58C731,-211.77 663.91,-198.85 604.5,-187 594.97,-185.1 584.93,-183.06 575.05,-181.05"/>
<polygon fill="midnightblue" stroke="midnightblue" points="782,-225.06 792.48,-223.5 783.31,-218.19 782,-225.06"/>
</g>
<!-- Node17 -->
<g id="node17" class="node">
<title>Node17</title>
<g id="a_node17"><a xlink:href="../../df/d94/vnodespline_8cpp.html" target="_top" xlink:title=" ">
<polygon fill="white" stroke="black" points="1112,-73 1112,-103 1273,-103 1273,-73 1112,-73"/>
<text text-anchor="start" x="1120" y="-91" font-family="Helvetica,sans-Serif" font-size="10.00">src/libs/vtools/tools</text>
<text text-anchor="middle" x="1192.5" y="-80" font-family="Helvetica,sans-Serif" font-size="10.00">/nodeDetails/vnodespline.cpp</text>
</a>
</g>
</g>
<!-- Node1&#45;&gt;Node17 -->
<g id="edge26" class="edge">
<title>Node1&#45;&gt;Node17</title>
<path fill="none" stroke="midnightblue" d="M956.83,-233.71C1081.31,-227.54 1292.99,-213.29 1316.5,-187 1328.94,-173.08 1326.62,-160.68 1316.5,-145 1303.24,-124.46 1280.43,-111.38 1257.97,-103.08"/>
<polygon fill="midnightblue" stroke="midnightblue" points="956.36,-230.23 946.54,-234.21 956.7,-237.22 956.36,-230.23"/>
</g>
<!-- Node18 -->
<g id="node18" class="node">
<title>Node18</title>
<g id="a_node18"><a xlink:href="../../d0/dd2/vnodespline_8h.html" target="_top" xlink:title=" ">
<polygon fill="white" stroke="black" points="614,-151 614,-181 763,-181 763,-151 614,-151"/>
<text text-anchor="start" x="622" y="-169" font-family="Helvetica,sans-Serif" font-size="10.00">src/libs/vtools/tools</text>
<text text-anchor="middle" x="688.5" y="-158" font-family="Helvetica,sans-Serif" font-size="10.00">/nodeDetails/vnodespline.h</text>
</a>
</g>
</g>
<!-- Node1&#45;&gt;Node18 -->
<g id="edge27" class="edge">
<title>Node1&#45;&gt;Node18</title>
<path fill="none" stroke="midnightblue" d="M821.44,-219.65C791.24,-207.69 752.03,-192.16 724.03,-181.07"/>
<polygon fill="midnightblue" stroke="midnightblue" points="820.32,-222.97 830.91,-223.4 822.9,-216.47 820.32,-222.97"/>
</g>
<!-- Node19 -->
<g id="node19" class="node">
<title>Node19</title>
<g id="a_node19"><a xlink:href="../../d2/dad/vnodesplinepath_8cpp.html" target="_top" xlink:title=" ">
<polygon fill="white" stroke="black" points="1474.5,-73 1474.5,-103 1656.5,-103 1656.5,-73 1474.5,-73"/>
<text text-anchor="start" x="1482.5" y="-91" font-family="Helvetica,sans-Serif" font-size="10.00">src/libs/vtools/tools</text>
<text text-anchor="middle" x="1565.5" y="-80" font-family="Helvetica,sans-Serif" font-size="10.00">/nodeDetails/vnodesplinepath.cpp</text>
</a>
</g>
</g>
<!-- Node1&#45;&gt;Node19 -->
<g id="edge32" class="edge">
<title>Node1&#45;&gt;Node19</title>
<path fill="none" stroke="midnightblue" d="M957.17,-233.36C1073.61,-227.08 1268.64,-213.02 1335.5,-187 1364.83,-175.59 1364.5,-159.36 1392.5,-145 1428.59,-126.48 1472.04,-112.44 1506.37,-103.06"/>
<polygon fill="midnightblue" stroke="midnightblue" points="956.65,-229.88 946.85,-233.91 957.02,-236.87 956.65,-229.88"/>
</g>
<!-- Node20 -->
<g id="node20" class="node">
<title>Node20</title>
<g id="a_node20"><a xlink:href="../../d5/d9d/vtoolinternalpath_8h.html" target="_top" xlink:title=" ">
<polygon fill="white" stroke="black" points="1133.5,-151 1133.5,-181 1307.5,-181 1307.5,-151 1133.5,-151"/>
<text text-anchor="start" x="1141.5" y="-169" font-family="Helvetica,sans-Serif" font-size="10.00">src/libs/vtools/tools</text>
<text text-anchor="middle" x="1220.5" y="-158" font-family="Helvetica,sans-Serif" font-size="10.00">/nodeDetails/vtoolinternalpath.h</text>
</a>
</g>
</g>
<!-- Node1&#45;&gt;Node20 -->
<g id="edge34" class="edge">
<title>Node1&#45;&gt;Node20</title>
<path fill="none" stroke="midnightblue" d="M948.7,-221.55C999.16,-211.71 1065.1,-198.76 1123.5,-187 1133.02,-185.08 1143.07,-183.04 1152.94,-181.01"/>
<polygon fill="midnightblue" stroke="midnightblue" points="947.96,-218.13 938.82,-223.48 949.3,-225 947.96,-218.13"/>
</g>
<!-- Node23 -->
<g id="node23" class="node">
<title>Node23</title>
<g id="a_node23"><a xlink:href="../../df/d88/vnodesplinepath_8h.html" target="_top" xlink:title=" ">
<polygon fill="white" stroke="black" points="781,-151 781,-181 952,-181 952,-151 781,-151"/>
<text text-anchor="start" x="789" y="-169" font-family="Helvetica,sans-Serif" font-size="10.00">src/libs/vtools/tools</text>
<text text-anchor="middle" x="866.5" y="-158" font-family="Helvetica,sans-Serif" font-size="10.00">/nodeDetails/vnodesplinepath.h</text>
</a>
</g>
</g>
<!-- Node1&#45;&gt;Node23 -->
<g id="edge41" class="edge">
<title>Node1&#45;&gt;Node23</title>
<path fill="none" stroke="midnightblue" d="M866.5,-213.23C866.5,-202.57 866.5,-190.41 866.5,-181.25"/>
<polygon fill="midnightblue" stroke="midnightblue" points="863,-213.23 866.5,-223.23 870,-213.23 863,-213.23"/>
</g>
<!-- Node4&#45;&gt;Node3 -->
<g id="edge4" class="edge">
<title>Node4&#45;&gt;Node3</title>
<path fill="none" stroke="midnightblue" d="M293.77,-146.7C264.64,-133.28 225.68,-115.34 198.98,-103.04"/>
<polygon fill="midnightblue" stroke="midnightblue" points="292.3,-149.88 302.85,-150.88 295.23,-143.52 292.3,-149.88"/>
</g>
<!-- Node5 -->
<g id="node5" class="node">
<title>Node5</title>
<g id="a_node5"><a xlink:href="../../d5/dcf/nodedetails_8h.html" target="_top" xlink:title=" ">
<polygon fill="white" stroke="black" points="615,-73 615,-103 762,-103 762,-73 615,-73"/>
<text text-anchor="start" x="623" y="-91" font-family="Helvetica,sans-Serif" font-size="10.00">src/libs/vtools/tools</text>
<text text-anchor="middle" x="688.5" y="-80" font-family="Helvetica,sans-Serif" font-size="10.00">/nodeDetails/nodedetails.h</text>
</a>
</g>
</g>
<!-- Node4&#45;&gt;Node5 -->
<g id="edge5" class="edge">
<title>Node4&#45;&gt;Node5</title>
<path fill="none" stroke="midnightblue" d="M394.95,-148.41C399.86,-147.21 404.76,-146.06 409.5,-145 495.94,-125.72 518.86,-127.38 605.5,-109 614.05,-107.19 623.07,-105.14 631.89,-103.08"/>
<polygon fill="midnightblue" stroke="midnightblue" points="393.74,-145.1 384.88,-150.92 395.43,-151.89 393.74,-145.1"/>
</g>
<!-- Node8 -->
<g id="node8" class="node">
<title>Node8</title>
<g id="a_node8"><a xlink:href="../../d4/d9f/union__tool_8cpp.html" target="_top" xlink:title=" ">
<polygon fill="white" stroke="black" points="780,-73 780,-103 891,-103 891,-73 780,-73"/>
<text text-anchor="start" x="788" y="-91" font-family="Helvetica,sans-Serif" font-size="10.00">src/libs/vtools/tools</text>
<text text-anchor="middle" x="835.5" y="-80" font-family="Helvetica,sans-Serif" font-size="10.00">/union_tool.cpp</text>
</a>
</g>
</g>
<!-- Node4&#45;&gt;Node8 -->
<g id="edge8" class="edge">
<title>Node4&#45;&gt;Node8</title>
<path fill="none" stroke="midnightblue" d="M392.1,-148.6C397.95,-147.25 403.82,-146.02 409.5,-145 568.18,-116.39 612.44,-140.87 770.5,-109 778.25,-107.44 786.4,-105.32 794.21,-103.05"/>
<polygon fill="midnightblue" stroke="midnightblue" points="391.21,-145.21 382.31,-150.94 392.85,-152.02 391.21,-145.21"/>
</g>
<!-- Node9 -->
<g id="node9" class="node">
<title>Node9</title>
<g id="a_node9"><a xlink:href="../../d8/dea/pattern__piece__tool_8cpp.html" target="_top" xlink:title=" ">
<polygon fill="white" stroke="black" points="466,-73 466,-103 597,-103 597,-73 466,-73"/>
<text text-anchor="start" x="474" y="-91" font-family="Helvetica,sans-Serif" font-size="10.00">src/libs/vtools/tools</text>
<text text-anchor="middle" x="531.5" y="-80" font-family="Helvetica,sans-Serif" font-size="10.00">/pattern_piece_tool.cpp</text>
</a>
</g>
</g>
<!-- Node4&#45;&gt;Node9 -->
<g id="edge9" class="edge">
<title>Node4&#45;&gt;Node9</title>
<path fill="none" stroke="midnightblue" d="M379.82,-147.22C414.92,-133.75 462.47,-115.5 494.92,-103.04"/>
<polygon fill="midnightblue" stroke="midnightblue" points="378.36,-144.03 370.28,-150.88 380.87,-150.57 378.36,-144.03"/>
</g>
<!-- Node6 -->
<g id="node6" class="node">
<title>Node6</title>
<g id="a_node6"><a xlink:href="../../d5/da5/tools_8h.html" target="_top" xlink:title=" ">
<polygon fill="white" stroke="black" points="568,-0.5 568,-30.5 679,-30.5 679,-0.5 568,-0.5"/>
<text text-anchor="start" x="576" y="-18.5" font-family="Helvetica,sans-Serif" font-size="10.00">src/libs/vtools/tools</text>
<text text-anchor="middle" x="623.5" y="-7.5" font-family="Helvetica,sans-Serif" font-size="10.00">/tools.h</text>
</a>
</g>
</g>
<!-- Node5&#45;&gt;Node6 -->
<g id="edge6" class="edge">
<title>Node5&#45;&gt;Node6</title>
<path fill="none" stroke="midnightblue" d="M668.55,-65.36C658.18,-54.11 645.79,-40.68 636.63,-30.75"/>
<polygon fill="midnightblue" stroke="midnightblue" points="665.99,-67.75 675.35,-72.73 671.14,-63.01 665.99,-67.75"/>
</g>
<!-- Node7 -->
<g id="node7" class="node">
<title>Node7</title>
<g id="a_node7"><a xlink:href="../../d9/d4e/vabstracttool_8cpp.html" target="_top" xlink:title=" ">
<polygon fill="white" stroke="black" points="697,-0.5 697,-30.5 808,-30.5 808,-0.5 697,-0.5"/>
<text text-anchor="start" x="705" y="-18.5" font-family="Helvetica,sans-Serif" font-size="10.00">src/libs/vtools/tools</text>
<text text-anchor="middle" x="752.5" y="-7.5" font-family="Helvetica,sans-Serif" font-size="10.00">/vabstracttool.cpp</text>
</a>
</g>
</g>
<!-- Node5&#45;&gt;Node7 -->
<g id="edge7" class="edge">
<title>Node5&#45;&gt;Node7</title>
<path fill="none" stroke="midnightblue" d="M708.44,-65.04C718.59,-53.86 730.64,-40.58 739.57,-30.75"/>
<polygon fill="midnightblue" stroke="midnightblue" points="705.58,-62.98 701.45,-72.73 710.76,-67.68 705.58,-62.98"/>
</g>
<!-- Node10&#45;&gt;Node5 -->
<g id="edge13" class="edge">
<title>Node10&#45;&gt;Node5</title>
<path fill="none" stroke="midnightblue" d="M1391.61,-153.72C1367.51,-150.58 1340.96,-147.38 1316.5,-145 1074.45,-121.43 1010.87,-145.95 770.5,-109 760.65,-107.49 750.25,-105.37 740.28,-103.07"/>
<polygon fill="midnightblue" stroke="midnightblue" points="1391.4,-157.23 1401.78,-155.06 1392.32,-150.29 1391.4,-157.23"/>
</g>
<!-- Node10&#45;&gt;Node8 -->
<g id="edge14" class="edge">
<title>Node10&#45;&gt;Node8</title>
<path fill="none" stroke="midnightblue" d="M1391.58,-154.03C1367.47,-150.9 1340.93,-147.63 1316.5,-145 1131.55,-125.09 1082.02,-144.95 899.5,-109 891.73,-107.47 883.58,-105.34 875.79,-103.04"/>
<polygon fill="midnightblue" stroke="midnightblue" points="1391.38,-157.54 1401.75,-155.36 1392.28,-150.59 1391.38,-157.54"/>
</g>
<!-- Node11 -->
<g id="node11" class="node">
<title>Node11</title>
<g id="a_node11"><a xlink:href="../../d8/dd9/mainwindow_8cpp.html" target="_top" xlink:title=" ">
<polygon fill="white" stroke="black" points="1674.5,-78.5 1674.5,-97.5 1862.5,-97.5 1862.5,-78.5 1674.5,-78.5"/>
<text text-anchor="middle" x="1768.5" y="-85.5" font-family="Helvetica,sans-Serif" font-size="10.00">src/app/seamly2d/mainwindow.cpp</text>
</a>
</g>
</g>
<!-- Node10&#45;&gt;Node11 -->
<g id="edge11" class="edge">
<title>Node10&#45;&gt;Node11</title>
<path fill="none" stroke="midnightblue" d="M1550.99,-144.66C1611.14,-129.27 1690.72,-108.9 1735.04,-97.56"/>
<polygon fill="midnightblue" stroke="midnightblue" points="1549.95,-141.31 1541.13,-147.18 1551.69,-148.09 1549.95,-141.31"/>
</g>
<!-- Node12 -->
<g id="node12" class="node">
<title>Node12</title>
<g id="a_node12"><a xlink:href="../../d9/d3a/anchorpoint__tool_8cpp.html" target="_top" xlink:title=" ">
<polygon fill="white" stroke="black" points="2055,-67.5 2055,-108.5 2194,-108.5 2194,-67.5 2055,-67.5"/>
<text text-anchor="start" x="2063" y="-96.5" font-family="Helvetica,sans-Serif" font-size="10.00">src/libs/vtools/tools</text>
<text text-anchor="start" x="2063" y="-85.5" font-family="Helvetica,sans-Serif" font-size="10.00">/nodeDetails/anchorpoint</text>
<text text-anchor="middle" x="2124.5" y="-74.5" font-family="Helvetica,sans-Serif" font-size="10.00">_tool.cpp</text>
</a>
</g>
</g>
<!-- Node10&#45;&gt;Node12 -->
<g id="edge12" class="edge">
<title>Node10&#45;&gt;Node12</title>
<path fill="none" stroke="midnightblue" d="M1551.46,-161.01C1662.84,-154.59 1870.7,-139.48 2045.5,-109 2048.57,-108.47 2051.69,-107.88 2054.84,-107.24"/>
<polygon fill="midnightblue" stroke="midnightblue" points="1551.1,-157.53 1541.32,-161.59 1551.5,-164.52 1551.1,-157.53"/>
</g>
<!-- Node14&#45;&gt;Node5 -->
<g id="edge17" class="edge">
<title>Node14&#45;&gt;Node5</title>
<path fill="none" stroke="midnightblue" d="M976.72,-148.64C971.24,-147.37 965.78,-146.14 960.5,-145 876.5,-126.81 854.5,-127.19 770.5,-109 762.05,-107.17 753.14,-105.12 744.43,-103.05"/>
<polygon fill="midnightblue" stroke="midnightblue" points="976.04,-152.07 986.57,-150.95 977.63,-145.26 976.04,-152.07"/>
</g>
<!-- Node14&#45;&gt;Node8 -->
<g id="edge19" class="edge">
<title>Node14&#45;&gt;Node8</title>
<path fill="none" stroke="midnightblue" d="M994.54,-147.39C957.81,-133.9 907.81,-115.55 873.74,-103.04"/>
<polygon fill="midnightblue" stroke="midnightblue" points="993.46,-150.72 1004.05,-150.88 995.87,-144.15 993.46,-150.72"/>
</g>
<!-- Node14&#45;&gt;Node9 -->
<g id="edge20" class="edge">
<title>Node14&#45;&gt;Node9</title>
<path fill="none" stroke="midnightblue" d="M979.41,-148.69C973.04,-147.32 966.66,-146.06 960.5,-145 804.2,-118.15 761.45,-137.78 605.5,-109 596.86,-107.41 587.76,-105.3 579.01,-103.06"/>
<polygon fill="midnightblue" stroke="midnightblue" points="978.83,-152.14 989.35,-150.91 980.35,-145.31 978.83,-152.14"/>
</g>
<!-- Node14&#45;&gt;Node15 -->
<g id="edge18" class="edge">
<title>Node14&#45;&gt;Node15</title>
<path fill="none" stroke="midnightblue" d="M1103.58,-148.75C1110.6,-147.29 1117.68,-145.99 1124.5,-145 1453.46,-97.4 1542.23,-154.41 1871.5,-109 1882.09,-107.54 1893.3,-105.41 1904.01,-103.09"/>
<polygon fill="midnightblue" stroke="midnightblue" points="1102.4,-145.43 1093.38,-150.99 1103.9,-152.26 1102.4,-145.43"/>
</g>
<!-- Node16&#45;&gt;Node5 -->
<g id="edge22" class="edge">
<title>Node16&#45;&gt;Node5</title>
<path fill="none" stroke="midnightblue" d="M550.67,-146.87C582.67,-133.44 625.65,-115.39 655.06,-103.04"/>
<polygon fill="midnightblue" stroke="midnightblue" points="548.99,-143.78 541.12,-150.88 551.7,-150.24 548.99,-143.78"/>
</g>
<!-- Node16&#45;&gt;Node8 -->
<g id="edge24" class="edge">
<title>Node16&#45;&gt;Node8</title>
<path fill="none" stroke="midnightblue" d="M584.72,-148.92C655.7,-134.08 752.56,-113.66 770.5,-109 777.36,-107.22 784.57,-105.17 791.6,-103.09"/>
<polygon fill="midnightblue" stroke="midnightblue" points="583.96,-145.5 574.89,-150.98 585.39,-152.36 583.96,-145.5"/>
</g>
<!-- Node16&#45;&gt;Node9 -->
<g id="edge25" class="edge">
<title>Node16&#45;&gt;Node9</title>
<path fill="none" stroke="midnightblue" d="M515.09,-140.96C519.01,-128.55 523.66,-113.83 527.01,-103.23"/>
<polygon fill="midnightblue" stroke="midnightblue" points="511.69,-140.12 512.01,-150.7 518.36,-142.22 511.69,-140.12"/>
</g>
<!-- Node16&#45;&gt;Node13 -->
<g id="edge23" class="edge">
<title>Node16&#45;&gt;Node13</title>
<path fill="none" stroke="midnightblue" d="M469.71,-146.35C442.6,-132.97 406.65,-115.23 381.95,-103.04"/>
<polygon fill="midnightblue" stroke="midnightblue" points="468.38,-149.6 478.89,-150.88 471.48,-143.32 468.38,-149.6"/>
</g>
<!-- Node18&#45;&gt;Node5 -->
<g id="edge28" class="edge">
<title>Node18&#45;&gt;Node5</title>
<path fill="none" stroke="midnightblue" d="M688.5,-140.59C688.5,-128.26 688.5,-113.72 688.5,-103.23"/>
<polygon fill="midnightblue" stroke="midnightblue" points="685,-140.7 688.5,-150.7 692,-140.71 685,-140.7"/>
</g>
<!-- Node18&#45;&gt;Node8 -->
<g id="edge30" class="edge">
<title>Node18&#45;&gt;Node8</title>
<path fill="none" stroke="midnightblue" d="M724.91,-146.17C750.75,-132.82 784.87,-115.18 808.34,-103.04"/>
<polygon fill="midnightblue" stroke="midnightblue" points="723.08,-143.18 715.81,-150.88 726.3,-149.4 723.08,-143.18"/>
</g>
<!-- Node18&#45;&gt;Node9 -->
<g id="edge31" class="edge">
<title>Node18&#45;&gt;Node9</title>
<path fill="none" stroke="midnightblue" d="M650.33,-146.52C622.66,-133.13 585.79,-115.28 560.51,-103.04"/>
<polygon fill="midnightblue" stroke="midnightblue" points="648.81,-149.68 659.34,-150.88 651.86,-143.38 648.81,-149.68"/>
</g>
<!-- Node18&#45;&gt;Node17 -->
<g id="edge29" class="edge">
<title>Node18&#45;&gt;Node17</title>
<path fill="none" stroke="midnightblue" d="M752.38,-148.74C758.81,-147.36 765.27,-146.08 771.5,-145 917.29,-119.62 956.49,-133.09 1102.5,-109 1112.61,-107.33 1123.29,-105.25 1133.62,-103.06"/>
<polygon fill="midnightblue" stroke="midnightblue" points="751.32,-145.39 742.31,-150.97 752.83,-152.22 751.32,-145.39"/>
</g>
<!-- Node20&#45;&gt;Node5 -->
<g id="edge36" class="edge">
<title>Node20&#45;&gt;Node5</title>
<path fill="none" stroke="midnightblue" d="M1147.21,-149.07C1139.23,-147.58 1131.21,-146.18 1123.5,-145 967.63,-121.05 925.92,-135.75 770.5,-109 761.11,-107.38 751.21,-105.3 741.65,-103.09"/>
<polygon fill="midnightblue" stroke="midnightblue" points="1146.79,-152.55 1157.27,-151 1148.11,-145.68 1146.79,-152.55"/>
</g>
<!-- Node20&#45;&gt;Node8 -->
<g id="edge38" class="edge">
<title>Node20&#45;&gt;Node8</title>
<path fill="none" stroke="midnightblue" d="M1144.12,-148.92C1137.16,-147.56 1130.2,-146.23 1123.5,-145 1024.32,-126.81 997.65,-132.1 899.5,-109 892.36,-107.32 884.86,-105.26 877.61,-103.1"/>
<polygon fill="midnightblue" stroke="midnightblue" points="1143.82,-152.43 1154.31,-150.95 1145.18,-145.57 1143.82,-152.43"/>
</g>
<!-- Node20&#45;&gt;Node9 -->
<g id="edge39" class="edge">
<title>Node20&#45;&gt;Node9</title>
<path fill="none" stroke="midnightblue" d="M1148.73,-149.08C1140.25,-147.54 1131.7,-146.13 1123.5,-145 894.86,-113.63 833.08,-147.29 605.5,-109 596.58,-107.5 587.17,-105.38 578.17,-103.09"/>
<polygon fill="midnightblue" stroke="midnightblue" points="1148.14,-152.53 1158.62,-150.95 1149.44,-145.66 1148.14,-152.53"/>
</g>
<!-- Node20&#45;&gt;Node11 -->
<g id="edge35" class="edge">
<title>Node20&#45;&gt;Node11</title>
<path fill="none" stroke="midnightblue" d="M1317.76,-153.53C1427.95,-140.4 1600.63,-119.37 1665.5,-109 1686.19,-105.69 1709.07,-101.32 1728.01,-97.51"/>
<polygon fill="midnightblue" stroke="midnightblue" points="1317.15,-150.08 1307.63,-154.73 1317.98,-157.03 1317.15,-150.08"/>
</g>
<!-- Node21 -->
<g id="node21" class="node">
<title>Node21</title>
<g id="a_node21"><a xlink:href="../../d3/dd9/vtoolinternalpath_8cpp.html" target="_top" xlink:title=" ">
<polygon fill="white" stroke="black" points="909,-73 909,-103 1094,-103 1094,-73 909,-73"/>
<text text-anchor="start" x="917" y="-91" font-family="Helvetica,sans-Serif" font-size="10.00">src/libs/vtools/tools</text>
<text text-anchor="middle" x="1001.5" y="-80" font-family="Helvetica,sans-Serif" font-size="10.00">/nodeDetails/vtoolinternalpath.cpp</text>
</a>
</g>
</g>
<!-- Node20&#45;&gt;Node21 -->
<g id="edge37" class="edge">
<title>Node20&#45;&gt;Node21</title>
<path fill="none" stroke="midnightblue" d="M1170.52,-147.65C1131.62,-134.16 1078.33,-115.66 1042.06,-103.07"/>
<polygon fill="midnightblue" stroke="midnightblue" points="1169.48,-151 1180.08,-150.97 1171.78,-144.39 1169.48,-151"/>
</g>
<!-- Node22 -->
<g id="node22" class="node">
<title>Node22</title>
<g id="a_node22"><a xlink:href="../../dd/d3a/savepiecepathoptions_8cpp.html" target="_top" xlink:title=" ">
<polygon fill="white" stroke="black" points="1291,-73 1291,-103 1456,-103 1456,-73 1291,-73"/>
<text text-anchor="start" x="1299" y="-91" font-family="Helvetica,sans-Serif" font-size="10.00">src/libs/vtools/undocommands</text>
<text text-anchor="middle" x="1373.5" y="-80" font-family="Helvetica,sans-Serif" font-size="10.00">/savepiecepathoptions.cpp</text>
</a>
</g>
</g>
<!-- Node20&#45;&gt;Node22 -->
<g id="edge40" class="edge">
<title>Node20&#45;&gt;Node22</title>
<path fill="none" stroke="midnightblue" d="M1258.05,-146.35C1284.98,-132.97 1320.7,-115.23 1345.23,-103.04"/>
<polygon fill="midnightblue" stroke="midnightblue" points="1256.32,-143.3 1248.92,-150.88 1259.43,-149.57 1256.32,-143.3"/>
</g>
<!-- Node23&#45;&gt;Node5 -->
<g id="edge42" class="edge">
<title>Node23&#45;&gt;Node5</title>
<path fill="none" stroke="midnightblue" d="M824.04,-146.87C792.58,-133.44 750.31,-115.39 721.39,-103.04"/>
<polygon fill="midnightblue" stroke="midnightblue" points="822.87,-150.18 833.44,-150.88 825.61,-143.74 822.87,-150.18"/>
</g>
<!-- Node23&#45;&gt;Node8 -->
<g id="edge44" class="edge">
<title>Node23&#45;&gt;Node8</title>
<path fill="none" stroke="midnightblue" d="M856.85,-141.33C851.75,-128.85 845.67,-113.94 841.3,-103.23"/>
<polygon fill="midnightblue" stroke="midnightblue" points="853.65,-142.77 860.67,-150.7 860.13,-140.12 853.65,-142.77"/>
</g>
<!-- Node23&#45;&gt;Node9 -->
<g id="edge45" class="edge">
<title>Node23&#45;&gt;Node9</title>
<path fill="none" stroke="midnightblue" d="M790.1,-148.82C719.67,-133.87 623.4,-113.34 605.5,-109 597.87,-107.15 589.82,-105.09 581.96,-103.02"/>
<polygon fill="midnightblue" stroke="midnightblue" points="789.79,-152.33 800.3,-150.98 791.24,-145.49 789.79,-152.33"/>
</g>
<!-- Node23&#45;&gt;Node19 -->
<g id="edge43" class="edge">
<title>Node23&#45;&gt;Node19</title>
<path fill="none" stroke="midnightblue" d="M936.31,-149.03C944.44,-147.5 952.63,-146.11 960.5,-145 1182.86,-113.56 1241.92,-138.87 1464.5,-109 1476.37,-107.41 1488.94,-105.28 1501.04,-103"/>
<polygon fill="midnightblue" stroke="midnightblue" points="935.6,-145.6 926.45,-150.95 936.94,-152.47 935.6,-145.6"/>
</g>
</g>
</svg>
        <g id="navigator" transform="translate(0 0)" fill="#404254">
                <rect fill="#f2f5e9" fill-opacity="0.5" stroke="#606060" stroke-width=".5" x="0" y="0" width="60" height="60"/>
                <use id="zoomplus" xlink:href="#zoomPlus" x="17" y="9" onmousedown="handleZoom(evt,'in')"/>
                <use id="zoomminus" xlink:href="#zoomMin" x="42" y="9" onmousedown="handleZoom(evt,'out')"/>
                <use id="reset" xlink:href="#resetDef" x="30" y="36" onmousedown="handleReset()"/>
                <g id="arrowUp" xlink:href="#dirArrow" transform="translate(30 24)" onmousedown="handlePan(0,-1)">
                  <use xlink:href="#rim" fill="#404040">
                        <set attributeName="fill" to="#808080" begin="arrowUp.mouseover" end="arrowUp.mouseout"/>
                  </use>
                  <path fill="none" stroke="white" stroke-width="1.5" d="M0,-3.0v7 M-2.5,-0.5L0,-3.0L2.5,-0.5"/>
                </g>
                <g id="arrowRight" xlink:href="#dirArrow" transform="rotate(90) translate(36 -43)" onmousedown="handlePan(1,0)">
                  <use xlink:href="#rim" fill="#404040">
                        <set attributeName="fill" to="#808080" begin="arrowRight.mouseover" end="arrowRight.mouseout"/>
                  </use>
                  <path fill="none" stroke="white" stroke-width="1.5" d="M0,-3.0v7 M-2.5,-0.5L0,-3.0L2.5,-0.5"/>
                </g>
                <g id="arrowDown" xlink:href="#dirArrow" transform="rotate(180) translate(-30 -48)" onmousedown="handlePan(0,1)">
                  <use xlink:href="#rim" fill="#404040">
                        <set attributeName="fill" to="#808080" begin="arrowDown.mouseover" end="arrowDown.mouseout"/>
                  </use>
                  <path fill="none" stroke="white" stroke-width="1.5" d="M0,-3.0v7 M-2.5,-0.5L0,-3.0L2.5,-0.5"/>
                </g>
                <g id="arrowLeft" xlink:href="#dirArrow" transform="rotate(270) translate(-36 17)" onmousedown="handlePan(-1,0)">
                  <use xlink:href="#rim" fill="#404040">
                        <set attributeName="fill" to="#808080" begin="arrowLeft.mouseover" end="arrowLeft.mouseout"/>
                  </use>
                  <path fill="none" stroke="white" stroke-width="1.5" d="M0,-3.0v7 M-2.5,-0.5L0,-3.0L2.5,-0.5"/>
                </g>
        </g>
        <svg viewBox="0 0 15 15" width="100%" height="30px" preserveAspectRatio="xMaxYMin meet">
         <g id="arrow_out" transform="scale(0.3 0.3)">
          <a xlink:href="vabstractnode_8h__dep__incl_org.svg" target="_base">
           <rect id="button" ry="5" rx="5" y="6" x="6" height="38" width="38"
                fill="#f2f5e9" fill-opacity="0.5" stroke="#606060" stroke-width="1.0"/>
           <path id="arrow"
             d="M 11.500037,31.436501 C 11.940474,20.09759 22.043105,11.32322 32.158766,21.979434 L 37.068811,17.246167 C 37.068811,17.246167 37.088388,32 37.088388,32 L 22.160133,31.978069 C 22.160133,31.978069 26.997745,27.140456 26.997745,27.140456 C 18.528582,18.264221 13.291696,25.230495 11.500037,31.436501 z"
             style="fill:#404040;"/>
          </a>
         </g>
        </svg>
</svg>
