<?xml version="1.0" encoding="UTF-8" standalone="no"?>
<!DOCTYPE svg PUBLIC "-//W3C//DTD SVG 1.1//EN"
 "http://www.w3.org/Graphics/SVG/1.1/DTD/svg11.dtd">
<!-- Generated by graphviz version 2.43.0 (0)
 -->
<!-- Title: src/libs/vpatterndb/vtranslatemeasurements.h Pages: 1 -->
<svg width="6220pt" height="385pt"
 viewBox="0.00 0.00 6220.00 385.00" xmlns="http://www.w3.org/2000/svg" xmlns:xlink="http://www.w3.org/1999/xlink">
<g id="graph0" class="graph" transform="scale(1 1) rotate(0) translate(4 381)">
<title>src/libs/vpatterndb/vtranslatemeasurements.h</title>
<polygon fill="white" stroke="transparent" points="-4,4 -4,-381 6216,-381 6216,4 -4,4"/>
<!-- Node1 -->
<g id="node1" class="node">
<title>Node1</title>
<g id="a_node1"><a xlink:title=" ">
<polygon fill="#bfbfbf" stroke="black" points="5430,-346.5 5430,-376.5 5582,-376.5 5582,-346.5 5430,-346.5"/>
<text text-anchor="start" x="5438" y="-364.5" font-family="Helvetica,sans-Serif" font-size="10.00">src/libs/vpatterndb</text>
<text text-anchor="middle" x="5506" y="-353.5" font-family="Helvetica,sans-Serif" font-size="10.00">/vtranslatemeasurements.h</text>
</a>
</g>
</g>
<!-- Node2 -->
<g id="node2" class="node">
<title>Node2</title>
<g id="a_node2"><a xlink:href="../../dd/de9/measurements__def_8cpp.html" target="_top" xlink:title=" ">
<polygon fill="white" stroke="black" points="5075,-279.5 5075,-309.5 5209,-309.5 5209,-279.5 5075,-279.5"/>
<text text-anchor="start" x="5083" y="-297.5" font-family="Helvetica,sans-Serif" font-size="10.00">src/libs/vpatterndb</text>
<text text-anchor="middle" x="5142" y="-286.5" font-family="Helvetica,sans-Serif" font-size="10.00">/measurements_def.cpp</text>
</a>
</g>
</g>
<!-- Node1&#45;&gt;Node2 -->
<g id="edge1" class="edge">
<title>Node1&#45;&gt;Node2</title>
<path fill="none" stroke="midnightblue" d="M5419.76,-345.6C5362.75,-335.69 5286.38,-322.27 5219,-310 5215.79,-309.42 5212.5,-308.81 5209.18,-308.2"/>
<polygon fill="midnightblue" stroke="midnightblue" points="5419.37,-349.09 5429.82,-347.35 5420.57,-342.19 5419.37,-349.09"/>
</g>
<!-- Node3 -->
<g id="node3" class="node">
<title>Node3</title>
<g id="a_node3"><a xlink:href="../../de/d3e/vtranslatevars_8cpp.html" target="_top" xlink:title=" ">
<polygon fill="white" stroke="black" points="6102,-67.5 6102,-97.5 6212,-97.5 6212,-67.5 6102,-67.5"/>
<text text-anchor="start" x="6110" y="-85.5" font-family="Helvetica,sans-Serif" font-size="10.00">src/libs/vpatterndb</text>
<text text-anchor="middle" x="6157" y="-74.5" font-family="Helvetica,sans-Serif" font-size="10.00">/vtranslatevars.cpp</text>
</a>
</g>
</g>
<!-- Node1&#45;&gt;Node3 -->
<g id="edge2" class="edge">
<title>Node1&#45;&gt;Node3</title>
<path fill="none" stroke="midnightblue" d="M5542.95,-341.84C5576.98,-324.85 5629,-299.4 5675,-279 5839.07,-206.25 6038.91,-128.63 6120.08,-97.54"/>
<polygon fill="midnightblue" stroke="midnightblue" points="5541.23,-338.79 5533.85,-346.39 5544.36,-345.04 5541.23,-338.79"/>
</g>
<!-- Node4 -->
<g id="node4" class="node">
<title>Node4</title>
<g id="a_node4"><a xlink:href="../../da/d69/vtranslatevars_8h.html" target="_top" xlink:title=" ">
<polygon fill="white" stroke="black" points="5227.5,-279.5 5227.5,-309.5 5334.5,-309.5 5334.5,-279.5 5227.5,-279.5"/>
<text text-anchor="start" x="5235.5" y="-297.5" font-family="Helvetica,sans-Serif" font-size="10.00">src/libs/vpatterndb</text>
<text text-anchor="middle" x="5281" y="-286.5" font-family="Helvetica,sans-Serif" font-size="10.00">/vtranslatevars.h</text>
</a>
</g>
</g>
<!-- Node1&#45;&gt;Node4 -->
<g id="edge3" class="edge">
<title>Node1&#45;&gt;Node4</title>
<path fill="none" stroke="midnightblue" d="M5447.43,-343.58C5410.89,-333.02 5364.4,-319.59 5329.85,-309.61"/>
<polygon fill="midnightblue" stroke="midnightblue" points="5446.88,-347.06 5457.46,-346.48 5448.82,-340.34 5446.88,-347.06"/>
</g>
<!-- Node68 -->
<g id="node50" class="node">
<title>Node68</title>
<g id="a_node50"><a xlink:href="../../d0/d50/vtranslatemeasurements_8cpp.html" target="_top" xlink:title=" ">
<polygon fill="white" stroke="black" points="5683.5,-279.5 5683.5,-309.5 5846.5,-309.5 5846.5,-279.5 5683.5,-279.5"/>
<text text-anchor="start" x="5691.5" y="-297.5" font-family="Helvetica,sans-Serif" font-size="10.00">src/libs/vpatterndb</text>
<text text-anchor="middle" x="5765" y="-286.5" font-family="Helvetica,sans-Serif" font-size="10.00">/vtranslatemeasurements.cpp</text>
</a>
</g>
</g>
<!-- Node1&#45;&gt;Node68 -->
<g id="edge61" class="edge">
<title>Node1&#45;&gt;Node68</title>
<path fill="none" stroke="midnightblue" d="M5571.81,-343.98C5614.11,-333.37 5668.49,-319.72 5708.77,-309.61"/>
<polygon fill="midnightblue" stroke="midnightblue" points="5570.73,-340.65 5561.88,-346.48 5572.43,-347.44 5570.73,-340.65"/>
</g>
<!-- Node4&#45;&gt;Node3 -->
<g id="edge57" class="edge">
<title>Node4&#45;&gt;Node3</title>
<path fill="none" stroke="midnightblue" d="M5344.92,-290.77C5426.31,-286.07 5560.97,-273.77 5599,-243 5639.36,-210.35 5599.4,-165.06 5641,-134 5721.75,-73.72 5993.39,-113.17 6093,-98 6095.93,-97.55 6098.92,-97.05 6101.94,-96.5"/>
<polygon fill="midnightblue" stroke="midnightblue" points="5344.57,-287.29 5334.78,-291.34 5344.96,-294.28 5344.57,-287.29"/>
</g>
<!-- Node5 -->
<g id="node5" class="node">
<title>Node5</title>
<g id="a_node5"><a xlink:href="../../d5/d74/vabstractapplication_8h.html" target="_top" xlink:title=" ">
<polygon fill="white" stroke="black" points="3338.5,-145.5 3338.5,-164.5 3533.5,-164.5 3533.5,-145.5 3338.5,-145.5"/>
<text text-anchor="middle" x="3436" y="-152.5" font-family="Helvetica,sans-Serif" font-size="10.00">src/libs/vmisc/vabstractapplication.h</text>
</a>
</g>
</g>
<!-- Node4&#45;&gt;Node5 -->
<g id="edge4" class="edge">
<title>Node4&#45;&gt;Node5</title>
<path fill="none" stroke="midnightblue" d="M5217.53,-279.11C4572.41,-183.99 3801.9,-162.24 3533.65,-157.36"/>
<polygon fill="midnightblue" stroke="midnightblue" points="5217.09,-282.58 5227.49,-280.58 5218.11,-275.65 5217.09,-282.58"/>
</g>
<!-- Node25 -->
<g id="node21" class="node">
<title>Node25</title>
<g id="a_node21"><a xlink:href="../../db/d11/vformula_8cpp.html" target="_top" xlink:title=" ">
<polygon fill="white" stroke="black" points="892.5,-67.5 892.5,-97.5 999.5,-97.5 999.5,-67.5 892.5,-67.5"/>
<text text-anchor="start" x="900.5" y="-85.5" font-family="Helvetica,sans-Serif" font-size="10.00">src/libs/vpatterndb</text>
<text text-anchor="middle" x="946" y="-74.5" font-family="Helvetica,sans-Serif" font-size="10.00">/vformula.cpp</text>
</a>
</g>
</g>
<!-- Node4&#45;&gt;Node25 -->
<g id="edge41" class="edge">
<title>Node4&#45;&gt;Node25</title>
<path fill="none" stroke="midnightblue" d="M5216.78,-279.19C4895.16,-244.72 1238.1,-129.02 1009,-98 1006,-97.59 1002.93,-97.11 999.84,-96.57"/>
<polygon fill="midnightblue" stroke="midnightblue" points="5216.82,-282.72 5227.16,-280.43 5217.65,-275.76 5216.82,-282.72"/>
</g>
<!-- Node29 -->
<g id="node24" class="node">
<title>Node29</title>
<g id="a_node24"><a xlink:href="../../d6/d46/vcontainer_8cpp.html" target="_top" xlink:title=" ">
<polygon fill="white" stroke="black" points="5976.5,-67.5 5976.5,-97.5 6083.5,-97.5 6083.5,-67.5 5976.5,-67.5"/>
<text text-anchor="start" x="5984.5" y="-85.5" font-family="Helvetica,sans-Serif" font-size="10.00">src/libs/vpatterndb</text>
<text text-anchor="middle" x="6030" y="-74.5" font-family="Helvetica,sans-Serif" font-size="10.00">/vcontainer.cpp</text>
</a>
</g>
</g>
<!-- Node4&#45;&gt;Node29 -->
<g id="edge56" class="edge">
<title>Node4&#45;&gt;Node29</title>
<path fill="none" stroke="midnightblue" d="M5217.66,-277.32C5175.63,-265.95 5127.11,-251.34 5121,-243 5112.85,-231.89 5112.07,-222.49 5121,-212 5244.1,-67.38 5780.63,-129.01 5968,-98 5970.73,-97.55 5973.51,-97.05 5976.32,-96.51"/>
<polygon fill="midnightblue" stroke="midnightblue" points="5216.77,-280.71 5227.34,-279.92 5218.58,-273.95 5216.77,-280.71"/>
</g>
<!-- Node45 -->
<g id="node40" class="node">
<title>Node45</title>
<g id="a_node40"><a xlink:href="../../d3/df7/vcontainer_8h.html" target="_top" xlink:title=" ">
<polygon fill="white" stroke="red" points="797.5,-212.5 797.5,-242.5 904.5,-242.5 904.5,-212.5 797.5,-212.5"/>
<text text-anchor="start" x="805.5" y="-230.5" font-family="Helvetica,sans-Serif" font-size="10.00">src/libs/vpatterndb</text>
<text text-anchor="middle" x="851" y="-219.5" font-family="Helvetica,sans-Serif" font-size="10.00">/vcontainer.h</text>
</a>
</g>
</g>
<!-- Node4&#45;&gt;Node45 -->
<g id="edge42" class="edge">
<title>Node4&#45;&gt;Node45</title>
<path fill="none" stroke="midnightblue" d="M5217.17,-280.04C5001.55,-275.77 1388.98,-234.62 904.55,-229.11"/>
<polygon fill="midnightblue" stroke="midnightblue" points="5217.09,-283.54 5227.18,-280.31 5217.28,-276.54 5217.09,-283.54"/>
</g>
<!-- Node65 -->
<g id="node47" class="node">
<title>Node65</title>
<g id="a_node47"><a xlink:href="../../dc/dc2/dialogsplinepath_8cpp.html" target="_top" xlink:title=" ">
<polygon fill="white" stroke="black" points="5130,-212.5 5130,-242.5 5278,-242.5 5278,-212.5 5130,-212.5"/>
<text text-anchor="start" x="5138" y="-230.5" font-family="Helvetica,sans-Serif" font-size="10.00">src/libs/vtools/dialogs</text>
<text text-anchor="middle" x="5204" y="-219.5" font-family="Helvetica,sans-Serif" font-size="10.00">/tools/dialogsplinepath.cpp</text>
</a>
</g>
</g>
<!-- Node4&#45;&gt;Node65 -->
<g id="edge58" class="edge">
<title>Node4&#45;&gt;Node65</title>
<path fill="none" stroke="midnightblue" d="M5256.58,-272.88C5244.88,-263.01 5231.16,-251.43 5220.68,-242.58"/>
<polygon fill="midnightblue" stroke="midnightblue" points="5254.39,-275.62 5264.29,-279.4 5258.91,-270.27 5254.39,-275.62"/>
</g>
<!-- Node66 -->
<g id="node48" class="node">
<title>Node66</title>
<g id="a_node48"><a xlink:href="../../df/de5/dialogspline_8cpp.html" target="_top" xlink:title=" ">
<polygon fill="white" stroke="black" points="5296,-212.5 5296,-242.5 5422,-242.5 5422,-212.5 5296,-212.5"/>
<text text-anchor="start" x="5304" y="-230.5" font-family="Helvetica,sans-Serif" font-size="10.00">src/libs/vtools/dialogs</text>
<text text-anchor="middle" x="5359" y="-219.5" font-family="Helvetica,sans-Serif" font-size="10.00">/tools/dialogspline.cpp</text>
</a>
</g>
</g>
<!-- Node4&#45;&gt;Node66 -->
<g id="edge59" class="edge">
<title>Node4&#45;&gt;Node66</title>
<path fill="none" stroke="midnightblue" d="M5305.74,-272.88C5317.59,-263.01 5331.48,-251.43 5342.11,-242.58"/>
<polygon fill="midnightblue" stroke="midnightblue" points="5303.37,-270.31 5297.92,-279.4 5307.85,-275.68 5303.37,-270.31"/>
</g>
<!-- Node67 -->
<g id="node49" class="node">
<title>Node67</title>
<g id="a_node49"><a xlink:href="../../d1/d75/vistoolendline_8cpp.html" target="_top" xlink:title=" ">
<polygon fill="white" stroke="black" points="5440.5,-212.5 5440.5,-242.5 5589.5,-242.5 5589.5,-212.5 5440.5,-212.5"/>
<text text-anchor="start" x="5448.5" y="-230.5" font-family="Helvetica,sans-Serif" font-size="10.00">src/libs/vtools/visualization</text>
<text text-anchor="middle" x="5515" y="-219.5" font-family="Helvetica,sans-Serif" font-size="10.00">/line/vistoolendline.cpp</text>
</a>
</g>
</g>
<!-- Node4&#45;&gt;Node67 -->
<g id="edge60" class="edge">
<title>Node4&#45;&gt;Node67</title>
<path fill="none" stroke="midnightblue" d="M5341.43,-276.71C5379.51,-266.14 5428.11,-252.63 5464.2,-242.61"/>
<polygon fill="midnightblue" stroke="midnightblue" points="5340.18,-273.43 5331.49,-279.48 5342.06,-280.17 5340.18,-273.43"/>
</g>
<!-- Node5&#45;&gt;Node3 -->
<g id="edge25" class="edge">
<title>Node5&#45;&gt;Node3</title>
<path fill="none" stroke="midnightblue" d="M3543.69,-153.01C4009.33,-148.58 5837.57,-129.3 6093,-98 6095.94,-97.64 6098.94,-97.2 6101.97,-96.71"/>
<polygon fill="midnightblue" stroke="midnightblue" points="3543.57,-149.52 3533.61,-153.11 3543.64,-156.51 3543.57,-149.52"/>
</g>
<!-- Node6 -->
<g id="node6" class="node">
<title>Node6</title>
<g id="a_node6"><a xlink:href="../../d4/d90/fvupdater_8cpp.html" target="_top" xlink:title=" ">
<polygon fill="white" stroke="black" points="4638.5,-73 4638.5,-92 4791.5,-92 4791.5,-73 4638.5,-73"/>
<text text-anchor="middle" x="4715" y="-80" font-family="Helvetica,sans-Serif" font-size="10.00">src/libs/fervor/fvupdater.cpp</text>
</a>
</g>
</g>
<!-- Node5&#45;&gt;Node6 -->
<g id="edge5" class="edge">
<title>Node5&#45;&gt;Node6</title>
<path fill="none" stroke="midnightblue" d="M3543.91,-153.34C3753.73,-151.09 4231.13,-141.21 4630,-98 4643.39,-96.55 4657.88,-94.33 4671.03,-92.05"/>
<polygon fill="midnightblue" stroke="midnightblue" points="3543.78,-149.85 3533.82,-153.45 3543.85,-156.84 3543.78,-149.85"/>
</g>
<!-- Node7 -->
<g id="node7" class="node">
<title>Node7</title>
<g id="a_node7"><a xlink:href="../../d9/dc8/dxiface_8cpp.html" target="_top" xlink:title=" ">
<polygon fill="white" stroke="black" points="4809.5,-73 4809.5,-92 4944.5,-92 4944.5,-73 4809.5,-73"/>
<text text-anchor="middle" x="4877" y="-80" font-family="Helvetica,sans-Serif" font-size="10.00">src/libs/vdxf/dxiface.cpp</text>
</a>
</g>
</g>
<!-- Node5&#45;&gt;Node7 -->
<g id="edge6" class="edge">
<title>Node5&#45;&gt;Node7</title>
<path fill="none" stroke="midnightblue" d="M3543.78,-151.63C3821.77,-145.2 4558.22,-125.99 4801,-98 4813.14,-96.6 4826.26,-94.36 4838.12,-92.06"/>
<polygon fill="midnightblue" stroke="midnightblue" points="3543.6,-148.14 3533.69,-151.87 3543.77,-155.14 3543.6,-148.14"/>
</g>
<!-- Node8 -->
<g id="node8" class="node">
<title>Node8</title>
<g id="a_node8"><a xlink:href="../../da/d75/vabstractarc__p_8h.html" target="_top" xlink:title=" ">
<polygon fill="white" stroke="red" points="4962.5,-67.5 4962.5,-97.5 5069.5,-97.5 5069.5,-67.5 4962.5,-67.5"/>
<text text-anchor="start" x="4970.5" y="-85.5" font-family="Helvetica,sans-Serif" font-size="10.00">src/libs/vgeometry</text>
<text text-anchor="middle" x="5016" y="-74.5" font-family="Helvetica,sans-Serif" font-size="10.00">/vabstractarc_p.h</text>
</a>
</g>
</g>
<!-- Node5&#45;&gt;Node8 -->
<g id="edge7" class="edge">
<title>Node5&#45;&gt;Node8</title>
<path fill="none" stroke="midnightblue" d="M3544.06,-152.72C3843.74,-148.74 4681.15,-134.59 4954,-98 4956.74,-97.63 4959.53,-97.2 4962.35,-96.71"/>
<polygon fill="midnightblue" stroke="midnightblue" points="3543.58,-149.23 3533.63,-152.86 3543.68,-156.23 3543.58,-149.23"/>
</g>
<!-- Node10 -->
<g id="node9" class="node">
<title>Node10</title>
<g id="a_node9"><a xlink:href="../../dc/da3/varc__p_8h.html" target="_top" xlink:title=" ">
<polygon fill="white" stroke="red" points="5087.5,-67.5 5087.5,-97.5 5194.5,-97.5 5194.5,-67.5 5087.5,-67.5"/>
<text text-anchor="start" x="5095.5" y="-85.5" font-family="Helvetica,sans-Serif" font-size="10.00">src/libs/vgeometry</text>
<text text-anchor="middle" x="5141" y="-74.5" font-family="Helvetica,sans-Serif" font-size="10.00">/varc_p.h</text>
</a>
</g>
</g>
<!-- Node5&#45;&gt;Node10 -->
<g id="edge8" class="edge">
<title>Node5&#45;&gt;Node10</title>
<path fill="none" stroke="midnightblue" d="M3543.8,-153.08C3859.89,-149.94 4780.83,-137.56 5079,-98 5081.74,-97.64 5084.54,-97.21 5087.35,-96.72"/>
<polygon fill="midnightblue" stroke="midnightblue" points="3543.68,-149.58 3533.72,-153.18 3543.75,-156.58 3543.68,-149.58"/>
</g>
<!-- Node12 -->
<g id="node10" class="node">
<title>Node12</title>
<g id="a_node10"><a xlink:href="../../d5/d8e/vcubicbezier__p_8h.html" target="_top" xlink:title=" ">
<polygon fill="white" stroke="red" points="5212.5,-67.5 5212.5,-97.5 5319.5,-97.5 5319.5,-67.5 5212.5,-67.5"/>
<text text-anchor="start" x="5220.5" y="-85.5" font-family="Helvetica,sans-Serif" font-size="10.00">src/libs/vgeometry</text>
<text text-anchor="middle" x="5266" y="-74.5" font-family="Helvetica,sans-Serif" font-size="10.00">/vcubicbezier_p.h</text>
</a>
</g>
</g>
<!-- Node5&#45;&gt;Node12 -->
<g id="edge9" class="edge">
<title>Node5&#45;&gt;Node12</title>
<path fill="none" stroke="midnightblue" d="M3543.71,-151.83C3901.97,-144.45 5040.16,-119.54 5204,-98 5206.74,-97.64 5209.54,-97.21 5212.35,-96.73"/>
<polygon fill="midnightblue" stroke="midnightblue" points="3543.52,-148.33 3533.6,-152.04 3543.67,-155.33 3543.52,-148.33"/>
</g>
<!-- Node14 -->
<g id="node11" class="node">
<title>Node14</title>
<g id="a_node11"><a xlink:href="../../df/dde/vellipticalarc__p_8h.html" target="_top" xlink:title=" ">
<polygon fill="white" stroke="black" points="5376.5,-67.5 5376.5,-97.5 5483.5,-97.5 5483.5,-67.5 5376.5,-67.5"/>
<text text-anchor="start" x="5384.5" y="-85.5" font-family="Helvetica,sans-Serif" font-size="10.00">src/libs/vgeometry</text>
<text text-anchor="middle" x="5430" y="-74.5" font-family="Helvetica,sans-Serif" font-size="10.00">/vellipticalarc_p.h</text>
</a>
</g>
</g>
<!-- Node5&#45;&gt;Node14 -->
<g id="edge10" class="edge">
<title>Node5&#45;&gt;Node14</title>
<path fill="none" stroke="midnightblue" d="M3543.82,-152.01C3922.98,-144.84 5181.8,-119.65 5362,-98 5366.67,-97.44 5371.5,-96.71 5376.33,-95.88"/>
<polygon fill="midnightblue" stroke="midnightblue" points="3543.61,-148.51 3533.67,-152.2 3543.74,-155.51 3543.61,-148.51"/>
</g>
<!-- Node15 -->
<g id="node12" class="node">
<title>Node15</title>
<g id="a_node12"><a xlink:href="../../d6/dfb/vellipticalarc_8cpp.html" target="_top" xlink:title=" ">
<polygon fill="white" stroke="black" points="5335.5,-0.5 5335.5,-30.5 5442.5,-30.5 5442.5,-0.5 5335.5,-0.5"/>
<text text-anchor="start" x="5343.5" y="-18.5" font-family="Helvetica,sans-Serif" font-size="10.00">src/libs/vgeometry</text>
<text text-anchor="middle" x="5389" y="-7.5" font-family="Helvetica,sans-Serif" font-size="10.00">/vellipticalarc.cpp</text>
</a>
</g>
</g>
<!-- Node5&#45;&gt;Node15 -->
<g id="edge12" class="edge">
<title>Node5&#45;&gt;Node15</title>
<path fill="none" stroke="midnightblue" d="M3543.78,-152.08C3939.19,-144.89 5289.25,-118.84 5329,-98 5356.7,-83.48 5374.89,-49.75 5383.4,-30.54"/>
<polygon fill="midnightblue" stroke="midnightblue" points="3543.7,-148.58 3533.77,-152.26 3543.83,-155.58 3543.7,-148.58"/>
</g>
<!-- Node16 -->
<g id="node13" class="node">
<title>Node16</title>
<g id="a_node13"><a xlink:href="../../d1/d76/vspline__p_8h.html" target="_top" xlink:title=" ">
<polygon fill="white" stroke="red" points="5501.5,-67.5 5501.5,-97.5 5608.5,-97.5 5608.5,-67.5 5501.5,-67.5"/>
<text text-anchor="start" x="5509.5" y="-85.5" font-family="Helvetica,sans-Serif" font-size="10.00">src/libs/vgeometry</text>
<text text-anchor="middle" x="5555" y="-74.5" font-family="Helvetica,sans-Serif" font-size="10.00">/vspline_p.h</text>
</a>
</g>
</g>
<!-- Node5&#45;&gt;Node16 -->
<g id="edge13" class="edge">
<title>Node5&#45;&gt;Node16</title>
<path fill="none" stroke="midnightblue" d="M3543.74,-152.35C3939.44,-146.09 5299.58,-122.99 5493,-98 5495.74,-97.65 5498.54,-97.22 5501.35,-96.75"/>
<polygon fill="midnightblue" stroke="midnightblue" points="3543.67,-148.85 3533.73,-152.5 3543.78,-155.85 3543.67,-148.85"/>
</g>
<!-- Node18 -->
<g id="node14" class="node">
<title>Node18</title>
<g id="a_node14"><a xlink:href="../../d9/d15/vabstractpiece_8cpp.html" target="_top" xlink:title=" ">
<polygon fill="white" stroke="black" points="5627,-73 5627,-92 5813,-92 5813,-73 5627,-73"/>
<text text-anchor="middle" x="5720" y="-80" font-family="Helvetica,sans-Serif" font-size="10.00">src/libs/vlayout/vabstractpiece.cpp</text>
</a>
</g>
</g>
<!-- Node5&#45;&gt;Node18 -->
<g id="edge14" class="edge">
<title>Node5&#45;&gt;Node18</title>
<path fill="none" stroke="midnightblue" d="M3543.92,-151.96C3955.09,-144.1 5410.8,-115.33 5618,-98 5634.49,-96.62 5652.38,-94.35 5668.5,-92"/>
<polygon fill="midnightblue" stroke="midnightblue" points="3543.75,-148.47 3533.82,-152.16 3543.88,-155.46 3543.75,-148.47"/>
</g>
<!-- Node19 -->
<g id="node15" class="node">
<title>Node19</title>
<g id="a_node15"><a xlink:href="../../dd/d70/vlayoutpiece_8cpp.html" target="_top" xlink:title=" ">
<polygon fill="white" stroke="black" points="371.5,-73 371.5,-92 548.5,-92 548.5,-73 371.5,-73"/>
<text text-anchor="middle" x="460" y="-80" font-family="Helvetica,sans-Serif" font-size="10.00">src/libs/vlayout/vlayoutpiece.cpp</text>
</a>
</g>
</g>
<!-- Node5&#45;&gt;Node19 -->
<g id="edge15" class="edge">
<title>Node5&#45;&gt;Node19</title>
<path fill="none" stroke="midnightblue" d="M3328.32,-153.74C2873.96,-152.38 1111.56,-144.15 558,-98 542.06,-96.67 524.77,-94.39 509.21,-92.03"/>
<polygon fill="midnightblue" stroke="midnightblue" points="3328.47,-157.24 3338.48,-153.77 3328.49,-150.24 3328.47,-157.24"/>
</g>
<!-- Node20 -->
<g id="node16" class="node">
<title>Node20</title>
<g id="a_node16"><a xlink:href="../../d8/d70/vtextmanager_8cpp.html" target="_top" xlink:title=" ">
<polygon fill="white" stroke="black" points="567,-73 567,-92 749,-92 749,-73 567,-73"/>
<text text-anchor="middle" x="658" y="-80" font-family="Helvetica,sans-Serif" font-size="10.00">src/libs/vlayout/vtextmanager.cpp</text>
</a>
</g>
</g>
<!-- Node5&#45;&gt;Node20 -->
<g id="edge16" class="edge">
<title>Node5&#45;&gt;Node20</title>
<path fill="none" stroke="midnightblue" d="M3328.33,-153.5C2894.18,-151.21 1270.98,-139.95 759,-98 742.58,-96.65 724.76,-94.37 708.73,-92.01"/>
<polygon fill="midnightblue" stroke="midnightblue" points="3328.35,-157 3338.37,-153.55 3328.38,-150 3328.35,-157"/>
</g>
<!-- Node21 -->
<g id="node17" class="node">
<title>Node21</title>
<g id="a_node17"><a xlink:href="../../db/d65/dialogexporttocsv_8cpp.html" target="_top" xlink:title=" ">
<polygon fill="white" stroke="black" points="5831.5,-67.5 5831.5,-97.5 5958.5,-97.5 5958.5,-67.5 5831.5,-67.5"/>
<text text-anchor="start" x="5839.5" y="-85.5" font-family="Helvetica,sans-Serif" font-size="10.00">src/libs/vmisc/dialogs</text>
<text text-anchor="middle" x="5895" y="-74.5" font-family="Helvetica,sans-Serif" font-size="10.00">/dialogexporttocsv.cpp</text>
</a>
</g>
</g>
<!-- Node5&#45;&gt;Node21 -->
<g id="edge17" class="edge">
<title>Node5&#45;&gt;Node21</title>
<path fill="none" stroke="midnightblue" d="M3543.93,-151.99C3994.55,-143.51 5707.62,-110.61 5822,-98 5825.08,-97.66 5828.23,-97.26 5831.4,-96.8"/>
<polygon fill="midnightblue" stroke="midnightblue" points="3543.78,-148.49 3533.84,-152.18 3543.91,-155.49 3543.78,-148.49"/>
</g>
<!-- Node22 -->
<g id="node18" class="node">
<title>Node22</title>
<g id="a_node18"><a xlink:href="../../d6/d0b/def_8cpp.html" target="_top" xlink:title=" ">
<polygon fill="white" stroke="black" points="1018,-73 1018,-92 1140,-92 1140,-73 1018,-73"/>
<text text-anchor="middle" x="1079" y="-80" font-family="Helvetica,sans-Serif" font-size="10.00">src/libs/vmisc/def.cpp</text>
</a>
</g>
</g>
<!-- Node5&#45;&gt;Node22 -->
<g id="edge18" class="edge">
<title>Node5&#45;&gt;Node22</title>
<path fill="none" stroke="midnightblue" d="M3328.22,-152.5C2904.59,-146.45 1366.41,-122.97 1149,-98 1137.53,-96.68 1125.16,-94.41 1114.05,-92.05"/>
<polygon fill="midnightblue" stroke="midnightblue" points="3328.27,-156 3338.32,-152.64 3328.37,-149 3328.27,-156"/>
</g>
<!-- Node23 -->
<g id="node19" class="node">
<title>Node23</title>
<g id="a_node19"><a xlink:href="../../d0/df6/vabstractapplication_8cpp.html" target="_top" xlink:title=" ">
<polygon fill="white" stroke="black" points="1158,-73 1158,-92 1364,-92 1364,-73 1158,-73"/>
<text text-anchor="middle" x="1261" y="-80" font-family="Helvetica,sans-Serif" font-size="10.00">src/libs/vmisc/vabstractapplication.cpp</text>
</a>
</g>
</g>
<!-- Node5&#45;&gt;Node23 -->
<g id="edge19" class="edge">
<title>Node5&#45;&gt;Node23</title>
<path fill="none" stroke="midnightblue" d="M3328.2,-152.5C2960.84,-147.18 1759.35,-127.88 1374,-98 1355.96,-96.6 1336.38,-94.35 1318.66,-92.03"/>
<polygon fill="midnightblue" stroke="midnightblue" points="3328.25,-156.01 3338.3,-152.65 3328.35,-149.01 3328.25,-156.01"/>
</g>
<!-- Node24 -->
<g id="node20" class="node">
<title>Node24</title>
<g id="a_node20"><a xlink:href="../../d4/d4f/pmsystems_8cpp.html" target="_top" xlink:title=" ">
<polygon fill="white" stroke="black" points="1382.5,-67.5 1382.5,-97.5 1489.5,-97.5 1489.5,-67.5 1382.5,-67.5"/>
<text text-anchor="start" x="1390.5" y="-85.5" font-family="Helvetica,sans-Serif" font-size="10.00">src/libs/vpatterndb</text>
<text text-anchor="middle" x="1436" y="-74.5" font-family="Helvetica,sans-Serif" font-size="10.00">/pmsystems.cpp</text>
</a>
</g>
</g>
<!-- Node5&#45;&gt;Node24 -->
<g id="edge20" class="edge">
<title>Node5&#45;&gt;Node24</title>
<path fill="none" stroke="midnightblue" d="M3328.2,-152.13C2947.63,-145.34 1680.15,-121.23 1499,-98 1495.99,-97.61 1492.92,-97.15 1489.83,-96.62"/>
<polygon fill="midnightblue" stroke="midnightblue" points="3328.33,-155.63 3338.39,-152.31 3328.45,-148.63 3328.33,-155.63"/>
</g>
<!-- Node5&#45;&gt;Node25 -->
<g id="edge21" class="edge">
<title>Node5&#45;&gt;Node25</title>
<path fill="none" stroke="midnightblue" d="M3328.11,-152.12C2872.66,-144.11 1125.31,-112.57 1009,-98 1005.99,-97.62 1002.92,-97.16 999.83,-96.65"/>
<polygon fill="midnightblue" stroke="midnightblue" points="3328.25,-155.62 3338.31,-152.3 3328.37,-148.63 3328.25,-155.62"/>
</g>
<!-- Node26 -->
<g id="node22" class="node">
<title>Node26</title>
<g id="a_node22"><a xlink:href="../../df/d7a/vpiece_8cpp.html" target="_top" xlink:title=" ">
<polygon fill="white" stroke="black" points="767.5,-67.5 767.5,-97.5 874.5,-97.5 874.5,-67.5 767.5,-67.5"/>
<text text-anchor="start" x="775.5" y="-85.5" font-family="Helvetica,sans-Serif" font-size="10.00">src/libs/vpatterndb</text>
<text text-anchor="middle" x="821" y="-74.5" font-family="Helvetica,sans-Serif" font-size="10.00">/vpiece.cpp</text>
</a>
</g>
</g>
<!-- Node5&#45;&gt;Node26 -->
<g id="edge22" class="edge">
<title>Node5&#45;&gt;Node26</title>
<path fill="none" stroke="midnightblue" d="M3328.09,-152.93C2873.72,-148.26 1128.47,-128.49 884,-98 880.99,-97.62 877.92,-97.17 874.83,-96.65"/>
<polygon fill="midnightblue" stroke="midnightblue" points="3328.22,-156.43 3338.25,-153.04 3328.29,-149.43 3328.22,-156.43"/>
</g>
<!-- Node27 -->
<g id="node23" class="node">
<title>Node27</title>
<g id="a_node23"><a xlink:href="../../df/dba/vpiecenode__p_8h.html" target="_top" xlink:title=" ">
<polygon fill="white" stroke="red" points="1507.5,-67.5 1507.5,-97.5 1614.5,-97.5 1614.5,-67.5 1507.5,-67.5"/>
<text text-anchor="start" x="1515.5" y="-85.5" font-family="Helvetica,sans-Serif" font-size="10.00">src/libs/vpatterndb</text>
<text text-anchor="middle" x="1561" y="-74.5" font-family="Helvetica,sans-Serif" font-size="10.00">/vpiecenode_p.h</text>
</a>
</g>
</g>
<!-- Node5&#45;&gt;Node27 -->
<g id="edge23" class="edge">
<title>Node5&#45;&gt;Node27</title>
<path fill="none" stroke="midnightblue" d="M3328.4,-153.43C2991,-151.21 1956.57,-140.99 1624,-98 1620.99,-97.61 1617.92,-97.14 1614.83,-96.62"/>
<polygon fill="midnightblue" stroke="midnightblue" points="3328.39,-156.93 3338.41,-153.5 3328.44,-149.93 3328.39,-156.93"/>
</g>
<!-- Node5&#45;&gt;Node29 -->
<g id="edge24" class="edge">
<title>Node5&#45;&gt;Node29</title>
<path fill="none" stroke="midnightblue" d="M3544.08,-151.91C4019.87,-142.7 5907.02,-105.72 5968,-98 5970.74,-97.65 5973.54,-97.24 5976.36,-96.76"/>
<polygon fill="midnightblue" stroke="midnightblue" points="3543.71,-148.42 3533.78,-152.11 3543.85,-155.42 3543.71,-148.42"/>
</g>
<!-- Node30 -->
<g id="node25" class="node">
<title>Node30</title>
<g id="a_node25"><a xlink:href="../../df/d40/export__format__combobox_8cpp.html" target="_top" xlink:title=" ">
<polygon fill="white" stroke="black" points="1632.5,-67.5 1632.5,-97.5 1765.5,-97.5 1765.5,-67.5 1632.5,-67.5"/>
<text text-anchor="start" x="1640.5" y="-85.5" font-family="Helvetica,sans-Serif" font-size="10.00">src/libs/vwidgets/export</text>
<text text-anchor="middle" x="1699" y="-74.5" font-family="Helvetica,sans-Serif" font-size="10.00">_format_combobox.cpp</text>
</a>
</g>
</g>
<!-- Node5&#45;&gt;Node30 -->
<g id="edge26" class="edge">
<title>Node5&#45;&gt;Node30</title>
<path fill="none" stroke="midnightblue" d="M3328.21,-152.55C3009.92,-147.91 2077.55,-131.76 1775,-98 1771.93,-97.66 1768.8,-97.26 1765.64,-96.82"/>
<polygon fill="midnightblue" stroke="midnightblue" points="3328.31,-156.05 3338.36,-152.69 3328.41,-149.05 3328.31,-156.05"/>
</g>
<!-- Node31 -->
<g id="node26" class="node">
<title>Node31</title>
<g id="a_node26"><a xlink:href="../../d3/d4f/mouse__coordinates_8cpp.html" target="_top" xlink:title=" ">
<polygon fill="white" stroke="black" points="1784,-67.5 1784,-97.5 1918,-97.5 1918,-67.5 1784,-67.5"/>
<text text-anchor="start" x="1792" y="-85.5" font-family="Helvetica,sans-Serif" font-size="10.00">src/libs/vwidgets/mouse</text>
<text text-anchor="middle" x="1851" y="-74.5" font-family="Helvetica,sans-Serif" font-size="10.00">_coordinates.cpp</text>
</a>
</g>
</g>
<!-- Node5&#45;&gt;Node31 -->
<g id="edge27" class="edge">
<title>Node5&#45;&gt;Node31</title>
<path fill="none" stroke="midnightblue" d="M3327.93,-152.08C3029.74,-146.45 2199.54,-128.44 1928,-98 1924.76,-97.64 1921.44,-97.21 1918.1,-96.75"/>
<polygon fill="midnightblue" stroke="midnightblue" points="3328.25,-155.59 3338.31,-152.28 3328.38,-148.59 3328.25,-155.59"/>
</g>
<!-- Node32 -->
<g id="node27" class="node">
<title>Node32</title>
<g id="a_node27"><a xlink:href="../../d2/d28/page__format__combobox_8cpp.html" target="_top" xlink:title=" ">
<polygon fill="white" stroke="black" points="1936.5,-67.5 1936.5,-97.5 2067.5,-97.5 2067.5,-67.5 1936.5,-67.5"/>
<text text-anchor="start" x="1944.5" y="-85.5" font-family="Helvetica,sans-Serif" font-size="10.00">src/libs/vwidgets/page</text>
<text text-anchor="middle" x="2002" y="-74.5" font-family="Helvetica,sans-Serif" font-size="10.00">_format_combobox.cpp</text>
</a>
</g>
</g>
<!-- Node5&#45;&gt;Node32 -->
<g id="edge28" class="edge">
<title>Node5&#45;&gt;Node32</title>
<path fill="none" stroke="midnightblue" d="M3328.19,-151.65C3051.03,-145.26 2318.53,-126.16 2077,-98 2073.97,-97.65 2070.88,-97.24 2067.76,-96.79"/>
<polygon fill="midnightblue" stroke="midnightblue" points="3328.18,-155.15 3338.26,-151.88 3328.34,-148.15 3328.18,-155.15"/>
</g>
<!-- Node33 -->
<g id="node28" class="node">
<title>Node33</title>
<g id="a_node28"><a xlink:href="../../d7/d1b/pen__toolbar_8cpp.html" target="_top" xlink:title=" ">
<polygon fill="white" stroke="black" points="2085.5,-67.5 2085.5,-97.5 2204.5,-97.5 2204.5,-67.5 2085.5,-67.5"/>
<text text-anchor="start" x="2093.5" y="-85.5" font-family="Helvetica,sans-Serif" font-size="10.00">src/libs/vwidgets/pen</text>
<text text-anchor="middle" x="2145" y="-74.5" font-family="Helvetica,sans-Serif" font-size="10.00">_toolbar.cpp</text>
</a>
</g>
</g>
<!-- Node5&#45;&gt;Node33 -->
<g id="edge29" class="edge">
<title>Node5&#45;&gt;Node33</title>
<path fill="none" stroke="midnightblue" d="M3327.85,-154.88C3114.11,-155.33 2622.87,-149.98 2214,-98 2210.96,-97.61 2207.86,-97.17 2204.74,-96.67"/>
<polygon fill="midnightblue" stroke="midnightblue" points="3328.13,-158.38 3338.12,-154.85 3328.11,-151.38 3328.13,-158.38"/>
</g>
<!-- Node34 -->
<g id="node29" class="node">
<title>Node34</title>
<g id="a_node29"><a xlink:href="../../dd/df6/vabstractmainwindow_8cpp.html" target="_top" xlink:title=" ">
<polygon fill="white" stroke="black" points="2222.5,-73 2222.5,-92 2451.5,-92 2451.5,-73 2222.5,-73"/>
<text text-anchor="middle" x="2337" y="-80" font-family="Helvetica,sans-Serif" font-size="10.00">src/libs/vwidgets/vabstractmainwindow.cpp</text>
</a>
</g>
</g>
<!-- Node5&#45;&gt;Node34 -->
<g id="edge30" class="edge">
<title>Node5&#45;&gt;Node34</title>
<path fill="none" stroke="midnightblue" d="M3328.31,-149.89C3148.43,-142.57 2775.56,-125.4 2461,-98 2442.32,-96.37 2422.11,-94.19 2403.53,-92.01"/>
<polygon fill="midnightblue" stroke="midnightblue" points="3328.17,-153.39 3338.3,-150.3 3328.45,-146.4 3328.17,-153.39"/>
</g>
<!-- Node35 -->
<g id="node30" class="node">
<title>Node35</title>
<g id="a_node30"><a xlink:href="../../d8/d76/scene__rect_8cpp.html" target="_top" xlink:title=" ">
<polygon fill="white" stroke="black" points="2470,-67.5 2470,-97.5 2600,-97.5 2600,-67.5 2470,-67.5"/>
<text text-anchor="start" x="2478" y="-85.5" font-family="Helvetica,sans-Serif" font-size="10.00">src/libs/vwidgets/scene</text>
<text text-anchor="middle" x="2535" y="-74.5" font-family="Helvetica,sans-Serif" font-size="10.00">_rect.cpp</text>
</a>
</g>
</g>
<!-- Node5&#45;&gt;Node35 -->
<g id="edge31" class="edge">
<title>Node5&#45;&gt;Node35</title>
<path fill="none" stroke="midnightblue" d="M3328.14,-150.93C3170.02,-145.47 2866.27,-131.33 2610,-98 2606.84,-97.59 2603.62,-97.13 2600.37,-96.63"/>
<polygon fill="midnightblue" stroke="midnightblue" points="3328.23,-154.43 3338.34,-151.28 3328.47,-147.44 3328.23,-154.43"/>
</g>
<!-- Node36 -->
<g id="node31" class="node">
<title>Node36</title>
<g id="a_node31"><a xlink:href="../../de/d45/vcontrolpointspline_8cpp.html" target="_top" xlink:title=" ">
<polygon fill="white" stroke="black" points="2618.5,-73 2618.5,-92 2833.5,-92 2833.5,-73 2618.5,-73"/>
<text text-anchor="middle" x="2726" y="-80" font-family="Helvetica,sans-Serif" font-size="10.00">src/libs/vwidgets/vcontrolpointspline.cpp</text>
</a>
</g>
</g>
<!-- Node5&#45;&gt;Node36 -->
<g id="edge32" class="edge">
<title>Node5&#45;&gt;Node36</title>
<path fill="none" stroke="midnightblue" d="M3328.13,-144.76C3209.21,-134.36 3012.31,-116.48 2843,-98 2826.42,-96.19 2808.53,-94.06 2791.86,-92"/>
<polygon fill="midnightblue" stroke="midnightblue" points="3328.06,-148.27 3338.32,-145.65 3328.67,-141.3 3328.06,-148.27"/>
</g>
<!-- Node37 -->
<g id="node32" class="node">
<title>Node37</title>
<g id="a_node32"><a xlink:href="../../d1/d90/vgrainlineitem_8cpp.html" target="_top" xlink:title=" ">
<polygon fill="white" stroke="black" points="2851.5,-73 2851.5,-92 3044.5,-92 3044.5,-73 2851.5,-73"/>
<text text-anchor="middle" x="2948" y="-80" font-family="Helvetica,sans-Serif" font-size="10.00">src/libs/vwidgets/vgrainlineitem.cpp</text>
</a>
</g>
</g>
<!-- Node5&#45;&gt;Node37 -->
<g id="edge33" class="edge">
<title>Node5&#45;&gt;Node37</title>
<path fill="none" stroke="midnightblue" d="M3367.21,-144.06C3270.98,-130.16 3097.79,-105.14 3007.07,-92.03"/>
<polygon fill="midnightblue" stroke="midnightblue" points="3366.74,-147.53 3377.14,-145.5 3367.74,-140.6 3366.74,-147.53"/>
</g>
<!-- Node38 -->
<g id="node33" class="node">
<title>Node38</title>
<g id="a_node33"><a xlink:href="../../de/dec/vgraphicssimpletextitem_8cpp.html" target="_top" xlink:title=" ">
<polygon fill="white" stroke="black" points="3063,-73 3063,-92 3307,-92 3307,-73 3063,-73"/>
<text text-anchor="middle" x="3185" y="-80" font-family="Helvetica,sans-Serif" font-size="10.00">src/libs/vwidgets/vgraphicssimpletextitem.cpp</text>
</a>
</g>
</g>
<!-- Node5&#45;&gt;Node38 -->
<g id="edge34" class="edge">
<title>Node5&#45;&gt;Node38</title>
<path fill="none" stroke="midnightblue" d="M3395.85,-142.72C3345.58,-128.6 3260.58,-104.73 3215.38,-92.03"/>
<polygon fill="midnightblue" stroke="midnightblue" points="3395.15,-146.16 3405.72,-145.5 3397.04,-139.42 3395.15,-146.16"/>
</g>
<!-- Node39 -->
<g id="node34" class="node">
<title>Node39</title>
<g id="a_node34"><a xlink:href="../../d1/d88/vmaingraphicsscene_8cpp.html" target="_top" xlink:title=" ">
<polygon fill="white" stroke="black" points="3325,-73 3325,-92 3547,-92 3547,-73 3325,-73"/>
<text text-anchor="middle" x="3436" y="-80" font-family="Helvetica,sans-Serif" font-size="10.00">src/libs/vwidgets/vmaingraphicsscene.cpp</text>
</a>
</g>
</g>
<!-- Node5&#45;&gt;Node39 -->
<g id="edge35" class="edge">
<title>Node5&#45;&gt;Node39</title>
<path fill="none" stroke="midnightblue" d="M3436,-134.94C3436,-121.03 3436,-102.82 3436,-92.22"/>
<polygon fill="midnightblue" stroke="midnightblue" points="3432.5,-135.36 3436,-145.36 3439.5,-135.36 3432.5,-135.36"/>
</g>
<!-- Node40 -->
<g id="node35" class="node">
<title>Node40</title>
<g id="a_node35"><a xlink:href="../../d0/d5d/vscenepoint_8cpp.html" target="_top" xlink:title=" ">
<polygon fill="white" stroke="black" points="3565.5,-73 3565.5,-92 3746.5,-92 3746.5,-73 3565.5,-73"/>
<text text-anchor="middle" x="3656" y="-80" font-family="Helvetica,sans-Serif" font-size="10.00">src/libs/vwidgets/vscenepoint.cpp</text>
</a>
</g>
</g>
<!-- Node5&#45;&gt;Node40 -->
<g id="edge36" class="edge">
<title>Node5&#45;&gt;Node40</title>
<path fill="none" stroke="midnightblue" d="M3472.3,-142.37C3516.49,-128.21 3590.08,-104.62 3629.37,-92.03"/>
<polygon fill="midnightblue" stroke="midnightblue" points="3470.99,-139.11 3462.54,-145.5 3473.13,-145.78 3470.99,-139.11"/>
</g>
<!-- Node41 -->
<g id="node36" class="node">
<title>Node41</title>
<g id="a_node36"><a xlink:href="../../de/d22/vsimplecurve_8cpp.html" target="_top" xlink:title=" ">
<polygon fill="white" stroke="black" points="3765,-73 3765,-92 3953,-92 3953,-73 3765,-73"/>
<text text-anchor="middle" x="3859" y="-80" font-family="Helvetica,sans-Serif" font-size="10.00">src/libs/vwidgets/vsimplecurve.cpp</text>
</a>
</g>
</g>
<!-- Node5&#45;&gt;Node41 -->
<g id="edge37" class="edge">
<title>Node5&#45;&gt;Node41</title>
<path fill="none" stroke="midnightblue" d="M3496.89,-143.85C3580.56,-129.91 3729.56,-105.07 3807.8,-92.03"/>
<polygon fill="midnightblue" stroke="midnightblue" points="3496.31,-140.4 3487.02,-145.5 3497.46,-147.3 3496.31,-140.4"/>
</g>
<!-- Node42 -->
<g id="node37" class="node">
<title>Node42</title>
<g id="a_node37"><a xlink:href="../../df/d38/vsimplepoint_8cpp.html" target="_top" xlink:title=" ">
<polygon fill="white" stroke="black" points="3971.5,-73 3971.5,-92 4156.5,-92 4156.5,-73 3971.5,-73"/>
<text text-anchor="middle" x="4064" y="-80" font-family="Helvetica,sans-Serif" font-size="10.00">src/libs/vwidgets/vsimplepoint.cpp</text>
</a>
</g>
</g>
<!-- Node5&#45;&gt;Node42 -->
<g id="edge38" class="edge">
<title>Node5&#45;&gt;Node42</title>
<path fill="none" stroke="midnightblue" d="M3535.02,-144.51C3640.84,-134.11 3813.46,-116.46 3962,-98 3976.47,-96.2 3992.06,-94.08 4006.6,-92.02"/>
<polygon fill="midnightblue" stroke="midnightblue" points="3534.6,-141.03 3524.99,-145.49 3535.28,-148 3534.6,-141.03"/>
</g>
<!-- Node43 -->
<g id="node38" class="node">
<title>Node43</title>
<g id="a_node38"><a xlink:href="../../d2/d31/vmaingraphicsview_8cpp.html" target="_top" xlink:title=" ">
<polygon fill="white" stroke="black" points="4175,-73 4175,-92 4391,-92 4391,-73 4175,-73"/>
<text text-anchor="middle" x="4283" y="-80" font-family="Helvetica,sans-Serif" font-size="10.00">src/libs/vwidgets/vmaingraphicsview.cpp</text>
</a>
</g>
</g>
<!-- Node5&#45;&gt;Node43 -->
<g id="edge39" class="edge">
<title>Node5&#45;&gt;Node43</title>
<path fill="none" stroke="midnightblue" d="M3543.6,-147.32C3686.12,-138.12 3945.23,-120.14 4166,-98 4183.11,-96.28 4201.58,-94.13 4218.69,-92.02"/>
<polygon fill="midnightblue" stroke="midnightblue" points="3543.3,-143.84 3533.54,-147.97 3543.75,-150.82 3543.3,-143.84"/>
</g>
<!-- Node44 -->
<g id="node39" class="node">
<title>Node44</title>
<g id="a_node39"><a xlink:href="../../df/df5/vtextgraphicsitem_8cpp.html" target="_top" xlink:title=" ">
<polygon fill="white" stroke="black" points="4409.5,-73 4409.5,-92 4620.5,-92 4620.5,-73 4409.5,-73"/>
<text text-anchor="middle" x="4515" y="-80" font-family="Helvetica,sans-Serif" font-size="10.00">src/libs/vwidgets/vtextgraphicsitem.cpp</text>
</a>
</g>
</g>
<!-- Node5&#45;&gt;Node44 -->
<g id="edge40" class="edge">
<title>Node5&#45;&gt;Node44</title>
<path fill="none" stroke="midnightblue" d="M3543.83,-150.11C3722.22,-143.14 4089.88,-126.53 4400,-98 4417.43,-96.4 4436.3,-94.21 4453.61,-92.02"/>
<polygon fill="midnightblue" stroke="midnightblue" points="3543.51,-146.62 3533.66,-150.5 3543.79,-153.61 3543.51,-146.62"/>
</g>
<!-- Node14&#45;&gt;Node15 -->
<g id="edge11" class="edge">
<title>Node14&#45;&gt;Node15</title>
<path fill="none" stroke="midnightblue" d="M5415.72,-58.87C5409.79,-49.46 5403.09,-38.83 5397.88,-30.58"/>
<polygon fill="midnightblue" stroke="midnightblue" points="5412.81,-60.81 5421.1,-67.4 5418.73,-57.07 5412.81,-60.81"/>
</g>
<!-- Node45&#45;&gt;Node5 -->
<g id="edge49" class="edge">
<title>Node45&#45;&gt;Node5</title>
<path fill="none" stroke="midnightblue" d="M914.8,-224.76C1261.27,-215.31 2916.67,-170.16 3338.18,-158.67"/>
<polygon fill="midnightblue" stroke="midnightblue" points="914.6,-221.26 904.69,-225.04 914.79,-228.26 914.6,-221.26"/>
</g>
<!-- Node45&#45;&gt;Node20 -->
<g id="edge48" class="edge">
<title>Node45&#45;&gt;Node20</title>
<path fill="none" stroke="midnightblue" d="M856.79,-202.68C860.26,-182.2 861.44,-153.04 846,-134 829.93,-114.18 767.41,-100.17 718.83,-92.01"/>
<polygon fill="midnightblue" stroke="midnightblue" points="853.35,-202.01 854.84,-212.5 860.22,-203.37 853.35,-202.01"/>
</g>
<!-- Node45&#45;&gt;Node25 -->
<g id="edge52" class="edge">
<title>Node45&#45;&gt;Node25</title>
<path fill="none" stroke="midnightblue" d="M874.64,-205.11C883.26,-196.58 892.69,-186.33 900,-176 918.13,-150.38 932.97,-116.56 940.54,-97.73"/>
<polygon fill="midnightblue" stroke="midnightblue" points="872.12,-202.68 867.34,-212.13 876.97,-207.72 872.12,-202.68"/>
</g>
<!-- Node45&#45;&gt;Node26 -->
<g id="edge54" class="edge">
<title>Node45&#45;&gt;Node26</title>
<path fill="none" stroke="midnightblue" d="M869.59,-204.14C875.38,-195.83 881.03,-185.98 884,-176 889.33,-158.11 892.08,-150.83 884,-134 876.54,-118.46 861.7,-106.19 848.3,-97.64"/>
<polygon fill="midnightblue" stroke="midnightblue" points="866.77,-202.07 863.61,-212.19 872.39,-206.25 866.77,-202.07"/>
</g>
<!-- Node45&#45;&gt;Node29 -->
<g id="edge55" class="edge">
<title>Node45&#45;&gt;Node29</title>
<path fill="none" stroke="midnightblue" d="M914.76,-225.62C1212.16,-221.45 2492.95,-202.74 3543,-176 3677.75,-172.57 5834.36,-115.6 5968,-98 5970.74,-97.64 5973.54,-97.21 5976.35,-96.73"/>
<polygon fill="midnightblue" stroke="midnightblue" points="914.54,-222.12 904.59,-225.76 914.64,-229.12 914.54,-222.12"/>
</g>
<!-- Node46 -->
<g id="node41" class="node">
<title>Node46</title>
<g id="a_node41"><a xlink:href="../../dc/db7/measurements_8h.html" target="_top" xlink:title=" ">
<polygon fill="white" stroke="black" points="624.5,-145.5 624.5,-164.5 803.5,-164.5 803.5,-145.5 624.5,-145.5"/>
<text text-anchor="middle" x="714" y="-152.5" font-family="Helvetica,sans-Serif" font-size="10.00">src/libs/vformat/measurements.h</text>
</a>
</g>
</g>
<!-- Node45&#45;&gt;Node46 -->
<g id="edge43" class="edge">
<title>Node45&#45;&gt;Node46</title>
<path fill="none" stroke="midnightblue" d="M814.37,-207.65C787.13,-193.63 751.24,-175.16 730.58,-164.53"/>
<polygon fill="midnightblue" stroke="midnightblue" points="813.11,-210.94 823.61,-212.4 816.32,-204.71 813.11,-210.94"/>
</g>
<!-- Node47 -->
<g id="node42" class="node">
<title>Node47</title>
<g id="a_node42"><a xlink:href="../../d9/de3/measurements_8cpp.html" target="_top" xlink:title=" ">
<polygon fill="white" stroke="black" points="163,-73 163,-92 353,-92 353,-73 163,-73"/>
<text text-anchor="middle" x="258" y="-80" font-family="Helvetica,sans-Serif" font-size="10.00">src/libs/vformat/measurements.cpp</text>
</a>
</g>
</g>
<!-- Node45&#45;&gt;Node47 -->
<g id="edge45" class="edge">
<title>Node45&#45;&gt;Node47</title>
<path fill="none" stroke="midnightblue" d="M848.13,-202.36C844.17,-180.7 834.84,-149.93 813,-134 772.39,-104.37 411.97,-103.47 362,-98 346.6,-96.31 329.96,-94.15 314.6,-92.01"/>
<polygon fill="midnightblue" stroke="midnightblue" points="844.7,-203.11 849.71,-212.45 851.62,-202.03 844.7,-203.11"/>
</g>
<!-- Node48 -->
<g id="node43" class="node">
<title>Node48</title>
<g id="a_node43"><a xlink:href="../../d6/de0/vlayoutpiece_8h.html" target="_top" xlink:title=" ">
<polygon fill="white" stroke="red" points="0,-145.5 0,-164.5 166,-164.5 166,-145.5 0,-145.5"/>
<text text-anchor="middle" x="83" y="-152.5" font-family="Helvetica,sans-Serif" font-size="10.00">src/libs/vlayout/vlayoutpiece.h</text>
</a>
</g>
</g>
<!-- Node45&#45;&gt;Node48 -->
<g id="edge46" class="edge">
<title>Node45&#45;&gt;Node48</title>
<path fill="none" stroke="midnightblue" d="M787.13,-224.7C666.8,-220.64 398.5,-208.48 175,-176 155.59,-173.18 134.16,-168.61 116.87,-164.55"/>
<polygon fill="midnightblue" stroke="midnightblue" points="787.16,-228.2 797.27,-225.03 787.39,-221.2 787.16,-228.2"/>
</g>
<!-- Node57 -->
<g id="node44" class="node">
<title>Node57</title>
<g id="a_node44"><a xlink:href="../../d7/d8a/measurement__variable__p_8h.html" target="_top" xlink:title=" ">
<polygon fill="white" stroke="red" points="184,-134.5 184,-175.5 320,-175.5 320,-134.5 184,-134.5"/>
<text text-anchor="start" x="192" y="-163.5" font-family="Helvetica,sans-Serif" font-size="10.00">src/libs/vpatterndb</text>
<text text-anchor="start" x="192" y="-152.5" font-family="Helvetica,sans-Serif" font-size="10.00">/variables/measurement</text>
<text text-anchor="middle" x="252" y="-141.5" font-family="Helvetica,sans-Serif" font-size="10.00">_variable_p.h</text>
</a>
</g>
</g>
<!-- Node45&#45;&gt;Node57 -->
<g id="edge50" class="edge">
<title>Node45&#45;&gt;Node57</title>
<path fill="none" stroke="midnightblue" d="M787.15,-223.57C688.32,-218.31 492.65,-204.98 329,-176 326.14,-175.49 323.24,-174.94 320.31,-174.34"/>
<polygon fill="midnightblue" stroke="midnightblue" points="787.1,-227.07 797.27,-224.1 787.47,-220.08 787.1,-227.07"/>
</g>
<!-- Node59 -->
<g id="node45" class="node">
<title>Node59</title>
<g id="a_node45"><a xlink:href="../../d1/de1/vincrement__p_8h.html" target="_top" xlink:title=" ">
<polygon fill="white" stroke="red" points="338.5,-140 338.5,-170 481.5,-170 481.5,-140 338.5,-140"/>
<text text-anchor="start" x="346.5" y="-158" font-family="Helvetica,sans-Serif" font-size="10.00">src/libs/vpatterndb</text>
<text text-anchor="middle" x="410" y="-147" font-family="Helvetica,sans-Serif" font-size="10.00">/variables/vincrement_p.h</text>
</a>
</g>
</g>
<!-- Node45&#45;&gt;Node59 -->
<g id="edge51" class="edge">
<title>Node45&#45;&gt;Node59</title>
<path fill="none" stroke="midnightblue" d="M787.17,-219.64C714.76,-211.39 593.32,-196.08 490,-176 481.15,-174.28 471.81,-172.19 462.75,-170.03"/>
<polygon fill="midnightblue" stroke="midnightblue" points="787.16,-223.16 797.49,-220.81 787.95,-216.21 787.16,-223.16"/>
</g>
<!-- Node61 -->
<g id="node46" class="node">
<title>Node61</title>
<g id="a_node46"><a xlink:href="../../d6/d91/vnodedetail_8cpp.html" target="_top" xlink:title=" ">
<polygon fill="white" stroke="black" points="499.5,-140 499.5,-170 606.5,-170 606.5,-140 499.5,-140"/>
<text text-anchor="start" x="507.5" y="-158" font-family="Helvetica,sans-Serif" font-size="10.00">src/libs/vpatterndb</text>
<text text-anchor="middle" x="553" y="-147" font-family="Helvetica,sans-Serif" font-size="10.00">/vnodedetail.cpp</text>
</a>
</g>
</g>
<!-- Node45&#45;&gt;Node61 -->
<g id="edge53" class="edge">
<title>Node45&#45;&gt;Node61</title>
<path fill="none" stroke="midnightblue" d="M787.32,-214.69C739.59,-205.4 672.82,-191.47 615,-176 608.34,-174.22 601.33,-172.15 594.52,-170.03"/>
<polygon fill="midnightblue" stroke="midnightblue" points="786.72,-218.14 797.21,-216.6 788.05,-211.27 786.72,-218.14"/>
</g>
<!-- Node46&#45;&gt;Node47 -->
<g id="edge44" class="edge">
<title>Node46&#45;&gt;Node47</title>
<path fill="none" stroke="midnightblue" d="M664.51,-143.41C648.73,-140.19 631.16,-136.77 615,-134 600.6,-131.53 417.23,-105.79 319.08,-92.04"/>
<polygon fill="midnightblue" stroke="midnightblue" points="664.1,-146.9 674.6,-145.49 665.51,-140.04 664.1,-146.9"/>
</g>
<!-- Node48&#45;&gt;Node19 -->
<g id="edge47" class="edge">
<title>Node48&#45;&gt;Node19</title>
<path fill="none" stroke="midnightblue" d="M130.62,-143.28C144.87,-140.17 160.55,-136.85 175,-134 256.35,-117.96 351.23,-101.62 408.4,-92.03"/>
<polygon fill="midnightblue" stroke="midnightblue" points="129.55,-139.93 120.53,-145.5 131.05,-146.77 129.55,-139.93"/>
</g>
</g>
</svg>
