<?xml version="1.0" encoding="UTF-8" standalone="no"?>
<!DOCTYPE svg PUBLIC "-//W3C//DTD SVG 1.1//EN"
 "http://www.w3.org/Graphics/SVG/1.1/DTD/svg11.dtd">
<!-- Generated by graphviz version 2.43.0 (0)
 -->
<!-- Title: src/libs/vpatterndb/vtranslatemeasurements.h Pages: 1 -->
<svg width="6568pt" height="374pt"
 viewBox="0.00 0.00 6568.00 374.00" xmlns="http://www.w3.org/2000/svg" xmlns:xlink="http://www.w3.org/1999/xlink">
<g id="graph0" class="graph" transform="scale(1 1) rotate(0) translate(4 370)">
<title>src/libs/vpatterndb/vtranslatemeasurements.h</title>
<polygon fill="white" stroke="transparent" points="-4,4 -4,-370 6564,-370 6564,4 -4,4"/>
<!-- Node1 -->
<g id="node1" class="node">
<title>Node1</title>
<g id="a_node1"><a xlink:title=" ">
<polygon fill="#bfbfbf" stroke="black" points="6138.5,-335.5 6138.5,-365.5 6290.5,-365.5 6290.5,-335.5 6138.5,-335.5"/>
<text text-anchor="start" x="6146.5" y="-353.5" font-family="Helvetica,sans-Serif" font-size="10.00">src/libs/vpatterndb</text>
<text text-anchor="middle" x="6214.5" y="-342.5" font-family="Helvetica,sans-Serif" font-size="10.00">/vtranslatemeasurements.h</text>
</a>
</g>
</g>
<!-- Node2 -->
<g id="node2" class="node">
<title>Node2</title>
<g id="a_node2"><a xlink:href="../../d9/de3/measurements_8cpp.html" target="_top" xlink:title=" ">
<polygon fill="white" stroke="black" points="5799,-268.5 5799,-298.5 5912,-298.5 5912,-268.5 5799,-268.5"/>
<text text-anchor="start" x="5807" y="-286.5" font-family="Helvetica,sans-Serif" font-size="10.00">src/libs/vpatterndb</text>
<text text-anchor="middle" x="5855.5" y="-275.5" font-family="Helvetica,sans-Serif" font-size="10.00">/measurements.cpp</text>
</a>
</g>
</g>
<!-- Node1&#45;&gt;Node2 -->
<g id="edge1" class="edge">
<title>Node1&#45;&gt;Node2</title>
<path fill="none" stroke="midnightblue" d="M6128.5,-335.88C6069.77,-326.29 5990.27,-312.76 5920.5,-299 5917.78,-298.46 5914.99,-297.9 5912.19,-297.32"/>
<polygon fill="midnightblue" stroke="midnightblue" points="6128.04,-339.35 6138.47,-337.5 6129.16,-332.44 6128.04,-339.35"/>
</g>
<!-- Node3 -->
<g id="node3" class="node">
<title>Node3</title>
<g id="a_node3"><a xlink:href="../../da/d69/vtranslatevars_8h.html" target="_top" xlink:title=" ">
<polygon fill="white" stroke="black" points="5930,-268.5 5930,-298.5 6037,-298.5 6037,-268.5 5930,-268.5"/>
<text text-anchor="start" x="5938" y="-286.5" font-family="Helvetica,sans-Serif" font-size="10.00">src/libs/vpatterndb</text>
<text text-anchor="middle" x="5983.5" y="-275.5" font-family="Helvetica,sans-Serif" font-size="10.00">/vtranslatevars.h</text>
</a>
</g>
</g>
<!-- Node1&#45;&gt;Node3 -->
<g id="edge2" class="edge">
<title>Node1&#45;&gt;Node3</title>
<path fill="none" stroke="midnightblue" d="M6154.85,-332.71C6117.26,-322.14 6069.27,-308.63 6033.65,-298.61"/>
<polygon fill="midnightblue" stroke="midnightblue" points="6154.09,-336.14 6164.66,-335.48 6155.98,-329.4 6154.09,-336.14"/>
</g>
<!-- Node29 -->
<g id="node25" class="node">
<title>Node29</title>
<g id="a_node25"><a xlink:href="../../de/d3e/vtranslatevars_8cpp.html" target="_top" xlink:title=" ">
<polygon fill="white" stroke="black" points="6294.5,-67.5 6294.5,-97.5 6404.5,-97.5 6404.5,-67.5 6294.5,-67.5"/>
<text text-anchor="start" x="6302.5" y="-85.5" font-family="Helvetica,sans-Serif" font-size="10.00">src/libs/vpatterndb</text>
<text text-anchor="middle" x="6349.5" y="-74.5" font-family="Helvetica,sans-Serif" font-size="10.00">/vtranslatevars.cpp</text>
</a>
</g>
</g>
<!-- Node1&#45;&gt;Node29 -->
<g id="edge61" class="edge">
<title>Node1&#45;&gt;Node29</title>
<path fill="none" stroke="midnightblue" d="M6243.63,-329.34C6271.85,-308.28 6313.75,-272.68 6337.5,-232 6362.8,-188.66 6356.64,-125.73 6352.18,-97.79"/>
<polygon fill="midnightblue" stroke="midnightblue" points="6241.36,-326.67 6235.35,-335.4 6245.49,-332.32 6241.36,-326.67"/>
</g>
<!-- Node67 -->
<g id="node50" class="node">
<title>Node67</title>
<g id="a_node50"><a xlink:href="../../d0/d50/vtranslatemeasurements_8cpp.html" target="_top" xlink:title=" ">
<polygon fill="white" stroke="black" points="6397,-268.5 6397,-298.5 6560,-298.5 6560,-268.5 6397,-268.5"/>
<text text-anchor="start" x="6405" y="-286.5" font-family="Helvetica,sans-Serif" font-size="10.00">src/libs/vpatterndb</text>
<text text-anchor="middle" x="6478.5" y="-275.5" font-family="Helvetica,sans-Serif" font-size="10.00">/vtranslatemeasurements.cpp</text>
</a>
</g>
</g>
<!-- Node1&#45;&gt;Node67 -->
<g id="edge62" class="edge">
<title>Node1&#45;&gt;Node67</title>
<path fill="none" stroke="midnightblue" d="M6281.31,-333.05C6324.47,-322.43 6380.04,-308.74 6421.19,-298.61"/>
<polygon fill="midnightblue" stroke="midnightblue" points="6280.33,-329.69 6271.46,-335.48 6282.01,-336.48 6280.33,-329.69"/>
</g>
<!-- Node4 -->
<g id="node4" class="node">
<title>Node4</title>
<g id="a_node4"><a xlink:href="../../d5/d74/vabstractapplication_8h.html" target="_top" xlink:title=" ">
<polygon fill="white" stroke="black" points="3838,-140 3838,-159 4033,-159 4033,-140 3838,-140"/>
<text text-anchor="middle" x="3935.5" y="-147" font-family="Helvetica,sans-Serif" font-size="10.00">src/libs/vmisc/vabstractapplication.h</text>
</a>
</g>
</g>
<!-- Node3&#45;&gt;Node4 -->
<g id="edge3" class="edge">
<title>Node3&#45;&gt;Node4</title>
<path fill="none" stroke="midnightblue" d="M5919.85,-268.09C5193.06,-164.55 4321.37,-151.82 4033.16,-150.52"/>
<polygon fill="midnightblue" stroke="midnightblue" points="5919.6,-271.59 5930,-269.55 5920.6,-264.66 5919.6,-271.59"/>
</g>
<!-- Node24 -->
<g id="node20" class="node">
<title>Node24</title>
<g id="a_node20"><a xlink:href="../../db/d11/vformula_8cpp.html" target="_top" xlink:title=" ">
<polygon fill="white" stroke="black" points="6044,-67.5 6044,-97.5 6151,-97.5 6151,-67.5 6044,-67.5"/>
<text text-anchor="start" x="6052" y="-85.5" font-family="Helvetica,sans-Serif" font-size="10.00">src/libs/vpatterndb</text>
<text text-anchor="middle" x="6097.5" y="-74.5" font-family="Helvetica,sans-Serif" font-size="10.00">/vformula.cpp</text>
</a>
</g>
</g>
<!-- Node3&#45;&gt;Node24 -->
<g id="edge40" class="edge">
<title>Node3&#45;&gt;Node24</title>
<path fill="none" stroke="midnightblue" d="M5919.54,-266.69C5868.62,-253.81 5805.27,-236.96 5801.5,-232 5775.14,-197.33 5773.15,-167.07 5801.5,-134 5835.6,-94.23 5983.05,-107.88 6034.5,-98 6037.59,-97.41 6040.75,-96.77 6043.94,-96.11"/>
<polygon fill="midnightblue" stroke="midnightblue" points="5918.98,-270.16 5929.53,-269.21 5920.69,-263.37 5918.98,-270.16"/>
</g>
<!-- Node25 -->
<g id="node21" class="node">
<title>Node25</title>
<g id="a_node21"><a xlink:href="../../d6/d46/vcontainer_8cpp.html" target="_top" xlink:title=" ">
<polygon fill="white" stroke="black" points="6169,-67.5 6169,-97.5 6276,-97.5 6276,-67.5 6169,-67.5"/>
<text text-anchor="start" x="6177" y="-85.5" font-family="Helvetica,sans-Serif" font-size="10.00">src/libs/vpatterndb</text>
<text text-anchor="middle" x="6222.5" y="-74.5" font-family="Helvetica,sans-Serif" font-size="10.00">/vcontainer.cpp</text>
</a>
</g>
</g>
<!-- Node3&#45;&gt;Node25 -->
<g id="edge41" class="edge">
<title>Node3&#45;&gt;Node25</title>
<path fill="none" stroke="midnightblue" d="M5922.98,-265.61C5884.19,-254.17 5840.08,-239.78 5834.5,-232 5826.47,-220.8 5826.29,-212.06 5834.5,-201 5854.84,-173.59 6067.17,-120.24 6168.83,-96.01"/>
<polygon fill="midnightblue" stroke="midnightblue" points="5922.12,-269 5932.7,-268.44 5924.08,-262.28 5922.12,-269"/>
</g>
<!-- Node3&#45;&gt;Node29 -->
<g id="edge57" class="edge">
<title>Node3&#45;&gt;Node29</title>
<path fill="none" stroke="midnightblue" d="M6047.32,-280.82C6131.59,-277.26 6273.75,-266.23 6311.5,-232 6350.34,-196.78 6351.9,-127.83 6350.56,-97.92"/>
<polygon fill="midnightblue" stroke="midnightblue" points="6046.94,-277.33 6037.09,-281.22 6047.22,-284.32 6046.94,-277.33"/>
</g>
<!-- Node44 -->
<g id="node40" class="node">
<title>Node44</title>
<g id="a_node40"><a xlink:href="../../d3/df7/vcontainer_8h.html" target="_top" xlink:title=" ">
<polygon fill="white" stroke="red" points="778,-201.5 778,-231.5 885,-231.5 885,-201.5 778,-201.5"/>
<text text-anchor="start" x="786" y="-219.5" font-family="Helvetica,sans-Serif" font-size="10.00">src/libs/vpatterndb</text>
<text text-anchor="middle" x="831.5" y="-208.5" font-family="Helvetica,sans-Serif" font-size="10.00">/vcontainer.h</text>
</a>
</g>
</g>
<!-- Node3&#45;&gt;Node44 -->
<g id="edge42" class="edge">
<title>Node3&#45;&gt;Node44</title>
<path fill="none" stroke="midnightblue" d="M5919.53,-268.26C5566.45,-236.4 1406.97,-219.68 885.15,-217.7"/>
<polygon fill="midnightblue" stroke="midnightblue" points="5919.37,-271.77 5929.68,-269.31 5920.09,-264.8 5919.37,-271.77"/>
</g>
<!-- Node64 -->
<g id="node47" class="node">
<title>Node64</title>
<g id="a_node47"><a xlink:href="../../df/de5/dialogspline_8cpp.html" target="_top" xlink:title=" ">
<polygon fill="white" stroke="black" points="5843.5,-201.5 5843.5,-231.5 5969.5,-231.5 5969.5,-201.5 5843.5,-201.5"/>
<text text-anchor="start" x="5851.5" y="-219.5" font-family="Helvetica,sans-Serif" font-size="10.00">src/libs/vtools/dialogs</text>
<text text-anchor="middle" x="5906.5" y="-208.5" font-family="Helvetica,sans-Serif" font-size="10.00">/tools/dialogspline.cpp</text>
</a>
</g>
</g>
<!-- Node3&#45;&gt;Node64 -->
<g id="edge58" class="edge">
<title>Node3&#45;&gt;Node64</title>
<path fill="none" stroke="midnightblue" d="M5959.08,-261.88C5947.38,-252.01 5933.66,-240.43 5923.18,-231.58"/>
<polygon fill="midnightblue" stroke="midnightblue" points="5956.89,-264.62 5966.79,-268.4 5961.41,-259.27 5956.89,-264.62"/>
</g>
<!-- Node65 -->
<g id="node48" class="node">
<title>Node65</title>
<g id="a_node48"><a xlink:href="../../dc/dc2/dialogsplinepath_8cpp.html" target="_top" xlink:title=" ">
<polygon fill="white" stroke="black" points="5987.5,-201.5 5987.5,-231.5 6135.5,-231.5 6135.5,-201.5 5987.5,-201.5"/>
<text text-anchor="start" x="5995.5" y="-219.5" font-family="Helvetica,sans-Serif" font-size="10.00">src/libs/vtools/dialogs</text>
<text text-anchor="middle" x="6061.5" y="-208.5" font-family="Helvetica,sans-Serif" font-size="10.00">/tools/dialogsplinepath.cpp</text>
</a>
</g>
</g>
<!-- Node3&#45;&gt;Node65 -->
<g id="edge59" class="edge">
<title>Node3&#45;&gt;Node65</title>
<path fill="none" stroke="midnightblue" d="M6008.24,-261.88C6020.09,-252.01 6033.98,-240.43 6044.61,-231.58"/>
<polygon fill="midnightblue" stroke="midnightblue" points="6005.87,-259.31 6000.42,-268.4 6010.35,-264.68 6005.87,-259.31"/>
</g>
<!-- Node66 -->
<g id="node49" class="node">
<title>Node66</title>
<g id="a_node49"><a xlink:href="../../d1/d75/vistoolendline_8cpp.html" target="_top" xlink:title=" ">
<polygon fill="white" stroke="black" points="6154,-201.5 6154,-231.5 6303,-231.5 6303,-201.5 6154,-201.5"/>
<text text-anchor="start" x="6162" y="-219.5" font-family="Helvetica,sans-Serif" font-size="10.00">src/libs/vtools/visualization</text>
<text text-anchor="middle" x="6228.5" y="-208.5" font-family="Helvetica,sans-Serif" font-size="10.00">/line/vistoolendline.cpp</text>
</a>
</g>
</g>
<!-- Node3&#45;&gt;Node66 -->
<g id="edge60" class="edge">
<title>Node3&#45;&gt;Node66</title>
<path fill="none" stroke="midnightblue" d="M6046.26,-265.85C6086.2,-255.25 6137.37,-241.68 6175.31,-231.61"/>
<polygon fill="midnightblue" stroke="midnightblue" points="6045.13,-262.53 6036.36,-268.48 6046.92,-269.29 6045.13,-262.53"/>
</g>
<!-- Node5 -->
<g id="node5" class="node">
<title>Node5</title>
<g id="a_node5"><a xlink:href="../../d4/d90/fvupdater_8cpp.html" target="_top" xlink:title=" ">
<polygon fill="white" stroke="black" points="4582,-73 4582,-92 4735,-92 4735,-73 4582,-73"/>
<text text-anchor="middle" x="4658.5" y="-80" font-family="Helvetica,sans-Serif" font-size="10.00">src/libs/fervor/fvupdater.cpp</text>
</a>
</g>
</g>
<!-- Node4&#45;&gt;Node5 -->
<g id="edge4" class="edge">
<title>Node4&#45;&gt;Node5</title>
<path fill="none" stroke="midnightblue" d="M4043.28,-142.85C4170.19,-135.53 4387.19,-120.92 4572.5,-98 4585.42,-96.4 4599.37,-94.24 4612.19,-92.08"/>
<polygon fill="midnightblue" stroke="midnightblue" points="4042.95,-139.37 4033.17,-143.43 4043.35,-146.35 4042.95,-139.37"/>
</g>
<!-- Node6 -->
<g id="node6" class="node">
<title>Node6</title>
<g id="a_node6"><a xlink:href="../../d9/dc8/dxiface_8cpp.html" target="_top" xlink:title=" ">
<polygon fill="white" stroke="black" points="4753,-73 4753,-92 4888,-92 4888,-73 4753,-73"/>
<text text-anchor="middle" x="4820.5" y="-80" font-family="Helvetica,sans-Serif" font-size="10.00">src/libs/vdxf/dxiface.cpp</text>
</a>
</g>
</g>
<!-- Node4&#45;&gt;Node6 -->
<g id="edge5" class="edge">
<title>Node4&#45;&gt;Node6</title>
<path fill="none" stroke="midnightblue" d="M4043.21,-146C4198.46,-141.44 4493.93,-129.18 4743.5,-98 4755.51,-96.5 4768.48,-94.29 4780.29,-92.05"/>
<polygon fill="midnightblue" stroke="midnightblue" points="4043.08,-142.5 4033.19,-146.29 4043.28,-149.5 4043.08,-142.5"/>
</g>
<!-- Node7 -->
<g id="node7" class="node">
<title>Node7</title>
<g id="a_node7"><a xlink:href="../../da/d75/vabstractarc__p_8h.html" target="_top" xlink:title=" ">
<polygon fill="white" stroke="red" points="4906,-67.5 4906,-97.5 5013,-97.5 5013,-67.5 4906,-67.5"/>
<text text-anchor="start" x="4914" y="-85.5" font-family="Helvetica,sans-Serif" font-size="10.00">src/libs/vgeometry</text>
<text text-anchor="middle" x="4959.5" y="-74.5" font-family="Helvetica,sans-Serif" font-size="10.00">/vabstractarc_p.h</text>
</a>
</g>
</g>
<!-- Node4&#45;&gt;Node7 -->
<g id="edge6" class="edge">
<title>Node4&#45;&gt;Node7</title>
<path fill="none" stroke="midnightblue" d="M4043.17,-145.2C4258.31,-138.22 4734.55,-120.72 4896.5,-98 4899.5,-97.58 4902.57,-97.09 4905.66,-96.54"/>
<polygon fill="midnightblue" stroke="midnightblue" points="4043,-141.7 4033.12,-145.53 4043.23,-148.7 4043,-141.7"/>
</g>
<!-- Node9 -->
<g id="node8" class="node">
<title>Node9</title>
<g id="a_node8"><a xlink:href="../../dc/da3/varc__p_8h.html" target="_top" xlink:title=" ">
<polygon fill="white" stroke="red" points="5031,-67.5 5031,-97.5 5138,-97.5 5138,-67.5 5031,-67.5"/>
<text text-anchor="start" x="5039" y="-85.5" font-family="Helvetica,sans-Serif" font-size="10.00">src/libs/vgeometry</text>
<text text-anchor="middle" x="5084.5" y="-74.5" font-family="Helvetica,sans-Serif" font-size="10.00">/varc_p.h</text>
</a>
</g>
</g>
<!-- Node4&#45;&gt;Node9 -->
<g id="edge7" class="edge">
<title>Node4&#45;&gt;Node9</title>
<path fill="none" stroke="midnightblue" d="M4043.06,-144.6C4298.34,-135.18 4926.53,-111.03 5021.5,-98 5024.5,-97.59 5027.57,-97.1 5030.66,-96.56"/>
<polygon fill="midnightblue" stroke="midnightblue" points="4042.9,-141.1 4033.03,-144.97 4043.15,-148.1 4042.9,-141.1"/>
</g>
<!-- Node11 -->
<g id="node9" class="node">
<title>Node11</title>
<g id="a_node9"><a xlink:href="../../d5/d8e/vcubicbezier__p_8h.html" target="_top" xlink:title=" ">
<polygon fill="white" stroke="red" points="5156,-67.5 5156,-97.5 5263,-97.5 5263,-67.5 5156,-67.5"/>
<text text-anchor="start" x="5164" y="-85.5" font-family="Helvetica,sans-Serif" font-size="10.00">src/libs/vgeometry</text>
<text text-anchor="middle" x="5209.5" y="-74.5" font-family="Helvetica,sans-Serif" font-size="10.00">/vcubicbezier_p.h</text>
</a>
</g>
</g>
<!-- Node4&#45;&gt;Node11 -->
<g id="edge8" class="edge">
<title>Node4&#45;&gt;Node11</title>
<path fill="none" stroke="midnightblue" d="M4043.44,-145.14C4319.85,-136.37 5039.06,-112.48 5146.5,-98 5149.5,-97.6 5152.57,-97.11 5155.66,-96.58"/>
<polygon fill="midnightblue" stroke="midnightblue" points="4043.28,-141.64 4033.39,-145.46 4043.5,-148.64 4043.28,-141.64"/>
</g>
<!-- Node13 -->
<g id="node10" class="node">
<title>Node13</title>
<g id="a_node10"><a xlink:href="../../df/dde/vellipticalarc__p_8h.html" target="_top" xlink:title=" ">
<polygon fill="white" stroke="black" points="5774,-67.5 5774,-97.5 5881,-97.5 5881,-67.5 5774,-67.5"/>
<text text-anchor="start" x="5782" y="-85.5" font-family="Helvetica,sans-Serif" font-size="10.00">src/libs/vgeometry</text>
<text text-anchor="middle" x="5827.5" y="-74.5" font-family="Helvetica,sans-Serif" font-size="10.00">/vellipticalarc_p.h</text>
</a>
</g>
</g>
<!-- Node4&#45;&gt;Node13 -->
<g id="edge9" class="edge">
<title>Node4&#45;&gt;Node13</title>
<path fill="none" stroke="midnightblue" d="M4043.31,-144.94C4136.53,-141.9 4274.9,-137.49 4395.5,-134 4699.92,-125.2 5463.44,-136.88 5765.5,-98 5768.24,-97.65 5771.04,-97.23 5773.85,-96.75"/>
<polygon fill="midnightblue" stroke="midnightblue" points="4043.19,-141.44 4033.31,-145.27 4043.42,-148.44 4043.19,-141.44"/>
</g>
<!-- Node14 -->
<g id="node11" class="node">
<title>Node14</title>
<g id="a_node11"><a xlink:href="../../d6/dfb/vellipticalarc_8cpp.html" target="_top" xlink:title=" ">
<polygon fill="white" stroke="black" points="5568,-0.5 5568,-30.5 5675,-30.5 5675,-0.5 5568,-0.5"/>
<text text-anchor="start" x="5576" y="-18.5" font-family="Helvetica,sans-Serif" font-size="10.00">src/libs/vgeometry</text>
<text text-anchor="middle" x="5621.5" y="-7.5" font-family="Helvetica,sans-Serif" font-size="10.00">/vellipticalarc.cpp</text>
</a>
</g>
</g>
<!-- Node4&#45;&gt;Node14 -->
<g id="edge11" class="edge">
<title>Node4&#45;&gt;Node14</title>
<path fill="none" stroke="midnightblue" d="M4043.26,-145C4379.68,-134.03 5388.56,-100.92 5396.5,-98 5417.28,-90.34 5415.74,-77 5435.5,-67 5477.45,-45.78 5529.38,-32.64 5567.7,-25.1"/>
<polygon fill="midnightblue" stroke="midnightblue" points="4042.91,-141.51 4033.03,-145.33 4043.14,-148.5 4042.91,-141.51"/>
</g>
<!-- Node15 -->
<g id="node12" class="node">
<title>Node15</title>
<g id="a_node12"><a xlink:href="../../d1/d76/vspline__p_8h.html" target="_top" xlink:title=" ">
<polygon fill="white" stroke="red" points="5445,-67.5 5445,-97.5 5552,-97.5 5552,-67.5 5445,-67.5"/>
<text text-anchor="start" x="5453" y="-85.5" font-family="Helvetica,sans-Serif" font-size="10.00">src/libs/vgeometry</text>
<text text-anchor="middle" x="5498.5" y="-74.5" font-family="Helvetica,sans-Serif" font-size="10.00">/vspline_p.h</text>
</a>
</g>
</g>
<!-- Node4&#45;&gt;Node15 -->
<g id="edge12" class="edge">
<title>Node4&#45;&gt;Node15</title>
<path fill="none" stroke="midnightblue" d="M4043.29,-145.11C4380.67,-134.48 5396.13,-102.21 5430.5,-98 5435.17,-97.43 5440,-96.69 5444.83,-95.86"/>
<polygon fill="midnightblue" stroke="midnightblue" points="4042.91,-141.62 4033.02,-145.44 4043.13,-148.62 4042.91,-141.62"/>
</g>
<!-- Node17 -->
<g id="node13" class="node">
<title>Node17</title>
<g id="a_node13"><a xlink:href="../../d9/d15/vabstractpiece_8cpp.html" target="_top" xlink:title=" ">
<polygon fill="white" stroke="black" points="5570.5,-73 5570.5,-92 5756.5,-92 5756.5,-73 5570.5,-73"/>
<text text-anchor="middle" x="5663.5" y="-80" font-family="Helvetica,sans-Serif" font-size="10.00">src/libs/vlayout/vabstractpiece.cpp</text>
</a>
</g>
</g>
<!-- Node4&#45;&gt;Node17 -->
<g id="edge13" class="edge">
<title>Node4&#45;&gt;Node17</title>
<path fill="none" stroke="midnightblue" d="M4043.32,-145.08C4136.54,-142.13 4274.91,-137.76 4395.5,-134 4913.27,-117.84 5044.36,-142.17 5560.5,-98 5576.96,-96.59 5594.82,-94.34 5610.96,-92.02"/>
<polygon fill="midnightblue" stroke="midnightblue" points="4043.19,-141.58 4033.31,-145.4 4043.42,-148.58 4043.19,-141.58"/>
</g>
<!-- Node18 -->
<g id="node14" class="node">
<title>Node18</title>
<g id="a_node14"><a xlink:href="../../d8/d70/vtextmanager_8cpp.html" target="_top" xlink:title=" ">
<polygon fill="white" stroke="black" points="911.5,-73 911.5,-92 1093.5,-92 1093.5,-73 911.5,-73"/>
<text text-anchor="middle" x="1002.5" y="-80" font-family="Helvetica,sans-Serif" font-size="10.00">src/libs/vlayout/vtextmanager.cpp</text>
</a>
</g>
</g>
<!-- Node4&#45;&gt;Node18 -->
<g id="edge14" class="edge">
<title>Node4&#45;&gt;Node18</title>
<path fill="none" stroke="midnightblue" d="M3827.63,-148.4C3377.44,-147.7 1646.73,-142.13 1102.5,-98 1086.15,-96.67 1068.41,-94.38 1052.46,-92.01"/>
<polygon fill="midnightblue" stroke="midnightblue" points="3827.7,-151.9 3837.7,-148.41 3827.71,-144.9 3827.7,-151.9"/>
</g>
<!-- Node19 -->
<g id="node15" class="node">
<title>Node19</title>
<g id="a_node15"><a xlink:href="../../dd/d70/vlayoutpiece_8cpp.html" target="_top" xlink:title=" ">
<polygon fill="white" stroke="black" points="716,-73 716,-92 893,-92 893,-73 716,-73"/>
<text text-anchor="middle" x="804.5" y="-80" font-family="Helvetica,sans-Serif" font-size="10.00">src/libs/vlayout/vlayoutpiece.cpp</text>
</a>
</g>
</g>
<!-- Node4&#45;&gt;Node19 -->
<g id="edge15" class="edge">
<title>Node4&#45;&gt;Node19</title>
<path fill="none" stroke="midnightblue" d="M3827.52,-148.59C3357.61,-148.69 1488.17,-146 902.5,-98 886.47,-96.69 869.08,-94.4 853.46,-92.02"/>
<polygon fill="midnightblue" stroke="midnightblue" points="3827.69,-152.09 3837.69,-148.59 3827.69,-145.09 3827.69,-152.09"/>
</g>
<!-- Node20 -->
<g id="node16" class="node">
<title>Node20</title>
<g id="a_node16"><a xlink:href="../../db/d65/dialogexporttocsv_8cpp.html" target="_top" xlink:title=" ">
<polygon fill="white" stroke="black" points="5899,-67.5 5899,-97.5 6026,-97.5 6026,-67.5 5899,-67.5"/>
<text text-anchor="start" x="5907" y="-85.5" font-family="Helvetica,sans-Serif" font-size="10.00">src/libs/vmisc/dialogs</text>
<text text-anchor="middle" x="5962.5" y="-74.5" font-family="Helvetica,sans-Serif" font-size="10.00">/dialogexporttocsv.cpp</text>
</a>
</g>
</g>
<!-- Node4&#45;&gt;Node20 -->
<g id="edge16" class="edge">
<title>Node4&#45;&gt;Node20</title>
<path fill="none" stroke="midnightblue" d="M4043.31,-144.88C4136.53,-141.8 4274.9,-137.35 4395.5,-134 4727.47,-124.77 5559.41,-134.48 5889.5,-98 5892.58,-97.66 5895.73,-97.26 5898.9,-96.8"/>
<polygon fill="midnightblue" stroke="midnightblue" points="4043.18,-141.38 4033.3,-145.21 4043.42,-148.37 4043.18,-141.38"/>
</g>
<!-- Node21 -->
<g id="node17" class="node">
<title>Node21</title>
<g id="a_node17"><a xlink:href="../../d6/d0b/def_8cpp.html" target="_top" xlink:title=" ">
<polygon fill="white" stroke="black" points="1237.5,-73 1237.5,-92 1359.5,-92 1359.5,-73 1237.5,-73"/>
<text text-anchor="middle" x="1298.5" y="-80" font-family="Helvetica,sans-Serif" font-size="10.00">src/libs/vmisc/def.cpp</text>
</a>
</g>
</g>
<!-- Node4&#45;&gt;Node21 -->
<g id="edge17" class="edge">
<title>Node4&#45;&gt;Node21</title>
<path fill="none" stroke="midnightblue" d="M3827.73,-147.55C3371.97,-143.4 1614.88,-125.7 1368.5,-98 1356.91,-96.7 1344.39,-94.4 1333.19,-92"/>
<polygon fill="midnightblue" stroke="midnightblue" points="3827.9,-151.06 3837.93,-147.65 3827.96,-144.06 3827.9,-151.06"/>
</g>
<!-- Node22 -->
<g id="node18" class="node">
<title>Node22</title>
<g id="a_node18"><a xlink:href="../../d0/df6/vabstractapplication_8cpp.html" target="_top" xlink:title=" ">
<polygon fill="white" stroke="black" points="1377.5,-73 1377.5,-92 1583.5,-92 1583.5,-73 1377.5,-73"/>
<text text-anchor="middle" x="1480.5" y="-80" font-family="Helvetica,sans-Serif" font-size="10.00">src/libs/vmisc/vabstractapplication.cpp</text>
</a>
</g>
</g>
<!-- Node4&#45;&gt;Node22 -->
<g id="edge18" class="edge">
<title>Node4&#45;&gt;Node22</title>
<path fill="none" stroke="midnightblue" d="M3827.89,-147.71C3429.1,-144.56 2035.73,-131.37 1592.5,-98 1574.41,-96.64 1554.78,-94.37 1537.07,-92.02"/>
<polygon fill="midnightblue" stroke="midnightblue" points="3827.95,-151.22 3837.98,-147.79 3828.01,-144.22 3827.95,-151.22"/>
</g>
<!-- Node23 -->
<g id="node19" class="node">
<title>Node23</title>
<g id="a_node19"><a xlink:href="../../d4/d4f/pmsystems_8cpp.html" target="_top" xlink:title=" ">
<polygon fill="white" stroke="black" points="1602,-67.5 1602,-97.5 1709,-97.5 1709,-67.5 1602,-67.5"/>
<text text-anchor="start" x="1610" y="-85.5" font-family="Helvetica,sans-Serif" font-size="10.00">src/libs/vpatterndb</text>
<text text-anchor="middle" x="1655.5" y="-74.5" font-family="Helvetica,sans-Serif" font-size="10.00">/pmsystems.cpp</text>
</a>
</g>
</g>
<!-- Node4&#45;&gt;Node23 -->
<g id="edge19" class="edge">
<title>Node4&#45;&gt;Node23</title>
<path fill="none" stroke="midnightblue" d="M3827.68,-149C3442.13,-150.32 2132.82,-150.72 1717.5,-98 1714.76,-97.65 1711.96,-97.23 1709.14,-96.76"/>
<polygon fill="midnightblue" stroke="midnightblue" points="3827.73,-152.5 3837.71,-148.96 3827.7,-145.5 3827.73,-152.5"/>
</g>
<!-- Node4&#45;&gt;Node24 -->
<g id="edge20" class="edge">
<title>Node4&#45;&gt;Node24</title>
<path fill="none" stroke="midnightblue" d="M4043.31,-144.81C4136.53,-141.69 4274.89,-137.23 4395.5,-134 4759.68,-124.26 5672.99,-143.09 6034.5,-98 6037.51,-97.62 6040.58,-97.17 6043.67,-96.65"/>
<polygon fill="midnightblue" stroke="midnightblue" points="4043.18,-141.31 4033.3,-145.15 4043.42,-148.31 4043.18,-141.31"/>
</g>
<!-- Node4&#45;&gt;Node25 -->
<g id="edge21" class="edge">
<title>Node4&#45;&gt;Node25</title>
<path fill="none" stroke="midnightblue" d="M4043.43,-147.34C4459.81,-142.69 5948.87,-124.35 6159.5,-98 6162.51,-97.62 6165.58,-97.17 6168.67,-96.65"/>
<polygon fill="midnightblue" stroke="midnightblue" points="4043.17,-143.84 4033.2,-147.45 4043.24,-150.84 4043.17,-143.84"/>
</g>
<!-- Node26 -->
<g id="node22" class="node">
<title>Node26</title>
<g id="a_node22"><a xlink:href="../../df/dba/vpiecenode__p_8h.html" target="_top" xlink:title=" ">
<polygon fill="white" stroke="black" points="5281,-67.5 5281,-97.5 5388,-97.5 5388,-67.5 5281,-67.5"/>
<text text-anchor="start" x="5289" y="-85.5" font-family="Helvetica,sans-Serif" font-size="10.00">src/libs/vpatterndb</text>
<text text-anchor="middle" x="5334.5" y="-74.5" font-family="Helvetica,sans-Serif" font-size="10.00">/vpiecenode_p.h</text>
</a>
</g>
</g>
<!-- Node4&#45;&gt;Node26 -->
<g id="edge22" class="edge">
<title>Node4&#45;&gt;Node26</title>
<path fill="none" stroke="midnightblue" d="M4043.33,-144.98C4350.36,-134.88 5211.09,-106.02 5271.5,-98 5274.5,-97.6 5277.58,-97.13 5280.67,-96.59"/>
<polygon fill="midnightblue" stroke="midnightblue" points="4042.96,-141.49 4033.08,-145.32 4043.19,-148.48 4042.96,-141.49"/>
</g>
<!-- Node28 -->
<g id="node24" class="node">
<title>Node28</title>
<g id="a_node24"><a xlink:href="../../df/d7a/vpiece_8cpp.html" target="_top" xlink:title=" ">
<polygon fill="white" stroke="black" points="1112,-67.5 1112,-97.5 1219,-97.5 1219,-67.5 1112,-67.5"/>
<text text-anchor="start" x="1120" y="-85.5" font-family="Helvetica,sans-Serif" font-size="10.00">src/libs/vpatterndb</text>
<text text-anchor="middle" x="1165.5" y="-74.5" font-family="Helvetica,sans-Serif" font-size="10.00">/vpiece.cpp</text>
</a>
</g>
</g>
<!-- Node4&#45;&gt;Node28 -->
<g id="edge24" class="edge">
<title>Node4&#45;&gt;Node28</title>
<path fill="none" stroke="midnightblue" d="M3827.75,-147.81C3356.55,-144.62 1489.07,-130.06 1228.5,-98 1225.49,-97.63 1222.42,-97.18 1219.33,-96.66"/>
<polygon fill="midnightblue" stroke="midnightblue" points="3827.93,-151.31 3837.95,-147.88 3827.98,-144.31 3827.93,-151.31"/>
</g>
<!-- Node4&#45;&gt;Node29 -->
<g id="edge25" class="edge">
<title>Node4&#45;&gt;Node29</title>
<path fill="none" stroke="midnightblue" d="M4043.17,-149.01C4442.98,-150.48 5841.98,-151.58 6284.5,-98 6287.71,-97.61 6291,-97.13 6294.31,-96.59"/>
<polygon fill="midnightblue" stroke="midnightblue" points="4043.07,-145.51 4033.06,-148.98 4043.04,-152.51 4043.07,-145.51"/>
</g>
<!-- Node30 -->
<g id="node26" class="node">
<title>Node30</title>
<g id="a_node26"><a xlink:href="../../df/d40/export__format__combobox_8cpp.html" target="_top" xlink:title=" ">
<polygon fill="white" stroke="black" points="1727,-67.5 1727,-97.5 1860,-97.5 1860,-67.5 1727,-67.5"/>
<text text-anchor="start" x="1735" y="-85.5" font-family="Helvetica,sans-Serif" font-size="10.00">src/libs/vwidgets/export</text>
<text text-anchor="middle" x="1793.5" y="-74.5" font-family="Helvetica,sans-Serif" font-size="10.00">_format_combobox.cpp</text>
</a>
</g>
</g>
<!-- Node4&#45;&gt;Node30 -->
<g id="edge26" class="edge">
<title>Node4&#45;&gt;Node30</title>
<path fill="none" stroke="midnightblue" d="M3827.68,-148.24C3459.53,-146.97 2253.78,-139.66 1868.5,-98 1865.73,-97.7 1862.91,-97.35 1860.07,-96.97"/>
<polygon fill="midnightblue" stroke="midnightblue" points="3827.79,-151.74 3837.8,-148.27 3827.81,-144.74 3827.79,-151.74"/>
</g>
<!-- Node31 -->
<g id="node27" class="node">
<title>Node31</title>
<g id="a_node27"><a xlink:href="../../d7/d1b/pen__toolbar_8cpp.html" target="_top" xlink:title=" ">
<polygon fill="white" stroke="black" points="1878,-67.5 1878,-97.5 1997,-97.5 1997,-67.5 1878,-67.5"/>
<text text-anchor="start" x="1886" y="-85.5" font-family="Helvetica,sans-Serif" font-size="10.00">src/libs/vwidgets/pen</text>
<text text-anchor="middle" x="1937.5" y="-74.5" font-family="Helvetica,sans-Serif" font-size="10.00">_toolbar.cpp</text>
</a>
</g>
</g>
<!-- Node4&#45;&gt;Node31 -->
<g id="edge27" class="edge">
<title>Node4&#45;&gt;Node31</title>
<path fill="none" stroke="midnightblue" d="M3827.73,-148.24C3475.93,-147.01 2363.27,-139.81 2006.5,-98 2003.46,-97.64 2000.36,-97.22 1997.23,-96.74"/>
<polygon fill="midnightblue" stroke="midnightblue" points="3827.91,-151.75 3837.92,-148.28 3827.93,-144.75 3827.91,-151.75"/>
</g>
<!-- Node32 -->
<g id="node28" class="node">
<title>Node32</title>
<g id="a_node28"><a xlink:href="../../d3/d4f/mouse__coordinates_8cpp.html" target="_top" xlink:title=" ">
<polygon fill="white" stroke="black" points="2015.5,-67.5 2015.5,-97.5 2149.5,-97.5 2149.5,-67.5 2015.5,-67.5"/>
<text text-anchor="start" x="2023.5" y="-85.5" font-family="Helvetica,sans-Serif" font-size="10.00">src/libs/vwidgets/mouse</text>
<text text-anchor="middle" x="2082.5" y="-74.5" font-family="Helvetica,sans-Serif" font-size="10.00">_coordinates.cpp</text>
</a>
</g>
</g>
<!-- Node4&#45;&gt;Node32 -->
<g id="edge28" class="edge">
<title>Node4&#45;&gt;Node32</title>
<path fill="none" stroke="midnightblue" d="M3827.77,-147.7C3494.74,-144.87 2484.66,-133.52 2158.5,-98 2155.56,-97.68 2152.57,-97.31 2149.55,-96.9"/>
<polygon fill="midnightblue" stroke="midnightblue" points="3827.87,-151.2 3837.9,-147.79 3827.93,-144.2 3827.87,-151.2"/>
</g>
<!-- Node33 -->
<g id="node29" class="node">
<title>Node33</title>
<g id="a_node29"><a xlink:href="../../d8/d76/scene__rect_8cpp.html" target="_top" xlink:title=" ">
<polygon fill="white" stroke="black" points="2167.5,-67.5 2167.5,-97.5 2297.5,-97.5 2297.5,-67.5 2167.5,-67.5"/>
<text text-anchor="start" x="2175.5" y="-85.5" font-family="Helvetica,sans-Serif" font-size="10.00">src/libs/vwidgets/scene</text>
<text text-anchor="middle" x="2232.5" y="-74.5" font-family="Helvetica,sans-Serif" font-size="10.00">_rect.cpp</text>
</a>
</g>
</g>
<!-- Node4&#45;&gt;Node33 -->
<g id="edge29" class="edge">
<title>Node4&#45;&gt;Node33</title>
<path fill="none" stroke="midnightblue" d="M3827.85,-147.45C3513.86,-144.01 2602.55,-131.37 2306.5,-98 2303.64,-97.68 2300.72,-97.3 2297.78,-96.89"/>
<polygon fill="midnightblue" stroke="midnightblue" points="3827.83,-150.95 3837.87,-147.56 3827.91,-143.95 3827.83,-150.95"/>
</g>
<!-- Node34 -->
<g id="node30" class="node">
<title>Node34</title>
<g id="a_node30"><a xlink:href="../../dd/df6/vabstractmainwindow_8cpp.html" target="_top" xlink:title=" ">
<polygon fill="white" stroke="black" points="2316,-73 2316,-92 2545,-92 2545,-73 2316,-73"/>
<text text-anchor="middle" x="2430.5" y="-80" font-family="Helvetica,sans-Serif" font-size="10.00">src/libs/vwidgets/vabstractmainwindow.cpp</text>
</a>
</g>
</g>
<!-- Node4&#45;&gt;Node34 -->
<g id="edge30" class="edge">
<title>Node4&#45;&gt;Node34</title>
<path fill="none" stroke="midnightblue" d="M3827.58,-147.52C3594.6,-144.76 3027.31,-134.52 2553.5,-98 2534.21,-96.51 2513.27,-94.28 2494.24,-92.01"/>
<polygon fill="midnightblue" stroke="midnightblue" points="3827.7,-151.02 3837.74,-147.64 3827.79,-144.02 3827.7,-151.02"/>
</g>
<!-- Node35 -->
<g id="node31" class="node">
<title>Node35</title>
<g id="a_node31"><a xlink:href="../../d1/d90/vgrainlineitem_8cpp.html" target="_top" xlink:title=" ">
<polygon fill="white" stroke="black" points="2563,-73 2563,-92 2756,-92 2756,-73 2563,-73"/>
<text text-anchor="middle" x="2659.5" y="-80" font-family="Helvetica,sans-Serif" font-size="10.00">src/libs/vwidgets/vgrainlineitem.cpp</text>
</a>
</g>
</g>
<!-- Node4&#45;&gt;Node35 -->
<g id="edge31" class="edge">
<title>Node4&#45;&gt;Node35</title>
<path fill="none" stroke="midnightblue" d="M3827.5,-147.24C3620.76,-144.07 3154.87,-133.29 2764.5,-98 2748.01,-96.51 2730.13,-94.27 2713.89,-92"/>
<polygon fill="midnightblue" stroke="midnightblue" points="3827.7,-150.74 3837.75,-147.39 3827.81,-143.74 3827.7,-150.74"/>
</g>
<!-- Node36 -->
<g id="node32" class="node">
<title>Node36</title>
<g id="a_node32"><a xlink:href="../../de/d45/vcontrolpointspline_8cpp.html" target="_top" xlink:title=" ">
<polygon fill="white" stroke="black" points="2774,-73 2774,-92 2989,-92 2989,-73 2774,-73"/>
<text text-anchor="middle" x="2881.5" y="-80" font-family="Helvetica,sans-Serif" font-size="10.00">src/libs/vwidgets/vcontrolpointspline.cpp</text>
</a>
</g>
</g>
<!-- Node4&#45;&gt;Node36 -->
<g id="edge32" class="edge">
<title>Node4&#45;&gt;Node36</title>
<path fill="none" stroke="midnightblue" d="M3827.67,-145.12C3653.18,-139.11 3298.21,-124.62 2998.5,-98 2980.66,-96.42 2961.35,-94.22 2943.65,-92.02"/>
<polygon fill="midnightblue" stroke="midnightblue" points="3827.77,-148.63 3837.88,-145.47 3828.01,-141.63 3827.77,-148.63"/>
</g>
<!-- Node37 -->
<g id="node33" class="node">
<title>Node37</title>
<g id="a_node33"><a xlink:href="../../de/dec/vgraphicssimpletextitem_8cpp.html" target="_top" xlink:title=" ">
<polygon fill="white" stroke="black" points="3007.5,-73 3007.5,-92 3251.5,-92 3251.5,-73 3007.5,-73"/>
<text text-anchor="middle" x="3129.5" y="-80" font-family="Helvetica,sans-Serif" font-size="10.00">src/libs/vwidgets/vgraphicssimpletextitem.cpp</text>
</a>
</g>
</g>
<!-- Node4&#45;&gt;Node37 -->
<g id="edge33" class="edge">
<title>Node4&#45;&gt;Node37</title>
<path fill="none" stroke="midnightblue" d="M3827.67,-141.62C3694.33,-132.84 3460.5,-116.54 3260.5,-98 3241.59,-96.25 3221.17,-94.11 3202.21,-92.01"/>
<polygon fill="midnightblue" stroke="midnightblue" points="3827.67,-145.13 3837.88,-142.29 3828.13,-138.14 3827.67,-145.13"/>
</g>
<!-- Node38 -->
<g id="node34" class="node">
<title>Node38</title>
<g id="a_node34"><a xlink:href="../../d1/d88/vmaingraphicsscene_8cpp.html" target="_top" xlink:title=" ">
<polygon fill="white" stroke="black" points="3269.5,-73 3269.5,-92 3491.5,-92 3491.5,-73 3269.5,-73"/>
<text text-anchor="middle" x="3380.5" y="-80" font-family="Helvetica,sans-Serif" font-size="10.00">src/libs/vwidgets/vmaingraphicsscene.cpp</text>
</a>
</g>
</g>
<!-- Node4&#45;&gt;Node38 -->
<g id="edge34" class="edge">
<title>Node4&#45;&gt;Node38</title>
<path fill="none" stroke="midnightblue" d="M3851.06,-138.82C3763.4,-128.73 3622.33,-112.43 3500.5,-98 3484.35,-96.09 3466.98,-94 3450.61,-92.03"/>
<polygon fill="midnightblue" stroke="midnightblue" points="3850.88,-142.32 3861.21,-139.98 3851.68,-135.36 3850.88,-142.32"/>
</g>
<!-- Node39 -->
<g id="node35" class="node">
<title>Node39</title>
<g id="a_node35"><a xlink:href="../../d2/d31/vmaingraphicsview_8cpp.html" target="_top" xlink:title=" ">
<polygon fill="white" stroke="black" points="3509.5,-73 3509.5,-92 3725.5,-92 3725.5,-73 3509.5,-73"/>
<text text-anchor="middle" x="3617.5" y="-80" font-family="Helvetica,sans-Serif" font-size="10.00">src/libs/vwidgets/vmaingraphicsview.cpp</text>
</a>
</g>
</g>
<!-- Node4&#45;&gt;Node39 -->
<g id="edge35" class="edge">
<title>Node4&#45;&gt;Node39</title>
<path fill="none" stroke="midnightblue" d="M3883.54,-137.88C3820.91,-125.08 3716.91,-103.82 3659.24,-92.03"/>
<polygon fill="midnightblue" stroke="midnightblue" points="3883.1,-141.36 3893.6,-139.94 3884.5,-134.5 3883.1,-141.36"/>
</g>
<!-- Node40 -->
<g id="node36" class="node">
<title>Node40</title>
<g id="a_node36"><a xlink:href="../../d0/d5d/vscenepoint_8cpp.html" target="_top" xlink:title=" ">
<polygon fill="white" stroke="black" points="3744,-73 3744,-92 3925,-92 3925,-73 3744,-73"/>
<text text-anchor="middle" x="3834.5" y="-80" font-family="Helvetica,sans-Serif" font-size="10.00">src/libs/vwidgets/vscenepoint.cpp</text>
</a>
</g>
</g>
<!-- Node4&#45;&gt;Node40 -->
<g id="edge36" class="edge">
<title>Node4&#45;&gt;Node40</title>
<path fill="none" stroke="midnightblue" d="M3913.39,-134.27C3893.39,-121.4 3864.61,-102.88 3847.91,-92.13"/>
<polygon fill="midnightblue" stroke="midnightblue" points="3911.58,-137.27 3921.88,-139.73 3915.36,-131.38 3911.58,-137.27"/>
</g>
<!-- Node41 -->
<g id="node37" class="node">
<title>Node41</title>
<g id="a_node37"><a xlink:href="../../de/d22/vsimplecurve_8cpp.html" target="_top" xlink:title=" ">
<polygon fill="white" stroke="black" points="3943.5,-73 3943.5,-92 4131.5,-92 4131.5,-73 3943.5,-73"/>
<text text-anchor="middle" x="4037.5" y="-80" font-family="Helvetica,sans-Serif" font-size="10.00">src/libs/vwidgets/vsimplecurve.cpp</text>
</a>
</g>
</g>
<!-- Node4&#45;&gt;Node41 -->
<g id="edge37" class="edge">
<title>Node4&#45;&gt;Node41</title>
<path fill="none" stroke="midnightblue" d="M3957.83,-134.27C3978.02,-121.4 4007.09,-102.88 4023.96,-92.13"/>
<polygon fill="midnightblue" stroke="midnightblue" points="3955.81,-131.41 3949.26,-139.73 3959.57,-137.31 3955.81,-131.41"/>
</g>
<!-- Node42 -->
<g id="node38" class="node">
<title>Node42</title>
<g id="a_node38"><a xlink:href="../../df/d38/vsimplepoint_8cpp.html" target="_top" xlink:title=" ">
<polygon fill="white" stroke="black" points="4150,-73 4150,-92 4335,-92 4335,-73 4150,-73"/>
<text text-anchor="middle" x="4242.5" y="-80" font-family="Helvetica,sans-Serif" font-size="10.00">src/libs/vwidgets/vsimplepoint.cpp</text>
</a>
</g>
</g>
<!-- Node4&#45;&gt;Node42 -->
<g id="edge38" class="edge">
<title>Node4&#45;&gt;Node42</title>
<path fill="none" stroke="midnightblue" d="M3986.02,-137.8C4046.44,-125.01 4146.35,-103.86 4201.96,-92.08"/>
<polygon fill="midnightblue" stroke="midnightblue" points="3985.01,-134.44 3975.95,-139.94 3986.46,-141.29 3985.01,-134.44"/>
</g>
<!-- Node43 -->
<g id="node39" class="node">
<title>Node43</title>
<g id="a_node39"><a xlink:href="../../df/df5/vtextgraphicsitem_8cpp.html" target="_top" xlink:title=" ">
<polygon fill="white" stroke="black" points="4353,-73 4353,-92 4564,-92 4564,-73 4353,-73"/>
<text text-anchor="middle" x="4458.5" y="-80" font-family="Helvetica,sans-Serif" font-size="10.00">src/libs/vwidgets/vtextgraphicsitem.cpp</text>
</a>
</g>
</g>
<!-- Node4&#45;&gt;Node43 -->
<g id="edge39" class="edge">
<title>Node4&#45;&gt;Node43</title>
<path fill="none" stroke="midnightblue" d="M4014.83,-138.74C4097.05,-128.6 4229.28,-112.27 4343.5,-98 4358.88,-96.08 4375.41,-94 4391,-92.04"/>
<polygon fill="midnightblue" stroke="midnightblue" points="4014.31,-135.27 4004.81,-139.97 4015.16,-142.22 4014.31,-135.27"/>
</g>
<!-- Node13&#45;&gt;Node14 -->
<g id="edge10" class="edge">
<title>Node13&#45;&gt;Node14</title>
<path fill="none" stroke="midnightblue" d="M5773.45,-64.44C5740.05,-53.91 5697.72,-40.55 5666.22,-30.61"/>
<polygon fill="midnightblue" stroke="midnightblue" points="5772.46,-67.8 5783.05,-67.48 5774.57,-61.13 5772.46,-67.8"/>
</g>
<!-- Node27 -->
<g id="node23" class="node">
<title>Node27</title>
<g id="a_node23"><a xlink:href="../../d8/dba/vpiecenode_8cpp.html" target="_top" xlink:title=" ">
<polygon fill="white" stroke="black" points="3035,-0.5 3035,-30.5 3142,-30.5 3142,-0.5 3035,-0.5"/>
<text text-anchor="start" x="3043" y="-18.5" font-family="Helvetica,sans-Serif" font-size="10.00">src/libs/vpatterndb</text>
<text text-anchor="middle" x="3088.5" y="-7.5" font-family="Helvetica,sans-Serif" font-size="10.00">/vpiecenode.cpp</text>
</a>
</g>
</g>
<!-- Node26&#45;&gt;Node27 -->
<g id="edge23" class="edge">
<title>Node26&#45;&gt;Node27</title>
<path fill="none" stroke="midnightblue" d="M5270.53,-67.11C4819.83,-13.09 3433.16,-15.21 3142.33,-16.26"/>
<polygon fill="midnightblue" stroke="midnightblue" points="5270.32,-70.61 5280.67,-68.35 5271.17,-63.66 5270.32,-70.61"/>
</g>
<!-- Node44&#45;&gt;Node4 -->
<g id="edge49" class="edge">
<title>Node44&#45;&gt;Node4</title>
<path fill="none" stroke="midnightblue" d="M895.33,-214.16C1286.74,-205.97 3361.15,-162.53 3837.81,-152.55"/>
<polygon fill="midnightblue" stroke="midnightblue" points="894.97,-210.67 885.05,-214.38 895.12,-217.67 894.97,-210.67"/>
</g>
<!-- Node44&#45;&gt;Node18 -->
<g id="edge48" class="edge">
<title>Node44&#45;&gt;Node18</title>
<path fill="none" stroke="midnightblue" d="M871.35,-196.94C888.15,-188.29 907.49,-177.21 923.5,-165 953.43,-142.18 982.67,-108.04 995.6,-92.18"/>
<polygon fill="midnightblue" stroke="midnightblue" points="869.67,-193.87 862.31,-201.49 872.81,-200.12 869.67,-193.87"/>
</g>
<!-- Node44&#45;&gt;Node24 -->
<g id="edge52" class="edge">
<title>Node44&#45;&gt;Node24</title>
<path fill="none" stroke="midnightblue" d="M895.54,-214.92C1226.33,-211.82 2774.76,-196.25 4041.5,-165 4263,-159.53 5814.8,-126.7 6034.5,-98 6037.5,-97.61 6040.58,-97.14 6043.67,-96.61"/>
<polygon fill="midnightblue" stroke="midnightblue" points="895.17,-211.42 885.2,-215.01 895.23,-218.42 895.17,-211.42"/>
</g>
<!-- Node44&#45;&gt;Node25 -->
<g id="edge53" class="edge">
<title>Node44&#45;&gt;Node25</title>
<path fill="none" stroke="midnightblue" d="M895.37,-215.41C1261.7,-214.74 3133.04,-209.2 4660.5,-165 4993.8,-155.36 5829.11,-143.02 6159.5,-98 6162.5,-97.59 6165.57,-97.11 6168.66,-96.57"/>
<polygon fill="midnightblue" stroke="midnightblue" points="895.22,-211.91 885.22,-215.43 895.23,-218.91 895.22,-211.91"/>
</g>
<!-- Node44&#45;&gt;Node27 -->
<g id="edge55" class="edge">
<title>Node44&#45;&gt;Node27</title>
<path fill="none" stroke="midnightblue" d="M767.47,-214.92C681.07,-212.68 533.88,-203.17 498.5,-165 468.86,-133.01 462.96,-98.14 493.5,-67 539.62,-19.97 2667.31,-16.72 3034.73,-16.51"/>
<polygon fill="midnightblue" stroke="midnightblue" points="767.61,-218.43 777.69,-215.16 767.78,-211.43 767.61,-218.43"/>
</g>
<!-- Node44&#45;&gt;Node28 -->
<g id="edge56" class="edge">
<title>Node44&#45;&gt;Node28</title>
<path fill="none" stroke="midnightblue" d="M876.4,-197.76C943.53,-171.23 1068.71,-121.75 1129.93,-97.56"/>
<polygon fill="midnightblue" stroke="midnightblue" points="874.94,-194.57 866.93,-201.5 877.51,-201.08 874.94,-194.57"/>
</g>
<!-- Node45 -->
<g id="node41" class="node">
<title>Node45</title>
<g id="a_node41"><a xlink:href="../../d4/dd6/vmeasurements_8h.html" target="_top" xlink:title=" ">
<polygon fill="white" stroke="black" points="508,-140 508,-159 693,-159 693,-140 508,-140"/>
<text text-anchor="middle" x="600.5" y="-147" font-family="Helvetica,sans-Serif" font-size="10.00">src/libs/vformat/vmeasurements.h</text>
</a>
</g>
</g>
<!-- Node44&#45;&gt;Node45 -->
<g id="edge43" class="edge">
<title>Node44&#45;&gt;Node45</title>
<path fill="none" stroke="midnightblue" d="M771.97,-198.75C726.8,-186.04 666.55,-169.09 630.81,-159.03"/>
<polygon fill="midnightblue" stroke="midnightblue" points="771.09,-202.14 781.66,-201.48 772.98,-195.4 771.09,-202.14"/>
</g>
<!-- Node46 -->
<g id="node42" class="node">
<title>Node46</title>
<g id="a_node42"><a xlink:href="../../de/db3/vmeasurements_8cpp.html" target="_top" xlink:title=" ">
<polygon fill="white" stroke="black" points="502.5,-73 502.5,-92 698.5,-92 698.5,-73 502.5,-73"/>
<text text-anchor="middle" x="600.5" y="-80" font-family="Helvetica,sans-Serif" font-size="10.00">src/libs/vformat/vmeasurements.cpp</text>
</a>
</g>
</g>
<!-- Node44&#45;&gt;Node46 -->
<g id="edge45" class="edge">
<title>Node44&#45;&gt;Node46</title>
<path fill="none" stroke="midnightblue" d="M793.46,-196.62C776.52,-187.71 756.58,-176.52 739.5,-165 721.43,-152.82 719.8,-145.83 701.5,-134 674.99,-116.86 641.88,-101.31 620.95,-92.12"/>
<polygon fill="midnightblue" stroke="midnightblue" points="792.04,-199.82 802.53,-201.32 795.26,-193.61 792.04,-199.82"/>
</g>
<!-- Node47 -->
<g id="node43" class="node">
<title>Node47</title>
<g id="a_node43"><a xlink:href="../../d6/de0/vlayoutpiece_8h.html" target="_top" xlink:title=" ">
<polygon fill="white" stroke="red" points="748.5,-140 748.5,-159 914.5,-159 914.5,-140 748.5,-140"/>
<text text-anchor="middle" x="831.5" y="-147" font-family="Helvetica,sans-Serif" font-size="10.00">src/libs/vlayout/vlayoutpiece.h</text>
</a>
</g>
</g>
<!-- Node44&#45;&gt;Node47 -->
<g id="edge46" class="edge">
<title>Node44&#45;&gt;Node47</title>
<path fill="none" stroke="midnightblue" d="M831.5,-191.25C831.5,-180.02 831.5,-167.38 831.5,-159.19"/>
<polygon fill="midnightblue" stroke="midnightblue" points="828,-191.4 831.5,-201.4 835,-191.4 828,-191.4"/>
</g>
<!-- Node56 -->
<g id="node44" class="node">
<title>Node56</title>
<g id="a_node44"><a xlink:href="../../d1/de1/vincrement__p_8h.html" target="_top" xlink:title=" ">
<polygon fill="white" stroke="red" points="0,-134.5 0,-164.5 143,-164.5 143,-134.5 0,-134.5"/>
<text text-anchor="start" x="8" y="-152.5" font-family="Helvetica,sans-Serif" font-size="10.00">src/libs/vpatterndb</text>
<text text-anchor="middle" x="71.5" y="-141.5" font-family="Helvetica,sans-Serif" font-size="10.00">/variables/vincrement_p.h</text>
</a>
</g>
</g>
<!-- Node44&#45;&gt;Node56 -->
<g id="edge50" class="edge">
<title>Node44&#45;&gt;Node56</title>
<path fill="none" stroke="midnightblue" d="M767.45,-212.94C646.76,-207.62 377.56,-193.44 152.5,-165 149.52,-164.62 146.49,-164.21 143.43,-163.77"/>
<polygon fill="midnightblue" stroke="midnightblue" points="767.48,-216.44 777.62,-213.38 767.78,-209.45 767.48,-216.44"/>
</g>
<!-- Node58 -->
<g id="node45" class="node">
<title>Node58</title>
<g id="a_node45"><a xlink:href="../../d6/dc1/vmeasurement__p_8h.html" target="_top" xlink:title=" ">
<polygon fill="white" stroke="red" points="161.5,-134.5 161.5,-164.5 323.5,-164.5 323.5,-134.5 161.5,-134.5"/>
<text text-anchor="start" x="169.5" y="-152.5" font-family="Helvetica,sans-Serif" font-size="10.00">src/libs/vpatterndb</text>
<text text-anchor="middle" x="242.5" y="-141.5" font-family="Helvetica,sans-Serif" font-size="10.00">/variables/vmeasurement_p.h</text>
</a>
</g>
</g>
<!-- Node44&#45;&gt;Node58 -->
<g id="edge51" class="edge">
<title>Node44&#45;&gt;Node58</title>
<path fill="none" stroke="midnightblue" d="M767.82,-210.26C672.83,-202.18 488.48,-185.44 332.5,-165 329.68,-164.63 326.8,-164.24 323.9,-163.84"/>
<polygon fill="midnightblue" stroke="midnightblue" points="767.58,-213.76 777.84,-211.11 768.17,-206.78 767.58,-213.76"/>
</g>
<!-- Node60 -->
<g id="node46" class="node">
<title>Node60</title>
<g id="a_node46"><a xlink:href="../../d6/d91/vnodedetail_8cpp.html" target="_top" xlink:title=" ">
<polygon fill="white" stroke="black" points="342,-134.5 342,-164.5 449,-164.5 449,-134.5 342,-134.5"/>
<text text-anchor="start" x="350" y="-152.5" font-family="Helvetica,sans-Serif" font-size="10.00">src/libs/vpatterndb</text>
<text text-anchor="middle" x="395.5" y="-141.5" font-family="Helvetica,sans-Serif" font-size="10.00">/vnodedetail.cpp</text>
</a>
</g>
</g>
<!-- Node44&#45;&gt;Node60 -->
<g id="edge54" class="edge">
<title>Node44&#45;&gt;Node60</title>
<path fill="none" stroke="midnightblue" d="M767.95,-208.22C694.43,-199.47 569.82,-183.6 463.5,-165 458.86,-164.19 454.06,-163.29 449.25,-162.34"/>
<polygon fill="midnightblue" stroke="midnightblue" points="767.64,-211.71 777.98,-209.41 768.46,-204.76 767.64,-211.71"/>
</g>
<!-- Node45&#45;&gt;Node46 -->
<g id="edge44" class="edge">
<title>Node45&#45;&gt;Node46</title>
<path fill="none" stroke="midnightblue" d="M600.5,-129.54C600.5,-117.17 600.5,-101.62 600.5,-92.13"/>
<polygon fill="midnightblue" stroke="midnightblue" points="597,-129.73 600.5,-139.73 604,-129.73 597,-129.73"/>
</g>
<!-- Node47&#45;&gt;Node19 -->
<g id="edge47" class="edge">
<title>Node47&#45;&gt;Node19</title>
<path fill="none" stroke="midnightblue" d="M823.94,-130.29C818.75,-117.81 812.11,-101.81 808.08,-92.13"/>
<polygon fill="midnightblue" stroke="midnightblue" points="820.79,-131.84 827.86,-139.73 827.25,-129.16 820.79,-131.84"/>
</g>
</g>
</svg>
