<?xml version="1.0" encoding="UTF-8" standalone="no"?>
<!DOCTYPE svg PUBLIC "-//W3C//DTD SVG 1.1//EN"
 "http://www.w3.org/Graphics/SVG/1.1/DTD/svg11.dtd">
<!-- Generated by graphviz version 2.43.0 (0)
 -->
<!-- Title: src/libs/vpatterndb/vtranslatemeasurements.h Pages: 1 -->
<svg width="6516pt" height="385pt"
 viewBox="0.00 0.00 6515.50 385.00" xmlns="http://www.w3.org/2000/svg" xmlns:xlink="http://www.w3.org/1999/xlink">
<g id="graph0" class="graph" transform="scale(1 1) rotate(0) translate(4 381)">
<title>src/libs/vpatterndb/vtranslatemeasurements.h</title>
<polygon fill="white" stroke="transparent" points="-4,4 -4,-381 6511.5,-381 6511.5,4 -4,4"/>
<!-- Node1 -->
<g id="node1" class="node">
<title>Node1</title>
<g id="a_node1"><a xlink:title=" ">
<polygon fill="#bfbfbf" stroke="black" points="6150,-346.5 6150,-376.5 6302,-376.5 6302,-346.5 6150,-346.5"/>
<text text-anchor="start" x="6158" y="-364.5" font-family="Helvetica,sans-Serif" font-size="10.00">src/libs/vpatterndb</text>
<text text-anchor="middle" x="6226" y="-353.5" font-family="Helvetica,sans-Serif" font-size="10.00">/vtranslatemeasurements.h</text>
</a>
</g>
</g>
<!-- Node2 -->
<g id="node2" class="node">
<title>Node2</title>
<g id="a_node2"><a xlink:href="../../dd/de9/measurements__def_8cpp.html" target="_top" xlink:title=" ">
<polygon fill="white" stroke="black" points="5848,-279.5 5848,-309.5 5982,-309.5 5982,-279.5 5848,-279.5"/>
<text text-anchor="start" x="5856" y="-297.5" font-family="Helvetica,sans-Serif" font-size="10.00">src/libs/vpatterndb</text>
<text text-anchor="middle" x="5915" y="-286.5" font-family="Helvetica,sans-Serif" font-size="10.00">/measurements_def.cpp</text>
</a>
</g>
</g>
<!-- Node1&#45;&gt;Node2 -->
<g id="edge1" class="edge">
<title>Node1&#45;&gt;Node2</title>
<path fill="none" stroke="midnightblue" d="M6148.88,-344.38C6097.73,-333.69 6031.25,-319.8 5982.25,-309.55"/>
<polygon fill="midnightblue" stroke="midnightblue" points="6148.4,-347.86 6158.9,-346.48 6149.83,-341 6148.4,-347.86"/>
</g>
<!-- Node3 -->
<g id="node3" class="node">
<title>Node3</title>
<g id="a_node3"><a xlink:href="../../da/d69/vtranslatevars_8h.html" target="_top" xlink:title=" ">
<polygon fill="white" stroke="black" points="6000.5,-279.5 6000.5,-309.5 6107.5,-309.5 6107.5,-279.5 6000.5,-279.5"/>
<text text-anchor="start" x="6008.5" y="-297.5" font-family="Helvetica,sans-Serif" font-size="10.00">src/libs/vpatterndb</text>
<text text-anchor="middle" x="6054" y="-286.5" font-family="Helvetica,sans-Serif" font-size="10.00">/vtranslatevars.h</text>
</a>
</g>
</g>
<!-- Node1&#45;&gt;Node3 -->
<g id="edge2" class="edge">
<title>Node1&#45;&gt;Node3</title>
<path fill="none" stroke="midnightblue" d="M6179.21,-342.82C6151.57,-332.37 6117.04,-319.32 6091.25,-309.58"/>
<polygon fill="midnightblue" stroke="midnightblue" points="6178.09,-346.13 6188.68,-346.4 6180.56,-339.59 6178.09,-346.13"/>
</g>
<!-- Node29 -->
<g id="node25" class="node">
<title>Node29</title>
<g id="a_node25"><a xlink:href="../../de/d3e/vtranslatevars_8cpp.html" target="_top" xlink:title=" ">
<polygon fill="white" stroke="black" points="6287,-67.5 6287,-97.5 6397,-97.5 6397,-67.5 6287,-67.5"/>
<text text-anchor="start" x="6295" y="-85.5" font-family="Helvetica,sans-Serif" font-size="10.00">src/libs/vpatterndb</text>
<text text-anchor="middle" x="6342" y="-74.5" font-family="Helvetica,sans-Serif" font-size="10.00">/vtranslatevars.cpp</text>
</a>
</g>
</g>
<!-- Node1&#45;&gt;Node29 -->
<g id="edge61" class="edge">
<title>Node1&#45;&gt;Node29</title>
<path fill="none" stroke="midnightblue" d="M6235.85,-336.98C6259.21,-281.21 6317.38,-142.28 6336.1,-97.59"/>
<polygon fill="midnightblue" stroke="midnightblue" points="6232.55,-335.81 6231.91,-346.38 6239,-338.51 6232.55,-335.81"/>
</g>
<!-- Node68 -->
<g id="node50" class="node">
<title>Node68</title>
<g id="a_node50"><a xlink:href="../../d0/d50/vtranslatemeasurements_8cpp.html" target="_top" xlink:title=" ">
<polygon fill="white" stroke="black" points="6344.5,-279.5 6344.5,-309.5 6507.5,-309.5 6507.5,-279.5 6344.5,-279.5"/>
<text text-anchor="start" x="6352.5" y="-297.5" font-family="Helvetica,sans-Serif" font-size="10.00">src/libs/vpatterndb</text>
<text text-anchor="middle" x="6426" y="-286.5" font-family="Helvetica,sans-Serif" font-size="10.00">/vtranslatemeasurements.cpp</text>
</a>
</g>
</g>
<!-- Node1&#45;&gt;Node68 -->
<g id="edge62" class="edge">
<title>Node1&#45;&gt;Node68</title>
<path fill="none" stroke="midnightblue" d="M6279.15,-343.23C6311.5,-332.71 6352.31,-319.45 6382.69,-309.58"/>
<polygon fill="midnightblue" stroke="midnightblue" points="6277.83,-339.98 6269.4,-346.4 6279.99,-346.63 6277.83,-339.98"/>
</g>
<!-- Node4 -->
<g id="node4" class="node">
<title>Node4</title>
<g id="a_node4"><a xlink:href="../../d5/d74/vabstractapplication_8h.html" target="_top" xlink:title=" ">
<polygon fill="white" stroke="black" points="3613.5,-145.5 3613.5,-164.5 3808.5,-164.5 3808.5,-145.5 3613.5,-145.5"/>
<text text-anchor="middle" x="3711" y="-152.5" font-family="Helvetica,sans-Serif" font-size="10.00">src/libs/vmisc/vabstractapplication.h</text>
</a>
</g>
</g>
<!-- Node3&#45;&gt;Node4 -->
<g id="edge3" class="edge">
<title>Node3&#45;&gt;Node4</title>
<path fill="none" stroke="midnightblue" d="M5990.21,-279.07C5144.2,-160.7 4123.9,-154.21 3808.53,-155.28"/>
<polygon fill="midnightblue" stroke="midnightblue" points="5989.77,-282.54 6000.16,-280.47 5990.74,-275.61 5989.77,-282.54"/>
</g>
<!-- Node24 -->
<g id="node20" class="node">
<title>Node24</title>
<g id="a_node20"><a xlink:href="../../d6/d46/vcontainer_8cpp.html" target="_top" xlink:title=" ">
<polygon fill="white" stroke="black" points="6036.5,-67.5 6036.5,-97.5 6143.5,-97.5 6143.5,-67.5 6036.5,-67.5"/>
<text text-anchor="start" x="6044.5" y="-85.5" font-family="Helvetica,sans-Serif" font-size="10.00">src/libs/vpatterndb</text>
<text text-anchor="middle" x="6090" y="-74.5" font-family="Helvetica,sans-Serif" font-size="10.00">/vcontainer.cpp</text>
</a>
</g>
</g>
<!-- Node3&#45;&gt;Node24 -->
<g id="edge55" class="edge">
<title>Node3&#45;&gt;Node24</title>
<path fill="none" stroke="midnightblue" d="M5990.33,-279.14C5868.46,-260.51 5680.84,-302.83 5744,-212 5761.83,-186.35 5953.25,-125.22 6043.46,-97.54"/>
<polygon fill="midnightblue" stroke="midnightblue" points="5990,-282.64 6000.45,-280.86 5991.17,-275.73 5990,-282.64"/>
</g>
<!-- Node25 -->
<g id="node21" class="node">
<title>Node25</title>
<g id="a_node21"><a xlink:href="../../db/d11/vformula_8cpp.html" target="_top" xlink:title=" ">
<polygon fill="white" stroke="black" points="6161.5,-67.5 6161.5,-97.5 6268.5,-97.5 6268.5,-67.5 6161.5,-67.5"/>
<text text-anchor="start" x="6169.5" y="-85.5" font-family="Helvetica,sans-Serif" font-size="10.00">src/libs/vpatterndb</text>
<text text-anchor="middle" x="6215" y="-74.5" font-family="Helvetica,sans-Serif" font-size="10.00">/vformula.cpp</text>
</a>
</g>
</g>
<!-- Node3&#45;&gt;Node25 -->
<g id="edge56" class="edge">
<title>Node3&#45;&gt;Node25</title>
<path fill="none" stroke="midnightblue" d="M6117.89,-291.9C6154.36,-287.28 6197.4,-274.79 6221,-243 6253.7,-198.94 6232.23,-127.62 6220.82,-97.57"/>
<polygon fill="midnightblue" stroke="midnightblue" points="6117.36,-288.43 6107.8,-293 6118.12,-295.39 6117.36,-288.43"/>
</g>
<!-- Node3&#45;&gt;Node29 -->
<g id="edge57" class="edge">
<title>Node3&#45;&gt;Node29</title>
<path fill="none" stroke="midnightblue" d="M6117.66,-288.99C6156.98,-283.36 6206.53,-270.82 6242,-243 6285.52,-208.88 6271.39,-180.06 6302,-134 6310.54,-121.15 6321.5,-107.47 6329.78,-97.6"/>
<polygon fill="midnightblue" stroke="midnightblue" points="6117.09,-285.53 6107.63,-290.31 6118.01,-292.47 6117.09,-285.53"/>
</g>
<!-- Node45 -->
<g id="node41" class="node">
<title>Node45</title>
<g id="a_node41"><a xlink:href="../../d3/df7/vcontainer_8h.html" target="_top" xlink:title=" ">
<polygon fill="white" stroke="red" points="669.5,-212.5 669.5,-242.5 776.5,-242.5 776.5,-212.5 669.5,-212.5"/>
<text text-anchor="start" x="677.5" y="-230.5" font-family="Helvetica,sans-Serif" font-size="10.00">src/libs/vpatterndb</text>
<text text-anchor="middle" x="723" y="-219.5" font-family="Helvetica,sans-Serif" font-size="10.00">/vcontainer.h</text>
</a>
</g>
</g>
<!-- Node3&#45;&gt;Node45 -->
<g id="edge41" class="edge">
<title>Node3&#45;&gt;Node45</title>
<path fill="none" stroke="midnightblue" d="M5990.21,-279.28C5628.28,-246.35 1309.9,-230.52 776.85,-228.68"/>
<polygon fill="midnightblue" stroke="midnightblue" points="5989.87,-282.76 6000.18,-280.31 5990.59,-275.8 5989.87,-282.76"/>
</g>
<!-- Node65 -->
<g id="node47" class="node">
<title>Node65</title>
<g id="a_node47"><a xlink:href="../../df/de5/dialogspline_8cpp.html" target="_top" xlink:title=" ">
<polygon fill="white" stroke="black" points="5753,-212.5 5753,-242.5 5879,-242.5 5879,-212.5 5753,-212.5"/>
<text text-anchor="start" x="5761" y="-230.5" font-family="Helvetica,sans-Serif" font-size="10.00">src/libs/vtools/dialogs</text>
<text text-anchor="middle" x="5816" y="-219.5" font-family="Helvetica,sans-Serif" font-size="10.00">/tools/dialogspline.cpp</text>
</a>
</g>
</g>
<!-- Node3&#45;&gt;Node65 -->
<g id="edge58" class="edge">
<title>Node3&#45;&gt;Node65</title>
<path fill="none" stroke="midnightblue" d="M5992.54,-276.71C5953.81,-266.14 5904.37,-252.63 5867.67,-242.61"/>
<polygon fill="midnightblue" stroke="midnightblue" points="5992.08,-280.22 6002.65,-279.48 5993.93,-273.46 5992.08,-280.22"/>
</g>
<!-- Node66 -->
<g id="node48" class="node">
<title>Node66</title>
<g id="a_node48"><a xlink:href="../../dc/dc2/dialogsplinepath_8cpp.html" target="_top" xlink:title=" ">
<polygon fill="white" stroke="black" points="5897,-212.5 5897,-242.5 6045,-242.5 6045,-212.5 5897,-212.5"/>
<text text-anchor="start" x="5905" y="-230.5" font-family="Helvetica,sans-Serif" font-size="10.00">src/libs/vtools/dialogs</text>
<text text-anchor="middle" x="5971" y="-219.5" font-family="Helvetica,sans-Serif" font-size="10.00">/tools/dialogsplinepath.cpp</text>
</a>
</g>
</g>
<!-- Node3&#45;&gt;Node66 -->
<g id="edge59" class="edge">
<title>Node3&#45;&gt;Node66</title>
<path fill="none" stroke="midnightblue" d="M6028.04,-273.17C6015.35,-263.23 6000.39,-251.51 5988.97,-242.58"/>
<polygon fill="midnightblue" stroke="midnightblue" points="6025.96,-275.99 6035.99,-279.4 6030.28,-270.47 6025.96,-275.99"/>
</g>
<!-- Node67 -->
<g id="node49" class="node">
<title>Node67</title>
<g id="a_node49"><a xlink:href="../../d1/d75/vistoolendline_8cpp.html" target="_top" xlink:title=" ">
<polygon fill="white" stroke="black" points="6063.5,-212.5 6063.5,-242.5 6212.5,-242.5 6212.5,-212.5 6063.5,-212.5"/>
<text text-anchor="start" x="6071.5" y="-230.5" font-family="Helvetica,sans-Serif" font-size="10.00">src/libs/vtools/visualization</text>
<text text-anchor="middle" x="6138" y="-219.5" font-family="Helvetica,sans-Serif" font-size="10.00">/line/vistoolendline.cpp</text>
</a>
</g>
</g>
<!-- Node3&#45;&gt;Node67 -->
<g id="edge60" class="edge">
<title>Node3&#45;&gt;Node67</title>
<path fill="none" stroke="midnightblue" d="M6080.28,-273.17C6093.12,-263.23 6108.26,-251.51 6119.81,-242.58"/>
<polygon fill="midnightblue" stroke="midnightblue" points="6077.99,-270.51 6072.23,-279.4 6082.28,-276.04 6077.99,-270.51"/>
</g>
<!-- Node5 -->
<g id="node5" class="node">
<title>Node5</title>
<g id="a_node5"><a xlink:href="../../d4/d90/fvupdater_8cpp.html" target="_top" xlink:title=" ">
<polygon fill="white" stroke="black" points="4699.5,-73 4699.5,-92 4852.5,-92 4852.5,-73 4699.5,-73"/>
<text text-anchor="middle" x="4776" y="-80" font-family="Helvetica,sans-Serif" font-size="10.00">src/libs/fervor/fvupdater.cpp</text>
</a>
</g>
</g>
<!-- Node4&#45;&gt;Node5 -->
<g id="edge4" class="edge">
<title>Node4&#45;&gt;Node5</title>
<path fill="none" stroke="midnightblue" d="M3818.6,-151.71C3999.2,-147 4374.53,-133.51 4690,-98 4703.39,-96.49 4717.87,-94.28 4731.05,-92.04"/>
<polygon fill="midnightblue" stroke="midnightblue" points="3818.47,-148.21 3808.57,-151.97 3818.65,-155.21 3818.47,-148.21"/>
</g>
<!-- Node6 -->
<g id="node6" class="node">
<title>Node6</title>
<g id="a_node6"><a xlink:href="../../d9/dc8/dxiface_8cpp.html" target="_top" xlink:title=" ">
<polygon fill="white" stroke="black" points="4870.5,-73 4870.5,-92 5005.5,-92 5005.5,-73 4870.5,-73"/>
<text text-anchor="middle" x="4938" y="-80" font-family="Helvetica,sans-Serif" font-size="10.00">src/libs/vdxf/dxiface.cpp</text>
</a>
</g>
</g>
<!-- Node4&#45;&gt;Node6 -->
<g id="edge5" class="edge">
<title>Node4&#45;&gt;Node6</title>
<path fill="none" stroke="midnightblue" d="M3818.58,-150.65C4064.35,-142.7 4661.16,-121.57 4861,-98 4873.16,-96.57 4886.28,-94.35 4898.2,-92.07"/>
<polygon fill="midnightblue" stroke="midnightblue" points="3818.45,-147.16 3808.57,-150.98 3818.67,-154.15 3818.45,-147.16"/>
</g>
<!-- Node7 -->
<g id="node7" class="node">
<title>Node7</title>
<g id="a_node7"><a xlink:href="../../da/d75/vabstractarc__p_8h.html" target="_top" xlink:title=" ">
<polygon fill="white" stroke="red" points="5023.5,-67.5 5023.5,-97.5 5130.5,-97.5 5130.5,-67.5 5023.5,-67.5"/>
<text text-anchor="start" x="5031.5" y="-85.5" font-family="Helvetica,sans-Serif" font-size="10.00">src/libs/vgeometry</text>
<text text-anchor="middle" x="5077" y="-74.5" font-family="Helvetica,sans-Serif" font-size="10.00">/vabstractarc_p.h</text>
</a>
</g>
</g>
<!-- Node4&#45;&gt;Node7 -->
<g id="edge6" class="edge">
<title>Node4&#45;&gt;Node7</title>
<path fill="none" stroke="midnightblue" d="M3818.8,-150.5C4109.81,-140.9 4897.31,-113.8 5014,-98 5017,-97.59 5020.07,-97.11 5023.16,-96.57"/>
<polygon fill="midnightblue" stroke="midnightblue" points="3818.54,-147.01 3808.66,-150.84 3818.77,-154.01 3818.54,-147.01"/>
</g>
<!-- Node9 -->
<g id="node8" class="node">
<title>Node9</title>
<g id="a_node8"><a xlink:href="../../dc/da3/varc__p_8h.html" target="_top" xlink:title=" ">
<polygon fill="white" stroke="red" points="5148.5,-67.5 5148.5,-97.5 5255.5,-97.5 5255.5,-67.5 5148.5,-67.5"/>
<text text-anchor="start" x="5156.5" y="-85.5" font-family="Helvetica,sans-Serif" font-size="10.00">src/libs/vgeometry</text>
<text text-anchor="middle" x="5202" y="-74.5" font-family="Helvetica,sans-Serif" font-size="10.00">/varc_p.h</text>
</a>
</g>
</g>
<!-- Node4&#45;&gt;Node9 -->
<g id="edge7" class="edge">
<title>Node4&#45;&gt;Node9</title>
<path fill="none" stroke="midnightblue" d="M3818.92,-150.32C4140.47,-139.28 5073.94,-106.68 5139,-98 5142,-97.6 5145.07,-97.12 5148.17,-96.59"/>
<polygon fill="midnightblue" stroke="midnightblue" points="3818.53,-146.83 3808.66,-150.67 3818.77,-153.83 3818.53,-146.83"/>
</g>
<!-- Node11 -->
<g id="node9" class="node">
<title>Node11</title>
<g id="a_node9"><a xlink:href="../../d5/d8e/vcubicbezier__p_8h.html" target="_top" xlink:title=" ">
<polygon fill="white" stroke="red" points="5273.5,-67.5 5273.5,-97.5 5380.5,-97.5 5380.5,-67.5 5273.5,-67.5"/>
<text text-anchor="start" x="5281.5" y="-85.5" font-family="Helvetica,sans-Serif" font-size="10.00">src/libs/vgeometry</text>
<text text-anchor="middle" x="5327" y="-74.5" font-family="Helvetica,sans-Serif" font-size="10.00">/vcubicbezier_p.h</text>
</a>
</g>
</g>
<!-- Node4&#45;&gt;Node11 -->
<g id="edge8" class="edge">
<title>Node4&#45;&gt;Node11</title>
<path fill="none" stroke="midnightblue" d="M3818.74,-150.25C4167.79,-138.09 5246.07,-100.36 5264,-98 5267,-97.6 5270.08,-97.13 5273.17,-96.6"/>
<polygon fill="midnightblue" stroke="midnightblue" points="3818.5,-146.76 3808.63,-150.6 3818.75,-153.75 3818.5,-146.76"/>
</g>
<!-- Node13 -->
<g id="node10" class="node">
<title>Node13</title>
<g id="a_node10"><a xlink:href="../../df/dde/vellipticalarc__p_8h.html" target="_top" xlink:title=" ">
<polygon fill="white" stroke="black" points="5766.5,-67.5 5766.5,-97.5 5873.5,-97.5 5873.5,-67.5 5766.5,-67.5"/>
<text text-anchor="start" x="5774.5" y="-85.5" font-family="Helvetica,sans-Serif" font-size="10.00">src/libs/vgeometry</text>
<text text-anchor="middle" x="5820" y="-74.5" font-family="Helvetica,sans-Serif" font-size="10.00">/vellipticalarc_p.h</text>
</a>
</g>
</g>
<!-- Node4&#45;&gt;Node13 -->
<g id="edge9" class="edge">
<title>Node4&#45;&gt;Node13</title>
<path fill="none" stroke="midnightblue" d="M3818.76,-149.99C3935.76,-145.71 4128.13,-138.88 4294,-134 4619.29,-124.42 5435.2,-139.27 5758,-98 5760.74,-97.65 5763.54,-97.23 5766.35,-96.76"/>
<polygon fill="midnightblue" stroke="midnightblue" points="3818.59,-146.49 3808.73,-150.36 3818.85,-153.49 3818.59,-146.49"/>
</g>
<!-- Node14 -->
<g id="node11" class="node">
<title>Node14</title>
<g id="a_node11"><a xlink:href="../../d6/dfb/vellipticalarc_8cpp.html" target="_top" xlink:title=" ">
<polygon fill="white" stroke="black" points="5560.5,-0.5 5560.5,-30.5 5667.5,-30.5 5667.5,-0.5 5560.5,-0.5"/>
<text text-anchor="start" x="5568.5" y="-18.5" font-family="Helvetica,sans-Serif" font-size="10.00">src/libs/vgeometry</text>
<text text-anchor="middle" x="5614" y="-7.5" font-family="Helvetica,sans-Serif" font-size="10.00">/vellipticalarc.cpp</text>
</a>
</g>
</g>
<!-- Node4&#45;&gt;Node14 -->
<g id="edge11" class="edge">
<title>Node4&#45;&gt;Node14</title>
<path fill="none" stroke="midnightblue" d="M3818.77,-150.26C3935.78,-146.2 4128.16,-139.57 4294,-134 4415.66,-129.91 5274.74,-140 5389,-98 5409.78,-90.36 5408.24,-77 5428,-67 5469.95,-45.78 5521.88,-32.64 5560.2,-25.1"/>
<polygon fill="midnightblue" stroke="midnightblue" points="3818.61,-146.76 3808.74,-150.6 3818.85,-153.76 3818.61,-146.76"/>
</g>
<!-- Node15 -->
<g id="node12" class="node">
<title>Node15</title>
<g id="a_node12"><a xlink:href="../../d1/d76/vspline__p_8h.html" target="_top" xlink:title=" ">
<polygon fill="white" stroke="red" points="5437.5,-67.5 5437.5,-97.5 5544.5,-97.5 5544.5,-67.5 5437.5,-67.5"/>
<text text-anchor="start" x="5445.5" y="-85.5" font-family="Helvetica,sans-Serif" font-size="10.00">src/libs/vgeometry</text>
<text text-anchor="middle" x="5491" y="-74.5" font-family="Helvetica,sans-Serif" font-size="10.00">/vspline_p.h</text>
</a>
</g>
</g>
<!-- Node4&#45;&gt;Node15 -->
<g id="edge12" class="edge">
<title>Node4&#45;&gt;Node15</title>
<path fill="none" stroke="midnightblue" d="M3818.77,-150.22C3935.78,-146.14 4128.15,-139.49 4294,-134 4795.76,-117.39 4924.64,-158.59 5423,-98 5427.67,-97.43 5432.5,-96.7 5437.33,-95.87"/>
<polygon fill="midnightblue" stroke="midnightblue" points="3818.61,-146.73 3808.74,-150.58 3818.85,-153.72 3818.61,-146.73"/>
</g>
<!-- Node17 -->
<g id="node13" class="node">
<title>Node17</title>
<g id="a_node13"><a xlink:href="../../d9/d15/vabstractpiece_8cpp.html" target="_top" xlink:title=" ">
<polygon fill="white" stroke="black" points="5563,-73 5563,-92 5749,-92 5749,-73 5563,-73"/>
<text text-anchor="middle" x="5656" y="-80" font-family="Helvetica,sans-Serif" font-size="10.00">src/libs/vlayout/vabstractpiece.cpp</text>
</a>
</g>
</g>
<!-- Node4&#45;&gt;Node17 -->
<g id="edge13" class="edge">
<title>Node4&#45;&gt;Node17</title>
<path fill="none" stroke="midnightblue" d="M3818.77,-150.12C3935.77,-145.95 4128.14,-139.22 4294,-134 4853.51,-116.4 4995.2,-145.09 5553,-98 5569.55,-96.6 5587.51,-94.34 5603.73,-92.01"/>
<polygon fill="midnightblue" stroke="midnightblue" points="3818.6,-146.62 3808.73,-150.48 3818.85,-153.62 3818.6,-146.62"/>
</g>
<!-- Node18 -->
<g id="node14" class="node">
<title>Node18</title>
<g id="a_node14"><a xlink:href="../../dd/d70/vlayoutpiece_8cpp.html" target="_top" xlink:title=" ">
<polygon fill="white" stroke="black" points="882.5,-73 882.5,-92 1059.5,-92 1059.5,-73 882.5,-73"/>
<text text-anchor="middle" x="971" y="-80" font-family="Helvetica,sans-Serif" font-size="10.00">src/libs/vlayout/vlayoutpiece.cpp</text>
</a>
</g>
</g>
<!-- Node4&#45;&gt;Node18 -->
<g id="edge14" class="edge">
<title>Node4&#45;&gt;Node18</title>
<path fill="none" stroke="midnightblue" d="M3602.93,-153.55C3171.64,-151.45 1572.66,-140.89 1068,-98 1052.22,-96.66 1035.11,-94.38 1019.71,-92.02"/>
<polygon fill="midnightblue" stroke="midnightblue" points="3603.19,-157.05 3613.2,-153.6 3603.22,-150.05 3603.19,-157.05"/>
</g>
<!-- Node19 -->
<g id="node15" class="node">
<title>Node19</title>
<g id="a_node15"><a xlink:href="../../d8/d70/vtextmanager_8cpp.html" target="_top" xlink:title=" ">
<polygon fill="white" stroke="black" points="682,-73 682,-92 864,-92 864,-73 682,-73"/>
<text text-anchor="middle" x="773" y="-80" font-family="Helvetica,sans-Serif" font-size="10.00">src/libs/vlayout/vtextmanager.cpp</text>
</a>
</g>
</g>
<!-- Node4&#45;&gt;Node19 -->
<g id="edge15" class="edge">
<title>Node4&#45;&gt;Node19</title>
<path fill="none" stroke="midnightblue" d="M3603.31,-153.67C3152.91,-152 1418.32,-142.74 873,-98 856.74,-96.67 839.1,-94.39 823.22,-92.03"/>
<polygon fill="midnightblue" stroke="midnightblue" points="3603.38,-157.17 3613.39,-153.7 3603.4,-150.17 3603.38,-157.17"/>
</g>
<!-- Node20 -->
<g id="node16" class="node">
<title>Node20</title>
<g id="a_node16"><a xlink:href="../../db/d65/dialogexporttocsv_8cpp.html" target="_top" xlink:title=" ">
<polygon fill="white" stroke="black" points="5891.5,-67.5 5891.5,-97.5 6018.5,-97.5 6018.5,-67.5 5891.5,-67.5"/>
<text text-anchor="start" x="5899.5" y="-85.5" font-family="Helvetica,sans-Serif" font-size="10.00">src/libs/vmisc/dialogs</text>
<text text-anchor="middle" x="5955" y="-74.5" font-family="Helvetica,sans-Serif" font-size="10.00">/dialogexporttocsv.cpp</text>
</a>
</g>
</g>
<!-- Node4&#45;&gt;Node20 -->
<g id="edge16" class="edge">
<title>Node4&#45;&gt;Node20</title>
<path fill="none" stroke="midnightblue" d="M3818.76,-149.93C3935.76,-145.59 4128.13,-138.73 4294,-134 4646.84,-123.95 5531.13,-136.53 5882,-98 5885.08,-97.66 5888.23,-97.26 5891.4,-96.81"/>
<polygon fill="midnightblue" stroke="midnightblue" points="3818.59,-146.43 3808.73,-150.3 3818.85,-153.43 3818.59,-146.43"/>
</g>
<!-- Node21 -->
<g id="node17" class="node">
<title>Node21</title>
<g id="a_node17"><a xlink:href="../../d0/df6/vabstractapplication_8cpp.html" target="_top" xlink:title=" ">
<polygon fill="white" stroke="black" points="1203,-73 1203,-92 1409,-92 1409,-73 1203,-73"/>
<text text-anchor="middle" x="1306" y="-80" font-family="Helvetica,sans-Serif" font-size="10.00">src/libs/vmisc/vabstractapplication.cpp</text>
</a>
</g>
</g>
<!-- Node4&#45;&gt;Node21 -->
<g id="edge17" class="edge">
<title>Node4&#45;&gt;Node21</title>
<path fill="none" stroke="midnightblue" d="M3603.06,-152.86C3209.32,-148.47 1850.78,-131.21 1418,-98 1400.01,-96.62 1380.49,-94.36 1362.86,-92.03"/>
<polygon fill="midnightblue" stroke="midnightblue" points="3603.27,-156.36 3613.31,-152.97 3603.34,-149.36 3603.27,-156.36"/>
</g>
<!-- Node22 -->
<g id="node18" class="node">
<title>Node22</title>
<g id="a_node18"><a xlink:href="../../d6/d0b/def_8cpp.html" target="_top" xlink:title=" ">
<polygon fill="white" stroke="black" points="1427,-73 1427,-92 1549,-92 1549,-73 1427,-73"/>
<text text-anchor="middle" x="1488" y="-80" font-family="Helvetica,sans-Serif" font-size="10.00">src/libs/vmisc/def.cpp</text>
</a>
</g>
</g>
<!-- Node4&#45;&gt;Node22 -->
<g id="edge18" class="edge">
<title>Node4&#45;&gt;Node22</title>
<path fill="none" stroke="midnightblue" d="M3603.2,-153.74C3225.13,-152.42 1960.59,-144.56 1558,-98 1546.53,-96.67 1534.16,-94.4 1523.05,-92.04"/>
<polygon fill="midnightblue" stroke="midnightblue" points="3603.31,-157.24 3613.32,-153.77 3603.33,-150.24 3603.31,-157.24"/>
</g>
<!-- Node23 -->
<g id="node19" class="node">
<title>Node23</title>
<g id="a_node19"><a xlink:href="../../d4/d4f/pmsystems_8cpp.html" target="_top" xlink:title=" ">
<polygon fill="white" stroke="black" points="1567.5,-67.5 1567.5,-97.5 1674.5,-97.5 1674.5,-67.5 1567.5,-67.5"/>
<text text-anchor="start" x="1575.5" y="-85.5" font-family="Helvetica,sans-Serif" font-size="10.00">src/libs/vpatterndb</text>
<text text-anchor="middle" x="1621" y="-74.5" font-family="Helvetica,sans-Serif" font-size="10.00">/pmsystems.cpp</text>
</a>
</g>
</g>
<!-- Node4&#45;&gt;Node23 -->
<g id="edge19" class="edge">
<title>Node4&#45;&gt;Node23</title>
<path fill="none" stroke="midnightblue" d="M3603,-153.9C3239.07,-153.09 2059.36,-146.7 1683,-98 1680.26,-97.65 1677.46,-97.22 1674.65,-96.75"/>
<polygon fill="midnightblue" stroke="midnightblue" points="3603.26,-157.4 3613.27,-153.92 3603.28,-150.4 3603.26,-157.4"/>
</g>
<!-- Node4&#45;&gt;Node24 -->
<g id="edge20" class="edge">
<title>Node4&#45;&gt;Node24</title>
<path fill="none" stroke="midnightblue" d="M3818.76,-149.87C3935.76,-145.48 4128.12,-138.57 4294,-134 4679.05,-123.4 5644.74,-145.45 6027,-98 6030.01,-97.63 6033.08,-97.17 6036.17,-96.65"/>
<polygon fill="midnightblue" stroke="midnightblue" points="3818.59,-146.37 3808.73,-150.24 3818.85,-153.37 3818.59,-146.37"/>
</g>
<!-- Node4&#45;&gt;Node25 -->
<g id="edge21" class="edge">
<title>Node4&#45;&gt;Node25</title>
<path fill="none" stroke="midnightblue" d="M3818.95,-152.82C4260.8,-147.8 5919.02,-127.18 6152,-98 6155.01,-97.62 6158.08,-97.17 6161.17,-96.65"/>
<polygon fill="midnightblue" stroke="midnightblue" points="3818.7,-149.32 3808.74,-152.93 3818.78,-156.32 3818.7,-149.32"/>
</g>
<!-- Node26 -->
<g id="node22" class="node">
<title>Node26</title>
<g id="a_node22"><a xlink:href="../../df/d7a/vpiece_8cpp.html" target="_top" xlink:title=" ">
<polygon fill="white" stroke="black" points="556.5,-67.5 556.5,-97.5 663.5,-97.5 663.5,-67.5 556.5,-67.5"/>
<text text-anchor="start" x="564.5" y="-85.5" font-family="Helvetica,sans-Serif" font-size="10.00">src/libs/vpatterndb</text>
<text text-anchor="middle" x="610" y="-74.5" font-family="Helvetica,sans-Serif" font-size="10.00">/vpiece.cpp</text>
</a>
</g>
</g>
<!-- Node4&#45;&gt;Node26 -->
<g id="edge22" class="edge">
<title>Node4&#45;&gt;Node26</title>
<path fill="none" stroke="midnightblue" d="M3602.88,-153.34C3096.06,-150.06 967.86,-134.25 673,-98 669.99,-97.63 666.92,-97.18 663.83,-96.66"/>
<polygon fill="midnightblue" stroke="midnightblue" points="3603.09,-156.84 3613.11,-153.41 3603.13,-149.84 3603.09,-156.84"/>
</g>
<!-- Node27 -->
<g id="node23" class="node">
<title>Node27</title>
<g id="a_node23"><a xlink:href="../../df/dba/vpiecenode__p_8h.html" target="_top" xlink:title=" ">
<polygon fill="white" stroke="black" points="1077.5,-67.5 1077.5,-97.5 1184.5,-97.5 1184.5,-67.5 1077.5,-67.5"/>
<text text-anchor="start" x="1085.5" y="-85.5" font-family="Helvetica,sans-Serif" font-size="10.00">src/libs/vpatterndb</text>
<text text-anchor="middle" x="1131" y="-74.5" font-family="Helvetica,sans-Serif" font-size="10.00">/vpiecenode_p.h</text>
</a>
</g>
</g>
<!-- Node4&#45;&gt;Node27 -->
<g id="edge23" class="edge">
<title>Node4&#45;&gt;Node27</title>
<path fill="none" stroke="midnightblue" d="M3603.06,-152.9C3152.59,-148.12 1434.84,-128.08 1194,-98 1190.99,-97.62 1187.92,-97.17 1184.83,-96.65"/>
<polygon fill="midnightblue" stroke="midnightblue" points="3603.11,-156.4 3613.14,-153 3603.18,-149.4 3603.11,-156.4"/>
</g>
<!-- Node4&#45;&gt;Node29 -->
<g id="edge25" class="edge">
<title>Node4&#45;&gt;Node29</title>
<path fill="none" stroke="midnightblue" d="M3818.87,-154.48C4242.12,-155.95 5789.94,-157.05 6277,-98 6280.21,-97.61 6283.5,-97.13 6286.81,-96.59"/>
<polygon fill="midnightblue" stroke="midnightblue" points="3818.79,-150.98 3808.78,-154.45 3818.77,-157.98 3818.79,-150.98"/>
</g>
<!-- Node30 -->
<g id="node26" class="node">
<title>Node30</title>
<g id="a_node26"><a xlink:href="../../df/d40/export__format__combobox_8cpp.html" target="_top" xlink:title=" ">
<polygon fill="white" stroke="black" points="1692.5,-67.5 1692.5,-97.5 1825.5,-97.5 1825.5,-67.5 1692.5,-67.5"/>
<text text-anchor="start" x="1700.5" y="-85.5" font-family="Helvetica,sans-Serif" font-size="10.00">src/libs/vwidgets/export</text>
<text text-anchor="middle" x="1759" y="-74.5" font-family="Helvetica,sans-Serif" font-size="10.00">_format_combobox.cpp</text>
</a>
</g>
</g>
<!-- Node4&#45;&gt;Node30 -->
<g id="edge26" class="edge">
<title>Node4&#45;&gt;Node30</title>
<path fill="none" stroke="midnightblue" d="M3603.24,-153.03C3257.93,-149.58 2181.29,-135.96 1835,-98 1831.93,-97.66 1828.8,-97.27 1825.64,-96.83"/>
<polygon fill="midnightblue" stroke="midnightblue" points="3603.21,-156.53 3613.24,-153.13 3603.28,-149.53 3603.21,-156.53"/>
</g>
<!-- Node31 -->
<g id="node27" class="node">
<title>Node31</title>
<g id="a_node27"><a xlink:href="../../d3/d4f/mouse__coordinates_8cpp.html" target="_top" xlink:title=" ">
<polygon fill="white" stroke="black" points="1844,-67.5 1844,-97.5 1978,-97.5 1978,-67.5 1844,-67.5"/>
<text text-anchor="start" x="1852" y="-85.5" font-family="Helvetica,sans-Serif" font-size="10.00">src/libs/vwidgets/mouse</text>
<text text-anchor="middle" x="1911" y="-74.5" font-family="Helvetica,sans-Serif" font-size="10.00">_coordinates.cpp</text>
</a>
</g>
</g>
<!-- Node4&#45;&gt;Node31 -->
<g id="edge27" class="edge">
<title>Node4&#45;&gt;Node31</title>
<path fill="none" stroke="midnightblue" d="M3602.87,-152.7C3276.14,-148.41 2302.23,-132.98 1987,-98 1984.06,-97.67 1981.07,-97.3 1978.05,-96.88"/>
<polygon fill="midnightblue" stroke="midnightblue" points="3603.24,-156.2 3613.28,-152.83 3603.33,-149.2 3603.24,-156.2"/>
</g>
<!-- Node32 -->
<g id="node28" class="node">
<title>Node32</title>
<g id="a_node28"><a xlink:href="../../d2/d28/page__format__combobox_8cpp.html" target="_top" xlink:title=" ">
<polygon fill="white" stroke="black" points="1996.5,-67.5 1996.5,-97.5 2127.5,-97.5 2127.5,-67.5 1996.5,-67.5"/>
<text text-anchor="start" x="2004.5" y="-85.5" font-family="Helvetica,sans-Serif" font-size="10.00">src/libs/vwidgets/page</text>
<text text-anchor="middle" x="2062" y="-74.5" font-family="Helvetica,sans-Serif" font-size="10.00">_format_combobox.cpp</text>
</a>
</g>
</g>
<!-- Node4&#45;&gt;Node32 -->
<g id="edge28" class="edge">
<title>Node4&#45;&gt;Node32</title>
<path fill="none" stroke="midnightblue" d="M3603.23,-152.39C3296.26,-147.44 2421.06,-130.79 2136,-98 2133.27,-97.69 2130.49,-97.33 2127.68,-96.93"/>
<polygon fill="midnightblue" stroke="midnightblue" points="3603.42,-155.89 3613.47,-152.55 3603.53,-148.89 3603.42,-155.89"/>
</g>
<!-- Node33 -->
<g id="node29" class="node">
<title>Node33</title>
<g id="a_node29"><a xlink:href="../../d7/d1b/pen__toolbar_8cpp.html" target="_top" xlink:title=" ">
<polygon fill="white" stroke="black" points="2145.5,-67.5 2145.5,-97.5 2264.5,-97.5 2264.5,-67.5 2145.5,-67.5"/>
<text text-anchor="start" x="2153.5" y="-85.5" font-family="Helvetica,sans-Serif" font-size="10.00">src/libs/vwidgets/pen</text>
<text text-anchor="middle" x="2205" y="-74.5" font-family="Helvetica,sans-Serif" font-size="10.00">_toolbar.cpp</text>
</a>
</g>
</g>
<!-- Node4&#45;&gt;Node33 -->
<g id="edge29" class="edge">
<title>Node4&#45;&gt;Node33</title>
<path fill="none" stroke="midnightblue" d="M3603.4,-152.15C3315.32,-146.83 2531.04,-129.79 2274,-98 2270.96,-97.62 2267.86,-97.18 2264.74,-96.69"/>
<polygon fill="midnightblue" stroke="midnightblue" points="3603.37,-155.65 3613.43,-152.34 3603.5,-148.65 3603.37,-155.65"/>
</g>
<!-- Node34 -->
<g id="node30" class="node">
<title>Node34</title>
<g id="a_node30"><a xlink:href="../../d8/d76/scene__rect_8cpp.html" target="_top" xlink:title=" ">
<polygon fill="white" stroke="black" points="2283,-67.5 2283,-97.5 2413,-97.5 2413,-67.5 2283,-67.5"/>
<text text-anchor="start" x="2291" y="-85.5" font-family="Helvetica,sans-Serif" font-size="10.00">src/libs/vwidgets/scene</text>
<text text-anchor="middle" x="2348" y="-74.5" font-family="Helvetica,sans-Serif" font-size="10.00">_rect.cpp</text>
</a>
</g>
</g>
<!-- Node4&#45;&gt;Node34 -->
<g id="edge30" class="edge">
<title>Node4&#45;&gt;Node34</title>
<path fill="none" stroke="midnightblue" d="M3603.15,-154.76C3381.22,-155.14 2857.65,-149.85 2422,-98 2419.14,-97.66 2416.23,-97.27 2413.29,-96.84"/>
<polygon fill="midnightblue" stroke="midnightblue" points="3603.18,-158.26 3613.17,-154.74 3603.16,-151.26 3603.18,-158.26"/>
</g>
<!-- Node35 -->
<g id="node31" class="node">
<title>Node35</title>
<g id="a_node31"><a xlink:href="../../dd/df6/vabstractmainwindow_8cpp.html" target="_top" xlink:title=" ">
<polygon fill="white" stroke="black" points="2431.5,-73 2431.5,-92 2660.5,-92 2660.5,-73 2431.5,-73"/>
<text text-anchor="middle" x="2546" y="-80" font-family="Helvetica,sans-Serif" font-size="10.00">src/libs/vwidgets/vabstractmainwindow.cpp</text>
</a>
</g>
</g>
<!-- Node4&#45;&gt;Node35 -->
<g id="edge31" class="edge">
<title>Node4&#45;&gt;Node35</title>
<path fill="none" stroke="midnightblue" d="M3602.93,-150.46C3413.51,-143.75 3009.3,-127.17 2669,-98 2650.36,-96.4 2630.19,-94.22 2611.67,-92.03"/>
<polygon fill="midnightblue" stroke="midnightblue" points="3603.05,-153.97 3613.17,-150.82 3603.3,-146.97 3603.05,-153.97"/>
</g>
<!-- Node36 -->
<g id="node32" class="node">
<title>Node36</title>
<g id="a_node32"><a xlink:href="../../de/d45/vcontrolpointspline_8cpp.html" target="_top" xlink:title=" ">
<polygon fill="white" stroke="black" points="2678.5,-73 2678.5,-92 2893.5,-92 2893.5,-73 2678.5,-73"/>
<text text-anchor="middle" x="2786" y="-80" font-family="Helvetica,sans-Serif" font-size="10.00">src/libs/vwidgets/vcontrolpointspline.cpp</text>
</a>
</g>
</g>
<!-- Node4&#45;&gt;Node36 -->
<g id="edge32" class="edge">
<title>Node4&#45;&gt;Node36</title>
<path fill="none" stroke="midnightblue" d="M3603.22,-148.39C3448.17,-139.89 3153.29,-122.16 2903,-98 2885.68,-96.33 2866.97,-94.17 2849.69,-92.03"/>
<polygon fill="midnightblue" stroke="midnightblue" points="3603.05,-151.88 3613.22,-148.93 3603.43,-144.9 3603.05,-151.88"/>
</g>
<!-- Node37 -->
<g id="node33" class="node">
<title>Node37</title>
<g id="a_node33"><a xlink:href="../../de/dec/vgraphicssimpletextitem_8cpp.html" target="_top" xlink:title=" ">
<polygon fill="white" stroke="black" points="2912,-73 2912,-92 3156,-92 3156,-73 2912,-73"/>
<text text-anchor="middle" x="3034" y="-80" font-family="Helvetica,sans-Serif" font-size="10.00">src/libs/vwidgets/vgraphicssimpletextitem.cpp</text>
</a>
</g>
</g>
<!-- Node4&#45;&gt;Node37 -->
<g id="edge33" class="edge">
<title>Node4&#45;&gt;Node37</title>
<path fill="none" stroke="midnightblue" d="M3615.88,-144.48C3506.92,-133.52 3323.04,-114.85 3165,-98 3147.25,-96.11 3128.16,-94.02 3110.19,-92.04"/>
<polygon fill="midnightblue" stroke="midnightblue" points="3615.56,-147.96 3625.86,-145.48 3616.26,-141 3615.56,-147.96"/>
</g>
<!-- Node38 -->
<g id="node34" class="node">
<title>Node38</title>
<g id="a_node34"><a xlink:href="../../d1/d90/vgrainlineitem_8cpp.html" target="_top" xlink:title=" ">
<polygon fill="white" stroke="black" points="3174.5,-73 3174.5,-92 3367.5,-92 3367.5,-73 3174.5,-73"/>
<text text-anchor="middle" x="3271" y="-80" font-family="Helvetica,sans-Serif" font-size="10.00">src/libs/vwidgets/vgrainlineitem.cpp</text>
</a>
</g>
</g>
<!-- Node4&#45;&gt;Node38 -->
<g id="edge34" class="edge">
<title>Node4&#45;&gt;Node38</title>
<path fill="none" stroke="midnightblue" d="M3647.92,-143.89C3560.95,-129.96 3405.73,-105.09 3324.26,-92.03"/>
<polygon fill="midnightblue" stroke="midnightblue" points="3647.5,-147.37 3657.93,-145.5 3648.61,-140.46 3647.5,-147.37"/>
</g>
<!-- Node39 -->
<g id="node35" class="node">
<title>Node39</title>
<g id="a_node35"><a xlink:href="../../d2/d31/vmaingraphicsview_8cpp.html" target="_top" xlink:title=" ">
<polygon fill="white" stroke="black" points="3386,-73 3386,-92 3602,-92 3602,-73 3386,-73"/>
<text text-anchor="middle" x="3494" y="-80" font-family="Helvetica,sans-Serif" font-size="10.00">src/libs/vwidgets/vmaingraphicsview.cpp</text>
</a>
</g>
</g>
<!-- Node4&#45;&gt;Node39 -->
<g id="edge35" class="edge">
<title>Node4&#45;&gt;Node39</title>
<path fill="none" stroke="midnightblue" d="M3675.2,-142.37C3631.6,-128.21 3559.02,-104.62 3520.27,-92.03"/>
<polygon fill="midnightblue" stroke="midnightblue" points="3674.23,-145.73 3684.82,-145.5 3676.4,-139.08 3674.23,-145.73"/>
</g>
<!-- Node40 -->
<g id="node36" class="node">
<title>Node40</title>
<g id="a_node36"><a xlink:href="../../d0/d5d/vscenepoint_8cpp.html" target="_top" xlink:title=" ">
<polygon fill="white" stroke="black" points="3620.5,-73 3620.5,-92 3801.5,-92 3801.5,-73 3620.5,-73"/>
<text text-anchor="middle" x="3711" y="-80" font-family="Helvetica,sans-Serif" font-size="10.00">src/libs/vwidgets/vscenepoint.cpp</text>
</a>
</g>
</g>
<!-- Node4&#45;&gt;Node40 -->
<g id="edge36" class="edge">
<title>Node4&#45;&gt;Node40</title>
<path fill="none" stroke="midnightblue" d="M3711,-134.94C3711,-121.03 3711,-102.82 3711,-92.22"/>
<polygon fill="midnightblue" stroke="midnightblue" points="3707.5,-135.36 3711,-145.36 3714.5,-135.36 3707.5,-135.36"/>
</g>
<!-- Node41 -->
<g id="node37" class="node">
<title>Node41</title>
<g id="a_node37"><a xlink:href="../../d1/d88/vmaingraphicsscene_8cpp.html" target="_top" xlink:title=" ">
<polygon fill="white" stroke="black" points="3820,-73 3820,-92 4042,-92 4042,-73 3820,-73"/>
<text text-anchor="middle" x="3931" y="-80" font-family="Helvetica,sans-Serif" font-size="10.00">src/libs/vwidgets/vmaingraphicsscene.cpp</text>
</a>
</g>
</g>
<!-- Node4&#45;&gt;Node41 -->
<g id="edge37" class="edge">
<title>Node4&#45;&gt;Node41</title>
<path fill="none" stroke="midnightblue" d="M3747.3,-142.37C3791.49,-128.21 3865.08,-104.62 3904.37,-92.03"/>
<polygon fill="midnightblue" stroke="midnightblue" points="3745.99,-139.11 3737.54,-145.5 3748.13,-145.78 3745.99,-139.11"/>
</g>
<!-- Node42 -->
<g id="node38" class="node">
<title>Node42</title>
<g id="a_node38"><a xlink:href="../../df/d38/vsimplepoint_8cpp.html" target="_top" xlink:title=" ">
<polygon fill="white" stroke="black" points="4060.5,-73 4060.5,-92 4245.5,-92 4245.5,-73 4060.5,-73"/>
<text text-anchor="middle" x="4153" y="-80" font-family="Helvetica,sans-Serif" font-size="10.00">src/libs/vwidgets/vsimplepoint.cpp</text>
</a>
</g>
</g>
<!-- Node4&#45;&gt;Node42 -->
<g id="edge38" class="edge">
<title>Node4&#45;&gt;Node42</title>
<path fill="none" stroke="midnightblue" d="M3774.36,-143.89C3861.73,-129.96 4017.66,-105.09 4099.5,-92.03"/>
<polygon fill="midnightblue" stroke="midnightblue" points="3773.64,-140.46 3764.32,-145.5 3774.74,-147.38 3773.64,-140.46"/>
</g>
<!-- Node43 -->
<g id="node39" class="node">
<title>Node43</title>
<g id="a_node39"><a xlink:href="../../de/d22/vsimplecurve_8cpp.html" target="_top" xlink:title=" ">
<polygon fill="white" stroke="black" points="4264,-73 4264,-92 4452,-92 4452,-73 4264,-73"/>
<text text-anchor="middle" x="4358" y="-80" font-family="Helvetica,sans-Serif" font-size="10.00">src/libs/vwidgets/vsimplecurve.cpp</text>
</a>
</g>
</g>
<!-- Node4&#45;&gt;Node43 -->
<g id="edge39" class="edge">
<title>Node4&#45;&gt;Node43</title>
<path fill="none" stroke="midnightblue" d="M3813.38,-144.54C3922.63,-134.19 4100.73,-116.58 4254,-98 4268.75,-96.21 4284.65,-94.09 4299.47,-92.03"/>
<polygon fill="midnightblue" stroke="midnightblue" points="3812.97,-141.07 3803.35,-145.49 3813.63,-148.03 3812.97,-141.07"/>
</g>
<!-- Node44 -->
<g id="node40" class="node">
<title>Node44</title>
<g id="a_node40"><a xlink:href="../../df/df5/vtextgraphicsitem_8cpp.html" target="_top" xlink:title=" ">
<polygon fill="white" stroke="black" points="4470.5,-73 4470.5,-92 4681.5,-92 4681.5,-73 4470.5,-73"/>
<text text-anchor="middle" x="4576" y="-80" font-family="Helvetica,sans-Serif" font-size="10.00">src/libs/vwidgets/vtextgraphicsitem.cpp</text>
</a>
</g>
</g>
<!-- Node4&#45;&gt;Node44 -->
<g id="edge40" class="edge">
<title>Node4&#45;&gt;Node44</title>
<path fill="none" stroke="midnightblue" d="M3818.81,-147.68C3964.64,-138.74 4232.79,-120.89 4461,-98 4477.92,-96.3 4496.2,-94.15 4513.1,-92.02"/>
<polygon fill="midnightblue" stroke="midnightblue" points="3818.29,-144.2 3808.52,-148.31 3818.72,-151.19 3818.29,-144.2"/>
</g>
<!-- Node13&#45;&gt;Node14 -->
<g id="edge10" class="edge">
<title>Node13&#45;&gt;Node14</title>
<path fill="none" stroke="midnightblue" d="M5765.95,-64.44C5732.55,-53.91 5690.22,-40.55 5658.72,-30.61"/>
<polygon fill="midnightblue" stroke="midnightblue" points="5764.96,-67.8 5775.55,-67.48 5767.07,-61.13 5764.96,-67.8"/>
</g>
<!-- Node28 -->
<g id="node24" class="node">
<title>Node28</title>
<g id="a_node24"><a xlink:href="../../d8/dba/vpiecenode_8cpp.html" target="_top" xlink:title=" ">
<polygon fill="white" stroke="black" points="776.5,-0.5 776.5,-30.5 883.5,-30.5 883.5,-0.5 776.5,-0.5"/>
<text text-anchor="start" x="784.5" y="-18.5" font-family="Helvetica,sans-Serif" font-size="10.00">src/libs/vpatterndb</text>
<text text-anchor="middle" x="830" y="-7.5" font-family="Helvetica,sans-Serif" font-size="10.00">/vpiecenode.cpp</text>
</a>
</g>
</g>
<!-- Node27&#45;&gt;Node28 -->
<g id="edge24" class="edge">
<title>Node27&#45;&gt;Node28</title>
<path fill="none" stroke="midnightblue" d="M1067.63,-66.94C998.42,-51.68 930.04,-37.28 883.94,-27.67"/>
<polygon fill="midnightblue" stroke="midnightblue" points="1066.88,-70.36 1077.4,-69.1 1068.39,-63.52 1066.88,-70.36"/>
</g>
<!-- Node45&#45;&gt;Node4 -->
<g id="edge48" class="edge">
<title>Node45&#45;&gt;Node4</title>
<path fill="none" stroke="midnightblue" d="M786.81,-224.99C1168.52,-215.99 3148.96,-169.26 3613.44,-158.3"/>
<polygon fill="midnightblue" stroke="midnightblue" points="786.68,-221.5 776.77,-225.23 786.85,-228.49 786.68,-221.5"/>
</g>
<!-- Node45&#45;&gt;Node19 -->
<g id="edge47" class="edge">
<title>Node45&#45;&gt;Node19</title>
<path fill="none" stroke="midnightblue" d="M731.33,-202.66C742.66,-170.27 762.37,-113.9 769.93,-92.28"/>
<polygon fill="midnightblue" stroke="midnightblue" points="727.97,-201.67 727.98,-212.27 734.58,-203.98 727.97,-201.67"/>
</g>
<!-- Node45&#45;&gt;Node24 -->
<g id="edge51" class="edge">
<title>Node45&#45;&gt;Node24</title>
<path fill="none" stroke="midnightblue" d="M787.09,-225.91C1110.87,-222.81 2599.05,-207.43 3817,-176 3939.81,-172.83 5905.19,-114.02 6027,-98 6030,-97.6 6033.08,-97.13 6036.17,-96.6"/>
<polygon fill="midnightblue" stroke="midnightblue" points="786.92,-222.41 776.96,-226 786.99,-229.41 786.92,-222.41"/>
</g>
<!-- Node45&#45;&gt;Node25 -->
<g id="edge52" class="edge">
<title>Node45&#45;&gt;Node25</title>
<path fill="none" stroke="midnightblue" d="M786.8,-226.43C1148.85,-225.88 2981.72,-220.91 4478,-176 5222.47,-153.66 5414.11,-199.27 6152,-98 6155,-97.59 6158.07,-97.1 6161.16,-96.56"/>
<polygon fill="midnightblue" stroke="midnightblue" points="786.77,-222.93 776.77,-226.45 786.78,-229.93 786.77,-222.93"/>
</g>
<!-- Node45&#45;&gt;Node26 -->
<g id="edge54" class="edge">
<title>Node45&#45;&gt;Node26</title>
<path fill="none" stroke="midnightblue" d="M705.33,-204.14C681.81,-174.37 640.88,-122.58 621.2,-97.68"/>
<polygon fill="midnightblue" stroke="midnightblue" points="702.81,-206.59 711.75,-212.27 708.3,-202.25 702.81,-206.59"/>
</g>
<!-- Node45&#45;&gt;Node28 -->
<g id="edge53" class="edge">
<title>Node45&#45;&gt;Node28</title>
<path fill="none" stroke="midnightblue" d="M675.09,-208.56C607.87,-180.76 498.87,-124.48 547,-67 575.68,-32.75 702.61,-21.71 776.38,-18.16"/>
<polygon fill="midnightblue" stroke="midnightblue" points="674.1,-211.93 684.68,-212.45 676.73,-205.45 674.1,-211.93"/>
</g>
<!-- Node46 -->
<g id="node42" class="node">
<title>Node46</title>
<g id="a_node42"><a xlink:href="../../dc/db7/measurements_8h.html" target="_top" xlink:title=" ">
<polygon fill="white" stroke="black" points="315.5,-145.5 315.5,-164.5 494.5,-164.5 494.5,-145.5 315.5,-145.5"/>
<text text-anchor="middle" x="405" y="-152.5" font-family="Helvetica,sans-Serif" font-size="10.00">src/libs/vformat/measurements.h</text>
</a>
</g>
</g>
<!-- Node45&#45;&gt;Node46 -->
<g id="edge42" class="edge">
<title>Node45&#45;&gt;Node46</title>
<path fill="none" stroke="midnightblue" d="M659.37,-212.39C594.95,-198.11 497.4,-176.49 443.76,-164.59"/>
<polygon fill="midnightblue" stroke="midnightblue" points="658.89,-215.87 669.42,-214.62 660.41,-209.04 658.89,-215.87"/>
</g>
<!-- Node47 -->
<g id="node43" class="node">
<title>Node47</title>
<g id="a_node43"><a xlink:href="../../d9/de3/measurements_8cpp.html" target="_top" xlink:title=" ">
<polygon fill="white" stroke="black" points="310,-73 310,-92 500,-92 500,-73 310,-73"/>
<text text-anchor="middle" x="405" y="-80" font-family="Helvetica,sans-Serif" font-size="10.00">src/libs/vformat/measurements.cpp</text>
</a>
</g>
</g>
<!-- Node45&#45;&gt;Node47 -->
<g id="edge44" class="edge">
<title>Node45&#45;&gt;Node47</title>
<path fill="none" stroke="midnightblue" d="M659.11,-215.92C624.34,-208.3 581.51,-195.79 547,-176 523.55,-162.55 525.02,-149.69 503,-134 478.21,-116.34 446.41,-101.14 425.87,-92.15"/>
<polygon fill="midnightblue" stroke="midnightblue" points="658.64,-219.4 669.15,-218.04 660.09,-212.55 658.64,-219.4"/>
</g>
<!-- Node48 -->
<g id="node44" class="node">
<title>Node48</title>
<g id="a_node44"><a xlink:href="../../d6/de0/vlayoutpiece_8h.html" target="_top" xlink:title=" ">
<polygon fill="white" stroke="red" points="845,-145.5 845,-164.5 1011,-164.5 1011,-145.5 845,-145.5"/>
<text text-anchor="middle" x="928" y="-152.5" font-family="Helvetica,sans-Serif" font-size="10.00">src/libs/vlayout/vlayoutpiece.h</text>
</a>
</g>
</g>
<!-- Node45&#45;&gt;Node48 -->
<g id="edge45" class="edge">
<title>Node45&#45;&gt;Node48</title>
<path fill="none" stroke="midnightblue" d="M773.59,-209.1C814.79,-194.93 871.2,-175.54 903.19,-164.53"/>
<polygon fill="midnightblue" stroke="midnightblue" points="772.31,-205.84 763.99,-212.4 774.59,-212.46 772.31,-205.84"/>
</g>
<!-- Node57 -->
<g id="node45" class="node">
<title>Node57</title>
<g id="a_node45"><a xlink:href="../../d7/d8a/measurement__variable__p_8h.html" target="_top" xlink:title=" ">
<polygon fill="white" stroke="red" points="0,-134.5 0,-175.5 136,-175.5 136,-134.5 0,-134.5"/>
<text text-anchor="start" x="8" y="-163.5" font-family="Helvetica,sans-Serif" font-size="10.00">src/libs/vpatterndb</text>
<text text-anchor="start" x="8" y="-152.5" font-family="Helvetica,sans-Serif" font-size="10.00">/variables/measurement</text>
<text text-anchor="middle" x="68" y="-141.5" font-family="Helvetica,sans-Serif" font-size="10.00">_variable_p.h</text>
</a>
</g>
</g>
<!-- Node45&#45;&gt;Node57 -->
<g id="edge49" class="edge">
<title>Node45&#45;&gt;Node57</title>
<path fill="none" stroke="midnightblue" d="M658.91,-224.39C551.8,-220.1 329.93,-207.87 145,-176 142.14,-175.51 139.23,-174.96 136.3,-174.37"/>
<polygon fill="midnightblue" stroke="midnightblue" points="659.1,-227.9 669.23,-224.8 659.37,-220.91 659.1,-227.9"/>
</g>
<!-- Node59 -->
<g id="node46" class="node">
<title>Node59</title>
<g id="a_node46"><a xlink:href="../../d1/de1/vincrement__p_8h.html" target="_top" xlink:title=" ">
<polygon fill="white" stroke="red" points="154.5,-140 154.5,-170 297.5,-170 297.5,-140 154.5,-140"/>
<text text-anchor="start" x="162.5" y="-158" font-family="Helvetica,sans-Serif" font-size="10.00">src/libs/vpatterndb</text>
<text text-anchor="middle" x="226" y="-147" font-family="Helvetica,sans-Serif" font-size="10.00">/variables/vincrement_p.h</text>
</a>
</g>
</g>
<!-- Node45&#45;&gt;Node59 -->
<g id="edge50" class="edge">
<title>Node45&#45;&gt;Node59</title>
<path fill="none" stroke="midnightblue" d="M659.18,-221.26C577.04,-213.95 430.13,-198.94 306,-176 296.99,-174.33 287.49,-172.25 278.3,-170.07"/>
<polygon fill="midnightblue" stroke="midnightblue" points="659.09,-224.76 669.36,-222.16 659.7,-217.79 659.09,-224.76"/>
</g>
<!-- Node46&#45;&gt;Node47 -->
<g id="edge43" class="edge">
<title>Node46&#45;&gt;Node47</title>
<path fill="none" stroke="midnightblue" d="M405,-134.94C405,-121.03 405,-102.82 405,-92.22"/>
<polygon fill="midnightblue" stroke="midnightblue" points="401.5,-135.36 405,-145.36 408.5,-135.36 401.5,-135.36"/>
</g>
<!-- Node48&#45;&gt;Node18 -->
<g id="edge46" class="edge">
<title>Node48&#45;&gt;Node18</title>
<path fill="none" stroke="midnightblue" d="M938.62,-136.59C947.21,-122.5 958.96,-103.24 965.68,-92.22"/>
<polygon fill="midnightblue" stroke="midnightblue" points="935.49,-135 933.27,-145.36 941.47,-138.64 935.49,-135"/>
</g>
</g>
</svg>
