<?xml version="1.0" encoding="UTF-8" standalone="no"?>
<!DOCTYPE svg PUBLIC "-//W3C//DTD SVG 1.1//EN"
 "http://www.w3.org/Graphics/SVG/1.1/DTD/svg11.dtd">
<!-- Generated by graphviz version 2.43.0 (0)
 -->
<!-- Title: src/app/seamly2d/dialogs/layoutsettings_dialog.h Pages: 1 -->
<svg width="4020pt" height="240pt"
 viewBox="0.00 0.00 4019.50 240.00" xmlns="http://www.w3.org/2000/svg" xmlns:xlink="http://www.w3.org/1999/xlink">
<g id="graph0" class="graph" transform="scale(1 1) rotate(0) translate(4 236)">
<title>src/app/seamly2d/dialogs/layoutsettings_dialog.h</title>
<polygon fill="white" stroke="transparent" points="-4,4 -4,-236 4015.5,-236 4015.5,4 -4,4"/>
<!-- Node1 -->
<g id="node1" class="node">
<title>Node1</title>
<g id="a_node1"><a xlink:title=" ">
<polygon fill="#bfbfbf" stroke="black" points="2654.5,-201.5 2654.5,-231.5 2795.5,-231.5 2795.5,-201.5 2654.5,-201.5"/>
<text text-anchor="start" x="2662.5" y="-219.5" font-family="Helvetica,sans-Serif" font-size="10.00">src/app/seamly2d/dialogs</text>
<text text-anchor="middle" x="2725" y="-208.5" font-family="Helvetica,sans-Serif" font-size="10.00">/layoutsettings_dialog.h</text>
</a>
</g>
</g>
<!-- Node2 -->
<g id="node2" class="node">
<title>Node2</title>
<g id="a_node2"><a xlink:href="../../dd/d57/vcmdexport_8h.html" target="_top" xlink:title=" ">
<polygon fill="white" stroke="black" points="2497.5,-134.5 2497.5,-164.5 2624.5,-164.5 2624.5,-134.5 2497.5,-134.5"/>
<text text-anchor="start" x="2505.5" y="-152.5" font-family="Helvetica,sans-Serif" font-size="10.00">src/app/seamly2d/core</text>
<text text-anchor="middle" x="2561" y="-141.5" font-family="Helvetica,sans-Serif" font-size="10.00">/vcmdexport.h</text>
</a>
</g>
</g>
<!-- Node1&#45;&gt;Node2 -->
<g id="edge1" class="edge">
<title>Node1&#45;&gt;Node2</title>
<path fill="none" stroke="midnightblue" d="M2680.04,-197.68C2653.74,-187.26 2621,-174.28 2596.52,-164.58"/>
<polygon fill="midnightblue" stroke="midnightblue" points="2678.83,-200.97 2689.41,-201.4 2681.41,-194.46 2678.83,-200.97"/>
</g>
<!-- Node18 -->
<g id="node18" class="node">
<title>Node18</title>
<g id="a_node18"><a xlink:href="../../d0/dfa/layoutsettings__dialog_8cpp.html" target="_top" xlink:title=" ">
<polygon fill="white" stroke="black" points="3627.5,-0.5 3627.5,-30.5 3772.5,-30.5 3772.5,-0.5 3627.5,-0.5"/>
<text text-anchor="start" x="3635.5" y="-18.5" font-family="Helvetica,sans-Serif" font-size="10.00">src/app/seamly2d/dialogs</text>
<text text-anchor="middle" x="3700" y="-7.5" font-family="Helvetica,sans-Serif" font-size="10.00">/layoutsettings_dialog.cpp</text>
</a>
</g>
</g>
<!-- Node1&#45;&gt;Node18 -->
<g id="edge31" class="edge">
<title>Node1&#45;&gt;Node18</title>
<path fill="none" stroke="midnightblue" d="M2803.95,-199.39C2990.4,-161.33 3455.5,-66.4 3631.27,-30.53"/>
<polygon fill="midnightblue" stroke="midnightblue" points="2803.05,-196 2793.95,-201.43 2804.45,-202.86 2803.05,-196"/>
</g>
<!-- Node23 -->
<g id="node23" class="node">
<title>Node23</title>
<g id="a_node23"><a xlink:href="../../d8/de8/mainwindowsnogui_8cpp.html" target="_top" xlink:title=" ">
<polygon fill="white" stroke="black" points="3790.5,-6 3790.5,-25 4011.5,-25 4011.5,-6 3790.5,-6"/>
<text text-anchor="middle" x="3901" y="-13" font-family="Helvetica,sans-Serif" font-size="10.00">src/app/seamly2d/mainwindowsnogui.cpp</text>
</a>
</g>
</g>
<!-- Node1&#45;&gt;Node23 -->
<g id="edge32" class="edge">
<title>Node1&#45;&gt;Node23</title>
<path fill="none" stroke="midnightblue" d="M2805.94,-204.03C2874.48,-194.18 2975.28,-179.32 3063,-165 3365.94,-115.54 3729.08,-48.56 3855.2,-25.07"/>
<polygon fill="midnightblue" stroke="midnightblue" points="2805.05,-200.63 2795.65,-205.51 2806.05,-207.56 2805.05,-200.63"/>
</g>
<!-- Node26 -->
<g id="node26" class="node">
<title>Node26</title>
<g id="a_node26"><a xlink:href="../../df/d9b/vcmdexport_8cpp.html" target="_top" xlink:title=" ">
<polygon fill="white" stroke="black" points="2556.5,-67.5 2556.5,-97.5 2683.5,-97.5 2683.5,-67.5 2556.5,-67.5"/>
<text text-anchor="start" x="2564.5" y="-85.5" font-family="Helvetica,sans-Serif" font-size="10.00">src/app/seamly2d/core</text>
<text text-anchor="middle" x="2620" y="-74.5" font-family="Helvetica,sans-Serif" font-size="10.00">/vcmdexport.cpp</text>
</a>
</g>
</g>
<!-- Node1&#45;&gt;Node26 -->
<g id="edge30" class="edge">
<title>Node1&#45;&gt;Node26</title>
<path fill="none" stroke="midnightblue" d="M2707.53,-193.54C2685.83,-166.25 2649.42,-120.48 2631.16,-97.52"/>
<polygon fill="midnightblue" stroke="midnightblue" points="2704.8,-195.73 2713.76,-201.37 2710.28,-191.37 2704.8,-195.73"/>
</g>
<!-- Node3 -->
<g id="node3" class="node">
<title>Node3</title>
<g id="a_node3"><a xlink:href="../../d9/d02/vapplication_8h.html" target="_top" xlink:title=" ">
<polygon fill="white" stroke="black" points="2027.5,-67.5 2027.5,-97.5 2154.5,-97.5 2154.5,-67.5 2027.5,-67.5"/>
<text text-anchor="start" x="2035.5" y="-85.5" font-family="Helvetica,sans-Serif" font-size="10.00">src/app/seamly2d/core</text>
<text text-anchor="middle" x="2091" y="-74.5" font-family="Helvetica,sans-Serif" font-size="10.00">/vapplication.h</text>
</a>
</g>
</g>
<!-- Node2&#45;&gt;Node3 -->
<g id="edge2" class="edge">
<title>Node2&#45;&gt;Node3</title>
<path fill="none" stroke="midnightblue" d="M2487.11,-138.28C2395.6,-125.63 2241.27,-104.28 2154.74,-92.31"/>
<polygon fill="midnightblue" stroke="midnightblue" points="2486.74,-141.76 2497.12,-139.67 2487.7,-134.83 2486.74,-141.76"/>
</g>
<!-- Node2&#45;&gt;Node26 -->
<g id="edge25" class="edge">
<title>Node2&#45;&gt;Node26</title>
<path fill="none" stroke="midnightblue" d="M2580.75,-126.74C2589.48,-117.12 2599.5,-106.09 2607.22,-97.58"/>
<polygon fill="midnightblue" stroke="midnightblue" points="2577.93,-124.64 2573.8,-134.4 2583.11,-129.34 2577.93,-124.64"/>
</g>
<!-- Node27 -->
<g id="node27" class="node">
<title>Node27</title>
<g id="a_node27"><a xlink:href="../../d9/d53/mainwindow_8h.html" target="_top" xlink:title=" ">
<polygon fill="white" stroke="black" points="261,-73 261,-92 437,-92 437,-73 261,-73"/>
<text text-anchor="middle" x="349" y="-80" font-family="Helvetica,sans-Serif" font-size="10.00">src/app/seamly2d/mainwindow.h</text>
</a>
</g>
</g>
<!-- Node2&#45;&gt;Node27 -->
<g id="edge26" class="edge">
<title>Node2&#45;&gt;Node27</title>
<path fill="none" stroke="midnightblue" d="M2487.01,-146.33C2154.32,-136.55 797.61,-96.68 437.24,-86.09"/>
<polygon fill="midnightblue" stroke="midnightblue" points="2487.38,-149.84 2497.48,-146.63 2487.59,-142.84 2487.38,-149.84"/>
</g>
<!-- Node4 -->
<g id="node4" class="node">
<title>Node4</title>
<g id="a_node4"><a xlink:href="../../d3/dd8/vapplication_8cpp.html" target="_top" xlink:title=" ">
<polygon fill="white" stroke="black" points="206.5,-0.5 206.5,-30.5 333.5,-30.5 333.5,-0.5 206.5,-0.5"/>
<text text-anchor="start" x="214.5" y="-18.5" font-family="Helvetica,sans-Serif" font-size="10.00">src/app/seamly2d/core</text>
<text text-anchor="middle" x="270" y="-7.5" font-family="Helvetica,sans-Serif" font-size="10.00">/vapplication.cpp</text>
</a>
</g>
</g>
<!-- Node3&#45;&gt;Node4 -->
<g id="edge3" class="edge">
<title>Node3&#45;&gt;Node4</title>
<path fill="none" stroke="midnightblue" d="M2016.78,-81.04C1727.35,-78.97 674.03,-68.95 342,-31 339.21,-30.68 336.37,-30.31 333.51,-29.9"/>
<polygon fill="midnightblue" stroke="midnightblue" points="2017.14,-84.54 2027.16,-81.11 2017.19,-77.54 2017.14,-84.54"/>
</g>
<!-- Node5 -->
<g id="node5" class="node">
<title>Node5</title>
<g id="a_node5"><a xlink:href="../../dd/db4/abstractlayout__dialog_8cpp.html" target="_top" xlink:title=" ">
<polygon fill="white" stroke="black" points="1378,-0.5 1378,-30.5 1524,-30.5 1524,-0.5 1378,-0.5"/>
<text text-anchor="start" x="1386" y="-18.5" font-family="Helvetica,sans-Serif" font-size="10.00">src/app/seamly2d/dialogs</text>
<text text-anchor="middle" x="1451" y="-7.5" font-family="Helvetica,sans-Serif" font-size="10.00">/abstractlayout_dialog.cpp</text>
</a>
</g>
</g>
<!-- Node3&#45;&gt;Node5 -->
<g id="edge4" class="edge">
<title>Node3&#45;&gt;Node5</title>
<path fill="none" stroke="midnightblue" d="M2017.16,-76.82C1910.13,-69.58 1705.8,-54.05 1533,-31 1530.13,-30.62 1527.22,-30.21 1524.27,-29.77"/>
<polygon fill="midnightblue" stroke="midnightblue" points="2016.99,-80.32 2027.21,-77.49 2017.46,-73.33 2016.99,-80.32"/>
</g>
<!-- Node6 -->
<g id="node6" class="node">
<title>Node6</title>
<g id="a_node6"><a xlink:href="../../d7/dfa/calculator__dialog_8cpp.html" target="_top" xlink:title=" ">
<polygon fill="white" stroke="black" points="1542.5,-0.5 1542.5,-30.5 1683.5,-30.5 1683.5,-0.5 1542.5,-0.5"/>
<text text-anchor="start" x="1550.5" y="-18.5" font-family="Helvetica,sans-Serif" font-size="10.00">src/app/seamly2d/dialogs</text>
<text text-anchor="middle" x="1613" y="-7.5" font-family="Helvetica,sans-Serif" font-size="10.00">/calculator_dialog.cpp</text>
</a>
</g>
</g>
<!-- Node3&#45;&gt;Node6 -->
<g id="edge5" class="edge">
<title>Node3&#45;&gt;Node6</title>
<path fill="none" stroke="midnightblue" d="M2017.27,-73.41C1937.06,-64.32 1805.15,-48.53 1692,-31 1689.24,-30.57 1686.44,-30.12 1683.6,-29.66"/>
<polygon fill="midnightblue" stroke="midnightblue" points="2016.94,-76.9 2027.27,-74.54 2017.73,-69.94 2016.94,-76.9"/>
</g>
<!-- Node7 -->
<g id="node7" class="node">
<title>Node7</title>
<g id="a_node7"><a xlink:href="../../d2/d2d/preferencesconfigurationpage_8cpp.html" target="_top" xlink:title=" ">
<polygon fill="white" stroke="black" points="1701.5,-0.5 1701.5,-30.5 1948.5,-30.5 1948.5,-0.5 1701.5,-0.5"/>
<text text-anchor="start" x="1709.5" y="-18.5" font-family="Helvetica,sans-Serif" font-size="10.00">src/app/seamly2d/dialogs</text>
<text text-anchor="middle" x="1825" y="-7.5" font-family="Helvetica,sans-Serif" font-size="10.00">/configpages/preferencesconfigurationpage.cpp</text>
</a>
</g>
</g>
<!-- Node3&#45;&gt;Node7 -->
<g id="edge6" class="edge">
<title>Node3&#45;&gt;Node7</title>
<path fill="none" stroke="midnightblue" d="M2023.69,-65.05C1980.2,-54.43 1924.2,-40.74 1882.75,-30.61"/>
<polygon fill="midnightblue" stroke="midnightblue" points="2023.06,-68.5 2033.61,-67.48 2024.73,-61.7 2023.06,-68.5"/>
</g>
<!-- Node8 -->
<g id="node8" class="node">
<title>Node8</title>
<g id="a_node8"><a xlink:href="../../d9/d70/preferencesgraphicsviewpage_8cpp.html" target="_top" xlink:title=" ">
<polygon fill="white" stroke="black" points="1967,-0.5 1967,-30.5 2215,-30.5 2215,-0.5 1967,-0.5"/>
<text text-anchor="start" x="1975" y="-18.5" font-family="Helvetica,sans-Serif" font-size="10.00">src/app/seamly2d/dialogs</text>
<text text-anchor="middle" x="2091" y="-7.5" font-family="Helvetica,sans-Serif" font-size="10.00">/configpages/preferencesgraphicsviewpage.cpp</text>
</a>
</g>
</g>
<!-- Node3&#45;&gt;Node8 -->
<g id="edge7" class="edge">
<title>Node3&#45;&gt;Node8</title>
<path fill="none" stroke="midnightblue" d="M2091,-57.11C2091,-48.15 2091,-38.32 2091,-30.58"/>
<polygon fill="midnightblue" stroke="midnightblue" points="2087.5,-57.4 2091,-67.4 2094.5,-57.4 2087.5,-57.4"/>
</g>
<!-- Node9 -->
<g id="node9" class="node">
<title>Node9</title>
<g id="a_node9"><a xlink:href="../../dc/d20/preferencespathpage_8cpp.html" target="_top" xlink:title=" ">
<polygon fill="white" stroke="black" points="2233.5,-0.5 2233.5,-30.5 2438.5,-30.5 2438.5,-0.5 2233.5,-0.5"/>
<text text-anchor="start" x="2241.5" y="-18.5" font-family="Helvetica,sans-Serif" font-size="10.00">src/app/seamly2d/dialogs</text>
<text text-anchor="middle" x="2336" y="-7.5" font-family="Helvetica,sans-Serif" font-size="10.00">/configpages/preferencespathpage.cpp</text>
</a>
</g>
</g>
<!-- Node3&#45;&gt;Node9 -->
<g id="edge8" class="edge">
<title>Node3&#45;&gt;Node9</title>
<path fill="none" stroke="midnightblue" d="M2153.76,-64.85C2193.7,-54.25 2244.87,-40.68 2282.81,-30.61"/>
<polygon fill="midnightblue" stroke="midnightblue" points="2152.63,-61.53 2143.86,-67.48 2154.42,-68.29 2152.63,-61.53"/>
</g>
<!-- Node10 -->
<g id="node10" class="node">
<title>Node10</title>
<g id="a_node10"><a xlink:href="../../d2/d00/vtooloptionspropertybrowser_8cpp.html" target="_top" xlink:title=" ">
<polygon fill="white" stroke="black" points="2457,-0.5 2457,-30.5 2637,-30.5 2637,-0.5 2457,-0.5"/>
<text text-anchor="start" x="2465" y="-18.5" font-family="Helvetica,sans-Serif" font-size="10.00">src/app/seamly2d/core</text>
<text text-anchor="middle" x="2547" y="-7.5" font-family="Helvetica,sans-Serif" font-size="10.00">/vtooloptionspropertybrowser.cpp</text>
</a>
</g>
</g>
<!-- Node3&#45;&gt;Node10 -->
<g id="edge9" class="edge">
<title>Node3&#45;&gt;Node10</title>
<path fill="none" stroke="midnightblue" d="M2165,-71.07C2237.01,-60.91 2349.53,-44.98 2447,-31 2450.21,-30.54 2453.48,-30.07 2456.79,-29.59"/>
<polygon fill="midnightblue" stroke="midnightblue" points="2164.09,-67.66 2154.67,-72.53 2165.06,-74.6 2164.09,-67.66"/>
</g>
<!-- Node11 -->
<g id="node11" class="node">
<title>Node11</title>
<g id="a_node11"><a xlink:href="../../dd/dc2/decimalchart__dialog_8cpp.html" target="_top" xlink:title=" ">
<polygon fill="white" stroke="black" points="2655.5,-0.5 2655.5,-30.5 2796.5,-30.5 2796.5,-0.5 2655.5,-0.5"/>
<text text-anchor="start" x="2663.5" y="-18.5" font-family="Helvetica,sans-Serif" font-size="10.00">src/app/seamly2d/dialogs</text>
<text text-anchor="middle" x="2726" y="-7.5" font-family="Helvetica,sans-Serif" font-size="10.00">/decimalchart_dialog.cpp</text>
</a>
</g>
</g>
<!-- Node3&#45;&gt;Node11 -->
<g id="edge10" class="edge">
<title>Node3&#45;&gt;Node11</title>
<path fill="none" stroke="midnightblue" d="M2164.89,-76.87C2271.48,-69.71 2474.41,-54.31 2646,-31 2649.08,-30.58 2652.22,-30.13 2655.38,-29.65"/>
<polygon fill="midnightblue" stroke="midnightblue" points="2164.63,-73.38 2154.88,-77.53 2165.09,-80.36 2164.63,-73.38"/>
</g>
<!-- Node12 -->
<g id="node12" class="node">
<title>Node12</title>
<g id="a_node12"><a xlink:href="../../dd/d64/dialogaboutapp_8cpp.html" target="_top" xlink:title=" ">
<polygon fill="white" stroke="black" points="2814.5,-0.5 2814.5,-30.5 2955.5,-30.5 2955.5,-0.5 2814.5,-0.5"/>
<text text-anchor="start" x="2822.5" y="-18.5" font-family="Helvetica,sans-Serif" font-size="10.00">src/app/seamly2d/dialogs</text>
<text text-anchor="middle" x="2885" y="-7.5" font-family="Helvetica,sans-Serif" font-size="10.00">/dialogaboutapp.cpp</text>
</a>
</g>
</g>
<!-- Node3&#45;&gt;Node12 -->
<g id="edge11" class="edge">
<title>Node3&#45;&gt;Node12</title>
<path fill="none" stroke="midnightblue" d="M2165.08,-78.98C2295.21,-73.95 2573.11,-60.5 2806,-31 2808.77,-30.65 2811.58,-30.27 2814.43,-29.85"/>
<polygon fill="midnightblue" stroke="midnightblue" points="2164.7,-75.49 2154.84,-79.37 2164.97,-82.49 2164.7,-75.49"/>
</g>
<!-- Node13 -->
<g id="node13" class="node">
<title>Node13</title>
<g id="a_node13"><a xlink:href="../../d6/d89/dialoglayoutprogress_8cpp.html" target="_top" xlink:title=" ">
<polygon fill="white" stroke="black" points="2973.5,-0.5 2973.5,-30.5 3116.5,-30.5 3116.5,-0.5 2973.5,-0.5"/>
<text text-anchor="start" x="2981.5" y="-18.5" font-family="Helvetica,sans-Serif" font-size="10.00">src/app/seamly2d/dialogs</text>
<text text-anchor="middle" x="3045" y="-7.5" font-family="Helvetica,sans-Serif" font-size="10.00">/dialoglayoutprogress.cpp</text>
</a>
</g>
</g>
<!-- Node3&#45;&gt;Node13 -->
<g id="edge12" class="edge">
<title>Node3&#45;&gt;Node13</title>
<path fill="none" stroke="midnightblue" d="M2164.63,-80.26C2315.36,-77.07 2669.75,-66.15 2965,-31 2967.66,-30.68 2970.37,-30.33 2973.1,-29.96"/>
<polygon fill="midnightblue" stroke="midnightblue" points="2164.49,-76.77 2154.57,-80.47 2164.64,-83.76 2164.49,-76.77"/>
</g>
<!-- Node14 -->
<g id="node14" class="node">
<title>Node14</title>
<g id="a_node14"><a xlink:href="../../d5/d18/dialogpatternproperties_8cpp.html" target="_top" xlink:title=" ">
<polygon fill="white" stroke="black" points="3134.5,-0.5 3134.5,-30.5 3289.5,-30.5 3289.5,-0.5 3134.5,-0.5"/>
<text text-anchor="start" x="3142.5" y="-18.5" font-family="Helvetica,sans-Serif" font-size="10.00">src/app/seamly2d/dialogs</text>
<text text-anchor="middle" x="3212" y="-7.5" font-family="Helvetica,sans-Serif" font-size="10.00">/dialogpatternproperties.cpp</text>
</a>
</g>
</g>
<!-- Node3&#45;&gt;Node14 -->
<g id="edge13" class="edge">
<title>Node3&#45;&gt;Node14</title>
<path fill="none" stroke="midnightblue" d="M2164.75,-79.04C2369.02,-72.04 2939.34,-51.22 3126,-31 3128.71,-30.71 3131.46,-30.38 3134.24,-30.03"/>
<polygon fill="midnightblue" stroke="midnightblue" points="2164.6,-75.54 2154.72,-79.38 2164.84,-82.54 2164.6,-75.54"/>
</g>
<!-- Node15 -->
<g id="node15" class="node">
<title>Node15</title>
<g id="a_node15"><a xlink:href="../../d5/dc5/dialogpreferences_8cpp.html" target="_top" xlink:title=" ">
<polygon fill="white" stroke="black" points="3307.5,-0.5 3307.5,-30.5 3448.5,-30.5 3448.5,-0.5 3307.5,-0.5"/>
<text text-anchor="start" x="3315.5" y="-18.5" font-family="Helvetica,sans-Serif" font-size="10.00">src/app/seamly2d/dialogs</text>
<text text-anchor="middle" x="3378" y="-7.5" font-family="Helvetica,sans-Serif" font-size="10.00">/dialogpreferences.cpp</text>
</a>
</g>
</g>
<!-- Node3&#45;&gt;Node15 -->
<g id="edge14" class="edge">
<title>Node3&#45;&gt;Node15</title>
<path fill="none" stroke="midnightblue" d="M2164.86,-79.01C2409.89,-70.69 3186.8,-43.58 3299,-31 3301.77,-30.69 3304.59,-30.34 3307.44,-29.96"/>
<polygon fill="midnightblue" stroke="midnightblue" points="2164.51,-75.52 2154.63,-79.36 2164.74,-82.52 2164.51,-75.52"/>
</g>
<!-- Node16 -->
<g id="node16" class="node">
<title>Node16</title>
<g id="a_node16"><a xlink:href="../../dd/d54/export__layout__dialog_8cpp.html" target="_top" xlink:title=" ">
<polygon fill="white" stroke="black" points="3466.5,-0.5 3466.5,-30.5 3609.5,-30.5 3609.5,-0.5 3466.5,-0.5"/>
<text text-anchor="start" x="3474.5" y="-18.5" font-family="Helvetica,sans-Serif" font-size="10.00">src/app/seamly2d/dialogs</text>
<text text-anchor="middle" x="3538" y="-7.5" font-family="Helvetica,sans-Serif" font-size="10.00">/export_layout_dialog.cpp</text>
</a>
</g>
</g>
<!-- Node3&#45;&gt;Node16 -->
<g id="edge15" class="edge">
<title>Node3&#45;&gt;Node16</title>
<path fill="none" stroke="midnightblue" d="M2165.07,-79.06C2440.55,-69.93 3393.42,-38.01 3458,-31 3460.67,-30.71 3463.38,-30.38 3466.11,-30.03"/>
<polygon fill="midnightblue" stroke="midnightblue" points="2164.66,-75.57 2154.79,-79.4 2164.9,-82.56 2164.66,-75.57"/>
</g>
<!-- Node17 -->
<g id="node17" class="node">
<title>Node17</title>
<g id="a_node17"><a xlink:href="../../dc/d63/preferencespatternpage_8cpp.html" target="_top" xlink:title=" ">
<polygon fill="white" stroke="black" points="521,-0.5 521,-30.5 739,-30.5 739,-0.5 521,-0.5"/>
<text text-anchor="start" x="529" y="-18.5" font-family="Helvetica,sans-Serif" font-size="10.00">src/app/seamly2d/dialogs</text>
<text text-anchor="middle" x="630" y="-7.5" font-family="Helvetica,sans-Serif" font-size="10.00">/configpages/preferencespatternpage.cpp</text>
</a>
</g>
</g>
<!-- Node3&#45;&gt;Node17 -->
<g id="edge16" class="edge">
<title>Node3&#45;&gt;Node17</title>
<path fill="none" stroke="midnightblue" d="M2017.03,-80.92C1813.98,-78.84 1230.93,-69.68 748,-31 745.12,-30.77 742.2,-30.52 739.26,-30.26"/>
<polygon fill="midnightblue" stroke="midnightblue" points="2017.24,-84.42 2027.27,-81.02 2017.31,-77.42 2017.24,-84.42"/>
</g>
<!-- Node3&#45;&gt;Node18 -->
<g id="edge17" class="edge">
<title>Node3&#45;&gt;Node18</title>
<path fill="none" stroke="midnightblue" d="M2164.83,-79.13C2467.8,-69.4 3600.71,-32.93 3619,-31 3621.7,-30.72 3624.44,-30.39 3627.21,-30.04"/>
<polygon fill="midnightblue" stroke="midnightblue" points="2164.71,-75.63 2154.83,-79.45 2164.93,-82.63 2164.71,-75.63"/>
</g>
<!-- Node19 -->
<g id="node19" class="node">
<title>Node19</title>
<g id="a_node19"><a xlink:href="../../db/d5c/groups__widget_8cpp.html" target="_top" xlink:title=" ">
<polygon fill="white" stroke="black" points="757.5,-0.5 757.5,-30.5 898.5,-30.5 898.5,-0.5 757.5,-0.5"/>
<text text-anchor="start" x="765.5" y="-18.5" font-family="Helvetica,sans-Serif" font-size="10.00">src/app/seamly2d/dialogs</text>
<text text-anchor="middle" x="828" y="-7.5" font-family="Helvetica,sans-Serif" font-size="10.00">/groups_widget.cpp</text>
</a>
</g>
</g>
<!-- Node3&#45;&gt;Node19 -->
<g id="edge18" class="edge">
<title>Node3&#45;&gt;Node19</title>
<path fill="none" stroke="midnightblue" d="M2016.98,-81.9C1830.2,-82.15 1324.87,-78.03 907,-31 904.23,-30.69 901.41,-30.34 898.56,-29.95"/>
<polygon fill="midnightblue" stroke="midnightblue" points="2017.23,-85.4 2027.23,-81.89 2017.22,-78.4 2017.23,-85.4"/>
</g>
<!-- Node20 -->
<g id="node20" class="node">
<title>Node20</title>
<g id="a_node20"><a xlink:href="../../d2/df4/show__info__dialog_8cpp.html" target="_top" xlink:title=" ">
<polygon fill="white" stroke="black" points="916.5,-0.5 916.5,-30.5 1057.5,-30.5 1057.5,-0.5 916.5,-0.5"/>
<text text-anchor="start" x="924.5" y="-18.5" font-family="Helvetica,sans-Serif" font-size="10.00">src/app/seamly2d/dialogs</text>
<text text-anchor="middle" x="987" y="-7.5" font-family="Helvetica,sans-Serif" font-size="10.00">/show_info_dialog.cpp</text>
</a>
</g>
</g>
<!-- Node3&#45;&gt;Node20 -->
<g id="edge19" class="edge">
<title>Node3&#45;&gt;Node20</title>
<path fill="none" stroke="midnightblue" d="M2017.47,-81.21C1848.72,-79.81 1420.9,-72.13 1066,-31 1063.23,-30.68 1060.41,-30.32 1057.57,-29.93"/>
<polygon fill="midnightblue" stroke="midnightblue" points="2017.46,-84.71 2027.48,-81.29 2017.51,-77.71 2017.46,-84.71"/>
</g>
<!-- Node21 -->
<g id="node21" class="node">
<title>Node21</title>
<g id="a_node21"><a xlink:href="../../dd/d84/shortcuts__dialog_8cpp.html" target="_top" xlink:title=" ">
<polygon fill="white" stroke="black" points="1075.5,-0.5 1075.5,-30.5 1216.5,-30.5 1216.5,-0.5 1075.5,-0.5"/>
<text text-anchor="start" x="1083.5" y="-18.5" font-family="Helvetica,sans-Serif" font-size="10.00">src/app/seamly2d/dialogs</text>
<text text-anchor="middle" x="1146" y="-7.5" font-family="Helvetica,sans-Serif" font-size="10.00">/shortcuts_dialog.cpp</text>
</a>
</g>
</g>
<!-- Node3&#45;&gt;Node21 -->
<g id="edge20" class="edge">
<title>Node3&#45;&gt;Node21</title>
<path fill="none" stroke="midnightblue" d="M2017.03,-80.26C1867.1,-77.06 1516.85,-66.16 1225,-31 1222.23,-30.67 1219.41,-30.3 1216.57,-29.9"/>
<polygon fill="midnightblue" stroke="midnightblue" points="2017.4,-83.77 2027.47,-80.47 2017.55,-76.77 2017.4,-83.77"/>
</g>
<!-- Node22 -->
<g id="node22" class="node">
<title>Node22</title>
<g id="a_node22"><a xlink:href="../../dc/d14/app_2seamly2d_2main_8cpp.html" target="_top" xlink:title=" ">
<polygon fill="white" stroke="black" points="351.5,-6 351.5,-25 502.5,-25 502.5,-6 351.5,-6"/>
<text text-anchor="middle" x="427" y="-13" font-family="Helvetica,sans-Serif" font-size="10.00">src/app/seamly2d/main.cpp</text>
</a>
</g>
</g>
<!-- Node3&#45;&gt;Node22 -->
<g id="edge21" class="edge">
<title>Node3&#45;&gt;Node22</title>
<path fill="none" stroke="midnightblue" d="M2017.34,-80.48C1747,-76.55 809.71,-61.01 512,-31 498.3,-29.62 483.47,-27.36 470.09,-25.03"/>
<polygon fill="midnightblue" stroke="midnightblue" points="2017.39,-83.99 2027.44,-80.63 2017.49,-76.99 2017.39,-83.99"/>
</g>
<!-- Node3&#45;&gt;Node23 -->
<g id="edge22" class="edge">
<title>Node3&#45;&gt;Node23</title>
<path fill="none" stroke="midnightblue" d="M2164.94,-79.09C2255.13,-76.16 2412.26,-71.11 2547,-67 3095.87,-50.27 3234.43,-72.25 3782,-31 3800.89,-29.58 3821.38,-27.33 3839.96,-25.03"/>
<polygon fill="midnightblue" stroke="midnightblue" points="2164.69,-75.59 2154.81,-79.42 2164.92,-82.59 2164.69,-75.59"/>
</g>
<!-- Node24 -->
<g id="node24" class="node">
<title>Node24</title>
<g id="a_node24"><a xlink:href="../../d3/d49/vpattern_8cpp.html" target="_top" xlink:title=" ">
<polygon fill="white" stroke="black" points="1234.5,-0.5 1234.5,-30.5 1359.5,-30.5 1359.5,-0.5 1234.5,-0.5"/>
<text text-anchor="start" x="1242.5" y="-18.5" font-family="Helvetica,sans-Serif" font-size="10.00">src/app/seamly2d/xml</text>
<text text-anchor="middle" x="1297" y="-7.5" font-family="Helvetica,sans-Serif" font-size="10.00">/vpattern.cpp</text>
</a>
</g>
</g>
<!-- Node3&#45;&gt;Node24 -->
<g id="edge23" class="edge">
<title>Node3&#45;&gt;Node24</title>
<path fill="none" stroke="midnightblue" d="M2017.15,-79.48C1886.1,-75.18 1604.51,-62.82 1369,-31 1365.97,-30.59 1362.87,-30.13 1359.75,-29.63"/>
<polygon fill="midnightblue" stroke="midnightblue" points="2017.36,-82.98 2027.46,-79.81 2017.58,-75.99 2017.36,-82.98"/>
</g>
<!-- Node25 -->
<g id="node25" class="node">
<title>Node25</title>
<g id="a_node25"><a xlink:href="../../d8/dd9/mainwindow_8cpp.html" target="_top" xlink:title=" ">
<polygon fill="white" stroke="black" points="0,-6 0,-25 188,-25 188,-6 0,-6"/>
<text text-anchor="middle" x="94" y="-13" font-family="Helvetica,sans-Serif" font-size="10.00">src/app/seamly2d/mainwindow.cpp</text>
</a>
</g>
</g>
<!-- Node3&#45;&gt;Node25 -->
<g id="edge24" class="edge">
<title>Node3&#45;&gt;Node25</title>
<path fill="none" stroke="midnightblue" d="M2017.3,-80.65C1713.88,-76.99 560.21,-61.31 197,-31 180.44,-29.62 162.49,-27.36 146.27,-25.03"/>
<polygon fill="midnightblue" stroke="midnightblue" points="2017.27,-84.15 2027.31,-80.77 2017.35,-77.15 2017.27,-84.15"/>
</g>
<!-- Node27&#45;&gt;Node4 -->
<g id="edge27" class="edge">
<title>Node27&#45;&gt;Node4</title>
<path fill="none" stroke="midnightblue" d="M330.45,-66.24C317.34,-55.45 299.9,-41.1 287.12,-30.59"/>
<polygon fill="midnightblue" stroke="midnightblue" points="328.4,-69.08 338.35,-72.73 332.85,-63.68 328.4,-69.08"/>
</g>
<!-- Node27&#45;&gt;Node22 -->
<g id="edge28" class="edge">
<title>Node27&#45;&gt;Node22</title>
<path fill="none" stroke="midnightblue" d="M367.34,-66.21C382.71,-53.41 404.09,-35.59 416.65,-25.13"/>
<polygon fill="midnightblue" stroke="midnightblue" points="364.96,-63.64 359.52,-72.73 369.44,-69.02 364.96,-63.64"/>
</g>
<!-- Node27&#45;&gt;Node25 -->
<g id="edge29" class="edge">
<title>Node27&#45;&gt;Node25</title>
<path fill="none" stroke="midnightblue" d="M305.47,-70.4C255.14,-57.58 173.39,-36.74 127.67,-25.08"/>
<polygon fill="midnightblue" stroke="midnightblue" points="304.85,-73.86 315.4,-72.94 306.58,-67.07 304.85,-73.86"/>
</g>
</g>
</svg>
