<?xml version="1.0" encoding="UTF-8" standalone="no"?>
<!DOCTYPE svg PUBLIC "-//W3C//DTD SVG 1.1//EN"
 "http://www.w3.org/Graphics/SVG/1.1/DTD/svg11.dtd">
<!-- Generated by graphviz version 2.43.0 (0)
 -->
<!-- Title: src/libs/vwidgets/vpieceitem.h Pages: 1 -->
<svg width="616pt" height="140pt"
 viewBox="0.00 0.00 615.50 140.00" xmlns="http://www.w3.org/2000/svg" xmlns:xlink="http://www.w3.org/1999/xlink">
<g id="graph0" class="graph" transform="scale(1 1) rotate(0) translate(4 136)">
<title>src/libs/vwidgets/vpieceitem.h</title>
<polygon fill="white" stroke="transparent" points="-4,4 -4,-136 611.5,-136 611.5,4 -4,4"/>
<!-- Node1 -->
<g id="node1" class="node">
<title>Node1</title>
<g id="a_node1"><a xlink:title=" ">
<polygon fill="#bfbfbf" stroke="black" points="211.5,-112.5 211.5,-131.5 376.5,-131.5 376.5,-112.5 211.5,-112.5"/>
<text text-anchor="middle" x="294" y="-119.5" font-family="Helvetica,sans-Serif" font-size="10.00">src/libs/vwidgets/vpieceitem.h</text>
</a>
</g>
</g>
<!-- Node2 -->
<g id="node2" class="node">
<title>Node2</title>
<g id="a_node2"><a xlink:href="../../d2/d26/vpieceitem_8cpp.html" target="_top" xlink:title=" ">
<polygon fill="white" stroke="black" points="0,-56.5 0,-75.5 176,-75.5 176,-56.5 0,-56.5"/>
<text text-anchor="middle" x="88" y="-63.5" font-family="Helvetica,sans-Serif" font-size="10.00">src/libs/vwidgets/vpieceitem.cpp</text>
</a>
</g>
</g>
<!-- Node1&#45;&gt;Node2 -->
<g id="edge1" class="edge">
<title>Node1&#45;&gt;Node2</title>
<path fill="none" stroke="midnightblue" d="M251.38,-109.83C212.49,-99.63 155.84,-84.78 120.49,-75.52"/>
<polygon fill="midnightblue" stroke="midnightblue" points="250.8,-113.29 261.36,-112.44 252.57,-106.52 250.8,-113.29"/>
</g>
<!-- Node3 -->
<g id="node3" class="node">
<title>Node3</title>
<g id="a_node3"><a xlink:href="../../d3/d77/vtextgraphicsitem_8h.html" target="_top" xlink:title=" ">
<polygon fill="white" stroke="black" points="194,-56.5 194,-75.5 394,-75.5 394,-56.5 194,-56.5"/>
<text text-anchor="middle" x="294" y="-63.5" font-family="Helvetica,sans-Serif" font-size="10.00">src/libs/vwidgets/vtextgraphicsitem.h</text>
</a>
</g>
</g>
<!-- Node1&#45;&gt;Node3 -->
<g id="edge2" class="edge">
<title>Node1&#45;&gt;Node3</title>
<path fill="none" stroke="midnightblue" d="M294,-101.8C294,-92.91 294,-82.78 294,-75.75"/>
<polygon fill="midnightblue" stroke="midnightblue" points="290.5,-102.08 294,-112.08 297.5,-102.08 290.5,-102.08"/>
</g>
<!-- Node5 -->
<g id="node5" class="node">
<title>Node5</title>
<g id="a_node5"><a xlink:href="../../de/d1b/vgrainlineitem_8h.html" target="_top" xlink:title=" ">
<polygon fill="white" stroke="black" points="415,-56.5 415,-75.5 597,-75.5 597,-56.5 415,-56.5"/>
<text text-anchor="middle" x="506" y="-63.5" font-family="Helvetica,sans-Serif" font-size="10.00">src/libs/vwidgets/vgrainlineitem.h</text>
</a>
</g>
</g>
<!-- Node1&#45;&gt;Node5 -->
<g id="edge4" class="edge">
<title>Node1&#45;&gt;Node5</title>
<path fill="none" stroke="midnightblue" d="M337.35,-109.96C377.39,-99.76 436.03,-84.82 472.57,-75.52"/>
<polygon fill="midnightblue" stroke="midnightblue" points="336.42,-106.58 327.59,-112.44 338.15,-113.37 336.42,-106.58"/>
</g>
<!-- Node4 -->
<g id="node4" class="node">
<title>Node4</title>
<g id="a_node4"><a xlink:href="../../df/df5/vtextgraphicsitem_8cpp.html" target="_top" xlink:title=" ">
<polygon fill="white" stroke="black" points="185.5,-0.5 185.5,-19.5 396.5,-19.5 396.5,-0.5 185.5,-0.5"/>
<text text-anchor="middle" x="291" y="-7.5" font-family="Helvetica,sans-Serif" font-size="10.00">src/libs/vwidgets/vtextgraphicsitem.cpp</text>
</a>
</g>
</g>
<!-- Node3&#45;&gt;Node4 -->
<g id="edge3" class="edge">
<title>Node3&#45;&gt;Node4</title>
<path fill="none" stroke="midnightblue" d="M292.93,-45.8C292.44,-36.91 291.88,-26.78 291.49,-19.75"/>
<polygon fill="midnightblue" stroke="midnightblue" points="289.46,-46.29 293.5,-56.08 296.44,-45.9 289.46,-46.29"/>
</g>
<!-- Node6 -->
<g id="node6" class="node">
<title>Node6</title>
<g id="a_node6"><a xlink:href="../../d1/d90/vgrainlineitem_8cpp.html" target="_top" xlink:title=" ">
<polygon fill="white" stroke="black" points="414.5,-0.5 414.5,-19.5 607.5,-19.5 607.5,-0.5 414.5,-0.5"/>
<text text-anchor="middle" x="511" y="-7.5" font-family="Helvetica,sans-Serif" font-size="10.00">src/libs/vwidgets/vgrainlineitem.cpp</text>
</a>
</g>
</g>
<!-- Node5&#45;&gt;Node6 -->
<g id="edge5" class="edge">
<title>Node5&#45;&gt;Node6</title>
<path fill="none" stroke="midnightblue" d="M507.75,-46.1C508.58,-37.14 509.53,-26.86 510.19,-19.75"/>
<polygon fill="midnightblue" stroke="midnightblue" points="504.26,-45.8 506.83,-56.08 511.23,-46.45 504.26,-45.8"/>
</g>
</g>
</svg>
