<?xml version="1.0" encoding="UTF-8" standalone="no"?>
<!DOCTYPE svg PUBLIC "-//W3C//DTD SVG 1.1//EN"
 "http://www.w3.org/Graphics/SVG/1.1/DTD/svg11.dtd">
<!-- Generated by graphviz version 2.43.0 (0)
 -->
<!-- Title: src/libs/vtools/tools/drawTools/toolcurve/vabstractspline.h Pages: 1 -->
<svg width="2525pt" height="384pt"
 viewBox="0.00 0.00 2524.50 384.00" xmlns="http://www.w3.org/2000/svg" xmlns:xlink="http://www.w3.org/1999/xlink">
<g id="graph0" class="graph" transform="scale(1 1) rotate(0) translate(4 380)">
<title>src/libs/vtools/tools/drawTools/toolcurve/vabstractspline.h</title>
<polygon fill="white" stroke="transparent" points="-4,4 -4,-380 2520.5,-380 2520.5,4 -4,4"/>
<!-- Node1 -->
<g id="node1" class="node">
<title>Node1</title>
<g id="a_node1"><a xlink:title=" ">
<polygon fill="#bfbfbf" stroke="black" points="716,-334.5 716,-375.5 833,-375.5 833,-334.5 716,-334.5"/>
<text text-anchor="start" x="724" y="-363.5" font-family="Helvetica,sans-Serif" font-size="10.00">src/libs/vtools/tools</text>
<text text-anchor="start" x="724" y="-352.5" font-family="Helvetica,sans-Serif" font-size="10.00">/drawTools/toolcurve</text>
<text text-anchor="middle" x="774.5" y="-341.5" font-family="Helvetica,sans-Serif" font-size="10.00">/vabstractspline.h</text>
</a>
</g>
</g>
<!-- Node2 -->
<g id="node2" class="node">
<title>Node2</title>
<g id="a_node2"><a xlink:href="../../d1/d05/vabstractspline_8cpp.html" target="_top" xlink:title=" ">
<polygon fill="white" stroke="black" points="0,-251 0,-292 117,-292 117,-251 0,-251"/>
<text text-anchor="start" x="8" y="-280" font-family="Helvetica,sans-Serif" font-size="10.00">src/libs/vtools/tools</text>
<text text-anchor="start" x="8" y="-269" font-family="Helvetica,sans-Serif" font-size="10.00">/drawTools/toolcurve</text>
<text text-anchor="middle" x="58.5" y="-258" font-family="Helvetica,sans-Serif" font-size="10.00">/vabstractspline.cpp</text>
</a>
</g>
</g>
<!-- Node1&#45;&gt;Node2 -->
<g id="edge1" class="edge">
<title>Node1&#45;&gt;Node2</title>
<path fill="none" stroke="midnightblue" d="M705.83,-354.28C586.32,-353.41 333.05,-345.47 125.5,-298 118.71,-296.45 111.68,-294.35 104.84,-292.03"/>
<polygon fill="midnightblue" stroke="midnightblue" points="705.91,-357.78 715.93,-354.34 705.95,-350.78 705.91,-357.78"/>
</g>
<!-- Node3 -->
<g id="node3" class="node">
<title>Node3</title>
<g id="a_node3"><a xlink:href="../../d2/d9b/vtoolarc_8cpp.html" target="_top" xlink:title=" ">
<polygon fill="white" stroke="black" points="755,-162 755,-203 872,-203 872,-162 755,-162"/>
<text text-anchor="start" x="763" y="-191" font-family="Helvetica,sans-Serif" font-size="10.00">src/libs/vtools/tools</text>
<text text-anchor="start" x="763" y="-180" font-family="Helvetica,sans-Serif" font-size="10.00">/drawTools/toolcurve</text>
<text text-anchor="middle" x="813.5" y="-169" font-family="Helvetica,sans-Serif" font-size="10.00">/vtoolarc.cpp</text>
</a>
</g>
</g>
<!-- Node1&#45;&gt;Node3 -->
<g id="edge2" class="edge">
<title>Node1&#45;&gt;Node3</title>
<path fill="none" stroke="midnightblue" d="M788.68,-325.09C792.38,-316.54 796.02,-307.04 798.5,-298 807.41,-265.52 811.08,-226.36 812.56,-203.27"/>
<polygon fill="midnightblue" stroke="midnightblue" points="785.46,-323.71 784.54,-334.26 791.84,-326.59 785.46,-323.71"/>
</g>
<!-- Node4 -->
<g id="node4" class="node">
<title>Node4</title>
<g id="a_node4"><a xlink:href="../../d3/d33/vtoolarcwithlength_8cpp.html" target="_top" xlink:title=" ">
<polygon fill="white" stroke="black" points="529,-162 529,-203 660,-203 660,-162 529,-162"/>
<text text-anchor="start" x="537" y="-191" font-family="Helvetica,sans-Serif" font-size="10.00">src/libs/vtools/tools</text>
<text text-anchor="start" x="537" y="-180" font-family="Helvetica,sans-Serif" font-size="10.00">/drawTools/toolcurve</text>
<text text-anchor="middle" x="594.5" y="-169" font-family="Helvetica,sans-Serif" font-size="10.00">/vtoolarcwithlength.cpp</text>
</a>
</g>
</g>
<!-- Node1&#45;&gt;Node4 -->
<g id="edge3" class="edge">
<title>Node1&#45;&gt;Node4</title>
<path fill="none" stroke="midnightblue" d="M705.57,-348.02C639.85,-340.71 547.7,-325.75 525.5,-298 510.78,-279.61 515.86,-266.49 525.5,-245 533.18,-227.87 548.25,-213.55 562.36,-203.05"/>
<polygon fill="midnightblue" stroke="midnightblue" points="705.56,-351.53 715.88,-349.12 706.31,-344.57 705.56,-351.53"/>
</g>
<!-- Node5 -->
<g id="node5" class="node">
<title>Node5</title>
<g id="a_node5"><a xlink:href="../../de/dd9/vtoolarcwithlength_8h.html" target="_top" xlink:title=" ">
<polygon fill="white" stroke="black" points="534.5,-251 534.5,-292 654.5,-292 654.5,-251 534.5,-251"/>
<text text-anchor="start" x="542.5" y="-280" font-family="Helvetica,sans-Serif" font-size="10.00">src/libs/vtools/tools</text>
<text text-anchor="start" x="542.5" y="-269" font-family="Helvetica,sans-Serif" font-size="10.00">/drawTools/toolcurve</text>
<text text-anchor="middle" x="594.5" y="-258" font-family="Helvetica,sans-Serif" font-size="10.00">/vtoolarcwithlength.h</text>
</a>
</g>
</g>
<!-- Node1&#45;&gt;Node5 -->
<g id="edge4" class="edge">
<title>Node1&#45;&gt;Node5</title>
<path fill="none" stroke="midnightblue" d="M722.13,-330.29C695.28,-318.13 662.97,-303.5 637.57,-292"/>
<polygon fill="midnightblue" stroke="midnightblue" points="720.83,-333.54 731.39,-334.48 723.72,-327.17 720.83,-333.54"/>
</g>
<!-- Node8 -->
<g id="node8" class="node">
<title>Node8</title>
<g id="a_node8"><a xlink:href="../../d4/df1/vtoolcubicbezier_8h.html" target="_top" xlink:title=" ">
<polygon fill="white" stroke="black" points="323,-251 323,-292 440,-292 440,-251 323,-251"/>
<text text-anchor="start" x="331" y="-280" font-family="Helvetica,sans-Serif" font-size="10.00">src/libs/vtools/tools</text>
<text text-anchor="start" x="331" y="-269" font-family="Helvetica,sans-Serif" font-size="10.00">/drawTools/toolcurve</text>
<text text-anchor="middle" x="381.5" y="-258" font-family="Helvetica,sans-Serif" font-size="10.00">/vtoolcubicbezier.h</text>
</a>
</g>
</g>
<!-- Node1&#45;&gt;Node8 -->
<g id="edge8" class="edge">
<title>Node1&#45;&gt;Node8</title>
<path fill="none" stroke="midnightblue" d="M705.62,-345.25C640.34,-336.19 539.86,-320.22 454.5,-298 447.87,-296.28 440.99,-294.23 434.22,-292.05"/>
<polygon fill="midnightblue" stroke="midnightblue" points="705.4,-348.76 715.79,-346.65 706.36,-341.82 705.4,-348.76"/>
</g>
<!-- Node9 -->
<g id="node9" class="node">
<title>Node9</title>
<g id="a_node9"><a xlink:href="../../db/dcd/vtoolcubicbezier_8cpp.html" target="_top" xlink:title=" ">
<polygon fill="white" stroke="black" points="392,-162 392,-203 511,-203 511,-162 392,-162"/>
<text text-anchor="start" x="400" y="-191" font-family="Helvetica,sans-Serif" font-size="10.00">src/libs/vtools/tools</text>
<text text-anchor="start" x="400" y="-180" font-family="Helvetica,sans-Serif" font-size="10.00">/drawTools/toolcurve</text>
<text text-anchor="middle" x="451.5" y="-169" font-family="Helvetica,sans-Serif" font-size="10.00">/vtoolcubicbezier.cpp</text>
</a>
</g>
</g>
<!-- Node1&#45;&gt;Node9 -->
<g id="edge11" class="edge">
<title>Node1&#45;&gt;Node9</title>
<path fill="none" stroke="midnightblue" d="M705.67,-345.94C638.59,-336.92 542.44,-320.57 512.5,-298 480.84,-274.14 463.88,-228.97 456.37,-203.07"/>
<polygon fill="midnightblue" stroke="midnightblue" points="705.39,-349.43 715.76,-347.27 706.3,-342.49 705.39,-349.43"/>
</g>
<!-- Node10 -->
<g id="node10" class="node">
<title>Node10</title>
<g id="a_node10"><a xlink:href="../../d6/d25/vtoolcubicbezierpath_8h.html" target="_top" xlink:title=" ">
<polygon fill="white" stroke="black" points="135,-251 135,-292 266,-292 266,-251 135,-251"/>
<text text-anchor="start" x="143" y="-280" font-family="Helvetica,sans-Serif" font-size="10.00">src/libs/vtools/tools</text>
<text text-anchor="start" x="143" y="-269" font-family="Helvetica,sans-Serif" font-size="10.00">/drawTools/toolcurve</text>
<text text-anchor="middle" x="200.5" y="-258" font-family="Helvetica,sans-Serif" font-size="10.00">/vtoolcubicbezierpath.h</text>
</a>
</g>
</g>
<!-- Node1&#45;&gt;Node10 -->
<g id="edge12" class="edge">
<title>Node1&#45;&gt;Node10</title>
<path fill="none" stroke="midnightblue" d="M705.56,-350.45C609.44,-344.54 430.14,-330.01 280.5,-298 272.94,-296.38 265.09,-294.34 257.38,-292.13"/>
<polygon fill="midnightblue" stroke="midnightblue" points="705.53,-353.96 715.73,-351.06 705.95,-346.97 705.53,-353.96"/>
</g>
<!-- Node11 -->
<g id="node11" class="node">
<title>Node11</title>
<g id="a_node11"><a xlink:href="../../d4/d49/vtoolcubicbezierpath_8cpp.html" target="_top" xlink:title=" ">
<polygon fill="white" stroke="black" points="193.5,-162 193.5,-203 335.5,-203 335.5,-162 193.5,-162"/>
<text text-anchor="start" x="201.5" y="-191" font-family="Helvetica,sans-Serif" font-size="10.00">src/libs/vtools/tools</text>
<text text-anchor="start" x="201.5" y="-180" font-family="Helvetica,sans-Serif" font-size="10.00">/drawTools/toolcurve</text>
<text text-anchor="middle" x="264.5" y="-169" font-family="Helvetica,sans-Serif" font-size="10.00">/vtoolcubicbezierpath.cpp</text>
</a>
</g>
</g>
<!-- Node1&#45;&gt;Node11 -->
<g id="edge15" class="edge">
<title>Node1&#45;&gt;Node11</title>
<path fill="none" stroke="midnightblue" d="M705.51,-353.85C592.35,-352.28 373.85,-343.28 313.5,-298 283.06,-275.16 271.31,-229.61 266.95,-203.37"/>
<polygon fill="midnightblue" stroke="midnightblue" points="705.75,-357.35 715.79,-353.98 705.83,-350.36 705.75,-357.35"/>
</g>
<!-- Node12 -->
<g id="node12" class="node">
<title>Node12</title>
<g id="a_node12"><a xlink:href="../../d5/d63/vtoolellipticalarc_8h.html" target="_top" xlink:title=" ">
<polygon fill="white" stroke="black" points="847,-251 847,-292 964,-292 964,-251 847,-251"/>
<text text-anchor="start" x="855" y="-280" font-family="Helvetica,sans-Serif" font-size="10.00">src/libs/vtools/tools</text>
<text text-anchor="start" x="855" y="-269" font-family="Helvetica,sans-Serif" font-size="10.00">/drawTools/toolcurve</text>
<text text-anchor="middle" x="905.5" y="-258" font-family="Helvetica,sans-Serif" font-size="10.00">/vtoolellipticalarc.h</text>
</a>
</g>
</g>
<!-- Node1&#45;&gt;Node12 -->
<g id="edge16" class="edge">
<title>Node1&#45;&gt;Node12</title>
<path fill="none" stroke="midnightblue" d="M814.38,-329.19C833.48,-317.3 856.04,-303.27 873.92,-292.14"/>
<polygon fill="midnightblue" stroke="midnightblue" points="812.52,-326.22 805.88,-334.48 816.22,-332.17 812.52,-326.22"/>
</g>
<!-- Node13 -->
<g id="node13" class="node">
<title>Node13</title>
<g id="a_node13"><a xlink:href="../../d8/dc7/vtoolellipticalarc_8cpp.html" target="_top" xlink:title=" ">
<polygon fill="white" stroke="black" points="928.5,-162 928.5,-203 1050.5,-203 1050.5,-162 928.5,-162"/>
<text text-anchor="start" x="936.5" y="-191" font-family="Helvetica,sans-Serif" font-size="10.00">src/libs/vtools/tools</text>
<text text-anchor="start" x="936.5" y="-180" font-family="Helvetica,sans-Serif" font-size="10.00">/drawTools/toolcurve</text>
<text text-anchor="middle" x="989.5" y="-169" font-family="Helvetica,sans-Serif" font-size="10.00">/vtoolellipticalarc.cpp</text>
</a>
</g>
</g>
<!-- Node1&#45;&gt;Node13 -->
<g id="edge25" class="edge">
<title>Node1&#45;&gt;Node13</title>
<path fill="none" stroke="midnightblue" d="M843.44,-352.63C886.84,-347.93 940.51,-334.38 972.5,-298 995.59,-271.74 995.15,-228.28 992.49,-203.13"/>
<polygon fill="midnightblue" stroke="midnightblue" points="842.84,-349.17 833.22,-353.6 843.5,-356.14 842.84,-349.17"/>
</g>
<!-- Node14 -->
<g id="node14" class="node">
<title>Node14</title>
<g id="a_node14"><a xlink:href="../../d3/d19/vtoolarc_8h.html" target="_top" xlink:title=" ">
<polygon fill="white" stroke="black" points="673,-251 673,-292 790,-292 790,-251 673,-251"/>
<text text-anchor="start" x="681" y="-280" font-family="Helvetica,sans-Serif" font-size="10.00">src/libs/vtools/tools</text>
<text text-anchor="start" x="681" y="-269" font-family="Helvetica,sans-Serif" font-size="10.00">/drawTools/toolcurve</text>
<text text-anchor="middle" x="731.5" y="-258" font-family="Helvetica,sans-Serif" font-size="10.00">/vtoolarc.h</text>
</a>
</g>
</g>
<!-- Node1&#45;&gt;Node14 -->
<g id="edge19" class="edge">
<title>Node1&#45;&gt;Node14</title>
<path fill="none" stroke="midnightblue" d="M759.41,-325.39C753.59,-314.37 747.08,-302.03 741.81,-292.05"/>
<polygon fill="midnightblue" stroke="midnightblue" points="756.33,-327.06 764.09,-334.27 762.52,-323.79 756.33,-327.06"/>
</g>
<!-- Node15 -->
<g id="node15" class="node">
<title>Node15</title>
<g id="a_node15"><a xlink:href="../../db/d8c/vtoolspline_8h.html" target="_top" xlink:title=" ">
<polygon fill="white" stroke="black" points="1021,-251 1021,-292 1138,-292 1138,-251 1021,-251"/>
<text text-anchor="start" x="1029" y="-280" font-family="Helvetica,sans-Serif" font-size="10.00">src/libs/vtools/tools</text>
<text text-anchor="start" x="1029" y="-269" font-family="Helvetica,sans-Serif" font-size="10.00">/drawTools/toolcurve</text>
<text text-anchor="middle" x="1079.5" y="-258" font-family="Helvetica,sans-Serif" font-size="10.00">/vtoolspline.h</text>
</a>
</g>
</g>
<!-- Node1&#45;&gt;Node15 -->
<g id="edge22" class="edge">
<title>Node1&#45;&gt;Node15</title>
<path fill="none" stroke="midnightblue" d="M843.04,-339.33C889.48,-328.94 952.07,-314.03 1006.5,-298 1012.68,-296.18 1019.11,-294.14 1025.48,-292.04"/>
<polygon fill="midnightblue" stroke="midnightblue" points="842.09,-335.96 833.09,-341.55 843.61,-342.79 842.09,-335.96"/>
</g>
<!-- Node16 -->
<g id="node16" class="node">
<title>Node16</title>
<g id="a_node16"><a xlink:href="../../d0/d39/vtoolspline_8cpp.html" target="_top" xlink:title=" ">
<polygon fill="white" stroke="black" points="1107,-162 1107,-203 1224,-203 1224,-162 1107,-162"/>
<text text-anchor="start" x="1115" y="-191" font-family="Helvetica,sans-Serif" font-size="10.00">src/libs/vtools/tools</text>
<text text-anchor="start" x="1115" y="-180" font-family="Helvetica,sans-Serif" font-size="10.00">/drawTools/toolcurve</text>
<text text-anchor="middle" x="1165.5" y="-169" font-family="Helvetica,sans-Serif" font-size="10.00">/vtoolspline.cpp</text>
</a>
</g>
</g>
<!-- Node1&#45;&gt;Node16 -->
<g id="edge31" class="edge">
<title>Node1&#45;&gt;Node16</title>
<path fill="none" stroke="midnightblue" d="M843.18,-353C938.72,-350.11 1104.75,-339.13 1146.5,-298 1171.62,-273.25 1171.28,-228.83 1168.54,-203.2"/>
<polygon fill="midnightblue" stroke="midnightblue" points="842.92,-349.51 833.02,-353.29 843.12,-356.51 842.92,-349.51"/>
</g>
<!-- Node17 -->
<g id="node17" class="node">
<title>Node17</title>
<g id="a_node17"><a xlink:href="../../d6/d38/vtoolsplinepath_8h.html" target="_top" xlink:title=" ">
<polygon fill="white" stroke="black" points="1250,-251 1250,-292 1367,-292 1367,-251 1250,-251"/>
<text text-anchor="start" x="1258" y="-280" font-family="Helvetica,sans-Serif" font-size="10.00">src/libs/vtools/tools</text>
<text text-anchor="start" x="1258" y="-269" font-family="Helvetica,sans-Serif" font-size="10.00">/drawTools/toolcurve</text>
<text text-anchor="middle" x="1308.5" y="-258" font-family="Helvetica,sans-Serif" font-size="10.00">/vtoolsplinepath.h</text>
</a>
</g>
</g>
<!-- Node1&#45;&gt;Node17 -->
<g id="edge26" class="edge">
<title>Node1&#45;&gt;Node17</title>
<path fill="none" stroke="midnightblue" d="M843.22,-345.79C924.11,-335.83 1062.41,-317.89 1180.5,-298 1203.18,-294.18 1228,-289.38 1249.69,-284.98"/>
<polygon fill="midnightblue" stroke="midnightblue" points="842.66,-342.33 833.16,-347.02 843.51,-349.28 842.66,-342.33"/>
</g>
<!-- Node18 -->
<g id="node18" class="node">
<title>Node18</title>
<g id="a_node18"><a xlink:href="../../d8/d1f/vtoolsplinepath_8cpp.html" target="_top" xlink:title=" ">
<polygon fill="white" stroke="black" points="1464,-162 1464,-203 1581,-203 1581,-162 1464,-162"/>
<text text-anchor="start" x="1472" y="-191" font-family="Helvetica,sans-Serif" font-size="10.00">src/libs/vtools/tools</text>
<text text-anchor="start" x="1472" y="-180" font-family="Helvetica,sans-Serif" font-size="10.00">/drawTools/toolcurve</text>
<text text-anchor="middle" x="1522.5" y="-169" font-family="Helvetica,sans-Serif" font-size="10.00">/vtoolsplinepath.cpp</text>
</a>
</g>
</g>
<!-- Node1&#45;&gt;Node18 -->
<g id="edge30" class="edge">
<title>Node1&#45;&gt;Node18</title>
<path fill="none" stroke="midnightblue" d="M843.57,-352.41C980.27,-348.49 1280.32,-335.72 1375.5,-298 1429.03,-276.78 1479.19,-229.72 1504.78,-203"/>
<polygon fill="midnightblue" stroke="midnightblue" points="843.12,-348.92 833.22,-352.7 843.32,-355.92 843.12,-348.92"/>
</g>
<!-- Node20 -->
<g id="node20" class="node">
<title>Node20</title>
<g id="a_node20"><a xlink:href="../../d7/d7d/vtoolcut_8h.html" target="_top" xlink:title=" ">
<polygon fill="white" stroke="black" points="1831,-245.5 1831,-297.5 1960,-297.5 1960,-245.5 1831,-245.5"/>
<text text-anchor="start" x="1839" y="-285.5" font-family="Helvetica,sans-Serif" font-size="10.00">src/libs/vtools/tools</text>
<text text-anchor="start" x="1839" y="-274.5" font-family="Helvetica,sans-Serif" font-size="10.00">/drawTools/toolpoint</text>
<text text-anchor="start" x="1839" y="-263.5" font-family="Helvetica,sans-Serif" font-size="10.00">/toolsinglepoint/toolcut</text>
<text text-anchor="middle" x="1895.5" y="-252.5" font-family="Helvetica,sans-Serif" font-size="10.00">/vtoolcut.h</text>
</a>
</g>
</g>
<!-- Node1&#45;&gt;Node20 -->
<g id="edge32" class="edge">
<title>Node1&#45;&gt;Node20</title>
<path fill="none" stroke="midnightblue" d="M843.37,-348.99C1045.37,-334.31 1634.35,-291.49 1830.84,-277.2"/>
<polygon fill="midnightblue" stroke="midnightblue" points="842.91,-345.52 833.19,-349.73 843.42,-352.5 842.91,-345.52"/>
</g>
<!-- Node5&#45;&gt;Node4 -->
<g id="edge7" class="edge">
<title>Node5&#45;&gt;Node4</title>
<path fill="none" stroke="midnightblue" d="M594.5,-240.44C594.5,-228.1 594.5,-214.16 594.5,-203.16"/>
<polygon fill="midnightblue" stroke="midnightblue" points="591,-240.76 594.5,-250.76 598,-240.76 591,-240.76"/>
</g>
<!-- Node6 -->
<g id="node6" class="node">
<title>Node6</title>
<g id="a_node6"><a xlink:href="../../d4/d56/drawtools_8h.html" target="_top" xlink:title=" ">
<polygon fill="white" stroke="black" points="925.5,-78.5 925.5,-108.5 1053.5,-108.5 1053.5,-78.5 925.5,-78.5"/>
<text text-anchor="start" x="933.5" y="-96.5" font-family="Helvetica,sans-Serif" font-size="10.00">src/libs/vtools/tools</text>
<text text-anchor="middle" x="989.5" y="-85.5" font-family="Helvetica,sans-Serif" font-size="10.00">/drawTools/drawtools.h</text>
</a>
</g>
</g>
<!-- Node5&#45;&gt;Node6 -->
<g id="edge5" class="edge">
<title>Node5&#45;&gt;Node6</title>
<path fill="none" stroke="midnightblue" d="M627.11,-244.38C640.18,-233.65 655.26,-220.96 668.5,-209 693.45,-186.46 693.01,-172.16 722.5,-156 786.22,-121.09 868.96,-105.94 925.33,-99.4"/>
<polygon fill="midnightblue" stroke="midnightblue" points="624.8,-241.74 619.26,-250.78 629.22,-247.17 624.8,-241.74"/>
</g>
<!-- Node7 -->
<g id="node7" class="node">
<title>Node7</title>
<g id="a_node7"><a xlink:href="../../d5/da5/tools_8h.html" target="_top" xlink:title=" ">
<polygon fill="white" stroke="black" points="934,-0.5 934,-30.5 1045,-30.5 1045,-0.5 934,-0.5"/>
<text text-anchor="start" x="942" y="-18.5" font-family="Helvetica,sans-Serif" font-size="10.00">src/libs/vtools/tools</text>
<text text-anchor="middle" x="989.5" y="-7.5" font-family="Helvetica,sans-Serif" font-size="10.00">/tools.h</text>
</a>
</g>
</g>
<!-- Node6&#45;&gt;Node7 -->
<g id="edge6" class="edge">
<title>Node6&#45;&gt;Node7</title>
<path fill="none" stroke="midnightblue" d="M989.5,-68.09C989.5,-55.76 989.5,-41.22 989.5,-30.73"/>
<polygon fill="midnightblue" stroke="midnightblue" points="986,-68.2 989.5,-78.2 993,-68.21 986,-68.2"/>
</g>
<!-- Node8&#45;&gt;Node6 -->
<g id="edge9" class="edge">
<title>Node8&#45;&gt;Node6</title>
<path fill="none" stroke="midnightblue" d="M371.89,-240.69C365.65,-214.95 362.02,-178.47 382.5,-156 418.58,-116.42 776.52,-101 925.23,-96.26"/>
<polygon fill="midnightblue" stroke="midnightblue" points="368.6,-241.9 374.57,-250.65 375.36,-240.08 368.6,-241.9"/>
</g>
<!-- Node8&#45;&gt;Node9 -->
<g id="edge10" class="edge">
<title>Node8&#45;&gt;Node9</title>
<path fill="none" stroke="midnightblue" d="M403.9,-242.67C414.25,-229.8 426.29,-214.83 435.68,-203.16"/>
<polygon fill="midnightblue" stroke="midnightblue" points="400.93,-240.77 397.38,-250.76 406.38,-245.16 400.93,-240.77"/>
</g>
<!-- Node10&#45;&gt;Node6 -->
<g id="edge13" class="edge">
<title>Node10&#45;&gt;Node6</title>
<path fill="none" stroke="midnightblue" d="M184.96,-241.4C173.59,-215.64 163.45,-178.72 184.5,-156 234.48,-102.05 743.56,-95.23 925.39,-94.52"/>
<polygon fill="midnightblue" stroke="midnightblue" points="181.9,-243.11 189.32,-250.67 188.23,-240.13 181.9,-243.11"/>
</g>
<!-- Node10&#45;&gt;Node11 -->
<g id="edge14" class="edge">
<title>Node10&#45;&gt;Node11</title>
<path fill="none" stroke="midnightblue" d="M220.98,-242.67C230.44,-229.8 241.45,-214.83 250.03,-203.16"/>
<polygon fill="midnightblue" stroke="midnightblue" points="218.13,-240.63 215.02,-250.76 223.77,-244.78 218.13,-240.63"/>
</g>
<!-- Node12&#45;&gt;Node6 -->
<g id="edge17" class="edge">
<title>Node12&#45;&gt;Node6</title>
<path fill="none" stroke="midnightblue" d="M903.48,-240.6C903.14,-216.42 905.65,-182.23 919.5,-156 930.07,-135.97 950.02,-119.46 965.92,-108.6"/>
<polygon fill="midnightblue" stroke="midnightblue" points="899.99,-240.72 903.8,-250.61 906.98,-240.5 899.99,-240.72"/>
</g>
<!-- Node12&#45;&gt;Node13 -->
<g id="edge18" class="edge">
<title>Node12&#45;&gt;Node13</title>
<path fill="none" stroke="midnightblue" d="M931.67,-243.4C944.24,-230.37 959.04,-215.05 970.51,-203.16"/>
<polygon fill="midnightblue" stroke="midnightblue" points="928.99,-241.13 924.56,-250.76 934.02,-246 928.99,-241.13"/>
</g>
<!-- Node14&#45;&gt;Node3 -->
<g id="edge20" class="edge">
<title>Node14&#45;&gt;Node3</title>
<path fill="none" stroke="midnightblue" d="M757.04,-243.4C769.32,-230.37 783.76,-215.05 794.97,-203.16"/>
<polygon fill="midnightblue" stroke="midnightblue" points="754.42,-241.08 750.11,-250.76 759.51,-245.88 754.42,-241.08"/>
</g>
<!-- Node14&#45;&gt;Node6 -->
<g id="edge21" class="edge">
<title>Node14&#45;&gt;Node6</title>
<path fill="none" stroke="midnightblue" d="M726.6,-240.59C724.2,-215.03 725.33,-178.87 745.5,-156 769.01,-129.34 861.25,-111.72 925.32,-102.42"/>
<polygon fill="midnightblue" stroke="midnightblue" points="723.16,-241.3 727.79,-250.83 730.11,-240.49 723.16,-241.3"/>
</g>
<!-- Node15&#45;&gt;Node6 -->
<g id="edge23" class="edge">
<title>Node15&#45;&gt;Node6</title>
<path fill="none" stroke="midnightblue" d="M1079.65,-240.93C1078.57,-216.69 1074.21,-182.21 1059.5,-156 1048.34,-136.11 1028.23,-119.47 1012.43,-108.54"/>
<polygon fill="midnightblue" stroke="midnightblue" points="1076.15,-241.07 1079.94,-250.97 1083.15,-240.87 1076.15,-241.07"/>
</g>
<!-- Node15&#45;&gt;Node16 -->
<g id="edge24" class="edge">
<title>Node15&#45;&gt;Node16</title>
<path fill="none" stroke="midnightblue" d="M1106.29,-243.4C1119.17,-230.37 1134.31,-215.05 1146.06,-203.16"/>
<polygon fill="midnightblue" stroke="midnightblue" points="1103.56,-241.19 1099.01,-250.76 1108.53,-246.11 1103.56,-241.19"/>
</g>
<!-- Node17&#45;&gt;Node6 -->
<g id="edge27" class="edge">
<title>Node17&#45;&gt;Node6</title>
<path fill="none" stroke="midnightblue" d="M1291.34,-242.41C1271.58,-210.44 1240.77,-161.86 1232.5,-156 1179.59,-118.52 1105.95,-103.83 1053.64,-98.11"/>
<polygon fill="midnightblue" stroke="midnightblue" points="1288.37,-244.26 1296.59,-250.94 1294.33,-240.59 1288.37,-244.26"/>
</g>
<!-- Node17&#45;&gt;Node18 -->
<g id="edge28" class="edge">
<title>Node17&#45;&gt;Node18</title>
<path fill="none" stroke="midnightblue" d="M1365.84,-247.19C1399.71,-233.42 1442.12,-216.18 1474.26,-203.11"/>
<polygon fill="midnightblue" stroke="midnightblue" points="1364.47,-243.97 1356.53,-250.98 1367.11,-250.45 1364.47,-243.97"/>
</g>
<!-- Node19 -->
<g id="node19" class="node">
<title>Node19</title>
<g id="a_node19"><a xlink:href="../../dc/d3d/movesplinepath_8cpp.html" target="_top" xlink:title=" ">
<polygon fill="white" stroke="black" points="1281,-167.5 1281,-197.5 1446,-197.5 1446,-167.5 1281,-167.5"/>
<text text-anchor="start" x="1289" y="-185.5" font-family="Helvetica,sans-Serif" font-size="10.00">src/libs/vtools/undocommands</text>
<text text-anchor="middle" x="1363.5" y="-174.5" font-family="Helvetica,sans-Serif" font-size="10.00">/movesplinepath.cpp</text>
</a>
</g>
</g>
<!-- Node17&#45;&gt;Node19 -->
<g id="edge29" class="edge">
<title>Node17&#45;&gt;Node19</title>
<path fill="none" stroke="midnightblue" d="M1326.55,-241.95C1335.91,-227.14 1346.94,-209.69 1354.5,-197.74"/>
<polygon fill="midnightblue" stroke="midnightblue" points="1323.37,-240.44 1320.98,-250.76 1329.28,-244.18 1323.37,-240.44"/>
</g>
<!-- Node21 -->
<g id="node21" class="node">
<title>Node21</title>
<g id="a_node21"><a xlink:href="../../d2/dc5/vtoolcut_8cpp.html" target="_top" xlink:title=" ">
<polygon fill="white" stroke="black" points="1971,-156.5 1971,-208.5 2100,-208.5 2100,-156.5 1971,-156.5"/>
<text text-anchor="start" x="1979" y="-196.5" font-family="Helvetica,sans-Serif" font-size="10.00">src/libs/vtools/tools</text>
<text text-anchor="start" x="1979" y="-185.5" font-family="Helvetica,sans-Serif" font-size="10.00">/drawTools/toolpoint</text>
<text text-anchor="start" x="1979" y="-174.5" font-family="Helvetica,sans-Serif" font-size="10.00">/toolsinglepoint/toolcut</text>
<text text-anchor="middle" x="2035.5" y="-163.5" font-family="Helvetica,sans-Serif" font-size="10.00">/vtoolcut.cpp</text>
</a>
</g>
</g>
<!-- Node20&#45;&gt;Node21 -->
<g id="edge33" class="edge">
<title>Node20&#45;&gt;Node21</title>
<path fill="none" stroke="midnightblue" d="M1944.92,-239.79C1961.35,-229.58 1979.43,-218.34 1995.1,-208.61"/>
<polygon fill="midnightblue" stroke="midnightblue" points="1942.64,-237.09 1935.99,-245.34 1946.33,-243.03 1942.64,-237.09"/>
</g>
<!-- Node22 -->
<g id="node22" class="node">
<title>Node22</title>
<g id="a_node22"><a xlink:href="../../d5/dbe/vtoolcutarc_8h.html" target="_top" xlink:title=" ">
<polygon fill="white" stroke="black" points="1599,-156.5 1599,-208.5 1728,-208.5 1728,-156.5 1599,-156.5"/>
<text text-anchor="start" x="1607" y="-196.5" font-family="Helvetica,sans-Serif" font-size="10.00">src/libs/vtools/tools</text>
<text text-anchor="start" x="1607" y="-185.5" font-family="Helvetica,sans-Serif" font-size="10.00">/drawTools/toolpoint</text>
<text text-anchor="start" x="1607" y="-174.5" font-family="Helvetica,sans-Serif" font-size="10.00">/toolsinglepoint/toolcut</text>
<text text-anchor="middle" x="1663.5" y="-163.5" font-family="Helvetica,sans-Serif" font-size="10.00">/vtoolcutarc.h</text>
</a>
</g>
</g>
<!-- Node20&#45;&gt;Node22 -->
<g id="edge34" class="edge">
<title>Node20&#45;&gt;Node22</title>
<path fill="none" stroke="midnightblue" d="M1821.31,-242.68C1791.35,-231.45 1757.1,-218.6 1728.18,-207.76"/>
<polygon fill="midnightblue" stroke="midnightblue" points="1820.28,-246.03 1830.88,-246.27 1822.74,-239.48 1820.28,-246.03"/>
</g>
<!-- Node23 -->
<g id="node23" class="node">
<title>Node23</title>
<g id="a_node23"><a xlink:href="../../dc/db5/vtoolcutarc_8cpp.html" target="_top" xlink:title=" ">
<polygon fill="white" stroke="black" points="1618,-67.5 1618,-119.5 1747,-119.5 1747,-67.5 1618,-67.5"/>
<text text-anchor="start" x="1626" y="-107.5" font-family="Helvetica,sans-Serif" font-size="10.00">src/libs/vtools/tools</text>
<text text-anchor="start" x="1626" y="-96.5" font-family="Helvetica,sans-Serif" font-size="10.00">/drawTools/toolpoint</text>
<text text-anchor="start" x="1626" y="-85.5" font-family="Helvetica,sans-Serif" font-size="10.00">/toolsinglepoint/toolcut</text>
<text text-anchor="middle" x="1682.5" y="-74.5" font-family="Helvetica,sans-Serif" font-size="10.00">/vtoolcutarc.cpp</text>
</a>
</g>
</g>
<!-- Node20&#45;&gt;Node23 -->
<g id="edge37" class="edge">
<title>Node20&#45;&gt;Node23</title>
<path fill="none" stroke="midnightblue" d="M1823.92,-240.66C1807.08,-231.85 1789.87,-221.22 1775.5,-209 1753.23,-190.05 1754.83,-178.79 1736.5,-156 1726.61,-143.71 1715.15,-130.52 1705.33,-119.51"/>
<polygon fill="midnightblue" stroke="midnightblue" points="1822.72,-243.98 1833.22,-245.37 1825.88,-237.73 1822.72,-243.98"/>
</g>
<!-- Node24 -->
<g id="node24" class="node">
<title>Node24</title>
<g id="a_node24"><a xlink:href="../../da/dae/vtoolcutspline_8cpp.html" target="_top" xlink:title=" ">
<polygon fill="white" stroke="black" points="1816,-67.5 1816,-119.5 1945,-119.5 1945,-67.5 1816,-67.5"/>
<text text-anchor="start" x="1824" y="-107.5" font-family="Helvetica,sans-Serif" font-size="10.00">src/libs/vtools/tools</text>
<text text-anchor="start" x="1824" y="-96.5" font-family="Helvetica,sans-Serif" font-size="10.00">/drawTools/toolpoint</text>
<text text-anchor="start" x="1824" y="-85.5" font-family="Helvetica,sans-Serif" font-size="10.00">/toolsinglepoint/toolcut</text>
<text text-anchor="middle" x="1880.5" y="-74.5" font-family="Helvetica,sans-Serif" font-size="10.00">/vtoolcutspline.cpp</text>
</a>
</g>
</g>
<!-- Node20&#45;&gt;Node24 -->
<g id="edge38" class="edge">
<title>Node20&#45;&gt;Node24</title>
<path fill="none" stroke="midnightblue" d="M1913.63,-235.95C1917.3,-227.37 1920.6,-218.04 1922.5,-209 1927.34,-185.95 1929.45,-178.51 1922.5,-156 1918.46,-142.91 1910.56,-130.11 1902.69,-119.61"/>
<polygon fill="midnightblue" stroke="midnightblue" points="1910.35,-234.71 1909.4,-245.26 1916.73,-237.6 1910.35,-234.71"/>
</g>
<!-- Node25 -->
<g id="node25" class="node">
<title>Node25</title>
<g id="a_node25"><a xlink:href="../../d6/d9d/vtoolcutsplinepath_8h.html" target="_top" xlink:title=" ">
<polygon fill="white" stroke="black" points="2157,-156.5 2157,-208.5 2286,-208.5 2286,-156.5 2157,-156.5"/>
<text text-anchor="start" x="2165" y="-196.5" font-family="Helvetica,sans-Serif" font-size="10.00">src/libs/vtools/tools</text>
<text text-anchor="start" x="2165" y="-185.5" font-family="Helvetica,sans-Serif" font-size="10.00">/drawTools/toolpoint</text>
<text text-anchor="start" x="2165" y="-174.5" font-family="Helvetica,sans-Serif" font-size="10.00">/toolsinglepoint/toolcut</text>
<text text-anchor="middle" x="2221.5" y="-163.5" font-family="Helvetica,sans-Serif" font-size="10.00">/vtoolcutsplinepath.h</text>
</a>
</g>
</g>
<!-- Node20&#45;&gt;Node25 -->
<g id="edge39" class="edge">
<title>Node20&#45;&gt;Node25</title>
<path fill="none" stroke="midnightblue" d="M1969.97,-253.36C2019.17,-241.69 2084.96,-225.43 2142.5,-209 2147.21,-207.65 2152.07,-206.22 2156.94,-204.73"/>
<polygon fill="midnightblue" stroke="midnightblue" points="1968.98,-250 1960.05,-255.7 1970.59,-256.81 1968.98,-250"/>
</g>
<!-- Node26 -->
<g id="node26" class="node">
<title>Node26</title>
<g id="a_node26"><a xlink:href="../../d1/ddf/vtoolcutsplinepath_8cpp.html" target="_top" xlink:title=" ">
<polygon fill="white" stroke="black" points="2028,-67.5 2028,-119.5 2159,-119.5 2159,-67.5 2028,-67.5"/>
<text text-anchor="start" x="2036" y="-107.5" font-family="Helvetica,sans-Serif" font-size="10.00">src/libs/vtools/tools</text>
<text text-anchor="start" x="2036" y="-96.5" font-family="Helvetica,sans-Serif" font-size="10.00">/drawTools/toolpoint</text>
<text text-anchor="start" x="2036" y="-85.5" font-family="Helvetica,sans-Serif" font-size="10.00">/toolsinglepoint/toolcut</text>
<text text-anchor="middle" x="2093.5" y="-74.5" font-family="Helvetica,sans-Serif" font-size="10.00">/vtoolcutsplinepath.cpp</text>
</a>
</g>
</g>
<!-- Node20&#45;&gt;Node26 -->
<g id="edge44" class="edge">
<title>Node20&#45;&gt;Node26</title>
<path fill="none" stroke="midnightblue" d="M1970.16,-258.66C2024.57,-248.34 2091.59,-231.48 2108.5,-209 2127.78,-183.36 2117.1,-145.05 2106.38,-119.91"/>
<polygon fill="midnightblue" stroke="midnightblue" points="1969.35,-255.25 1960.16,-260.52 1970.63,-262.14 1969.35,-255.25"/>
</g>
<!-- Node29 -->
<g id="node29" class="node">
<title>Node29</title>
<g id="a_node29"><a xlink:href="../../d7/dea/vtoolcutspline_8h.html" target="_top" xlink:title=" ">
<polygon fill="white" stroke="black" points="1785,-156.5 1785,-208.5 1914,-208.5 1914,-156.5 1785,-156.5"/>
<text text-anchor="start" x="1793" y="-196.5" font-family="Helvetica,sans-Serif" font-size="10.00">src/libs/vtools/tools</text>
<text text-anchor="start" x="1793" y="-185.5" font-family="Helvetica,sans-Serif" font-size="10.00">/drawTools/toolpoint</text>
<text text-anchor="start" x="1793" y="-174.5" font-family="Helvetica,sans-Serif" font-size="10.00">/toolsinglepoint/toolcut</text>
<text text-anchor="middle" x="1849.5" y="-163.5" font-family="Helvetica,sans-Serif" font-size="10.00">/vtoolcutspline.h</text>
</a>
</g>
</g>
<!-- Node20&#45;&gt;Node29 -->
<g id="edge45" class="edge">
<title>Node20&#45;&gt;Node29</title>
<path fill="none" stroke="midnightblue" d="M1877.44,-236.35C1872.55,-227.1 1867.35,-217.26 1862.78,-208.61"/>
<polygon fill="midnightblue" stroke="midnightblue" points="1874.43,-238.13 1882.19,-245.34 1880.61,-234.86 1874.43,-238.13"/>
</g>
<!-- Node22&#45;&gt;Node6 -->
<g id="edge35" class="edge">
<title>Node22&#45;&gt;Node6</title>
<path fill="none" stroke="midnightblue" d="M1588.72,-156.06C1389.81,-113.23 1162.57,-100.28 1053.76,-96.26"/>
<polygon fill="midnightblue" stroke="midnightblue" points="1588.25,-159.54 1598.77,-158.25 1589.75,-152.7 1588.25,-159.54"/>
</g>
<!-- Node22&#45;&gt;Node23 -->
<g id="edge36" class="edge">
<title>Node22&#45;&gt;Node23</title>
<path fill="none" stroke="midnightblue" d="M1671.15,-146.48C1673.11,-137.49 1675.19,-127.99 1677.02,-119.61"/>
<polygon fill="midnightblue" stroke="midnightblue" points="1667.71,-145.82 1669,-156.34 1674.55,-147.31 1667.71,-145.82"/>
</g>
<!-- Node25&#45;&gt;Node6 -->
<g id="edge40" class="edge">
<title>Node25&#45;&gt;Node6</title>
<path fill="none" stroke="midnightblue" d="M2146.66,-162.77C2133.99,-160.13 2120.92,-157.73 2108.5,-156 2004.2,-141.47 1275.99,-107.53 1053.75,-97.4"/>
<polygon fill="midnightblue" stroke="midnightblue" points="2146.2,-166.25 2156.71,-164.93 2147.67,-159.41 2146.2,-166.25"/>
</g>
<!-- Node25&#45;&gt;Node26 -->
<g id="edge41" class="edge">
<title>Node25&#45;&gt;Node26</title>
<path fill="none" stroke="midnightblue" d="M2175.9,-150.5C2160.99,-140.37 2144.63,-129.25 2130.44,-119.61"/>
<polygon fill="midnightblue" stroke="midnightblue" points="2174.24,-153.61 2184.48,-156.34 2178.17,-147.82 2174.24,-153.61"/>
</g>
<!-- Node27 -->
<g id="node27" class="node">
<title>Node27</title>
<g id="a_node27"><a xlink:href="../../da/d99/vtoolcurveintersectaxis_8cpp.html" target="_top" xlink:title=" ">
<polygon fill="white" stroke="black" points="2177,-67.5 2177,-119.5 2334,-119.5 2334,-67.5 2177,-67.5"/>
<text text-anchor="start" x="2185" y="-107.5" font-family="Helvetica,sans-Serif" font-size="10.00">src/libs/vtools/tools</text>
<text text-anchor="start" x="2185" y="-96.5" font-family="Helvetica,sans-Serif" font-size="10.00">/drawTools/toolpoint</text>
<text text-anchor="start" x="2185" y="-85.5" font-family="Helvetica,sans-Serif" font-size="10.00">/toolsinglepoint/toollinepoint</text>
<text text-anchor="middle" x="2255.5" y="-74.5" font-family="Helvetica,sans-Serif" font-size="10.00">/vtoolcurveintersectaxis.cpp</text>
</a>
</g>
</g>
<!-- Node25&#45;&gt;Node27 -->
<g id="edge42" class="edge">
<title>Node25&#45;&gt;Node27</title>
<path fill="none" stroke="midnightblue" d="M2235.07,-146.77C2238.62,-137.69 2242.38,-128.08 2245.69,-119.61"/>
<polygon fill="midnightblue" stroke="midnightblue" points="2231.71,-145.75 2231.33,-156.34 2238.23,-148.3 2231.71,-145.75"/>
</g>
<!-- Node28 -->
<g id="node28" class="node">
<title>Node28</title>
<g id="a_node28"><a xlink:href="../../d7/d3d/vistoolcutsplinepath_8cpp.html" target="_top" xlink:title=" ">
<polygon fill="white" stroke="black" points="2352.5,-78.5 2352.5,-108.5 2516.5,-108.5 2516.5,-78.5 2352.5,-78.5"/>
<text text-anchor="start" x="2360.5" y="-96.5" font-family="Helvetica,sans-Serif" font-size="10.00">src/libs/vtools/visualization</text>
<text text-anchor="middle" x="2434.5" y="-85.5" font-family="Helvetica,sans-Serif" font-size="10.00">/path/vistoolcutsplinepath.cpp</text>
</a>
</g>
</g>
<!-- Node25&#45;&gt;Node28 -->
<g id="edge43" class="edge">
<title>Node25&#45;&gt;Node28</title>
<path fill="none" stroke="midnightblue" d="M2292.38,-152.55C2328.62,-137.75 2371.08,-120.4 2400.09,-108.55"/>
<polygon fill="midnightblue" stroke="midnightblue" points="2290.76,-149.43 2282.82,-156.45 2293.4,-155.91 2290.76,-149.43"/>
</g>
<!-- Node29&#45;&gt;Node6 -->
<g id="edge46" class="edge">
<title>Node29&#45;&gt;Node6</title>
<path fill="none" stroke="midnightblue" d="M1774.85,-163.11C1762.11,-160.42 1748.97,-157.91 1736.5,-156 1485.68,-117.57 1183.55,-102 1053.8,-96.77"/>
<polygon fill="midnightblue" stroke="midnightblue" points="1774.45,-166.6 1784.96,-165.3 1775.93,-159.76 1774.45,-166.6"/>
</g>
<!-- Node29&#45;&gt;Node24 -->
<g id="edge47" class="edge">
<title>Node29&#45;&gt;Node24</title>
<path fill="none" stroke="midnightblue" d="M1861.87,-146.77C1865.11,-137.69 1868.54,-128.08 1871.55,-119.61"/>
<polygon fill="midnightblue" stroke="midnightblue" points="1858.53,-145.74 1858.47,-156.34 1865.12,-148.09 1858.53,-145.74"/>
</g>
</g>
</svg>
