<?xml version="1.0" encoding="UTF-8" standalone="no"?>
<!DOCTYPE svg PUBLIC "-//W3C//DTD SVG 1.1//EN"
 "http://www.w3.org/Graphics/SVG/1.1/DTD/svg11.dtd">
<!-- Generated by graphviz version 2.43.0 (0)
 -->
<!-- Title: src/libs/vtools/tools/drawTools/toolcurve/vabstractspline.h Pages: 1 -->
<svg width="2465pt" height="384pt"
 viewBox="0.00 0.00 2464.50 384.00" xmlns="http://www.w3.org/2000/svg" xmlns:xlink="http://www.w3.org/1999/xlink">
<g id="graph0" class="graph" transform="scale(1 1) rotate(0) translate(4 380)">
<title>src/libs/vtools/tools/drawTools/toolcurve/vabstractspline.h</title>
<polygon fill="white" stroke="transparent" points="-4,4 -4,-380 2460.5,-380 2460.5,4 -4,4"/>
<!-- Node1 -->
<g id="node1" class="node">
<title>Node1</title>
<g id="a_node1"><a xlink:title=" ">
<polygon fill="#bfbfbf" stroke="black" points="716,-334.5 716,-375.5 833,-375.5 833,-334.5 716,-334.5"/>
<text text-anchor="start" x="724" y="-363.5" font-family="Helvetica,sans-Serif" font-size="10.00">src/libs/vtools/tools</text>
<text text-anchor="start" x="724" y="-352.5" font-family="Helvetica,sans-Serif" font-size="10.00">/drawTools/toolcurve</text>
<text text-anchor="middle" x="774.5" y="-341.5" font-family="Helvetica,sans-Serif" font-size="10.00">/vabstractspline.h</text>
</a>
</g>
</g>
<!-- Node2 -->
<g id="node2" class="node">
<title>Node2</title>
<g id="a_node2"><a xlink:href="../../d1/d05/vabstractspline_8cpp.html" target="_top" xlink:title=" ">
<polygon fill="white" stroke="black" points="0,-251 0,-292 117,-292 117,-251 0,-251"/>
<text text-anchor="start" x="8" y="-280" font-family="Helvetica,sans-Serif" font-size="10.00">src/libs/vtools/tools</text>
<text text-anchor="start" x="8" y="-269" font-family="Helvetica,sans-Serif" font-size="10.00">/drawTools/toolcurve</text>
<text text-anchor="middle" x="58.5" y="-258" font-family="Helvetica,sans-Serif" font-size="10.00">/vabstractspline.cpp</text>
</a>
</g>
</g>
<!-- Node1&#45;&gt;Node2 -->
<g id="edge1" class="edge">
<title>Node1&#45;&gt;Node2</title>
<path fill="none" stroke="midnightblue" d="M705.83,-354.28C586.32,-353.41 333.05,-345.47 125.5,-298 118.71,-296.45 111.68,-294.35 104.84,-292.03"/>
<polygon fill="midnightblue" stroke="midnightblue" points="705.91,-357.78 715.93,-354.34 705.95,-350.78 705.91,-357.78"/>
</g>
<!-- Node3 -->
<g id="node3" class="node">
<title>Node3</title>
<g id="a_node3"><a xlink:href="../../d2/d9b/vtoolarc_8cpp.html" target="_top" xlink:title=" ">
<polygon fill="white" stroke="black" points="134,-162 134,-203 251,-203 251,-162 134,-162"/>
<text text-anchor="start" x="142" y="-191" font-family="Helvetica,sans-Serif" font-size="10.00">src/libs/vtools/tools</text>
<text text-anchor="start" x="142" y="-180" font-family="Helvetica,sans-Serif" font-size="10.00">/drawTools/toolcurve</text>
<text text-anchor="middle" x="192.5" y="-169" font-family="Helvetica,sans-Serif" font-size="10.00">/vtoolarc.cpp</text>
</a>
</g>
</g>
<!-- Node1&#45;&gt;Node3 -->
<g id="edge2" class="edge">
<title>Node1&#45;&gt;Node3</title>
<path fill="none" stroke="midnightblue" d="M705.28,-352.1C591.54,-347.94 370.99,-335.2 303.5,-298 276.94,-283.36 281.37,-267.02 260.5,-245 246.48,-230.21 229.48,-214.84 215.99,-203.16"/>
<polygon fill="midnightblue" stroke="midnightblue" points="705.49,-355.61 715.61,-352.46 705.74,-348.61 705.49,-355.61"/>
</g>
<!-- Node4 -->
<g id="node4" class="node">
<title>Node4</title>
<g id="a_node4"><a xlink:href="../../d3/d19/vtoolarc_8h.html" target="_top" xlink:title=" ">
<polygon fill="white" stroke="black" points="135,-251 135,-292 252,-292 252,-251 135,-251"/>
<text text-anchor="start" x="143" y="-280" font-family="Helvetica,sans-Serif" font-size="10.00">src/libs/vtools/tools</text>
<text text-anchor="start" x="143" y="-269" font-family="Helvetica,sans-Serif" font-size="10.00">/drawTools/toolcurve</text>
<text text-anchor="middle" x="193.5" y="-258" font-family="Helvetica,sans-Serif" font-size="10.00">/vtoolarc.h</text>
</a>
</g>
</g>
<!-- Node1&#45;&gt;Node4 -->
<g id="edge3" class="edge">
<title>Node1&#45;&gt;Node4</title>
<path fill="none" stroke="midnightblue" d="M705.84,-351.03C607.98,-345.75 423.21,-331.9 269.5,-298 262.16,-296.38 254.54,-294.31 247.07,-292.05"/>
<polygon fill="midnightblue" stroke="midnightblue" points="705.73,-354.53 715.9,-351.56 706.1,-347.54 705.73,-354.53"/>
</g>
<!-- Node7 -->
<g id="node7" class="node">
<title>Node7</title>
<g id="a_node7"><a xlink:href="../../de/dd9/vtoolarcwithlength_8h.html" target="_top" xlink:title=" ">
<polygon fill="white" stroke="black" points="312.5,-251 312.5,-292 432.5,-292 432.5,-251 312.5,-251"/>
<text text-anchor="start" x="320.5" y="-280" font-family="Helvetica,sans-Serif" font-size="10.00">src/libs/vtools/tools</text>
<text text-anchor="start" x="320.5" y="-269" font-family="Helvetica,sans-Serif" font-size="10.00">/drawTools/toolcurve</text>
<text text-anchor="middle" x="372.5" y="-258" font-family="Helvetica,sans-Serif" font-size="10.00">/vtoolarcwithlength.h</text>
</a>
</g>
</g>
<!-- Node1&#45;&gt;Node7 -->
<g id="edge7" class="edge">
<title>Node1&#45;&gt;Node7</title>
<path fill="none" stroke="midnightblue" d="M705.84,-345.59C639,-336.63 534.87,-320.61 446.5,-298 439.79,-296.28 432.81,-294.24 425.94,-292.06"/>
<polygon fill="midnightblue" stroke="midnightblue" points="705.46,-349.07 715.83,-346.92 706.38,-342.13 705.46,-349.07"/>
</g>
<!-- Node8 -->
<g id="node8" class="node">
<title>Node8</title>
<g id="a_node8"><a xlink:href="../../d3/d33/vtoolarcwithlength_8cpp.html" target="_top" xlink:title=" ">
<polygon fill="white" stroke="black" points="308,-162 308,-203 439,-203 439,-162 308,-162"/>
<text text-anchor="start" x="316" y="-191" font-family="Helvetica,sans-Serif" font-size="10.00">src/libs/vtools/tools</text>
<text text-anchor="start" x="316" y="-180" font-family="Helvetica,sans-Serif" font-size="10.00">/drawTools/toolcurve</text>
<text text-anchor="middle" x="373.5" y="-169" font-family="Helvetica,sans-Serif" font-size="10.00">/vtoolarcwithlength.cpp</text>
</a>
</g>
</g>
<!-- Node1&#45;&gt;Node8 -->
<g id="edge13" class="edge">
<title>Node1&#45;&gt;Node8</title>
<path fill="none" stroke="midnightblue" d="M705.87,-350.22C648.11,-344.71 564.74,-331.19 499.5,-298 468.38,-282.17 467.34,-268.49 441.5,-245 426.07,-230.97 408.63,-215.2 395.27,-203.14"/>
<polygon fill="midnightblue" stroke="midnightblue" points="705.71,-353.72 715.99,-351.13 706.34,-346.75 705.71,-353.72"/>
</g>
<!-- Node9 -->
<g id="node9" class="node">
<title>Node9</title>
<g id="a_node9"><a xlink:href="../../d4/df1/vtoolcubicbezier_8h.html" target="_top" xlink:title=" ">
<polygon fill="white" stroke="black" points="527,-251 527,-292 644,-292 644,-251 527,-251"/>
<text text-anchor="start" x="535" y="-280" font-family="Helvetica,sans-Serif" font-size="10.00">src/libs/vtools/tools</text>
<text text-anchor="start" x="535" y="-269" font-family="Helvetica,sans-Serif" font-size="10.00">/drawTools/toolcurve</text>
<text text-anchor="middle" x="585.5" y="-258" font-family="Helvetica,sans-Serif" font-size="10.00">/vtoolcubicbezier.h</text>
</a>
</g>
</g>
<!-- Node1&#45;&gt;Node9 -->
<g id="edge10" class="edge">
<title>Node1&#45;&gt;Node9</title>
<path fill="none" stroke="midnightblue" d="M719.88,-330.45C691.61,-318.26 657.51,-303.55 630.73,-292"/>
<polygon fill="midnightblue" stroke="midnightblue" points="718.66,-333.73 729.23,-334.48 721.43,-327.31 718.66,-333.73"/>
</g>
<!-- Node10 -->
<g id="node10" class="node">
<title>Node10</title>
<g id="a_node10"><a xlink:href="../../db/dcd/vtoolcubicbezier_8cpp.html" target="_top" xlink:title=" ">
<polygon fill="white" stroke="black" points="457,-162 457,-203 576,-203 576,-162 457,-162"/>
<text text-anchor="start" x="465" y="-191" font-family="Helvetica,sans-Serif" font-size="10.00">src/libs/vtools/tools</text>
<text text-anchor="start" x="465" y="-180" font-family="Helvetica,sans-Serif" font-size="10.00">/drawTools/toolcurve</text>
<text text-anchor="middle" x="516.5" y="-169" font-family="Helvetica,sans-Serif" font-size="10.00">/vtoolcubicbezier.cpp</text>
</a>
</g>
</g>
<!-- Node1&#45;&gt;Node10 -->
<g id="edge14" class="edge">
<title>Node1&#45;&gt;Node10</title>
<path fill="none" stroke="midnightblue" d="M705.65,-348.53C637.76,-341.54 540.85,-326.73 517.5,-298 495.81,-271.31 502.98,-228.4 509.91,-203.39"/>
<polygon fill="midnightblue" stroke="midnightblue" points="705.57,-352.04 715.86,-349.54 706.26,-345.07 705.57,-352.04"/>
</g>
<!-- Node11 -->
<g id="node11" class="node">
<title>Node11</title>
<g id="a_node11"><a xlink:href="../../d6/d25/vtoolcubicbezierpath_8h.html" target="_top" xlink:title=" ">
<polygon fill="white" stroke="black" points="662,-251 662,-292 793,-292 793,-251 662,-251"/>
<text text-anchor="start" x="670" y="-280" font-family="Helvetica,sans-Serif" font-size="10.00">src/libs/vtools/tools</text>
<text text-anchor="start" x="670" y="-269" font-family="Helvetica,sans-Serif" font-size="10.00">/drawTools/toolcurve</text>
<text text-anchor="middle" x="727.5" y="-258" font-family="Helvetica,sans-Serif" font-size="10.00">/vtoolcubicbezierpath.h</text>
</a>
</g>
</g>
<!-- Node1&#45;&gt;Node11 -->
<g id="edge15" class="edge">
<title>Node1&#45;&gt;Node11</title>
<path fill="none" stroke="midnightblue" d="M758,-325.39C751.64,-314.37 744.53,-302.03 738.77,-292.05"/>
<polygon fill="midnightblue" stroke="midnightblue" points="755.09,-327.36 763.12,-334.27 761.16,-323.86 755.09,-327.36"/>
</g>
<!-- Node12 -->
<g id="node12" class="node">
<title>Node12</title>
<g id="a_node12"><a xlink:href="../../d4/d49/vtoolcubicbezierpath_8cpp.html" target="_top" xlink:title=" ">
<polygon fill="white" stroke="black" points="670.5,-162 670.5,-203 812.5,-203 812.5,-162 670.5,-162"/>
<text text-anchor="start" x="678.5" y="-191" font-family="Helvetica,sans-Serif" font-size="10.00">src/libs/vtools/tools</text>
<text text-anchor="start" x="678.5" y="-180" font-family="Helvetica,sans-Serif" font-size="10.00">/drawTools/toolcurve</text>
<text text-anchor="middle" x="741.5" y="-169" font-family="Helvetica,sans-Serif" font-size="10.00">/vtoolcubicbezierpath.cpp</text>
</a>
</g>
</g>
<!-- Node1&#45;&gt;Node12 -->
<g id="edge21" class="edge">
<title>Node1&#45;&gt;Node12</title>
<path fill="none" stroke="midnightblue" d="M791.28,-325.18C802.04,-302.78 812.17,-271.23 801.5,-245 794.75,-228.42 781.15,-213.87 768.6,-203.09"/>
<polygon fill="midnightblue" stroke="midnightblue" points="788.12,-323.67 786.69,-334.17 794.35,-326.86 788.12,-323.67"/>
</g>
<!-- Node13 -->
<g id="node13" class="node">
<title>Node13</title>
<g id="a_node13"><a xlink:href="../../d5/d63/vtoolellipticalarc_8h.html" target="_top" xlink:title=" ">
<polygon fill="white" stroke="black" points="850,-251 850,-292 967,-292 967,-251 850,-251"/>
<text text-anchor="start" x="858" y="-280" font-family="Helvetica,sans-Serif" font-size="10.00">src/libs/vtools/tools</text>
<text text-anchor="start" x="858" y="-269" font-family="Helvetica,sans-Serif" font-size="10.00">/drawTools/toolcurve</text>
<text text-anchor="middle" x="908.5" y="-258" font-family="Helvetica,sans-Serif" font-size="10.00">/vtoolellipticalarc.h</text>
</a>
</g>
</g>
<!-- Node1&#45;&gt;Node13 -->
<g id="edge18" class="edge">
<title>Node1&#45;&gt;Node13</title>
<path fill="none" stroke="midnightblue" d="M815.3,-329.19C834.83,-317.3 857.9,-303.27 876.2,-292.14"/>
<polygon fill="midnightblue" stroke="midnightblue" points="813.32,-326.29 806.6,-334.48 816.96,-332.27 813.32,-326.29"/>
</g>
<!-- Node14 -->
<g id="node14" class="node">
<title>Node14</title>
<g id="a_node14"><a xlink:href="../../d8/dc7/vtoolellipticalarc_8cpp.html" target="_top" xlink:title=" ">
<polygon fill="white" stroke="black" points="868.5,-162 868.5,-203 990.5,-203 990.5,-162 868.5,-162"/>
<text text-anchor="start" x="876.5" y="-191" font-family="Helvetica,sans-Serif" font-size="10.00">src/libs/vtools/tools</text>
<text text-anchor="start" x="876.5" y="-180" font-family="Helvetica,sans-Serif" font-size="10.00">/drawTools/toolcurve</text>
<text text-anchor="middle" x="929.5" y="-169" font-family="Helvetica,sans-Serif" font-size="10.00">/vtoolellipticalarc.cpp</text>
</a>
</g>
</g>
<!-- Node1&#45;&gt;Node14 -->
<g id="edge22" class="edge">
<title>Node1&#45;&gt;Node14</title>
<path fill="none" stroke="midnightblue" d="M843.34,-343.84C894.94,-334.66 959.32,-319.3 975.5,-298 997.66,-268.83 969.69,-227.54 948.67,-203.34"/>
<polygon fill="midnightblue" stroke="midnightblue" points="842.46,-340.44 833.21,-345.6 843.66,-347.34 842.46,-340.44"/>
</g>
<!-- Node15 -->
<g id="node15" class="node">
<title>Node15</title>
<g id="a_node15"><a xlink:href="../../d0/d39/vtoolspline_8cpp.html" target="_top" xlink:title=" ">
<polygon fill="white" stroke="black" points="1404,-162 1404,-203 1521,-203 1521,-162 1404,-162"/>
<text text-anchor="start" x="1412" y="-191" font-family="Helvetica,sans-Serif" font-size="10.00">src/libs/vtools/tools</text>
<text text-anchor="start" x="1412" y="-180" font-family="Helvetica,sans-Serif" font-size="10.00">/drawTools/toolcurve</text>
<text text-anchor="middle" x="1462.5" y="-169" font-family="Helvetica,sans-Serif" font-size="10.00">/vtoolspline.cpp</text>
</a>
</g>
</g>
<!-- Node1&#45;&gt;Node15 -->
<g id="edge23" class="edge">
<title>Node1&#45;&gt;Node15</title>
<path fill="none" stroke="midnightblue" d="M843.54,-352.94C1005.62,-349.79 1400.06,-338.06 1443.5,-298 1469.57,-273.96 1468.77,-228.85 1465.73,-203.01"/>
<polygon fill="midnightblue" stroke="midnightblue" points="843.14,-349.45 833.21,-353.13 843.28,-356.45 843.14,-349.45"/>
</g>
<!-- Node16 -->
<g id="node16" class="node">
<title>Node16</title>
<g id="a_node16"><a xlink:href="../../d6/d38/vtoolsplinepath_8h.html" target="_top" xlink:title=" ">
<polygon fill="white" stroke="black" points="1048,-251 1048,-292 1165,-292 1165,-251 1048,-251"/>
<text text-anchor="start" x="1056" y="-280" font-family="Helvetica,sans-Serif" font-size="10.00">src/libs/vtools/tools</text>
<text text-anchor="start" x="1056" y="-269" font-family="Helvetica,sans-Serif" font-size="10.00">/drawTools/toolcurve</text>
<text text-anchor="middle" x="1106.5" y="-258" font-family="Helvetica,sans-Serif" font-size="10.00">/vtoolsplinepath.h</text>
</a>
</g>
</g>
<!-- Node1&#45;&gt;Node16 -->
<g id="edge24" class="edge">
<title>Node1&#45;&gt;Node16</title>
<path fill="none" stroke="midnightblue" d="M842.77,-338.17C889.73,-327.18 953.48,-312.04 1009.5,-298 1021.91,-294.89 1035.2,-291.46 1047.82,-288.16"/>
<polygon fill="midnightblue" stroke="midnightblue" points="841.96,-334.77 833.02,-340.45 843.55,-341.58 841.96,-334.77"/>
</g>
<!-- Node17 -->
<g id="node17" class="node">
<title>Node17</title>
<g id="a_node17"><a xlink:href="../../d8/d1f/vtoolsplinepath_8cpp.html" target="_top" xlink:title=" ">
<polygon fill="white" stroke="black" points="1230,-162 1230,-203 1347,-203 1347,-162 1230,-162"/>
<text text-anchor="start" x="1238" y="-191" font-family="Helvetica,sans-Serif" font-size="10.00">src/libs/vtools/tools</text>
<text text-anchor="start" x="1238" y="-180" font-family="Helvetica,sans-Serif" font-size="10.00">/drawTools/toolcurve</text>
<text text-anchor="middle" x="1288.5" y="-169" font-family="Helvetica,sans-Serif" font-size="10.00">/vtoolsplinepath.cpp</text>
</a>
</g>
</g>
<!-- Node1&#45;&gt;Node17 -->
<g id="edge28" class="edge">
<title>Node1&#45;&gt;Node17</title>
<path fill="none" stroke="midnightblue" d="M843.22,-349.61C941.59,-342.43 1116.94,-326.12 1173.5,-298 1218.15,-275.8 1256.04,-229.56 1275.16,-203.14"/>
<polygon fill="midnightblue" stroke="midnightblue" points="842.79,-346.13 833.07,-350.33 843.29,-353.11 842.79,-346.13"/>
</g>
<!-- Node19 -->
<g id="node19" class="node">
<title>Node19</title>
<g id="a_node19"><a xlink:href="../../d7/d7d/vtoolcut_8h.html" target="_top" xlink:title=" ">
<polygon fill="white" stroke="black" points="1771,-245.5 1771,-297.5 1900,-297.5 1900,-245.5 1771,-245.5"/>
<text text-anchor="start" x="1779" y="-285.5" font-family="Helvetica,sans-Serif" font-size="10.00">src/libs/vtools/tools</text>
<text text-anchor="start" x="1779" y="-274.5" font-family="Helvetica,sans-Serif" font-size="10.00">/drawTools/toolpoint</text>
<text text-anchor="start" x="1779" y="-263.5" font-family="Helvetica,sans-Serif" font-size="10.00">/toolsinglepoint/toolcut</text>
<text text-anchor="middle" x="1835.5" y="-252.5" font-family="Helvetica,sans-Serif" font-size="10.00">/vtoolcut.h</text>
</a>
</g>
</g>
<!-- Node1&#45;&gt;Node19 -->
<g id="edge29" class="edge">
<title>Node1&#45;&gt;Node19</title>
<path fill="none" stroke="midnightblue" d="M843.08,-348.73C1036.16,-333.9 1582.54,-291.93 1770.8,-277.47"/>
<polygon fill="midnightblue" stroke="midnightblue" points="842.76,-345.25 833.06,-349.5 843.29,-352.23 842.76,-345.25"/>
</g>
<!-- Node29 -->
<g id="node29" class="node">
<title>Node29</title>
<g id="a_node29"><a xlink:href="../../db/d8c/vtoolspline_8h.html" target="_top" xlink:title=" ">
<polygon fill="white" stroke="black" points="1317,-251 1317,-292 1434,-292 1434,-251 1317,-251"/>
<text text-anchor="start" x="1325" y="-280" font-family="Helvetica,sans-Serif" font-size="10.00">src/libs/vtools/tools</text>
<text text-anchor="start" x="1325" y="-269" font-family="Helvetica,sans-Serif" font-size="10.00">/drawTools/toolcurve</text>
<text text-anchor="middle" x="1375.5" y="-258" font-family="Helvetica,sans-Serif" font-size="10.00">/vtoolspline.h</text>
</a>
</g>
</g>
<!-- Node1&#45;&gt;Node29 -->
<g id="edge45" class="edge">
<title>Node1&#45;&gt;Node29</title>
<path fill="none" stroke="midnightblue" d="M843.23,-348.72C938.67,-340.81 1116.53,-323.99 1266.5,-298 1282.97,-295.15 1300.67,-291.33 1316.93,-287.53"/>
<polygon fill="midnightblue" stroke="midnightblue" points="842.81,-345.24 833.13,-349.55 843.38,-352.22 842.81,-345.24"/>
</g>
<!-- Node4&#45;&gt;Node3 -->
<g id="edge4" class="edge">
<title>Node4&#45;&gt;Node3</title>
<path fill="none" stroke="midnightblue" d="M193.15,-240.44C193.01,-228.1 192.85,-214.16 192.73,-203.16"/>
<polygon fill="midnightblue" stroke="midnightblue" points="189.66,-240.8 193.27,-250.76 196.66,-240.72 189.66,-240.8"/>
</g>
<!-- Node5 -->
<g id="node5" class="node">
<title>Node5</title>
<g id="a_node5"><a xlink:href="../../d4/d56/drawtools_8h.html" target="_top" xlink:title=" ">
<polygon fill="white" stroke="black" points="865.5,-78.5 865.5,-108.5 993.5,-108.5 993.5,-78.5 865.5,-78.5"/>
<text text-anchor="start" x="873.5" y="-96.5" font-family="Helvetica,sans-Serif" font-size="10.00">src/libs/vtools/tools</text>
<text text-anchor="middle" x="929.5" y="-85.5" font-family="Helvetica,sans-Serif" font-size="10.00">/drawTools/drawtools.h</text>
</a>
</g>
</g>
<!-- Node4&#45;&gt;Node5 -->
<g id="edge5" class="edge">
<title>Node4&#45;&gt;Node5</title>
<path fill="none" stroke="midnightblue" d="M153.38,-244.65C141.86,-234.98 130.74,-222.92 124.5,-209 114.86,-187.51 108.49,-173.28 124.5,-156 174.48,-102.05 683.56,-95.23 865.39,-94.52"/>
<polygon fill="midnightblue" stroke="midnightblue" points="151.34,-247.5 161.36,-250.95 155.68,-242 151.34,-247.5"/>
</g>
<!-- Node6 -->
<g id="node6" class="node">
<title>Node6</title>
<g id="a_node6"><a xlink:href="../../d5/da5/tools_8h.html" target="_top" xlink:title=" ">
<polygon fill="white" stroke="black" points="874,-0.5 874,-30.5 985,-30.5 985,-0.5 874,-0.5"/>
<text text-anchor="start" x="882" y="-18.5" font-family="Helvetica,sans-Serif" font-size="10.00">src/libs/vtools/tools</text>
<text text-anchor="middle" x="929.5" y="-7.5" font-family="Helvetica,sans-Serif" font-size="10.00">/tools.h</text>
</a>
</g>
</g>
<!-- Node5&#45;&gt;Node6 -->
<g id="edge6" class="edge">
<title>Node5&#45;&gt;Node6</title>
<path fill="none" stroke="midnightblue" d="M929.5,-68.09C929.5,-55.76 929.5,-41.22 929.5,-30.73"/>
<polygon fill="midnightblue" stroke="midnightblue" points="926,-68.2 929.5,-78.2 933,-68.21 926,-68.2"/>
</g>
<!-- Node7&#45;&gt;Node5 -->
<g id="edge9" class="edge">
<title>Node7&#45;&gt;Node5</title>
<path fill="none" stroke="midnightblue" d="M329.25,-244.97C317,-235.37 305.19,-223.27 298.5,-209 288.49,-187.67 282.67,-173.45 298.5,-156 336.1,-114.55 712.2,-100.15 865.24,-95.97"/>
<polygon fill="midnightblue" stroke="midnightblue" points="327.18,-247.79 337.31,-250.91 331.34,-242.16 327.18,-247.79"/>
</g>
<!-- Node7&#45;&gt;Node8 -->
<g id="edge8" class="edge">
<title>Node7&#45;&gt;Node8</title>
<path fill="none" stroke="midnightblue" d="M372.85,-240.44C372.99,-228.1 373.15,-214.16 373.27,-203.16"/>
<polygon fill="midnightblue" stroke="midnightblue" points="369.34,-240.72 372.73,-250.76 376.34,-240.8 369.34,-240.72"/>
</g>
<!-- Node9&#45;&gt;Node5 -->
<g id="edge12" class="edge">
<title>Node9&#45;&gt;Node5</title>
<path fill="none" stroke="midnightblue" d="M593.96,-241.12C603.09,-214.76 620.26,-177.1 648.5,-156 682.21,-130.82 793.28,-112.14 865.27,-102.32"/>
<polygon fill="midnightblue" stroke="midnightblue" points="590.53,-240.35 590.74,-250.95 597.18,-242.53 590.53,-240.35"/>
</g>
<!-- Node9&#45;&gt;Node10 -->
<g id="edge11" class="edge">
<title>Node9&#45;&gt;Node10</title>
<path fill="none" stroke="midnightblue" d="M563.42,-242.67C553.22,-229.8 541.35,-214.83 532.1,-203.16"/>
<polygon fill="midnightblue" stroke="midnightblue" points="560.89,-245.1 569.84,-250.76 566.37,-240.75 560.89,-245.1"/>
</g>
<!-- Node11&#45;&gt;Node5 -->
<g id="edge16" class="edge">
<title>Node11&#45;&gt;Node5</title>
<path fill="none" stroke="midnightblue" d="M689.05,-244.3C678.04,-234.62 667.43,-222.64 661.5,-209 652.1,-187.4 646.82,-174.43 661.5,-156 686.52,-124.59 794.41,-107.9 865.44,-100.15"/>
<polygon fill="midnightblue" stroke="midnightblue" points="687.13,-247.25 697.07,-250.93 691.59,-241.86 687.13,-247.25"/>
</g>
<!-- Node11&#45;&gt;Node12 -->
<g id="edge17" class="edge">
<title>Node11&#45;&gt;Node12</title>
<path fill="none" stroke="midnightblue" d="M732.28,-240.81C734.28,-228.38 736.55,-214.27 738.34,-203.16"/>
<polygon fill="midnightblue" stroke="midnightblue" points="728.81,-240.33 730.68,-250.76 735.72,-241.44 728.81,-240.33"/>
</g>
<!-- Node13&#45;&gt;Node5 -->
<g id="edge19" class="edge">
<title>Node13&#45;&gt;Node5</title>
<path fill="none" stroke="midnightblue" d="M880.35,-243.28C871.97,-233.37 863.87,-221.51 859.5,-209 851.73,-186.76 849.79,-177.46 859.5,-156 868.7,-135.66 888.33,-119.38 904.46,-108.69"/>
<polygon fill="midnightblue" stroke="midnightblue" points="877.78,-245.66 887.05,-250.78 883,-241 877.78,-245.66"/>
</g>
<!-- Node13&#45;&gt;Node14 -->
<g id="edge20" class="edge">
<title>Node13&#45;&gt;Node14</title>
<path fill="none" stroke="midnightblue" d="M915.67,-240.81C918.67,-228.38 922.07,-214.27 924.75,-203.16"/>
<polygon fill="midnightblue" stroke="midnightblue" points="912.21,-240.22 913.27,-250.76 919.01,-241.86 912.21,-240.22"/>
</g>
<!-- Node16&#45;&gt;Node5 -->
<g id="edge25" class="edge">
<title>Node16&#45;&gt;Node5</title>
<path fill="none" stroke="midnightblue" d="M1074.28,-244.38C1062.19,-233.93 1048.68,-221.43 1037.5,-209 1018.12,-187.45 1018.96,-177.48 999.5,-156 983.43,-138.26 962.54,-120.47 947.78,-108.63"/>
<polygon fill="midnightblue" stroke="midnightblue" points="1072.09,-247.12 1081.98,-250.93 1076.63,-241.79 1072.09,-247.12"/>
</g>
<!-- Node16&#45;&gt;Node17 -->
<g id="edge26" class="edge">
<title>Node16&#45;&gt;Node17</title>
<path fill="none" stroke="midnightblue" d="M1156.38,-246.66C1185,-232.98 1220.49,-216.01 1247.48,-203.11"/>
<polygon fill="midnightblue" stroke="midnightblue" points="1154.86,-243.5 1147.34,-250.98 1157.88,-249.82 1154.86,-243.5"/>
</g>
<!-- Node18 -->
<g id="node18" class="node">
<title>Node18</title>
<g id="a_node18"><a xlink:href="../../dc/d3d/movesplinepath_8cpp.html" target="_top" xlink:title=" ">
<polygon fill="white" stroke="black" points="1047,-167.5 1047,-197.5 1212,-197.5 1212,-167.5 1047,-167.5"/>
<text text-anchor="start" x="1055" y="-185.5" font-family="Helvetica,sans-Serif" font-size="10.00">src/libs/vtools/undocommands</text>
<text text-anchor="middle" x="1129.5" y="-174.5" font-family="Helvetica,sans-Serif" font-size="10.00">/movesplinepath.cpp</text>
</a>
</g>
</g>
<!-- Node16&#45;&gt;Node18 -->
<g id="edge27" class="edge">
<title>Node16&#45;&gt;Node18</title>
<path fill="none" stroke="midnightblue" d="M1114.38,-240.69C1118.22,-226.15 1122.66,-209.36 1125.73,-197.74"/>
<polygon fill="midnightblue" stroke="midnightblue" points="1110.89,-240.2 1111.72,-250.76 1117.66,-241.99 1110.89,-240.2"/>
</g>
<!-- Node20 -->
<g id="node20" class="node">
<title>Node20</title>
<g id="a_node20"><a xlink:href="../../d2/dc5/vtoolcut_8cpp.html" target="_top" xlink:title=" ">
<polygon fill="white" stroke="black" points="1911,-156.5 1911,-208.5 2040,-208.5 2040,-156.5 1911,-156.5"/>
<text text-anchor="start" x="1919" y="-196.5" font-family="Helvetica,sans-Serif" font-size="10.00">src/libs/vtools/tools</text>
<text text-anchor="start" x="1919" y="-185.5" font-family="Helvetica,sans-Serif" font-size="10.00">/drawTools/toolpoint</text>
<text text-anchor="start" x="1919" y="-174.5" font-family="Helvetica,sans-Serif" font-size="10.00">/toolsinglepoint/toolcut</text>
<text text-anchor="middle" x="1975.5" y="-163.5" font-family="Helvetica,sans-Serif" font-size="10.00">/vtoolcut.cpp</text>
</a>
</g>
</g>
<!-- Node19&#45;&gt;Node20 -->
<g id="edge30" class="edge">
<title>Node19&#45;&gt;Node20</title>
<path fill="none" stroke="midnightblue" d="M1884.92,-239.79C1901.35,-229.58 1919.43,-218.34 1935.1,-208.61"/>
<polygon fill="midnightblue" stroke="midnightblue" points="1882.64,-237.09 1875.99,-245.34 1886.33,-243.03 1882.64,-237.09"/>
</g>
<!-- Node21 -->
<g id="node21" class="node">
<title>Node21</title>
<g id="a_node21"><a xlink:href="../../d5/dbe/vtoolcutarc_8h.html" target="_top" xlink:title=" ">
<polygon fill="white" stroke="black" points="1539,-156.5 1539,-208.5 1668,-208.5 1668,-156.5 1539,-156.5"/>
<text text-anchor="start" x="1547" y="-196.5" font-family="Helvetica,sans-Serif" font-size="10.00">src/libs/vtools/tools</text>
<text text-anchor="start" x="1547" y="-185.5" font-family="Helvetica,sans-Serif" font-size="10.00">/drawTools/toolpoint</text>
<text text-anchor="start" x="1547" y="-174.5" font-family="Helvetica,sans-Serif" font-size="10.00">/toolsinglepoint/toolcut</text>
<text text-anchor="middle" x="1603.5" y="-163.5" font-family="Helvetica,sans-Serif" font-size="10.00">/vtoolcutarc.h</text>
</a>
</g>
</g>
<!-- Node19&#45;&gt;Node21 -->
<g id="edge31" class="edge">
<title>Node19&#45;&gt;Node21</title>
<path fill="none" stroke="midnightblue" d="M1761.31,-242.68C1731.35,-231.45 1697.1,-218.6 1668.18,-207.76"/>
<polygon fill="midnightblue" stroke="midnightblue" points="1760.28,-246.03 1770.88,-246.27 1762.74,-239.48 1760.28,-246.03"/>
</g>
<!-- Node22 -->
<g id="node22" class="node">
<title>Node22</title>
<g id="a_node22"><a xlink:href="../../dc/db5/vtoolcutarc_8cpp.html" target="_top" xlink:title=" ">
<polygon fill="white" stroke="black" points="1558,-67.5 1558,-119.5 1687,-119.5 1687,-67.5 1558,-67.5"/>
<text text-anchor="start" x="1566" y="-107.5" font-family="Helvetica,sans-Serif" font-size="10.00">src/libs/vtools/tools</text>
<text text-anchor="start" x="1566" y="-96.5" font-family="Helvetica,sans-Serif" font-size="10.00">/drawTools/toolpoint</text>
<text text-anchor="start" x="1566" y="-85.5" font-family="Helvetica,sans-Serif" font-size="10.00">/toolsinglepoint/toolcut</text>
<text text-anchor="middle" x="1622.5" y="-74.5" font-family="Helvetica,sans-Serif" font-size="10.00">/vtoolcutarc.cpp</text>
</a>
</g>
</g>
<!-- Node19&#45;&gt;Node22 -->
<g id="edge34" class="edge">
<title>Node19&#45;&gt;Node22</title>
<path fill="none" stroke="midnightblue" d="M1764.78,-240.72C1748,-231.88 1730.83,-221.23 1716.5,-209 1694.26,-190.01 1695.94,-178.7 1677.5,-156 1667.57,-143.77 1656.02,-130.69 1646.07,-119.76"/>
<polygon fill="midnightblue" stroke="midnightblue" points="1763.55,-244.02 1774.05,-245.45 1766.73,-237.79 1763.55,-244.02"/>
</g>
<!-- Node23 -->
<g id="node23" class="node">
<title>Node23</title>
<g id="a_node23"><a xlink:href="../../da/dae/vtoolcutspline_8cpp.html" target="_top" xlink:title=" ">
<polygon fill="white" stroke="black" points="1756,-67.5 1756,-119.5 1885,-119.5 1885,-67.5 1756,-67.5"/>
<text text-anchor="start" x="1764" y="-107.5" font-family="Helvetica,sans-Serif" font-size="10.00">src/libs/vtools/tools</text>
<text text-anchor="start" x="1764" y="-96.5" font-family="Helvetica,sans-Serif" font-size="10.00">/drawTools/toolpoint</text>
<text text-anchor="start" x="1764" y="-85.5" font-family="Helvetica,sans-Serif" font-size="10.00">/toolsinglepoint/toolcut</text>
<text text-anchor="middle" x="1820.5" y="-74.5" font-family="Helvetica,sans-Serif" font-size="10.00">/vtoolcutspline.cpp</text>
</a>
</g>
</g>
<!-- Node19&#45;&gt;Node23 -->
<g id="edge35" class="edge">
<title>Node19&#45;&gt;Node23</title>
<path fill="none" stroke="midnightblue" d="M1854.3,-236.01C1858.1,-227.43 1861.53,-218.08 1863.5,-209 1868.49,-185.98 1870.58,-178.47 1863.5,-156 1859.35,-142.83 1851.27,-130.02 1843.22,-119.53"/>
<polygon fill="midnightblue" stroke="midnightblue" points="1851.01,-234.78 1849.91,-245.32 1857.34,-237.76 1851.01,-234.78"/>
</g>
<!-- Node24 -->
<g id="node24" class="node">
<title>Node24</title>
<g id="a_node24"><a xlink:href="../../d6/d9d/vtoolcutsplinepath_8h.html" target="_top" xlink:title=" ">
<polygon fill="white" stroke="black" points="2097,-156.5 2097,-208.5 2226,-208.5 2226,-156.5 2097,-156.5"/>
<text text-anchor="start" x="2105" y="-196.5" font-family="Helvetica,sans-Serif" font-size="10.00">src/libs/vtools/tools</text>
<text text-anchor="start" x="2105" y="-185.5" font-family="Helvetica,sans-Serif" font-size="10.00">/drawTools/toolpoint</text>
<text text-anchor="start" x="2105" y="-174.5" font-family="Helvetica,sans-Serif" font-size="10.00">/toolsinglepoint/toolcut</text>
<text text-anchor="middle" x="2161.5" y="-163.5" font-family="Helvetica,sans-Serif" font-size="10.00">/vtoolcutsplinepath.h</text>
</a>
</g>
</g>
<!-- Node19&#45;&gt;Node24 -->
<g id="edge36" class="edge">
<title>Node19&#45;&gt;Node24</title>
<path fill="none" stroke="midnightblue" d="M1909.97,-253.36C1959.17,-241.69 2024.96,-225.43 2082.5,-209 2087.21,-207.65 2092.07,-206.22 2096.94,-204.73"/>
<polygon fill="midnightblue" stroke="midnightblue" points="1908.98,-250 1900.05,-255.7 1910.59,-256.81 1908.98,-250"/>
</g>
<!-- Node25 -->
<g id="node25" class="node">
<title>Node25</title>
<g id="a_node25"><a xlink:href="../../d1/ddf/vtoolcutsplinepath_8cpp.html" target="_top" xlink:title=" ">
<polygon fill="white" stroke="black" points="1968,-67.5 1968,-119.5 2099,-119.5 2099,-67.5 1968,-67.5"/>
<text text-anchor="start" x="1976" y="-107.5" font-family="Helvetica,sans-Serif" font-size="10.00">src/libs/vtools/tools</text>
<text text-anchor="start" x="1976" y="-96.5" font-family="Helvetica,sans-Serif" font-size="10.00">/drawTools/toolpoint</text>
<text text-anchor="start" x="1976" y="-85.5" font-family="Helvetica,sans-Serif" font-size="10.00">/toolsinglepoint/toolcut</text>
<text text-anchor="middle" x="2033.5" y="-74.5" font-family="Helvetica,sans-Serif" font-size="10.00">/vtoolcutsplinepath.cpp</text>
</a>
</g>
</g>
<!-- Node19&#45;&gt;Node25 -->
<g id="edge41" class="edge">
<title>Node19&#45;&gt;Node25</title>
<path fill="none" stroke="midnightblue" d="M1910.24,-258.76C1964.95,-248.46 2032.48,-231.6 2049.5,-209 2068.82,-183.35 2057.74,-145.03 2046.71,-119.91"/>
<polygon fill="midnightblue" stroke="midnightblue" points="1909.39,-255.36 1900.19,-260.61 1910.66,-262.24 1909.39,-255.36"/>
</g>
<!-- Node28 -->
<g id="node28" class="node">
<title>Node28</title>
<g id="a_node28"><a xlink:href="../../d7/dea/vtoolcutspline_8h.html" target="_top" xlink:title=" ">
<polygon fill="white" stroke="black" points="1725,-156.5 1725,-208.5 1854,-208.5 1854,-156.5 1725,-156.5"/>
<text text-anchor="start" x="1733" y="-196.5" font-family="Helvetica,sans-Serif" font-size="10.00">src/libs/vtools/tools</text>
<text text-anchor="start" x="1733" y="-185.5" font-family="Helvetica,sans-Serif" font-size="10.00">/drawTools/toolpoint</text>
<text text-anchor="start" x="1733" y="-174.5" font-family="Helvetica,sans-Serif" font-size="10.00">/toolsinglepoint/toolcut</text>
<text text-anchor="middle" x="1789.5" y="-163.5" font-family="Helvetica,sans-Serif" font-size="10.00">/vtoolcutspline.h</text>
</a>
</g>
</g>
<!-- Node19&#45;&gt;Node28 -->
<g id="edge42" class="edge">
<title>Node19&#45;&gt;Node28</title>
<path fill="none" stroke="midnightblue" d="M1817.44,-236.35C1812.55,-227.1 1807.35,-217.26 1802.78,-208.61"/>
<polygon fill="midnightblue" stroke="midnightblue" points="1814.43,-238.13 1822.19,-245.34 1820.61,-234.86 1814.43,-238.13"/>
</g>
<!-- Node21&#45;&gt;Node5 -->
<g id="edge32" class="edge">
<title>Node21&#45;&gt;Node5</title>
<path fill="none" stroke="midnightblue" d="M1528.83,-155.83C1330.56,-112.78 1102.91,-100.04 993.89,-96.16"/>
<polygon fill="midnightblue" stroke="midnightblue" points="1528.33,-159.3 1538.85,-158.04 1529.84,-152.47 1528.33,-159.3"/>
</g>
<!-- Node21&#45;&gt;Node22 -->
<g id="edge33" class="edge">
<title>Node21&#45;&gt;Node22</title>
<path fill="none" stroke="midnightblue" d="M1611.15,-146.48C1613.11,-137.49 1615.19,-127.99 1617.02,-119.61"/>
<polygon fill="midnightblue" stroke="midnightblue" points="1607.71,-145.82 1609,-156.34 1614.55,-147.31 1607.71,-145.82"/>
</g>
<!-- Node24&#45;&gt;Node5 -->
<g id="edge37" class="edge">
<title>Node24&#45;&gt;Node5</title>
<path fill="none" stroke="midnightblue" d="M2087.09,-162.71C2074.6,-160.09 2061.73,-157.72 2049.5,-156 1945.12,-141.36 1216.25,-107.5 993.81,-97.39"/>
<polygon fill="midnightblue" stroke="midnightblue" points="2086.48,-166.16 2096.99,-164.86 2087.96,-159.32 2086.48,-166.16"/>
</g>
<!-- Node24&#45;&gt;Node25 -->
<g id="edge38" class="edge">
<title>Node24&#45;&gt;Node25</title>
<path fill="none" stroke="midnightblue" d="M2115.9,-150.5C2100.99,-140.37 2084.63,-129.25 2070.44,-119.61"/>
<polygon fill="midnightblue" stroke="midnightblue" points="2114.24,-153.61 2124.48,-156.34 2118.17,-147.82 2114.24,-153.61"/>
</g>
<!-- Node26 -->
<g id="node26" class="node">
<title>Node26</title>
<g id="a_node26"><a xlink:href="../../da/d99/vtoolcurveintersectaxis_8cpp.html" target="_top" xlink:title=" ">
<polygon fill="white" stroke="black" points="2117,-67.5 2117,-119.5 2274,-119.5 2274,-67.5 2117,-67.5"/>
<text text-anchor="start" x="2125" y="-107.5" font-family="Helvetica,sans-Serif" font-size="10.00">src/libs/vtools/tools</text>
<text text-anchor="start" x="2125" y="-96.5" font-family="Helvetica,sans-Serif" font-size="10.00">/drawTools/toolpoint</text>
<text text-anchor="start" x="2125" y="-85.5" font-family="Helvetica,sans-Serif" font-size="10.00">/toolsinglepoint/toollinepoint</text>
<text text-anchor="middle" x="2195.5" y="-74.5" font-family="Helvetica,sans-Serif" font-size="10.00">/vtoolcurveintersectaxis.cpp</text>
</a>
</g>
</g>
<!-- Node24&#45;&gt;Node26 -->
<g id="edge39" class="edge">
<title>Node24&#45;&gt;Node26</title>
<path fill="none" stroke="midnightblue" d="M2175.07,-146.77C2178.62,-137.69 2182.38,-128.08 2185.69,-119.61"/>
<polygon fill="midnightblue" stroke="midnightblue" points="2171.71,-145.75 2171.33,-156.34 2178.23,-148.3 2171.71,-145.75"/>
</g>
<!-- Node27 -->
<g id="node27" class="node">
<title>Node27</title>
<g id="a_node27"><a xlink:href="../../d7/d3d/vistoolcutsplinepath_8cpp.html" target="_top" xlink:title=" ">
<polygon fill="white" stroke="black" points="2292.5,-78.5 2292.5,-108.5 2456.5,-108.5 2456.5,-78.5 2292.5,-78.5"/>
<text text-anchor="start" x="2300.5" y="-96.5" font-family="Helvetica,sans-Serif" font-size="10.00">src/libs/vtools/visualization</text>
<text text-anchor="middle" x="2374.5" y="-85.5" font-family="Helvetica,sans-Serif" font-size="10.00">/path/vistoolcutsplinepath.cpp</text>
</a>
</g>
</g>
<!-- Node24&#45;&gt;Node27 -->
<g id="edge40" class="edge">
<title>Node24&#45;&gt;Node27</title>
<path fill="none" stroke="midnightblue" d="M2232.38,-152.55C2268.62,-137.75 2311.08,-120.4 2340.09,-108.55"/>
<polygon fill="midnightblue" stroke="midnightblue" points="2230.76,-149.43 2222.82,-156.45 2233.4,-155.91 2230.76,-149.43"/>
</g>
<!-- Node28&#45;&gt;Node5 -->
<g id="edge43" class="edge">
<title>Node28&#45;&gt;Node5</title>
<path fill="none" stroke="midnightblue" d="M1715.04,-163C1702.57,-160.35 1689.71,-157.88 1677.5,-156 1426.38,-117.29 1123.83,-101.87 993.9,-96.72"/>
<polygon fill="midnightblue" stroke="midnightblue" points="1714.43,-166.45 1724.95,-165.16 1715.93,-159.61 1714.43,-166.45"/>
</g>
<!-- Node28&#45;&gt;Node23 -->
<g id="edge44" class="edge">
<title>Node28&#45;&gt;Node23</title>
<path fill="none" stroke="midnightblue" d="M1801.87,-146.77C1805.11,-137.69 1808.54,-128.08 1811.55,-119.61"/>
<polygon fill="midnightblue" stroke="midnightblue" points="1798.53,-145.74 1798.47,-156.34 1805.12,-148.09 1798.53,-145.74"/>
</g>
<!-- Node29&#45;&gt;Node5 -->
<g id="edge46" class="edge">
<title>Node29&#45;&gt;Node5</title>
<path fill="none" stroke="midnightblue" d="M1379.13,-240.67C1380.5,-214.59 1377.77,-177.62 1355.5,-156 1305.24,-107.2 1100.08,-96.89 993.88,-94.87"/>
<polygon fill="midnightblue" stroke="midnightblue" points="1375.63,-240.52 1378.37,-250.75 1382.61,-241.04 1375.63,-240.52"/>
</g>
<!-- Node29&#45;&gt;Node15 -->
<g id="edge47" class="edge">
<title>Node29&#45;&gt;Node15</title>
<path fill="none" stroke="midnightblue" d="M1402.6,-243.4C1415.63,-230.37 1430.95,-215.05 1442.84,-203.16"/>
<polygon fill="midnightblue" stroke="midnightblue" points="1399.84,-241.21 1395.24,-250.76 1404.79,-246.16 1399.84,-241.21"/>
</g>
</g>
</svg>
