<?xml version="1.0" encoding="UTF-8" standalone="no"?>
<!DOCTYPE svg PUBLIC "-//W3C//DTD SVG 1.1//EN"
 "http://www.w3.org/Graphics/SVG/1.1/DTD/svg11.dtd">
<!-- Generated by graphviz version 2.43.0 (0)
 -->
<!-- Title: src/libs/vpatterndb/vtranslatevars.h Pages: 1 -->
<svg width="6633pt" height="318pt"
 viewBox="0.00 0.00 6632.50 318.00" xmlns="http://www.w3.org/2000/svg" xmlns:xlink="http://www.w3.org/1999/xlink">
<g id="graph0" class="graph" transform="scale(1 1) rotate(0) translate(4 314)">
<title>src/libs/vpatterndb/vtranslatevars.h</title>
<polygon fill="white" stroke="transparent" points="-4,4 -4,-314 6628.5,-314 6628.5,4 -4,4"/>
<!-- Node1 -->
<g id="node1" class="node">
<title>Node1</title>
<g id="a_node1"><a xlink:title=" ">
<polygon fill="#bfbfbf" stroke="black" points="3694,-279.5 3694,-309.5 3801,-309.5 3801,-279.5 3694,-279.5"/>
<text text-anchor="start" x="3702" y="-297.5" font-family="Helvetica,sans-Serif" font-size="10.00">src/libs/vpatterndb</text>
<text text-anchor="middle" x="3747.5" y="-286.5" font-family="Helvetica,sans-Serif" font-size="10.00">/vtranslatevars.h</text>
</a>
</g>
</g>
<!-- Node2 -->
<g id="node2" class="node">
<title>Node2</title>
<g id="a_node2"><a xlink:href="../../d5/d74/vabstractapplication_8h.html" target="_top" xlink:title=" ">
<polygon fill="white" stroke="black" points="3609,-145.5 3609,-164.5 3804,-164.5 3804,-145.5 3609,-145.5"/>
<text text-anchor="middle" x="3706.5" y="-152.5" font-family="Helvetica,sans-Serif" font-size="10.00">src/libs/vmisc/vabstractapplication.h</text>
</a>
</g>
</g>
<!-- Node1&#45;&gt;Node2 -->
<g id="edge1" class="edge">
<title>Node1&#45;&gt;Node2</title>
<path fill="none" stroke="midnightblue" d="M3740.39,-269.65C3731.1,-238.49 3715.29,-185.46 3709.09,-164.7"/>
<polygon fill="midnightblue" stroke="midnightblue" points="3737.06,-270.72 3743.27,-279.3 3743.76,-268.72 3737.06,-270.72"/>
</g>
<!-- Node22 -->
<g id="node18" class="node">
<title>Node22</title>
<g id="a_node18"><a xlink:href="../../db/d11/vformula_8cpp.html" target="_top" xlink:title=" ">
<polygon fill="white" stroke="black" points="0,-67.5 0,-97.5 107,-97.5 107,-67.5 0,-67.5"/>
<text text-anchor="start" x="8" y="-85.5" font-family="Helvetica,sans-Serif" font-size="10.00">src/libs/vpatterndb</text>
<text text-anchor="middle" x="53.5" y="-74.5" font-family="Helvetica,sans-Serif" font-size="10.00">/vformula.cpp</text>
</a>
</g>
</g>
<!-- Node1&#45;&gt;Node22 -->
<g id="edge39" class="edge">
<title>Node1&#45;&gt;Node22</title>
<path fill="none" stroke="midnightblue" d="M3683.67,-293.27C3206.51,-291.46 212.88,-278.69 127.5,-243 88.36,-226.64 77.14,-214.59 59.5,-176 47.79,-150.39 49.29,-116.57 51.41,-97.73"/>
<polygon fill="midnightblue" stroke="midnightblue" points="3683.81,-296.77 3693.82,-293.31 3683.83,-289.77 3683.81,-296.77"/>
</g>
<!-- Node26 -->
<g id="node22" class="node">
<title>Node26</title>
<g id="a_node22"><a xlink:href="../../d6/d46/vcontainer_8cpp.html" target="_top" xlink:title=" ">
<polygon fill="white" stroke="black" points="664,-67.5 664,-97.5 771,-97.5 771,-67.5 664,-67.5"/>
<text text-anchor="start" x="672" y="-85.5" font-family="Helvetica,sans-Serif" font-size="10.00">src/libs/vpatterndb</text>
<text text-anchor="middle" x="717.5" y="-74.5" font-family="Helvetica,sans-Serif" font-size="10.00">/vcontainer.cpp</text>
</a>
</g>
</g>
<!-- Node1&#45;&gt;Node26 -->
<g id="edge57" class="edge">
<title>Node1&#45;&gt;Node26</title>
<path fill="none" stroke="midnightblue" d="M3683.82,-293.04C3310.11,-290.25 1398.42,-274.61 811.5,-243 646.84,-234.13 183.71,-297.75 72.5,-176 59.91,-162.22 59.83,-147.7 72.5,-134 112.3,-90.96 516.07,-84.53 663.76,-83.63"/>
<polygon fill="midnightblue" stroke="midnightblue" points="3683.88,-296.54 3693.91,-293.12 3683.93,-289.54 3683.88,-296.54"/>
</g>
<!-- Node27 -->
<g id="node23" class="node">
<title>Node27</title>
<g id="a_node23"><a xlink:href="../../de/d3e/vtranslatevars_8cpp.html" target="_top" xlink:title=" ">
<polygon fill="white" stroke="black" points="6514.5,-67.5 6514.5,-97.5 6624.5,-97.5 6624.5,-67.5 6514.5,-67.5"/>
<text text-anchor="start" x="6522.5" y="-85.5" font-family="Helvetica,sans-Serif" font-size="10.00">src/libs/vpatterndb</text>
<text text-anchor="middle" x="6569.5" y="-74.5" font-family="Helvetica,sans-Serif" font-size="10.00">/vtranslatevars.cpp</text>
</a>
</g>
</g>
<!-- Node1&#45;&gt;Node27 -->
<g id="edge58" class="edge">
<title>Node1&#45;&gt;Node27</title>
<path fill="none" stroke="midnightblue" d="M3762.34,-271.04C3776.68,-251.5 3800.33,-224.43 3828.5,-212 4100.88,-91.82 6210.4,-137.38 6505.5,-98 6508.44,-97.61 6511.44,-97.15 6514.46,-96.63"/>
<polygon fill="midnightblue" stroke="midnightblue" points="3759.34,-269.22 3756.43,-279.4 3765.06,-273.26 3759.34,-269.22"/>
</g>
<!-- Node43 -->
<g id="node39" class="node">
<title>Node43</title>
<g id="a_node39"><a xlink:href="../../d3/df7/vcontainer_8h.html" target="_top" xlink:title=" ">
<polygon fill="white" stroke="red" points="821,-212.5 821,-242.5 928,-242.5 928,-212.5 821,-212.5"/>
<text text-anchor="start" x="829" y="-230.5" font-family="Helvetica,sans-Serif" font-size="10.00">src/libs/vpatterndb</text>
<text text-anchor="middle" x="874.5" y="-219.5" font-family="Helvetica,sans-Serif" font-size="10.00">/vcontainer.h</text>
</a>
</g>
</g>
<!-- Node1&#45;&gt;Node43 -->
<g id="edge40" class="edge">
<title>Node1&#45;&gt;Node43</title>
<path fill="none" stroke="midnightblue" d="M3683.81,-292.06C3298.53,-283.34 1284.22,-237.77 928.27,-229.72"/>
<polygon fill="midnightblue" stroke="midnightblue" points="3683.86,-295.56 3693.93,-292.29 3684.02,-288.56 3683.86,-295.56"/>
</g>
<!-- Node63 -->
<g id="node48" class="node">
<title>Node63</title>
<g id="a_node48"><a xlink:href="../../df/de5/dialogspline_8cpp.html" target="_top" xlink:title=" ">
<polygon fill="white" stroke="black" points="3837.5,-212.5 3837.5,-242.5 3963.5,-242.5 3963.5,-212.5 3837.5,-212.5"/>
<text text-anchor="start" x="3845.5" y="-230.5" font-family="Helvetica,sans-Serif" font-size="10.00">src/libs/vtools/dialogs</text>
<text text-anchor="middle" x="3900.5" y="-219.5" font-family="Helvetica,sans-Serif" font-size="10.00">/tools/dialogspline.cpp</text>
</a>
</g>
</g>
<!-- Node1&#45;&gt;Node63 -->
<g id="edge59" class="edge">
<title>Node1&#45;&gt;Node63</title>
<path fill="none" stroke="midnightblue" d="M3790.09,-275.41C3814.52,-265.03 3844.72,-252.2 3867.37,-242.58"/>
<polygon fill="midnightblue" stroke="midnightblue" points="3788.53,-272.26 3780.7,-279.4 3791.27,-278.71 3788.53,-272.26"/>
</g>
<!-- Node64 -->
<g id="node49" class="node">
<title>Node64</title>
<g id="a_node49"><a xlink:href="../../dc/dc2/dialogsplinepath_8cpp.html" target="_top" xlink:title=" ">
<polygon fill="white" stroke="black" points="3981.5,-212.5 3981.5,-242.5 4129.5,-242.5 4129.5,-212.5 3981.5,-212.5"/>
<text text-anchor="start" x="3989.5" y="-230.5" font-family="Helvetica,sans-Serif" font-size="10.00">src/libs/vtools/dialogs</text>
<text text-anchor="middle" x="4055.5" y="-219.5" font-family="Helvetica,sans-Serif" font-size="10.00">/tools/dialogsplinepath.cpp</text>
</a>
</g>
</g>
<!-- Node1&#45;&gt;Node64 -->
<g id="edge60" class="edge">
<title>Node1&#45;&gt;Node64</title>
<path fill="none" stroke="midnightblue" d="M3811.25,-280.05C3863.22,-269.08 3936.38,-253.64 3989.06,-242.52"/>
<polygon fill="midnightblue" stroke="midnightblue" points="3810.21,-276.69 3801.15,-282.18 3811.66,-283.54 3810.21,-276.69"/>
</g>
<!-- Node65 -->
<g id="node50" class="node">
<title>Node65</title>
<g id="a_node50"><a xlink:href="../../d1/d75/vistoolendline_8cpp.html" target="_top" xlink:title=" ">
<polygon fill="white" stroke="black" points="4148,-212.5 4148,-242.5 4297,-242.5 4297,-212.5 4148,-212.5"/>
<text text-anchor="start" x="4156" y="-230.5" font-family="Helvetica,sans-Serif" font-size="10.00">src/libs/vtools/visualization</text>
<text text-anchor="middle" x="4222.5" y="-219.5" font-family="Helvetica,sans-Serif" font-size="10.00">/line/vistoolendline.cpp</text>
</a>
</g>
</g>
<!-- Node1&#45;&gt;Node65 -->
<g id="edge61" class="edge">
<title>Node1&#45;&gt;Node65</title>
<path fill="none" stroke="midnightblue" d="M3811.12,-286.12C3888.6,-276.95 4023.37,-260.36 4138.5,-243 4141.57,-242.54 4144.71,-242.05 4147.87,-241.55"/>
<polygon fill="midnightblue" stroke="midnightblue" points="3810.56,-282.67 3801.04,-287.32 3811.38,-289.62 3810.56,-282.67"/>
</g>
<!-- Node3 -->
<g id="node3" class="node">
<title>Node3</title>
<g id="a_node3"><a xlink:href="../../d4/d90/fvupdater_8cpp.html" target="_top" xlink:title=" ">
<polygon fill="white" stroke="black" points="4384,-73 4384,-92 4537,-92 4537,-73 4384,-73"/>
<text text-anchor="middle" x="4460.5" y="-80" font-family="Helvetica,sans-Serif" font-size="10.00">src/libs/fervor/fvupdater.cpp</text>
</a>
</g>
</g>
<!-- Node2&#45;&gt;Node3 -->
<g id="edge2" class="edge">
<title>Node2&#45;&gt;Node3</title>
<path fill="none" stroke="midnightblue" d="M3757.31,-143.59C3776.14,-140.07 3797.73,-136.41 3817.5,-134 4063.75,-103.96 4128.09,-126.66 4374.5,-98 4387.74,-96.46 4402.03,-94.27 4415.1,-92.05"/>
<polygon fill="midnightblue" stroke="midnightblue" points="3756.62,-140.16 3747.45,-145.47 3757.93,-147.04 3756.62,-140.16"/>
</g>
<!-- Node4 -->
<g id="node4" class="node">
<title>Node4</title>
<g id="a_node4"><a xlink:href="../../d9/dc8/dxiface_8cpp.html" target="_top" xlink:title=" ">
<polygon fill="white" stroke="black" points="4555,-73 4555,-92 4690,-92 4690,-73 4555,-73"/>
<text text-anchor="middle" x="4622.5" y="-80" font-family="Helvetica,sans-Serif" font-size="10.00">src/libs/vdxf/dxiface.cpp</text>
</a>
</g>
</g>
<!-- Node2&#45;&gt;Node4 -->
<g id="edge3" class="edge">
<title>Node2&#45;&gt;Node4</title>
<path fill="none" stroke="midnightblue" d="M3756.59,-143.56C3775.58,-139.98 3797.46,-136.29 3817.5,-134 4139.35,-97.2 4223.79,-136.06 4545.5,-98 4557.66,-96.56 4570.78,-94.34 4582.7,-92.07"/>
<polygon fill="midnightblue" stroke="midnightblue" points="3755.81,-140.15 3746.65,-145.48 3757.13,-147.02 3755.81,-140.15"/>
</g>
<!-- Node5 -->
<g id="node5" class="node">
<title>Node5</title>
<g id="a_node5"><a xlink:href="../../da/d75/vabstractarc__p_8h.html" target="_top" xlink:title=" ">
<polygon fill="white" stroke="red" points="4708,-67.5 4708,-97.5 4815,-97.5 4815,-67.5 4708,-67.5"/>
<text text-anchor="start" x="4716" y="-85.5" font-family="Helvetica,sans-Serif" font-size="10.00">src/libs/vgeometry</text>
<text text-anchor="middle" x="4761.5" y="-74.5" font-family="Helvetica,sans-Serif" font-size="10.00">/vabstractarc_p.h</text>
</a>
</g>
</g>
<!-- Node2&#45;&gt;Node5 -->
<g id="edge4" class="edge">
<title>Node2&#45;&gt;Node5</title>
<path fill="none" stroke="midnightblue" d="M3756.11,-143.56C3775.21,-139.93 3797.29,-136.22 3817.5,-134 4207.03,-91.15 4310.11,-150.17 4698.5,-98 4701.5,-97.6 4704.57,-97.12 4707.66,-96.58"/>
<polygon fill="midnightblue" stroke="midnightblue" points="3755.27,-140.15 3746.12,-145.5 3756.61,-147.03 3755.27,-140.15"/>
</g>
<!-- Node7 -->
<g id="node6" class="node">
<title>Node7</title>
<g id="a_node6"><a xlink:href="../../dc/da3/varc__p_8h.html" target="_top" xlink:title=" ">
<polygon fill="white" stroke="red" points="4833,-67.5 4833,-97.5 4940,-97.5 4940,-67.5 4833,-67.5"/>
<text text-anchor="start" x="4841" y="-85.5" font-family="Helvetica,sans-Serif" font-size="10.00">src/libs/vgeometry</text>
<text text-anchor="middle" x="4886.5" y="-74.5" font-family="Helvetica,sans-Serif" font-size="10.00">/varc_p.h</text>
</a>
</g>
</g>
<!-- Node2&#45;&gt;Node7 -->
<g id="edge5" class="edge">
<title>Node2&#45;&gt;Node7</title>
<path fill="none" stroke="midnightblue" d="M3755.87,-143.55C3775.02,-139.9 3797.2,-136.18 3817.5,-134 4262.34,-86.21 4379.94,-156.44 4823.5,-98 4826.5,-97.6 4829.58,-97.13 4832.67,-96.6"/>
<polygon fill="midnightblue" stroke="midnightblue" points="3755.01,-140.15 3745.86,-145.5 3756.34,-147.02 3755.01,-140.15"/>
</g>
<!-- Node9 -->
<g id="node7" class="node">
<title>Node9</title>
<g id="a_node7"><a xlink:href="../../d5/d8e/vcubicbezier__p_8h.html" target="_top" xlink:title=" ">
<polygon fill="white" stroke="red" points="4958,-67.5 4958,-97.5 5065,-97.5 5065,-67.5 4958,-67.5"/>
<text text-anchor="start" x="4966" y="-85.5" font-family="Helvetica,sans-Serif" font-size="10.00">src/libs/vgeometry</text>
<text text-anchor="middle" x="5011.5" y="-74.5" font-family="Helvetica,sans-Serif" font-size="10.00">/vcubicbezier_p.h</text>
</a>
</g>
</g>
<!-- Node2&#45;&gt;Node9 -->
<g id="edge6" class="edge">
<title>Node2&#45;&gt;Node9</title>
<path fill="none" stroke="midnightblue" d="M3755.86,-143.51C3775.02,-139.85 3797.2,-136.14 3817.5,-134 4317.65,-81.27 4449.76,-162.71 4948.5,-98 4951.51,-97.61 4954.58,-97.14 4957.67,-96.61"/>
<polygon fill="midnightblue" stroke="midnightblue" points="3755,-140.11 3745.86,-145.46 3756.34,-146.98 3755,-140.11"/>
</g>
<!-- Node11 -->
<g id="node8" class="node">
<title>Node11</title>
<g id="a_node8"><a xlink:href="../../df/dde/vellipticalarc__p_8h.html" target="_top" xlink:title=" ">
<polygon fill="white" stroke="black" points="5083,-67.5 5083,-97.5 5190,-97.5 5190,-67.5 5083,-67.5"/>
<text text-anchor="start" x="5091" y="-85.5" font-family="Helvetica,sans-Serif" font-size="10.00">src/libs/vgeometry</text>
<text text-anchor="middle" x="5136.5" y="-74.5" font-family="Helvetica,sans-Serif" font-size="10.00">/vellipticalarc_p.h</text>
</a>
</g>
</g>
<!-- Node2&#45;&gt;Node11 -->
<g id="edge7" class="edge">
<title>Node2&#45;&gt;Node11</title>
<path fill="none" stroke="midnightblue" d="M3755.63,-143.52C3774.84,-139.85 3797.11,-136.12 3817.5,-134 4372.97,-76.33 4519.58,-168.97 5073.5,-98 5076.51,-97.61 5079.58,-97.15 5082.67,-96.63"/>
<polygon fill="midnightblue" stroke="midnightblue" points="3754.74,-140.12 3745.59,-145.48 3756.08,-146.99 3754.74,-140.12"/>
</g>
<!-- Node12 -->
<g id="node9" class="node">
<title>Node12</title>
<g id="a_node9"><a xlink:href="../../d6/dfb/vellipticalarc_8cpp.html" target="_top" xlink:title=" ">
<polygon fill="white" stroke="black" points="5288,-0.5 5288,-30.5 5395,-30.5 5395,-0.5 5288,-0.5"/>
<text text-anchor="start" x="5296" y="-18.5" font-family="Helvetica,sans-Serif" font-size="10.00">src/libs/vgeometry</text>
<text text-anchor="middle" x="5341.5" y="-7.5" font-family="Helvetica,sans-Serif" font-size="10.00">/vellipticalarc.cpp</text>
</a>
</g>
</g>
<!-- Node2&#45;&gt;Node12 -->
<g id="edge9" class="edge">
<title>Node2&#45;&gt;Node12</title>
<path fill="none" stroke="midnightblue" d="M3755.38,-143.48C3774.65,-139.79 3797.02,-136.05 3817.5,-134 3864.8,-129.27 5495.24,-131.97 5528.5,-98 5572.6,-52.96 5464.97,-31.15 5395.28,-22.04"/>
<polygon fill="midnightblue" stroke="midnightblue" points="3754.47,-140.09 3745.33,-145.46 3755.82,-146.96 3754.47,-140.09"/>
</g>
<!-- Node13 -->
<g id="node10" class="node">
<title>Node13</title>
<g id="a_node10"><a xlink:href="../../d1/d76/vspline__p_8h.html" target="_top" xlink:title=" ">
<polygon fill="white" stroke="red" points="5208,-67.5 5208,-97.5 5315,-97.5 5315,-67.5 5208,-67.5"/>
<text text-anchor="start" x="5216" y="-85.5" font-family="Helvetica,sans-Serif" font-size="10.00">src/libs/vgeometry</text>
<text text-anchor="middle" x="5261.5" y="-74.5" font-family="Helvetica,sans-Serif" font-size="10.00">/vspline_p.h</text>
</a>
</g>
</g>
<!-- Node2&#45;&gt;Node13 -->
<g id="edge10" class="edge">
<title>Node2&#45;&gt;Node13</title>
<path fill="none" stroke="midnightblue" d="M3755.62,-143.49C3774.83,-139.82 3797.11,-136.09 3817.5,-134 4428.28,-71.38 4589.39,-175.24 5198.5,-98 5201.51,-97.62 5204.58,-97.16 5207.67,-96.63"/>
<polygon fill="midnightblue" stroke="midnightblue" points="3754.73,-140.1 3745.59,-145.45 3756.08,-146.97 3754.73,-140.1"/>
</g>
<!-- Node15 -->
<g id="node11" class="node">
<title>Node15</title>
<g id="a_node11"><a xlink:href="../../d9/d15/vabstractpiece_8cpp.html" target="_top" xlink:title=" ">
<polygon fill="white" stroke="black" points="5333.5,-73 5333.5,-92 5519.5,-92 5519.5,-73 5333.5,-73"/>
<text text-anchor="middle" x="5426.5" y="-80" font-family="Helvetica,sans-Serif" font-size="10.00">src/libs/vlayout/vabstractpiece.cpp</text>
</a>
</g>
</g>
<!-- Node2&#45;&gt;Node15 -->
<g id="edge11" class="edge">
<title>Node2&#45;&gt;Node15</title>
<path fill="none" stroke="midnightblue" d="M3755.39,-143.51C3774.65,-139.82 3797.02,-136.08 3817.5,-134 4484.05,-66.4 4656.81,-153.24 5324.5,-98 5340.99,-96.64 5358.88,-94.36 5375,-92.02"/>
<polygon fill="midnightblue" stroke="midnightblue" points="3754.47,-140.12 3745.33,-145.49 3755.82,-146.99 3754.47,-140.12"/>
</g>
<!-- Node16 -->
<g id="node12" class="node">
<title>Node16</title>
<g id="a_node12"><a xlink:href="../../dd/d70/vlayoutpiece_8cpp.html" target="_top" xlink:title=" ">
<polygon fill="white" stroke="black" points="1035,-73 1035,-92 1212,-92 1212,-73 1035,-73"/>
<text text-anchor="middle" x="1123.5" y="-80" font-family="Helvetica,sans-Serif" font-size="10.00">src/libs/vlayout/vlayoutpiece.cpp</text>
</a>
</g>
</g>
<!-- Node2&#45;&gt;Node16 -->
<g id="edge12" class="edge">
<title>Node2&#45;&gt;Node16</title>
<path fill="none" stroke="midnightblue" d="M3598.7,-153.36C3184.32,-150.61 1693.62,-138.09 1221.5,-98 1205.56,-96.65 1188.27,-94.36 1172.71,-92"/>
<polygon fill="midnightblue" stroke="midnightblue" points="3598.85,-156.86 3608.88,-153.42 3598.9,-149.86 3598.85,-156.86"/>
</g>
<!-- Node17 -->
<g id="node13" class="node">
<title>Node17</title>
<g id="a_node13"><a xlink:href="../../d8/d70/vtextmanager_8cpp.html" target="_top" xlink:title=" ">
<polygon fill="white" stroke="black" points="1230.5,-73 1230.5,-92 1412.5,-92 1412.5,-73 1230.5,-73"/>
<text text-anchor="middle" x="1321.5" y="-80" font-family="Helvetica,sans-Serif" font-size="10.00">src/libs/vlayout/vtextmanager.cpp</text>
</a>
</g>
</g>
<!-- Node2&#45;&gt;Node17 -->
<g id="edge13" class="edge">
<title>Node2&#45;&gt;Node17</title>
<path fill="none" stroke="midnightblue" d="M3598.58,-153.07C3205.73,-149.41 1852.39,-134.39 1421.5,-98 1405.33,-96.63 1387.79,-94.36 1371.98,-92.02"/>
<polygon fill="midnightblue" stroke="midnightblue" points="3598.78,-156.57 3608.81,-153.16 3598.84,-149.57 3598.78,-156.57"/>
</g>
<!-- Node18 -->
<g id="node14" class="node">
<title>Node18</title>
<g id="a_node14"><a xlink:href="../../db/d65/dialogexporttocsv_8cpp.html" target="_top" xlink:title=" ">
<polygon fill="white" stroke="black" points="5576,-67.5 5576,-97.5 5703,-97.5 5703,-67.5 5576,-67.5"/>
<text text-anchor="start" x="5584" y="-85.5" font-family="Helvetica,sans-Serif" font-size="10.00">src/libs/vmisc/dialogs</text>
<text text-anchor="middle" x="5639.5" y="-74.5" font-family="Helvetica,sans-Serif" font-size="10.00">/dialogexporttocsv.cpp</text>
</a>
</g>
</g>
<!-- Node2&#45;&gt;Node18 -->
<g id="edge14" class="edge">
<title>Node2&#45;&gt;Node18</title>
<path fill="none" stroke="midnightblue" d="M3755.38,-143.48C3774.65,-139.78 3797.02,-136.04 3817.5,-134 4588.95,-57.02 4790.27,-177.11 5561.5,-98 5566.16,-97.52 5570.96,-96.92 5575.77,-96.22"/>
<polygon fill="midnightblue" stroke="midnightblue" points="3754.47,-140.09 3745.33,-145.45 3755.82,-146.96 3754.47,-140.09"/>
</g>
<!-- Node19 -->
<g id="node15" class="node">
<title>Node19</title>
<g id="a_node15"><a xlink:href="../../d6/d0b/def_8cpp.html" target="_top" xlink:title=" ">
<polygon fill="white" stroke="black" points="5721.5,-73 5721.5,-92 5843.5,-92 5843.5,-73 5721.5,-73"/>
<text text-anchor="middle" x="5782.5" y="-80" font-family="Helvetica,sans-Serif" font-size="10.00">src/libs/vmisc/def.cpp</text>
</a>
</g>
</g>
<!-- Node2&#45;&gt;Node19 -->
<g id="edge15" class="edge">
<title>Node2&#45;&gt;Node19</title>
<path fill="none" stroke="midnightblue" d="M3755.15,-143.5C3774.46,-139.79 3796.94,-136.03 3817.5,-134 4655.78,-51.05 4875.37,-191.83 5712.5,-98 5724.09,-96.7 5736.61,-94.4 5747.81,-92.01"/>
<polygon fill="midnightblue" stroke="midnightblue" points="3754.21,-140.12 3745.07,-145.49 3755.56,-146.99 3754.21,-140.12"/>
</g>
<!-- Node20 -->
<g id="node16" class="node">
<title>Node20</title>
<g id="a_node16"><a xlink:href="../../d0/df6/vabstractapplication_8cpp.html" target="_top" xlink:title=" ">
<polygon fill="white" stroke="black" points="5861.5,-73 5861.5,-92 6067.5,-92 6067.5,-73 5861.5,-73"/>
<text text-anchor="middle" x="5964.5" y="-80" font-family="Helvetica,sans-Serif" font-size="10.00">src/libs/vmisc/vabstractapplication.cpp</text>
</a>
</g>
</g>
<!-- Node2&#45;&gt;Node20 -->
<g id="edge16" class="edge">
<title>Node2&#45;&gt;Node20</title>
<path fill="none" stroke="midnightblue" d="M3754.88,-143.54C3774.25,-139.81 3796.84,-136.03 3817.5,-134 4717.75,-45.51 4950.34,-164.17 5852.5,-98 5870.69,-96.67 5890.44,-94.39 5908.22,-92.03"/>
<polygon fill="midnightblue" stroke="midnightblue" points="3754.2,-140.11 3745.07,-145.48 3755.56,-146.97 3754.2,-140.11"/>
</g>
<!-- Node21 -->
<g id="node17" class="node">
<title>Node21</title>
<g id="a_node17"><a xlink:href="../../d4/d4f/pmsystems_8cpp.html" target="_top" xlink:title=" ">
<polygon fill="white" stroke="black" points="6086,-67.5 6086,-97.5 6193,-97.5 6193,-67.5 6086,-67.5"/>
<text text-anchor="start" x="6094" y="-85.5" font-family="Helvetica,sans-Serif" font-size="10.00">src/libs/vpatterndb</text>
<text text-anchor="middle" x="6139.5" y="-74.5" font-family="Helvetica,sans-Serif" font-size="10.00">/pmsystems.cpp</text>
</a>
</g>
</g>
<!-- Node2&#45;&gt;Node21 -->
<g id="edge17" class="edge">
<title>Node2&#45;&gt;Node21</title>
<path fill="none" stroke="midnightblue" d="M3754.88,-143.52C3774.25,-139.79 3796.84,-136.01 3817.5,-134 4317.2,-85.33 5578.11,-158.64 6076.5,-98 6079.51,-97.63 6082.58,-97.18 6085.68,-96.67"/>
<polygon fill="midnightblue" stroke="midnightblue" points="3754.2,-140.09 3745.07,-145.46 3755.56,-146.96 3754.2,-140.09"/>
</g>
<!-- Node2&#45;&gt;Node22 -->
<g id="edge18" class="edge">
<title>Node2&#45;&gt;Node22</title>
<path fill="none" stroke="midnightblue" d="M3598.75,-152.25C3205.07,-145.8 1807.26,-122.48 654.5,-98 452.59,-93.71 212.54,-87.62 107.37,-84.9"/>
<polygon fill="midnightblue" stroke="midnightblue" points="3598.93,-155.75 3608.99,-152.42 3599.05,-148.75 3598.93,-155.75"/>
</g>
<!-- Node23 -->
<g id="node19" class="node">
<title>Node23</title>
<g id="a_node19"><a xlink:href="../../df/d7a/vpiece_8cpp.html" target="_top" xlink:title=" ">
<polygon fill="white" stroke="black" points="1431,-67.5 1431,-97.5 1538,-97.5 1538,-67.5 1431,-67.5"/>
<text text-anchor="start" x="1439" y="-85.5" font-family="Helvetica,sans-Serif" font-size="10.00">src/libs/vpatterndb</text>
<text text-anchor="middle" x="1484.5" y="-74.5" font-family="Helvetica,sans-Serif" font-size="10.00">/vpiece.cpp</text>
</a>
</g>
</g>
<!-- Node2&#45;&gt;Node23 -->
<g id="edge19" class="edge">
<title>Node2&#45;&gt;Node23</title>
<path fill="none" stroke="midnightblue" d="M3598.63,-154.11C3219.58,-154.04 1949.89,-149.85 1546.5,-98 1543.76,-97.65 1540.96,-97.23 1538.15,-96.75"/>
<polygon fill="midnightblue" stroke="midnightblue" points="3598.77,-157.61 3608.77,-154.11 3598.77,-150.61 3598.77,-157.61"/>
</g>
<!-- Node24 -->
<g id="node20" class="node">
<title>Node24</title>
<g id="a_node20"><a xlink:href="../../df/dba/vpiecenode__p_8h.html" target="_top" xlink:title=" ">
<polygon fill="white" stroke="black" points="1556,-67.5 1556,-97.5 1663,-97.5 1663,-67.5 1556,-67.5"/>
<text text-anchor="start" x="1564" y="-85.5" font-family="Helvetica,sans-Serif" font-size="10.00">src/libs/vpatterndb</text>
<text text-anchor="middle" x="1609.5" y="-74.5" font-family="Helvetica,sans-Serif" font-size="10.00">/vpiecenode_p.h</text>
</a>
</g>
</g>
<!-- Node2&#45;&gt;Node24 -->
<g id="edge20" class="edge">
<title>Node2&#45;&gt;Node24</title>
<path fill="none" stroke="midnightblue" d="M3598.71,-153.91C3234.21,-153.15 2049.36,-146.87 1671.5,-98 1668.76,-97.65 1665.96,-97.22 1663.15,-96.75"/>
<polygon fill="midnightblue" stroke="midnightblue" points="3598.73,-157.41 3608.74,-153.93 3598.74,-150.41 3598.73,-157.41"/>
</g>
<!-- Node2&#45;&gt;Node26 -->
<g id="edge22" class="edge">
<title>Node2&#45;&gt;Node26</title>
<path fill="none" stroke="midnightblue" d="M3598.34,-153.26C3103.07,-149.68 1063.7,-132.92 780.5,-98 777.49,-97.63 774.42,-97.18 771.33,-96.66"/>
<polygon fill="midnightblue" stroke="midnightblue" points="3598.67,-156.76 3608.69,-153.33 3598.72,-149.76 3598.67,-156.76"/>
</g>
<!-- Node2&#45;&gt;Node27 -->
<g id="edge23" class="edge">
<title>Node2&#45;&gt;Node27</title>
<path fill="none" stroke="midnightblue" d="M3754.64,-143.54C3774.07,-139.79 3796.75,-135.99 3817.5,-134 4412.15,-76.84 5912.27,-168.39 6505.5,-98 6508.44,-97.65 6511.45,-97.22 6514.47,-96.74"/>
<polygon fill="midnightblue" stroke="midnightblue" points="3753.94,-140.11 3744.81,-145.49 3755.3,-146.98 3753.94,-140.11"/>
</g>
<!-- Node28 -->
<g id="node24" class="node">
<title>Node28</title>
<g id="a_node24"><a xlink:href="../../df/d40/export__format__combobox_8cpp.html" target="_top" xlink:title=" ">
<polygon fill="white" stroke="black" points="6211,-67.5 6211,-97.5 6344,-97.5 6344,-67.5 6211,-67.5"/>
<text text-anchor="start" x="6219" y="-85.5" font-family="Helvetica,sans-Serif" font-size="10.00">src/libs/vwidgets/export</text>
<text text-anchor="middle" x="6277.5" y="-74.5" font-family="Helvetica,sans-Serif" font-size="10.00">_format_combobox.cpp</text>
</a>
</g>
</g>
<!-- Node2&#45;&gt;Node28 -->
<g id="edge24" class="edge">
<title>Node2&#45;&gt;Node28</title>
<path fill="none" stroke="midnightblue" d="M3754.88,-143.51C3774.25,-139.78 3796.84,-136 3817.5,-134 4345.09,-82.83 5675.25,-152.52 6202.5,-98 6205.27,-97.71 6208.09,-97.38 6210.93,-97"/>
<polygon fill="midnightblue" stroke="midnightblue" points="3754.2,-140.08 3745.07,-145.45 3755.56,-146.95 3754.2,-140.08"/>
</g>
<!-- Node29 -->
<g id="node25" class="node">
<title>Node29</title>
<g id="a_node25"><a xlink:href="../../d3/d4f/mouse__coordinates_8cpp.html" target="_top" xlink:title=" ">
<polygon fill="white" stroke="black" points="6362.5,-67.5 6362.5,-97.5 6496.5,-97.5 6496.5,-67.5 6362.5,-67.5"/>
<text text-anchor="start" x="6370.5" y="-85.5" font-family="Helvetica,sans-Serif" font-size="10.00">src/libs/vwidgets/mouse</text>
<text text-anchor="middle" x="6429.5" y="-74.5" font-family="Helvetica,sans-Serif" font-size="10.00">_coordinates.cpp</text>
</a>
</g>
</g>
<!-- Node2&#45;&gt;Node29 -->
<g id="edge25" class="edge">
<title>Node2&#45;&gt;Node29</title>
<path fill="none" stroke="midnightblue" d="M3754.64,-143.55C3774.07,-139.8 3796.75,-136 3817.5,-134 4378.5,-79.85 5792.78,-155.03 6353.5,-98 6356.44,-97.7 6359.44,-97.35 6362.46,-96.95"/>
<polygon fill="midnightblue" stroke="midnightblue" points="3753.94,-140.12 3744.81,-145.5 3755.3,-146.99 3753.94,-140.12"/>
</g>
<!-- Node30 -->
<g id="node26" class="node">
<title>Node30</title>
<g id="a_node26"><a xlink:href="../../d2/d28/page__format__combobox_8cpp.html" target="_top" xlink:title=" ">
<polygon fill="white" stroke="black" points="1681,-67.5 1681,-97.5 1812,-97.5 1812,-67.5 1681,-67.5"/>
<text text-anchor="start" x="1689" y="-85.5" font-family="Helvetica,sans-Serif" font-size="10.00">src/libs/vwidgets/page</text>
<text text-anchor="middle" x="1746.5" y="-74.5" font-family="Helvetica,sans-Serif" font-size="10.00">_format_combobox.cpp</text>
</a>
</g>
</g>
<!-- Node2&#45;&gt;Node30 -->
<g id="edge26" class="edge">
<title>Node2&#45;&gt;Node30</title>
<path fill="none" stroke="midnightblue" d="M3598.76,-153.12C3252.23,-149.93 2168.75,-137.02 1820.5,-98 1817.77,-97.69 1814.99,-97.34 1812.18,-96.95"/>
<polygon fill="midnightblue" stroke="midnightblue" points="3598.76,-156.62 3608.8,-153.21 3598.83,-149.62 3598.76,-156.62"/>
</g>
<!-- Node31 -->
<g id="node27" class="node">
<title>Node31</title>
<g id="a_node27"><a xlink:href="../../d7/d1b/pen__toolbar_8cpp.html" target="_top" xlink:title=" ">
<polygon fill="white" stroke="black" points="1830,-67.5 1830,-97.5 1949,-97.5 1949,-67.5 1830,-67.5"/>
<text text-anchor="start" x="1838" y="-85.5" font-family="Helvetica,sans-Serif" font-size="10.00">src/libs/vwidgets/pen</text>
<text text-anchor="middle" x="1889.5" y="-74.5" font-family="Helvetica,sans-Serif" font-size="10.00">_toolbar.cpp</text>
</a>
</g>
</g>
<!-- Node2&#45;&gt;Node31 -->
<g id="edge27" class="edge">
<title>Node2&#45;&gt;Node31</title>
<path fill="none" stroke="midnightblue" d="M3598.77,-153.02C3269.33,-149.63 2278.41,-136.44 1958.5,-98 1955.46,-97.63 1952.36,-97.2 1949.23,-96.72"/>
<polygon fill="midnightblue" stroke="midnightblue" points="3598.76,-156.52 3608.8,-153.12 3598.83,-149.52 3598.76,-156.52"/>
</g>
<!-- Node32 -->
<g id="node28" class="node">
<title>Node32</title>
<g id="a_node28"><a xlink:href="../../d8/d76/scene__rect_8cpp.html" target="_top" xlink:title=" ">
<polygon fill="white" stroke="black" points="1967.5,-67.5 1967.5,-97.5 2097.5,-97.5 2097.5,-67.5 1967.5,-67.5"/>
<text text-anchor="start" x="1975.5" y="-85.5" font-family="Helvetica,sans-Serif" font-size="10.00">src/libs/vwidgets/scene</text>
<text text-anchor="middle" x="2032.5" y="-74.5" font-family="Helvetica,sans-Serif" font-size="10.00">_rect.cpp</text>
</a>
</g>
</g>
<!-- Node2&#45;&gt;Node32 -->
<g id="edge28" class="edge">
<title>Node2&#45;&gt;Node32</title>
<path fill="none" stroke="midnightblue" d="M3598.4,-152.45C3287.8,-147.65 2396.51,-131.28 2106.5,-98 2103.64,-97.67 2100.72,-97.29 2097.78,-96.87"/>
<polygon fill="midnightblue" stroke="midnightblue" points="3598.7,-155.96 3608.76,-152.61 3598.81,-148.96 3598.7,-155.96"/>
</g>
<!-- Node33 -->
<g id="node29" class="node">
<title>Node33</title>
<g id="a_node29"><a xlink:href="../../dd/df6/vabstractmainwindow_8cpp.html" target="_top" xlink:title=" ">
<polygon fill="white" stroke="black" points="2116,-73 2116,-92 2345,-92 2345,-73 2116,-73"/>
<text text-anchor="middle" x="2230.5" y="-80" font-family="Helvetica,sans-Serif" font-size="10.00">src/libs/vwidgets/vabstractmainwindow.cpp</text>
</a>
</g>
</g>
<!-- Node2&#45;&gt;Node33 -->
<g id="edge29" class="edge">
<title>Node2&#45;&gt;Node33</title>
<path fill="none" stroke="midnightblue" d="M3598.7,-152.32C3369.3,-148.13 2815.93,-134.77 2353.5,-98 2334.42,-96.48 2313.74,-94.27 2294.88,-92.02"/>
<polygon fill="midnightblue" stroke="midnightblue" points="3598.66,-155.82 3608.72,-152.5 3598.78,-148.82 3598.66,-155.82"/>
</g>
<!-- Node34 -->
<g id="node30" class="node">
<title>Node34</title>
<g id="a_node30"><a xlink:href="../../de/d45/vcontrolpointspline_8cpp.html" target="_top" xlink:title=" ">
<polygon fill="white" stroke="black" points="2363,-73 2363,-92 2578,-92 2578,-73 2363,-73"/>
<text text-anchor="middle" x="2470.5" y="-80" font-family="Helvetica,sans-Serif" font-size="10.00">src/libs/vwidgets/vcontrolpointspline.cpp</text>
</a>
</g>
</g>
<!-- Node2&#45;&gt;Node34 -->
<g id="edge30" class="edge">
<title>Node2&#45;&gt;Node34</title>
<path fill="none" stroke="midnightblue" d="M3598.46,-151.23C3398.6,-145.51 2957.73,-130.16 2587.5,-98 2569.56,-96.44 2550.12,-94.24 2532.35,-92.02"/>
<polygon fill="midnightblue" stroke="midnightblue" points="3598.57,-154.73 3608.67,-151.52 3598.77,-147.73 3598.57,-154.73"/>
</g>
<!-- Node35 -->
<g id="node31" class="node">
<title>Node35</title>
<g id="a_node31"><a xlink:href="../../de/dec/vgraphicssimpletextitem_8cpp.html" target="_top" xlink:title=" ">
<polygon fill="white" stroke="black" points="2596.5,-73 2596.5,-92 2840.5,-92 2840.5,-73 2596.5,-73"/>
<text text-anchor="middle" x="2718.5" y="-80" font-family="Helvetica,sans-Serif" font-size="10.00">src/libs/vwidgets/vgraphicssimpletextitem.cpp</text>
</a>
</g>
</g>
<!-- Node2&#45;&gt;Node35 -->
<g id="edge31" class="edge">
<title>Node2&#45;&gt;Node35</title>
<path fill="none" stroke="midnightblue" d="M3598.71,-148.52C3436.15,-139.89 3118.64,-121.68 2849.5,-98 2830.24,-96.31 2809.42,-94.15 2790.17,-92.02"/>
<polygon fill="midnightblue" stroke="midnightblue" points="3598.54,-152.01 3608.71,-149.04 3598.91,-145.02 3598.54,-152.01"/>
</g>
<!-- Node36 -->
<g id="node32" class="node">
<title>Node36</title>
<g id="a_node32"><a xlink:href="../../d1/d90/vgrainlineitem_8cpp.html" target="_top" xlink:title=" ">
<polygon fill="white" stroke="black" points="2859,-73 2859,-92 3052,-92 3052,-73 2859,-73"/>
<text text-anchor="middle" x="2955.5" y="-80" font-family="Helvetica,sans-Serif" font-size="10.00">src/libs/vwidgets/vgrainlineitem.cpp</text>
</a>
</g>
</g>
<!-- Node2&#45;&gt;Node36 -->
<g id="edge32" class="edge">
<title>Node2&#45;&gt;Node36</title>
<path fill="none" stroke="midnightblue" d="M3598.61,-146.27C3470.39,-136.7 3250.06,-119.07 3061.5,-98 3046.09,-96.28 3029.45,-94.14 3014.03,-92.03"/>
<polygon fill="midnightblue" stroke="midnightblue" points="3598.59,-149.78 3608.83,-147.03 3599.11,-142.8 3598.59,-149.78"/>
</g>
<!-- Node37 -->
<g id="node33" class="node">
<title>Node37</title>
<g id="a_node33"><a xlink:href="../../d1/d88/vmaingraphicsscene_8cpp.html" target="_top" xlink:title=" ">
<polygon fill="white" stroke="black" points="3070.5,-73 3070.5,-92 3292.5,-92 3292.5,-73 3070.5,-73"/>
<text text-anchor="middle" x="3181.5" y="-80" font-family="Helvetica,sans-Serif" font-size="10.00">src/libs/vwidgets/vmaingraphicsscene.cpp</text>
</a>
</g>
</g>
<!-- Node2&#45;&gt;Node37 -->
<g id="edge33" class="edge">
<title>Node2&#45;&gt;Node37</title>
<path fill="none" stroke="midnightblue" d="M3633.13,-144.15C3529.72,-130.26 3342.84,-105.17 3245.05,-92.03"/>
<polygon fill="midnightblue" stroke="midnightblue" points="3632.8,-147.63 3643.17,-145.5 3633.73,-140.7 3632.8,-147.63"/>
</g>
<!-- Node38 -->
<g id="node34" class="node">
<title>Node38</title>
<g id="a_node34"><a xlink:href="../../d0/d5d/vscenepoint_8cpp.html" target="_top" xlink:title=" ">
<polygon fill="white" stroke="black" points="3311,-73 3311,-92 3492,-92 3492,-73 3311,-73"/>
<text text-anchor="middle" x="3401.5" y="-80" font-family="Helvetica,sans-Serif" font-size="10.00">src/libs/vwidgets/vscenepoint.cpp</text>
</a>
</g>
</g>
<!-- Node2&#45;&gt;Node38 -->
<g id="edge34" class="edge">
<title>Node2&#45;&gt;Node38</title>
<path fill="none" stroke="midnightblue" d="M3659.61,-143.16C3598.79,-129.1 3493.91,-104.86 3438.42,-92.03"/>
<polygon fill="midnightblue" stroke="midnightblue" points="3659.18,-146.65 3669.71,-145.5 3660.76,-139.83 3659.18,-146.65"/>
</g>
<!-- Node39 -->
<g id="node35" class="node">
<title>Node39</title>
<g id="a_node35"><a xlink:href="../../de/d22/vsimplecurve_8cpp.html" target="_top" xlink:title=" ">
<polygon fill="white" stroke="black" points="3510.5,-73 3510.5,-92 3698.5,-92 3698.5,-73 3510.5,-73"/>
<text text-anchor="middle" x="3604.5" y="-80" font-family="Helvetica,sans-Serif" font-size="10.00">src/libs/vwidgets/vsimplecurve.cpp</text>
</a>
</g>
</g>
<!-- Node2&#45;&gt;Node39 -->
<g id="edge35" class="edge">
<title>Node2&#45;&gt;Node39</title>
<path fill="none" stroke="midnightblue" d="M3685.6,-139.55C3665,-125.32 3634.22,-104.04 3617.11,-92.22"/>
<polygon fill="midnightblue" stroke="midnightblue" points="3683.78,-142.55 3693.99,-145.36 3687.76,-136.79 3683.78,-142.55"/>
</g>
<!-- Node40 -->
<g id="node36" class="node">
<title>Node40</title>
<g id="a_node36"><a xlink:href="../../df/d38/vsimplepoint_8cpp.html" target="_top" xlink:title=" ">
<polygon fill="white" stroke="black" points="3717,-73 3717,-92 3902,-92 3902,-73 3717,-73"/>
<text text-anchor="middle" x="3809.5" y="-80" font-family="Helvetica,sans-Serif" font-size="10.00">src/libs/vwidgets/vsimplepoint.cpp</text>
</a>
</g>
</g>
<!-- Node2&#45;&gt;Node40 -->
<g id="edge36" class="edge">
<title>Node2&#45;&gt;Node40</title>
<path fill="none" stroke="midnightblue" d="M3727.61,-139.55C3748.4,-125.32 3779.49,-104.04 3796.77,-92.22"/>
<polygon fill="midnightblue" stroke="midnightblue" points="3725.41,-136.82 3719.13,-145.36 3729.36,-142.6 3725.41,-136.82"/>
</g>
<!-- Node41 -->
<g id="node37" class="node">
<title>Node41</title>
<g id="a_node37"><a xlink:href="../../df/df5/vtextgraphicsitem_8cpp.html" target="_top" xlink:title=" ">
<polygon fill="white" stroke="black" points="3920,-73 3920,-92 4131,-92 4131,-73 3920,-73"/>
<text text-anchor="middle" x="4025.5" y="-80" font-family="Helvetica,sans-Serif" font-size="10.00">src/libs/vwidgets/vtextgraphicsitem.cpp</text>
</a>
</g>
</g>
<!-- Node2&#45;&gt;Node41 -->
<g id="edge37" class="edge">
<title>Node2&#45;&gt;Node41</title>
<path fill="none" stroke="midnightblue" d="M3754.75,-143.34C3818.25,-129.3 3928.6,-104.91 3986.88,-92.03"/>
<polygon fill="midnightblue" stroke="midnightblue" points="3753.99,-139.92 3744.98,-145.5 3755.5,-146.76 3753.99,-139.92"/>
</g>
<!-- Node42 -->
<g id="node38" class="node">
<title>Node42</title>
<g id="a_node38"><a xlink:href="../../d2/d31/vmaingraphicsview_8cpp.html" target="_top" xlink:title=" ">
<polygon fill="white" stroke="black" points="4149.5,-73 4149.5,-92 4365.5,-92 4365.5,-73 4149.5,-73"/>
<text text-anchor="middle" x="4257.5" y="-80" font-family="Helvetica,sans-Serif" font-size="10.00">src/libs/vwidgets/vmaingraphicsview.cpp</text>
</a>
</g>
</g>
<!-- Node2&#45;&gt;Node42 -->
<g id="edge38" class="edge">
<title>Node2&#45;&gt;Node42</title>
<path fill="none" stroke="midnightblue" d="M3759.76,-143.66C3778.03,-140.31 3798.62,-136.75 3817.5,-134 3960,-113.22 3996.48,-114.78 4139.5,-98 4155.59,-96.11 4172.91,-94.02 4189.19,-92.02"/>
<polygon fill="midnightblue" stroke="midnightblue" points="3759.08,-140.22 3749.88,-145.49 3760.35,-147.11 3759.08,-140.22"/>
</g>
<!-- Node11&#45;&gt;Node12 -->
<g id="edge8" class="edge">
<title>Node11&#45;&gt;Node12</title>
<path fill="none" stroke="midnightblue" d="M5190.29,-64.44C5223.52,-53.91 5265.65,-40.55 5297,-30.61"/>
<polygon fill="midnightblue" stroke="midnightblue" points="5189.2,-61.12 5180.73,-67.48 5191.32,-67.79 5189.2,-61.12"/>
</g>
<!-- Node25 -->
<g id="node21" class="node">
<title>Node25</title>
<g id="a_node21"><a xlink:href="../../d8/dba/vpiecenode_8cpp.html" target="_top" xlink:title=" ">
<polygon fill="white" stroke="black" points="1255,-0.5 1255,-30.5 1362,-30.5 1362,-0.5 1255,-0.5"/>
<text text-anchor="start" x="1263" y="-18.5" font-family="Helvetica,sans-Serif" font-size="10.00">src/libs/vpatterndb</text>
<text text-anchor="middle" x="1308.5" y="-7.5" font-family="Helvetica,sans-Serif" font-size="10.00">/vpiecenode.cpp</text>
</a>
</g>
</g>
<!-- Node24&#45;&gt;Node25 -->
<g id="edge21" class="edge">
<title>Node24&#45;&gt;Node25</title>
<path fill="none" stroke="midnightblue" d="M1546.13,-66.94C1476.92,-51.68 1408.54,-37.28 1362.44,-27.67"/>
<polygon fill="midnightblue" stroke="midnightblue" points="1545.38,-70.36 1555.9,-69.1 1546.89,-63.52 1545.38,-70.36"/>
</g>
<!-- Node43&#45;&gt;Node2 -->
<g id="edge47" class="edge">
<title>Node43&#45;&gt;Node2</title>
<path fill="none" stroke="midnightblue" d="M938.45,-224.91C1307.18,-215.73 3160.77,-169.59 3608.87,-158.43"/>
<polygon fill="midnightblue" stroke="midnightblue" points="938.14,-221.41 928.23,-225.16 938.32,-228.41 938.14,-221.41"/>
</g>
<!-- Node43&#45;&gt;Node17 -->
<g id="edge46" class="edge">
<title>Node43&#45;&gt;Node17</title>
<path fill="none" stroke="midnightblue" d="M938.36,-223.56C1053.83,-217.6 1287.84,-202.4 1313.5,-176 1335.75,-153.12 1328.37,-110.3 1323.88,-92.07"/>
<polygon fill="midnightblue" stroke="midnightblue" points="938.05,-220.07 928.24,-224.07 938.4,-227.06 938.05,-220.07"/>
</g>
<!-- Node43&#45;&gt;Node22 -->
<g id="edge50" class="edge">
<title>Node43&#45;&gt;Node22</title>
<path fill="none" stroke="midnightblue" d="M810.65,-226.85C630.5,-227.24 127.7,-223.98 72.5,-176 50.1,-156.53 49.88,-118.35 51.67,-97.65"/>
<polygon fill="midnightblue" stroke="midnightblue" points="810.78,-230.35 820.77,-226.82 810.76,-223.35 810.78,-230.35"/>
</g>
<!-- Node43&#45;&gt;Node23 -->
<g id="edge52" class="edge">
<title>Node43&#45;&gt;Node23</title>
<path fill="none" stroke="midnightblue" d="M938.5,-223C1047.35,-216.46 1263.71,-200.78 1335.5,-176 1387.88,-157.92 1441.09,-118.8 1467.48,-97.69"/>
<polygon fill="midnightblue" stroke="midnightblue" points="938.09,-219.52 928.31,-223.6 938.5,-226.51 938.09,-219.52"/>
</g>
<!-- Node43&#45;&gt;Node25 -->
<g id="edge53" class="edge">
<title>Node43&#45;&gt;Node25</title>
<path fill="none" stroke="midnightblue" d="M938.18,-220.29C994.89,-213.28 1071.73,-199.66 1090.5,-176 1102.1,-161.38 1099.98,-150.08 1090.5,-134 1073.73,-105.55 1042.27,-126.45 1025.5,-98 1018.51,-86.13 1016.65,-77.56 1025.5,-67 1054.18,-32.75 1181.11,-21.71 1254.88,-18.16"/>
<polygon fill="midnightblue" stroke="midnightblue" points="937.71,-216.82 928.2,-221.48 938.54,-223.77 937.71,-216.82"/>
</g>
<!-- Node43&#45;&gt;Node26 -->
<g id="edge54" class="edge">
<title>Node43&#45;&gt;Node26</title>
<path fill="none" stroke="midnightblue" d="M864.27,-203.12C854.42,-182.79 837.89,-153.58 816.5,-134 799.28,-118.24 776.22,-106.09 756.69,-97.67"/>
<polygon fill="midnightblue" stroke="midnightblue" points="861.16,-204.73 868.56,-212.32 867.5,-201.77 861.16,-204.73"/>
</g>
<!-- Node44 -->
<g id="node40" class="node">
<title>Node44</title>
<g id="a_node40"><a xlink:href="../../dc/db7/measurements_8h.html" target="_top" xlink:title=" ">
<polygon fill="white" stroke="black" points="903,-145.5 903,-164.5 1082,-164.5 1082,-145.5 903,-145.5"/>
<text text-anchor="middle" x="992.5" y="-152.5" font-family="Helvetica,sans-Serif" font-size="10.00">src/libs/vformat/measurements.h</text>
</a>
</g>
</g>
<!-- Node43&#45;&gt;Node44 -->
<g id="edge41" class="edge">
<title>Node43&#45;&gt;Node44</title>
<path fill="none" stroke="midnightblue" d="M906.98,-207.1C930.32,-193.15 960.66,-175.02 978.22,-164.53"/>
<polygon fill="midnightblue" stroke="midnightblue" points="904.88,-204.27 898.1,-212.4 908.48,-210.28 904.88,-204.27"/>
</g>
<!-- Node45 -->
<g id="node41" class="node">
<title>Node45</title>
<g id="a_node41"><a xlink:href="../../d9/de3/measurements_8cpp.html" target="_top" xlink:title=" ">
<polygon fill="white" stroke="black" points="789.5,-73 789.5,-92 979.5,-92 979.5,-73 789.5,-73"/>
<text text-anchor="middle" x="884.5" y="-80" font-family="Helvetica,sans-Serif" font-size="10.00">src/libs/vformat/measurements.cpp</text>
</a>
</g>
</g>
<!-- Node43&#45;&gt;Node45 -->
<g id="edge43" class="edge">
<title>Node43&#45;&gt;Node45</title>
<path fill="none" stroke="midnightblue" d="M876.2,-202.24C878.47,-169.78 882.38,-113.81 883.89,-92.28"/>
<polygon fill="midnightblue" stroke="midnightblue" points="872.7,-202.05 875.5,-212.27 879.68,-202.53 872.7,-202.05"/>
</g>
<!-- Node46 -->
<g id="node42" class="node">
<title>Node46</title>
<g id="a_node42"><a xlink:href="../../d6/de0/vlayoutpiece_8h.html" target="_top" xlink:title=" ">
<polygon fill="white" stroke="red" points="1138.5,-145.5 1138.5,-164.5 1304.5,-164.5 1304.5,-145.5 1138.5,-145.5"/>
<text text-anchor="middle" x="1221.5" y="-152.5" font-family="Helvetica,sans-Serif" font-size="10.00">src/libs/vlayout/vlayoutpiece.h</text>
</a>
</g>
</g>
<!-- Node43&#45;&gt;Node46 -->
<g id="edge44" class="edge">
<title>Node43&#45;&gt;Node46</title>
<path fill="none" stroke="midnightblue" d="M937.96,-213.75C988.5,-203.59 1061.05,-188.95 1124.5,-176 1142.86,-172.25 1163.17,-168.07 1180.45,-164.5"/>
<polygon fill="midnightblue" stroke="midnightblue" points="937.27,-210.32 928.16,-215.73 938.65,-217.19 937.27,-210.32"/>
</g>
<!-- Node55 -->
<g id="node43" class="node">
<title>Node55</title>
<g id="a_node43"><a xlink:href="../../d7/d8a/measurement__variable__p_8h.html" target="_top" xlink:title=" ">
<polygon fill="white" stroke="red" points="81.5,-134.5 81.5,-175.5 217.5,-175.5 217.5,-134.5 81.5,-134.5"/>
<text text-anchor="start" x="89.5" y="-163.5" font-family="Helvetica,sans-Serif" font-size="10.00">src/libs/vpatterndb</text>
<text text-anchor="start" x="89.5" y="-152.5" font-family="Helvetica,sans-Serif" font-size="10.00">/variables/measurement</text>
<text text-anchor="middle" x="149.5" y="-141.5" font-family="Helvetica,sans-Serif" font-size="10.00">_variable_p.h</text>
</a>
</g>
</g>
<!-- Node43&#45;&gt;Node55 -->
<g id="edge48" class="edge">
<title>Node43&#45;&gt;Node55</title>
<path fill="none" stroke="midnightblue" d="M810.58,-225.25C693.82,-222.14 438.51,-211.51 226.5,-176 223.64,-175.52 220.73,-174.99 217.8,-174.41"/>
<polygon fill="midnightblue" stroke="midnightblue" points="810.69,-228.75 820.77,-225.51 810.87,-221.75 810.69,-228.75"/>
</g>
<!-- Node57 -->
<g id="node44" class="node">
<title>Node57</title>
<g id="a_node44"><a xlink:href="../../d1/de1/vincrement__p_8h.html" target="_top" xlink:title=" ">
<polygon fill="white" stroke="red" points="236,-140 236,-170 379,-170 379,-140 236,-140"/>
<text text-anchor="start" x="244" y="-158" font-family="Helvetica,sans-Serif" font-size="10.00">src/libs/vpatterndb</text>
<text text-anchor="middle" x="307.5" y="-147" font-family="Helvetica,sans-Serif" font-size="10.00">/variables/vincrement_p.h</text>
</a>
</g>
</g>
<!-- Node43&#45;&gt;Node57 -->
<g id="edge49" class="edge">
<title>Node43&#45;&gt;Node57</title>
<path fill="none" stroke="midnightblue" d="M810.69,-222.78C717.26,-216.67 537.99,-202.48 387.5,-176 378.34,-174.39 368.67,-172.3 359.34,-170.09"/>
<polygon fill="midnightblue" stroke="midnightblue" points="810.63,-226.28 820.83,-223.43 811.08,-219.29 810.63,-226.28"/>
</g>
<!-- Node59 -->
<g id="node45" class="node">
<title>Node59</title>
<g id="a_node45"><a xlink:href="../../d6/d91/vnodedetail_8cpp.html" target="_top" xlink:title=" ">
<polygon fill="white" stroke="black" points="397,-140 397,-170 504,-170 504,-140 397,-140"/>
<text text-anchor="start" x="405" y="-158" font-family="Helvetica,sans-Serif" font-size="10.00">src/libs/vpatterndb</text>
<text text-anchor="middle" x="450.5" y="-147" font-family="Helvetica,sans-Serif" font-size="10.00">/vnodedetail.cpp</text>
</a>
</g>
</g>
<!-- Node43&#45;&gt;Node59 -->
<g id="edge51" class="edge">
<title>Node43&#45;&gt;Node59</title>
<path fill="none" stroke="midnightblue" d="M810.54,-220.96C737.72,-213.88 615.52,-199.61 512.5,-176 505.33,-174.36 497.81,-172.26 490.57,-170.04"/>
<polygon fill="midnightblue" stroke="midnightblue" points="810.63,-224.49 820.91,-221.96 811.29,-217.52 810.63,-224.49"/>
</g>
<!-- Node60 -->
<g id="node46" class="node">
<title>Node60</title>
<g id="a_node46"><a xlink:href="../../da/de1/vpiecepath_8cpp.html" target="_top" xlink:title=" ">
<polygon fill="white" stroke="black" points="522,-140 522,-170 629,-170 629,-140 522,-140"/>
<text text-anchor="start" x="530" y="-158" font-family="Helvetica,sans-Serif" font-size="10.00">src/libs/vpatterndb</text>
<text text-anchor="middle" x="575.5" y="-147" font-family="Helvetica,sans-Serif" font-size="10.00">/vpiecepath.cpp</text>
</a>
</g>
</g>
<!-- Node43&#45;&gt;Node60 -->
<g id="edge55" class="edge">
<title>Node43&#45;&gt;Node60</title>
<path fill="none" stroke="midnightblue" d="M811.02,-214.8C763.05,-205.52 695.75,-191.56 637.5,-176 630.83,-174.22 623.83,-172.15 617.01,-170.04"/>
<polygon fill="midnightblue" stroke="midnightblue" points="810.47,-218.26 820.95,-216.71 811.79,-211.39 810.47,-218.26"/>
</g>
<!-- Node61 -->
<g id="node47" class="node">
<title>Node61</title>
<g id="a_node47"><a xlink:href="../../d1/d3a/abstracttest_8cpp.html" target="_top" xlink:title=" ">
<polygon fill="white" stroke="black" points="647,-145.5 647,-164.5 808,-164.5 808,-145.5 647,-145.5"/>
<text text-anchor="middle" x="727.5" y="-152.5" font-family="Helvetica,sans-Serif" font-size="10.00">src/libs/vtest/abstracttest.cpp</text>
</a>
</g>
</g>
<!-- Node43&#45;&gt;Node61 -->
<g id="edge56" class="edge">
<title>Node43&#45;&gt;Node61</title>
<path fill="none" stroke="midnightblue" d="M835.96,-208.02C806.64,-193.96 767.65,-175.26 745.29,-164.53"/>
<polygon fill="midnightblue" stroke="midnightblue" points="834.58,-211.23 845.11,-212.4 837.6,-204.92 834.58,-211.23"/>
</g>
<!-- Node44&#45;&gt;Node45 -->
<g id="edge42" class="edge">
<title>Node44&#45;&gt;Node45</title>
<path fill="none" stroke="midnightblue" d="M970.66,-139.74C948.86,-125.51 916.05,-104.09 897.85,-92.22"/>
<polygon fill="midnightblue" stroke="midnightblue" points="968.97,-142.82 979.26,-145.36 972.8,-136.96 968.97,-142.82"/>
</g>
<!-- Node46&#45;&gt;Node16 -->
<g id="edge45" class="edge">
<title>Node46&#45;&gt;Node16</title>
<path fill="none" stroke="midnightblue" d="M1201.15,-139.36C1181.37,-125.13 1151.98,-103.99 1135.62,-92.22"/>
<polygon fill="midnightblue" stroke="midnightblue" points="1199.32,-142.36 1209.48,-145.36 1203.41,-136.67 1199.32,-142.36"/>
</g>
</g>
</svg>
