<?xml version="1.0" encoding="UTF-8" standalone="no"?>
<!DOCTYPE svg PUBLIC "-//W3C//DTD SVG 1.1//EN"
 "http://www.w3.org/Graphics/SVG/1.1/DTD/svg11.dtd">
<!-- Generated by graphviz version 2.43.0 (0)
 -->
<!-- Title: src/libs/vpatterndb/vtranslatevars.h Pages: 1 -->
<svg width="6631pt" height="318pt"
 viewBox="0.00 0.00 6630.50 318.00" xmlns="http://www.w3.org/2000/svg" xmlns:xlink="http://www.w3.org/1999/xlink">
<g id="graph0" class="graph" transform="scale(1 1) rotate(0) translate(4 314)">
<title>src/libs/vpatterndb/vtranslatevars.h</title>
<polygon fill="white" stroke="transparent" points="-4,4 -4,-314 6626.5,-314 6626.5,4 -4,4"/>
<!-- Node1 -->
<g id="node1" class="node">
<title>Node1</title>
<g id="a_node1"><a xlink:title=" ">
<polygon fill="#bfbfbf" stroke="black" points="3726,-279.5 3726,-309.5 3833,-309.5 3833,-279.5 3726,-279.5"/>
<text text-anchor="start" x="3734" y="-297.5" font-family="Helvetica,sans-Serif" font-size="10.00">src/libs/vpatterndb</text>
<text text-anchor="middle" x="3779.5" y="-286.5" font-family="Helvetica,sans-Serif" font-size="10.00">/vtranslatevars.h</text>
</a>
</g>
</g>
<!-- Node2 -->
<g id="node2" class="node">
<title>Node2</title>
<g id="a_node2"><a xlink:href="../../d5/d74/vabstractapplication_8h.html" target="_top" xlink:title=" ">
<polygon fill="white" stroke="black" points="3641,-145.5 3641,-164.5 3836,-164.5 3836,-145.5 3641,-145.5"/>
<text text-anchor="middle" x="3738.5" y="-152.5" font-family="Helvetica,sans-Serif" font-size="10.00">src/libs/vmisc/vabstractapplication.h</text>
</a>
</g>
</g>
<!-- Node1&#45;&gt;Node2 -->
<g id="edge1" class="edge">
<title>Node1&#45;&gt;Node2</title>
<path fill="none" stroke="midnightblue" d="M3772.39,-269.65C3763.1,-238.49 3747.29,-185.46 3741.09,-164.7"/>
<polygon fill="midnightblue" stroke="midnightblue" points="3769.06,-270.72 3775.27,-279.3 3775.76,-268.72 3769.06,-270.72"/>
</g>
<!-- Node22 -->
<g id="node18" class="node">
<title>Node22</title>
<g id="a_node18"><a xlink:href="../../db/d11/vformula_8cpp.html" target="_top" xlink:title=" ">
<polygon fill="white" stroke="black" points="0,-67.5 0,-97.5 107,-97.5 107,-67.5 0,-67.5"/>
<text text-anchor="start" x="8" y="-85.5" font-family="Helvetica,sans-Serif" font-size="10.00">src/libs/vpatterndb</text>
<text text-anchor="middle" x="53.5" y="-74.5" font-family="Helvetica,sans-Serif" font-size="10.00">/vformula.cpp</text>
</a>
</g>
</g>
<!-- Node1&#45;&gt;Node22 -->
<g id="edge39" class="edge">
<title>Node1&#45;&gt;Node22</title>
<path fill="none" stroke="midnightblue" d="M3715.49,-293.28C3235.32,-291.51 213.66,-279.01 127.5,-243 88.35,-226.64 77.14,-214.59 59.5,-176 47.79,-150.39 49.29,-116.57 51.41,-97.73"/>
<polygon fill="midnightblue" stroke="midnightblue" points="3715.69,-296.78 3725.7,-293.31 3715.71,-289.78 3715.69,-296.78"/>
</g>
<!-- Node26 -->
<g id="node22" class="node">
<title>Node26</title>
<g id="a_node22"><a xlink:href="../../d6/d46/vcontainer_8cpp.html" target="_top" xlink:title=" ">
<polygon fill="white" stroke="black" points="664,-67.5 664,-97.5 771,-97.5 771,-67.5 664,-67.5"/>
<text text-anchor="start" x="672" y="-85.5" font-family="Helvetica,sans-Serif" font-size="10.00">src/libs/vpatterndb</text>
<text text-anchor="middle" x="717.5" y="-74.5" font-family="Helvetica,sans-Serif" font-size="10.00">/vcontainer.cpp</text>
</a>
</g>
</g>
<!-- Node1&#45;&gt;Node26 -->
<g id="edge57" class="edge">
<title>Node1&#45;&gt;Node26</title>
<path fill="none" stroke="midnightblue" d="M3715.73,-293.05C3339.42,-290.32 1405.14,-274.92 811.5,-243 646.84,-234.15 183.71,-297.75 72.5,-176 59.91,-162.22 59.83,-147.7 72.5,-134 112.3,-90.96 516.07,-84.53 663.76,-83.63"/>
<polygon fill="midnightblue" stroke="midnightblue" points="3715.86,-296.55 3725.89,-293.13 3715.91,-289.55 3715.86,-296.55"/>
</g>
<!-- Node27 -->
<g id="node23" class="node">
<title>Node27</title>
<g id="a_node23"><a xlink:href="../../de/d3e/vtranslatevars_8cpp.html" target="_top" xlink:title=" ">
<polygon fill="white" stroke="black" points="6512.5,-67.5 6512.5,-97.5 6622.5,-97.5 6622.5,-67.5 6512.5,-67.5"/>
<text text-anchor="start" x="6520.5" y="-85.5" font-family="Helvetica,sans-Serif" font-size="10.00">src/libs/vpatterndb</text>
<text text-anchor="middle" x="6567.5" y="-74.5" font-family="Helvetica,sans-Serif" font-size="10.00">/vtranslatevars.cpp</text>
</a>
</g>
</g>
<!-- Node1&#45;&gt;Node27 -->
<g id="edge58" class="edge">
<title>Node1&#45;&gt;Node27</title>
<path fill="none" stroke="midnightblue" d="M3794.34,-271.04C3808.68,-251.51 3832.33,-224.44 3860.5,-212 4129.4,-93.27 6212.15,-136.97 6503.5,-98 6506.44,-97.61 6509.44,-97.14 6512.46,-96.63"/>
<polygon fill="midnightblue" stroke="midnightblue" points="3791.35,-269.22 3788.43,-279.41 3797.06,-273.26 3791.35,-269.22"/>
</g>
<!-- Node43 -->
<g id="node39" class="node">
<title>Node43</title>
<g id="a_node39"><a xlink:href="../../d3/df7/vcontainer_8h.html" target="_top" xlink:title=" ">
<polygon fill="white" stroke="red" points="821,-212.5 821,-242.5 928,-242.5 928,-212.5 821,-212.5"/>
<text text-anchor="start" x="829" y="-230.5" font-family="Helvetica,sans-Serif" font-size="10.00">src/libs/vpatterndb</text>
<text text-anchor="middle" x="874.5" y="-219.5" font-family="Helvetica,sans-Serif" font-size="10.00">/vcontainer.h</text>
</a>
</g>
</g>
<!-- Node1&#45;&gt;Node43 -->
<g id="edge40" class="edge">
<title>Node1&#45;&gt;Node43</title>
<path fill="none" stroke="midnightblue" d="M3715.77,-292.07C3327.59,-283.39 1285.89,-237.7 928.05,-229.7"/>
<polygon fill="midnightblue" stroke="midnightblue" points="3715.89,-295.58 3725.97,-292.3 3716.05,-288.58 3715.89,-295.58"/>
</g>
<!-- Node63 -->
<g id="node48" class="node">
<title>Node63</title>
<g id="a_node48"><a xlink:href="../../df/de5/dialogspline_8cpp.html" target="_top" xlink:title=" ">
<polygon fill="white" stroke="black" points="3869.5,-212.5 3869.5,-242.5 3995.5,-242.5 3995.5,-212.5 3869.5,-212.5"/>
<text text-anchor="start" x="3877.5" y="-230.5" font-family="Helvetica,sans-Serif" font-size="10.00">src/libs/vtools/dialogs</text>
<text text-anchor="middle" x="3932.5" y="-219.5" font-family="Helvetica,sans-Serif" font-size="10.00">/tools/dialogspline.cpp</text>
</a>
</g>
</g>
<!-- Node1&#45;&gt;Node63 -->
<g id="edge59" class="edge">
<title>Node1&#45;&gt;Node63</title>
<path fill="none" stroke="midnightblue" d="M3822.09,-275.41C3846.52,-265.03 3876.72,-252.2 3899.37,-242.58"/>
<polygon fill="midnightblue" stroke="midnightblue" points="3820.53,-272.26 3812.7,-279.4 3823.27,-278.71 3820.53,-272.26"/>
</g>
<!-- Node64 -->
<g id="node49" class="node">
<title>Node64</title>
<g id="a_node49"><a xlink:href="../../dc/dc2/dialogsplinepath_8cpp.html" target="_top" xlink:title=" ">
<polygon fill="white" stroke="black" points="4013.5,-212.5 4013.5,-242.5 4161.5,-242.5 4161.5,-212.5 4013.5,-212.5"/>
<text text-anchor="start" x="4021.5" y="-230.5" font-family="Helvetica,sans-Serif" font-size="10.00">src/libs/vtools/dialogs</text>
<text text-anchor="middle" x="4087.5" y="-219.5" font-family="Helvetica,sans-Serif" font-size="10.00">/tools/dialogsplinepath.cpp</text>
</a>
</g>
</g>
<!-- Node1&#45;&gt;Node64 -->
<g id="edge60" class="edge">
<title>Node1&#45;&gt;Node64</title>
<path fill="none" stroke="midnightblue" d="M3843.25,-280.05C3895.22,-269.08 3968.38,-253.64 4021.06,-242.52"/>
<polygon fill="midnightblue" stroke="midnightblue" points="3842.21,-276.69 3833.15,-282.18 3843.66,-283.54 3842.21,-276.69"/>
</g>
<!-- Node65 -->
<g id="node50" class="node">
<title>Node65</title>
<g id="a_node50"><a xlink:href="../../d1/d75/vistoolendline_8cpp.html" target="_top" xlink:title=" ">
<polygon fill="white" stroke="black" points="4180,-212.5 4180,-242.5 4329,-242.5 4329,-212.5 4180,-212.5"/>
<text text-anchor="start" x="4188" y="-230.5" font-family="Helvetica,sans-Serif" font-size="10.00">src/libs/vtools/visualization</text>
<text text-anchor="middle" x="4254.5" y="-219.5" font-family="Helvetica,sans-Serif" font-size="10.00">/line/vistoolendline.cpp</text>
</a>
</g>
</g>
<!-- Node1&#45;&gt;Node65 -->
<g id="edge61" class="edge">
<title>Node1&#45;&gt;Node65</title>
<path fill="none" stroke="midnightblue" d="M3843.12,-286.12C3920.6,-276.95 4055.37,-260.36 4170.5,-243 4173.57,-242.54 4176.71,-242.05 4179.87,-241.55"/>
<polygon fill="midnightblue" stroke="midnightblue" points="3842.56,-282.67 3833.04,-287.32 3843.38,-289.62 3842.56,-282.67"/>
</g>
<!-- Node3 -->
<g id="node3" class="node">
<title>Node3</title>
<g id="a_node3"><a xlink:href="../../d4/d90/fvupdater_8cpp.html" target="_top" xlink:title=" ">
<polygon fill="white" stroke="black" points="4385,-73 4385,-92 4538,-92 4538,-73 4385,-73"/>
<text text-anchor="middle" x="4461.5" y="-80" font-family="Helvetica,sans-Serif" font-size="10.00">src/libs/fervor/fvupdater.cpp</text>
</a>
</g>
</g>
<!-- Node2&#45;&gt;Node3 -->
<g id="edge2" class="edge">
<title>Node2&#45;&gt;Node3</title>
<path fill="none" stroke="midnightblue" d="M3789.55,-143.59C3808.33,-140.08 3829.82,-136.44 3849.5,-134 4082.05,-105.18 4142.8,-125.51 4375.5,-98 4388.73,-96.44 4403.03,-94.23 4416.1,-92.02"/>
<polygon fill="midnightblue" stroke="midnightblue" points="3788.88,-140.15 3779.71,-145.46 3790.19,-147.03 3788.88,-140.15"/>
</g>
<!-- Node4 -->
<g id="node4" class="node">
<title>Node4</title>
<g id="a_node4"><a xlink:href="../../d9/dc8/dxiface_8cpp.html" target="_top" xlink:title=" ">
<polygon fill="white" stroke="black" points="4556,-73 4556,-92 4691,-92 4691,-73 4556,-73"/>
<text text-anchor="middle" x="4623.5" y="-80" font-family="Helvetica,sans-Serif" font-size="10.00">src/libs/vdxf/dxiface.cpp</text>
</a>
</g>
</g>
<!-- Node2&#45;&gt;Node4 -->
<g id="edge3" class="edge">
<title>Node2&#45;&gt;Node4</title>
<path fill="none" stroke="midnightblue" d="M3788.59,-143.59C3807.59,-140 3829.47,-136.31 3849.5,-134 4157.64,-98.43 4238.5,-134.78 4546.5,-98 4558.66,-96.55 4571.78,-94.32 4583.69,-92.05"/>
<polygon fill="midnightblue" stroke="midnightblue" points="3787.81,-140.17 3778.65,-145.5 3789.13,-147.04 3787.81,-140.17"/>
</g>
<!-- Node5 -->
<g id="node5" class="node">
<title>Node5</title>
<g id="a_node5"><a xlink:href="../../da/d75/vabstractarc__p_8h.html" target="_top" xlink:title=" ">
<polygon fill="white" stroke="red" points="4709,-67.5 4709,-97.5 4816,-97.5 4816,-67.5 4709,-67.5"/>
<text text-anchor="start" x="4717" y="-85.5" font-family="Helvetica,sans-Serif" font-size="10.00">src/libs/vgeometry</text>
<text text-anchor="middle" x="4762.5" y="-74.5" font-family="Helvetica,sans-Serif" font-size="10.00">/vabstractarc_p.h</text>
</a>
</g>
</g>
<!-- Node2&#45;&gt;Node5 -->
<g id="edge4" class="edge">
<title>Node2&#45;&gt;Node5</title>
<path fill="none" stroke="midnightblue" d="M3788.34,-143.53C3807.39,-139.92 3829.37,-136.23 3849.5,-134 4225.32,-92.38 4324.79,-148.62 4699.5,-98 4702.5,-97.59 4705.57,-97.11 4708.66,-96.58"/>
<polygon fill="midnightblue" stroke="midnightblue" points="3787.54,-140.12 3778.38,-145.46 3788.87,-146.99 3787.54,-140.12"/>
</g>
<!-- Node7 -->
<g id="node6" class="node">
<title>Node7</title>
<g id="a_node6"><a xlink:href="../../dc/da3/varc__p_8h.html" target="_top" xlink:title=" ">
<polygon fill="white" stroke="red" points="4834,-67.5 4834,-97.5 4941,-97.5 4941,-67.5 4834,-67.5"/>
<text text-anchor="start" x="4842" y="-85.5" font-family="Helvetica,sans-Serif" font-size="10.00">src/libs/vgeometry</text>
<text text-anchor="middle" x="4887.5" y="-74.5" font-family="Helvetica,sans-Serif" font-size="10.00">/varc_p.h</text>
</a>
</g>
</g>
<!-- Node2&#45;&gt;Node7 -->
<g id="edge5" class="edge">
<title>Node2&#45;&gt;Node7</title>
<path fill="none" stroke="midnightblue" d="M3788.1,-143.52C3807.21,-139.89 3829.28,-136.18 3849.5,-134 4280.62,-87.44 4394.62,-154.88 4824.5,-98 4827.5,-97.6 4830.58,-97.13 4833.67,-96.6"/>
<polygon fill="midnightblue" stroke="midnightblue" points="3787.27,-140.11 3778.12,-145.46 3788.6,-146.98 3787.27,-140.11"/>
</g>
<!-- Node9 -->
<g id="node7" class="node">
<title>Node9</title>
<g id="a_node7"><a xlink:href="../../d5/d8e/vcubicbezier__p_8h.html" target="_top" xlink:title=" ">
<polygon fill="white" stroke="red" points="4959,-67.5 4959,-97.5 5066,-97.5 5066,-67.5 4959,-67.5"/>
<text text-anchor="start" x="4967" y="-85.5" font-family="Helvetica,sans-Serif" font-size="10.00">src/libs/vgeometry</text>
<text text-anchor="middle" x="5012.5" y="-74.5" font-family="Helvetica,sans-Serif" font-size="10.00">/vcubicbezier_p.h</text>
</a>
</g>
</g>
<!-- Node2&#45;&gt;Node9 -->
<g id="edge6" class="edge">
<title>Node2&#45;&gt;Node9</title>
<path fill="none" stroke="midnightblue" d="M3787.86,-143.52C3807.02,-139.87 3829.2,-136.15 3849.5,-134 4335.93,-82.49 4464.44,-161.15 4949.5,-98 4952.5,-97.61 4955.58,-97.14 4958.67,-96.61"/>
<polygon fill="midnightblue" stroke="midnightblue" points="3787,-140.12 3777.86,-145.47 3788.34,-146.99 3787,-140.12"/>
</g>
<!-- Node11 -->
<g id="node8" class="node">
<title>Node11</title>
<g id="a_node8"><a xlink:href="../../df/dde/vellipticalarc__p_8h.html" target="_top" xlink:title=" ">
<polygon fill="white" stroke="black" points="5084,-67.5 5084,-97.5 5191,-97.5 5191,-67.5 5084,-67.5"/>
<text text-anchor="start" x="5092" y="-85.5" font-family="Helvetica,sans-Serif" font-size="10.00">src/libs/vgeometry</text>
<text text-anchor="middle" x="5137.5" y="-74.5" font-family="Helvetica,sans-Serif" font-size="10.00">/vellipticalarc_p.h</text>
</a>
</g>
</g>
<!-- Node2&#45;&gt;Node11 -->
<g id="edge7" class="edge">
<title>Node2&#45;&gt;Node11</title>
<path fill="none" stroke="midnightblue" d="M3787.63,-143.52C3806.84,-139.86 3829.11,-136.12 3849.5,-134 4391.25,-77.55 4534.26,-167.42 5074.5,-98 5077.51,-97.61 5080.58,-97.15 5083.67,-96.62"/>
<polygon fill="midnightblue" stroke="midnightblue" points="3786.74,-140.13 3777.6,-145.49 3788.08,-147 3786.74,-140.13"/>
</g>
<!-- Node12 -->
<g id="node9" class="node">
<title>Node12</title>
<g id="a_node9"><a xlink:href="../../d6/dfb/vellipticalarc_8cpp.html" target="_top" xlink:title=" ">
<polygon fill="white" stroke="black" points="5289,-0.5 5289,-30.5 5396,-30.5 5396,-0.5 5289,-0.5"/>
<text text-anchor="start" x="5297" y="-18.5" font-family="Helvetica,sans-Serif" font-size="10.00">src/libs/vgeometry</text>
<text text-anchor="middle" x="5342.5" y="-7.5" font-family="Helvetica,sans-Serif" font-size="10.00">/vellipticalarc.cpp</text>
</a>
</g>
</g>
<!-- Node2&#45;&gt;Node12 -->
<g id="edge9" class="edge">
<title>Node2&#45;&gt;Node12</title>
<path fill="none" stroke="midnightblue" d="M3787.39,-143.48C3806.65,-139.79 3829.02,-136.05 3849.5,-134 3895.94,-129.35 5496.85,-131.36 5529.5,-98 5573.59,-52.95 5465.96,-31.15 5396.28,-22.04"/>
<polygon fill="midnightblue" stroke="midnightblue" points="3786.47,-140.1 3777.33,-145.46 3787.82,-146.97 3786.47,-140.1"/>
</g>
<!-- Node13 -->
<g id="node10" class="node">
<title>Node13</title>
<g id="a_node10"><a xlink:href="../../d1/d76/vspline__p_8h.html" target="_top" xlink:title=" ">
<polygon fill="white" stroke="red" points="5209,-67.5 5209,-97.5 5316,-97.5 5316,-67.5 5209,-67.5"/>
<text text-anchor="start" x="5217" y="-85.5" font-family="Helvetica,sans-Serif" font-size="10.00">src/libs/vgeometry</text>
<text text-anchor="middle" x="5262.5" y="-74.5" font-family="Helvetica,sans-Serif" font-size="10.00">/vspline_p.h</text>
</a>
</g>
</g>
<!-- Node2&#45;&gt;Node13 -->
<g id="edge10" class="edge">
<title>Node2&#45;&gt;Node13</title>
<path fill="none" stroke="midnightblue" d="M3787.62,-143.5C3806.83,-139.82 3829.11,-136.1 3849.5,-134 4446.57,-72.61 4604.08,-173.69 5199.5,-98 5202.51,-97.62 5205.58,-97.16 5208.67,-96.63"/>
<polygon fill="midnightblue" stroke="midnightblue" points="3786.73,-140.1 3777.59,-145.46 3788.08,-146.97 3786.73,-140.1"/>
</g>
<!-- Node15 -->
<g id="node11" class="node">
<title>Node15</title>
<g id="a_node11"><a xlink:href="../../d9/d15/vabstractpiece_8cpp.html" target="_top" xlink:title=" ">
<polygon fill="white" stroke="black" points="5334.5,-73 5334.5,-92 5520.5,-92 5520.5,-73 5334.5,-73"/>
<text text-anchor="middle" x="5427.5" y="-80" font-family="Helvetica,sans-Serif" font-size="10.00">src/libs/vlayout/vabstractpiece.cpp</text>
</a>
</g>
</g>
<!-- Node2&#45;&gt;Node15 -->
<g id="edge11" class="edge">
<title>Node2&#45;&gt;Node15</title>
<path fill="none" stroke="midnightblue" d="M3787.39,-143.52C3806.65,-139.83 3829.02,-136.08 3849.5,-134 4502.33,-67.62 4671.55,-152.27 5325.5,-98 5341.99,-96.63 5359.88,-94.36 5376,-92.01"/>
<polygon fill="midnightblue" stroke="midnightblue" points="3786.47,-140.13 3777.33,-145.49 3787.82,-147 3786.47,-140.13"/>
</g>
<!-- Node16 -->
<g id="node12" class="node">
<title>Node16</title>
<g id="a_node12"><a xlink:href="../../dd/d70/vlayoutpiece_8cpp.html" target="_top" xlink:title=" ">
<polygon fill="white" stroke="black" points="1035,-73 1035,-92 1212,-92 1212,-73 1035,-73"/>
<text text-anchor="middle" x="1123.5" y="-80" font-family="Helvetica,sans-Serif" font-size="10.00">src/libs/vlayout/vlayoutpiece.cpp</text>
</a>
</g>
</g>
<!-- Node2&#45;&gt;Node16 -->
<g id="edge12" class="edge">
<title>Node2&#45;&gt;Node16</title>
<path fill="none" stroke="midnightblue" d="M3630.73,-153.39C3213.01,-150.76 1700.25,-138.58 1221.5,-98 1205.56,-96.65 1188.27,-94.37 1172.71,-92.01"/>
<polygon fill="midnightblue" stroke="midnightblue" points="3630.96,-156.89 3640.99,-153.46 3631.01,-149.89 3630.96,-156.89"/>
</g>
<!-- Node17 -->
<g id="node13" class="node">
<title>Node17</title>
<g id="a_node13"><a xlink:href="../../d8/d70/vtextmanager_8cpp.html" target="_top" xlink:title=" ">
<polygon fill="white" stroke="black" points="1230.5,-73 1230.5,-92 1412.5,-92 1412.5,-73 1230.5,-73"/>
<text text-anchor="middle" x="1321.5" y="-80" font-family="Helvetica,sans-Serif" font-size="10.00">src/libs/vlayout/vtextmanager.cpp</text>
</a>
</g>
</g>
<!-- Node2&#45;&gt;Node17 -->
<g id="edge13" class="edge">
<title>Node2&#45;&gt;Node17</title>
<path fill="none" stroke="midnightblue" d="M3630.72,-153.11C3234.51,-149.58 1859.03,-134.87 1421.5,-98 1405.33,-96.64 1387.79,-94.37 1371.98,-92.02"/>
<polygon fill="midnightblue" stroke="midnightblue" points="3630.72,-156.61 3640.75,-153.2 3630.78,-149.61 3630.72,-156.61"/>
</g>
<!-- Node18 -->
<g id="node14" class="node">
<title>Node18</title>
<g id="a_node14"><a xlink:href="../../db/d65/dialogexporttocsv_8cpp.html" target="_top" xlink:title=" ">
<polygon fill="white" stroke="black" points="5577,-67.5 5577,-97.5 5704,-97.5 5704,-67.5 5577,-67.5"/>
<text text-anchor="start" x="5585" y="-85.5" font-family="Helvetica,sans-Serif" font-size="10.00">src/libs/vmisc/dialogs</text>
<text text-anchor="middle" x="5640.5" y="-74.5" font-family="Helvetica,sans-Serif" font-size="10.00">/dialogexporttocsv.cpp</text>
</a>
</g>
</g>
<!-- Node2&#45;&gt;Node18 -->
<g id="edge14" class="edge">
<title>Node2&#45;&gt;Node18</title>
<path fill="none" stroke="midnightblue" d="M3787.38,-143.48C3806.65,-139.79 3829.02,-136.05 3849.5,-134 4607.22,-58.25 4804.99,-175.85 5562.5,-98 5567.16,-97.52 5571.96,-96.91 5576.77,-96.22"/>
<polygon fill="midnightblue" stroke="midnightblue" points="3786.47,-140.09 3777.33,-145.46 3787.82,-146.96 3786.47,-140.09"/>
</g>
<!-- Node19 -->
<g id="node15" class="node">
<title>Node19</title>
<g id="a_node15"><a xlink:href="../../d6/d0b/def_8cpp.html" target="_top" xlink:title=" ">
<polygon fill="white" stroke="black" points="5722.5,-73 5722.5,-92 5844.5,-92 5844.5,-73 5722.5,-73"/>
<text text-anchor="middle" x="5783.5" y="-80" font-family="Helvetica,sans-Serif" font-size="10.00">src/libs/vmisc/def.cpp</text>
</a>
</g>
</g>
<!-- Node2&#45;&gt;Node19 -->
<g id="edge15" class="edge">
<title>Node2&#45;&gt;Node19</title>
<path fill="none" stroke="midnightblue" d="M3787.15,-143.51C3806.46,-139.79 3828.94,-136.04 3849.5,-134 4674.06,-52.28 4890.07,-190.43 5713.5,-98 5725.09,-96.7 5737.61,-94.4 5748.81,-92.01"/>
<polygon fill="midnightblue" stroke="midnightblue" points="3786.21,-140.13 3777.07,-145.49 3787.56,-146.99 3786.21,-140.13"/>
</g>
<!-- Node20 -->
<g id="node16" class="node">
<title>Node20</title>
<g id="a_node16"><a xlink:href="../../d0/df6/vabstractapplication_8cpp.html" target="_top" xlink:title=" ">
<polygon fill="white" stroke="black" points="5862.5,-73 5862.5,-92 6068.5,-92 6068.5,-73 5862.5,-73"/>
<text text-anchor="middle" x="5965.5" y="-80" font-family="Helvetica,sans-Serif" font-size="10.00">src/libs/vmisc/vabstractapplication.cpp</text>
</a>
</g>
</g>
<!-- Node2&#45;&gt;Node20 -->
<g id="edge16" class="edge">
<title>Node2&#45;&gt;Node20</title>
<path fill="none" stroke="midnightblue" d="M3787.15,-143.49C3806.46,-139.78 3828.93,-136.02 3849.5,-134 4736.03,-46.74 4965.09,-163.29 5853.5,-98 5871.69,-96.66 5891.44,-94.38 5909.22,-92.02"/>
<polygon fill="midnightblue" stroke="midnightblue" points="3786.2,-140.11 3777.07,-145.48 3787.56,-146.98 3786.2,-140.11"/>
</g>
<!-- Node21 -->
<g id="node17" class="node">
<title>Node21</title>
<g id="a_node17"><a xlink:href="../../d4/d4f/pmsystems_8cpp.html" target="_top" xlink:title=" ">
<polygon fill="white" stroke="black" points="6087,-67.5 6087,-97.5 6194,-97.5 6194,-67.5 6087,-67.5"/>
<text text-anchor="start" x="6095" y="-85.5" font-family="Helvetica,sans-Serif" font-size="10.00">src/libs/vpatterndb</text>
<text text-anchor="middle" x="6140.5" y="-74.5" font-family="Helvetica,sans-Serif" font-size="10.00">/pmsystems.cpp</text>
</a>
</g>
</g>
<!-- Node2&#45;&gt;Node21 -->
<g id="edge17" class="edge">
<title>Node2&#45;&gt;Node21</title>
<path fill="none" stroke="midnightblue" d="M3786.88,-143.52C3806.25,-139.79 3828.84,-136.01 3849.5,-134 4342.34,-85.94 5585.96,-157.86 6077.5,-98 6080.51,-97.63 6083.58,-97.18 6086.68,-96.67"/>
<polygon fill="midnightblue" stroke="midnightblue" points="3786.2,-140.09 3777.07,-145.46 3787.56,-146.96 3786.2,-140.09"/>
</g>
<!-- Node2&#45;&gt;Node22 -->
<g id="edge18" class="edge">
<title>Node2&#45;&gt;Node22</title>
<path fill="none" stroke="midnightblue" d="M3630.93,-152.28C3234.92,-145.89 1820.62,-122.65 654.5,-98 452.59,-93.73 212.54,-87.63 107.37,-84.91"/>
<polygon fill="midnightblue" stroke="midnightblue" points="3630.89,-155.78 3640.95,-152.44 3631,-148.78 3630.89,-155.78"/>
</g>
<!-- Node23 -->
<g id="node19" class="node">
<title>Node23</title>
<g id="a_node19"><a xlink:href="../../df/d7a/vpiece_8cpp.html" target="_top" xlink:title=" ">
<polygon fill="white" stroke="black" points="1431,-67.5 1431,-97.5 1538,-97.5 1538,-67.5 1431,-67.5"/>
<text text-anchor="start" x="1439" y="-85.5" font-family="Helvetica,sans-Serif" font-size="10.00">src/libs/vpatterndb</text>
<text text-anchor="middle" x="1484.5" y="-74.5" font-family="Helvetica,sans-Serif" font-size="10.00">/vpiece.cpp</text>
</a>
</g>
</g>
<!-- Node2&#45;&gt;Node23 -->
<g id="edge19" class="edge">
<title>Node2&#45;&gt;Node23</title>
<path fill="none" stroke="midnightblue" d="M3630.68,-154.16C3248.05,-154.26 1956.45,-150.61 1546.5,-98 1543.76,-97.65 1540.96,-97.23 1538.15,-96.75"/>
<polygon fill="midnightblue" stroke="midnightblue" points="3630.91,-157.66 3640.91,-154.15 3630.91,-150.66 3630.91,-157.66"/>
</g>
<!-- Node24 -->
<g id="node20" class="node">
<title>Node24</title>
<g id="a_node20"><a xlink:href="../../df/dba/vpiecenode__p_8h.html" target="_top" xlink:title=" ">
<polygon fill="white" stroke="black" points="1556,-67.5 1556,-97.5 1663,-97.5 1663,-67.5 1556,-67.5"/>
<text text-anchor="start" x="1564" y="-85.5" font-family="Helvetica,sans-Serif" font-size="10.00">src/libs/vpatterndb</text>
<text text-anchor="middle" x="1609.5" y="-74.5" font-family="Helvetica,sans-Serif" font-size="10.00">/vpiecenode_p.h</text>
</a>
</g>
</g>
<!-- Node2&#45;&gt;Node24 -->
<g id="edge20" class="edge">
<title>Node2&#45;&gt;Node24</title>
<path fill="none" stroke="midnightblue" d="M3630.61,-153.96C3262.24,-153.38 2055.86,-147.63 1671.5,-98 1668.76,-97.65 1665.96,-97.22 1663.15,-96.75"/>
<polygon fill="midnightblue" stroke="midnightblue" points="3630.73,-157.46 3640.74,-153.98 3630.74,-150.46 3630.73,-157.46"/>
</g>
<!-- Node2&#45;&gt;Node26 -->
<g id="edge22" class="edge">
<title>Node2&#45;&gt;Node26</title>
<path fill="none" stroke="midnightblue" d="M3630.76,-153.28C3132.9,-149.8 1067.11,-133.31 780.5,-98 777.49,-97.63 774.42,-97.18 771.33,-96.66"/>
<polygon fill="midnightblue" stroke="midnightblue" points="3630.79,-156.78 3640.82,-153.35 3630.84,-149.78 3630.79,-156.78"/>
</g>
<!-- Node2&#45;&gt;Node27 -->
<g id="edge23" class="edge">
<title>Node2&#45;&gt;Node27</title>
<path fill="none" stroke="midnightblue" d="M3786.64,-143.54C3806.07,-139.79 3828.75,-136 3849.5,-134 4436.62,-77.51 5917.78,-167.55 6503.5,-98 6506.44,-97.65 6509.45,-97.22 6512.47,-96.74"/>
<polygon fill="midnightblue" stroke="midnightblue" points="3785.94,-140.11 3776.81,-145.49 3787.3,-146.98 3785.94,-140.11"/>
</g>
<!-- Node28 -->
<g id="node24" class="node">
<title>Node28</title>
<g id="a_node24"><a xlink:href="../../df/d40/export__format__combobox_8cpp.html" target="_top" xlink:title=" ">
<polygon fill="white" stroke="black" points="6212,-67.5 6212,-97.5 6345,-97.5 6345,-67.5 6212,-67.5"/>
<text text-anchor="start" x="6220" y="-85.5" font-family="Helvetica,sans-Serif" font-size="10.00">src/libs/vwidgets/export</text>
<text text-anchor="middle" x="6278.5" y="-74.5" font-family="Helvetica,sans-Serif" font-size="10.00">_format_combobox.cpp</text>
</a>
</g>
</g>
<!-- Node2&#45;&gt;Node28 -->
<g id="edge24" class="edge">
<title>Node2&#45;&gt;Node28</title>
<path fill="none" stroke="midnightblue" d="M3786.88,-143.52C3806.25,-139.78 3828.84,-136.01 3849.5,-134 4370.22,-83.45 5683.11,-151.86 6203.5,-98 6206.27,-97.71 6209.09,-97.38 6211.93,-97"/>
<polygon fill="midnightblue" stroke="midnightblue" points="3786.2,-140.08 3777.07,-145.45 3787.56,-146.95 3786.2,-140.08"/>
</g>
<!-- Node29 -->
<g id="node25" class="node">
<title>Node29</title>
<g id="a_node25"><a xlink:href="../../d2/d28/page__format__combobox_8cpp.html" target="_top" xlink:title=" ">
<polygon fill="white" stroke="black" points="6363,-67.5 6363,-97.5 6494,-97.5 6494,-67.5 6363,-67.5"/>
<text text-anchor="start" x="6371" y="-85.5" font-family="Helvetica,sans-Serif" font-size="10.00">src/libs/vwidgets/page</text>
<text text-anchor="middle" x="6428.5" y="-74.5" font-family="Helvetica,sans-Serif" font-size="10.00">_format_combobox.cpp</text>
</a>
</g>
</g>
<!-- Node2&#45;&gt;Node29 -->
<g id="edge25" class="edge">
<title>Node2&#45;&gt;Node29</title>
<path fill="none" stroke="midnightblue" d="M3786.64,-143.55C3806.07,-139.8 3828.75,-136 3849.5,-134 4403.64,-80.46 5800.78,-155.76 6354.5,-98 6357.23,-97.71 6360.02,-97.38 6362.82,-97"/>
<polygon fill="midnightblue" stroke="midnightblue" points="3785.94,-140.12 3776.81,-145.5 3787.3,-146.99 3785.94,-140.12"/>
</g>
<!-- Node30 -->
<g id="node26" class="node">
<title>Node30</title>
<g id="a_node26"><a xlink:href="../../d7/d1b/pen__toolbar_8cpp.html" target="_top" xlink:title=" ">
<polygon fill="white" stroke="black" points="1681,-67.5 1681,-97.5 1800,-97.5 1800,-67.5 1681,-67.5"/>
<text text-anchor="start" x="1689" y="-85.5" font-family="Helvetica,sans-Serif" font-size="10.00">src/libs/vwidgets/pen</text>
<text text-anchor="middle" x="1740.5" y="-74.5" font-family="Helvetica,sans-Serif" font-size="10.00">_toolbar.cpp</text>
</a>
</g>
</g>
<!-- Node2&#45;&gt;Node30 -->
<g id="edge26" class="edge">
<title>Node2&#45;&gt;Node30</title>
<path fill="none" stroke="midnightblue" d="M3630.73,-153.4C3278.92,-151.03 2166.24,-140.32 1809.5,-98 1806.46,-97.64 1803.36,-97.21 1800.23,-96.73"/>
<polygon fill="midnightblue" stroke="midnightblue" points="3630.89,-156.9 3640.92,-153.47 3630.94,-149.9 3630.89,-156.9"/>
</g>
<!-- Node31 -->
<g id="node27" class="node">
<title>Node31</title>
<g id="a_node27"><a xlink:href="../../d8/d76/scene__rect_8cpp.html" target="_top" xlink:title=" ">
<polygon fill="white" stroke="black" points="1818.5,-67.5 1818.5,-97.5 1948.5,-97.5 1948.5,-67.5 1818.5,-67.5"/>
<text text-anchor="start" x="1826.5" y="-85.5" font-family="Helvetica,sans-Serif" font-size="10.00">src/libs/vwidgets/scene</text>
<text text-anchor="middle" x="1883.5" y="-74.5" font-family="Helvetica,sans-Serif" font-size="10.00">_rect.cpp</text>
</a>
</g>
</g>
<!-- Node2&#45;&gt;Node31 -->
<g id="edge27" class="edge">
<title>Node2&#45;&gt;Node31</title>
<path fill="none" stroke="midnightblue" d="M3630.81,-152.9C3297.29,-149.14 2284.38,-134.92 1957.5,-98 1954.64,-97.68 1951.72,-97.3 1948.78,-96.89"/>
<polygon fill="midnightblue" stroke="midnightblue" points="3630.91,-156.4 3640.95,-153.02 3630.99,-149.4 3630.91,-156.4"/>
</g>
<!-- Node32 -->
<g id="node28" class="node">
<title>Node32</title>
<g id="a_node28"><a xlink:href="../../d3/d4f/mouse__coordinates_8cpp.html" target="_top" xlink:title=" ">
<polygon fill="white" stroke="black" points="1966.5,-67.5 1966.5,-97.5 2100.5,-97.5 2100.5,-67.5 1966.5,-67.5"/>
<text text-anchor="start" x="1974.5" y="-85.5" font-family="Helvetica,sans-Serif" font-size="10.00">src/libs/vwidgets/mouse</text>
<text text-anchor="middle" x="2033.5" y="-74.5" font-family="Helvetica,sans-Serif" font-size="10.00">_coordinates.cpp</text>
</a>
</g>
</g>
<!-- Node2&#45;&gt;Node32 -->
<g id="edge28" class="edge">
<title>Node2&#45;&gt;Node32</title>
<path fill="none" stroke="midnightblue" d="M3630.86,-152.47C3316.88,-147.65 2405.61,-131.14 2109.5,-98 2106.56,-97.67 2103.57,-97.29 2100.55,-96.87"/>
<polygon fill="midnightblue" stroke="midnightblue" points="3630.82,-155.97 3640.88,-152.62 3630.93,-148.97 3630.82,-155.97"/>
</g>
<!-- Node33 -->
<g id="node29" class="node">
<title>Node33</title>
<g id="a_node29"><a xlink:href="../../dd/df6/vabstractmainwindow_8cpp.html" target="_top" xlink:title=" ">
<polygon fill="white" stroke="black" points="2119,-73 2119,-92 2348,-92 2348,-73 2119,-73"/>
<text text-anchor="middle" x="2233.5" y="-80" font-family="Helvetica,sans-Serif" font-size="10.00">src/libs/vwidgets/vabstractmainwindow.cpp</text>
</a>
</g>
</g>
<!-- Node2&#45;&gt;Node33 -->
<g id="edge29" class="edge">
<title>Node2&#45;&gt;Node33</title>
<path fill="none" stroke="midnightblue" d="M3630.58,-152.45C3397.6,-148.48 2830.31,-135.47 2356.5,-98 2337.42,-96.49 2316.74,-94.28 2297.88,-92.03"/>
<polygon fill="midnightblue" stroke="midnightblue" points="3630.69,-155.95 3640.74,-152.62 3630.8,-148.95 3630.69,-155.95"/>
</g>
<!-- Node34 -->
<g id="node30" class="node">
<title>Node34</title>
<g id="a_node30"><a xlink:href="../../de/d45/vcontrolpointspline_8cpp.html" target="_top" xlink:title=" ">
<polygon fill="white" stroke="black" points="2366,-73 2366,-92 2581,-92 2581,-73 2366,-73"/>
<text text-anchor="middle" x="2473.5" y="-80" font-family="Helvetica,sans-Serif" font-size="10.00">src/libs/vwidgets/vcontrolpointspline.cpp</text>
</a>
</g>
</g>
<!-- Node2&#45;&gt;Node34 -->
<g id="edge30" class="edge">
<title>Node2&#45;&gt;Node34</title>
<path fill="none" stroke="midnightblue" d="M3630.62,-151.46C3426.86,-146.07 2971.54,-131.14 2589.5,-98 2571.61,-96.45 2552.22,-94.24 2534.51,-92.01"/>
<polygon fill="midnightblue" stroke="midnightblue" points="3630.64,-154.97 3640.73,-151.73 3630.82,-147.97 3630.64,-154.97"/>
</g>
<!-- Node35 -->
<g id="node31" class="node">
<title>Node35</title>
<g id="a_node31"><a xlink:href="../../d1/d90/vgrainlineitem_8cpp.html" target="_top" xlink:title=" ">
<polygon fill="white" stroke="black" points="2599,-73 2599,-92 2792,-92 2792,-73 2599,-73"/>
<text text-anchor="middle" x="2695.5" y="-80" font-family="Helvetica,sans-Serif" font-size="10.00">src/libs/vwidgets/vgrainlineitem.cpp</text>
</a>
</g>
</g>
<!-- Node2&#45;&gt;Node35 -->
<g id="edge31" class="edge">
<title>Node2&#45;&gt;Node35</title>
<path fill="none" stroke="midnightblue" d="M3630.63,-150.23C3456.09,-143.52 3101.05,-127.4 2801.5,-98 2785.33,-96.41 2767.82,-94.22 2751.79,-92.01"/>
<polygon fill="midnightblue" stroke="midnightblue" points="3630.72,-153.73 3640.85,-150.62 3630.99,-146.74 3630.72,-153.73"/>
</g>
<!-- Node36 -->
<g id="node32" class="node">
<title>Node36</title>
<g id="a_node32"><a xlink:href="../../de/dec/vgraphicssimpletextitem_8cpp.html" target="_top" xlink:title=" ">
<polygon fill="white" stroke="black" points="2810.5,-73 2810.5,-92 3054.5,-92 3054.5,-73 2810.5,-73"/>
<text text-anchor="middle" x="2932.5" y="-80" font-family="Helvetica,sans-Serif" font-size="10.00">src/libs/vwidgets/vgraphicssimpletextitem.cpp</text>
</a>
</g>
</g>
<!-- Node2&#45;&gt;Node36 -->
<g id="edge32" class="edge">
<title>Node2&#45;&gt;Node36</title>
<path fill="none" stroke="midnightblue" d="M3630.68,-145.97C3497.37,-135.84 3263.55,-117.37 3063.5,-98 3044.94,-96.2 3024.92,-94.08 3006.25,-92.02"/>
<polygon fill="midnightblue" stroke="midnightblue" points="3630.66,-149.48 3640.9,-146.75 3631.19,-142.5 3630.66,-149.48"/>
</g>
<!-- Node37 -->
<g id="node33" class="node">
<title>Node37</title>
<g id="a_node33"><a xlink:href="../../d1/d88/vmaingraphicsscene_8cpp.html" target="_top" xlink:title=" ">
<polygon fill="white" stroke="black" points="3072.5,-73 3072.5,-92 3294.5,-92 3294.5,-73 3072.5,-73"/>
<text text-anchor="middle" x="3183.5" y="-80" font-family="Helvetica,sans-Serif" font-size="10.00">src/libs/vwidgets/vmaingraphicsscene.cpp</text>
</a>
</g>
</g>
<!-- Node2&#45;&gt;Node37 -->
<g id="edge33" class="edge">
<title>Node2&#45;&gt;Node37</title>
<path fill="none" stroke="midnightblue" d="M3661.59,-144.23C3552.42,-130.36 3354.27,-105.19 3250.68,-92.03"/>
<polygon fill="midnightblue" stroke="midnightblue" points="3661.19,-147.71 3671.55,-145.5 3662.07,-140.76 3661.19,-147.71"/>
</g>
<!-- Node38 -->
<g id="node34" class="node">
<title>Node38</title>
<g id="a_node34"><a xlink:href="../../d2/d31/vmaingraphicsview_8cpp.html" target="_top" xlink:title=" ">
<polygon fill="white" stroke="black" points="3312.5,-73 3312.5,-92 3528.5,-92 3528.5,-73 3312.5,-73"/>
<text text-anchor="middle" x="3420.5" y="-80" font-family="Helvetica,sans-Serif" font-size="10.00">src/libs/vwidgets/vmaingraphicsview.cpp</text>
</a>
</g>
</g>
<!-- Node2&#45;&gt;Node38 -->
<g id="edge34" class="edge">
<title>Node2&#45;&gt;Node38</title>
<path fill="none" stroke="midnightblue" d="M3690.01,-143.25C3626.65,-129.2 3516.97,-104.89 3458.99,-92.03"/>
<polygon fill="midnightblue" stroke="midnightblue" points="3689.62,-146.75 3700.14,-145.5 3691.14,-139.91 3689.62,-146.75"/>
</g>
<!-- Node39 -->
<g id="node35" class="node">
<title>Node39</title>
<g id="a_node35"><a xlink:href="../../d0/d5d/vscenepoint_8cpp.html" target="_top" xlink:title=" ">
<polygon fill="white" stroke="black" points="3547,-73 3547,-92 3728,-92 3728,-73 3547,-73"/>
<text text-anchor="middle" x="3637.5" y="-80" font-family="Helvetica,sans-Serif" font-size="10.00">src/libs/vwidgets/vscenepoint.cpp</text>
</a>
</g>
</g>
<!-- Node2&#45;&gt;Node39 -->
<g id="edge35" class="edge">
<title>Node2&#45;&gt;Node39</title>
<path fill="none" stroke="midnightblue" d="M3717.8,-139.55C3697.41,-125.32 3666.93,-104.04 3649.99,-92.22"/>
<polygon fill="midnightblue" stroke="midnightblue" points="3715.91,-142.5 3726.12,-145.36 3719.92,-136.76 3715.91,-142.5"/>
</g>
<!-- Node40 -->
<g id="node36" class="node">
<title>Node40</title>
<g id="a_node36"><a xlink:href="../../de/d22/vsimplecurve_8cpp.html" target="_top" xlink:title=" ">
<polygon fill="white" stroke="black" points="3746.5,-73 3746.5,-92 3934.5,-92 3934.5,-73 3746.5,-73"/>
<text text-anchor="middle" x="3840.5" y="-80" font-family="Helvetica,sans-Serif" font-size="10.00">src/libs/vwidgets/vsimplecurve.cpp</text>
</a>
</g>
</g>
<!-- Node2&#45;&gt;Node40 -->
<g id="edge36" class="edge">
<title>Node2&#45;&gt;Node40</title>
<path fill="none" stroke="midnightblue" d="M3759.4,-139.55C3780,-125.32 3810.78,-104.04 3827.89,-92.22"/>
<polygon fill="midnightblue" stroke="midnightblue" points="3757.24,-136.79 3751.01,-145.36 3761.22,-142.55 3757.24,-136.79"/>
</g>
<!-- Node41 -->
<g id="node37" class="node">
<title>Node41</title>
<g id="a_node37"><a xlink:href="../../df/d38/vsimplepoint_8cpp.html" target="_top" xlink:title=" ">
<polygon fill="white" stroke="black" points="3953,-73 3953,-92 4138,-92 4138,-73 3953,-73"/>
<text text-anchor="middle" x="4045.5" y="-80" font-family="Helvetica,sans-Serif" font-size="10.00">src/libs/vwidgets/vsimplepoint.cpp</text>
</a>
</g>
</g>
<!-- Node2&#45;&gt;Node41 -->
<g id="edge37" class="edge">
<title>Node2&#45;&gt;Node41</title>
<path fill="none" stroke="midnightblue" d="M3785.31,-143.25C3846.48,-129.2 3952.36,-104.89 4008.34,-92.03"/>
<polygon fill="midnightblue" stroke="midnightblue" points="3784.49,-139.85 3775.53,-145.5 3786.06,-146.67 3784.49,-139.85"/>
</g>
<!-- Node42 -->
<g id="node38" class="node">
<title>Node42</title>
<g id="a_node38"><a xlink:href="../../df/df5/vtextgraphicsitem_8cpp.html" target="_top" xlink:title=" ">
<polygon fill="white" stroke="black" points="4156,-73 4156,-92 4367,-92 4367,-73 4156,-73"/>
<text text-anchor="middle" x="4261.5" y="-80" font-family="Helvetica,sans-Serif" font-size="10.00">src/libs/vwidgets/vtextgraphicsitem.cpp</text>
</a>
</g>
</g>
<!-- Node2&#45;&gt;Node42 -->
<g id="edge38" class="edge">
<title>Node2&#45;&gt;Node42</title>
<path fill="none" stroke="midnightblue" d="M3792.5,-143.62C3810.59,-140.32 3830.88,-136.8 3849.5,-134 3980.98,-114.2 4014.54,-114.32 4146.5,-98 4161.98,-96.09 4178.62,-94 4194.31,-92.03"/>
<polygon fill="midnightblue" stroke="midnightblue" points="3791.63,-140.23 3782.43,-145.48 3792.9,-147.11 3791.63,-140.23"/>
</g>
<!-- Node11&#45;&gt;Node12 -->
<g id="edge8" class="edge">
<title>Node11&#45;&gt;Node12</title>
<path fill="none" stroke="midnightblue" d="M5191.29,-64.44C5224.52,-53.91 5266.65,-40.55 5298,-30.61"/>
<polygon fill="midnightblue" stroke="midnightblue" points="5190.2,-61.12 5181.73,-67.48 5192.32,-67.79 5190.2,-61.12"/>
</g>
<!-- Node25 -->
<g id="node21" class="node">
<title>Node25</title>
<g id="a_node21"><a xlink:href="../../d8/dba/vpiecenode_8cpp.html" target="_top" xlink:title=" ">
<polygon fill="white" stroke="black" points="1255,-0.5 1255,-30.5 1362,-30.5 1362,-0.5 1255,-0.5"/>
<text text-anchor="start" x="1263" y="-18.5" font-family="Helvetica,sans-Serif" font-size="10.00">src/libs/vpatterndb</text>
<text text-anchor="middle" x="1308.5" y="-7.5" font-family="Helvetica,sans-Serif" font-size="10.00">/vpiecenode.cpp</text>
</a>
</g>
</g>
<!-- Node24&#45;&gt;Node25 -->
<g id="edge21" class="edge">
<title>Node24&#45;&gt;Node25</title>
<path fill="none" stroke="midnightblue" d="M1546.13,-66.94C1476.92,-51.68 1408.54,-37.28 1362.44,-27.67"/>
<polygon fill="midnightblue" stroke="midnightblue" points="1545.38,-70.36 1555.9,-69.1 1546.89,-63.52 1545.38,-70.36"/>
</g>
<!-- Node43&#45;&gt;Node2 -->
<g id="edge47" class="edge">
<title>Node43&#45;&gt;Node2</title>
<path fill="none" stroke="midnightblue" d="M938.23,-224.93C1309.18,-215.8 3189.11,-169.52 3640.81,-158.4"/>
<polygon fill="midnightblue" stroke="midnightblue" points="938.12,-221.43 928.21,-225.18 938.29,-228.43 938.12,-221.43"/>
</g>
<!-- Node43&#45;&gt;Node17 -->
<g id="edge46" class="edge">
<title>Node43&#45;&gt;Node17</title>
<path fill="none" stroke="midnightblue" d="M938.36,-223.56C1053.83,-217.6 1287.84,-202.4 1313.5,-176 1335.75,-153.12 1328.37,-110.3 1323.88,-92.07"/>
<polygon fill="midnightblue" stroke="midnightblue" points="938.05,-220.07 928.24,-224.07 938.4,-227.06 938.05,-220.07"/>
</g>
<!-- Node43&#45;&gt;Node22 -->
<g id="edge50" class="edge">
<title>Node43&#45;&gt;Node22</title>
<path fill="none" stroke="midnightblue" d="M810.65,-226.85C630.5,-227.24 127.7,-223.98 72.5,-176 50.1,-156.53 49.88,-118.35 51.67,-97.65"/>
<polygon fill="midnightblue" stroke="midnightblue" points="810.78,-230.35 820.77,-226.82 810.76,-223.35 810.78,-230.35"/>
</g>
<!-- Node43&#45;&gt;Node23 -->
<g id="edge52" class="edge">
<title>Node43&#45;&gt;Node23</title>
<path fill="none" stroke="midnightblue" d="M938.5,-223C1047.35,-216.46 1263.71,-200.78 1335.5,-176 1387.88,-157.92 1441.09,-118.8 1467.48,-97.69"/>
<polygon fill="midnightblue" stroke="midnightblue" points="938.09,-219.52 928.31,-223.6 938.5,-226.51 938.09,-219.52"/>
</g>
<!-- Node43&#45;&gt;Node25 -->
<g id="edge55" class="edge">
<title>Node43&#45;&gt;Node25</title>
<path fill="none" stroke="midnightblue" d="M938.18,-220.29C994.89,-213.28 1071.73,-199.66 1090.5,-176 1102.1,-161.38 1099.98,-150.08 1090.5,-134 1073.73,-105.55 1042.27,-126.45 1025.5,-98 1018.51,-86.13 1016.65,-77.56 1025.5,-67 1054.18,-32.75 1181.11,-21.71 1254.88,-18.16"/>
<polygon fill="midnightblue" stroke="midnightblue" points="937.71,-216.82 928.2,-221.48 938.54,-223.77 937.71,-216.82"/>
</g>
<!-- Node43&#45;&gt;Node26 -->
<g id="edge53" class="edge">
<title>Node43&#45;&gt;Node26</title>
<path fill="none" stroke="midnightblue" d="M864.27,-203.12C854.42,-182.79 837.89,-153.58 816.5,-134 799.28,-118.24 776.22,-106.09 756.69,-97.67"/>
<polygon fill="midnightblue" stroke="midnightblue" points="861.16,-204.73 868.56,-212.32 867.5,-201.77 861.16,-204.73"/>
</g>
<!-- Node44 -->
<g id="node40" class="node">
<title>Node44</title>
<g id="a_node40"><a xlink:href="../../dc/db7/measurements_8h.html" target="_top" xlink:title=" ">
<polygon fill="white" stroke="black" points="903,-145.5 903,-164.5 1082,-164.5 1082,-145.5 903,-145.5"/>
<text text-anchor="middle" x="992.5" y="-152.5" font-family="Helvetica,sans-Serif" font-size="10.00">src/libs/vformat/measurements.h</text>
</a>
</g>
</g>
<!-- Node43&#45;&gt;Node44 -->
<g id="edge41" class="edge">
<title>Node43&#45;&gt;Node44</title>
<path fill="none" stroke="midnightblue" d="M906.98,-207.1C930.32,-193.15 960.66,-175.02 978.22,-164.53"/>
<polygon fill="midnightblue" stroke="midnightblue" points="904.88,-204.27 898.1,-212.4 908.48,-210.28 904.88,-204.27"/>
</g>
<!-- Node45 -->
<g id="node41" class="node">
<title>Node45</title>
<g id="a_node41"><a xlink:href="../../d9/de3/measurements_8cpp.html" target="_top" xlink:title=" ">
<polygon fill="white" stroke="black" points="789.5,-73 789.5,-92 979.5,-92 979.5,-73 789.5,-73"/>
<text text-anchor="middle" x="884.5" y="-80" font-family="Helvetica,sans-Serif" font-size="10.00">src/libs/vformat/measurements.cpp</text>
</a>
</g>
</g>
<!-- Node43&#45;&gt;Node45 -->
<g id="edge43" class="edge">
<title>Node43&#45;&gt;Node45</title>
<path fill="none" stroke="midnightblue" d="M876.2,-202.24C878.47,-169.78 882.38,-113.81 883.89,-92.28"/>
<polygon fill="midnightblue" stroke="midnightblue" points="872.7,-202.05 875.5,-212.27 879.68,-202.53 872.7,-202.05"/>
</g>
<!-- Node46 -->
<g id="node42" class="node">
<title>Node46</title>
<g id="a_node42"><a xlink:href="../../d6/de0/vlayoutpiece_8h.html" target="_top" xlink:title=" ">
<polygon fill="white" stroke="red" points="1138.5,-145.5 1138.5,-164.5 1304.5,-164.5 1304.5,-145.5 1138.5,-145.5"/>
<text text-anchor="middle" x="1221.5" y="-152.5" font-family="Helvetica,sans-Serif" font-size="10.00">src/libs/vlayout/vlayoutpiece.h</text>
</a>
</g>
</g>
<!-- Node43&#45;&gt;Node46 -->
<g id="edge44" class="edge">
<title>Node43&#45;&gt;Node46</title>
<path fill="none" stroke="midnightblue" d="M937.96,-213.75C988.5,-203.59 1061.05,-188.95 1124.5,-176 1142.86,-172.25 1163.17,-168.07 1180.45,-164.5"/>
<polygon fill="midnightblue" stroke="midnightblue" points="937.27,-210.32 928.16,-215.73 938.65,-217.19 937.27,-210.32"/>
</g>
<!-- Node55 -->
<g id="node43" class="node">
<title>Node55</title>
<g id="a_node43"><a xlink:href="../../d7/d8a/measurement__variable__p_8h.html" target="_top" xlink:title=" ">
<polygon fill="white" stroke="red" points="81.5,-134.5 81.5,-175.5 217.5,-175.5 217.5,-134.5 81.5,-134.5"/>
<text text-anchor="start" x="89.5" y="-163.5" font-family="Helvetica,sans-Serif" font-size="10.00">src/libs/vpatterndb</text>
<text text-anchor="start" x="89.5" y="-152.5" font-family="Helvetica,sans-Serif" font-size="10.00">/variables/measurement</text>
<text text-anchor="middle" x="149.5" y="-141.5" font-family="Helvetica,sans-Serif" font-size="10.00">_variable_p.h</text>
</a>
</g>
</g>
<!-- Node43&#45;&gt;Node55 -->
<g id="edge48" class="edge">
<title>Node43&#45;&gt;Node55</title>
<path fill="none" stroke="midnightblue" d="M810.58,-225.25C693.82,-222.14 438.51,-211.51 226.5,-176 223.64,-175.52 220.73,-174.99 217.8,-174.41"/>
<polygon fill="midnightblue" stroke="midnightblue" points="810.69,-228.75 820.77,-225.51 810.87,-221.75 810.69,-228.75"/>
</g>
<!-- Node57 -->
<g id="node44" class="node">
<title>Node57</title>
<g id="a_node44"><a xlink:href="../../d1/de1/vincrement__p_8h.html" target="_top" xlink:title=" ">
<polygon fill="white" stroke="red" points="236,-140 236,-170 379,-170 379,-140 236,-140"/>
<text text-anchor="start" x="244" y="-158" font-family="Helvetica,sans-Serif" font-size="10.00">src/libs/vpatterndb</text>
<text text-anchor="middle" x="307.5" y="-147" font-family="Helvetica,sans-Serif" font-size="10.00">/variables/vincrement_p.h</text>
</a>
</g>
</g>
<!-- Node43&#45;&gt;Node57 -->
<g id="edge49" class="edge">
<title>Node43&#45;&gt;Node57</title>
<path fill="none" stroke="midnightblue" d="M810.69,-222.78C717.26,-216.67 537.99,-202.48 387.5,-176 378.34,-174.39 368.67,-172.3 359.34,-170.09"/>
<polygon fill="midnightblue" stroke="midnightblue" points="810.63,-226.28 820.83,-223.43 811.08,-219.29 810.63,-226.28"/>
</g>
<!-- Node59 -->
<g id="node45" class="node">
<title>Node59</title>
<g id="a_node45"><a xlink:href="../../d6/d91/vnodedetail_8cpp.html" target="_top" xlink:title=" ">
<polygon fill="white" stroke="black" points="397,-140 397,-170 504,-170 504,-140 397,-140"/>
<text text-anchor="start" x="405" y="-158" font-family="Helvetica,sans-Serif" font-size="10.00">src/libs/vpatterndb</text>
<text text-anchor="middle" x="450.5" y="-147" font-family="Helvetica,sans-Serif" font-size="10.00">/vnodedetail.cpp</text>
</a>
</g>
</g>
<!-- Node43&#45;&gt;Node59 -->
<g id="edge51" class="edge">
<title>Node43&#45;&gt;Node59</title>
<path fill="none" stroke="midnightblue" d="M810.54,-220.96C737.72,-213.88 615.52,-199.61 512.5,-176 505.33,-174.36 497.81,-172.26 490.57,-170.04"/>
<polygon fill="midnightblue" stroke="midnightblue" points="810.63,-224.49 820.91,-221.96 811.29,-217.52 810.63,-224.49"/>
</g>
<!-- Node60 -->
<g id="node46" class="node">
<title>Node60</title>
<g id="a_node46"><a xlink:href="../../da/de1/vpiecepath_8cpp.html" target="_top" xlink:title=" ">
<polygon fill="white" stroke="black" points="522,-140 522,-170 629,-170 629,-140 522,-140"/>
<text text-anchor="start" x="530" y="-158" font-family="Helvetica,sans-Serif" font-size="10.00">src/libs/vpatterndb</text>
<text text-anchor="middle" x="575.5" y="-147" font-family="Helvetica,sans-Serif" font-size="10.00">/vpiecepath.cpp</text>
</a>
</g>
</g>
<!-- Node43&#45;&gt;Node60 -->
<g id="edge54" class="edge">
<title>Node43&#45;&gt;Node60</title>
<path fill="none" stroke="midnightblue" d="M811.02,-214.8C763.05,-205.52 695.75,-191.56 637.5,-176 630.83,-174.22 623.83,-172.15 617.01,-170.04"/>
<polygon fill="midnightblue" stroke="midnightblue" points="810.47,-218.26 820.95,-216.71 811.79,-211.39 810.47,-218.26"/>
</g>
<!-- Node61 -->
<g id="node47" class="node">
<title>Node61</title>
<g id="a_node47"><a xlink:href="../../d1/d3a/abstracttest_8cpp.html" target="_top" xlink:title=" ">
<polygon fill="white" stroke="black" points="647,-145.5 647,-164.5 808,-164.5 808,-145.5 647,-145.5"/>
<text text-anchor="middle" x="727.5" y="-152.5" font-family="Helvetica,sans-Serif" font-size="10.00">src/libs/vtest/abstracttest.cpp</text>
</a>
</g>
</g>
<!-- Node43&#45;&gt;Node61 -->
<g id="edge56" class="edge">
<title>Node43&#45;&gt;Node61</title>
<path fill="none" stroke="midnightblue" d="M835.96,-208.02C806.64,-193.96 767.65,-175.26 745.29,-164.53"/>
<polygon fill="midnightblue" stroke="midnightblue" points="834.58,-211.23 845.11,-212.4 837.6,-204.92 834.58,-211.23"/>
</g>
<!-- Node44&#45;&gt;Node45 -->
<g id="edge42" class="edge">
<title>Node44&#45;&gt;Node45</title>
<path fill="none" stroke="midnightblue" d="M970.66,-139.74C948.86,-125.51 916.05,-104.09 897.85,-92.22"/>
<polygon fill="midnightblue" stroke="midnightblue" points="968.97,-142.82 979.26,-145.36 972.8,-136.96 968.97,-142.82"/>
</g>
<!-- Node46&#45;&gt;Node16 -->
<g id="edge45" class="edge">
<title>Node46&#45;&gt;Node16</title>
<path fill="none" stroke="midnightblue" d="M1201.15,-139.36C1181.37,-125.13 1151.98,-103.99 1135.62,-92.22"/>
<polygon fill="midnightblue" stroke="midnightblue" points="1199.32,-142.36 1209.48,-145.36 1203.41,-136.67 1199.32,-142.36"/>
</g>
</g>
</svg>
