<?xml version="1.0" encoding="UTF-8" standalone="no"?>
<!DOCTYPE svg PUBLIC "-//W3C//DTD SVG 1.1//EN"
 "http://www.w3.org/Graphics/SVG/1.1/DTD/svg11.dtd">
<!-- Generated by graphviz version 2.43.0 (0)
 -->
<!-- Title: src/libs/vpatterndb/variables.h Pages: 1 -->
<svg width="6970pt" height="307pt"
 viewBox="0.00 0.00 6970.00 307.00" xmlns="http://www.w3.org/2000/svg" xmlns:xlink="http://www.w3.org/1999/xlink">
<g id="graph0" class="graph" transform="scale(1 1) rotate(0) translate(4 303)">
<title>src/libs/vpatterndb/variables.h</title>
<polygon fill="white" stroke="transparent" points="-4,4 -4,-303 6966,-303 6966,4 -4,4"/>
<!-- Node1 -->
<g id="node1" class="node">
<title>Node1</title>
<g id="a_node1"><a xlink:title=" ">
<polygon fill="#bfbfbf" stroke="black" points="5942.5,-268.5 5942.5,-298.5 6049.5,-298.5 6049.5,-268.5 5942.5,-268.5"/>
<text text-anchor="start" x="5950.5" y="-286.5" font-family="Helvetica,sans-Serif" font-size="10.00">src/libs/vpatterndb</text>
<text text-anchor="middle" x="5996" y="-275.5" font-family="Helvetica,sans-Serif" font-size="10.00">/variables.h</text>
</a>
</g>
</g>
<!-- Node2 -->
<g id="node2" class="node">
<title>Node2</title>
<g id="a_node2"><a xlink:href="../../d3/df7/vcontainer_8h.html" target="_top" xlink:title=" ">
<polygon fill="white" stroke="black" points="5942.5,-201.5 5942.5,-231.5 6049.5,-231.5 6049.5,-201.5 5942.5,-201.5"/>
<text text-anchor="start" x="5950.5" y="-219.5" font-family="Helvetica,sans-Serif" font-size="10.00">src/libs/vpatterndb</text>
<text text-anchor="middle" x="5996" y="-208.5" font-family="Helvetica,sans-Serif" font-size="10.00">/vcontainer.h</text>
</a>
</g>
</g>
<!-- Node1&#45;&gt;Node2 -->
<g id="edge1" class="edge">
<title>Node1&#45;&gt;Node2</title>
<path fill="none" stroke="midnightblue" d="M5996,-258.11C5996,-249.15 5996,-239.32 5996,-231.58"/>
<polygon fill="midnightblue" stroke="midnightblue" points="5992.5,-258.4 5996,-268.4 5999.5,-258.4 5992.5,-258.4"/>
</g>
<!-- Node3 -->
<g id="node3" class="node">
<title>Node3</title>
<g id="a_node3"><a xlink:href="../../d4/dd6/vmeasurements_8h.html" target="_top" xlink:title=" ">
<polygon fill="white" stroke="black" points="147.5,-140 147.5,-159 332.5,-159 332.5,-140 147.5,-140"/>
<text text-anchor="middle" x="240" y="-147" font-family="Helvetica,sans-Serif" font-size="10.00">src/libs/vformat/vmeasurements.h</text>
</a>
</g>
</g>
<!-- Node2&#45;&gt;Node3 -->
<g id="edge2" class="edge">
<title>Node2&#45;&gt;Node3</title>
<path fill="none" stroke="midnightblue" d="M5932.37,-215.57C5488.49,-215.96 2808.55,-215.99 628,-165 527.08,-162.64 411.47,-158.08 332.88,-154.7"/>
<polygon fill="midnightblue" stroke="midnightblue" points="5932.44,-219.07 5942.44,-215.57 5932.44,-212.07 5932.44,-219.07"/>
</g>
<!-- Node4 -->
<g id="node4" class="node">
<title>Node4</title>
<g id="a_node4"><a xlink:href="../../de/db3/vmeasurements_8cpp.html" target="_top" xlink:title=" ">
<polygon fill="white" stroke="black" points="0,-73 0,-92 196,-92 196,-73 0,-73"/>
<text text-anchor="middle" x="98" y="-80" font-family="Helvetica,sans-Serif" font-size="10.00">src/libs/vformat/vmeasurements.cpp</text>
</a>
</g>
</g>
<!-- Node2&#45;&gt;Node4 -->
<g id="edge4" class="edge">
<title>Node2&#45;&gt;Node4</title>
<path fill="none" stroke="midnightblue" d="M5932.13,-215.28C5374.31,-213.26 1338.08,-197.6 802,-165 559.45,-150.25 272.13,-109.75 153.49,-92.01"/>
<polygon fill="midnightblue" stroke="midnightblue" points="5932.38,-218.78 5942.39,-215.31 5932.41,-211.78 5932.38,-218.78"/>
</g>
<!-- Node5 -->
<g id="node5" class="node">
<title>Node5</title>
<g id="a_node5"><a xlink:href="../../d6/de0/vlayoutpiece_8h.html" target="_top" xlink:title=" ">
<polygon fill="white" stroke="black" points="811,-140 811,-159 977,-159 977,-140 811,-140"/>
<text text-anchor="middle" x="894" y="-147" font-family="Helvetica,sans-Serif" font-size="10.00">src/libs/vlayout/vlayoutpiece.h</text>
</a>
</g>
</g>
<!-- Node2&#45;&gt;Node5 -->
<g id="edge5" class="edge">
<title>Node2&#45;&gt;Node5</title>
<path fill="none" stroke="midnightblue" d="M5931.81,-214.68C5390.24,-207.78 1589.81,-159.36 977.26,-151.56"/>
<polygon fill="midnightblue" stroke="midnightblue" points="5932.11,-218.19 5942.15,-214.81 5932.2,-211.19 5932.11,-218.19"/>
</g>
<!-- Node15 -->
<g id="node14" class="node">
<title>Node15</title>
<g id="a_node14"><a xlink:href="../../d8/d70/vtextmanager_8cpp.html" target="_top" xlink:title=" ">
<polygon fill="white" stroke="black" points="1536,-73 1536,-92 1718,-92 1718,-73 1536,-73"/>
<text text-anchor="middle" x="1627" y="-80" font-family="Helvetica,sans-Serif" font-size="10.00">src/libs/vlayout/vtextmanager.cpp</text>
</a>
</g>
</g>
<!-- Node2&#45;&gt;Node15 -->
<g id="edge16" class="edge">
<title>Node2&#45;&gt;Node15</title>
<path fill="none" stroke="midnightblue" d="M5932.09,-214.65C5645.76,-210.76 4452.24,-193.59 3473,-165 2696.76,-142.34 2500.35,-168.71 1727,-98 1711.19,-96.55 1694.06,-94.32 1678.52,-92.03"/>
<polygon fill="midnightblue" stroke="midnightblue" points="5932.24,-218.15 5942.29,-214.79 5932.33,-211.16 5932.24,-218.15"/>
</g>
<!-- Node16 -->
<g id="node15" class="node">
<title>Node16</title>
<g id="a_node15"><a xlink:href="../../d5/d74/vabstractapplication_8h.html" target="_top" xlink:title=" ">
<polygon fill="white" stroke="red" points="3482.5,-140 3482.5,-159 3677.5,-159 3677.5,-140 3482.5,-140"/>
<text text-anchor="middle" x="3580" y="-147" font-family="Helvetica,sans-Serif" font-size="10.00">src/libs/vmisc/vabstractapplication.h</text>
</a>
</g>
</g>
<!-- Node2&#45;&gt;Node16 -->
<g id="edge17" class="edge">
<title>Node2&#45;&gt;Node16</title>
<path fill="none" stroke="midnightblue" d="M5932.07,-213.78C5600.82,-204.87 4079.55,-163.94 3677.62,-153.13"/>
<polygon fill="midnightblue" stroke="midnightblue" points="5932.35,-217.29 5942.44,-214.06 5932.53,-210.29 5932.35,-217.29"/>
</g>
<!-- Node34 -->
<g id="node29" class="node">
<title>Node34</title>
<g id="a_node29"><a xlink:href="../../db/d11/vformula_8cpp.html" target="_top" xlink:title=" ">
<polygon fill="white" stroke="black" points="5801.5,-67.5 5801.5,-97.5 5908.5,-97.5 5908.5,-67.5 5801.5,-67.5"/>
<text text-anchor="start" x="5809.5" y="-85.5" font-family="Helvetica,sans-Serif" font-size="10.00">src/libs/vpatterndb</text>
<text text-anchor="middle" x="5855" y="-74.5" font-family="Helvetica,sans-Serif" font-size="10.00">/vformula.cpp</text>
</a>
</g>
</g>
<!-- Node2&#45;&gt;Node34 -->
<g id="edge52" class="edge">
<title>Node2&#45;&gt;Node34</title>
<path fill="none" stroke="midnightblue" d="M5973.3,-194.25C5944.24,-167.04 5894.71,-120.68 5869.98,-97.52"/>
<polygon fill="midnightblue" stroke="midnightblue" points="5971.22,-197.09 5980.91,-201.37 5976,-191.98 5971.22,-197.09"/>
</g>
<!-- Node35 -->
<g id="node30" class="node">
<title>Node35</title>
<g id="a_node30"><a xlink:href="../../d6/d46/vcontainer_8cpp.html" target="_top" xlink:title=" ">
<polygon fill="white" stroke="black" points="5926.5,-67.5 5926.5,-97.5 6033.5,-97.5 6033.5,-67.5 5926.5,-67.5"/>
<text text-anchor="start" x="5934.5" y="-85.5" font-family="Helvetica,sans-Serif" font-size="10.00">src/libs/vpatterndb</text>
<text text-anchor="middle" x="5980" y="-74.5" font-family="Helvetica,sans-Serif" font-size="10.00">/vcontainer.cpp</text>
</a>
</g>
</g>
<!-- Node2&#45;&gt;Node35 -->
<g id="edge53" class="edge">
<title>Node2&#45;&gt;Node35</title>
<path fill="none" stroke="midnightblue" d="M5988.01,-191.37C5985.62,-183.1 5983.3,-173.73 5982,-165 5978.53,-141.62 5978.73,-114.06 5979.3,-97.72"/>
<polygon fill="midnightblue" stroke="midnightblue" points="5984.72,-192.58 5990.99,-201.12 5991.41,-190.53 5984.72,-192.58"/>
</g>
<!-- Node36 -->
<g id="node31" class="node">
<title>Node36</title>
<g id="a_node31"><a xlink:href="../../df/d7a/vpiece_8cpp.html" target="_top" xlink:title=" ">
<polygon fill="white" stroke="black" points="6051.5,-67.5 6051.5,-97.5 6158.5,-97.5 6158.5,-67.5 6051.5,-67.5"/>
<text text-anchor="start" x="6059.5" y="-85.5" font-family="Helvetica,sans-Serif" font-size="10.00">src/libs/vpatterndb</text>
<text text-anchor="middle" x="6105" y="-74.5" font-family="Helvetica,sans-Serif" font-size="10.00">/vpiece.cpp</text>
</a>
</g>
</g>
<!-- Node2&#45;&gt;Node36 -->
<g id="edge55" class="edge">
<title>Node2&#45;&gt;Node36</title>
<path fill="none" stroke="midnightblue" d="M5998.37,-191.41C6001.13,-173.95 6007.11,-150.59 6020,-134 6032.53,-117.87 6051.78,-105.82 6068.79,-97.55"/>
<polygon fill="midnightblue" stroke="midnightblue" points="5994.89,-191.03 5997.03,-201.4 6001.83,-191.96 5994.89,-191.03"/>
</g>
<!-- Node38 -->
<g id="node33" class="node">
<title>Node38</title>
<g id="a_node33"><a xlink:href="../../d8/dba/vpiecenode_8cpp.html" target="_top" xlink:title=" ">
<polygon fill="white" stroke="black" points="4624.5,-0.5 4624.5,-30.5 4731.5,-30.5 4731.5,-0.5 4624.5,-0.5"/>
<text text-anchor="start" x="4632.5" y="-18.5" font-family="Helvetica,sans-Serif" font-size="10.00">src/libs/vpatterndb</text>
<text text-anchor="middle" x="4678" y="-7.5" font-family="Helvetica,sans-Serif" font-size="10.00">/vpiecenode.cpp</text>
</a>
</g>
</g>
<!-- Node2&#45;&gt;Node38 -->
<g id="edge56" class="edge">
<title>Node2&#45;&gt;Node38</title>
<path fill="none" stroke="midnightblue" d="M6006.98,-192.11C6016.68,-173.83 6032.47,-149.07 6053,-134 6095.83,-102.56 6135.59,-140.86 6167,-98 6175.14,-86.89 6176.58,-76.91 6167,-67 6116.16,-14.41 4992.15,-15.33 4731.59,-16.26"/>
<polygon fill="midnightblue" stroke="midnightblue" points="6003.74,-190.74 6002.34,-201.24 6009.99,-193.91 6003.74,-190.74"/>
</g>
<!-- Node54 -->
<g id="node45" class="node">
<title>Node54</title>
<g id="a_node45"><a xlink:href="../../d1/de1/vincrement__p_8h.html" target="_top" xlink:title=" ">
<polygon fill="white" stroke="red" points="6062.5,-134.5 6062.5,-164.5 6205.5,-164.5 6205.5,-134.5 6062.5,-134.5"/>
<text text-anchor="start" x="6070.5" y="-152.5" font-family="Helvetica,sans-Serif" font-size="10.00">src/libs/vpatterndb</text>
<text text-anchor="middle" x="6134" y="-141.5" font-family="Helvetica,sans-Serif" font-size="10.00">/variables/vincrement_p.h</text>
</a>
</g>
</g>
<!-- Node2&#45;&gt;Node54 -->
<g id="edge50" class="edge">
<title>Node2&#45;&gt;Node54</title>
<path fill="none" stroke="midnightblue" d="M6035,-197.13C6056.93,-186.8 6083.87,-174.11 6104.11,-164.58"/>
<polygon fill="midnightblue" stroke="midnightblue" points="6033.5,-193.97 6025.94,-201.4 6036.48,-200.3 6033.5,-193.97"/>
</g>
<!-- Node56 -->
<g id="node46" class="node">
<title>Node56</title>
<g id="a_node46"><a xlink:href="../../d6/dc1/vmeasurement__p_8h.html" target="_top" xlink:title=" ">
<polygon fill="white" stroke="red" points="6224,-134.5 6224,-164.5 6386,-164.5 6386,-134.5 6224,-134.5"/>
<text text-anchor="start" x="6232" y="-152.5" font-family="Helvetica,sans-Serif" font-size="10.00">src/libs/vpatterndb</text>
<text text-anchor="middle" x="6305" y="-141.5" font-family="Helvetica,sans-Serif" font-size="10.00">/variables/vmeasurement_p.h</text>
</a>
</g>
</g>
<!-- Node2&#45;&gt;Node56 -->
<g id="edge51" class="edge">
<title>Node2&#45;&gt;Node56</title>
<path fill="none" stroke="midnightblue" d="M6059.63,-202.12C6111.79,-191.14 6185.38,-175.66 6238.34,-164.52"/>
<polygon fill="midnightblue" stroke="midnightblue" points="6058.89,-198.69 6049.82,-204.18 6060.33,-205.54 6058.89,-198.69"/>
</g>
<!-- Node58 -->
<g id="node47" class="node">
<title>Node58</title>
<g id="a_node47"><a xlink:href="../../d6/d91/vnodedetail_8cpp.html" target="_top" xlink:title=" ">
<polygon fill="white" stroke="black" points="6404.5,-134.5 6404.5,-164.5 6511.5,-164.5 6511.5,-134.5 6404.5,-134.5"/>
<text text-anchor="start" x="6412.5" y="-152.5" font-family="Helvetica,sans-Serif" font-size="10.00">src/libs/vpatterndb</text>
<text text-anchor="middle" x="6458" y="-141.5" font-family="Helvetica,sans-Serif" font-size="10.00">/vnodedetail.cpp</text>
</a>
</g>
</g>
<!-- Node2&#45;&gt;Node58 -->
<g id="edge54" class="edge">
<title>Node2&#45;&gt;Node58</title>
<path fill="none" stroke="midnightblue" d="M6059.78,-209.42C6138.8,-201.43 6277.4,-185.92 6395,-165 6398.09,-164.45 6401.26,-163.85 6404.46,-163.21"/>
<polygon fill="midnightblue" stroke="midnightblue" points="6059.1,-205.97 6049.5,-210.45 6059.8,-212.94 6059.1,-205.97"/>
</g>
<!-- Node59 -->
<g id="node48" class="node">
<title>Node59</title>
<g id="a_node48"><a xlink:href="../../da/de1/vpiecepath_8cpp.html" target="_top" xlink:title=" ">
<polygon fill="white" stroke="black" points="6529.5,-134.5 6529.5,-164.5 6636.5,-164.5 6636.5,-134.5 6529.5,-134.5"/>
<text text-anchor="start" x="6537.5" y="-152.5" font-family="Helvetica,sans-Serif" font-size="10.00">src/libs/vpatterndb</text>
<text text-anchor="middle" x="6583" y="-141.5" font-family="Helvetica,sans-Serif" font-size="10.00">/vpiecepath.cpp</text>
</a>
</g>
</g>
<!-- Node2&#45;&gt;Node59 -->
<g id="edge57" class="edge">
<title>Node2&#45;&gt;Node59</title>
<path fill="none" stroke="midnightblue" d="M6059.74,-212.13C6158.89,-206.26 6355.85,-192.13 6521,-165 6523.73,-164.55 6526.51,-164.05 6529.32,-163.52"/>
<polygon fill="midnightblue" stroke="midnightblue" points="6059.37,-208.64 6049.59,-212.72 6059.78,-215.63 6059.37,-208.64"/>
</g>
<!-- Node60 -->
<g id="node49" class="node">
<title>Node60</title>
<g id="a_node49"><a xlink:href="../../d1/d3a/abstracttest_8cpp.html" target="_top" xlink:title=" ">
<polygon fill="white" stroke="black" points="6654.5,-140 6654.5,-159 6815.5,-159 6815.5,-140 6654.5,-140"/>
<text text-anchor="middle" x="6735" y="-147" font-family="Helvetica,sans-Serif" font-size="10.00">src/libs/vtest/abstracttest.cpp</text>
</a>
</g>
</g>
<!-- Node2&#45;&gt;Node60 -->
<g id="edge58" class="edge">
<title>Node2&#45;&gt;Node60</title>
<path fill="none" stroke="midnightblue" d="M6059.84,-212.32C6176.51,-206.12 6431.92,-190.71 6646,-165 6659.37,-163.39 6673.8,-161.23 6687.07,-159.07"/>
<polygon fill="midnightblue" stroke="midnightblue" points="6059.46,-208.84 6049.65,-212.86 6059.83,-215.83 6059.46,-208.84"/>
</g>
<!-- Node61 -->
<g id="node50" class="node">
<title>Node61</title>
<g id="a_node50"><a xlink:href="../../da/db4/piece__tablewidgetitem_8cpp.html" target="_top" xlink:title=" ">
<polygon fill="white" stroke="black" points="6834,-134.5 6834,-164.5 6962,-164.5 6962,-134.5 6834,-134.5"/>
<text text-anchor="start" x="6842" y="-152.5" font-family="Helvetica,sans-Serif" font-size="10.00">src/libs/vwidgets/piece</text>
<text text-anchor="middle" x="6898" y="-141.5" font-family="Helvetica,sans-Serif" font-size="10.00">_tablewidgetitem.cpp</text>
</a>
</g>
</g>
<!-- Node2&#45;&gt;Node61 -->
<g id="edge59" class="edge">
<title>Node2&#45;&gt;Node61</title>
<path fill="none" stroke="midnightblue" d="M6059.65,-214.55C6198.96,-211.84 6541.09,-201.67 6825,-165 6827.95,-164.62 6830.95,-164.19 6833.99,-163.72"/>
<polygon fill="midnightblue" stroke="midnightblue" points="6059.51,-211.05 6049.58,-214.74 6059.64,-218.05 6059.51,-211.05"/>
</g>
<!-- Node3&#45;&gt;Node4 -->
<g id="edge3" class="edge">
<title>Node3&#45;&gt;Node4</title>
<path fill="none" stroke="midnightblue" d="M211.85,-135.61C183.72,-122.74 141.27,-103.31 116.93,-92.17"/>
<polygon fill="midnightblue" stroke="midnightblue" points="210.59,-138.89 221.14,-139.87 213.51,-132.52 210.59,-138.89"/>
</g>
<!-- Node6 -->
<g id="node6" class="node">
<title>Node6</title>
<g id="a_node6"><a xlink:href="../../dd/d66/vdxfengine_8cpp.html" target="_top" xlink:title=" ">
<polygon fill="white" stroke="black" points="1168,-73 1168,-92 1322,-92 1322,-73 1168,-73"/>
<text text-anchor="middle" x="1245" y="-80" font-family="Helvetica,sans-Serif" font-size="10.00">src/libs/vdxf/vdxfengine.cpp</text>
</a>
</g>
</g>
<!-- Node5&#45;&gt;Node6 -->
<g id="edge6" class="edge">
<title>Node5&#45;&gt;Node6</title>
<path fill="none" stroke="midnightblue" d="M950.5,-138.04C1019.54,-125.25 1135.01,-103.87 1198.93,-92.03"/>
<polygon fill="midnightblue" stroke="midnightblue" points="949.44,-134.67 940.25,-139.94 950.72,-141.56 949.44,-134.67"/>
</g>
<!-- Node7 -->
<g id="node7" class="node">
<title>Node7</title>
<g id="a_node7"><a xlink:href="../../de/da8/vbank_8cpp.html" target="_top" xlink:title=" ">
<polygon fill="white" stroke="black" points="214,-73 214,-92 358,-92 358,-73 214,-73"/>
<text text-anchor="middle" x="286" y="-80" font-family="Helvetica,sans-Serif" font-size="10.00">src/libs/vlayout/vbank.cpp</text>
</a>
</g>
</g>
<!-- Node5&#45;&gt;Node7 -->
<g id="edge7" class="edge">
<title>Node5&#45;&gt;Node7</title>
<path fill="none" stroke="midnightblue" d="M800.71,-141.87C695.17,-133.84 518.29,-118.75 367,-98 354.97,-96.35 342,-94.2 330.04,-92.06"/>
<polygon fill="midnightblue" stroke="midnightblue" points="800.46,-145.36 810.7,-142.63 800.99,-138.38 800.46,-145.36"/>
</g>
<!-- Node8 -->
<g id="node8" class="node">
<title>Node8</title>
<g id="a_node8"><a xlink:href="../../df/d5d/vcontour_8cpp.html" target="_top" xlink:title=" ">
<polygon fill="white" stroke="black" points="376,-73 376,-92 532,-92 532,-73 376,-73"/>
<text text-anchor="middle" x="454" y="-80" font-family="Helvetica,sans-Serif" font-size="10.00">src/libs/vlayout/vcontour.cpp</text>
</a>
</g>
</g>
<!-- Node5&#45;&gt;Node8 -->
<g id="edge8" class="edge">
<title>Node5&#45;&gt;Node8</title>
<path fill="none" stroke="midnightblue" d="M821.21,-138.59C749.78,-128.74 637.8,-112.99 541,-98 529.05,-96.15 516.18,-94.06 504.11,-92.06"/>
<polygon fill="midnightblue" stroke="midnightblue" points="821.06,-142.1 831.45,-139.99 822.02,-135.16 821.06,-142.1"/>
</g>
<!-- Node9 -->
<g id="node9" class="node">
<title>Node9</title>
<g id="a_node9"><a xlink:href="../../d3/d39/vlayoutgenerator_8cpp.html" target="_top" xlink:title=" ">
<polygon fill="white" stroke="black" points="550.5,-73 550.5,-92 747.5,-92 747.5,-73 550.5,-73"/>
<text text-anchor="middle" x="649" y="-80" font-family="Helvetica,sans-Serif" font-size="10.00">src/libs/vlayout/vlayoutgenerator.cpp</text>
</a>
</g>
</g>
<!-- Node5&#45;&gt;Node9 -->
<g id="edge9" class="edge">
<title>Node5&#45;&gt;Node9</title>
<path fill="none" stroke="midnightblue" d="M851.87,-137.32C803.5,-124.49 725.18,-103.71 681.35,-92.08"/>
<polygon fill="midnightblue" stroke="midnightblue" points="851.16,-140.75 861.72,-139.94 852.95,-133.99 851.16,-140.75"/>
</g>
<!-- Node10 -->
<g id="node10" class="node">
<title>Node10</title>
<g id="a_node10"><a xlink:href="../../d2/d2d/vlayoutpaper__p_8h.html" target="_top" xlink:title=" ">
<polygon fill="white" stroke="black" points="804.5,-73 804.5,-92 983.5,-92 983.5,-73 804.5,-73"/>
<text text-anchor="middle" x="894" y="-80" font-family="Helvetica,sans-Serif" font-size="10.00">src/libs/vlayout/vlayoutpaper_p.h</text>
</a>
</g>
</g>
<!-- Node5&#45;&gt;Node10 -->
<g id="edge10" class="edge">
<title>Node5&#45;&gt;Node10</title>
<path fill="none" stroke="midnightblue" d="M894,-129.54C894,-117.17 894,-101.62 894,-92.13"/>
<polygon fill="midnightblue" stroke="midnightblue" points="890.5,-129.73 894,-139.73 897.5,-129.73 890.5,-129.73"/>
</g>
<!-- Node11 -->
<g id="node11" class="node">
<title>Node11</title>
<g id="a_node11"><a xlink:href="../../d1/dd1/vlayoutpaper_8cpp.html" target="_top" xlink:title=" ">
<polygon fill="white" stroke="black" points="805,-6 805,-25 983,-25 983,-6 805,-6"/>
<text text-anchor="middle" x="894" y="-13" font-family="Helvetica,sans-Serif" font-size="10.00">src/libs/vlayout/vlayoutpaper.cpp</text>
</a>
</g>
</g>
<!-- Node5&#45;&gt;Node11 -->
<g id="edge12" class="edge">
<title>Node5&#45;&gt;Node11</title>
<path fill="none" stroke="midnightblue" d="M847.17,-136.5C827.49,-128.89 806.52,-116.81 795,-98 787.8,-86.25 787.8,-78.75 795,-67 808.4,-45.12 834.6,-32.34 856.68,-25.12"/>
<polygon fill="midnightblue" stroke="midnightblue" points="846.09,-139.83 856.68,-139.88 848.43,-133.23 846.09,-139.83"/>
</g>
<!-- Node12 -->
<g id="node12" class="node">
<title>Node12</title>
<g id="a_node12"><a xlink:href="../../db/d5c/vposition_8h.html" target="_top" xlink:title=" ">
<polygon fill="white" stroke="red" points="1002,-73 1002,-92 1150,-92 1150,-73 1002,-73"/>
<text text-anchor="middle" x="1076" y="-80" font-family="Helvetica,sans-Serif" font-size="10.00">src/libs/vlayout/vposition.h</text>
</a>
</g>
</g>
<!-- Node5&#45;&gt;Node12 -->
<g id="edge13" class="edge">
<title>Node5&#45;&gt;Node12</title>
<path fill="none" stroke="midnightblue" d="M927.78,-136.44C963.88,-123.54 1020.21,-103.42 1052.02,-92.06"/>
<polygon fill="midnightblue" stroke="midnightblue" points="926.41,-133.21 918.17,-139.87 928.76,-139.8 926.41,-133.21"/>
</g>
<!-- Node14 -->
<g id="node13" class="node">
<title>Node14</title>
<g id="a_node13"><a xlink:href="../../dd/d70/vlayoutpiece_8cpp.html" target="_top" xlink:title=" ">
<polygon fill="white" stroke="black" points="1340.5,-73 1340.5,-92 1517.5,-92 1517.5,-73 1340.5,-73"/>
<text text-anchor="middle" x="1429" y="-80" font-family="Helvetica,sans-Serif" font-size="10.00">src/libs/vlayout/vlayoutpiece.cpp</text>
</a>
</g>
</g>
<!-- Node5&#45;&gt;Node14 -->
<g id="edge15" class="edge">
<title>Node5&#45;&gt;Node14</title>
<path fill="none" stroke="midnightblue" d="M984.64,-138.88C1073.09,-129.29 1211.43,-113.75 1331,-98 1344.81,-96.18 1359.69,-94.06 1373.59,-92.01"/>
<polygon fill="midnightblue" stroke="midnightblue" points="984.2,-135.4 974.64,-139.96 984.96,-142.36 984.2,-135.4"/>
</g>
<!-- Node10&#45;&gt;Node11 -->
<g id="edge11" class="edge">
<title>Node10&#45;&gt;Node11</title>
<path fill="none" stroke="midnightblue" d="M894,-62.54C894,-50.17 894,-34.62 894,-25.13"/>
<polygon fill="midnightblue" stroke="midnightblue" points="890.5,-62.73 894,-72.73 897.5,-62.73 890.5,-62.73"/>
</g>
<!-- Node12&#45;&gt;Node11 -->
<g id="edge14" class="edge">
<title>Node12&#45;&gt;Node11</title>
<path fill="none" stroke="midnightblue" d="M1042.22,-69.44C1006.12,-56.54 949.79,-36.42 917.98,-25.06"/>
<polygon fill="midnightblue" stroke="midnightblue" points="1041.24,-72.8 1051.83,-72.87 1043.59,-66.21 1041.24,-72.8"/>
</g>
<!-- Node16&#45;&gt;Node14 -->
<g id="edge28" class="edge">
<title>Node16&#45;&gt;Node14</title>
<path fill="none" stroke="midnightblue" d="M3472.34,-147.59C3106.14,-144.23 1910.27,-130.94 1527,-98 1511.15,-96.64 1493.96,-94.37 1478.47,-92.02"/>
<polygon fill="midnightblue" stroke="midnightblue" points="3472.37,-151.09 3482.41,-147.68 3472.44,-144.09 3472.37,-151.09"/>
</g>
<!-- Node16&#45;&gt;Node15 -->
<g id="edge29" class="edge">
<title>Node16&#45;&gt;Node15</title>
<path fill="none" stroke="midnightblue" d="M3472.18,-147.22C3129.75,-142.88 2069.33,-127.38 1727,-98 1710.92,-96.62 1693.48,-94.36 1677.74,-92.03"/>
<polygon fill="midnightblue" stroke="midnightblue" points="3472.31,-150.72 3482.35,-147.35 3472.39,-143.72 3472.31,-150.72"/>
</g>
<!-- Node17 -->
<g id="node16" class="node">
<title>Node17</title>
<g id="a_node16"><a xlink:href="../../d4/d90/fvupdater_8cpp.html" target="_top" xlink:title=" ">
<polygon fill="white" stroke="black" points="5352.5,-73 5352.5,-92 5505.5,-92 5505.5,-73 5352.5,-73"/>
<text text-anchor="middle" x="5429" y="-80" font-family="Helvetica,sans-Serif" font-size="10.00">src/libs/fervor/fvupdater.cpp</text>
</a>
</g>
</g>
<!-- Node16&#45;&gt;Node17 -->
<g id="edge18" class="edge">
<title>Node16&#45;&gt;Node17</title>
<path fill="none" stroke="midnightblue" d="M3687.72,-147.37C4018.92,-143.59 5019.33,-129.77 5343,-98 5356.86,-96.64 5371.87,-94.38 5385.41,-92.05"/>
<polygon fill="midnightblue" stroke="midnightblue" points="3687.6,-143.87 3677.64,-147.48 3687.68,-150.87 3687.6,-143.87"/>
</g>
<!-- Node18 -->
<g id="node17" class="node">
<title>Node18</title>
<g id="a_node17"><a xlink:href="../../d9/dc8/dxiface_8cpp.html" target="_top" xlink:title=" ">
<polygon fill="white" stroke="black" points="5523.5,-73 5523.5,-92 5658.5,-92 5658.5,-73 5523.5,-73"/>
<text text-anchor="middle" x="5591" y="-80" font-family="Helvetica,sans-Serif" font-size="10.00">src/libs/vdxf/dxiface.cpp</text>
</a>
</g>
</g>
<!-- Node16&#45;&gt;Node18 -->
<g id="edge19" class="edge">
<title>Node16&#45;&gt;Node18</title>
<path fill="none" stroke="midnightblue" d="M3687.71,-147.96C4039.98,-145.83 5155.78,-136.16 5514,-98 5526.58,-96.66 5540.18,-94.38 5552.4,-92.02"/>
<polygon fill="midnightblue" stroke="midnightblue" points="3687.49,-144.46 3677.51,-148.02 3687.53,-151.46 3687.49,-144.46"/>
</g>
<!-- Node19 -->
<g id="node18" class="node">
<title>Node19</title>
<g id="a_node18"><a xlink:href="../../da/d75/vabstractarc__p_8h.html" target="_top" xlink:title=" ">
<polygon fill="white" stroke="red" points="5676.5,-67.5 5676.5,-97.5 5783.5,-97.5 5783.5,-67.5 5676.5,-67.5"/>
<text text-anchor="start" x="5684.5" y="-85.5" font-family="Helvetica,sans-Serif" font-size="10.00">src/libs/vgeometry</text>
<text text-anchor="middle" x="5730" y="-74.5" font-family="Helvetica,sans-Serif" font-size="10.00">/vabstractarc_p.h</text>
</a>
</g>
</g>
<!-- Node16&#45;&gt;Node19 -->
<g id="edge20" class="edge">
<title>Node16&#45;&gt;Node19</title>
<path fill="none" stroke="midnightblue" d="M3687.97,-148.77C4058.73,-149.23 5278.45,-146.9 5667,-98 5670.01,-97.62 5673.08,-97.16 5676.17,-96.64"/>
<polygon fill="midnightblue" stroke="midnightblue" points="3687.78,-145.27 3677.78,-148.75 3687.77,-152.27 3687.78,-145.27"/>
</g>
<!-- Node21 -->
<g id="node19" class="node">
<title>Node21</title>
<g id="a_node19"><a xlink:href="../../dc/da3/varc__p_8h.html" target="_top" xlink:title=" ">
<polygon fill="white" stroke="red" points="1736.5,-67.5 1736.5,-97.5 1843.5,-97.5 1843.5,-67.5 1736.5,-67.5"/>
<text text-anchor="start" x="1744.5" y="-85.5" font-family="Helvetica,sans-Serif" font-size="10.00">src/libs/vgeometry</text>
<text text-anchor="middle" x="1790" y="-74.5" font-family="Helvetica,sans-Serif" font-size="10.00">/varc_p.h</text>
</a>
</g>
</g>
<!-- Node16&#45;&gt;Node21 -->
<g id="edge21" class="edge">
<title>Node16&#45;&gt;Node21</title>
<path fill="none" stroke="midnightblue" d="M3472.04,-146.6C3118.92,-140.23 2011.74,-118.8 1852,-98 1849.26,-97.64 1846.46,-97.22 1843.65,-96.74"/>
<polygon fill="midnightblue" stroke="midnightblue" points="3472.2,-150.11 3482.26,-146.79 3472.33,-143.11 3472.2,-150.11"/>
</g>
<!-- Node23 -->
<g id="node20" class="node">
<title>Node23</title>
<g id="a_node20"><a xlink:href="../../d5/d8e/vcubicbezier__p_8h.html" target="_top" xlink:title=" ">
<polygon fill="white" stroke="red" points="1861.5,-67.5 1861.5,-97.5 1968.5,-97.5 1968.5,-67.5 1861.5,-67.5"/>
<text text-anchor="start" x="1869.5" y="-85.5" font-family="Helvetica,sans-Serif" font-size="10.00">src/libs/vgeometry</text>
<text text-anchor="middle" x="1915" y="-74.5" font-family="Helvetica,sans-Serif" font-size="10.00">/vcubicbezier_p.h</text>
</a>
</g>
</g>
<!-- Node16&#45;&gt;Node23 -->
<g id="edge22" class="edge">
<title>Node16&#45;&gt;Node23</title>
<path fill="none" stroke="midnightblue" d="M3471.91,-147.89C3160.82,-145.68 2267.02,-136.1 1977,-98 1974.26,-97.64 1971.46,-97.21 1968.65,-96.73"/>
<polygon fill="midnightblue" stroke="midnightblue" points="3472.26,-151.39 3482.28,-147.96 3472.31,-144.39 3472.26,-151.39"/>
</g>
<!-- Node25 -->
<g id="node21" class="node">
<title>Node25</title>
<g id="a_node21"><a xlink:href="../../df/dde/vellipticalarc__p_8h.html" target="_top" xlink:title=" ">
<polygon fill="white" stroke="black" points="1986.5,-67.5 1986.5,-97.5 2093.5,-97.5 2093.5,-67.5 1986.5,-67.5"/>
<text text-anchor="start" x="1994.5" y="-85.5" font-family="Helvetica,sans-Serif" font-size="10.00">src/libs/vgeometry</text>
<text text-anchor="middle" x="2040" y="-74.5" font-family="Helvetica,sans-Serif" font-size="10.00">/vellipticalarc_p.h</text>
</a>
</g>
</g>
<!-- Node16&#45;&gt;Node25 -->
<g id="edge23" class="edge">
<title>Node16&#45;&gt;Node25</title>
<path fill="none" stroke="midnightblue" d="M3472.14,-147.26C3178.99,-143.5 2371.99,-130.42 2108,-98 2103.33,-97.43 2098.5,-96.69 2093.67,-95.86"/>
<polygon fill="midnightblue" stroke="midnightblue" points="3472.3,-150.76 3482.34,-147.39 3472.39,-143.76 3472.3,-150.76"/>
</g>
<!-- Node26 -->
<g id="node22" class="node">
<title>Node26</title>
<g id="a_node22"><a xlink:href="../../d6/dfb/vellipticalarc_8cpp.html" target="_top" xlink:title=" ">
<polygon fill="white" stroke="black" points="2027.5,-0.5 2027.5,-30.5 2134.5,-30.5 2134.5,-0.5 2027.5,-0.5"/>
<text text-anchor="start" x="2035.5" y="-18.5" font-family="Helvetica,sans-Serif" font-size="10.00">src/libs/vgeometry</text>
<text text-anchor="middle" x="2081" y="-7.5" font-family="Helvetica,sans-Serif" font-size="10.00">/vellipticalarc.cpp</text>
</a>
</g>
</g>
<!-- Node16&#45;&gt;Node26 -->
<g id="edge25" class="edge">
<title>Node16&#45;&gt;Node26</title>
<path fill="none" stroke="midnightblue" d="M3472.04,-147.27C3147.53,-143.25 2199.57,-128.91 2141,-98 2113.34,-83.4 2095.14,-49.7 2086.61,-30.52"/>
<polygon fill="midnightblue" stroke="midnightblue" points="3472.35,-150.78 3482.39,-147.4 3472.43,-143.78 3472.35,-150.78"/>
</g>
<!-- Node27 -->
<g id="node23" class="node">
<title>Node27</title>
<g id="a_node23"><a xlink:href="../../d1/d76/vspline__p_8h.html" target="_top" xlink:title=" ">
<polygon fill="white" stroke="red" points="2150.5,-67.5 2150.5,-97.5 2257.5,-97.5 2257.5,-67.5 2150.5,-67.5"/>
<text text-anchor="start" x="2158.5" y="-85.5" font-family="Helvetica,sans-Serif" font-size="10.00">src/libs/vgeometry</text>
<text text-anchor="middle" x="2204" y="-74.5" font-family="Helvetica,sans-Serif" font-size="10.00">/vspline_p.h</text>
</a>
</g>
</g>
<!-- Node16&#45;&gt;Node27 -->
<g id="edge26" class="edge">
<title>Node16&#45;&gt;Node27</title>
<path fill="none" stroke="midnightblue" d="M3471.98,-146.96C3201.24,-142.67 2498.77,-128.85 2267,-98 2264,-97.6 2260.93,-97.12 2257.83,-96.59"/>
<polygon fill="midnightblue" stroke="midnightblue" points="3472.16,-150.46 3482.21,-147.12 3472.27,-143.46 3472.16,-150.46"/>
</g>
<!-- Node29 -->
<g id="node24" class="node">
<title>Node29</title>
<g id="a_node24"><a xlink:href="../../d9/d15/vabstractpiece_8cpp.html" target="_top" xlink:title=" ">
<polygon fill="white" stroke="black" points="2276,-73 2276,-92 2462,-92 2462,-73 2276,-73"/>
<text text-anchor="middle" x="2369" y="-80" font-family="Helvetica,sans-Serif" font-size="10.00">src/libs/vlayout/vabstractpiece.cpp</text>
</a>
</g>
</g>
<!-- Node16&#45;&gt;Node29 -->
<g id="edge27" class="edge">
<title>Node16&#45;&gt;Node29</title>
<path fill="none" stroke="midnightblue" d="M3472.11,-147.01C3273.57,-143.52 2837.15,-132.28 2471,-98 2455.06,-96.51 2437.8,-94.29 2422.09,-92.03"/>
<polygon fill="midnightblue" stroke="midnightblue" points="3472.19,-150.51 3482.24,-147.19 3472.31,-143.52 3472.19,-150.51"/>
</g>
<!-- Node30 -->
<g id="node25" class="node">
<title>Node30</title>
<g id="a_node25"><a xlink:href="../../db/d65/dialogexporttocsv_8cpp.html" target="_top" xlink:title=" ">
<polygon fill="white" stroke="black" points="2480.5,-67.5 2480.5,-97.5 2607.5,-97.5 2607.5,-67.5 2480.5,-67.5"/>
<text text-anchor="start" x="2488.5" y="-85.5" font-family="Helvetica,sans-Serif" font-size="10.00">src/libs/vmisc/dialogs</text>
<text text-anchor="middle" x="2544" y="-74.5" font-family="Helvetica,sans-Serif" font-size="10.00">/dialogexporttocsv.cpp</text>
</a>
</g>
</g>
<!-- Node16&#45;&gt;Node30 -->
<g id="edge30" class="edge">
<title>Node16&#45;&gt;Node30</title>
<path fill="none" stroke="midnightblue" d="M3472.01,-147.88C3293.43,-145.74 2925.61,-136.54 2617,-98 2613.92,-97.62 2610.78,-97.18 2607.61,-96.69"/>
<polygon fill="midnightblue" stroke="midnightblue" points="3472.16,-151.39 3482.2,-148 3472.24,-144.39 3472.16,-151.39"/>
</g>
<!-- Node31 -->
<g id="node26" class="node">
<title>Node31</title>
<g id="a_node26"><a xlink:href="../../d6/d0b/def_8cpp.html" target="_top" xlink:title=" ">
<polygon fill="white" stroke="black" points="2626,-73 2626,-92 2748,-92 2748,-73 2626,-73"/>
<text text-anchor="middle" x="2687" y="-80" font-family="Helvetica,sans-Serif" font-size="10.00">src/libs/vmisc/def.cpp</text>
</a>
</g>
</g>
<!-- Node16&#45;&gt;Node31 -->
<g id="edge31" class="edge">
<title>Node16&#45;&gt;Node31</title>
<path fill="none" stroke="midnightblue" d="M3472.15,-146.79C3314.45,-143.18 3011.95,-132.05 2757,-98 2745.93,-96.52 2733.99,-94.29 2723.16,-92.02"/>
<polygon fill="midnightblue" stroke="midnightblue" points="3472.25,-150.29 3482.33,-147.02 3472.41,-143.29 3472.25,-150.29"/>
</g>
<!-- Node32 -->
<g id="node27" class="node">
<title>Node32</title>
<g id="a_node27"><a xlink:href="../../d0/df6/vabstractapplication_8cpp.html" target="_top" xlink:title=" ">
<polygon fill="white" stroke="black" points="2766,-73 2766,-92 2972,-92 2972,-73 2766,-73"/>
<text text-anchor="middle" x="2869" y="-80" font-family="Helvetica,sans-Serif" font-size="10.00">src/libs/vmisc/vabstractapplication.cpp</text>
</a>
</g>
</g>
<!-- Node16&#45;&gt;Node32 -->
<g id="edge32" class="edge">
<title>Node16&#45;&gt;Node32</title>
<path fill="none" stroke="midnightblue" d="M3472.06,-140.86C3352.01,-132.02 3152.42,-116.31 2981,-98 2964.72,-96.26 2947.15,-94.11 2930.85,-92.01"/>
<polygon fill="midnightblue" stroke="midnightblue" points="3472.12,-144.37 3482.35,-141.61 3472.63,-137.39 3472.12,-144.37"/>
</g>
<!-- Node33 -->
<g id="node28" class="node">
<title>Node33</title>
<g id="a_node28"><a xlink:href="../../d4/d4f/pmsystems_8cpp.html" target="_top" xlink:title=" ">
<polygon fill="white" stroke="black" points="2990.5,-67.5 2990.5,-97.5 3097.5,-97.5 3097.5,-67.5 2990.5,-67.5"/>
<text text-anchor="start" x="2998.5" y="-85.5" font-family="Helvetica,sans-Serif" font-size="10.00">src/libs/vpatterndb</text>
<text text-anchor="middle" x="3044" y="-74.5" font-family="Helvetica,sans-Serif" font-size="10.00">/pmsystems.cpp</text>
</a>
</g>
</g>
<!-- Node16&#45;&gt;Node33 -->
<g id="edge33" class="edge">
<title>Node16&#45;&gt;Node33</title>
<path fill="none" stroke="midnightblue" d="M3472.33,-140.84C3375.92,-133.08 3230.9,-119.18 3106,-98 3103.28,-97.54 3100.49,-97.03 3097.69,-96.48"/>
<polygon fill="midnightblue" stroke="midnightblue" points="3472.14,-144.34 3482.38,-141.65 3472.69,-137.36 3472.14,-144.34"/>
</g>
<!-- Node16&#45;&gt;Node34 -->
<g id="edge34" class="edge">
<title>Node16&#45;&gt;Node34</title>
<path fill="none" stroke="midnightblue" d="M3687.53,-148.94C4072.01,-150.06 5377.71,-149.86 5792,-98 5795.01,-97.62 5798.08,-97.17 5801.17,-96.65"/>
<polygon fill="midnightblue" stroke="midnightblue" points="3687.53,-145.44 3677.52,-148.91 3687.51,-152.44 3687.53,-145.44"/>
</g>
<!-- Node16&#45;&gt;Node35 -->
<g id="edge35" class="edge">
<title>Node16&#45;&gt;Node35</title>
<path fill="none" stroke="midnightblue" d="M3687.97,-147.47C4117.8,-143.18 5694.73,-125.68 5917,-98 5920.01,-97.63 5923.08,-97.17 5926.17,-96.65"/>
<polygon fill="midnightblue" stroke="midnightblue" points="3687.69,-143.97 3677.73,-147.57 3687.76,-150.97 3687.69,-143.97"/>
</g>
<!-- Node16&#45;&gt;Node36 -->
<g id="edge36" class="edge">
<title>Node16&#45;&gt;Node36</title>
<path fill="none" stroke="midnightblue" d="M3687.76,-147.6C4131.71,-143.7 5806.79,-127.16 6042,-98 6045.01,-97.63 6048.08,-97.17 6051.17,-96.66"/>
<polygon fill="midnightblue" stroke="midnightblue" points="3687.47,-144.1 3677.5,-147.69 3687.53,-151.1 3687.47,-144.1"/>
</g>
<!-- Node37 -->
<g id="node32" class="node">
<title>Node37</title>
<g id="a_node32"><a xlink:href="../../df/dba/vpiecenode__p_8h.html" target="_top" xlink:title=" ">
<polygon fill="white" stroke="black" points="3115.5,-67.5 3115.5,-97.5 3222.5,-97.5 3222.5,-67.5 3115.5,-67.5"/>
<text text-anchor="start" x="3123.5" y="-85.5" font-family="Helvetica,sans-Serif" font-size="10.00">src/libs/vpatterndb</text>
<text text-anchor="middle" x="3169" y="-74.5" font-family="Helvetica,sans-Serif" font-size="10.00">/vpiecenode_p.h</text>
</a>
</g>
</g>
<!-- Node16&#45;&gt;Node37 -->
<g id="edge37" class="edge">
<title>Node16&#45;&gt;Node37</title>
<path fill="none" stroke="midnightblue" d="M3499.22,-138.69C3428.49,-129.64 3323.08,-115.06 3232,-98 3228.91,-97.42 3225.74,-96.8 3222.55,-96.14"/>
<polygon fill="midnightblue" stroke="midnightblue" points="3499.04,-142.19 3509.4,-139.98 3499.92,-135.25 3499.04,-142.19"/>
</g>
<!-- Node39 -->
<g id="node34" class="node">
<title>Node39</title>
<g id="a_node34"><a xlink:href="../../de/d3e/vtranslatevars_8cpp.html" target="_top" xlink:title=" ">
<polygon fill="white" stroke="black" points="3241,-67.5 3241,-97.5 3351,-97.5 3351,-67.5 3241,-67.5"/>
<text text-anchor="start" x="3249" y="-85.5" font-family="Helvetica,sans-Serif" font-size="10.00">src/libs/vpatterndb</text>
<text text-anchor="middle" x="3296" y="-74.5" font-family="Helvetica,sans-Serif" font-size="10.00">/vtranslatevars.cpp</text>
</a>
</g>
</g>
<!-- Node16&#45;&gt;Node39 -->
<g id="edge39" class="edge">
<title>Node16&#45;&gt;Node39</title>
<path fill="none" stroke="midnightblue" d="M3532.67,-137.67C3482.64,-126.22 3403.83,-108.18 3351.06,-96.1"/>
<polygon fill="midnightblue" stroke="midnightblue" points="3532.05,-141.12 3542.58,-139.94 3533.61,-134.29 3532.05,-141.12"/>
</g>
<!-- Node40 -->
<g id="node35" class="node">
<title>Node40</title>
<g id="a_node35"><a xlink:href="../../df/d40/export__format__combobox_8cpp.html" target="_top" xlink:title=" ">
<polygon fill="white" stroke="black" points="3369.5,-67.5 3369.5,-97.5 3502.5,-97.5 3502.5,-67.5 3369.5,-67.5"/>
<text text-anchor="start" x="3377.5" y="-85.5" font-family="Helvetica,sans-Serif" font-size="10.00">src/libs/vwidgets/export</text>
<text text-anchor="middle" x="3436" y="-74.5" font-family="Helvetica,sans-Serif" font-size="10.00">_format_combobox.cpp</text>
</a>
</g>
</g>
<!-- Node16&#45;&gt;Node40 -->
<g id="edge40" class="edge">
<title>Node16&#45;&gt;Node40</title>
<path fill="none" stroke="midnightblue" d="M3551.47,-135.62C3527.11,-124.63 3492.14,-108.84 3467.08,-97.53"/>
<polygon fill="midnightblue" stroke="midnightblue" points="3550.32,-138.94 3560.88,-139.87 3553.2,-132.56 3550.32,-138.94"/>
</g>
<!-- Node41 -->
<g id="node36" class="node">
<title>Node41</title>
<g id="a_node36"><a xlink:href="../../d7/d1b/pen__toolbar_8cpp.html" target="_top" xlink:title=" ">
<polygon fill="white" stroke="black" points="3520.5,-67.5 3520.5,-97.5 3639.5,-97.5 3639.5,-67.5 3520.5,-67.5"/>
<text text-anchor="start" x="3528.5" y="-85.5" font-family="Helvetica,sans-Serif" font-size="10.00">src/libs/vwidgets/pen</text>
<text text-anchor="middle" x="3580" y="-74.5" font-family="Helvetica,sans-Serif" font-size="10.00">_toolbar.cpp</text>
</a>
</g>
</g>
<!-- Node16&#45;&gt;Node41 -->
<g id="edge41" class="edge">
<title>Node16&#45;&gt;Node41</title>
<path fill="none" stroke="midnightblue" d="M3580,-129.41C3580,-119.22 3580,-106.9 3580,-97.59"/>
<polygon fill="midnightblue" stroke="midnightblue" points="3576.5,-129.73 3580,-139.73 3583.5,-129.73 3576.5,-129.73"/>
</g>
<!-- Node42 -->
<g id="node37" class="node">
<title>Node42</title>
<g id="a_node37"><a xlink:href="../../d3/d4f/mouse__coordinates_8cpp.html" target="_top" xlink:title=" ">
<polygon fill="white" stroke="black" points="3658,-67.5 3658,-97.5 3792,-97.5 3792,-67.5 3658,-67.5"/>
<text text-anchor="start" x="3666" y="-85.5" font-family="Helvetica,sans-Serif" font-size="10.00">src/libs/vwidgets/mouse</text>
<text text-anchor="middle" x="3725" y="-74.5" font-family="Helvetica,sans-Serif" font-size="10.00">_coordinates.cpp</text>
</a>
</g>
</g>
<!-- Node16&#45;&gt;Node42 -->
<g id="edge42" class="edge">
<title>Node16&#45;&gt;Node42</title>
<path fill="none" stroke="midnightblue" d="M3608.4,-135.77C3632.95,-124.77 3668.36,-108.89 3693.71,-97.53"/>
<polygon fill="midnightblue" stroke="midnightblue" points="3606.95,-132.58 3599.25,-139.87 3609.81,-138.97 3606.95,-132.58"/>
</g>
<!-- Node43 -->
<g id="node38" class="node">
<title>Node43</title>
<g id="a_node38"><a xlink:href="../../d8/d76/scene__rect_8cpp.html" target="_top" xlink:title=" ">
<polygon fill="white" stroke="black" points="3810,-67.5 3810,-97.5 3940,-97.5 3940,-67.5 3810,-67.5"/>
<text text-anchor="start" x="3818" y="-85.5" font-family="Helvetica,sans-Serif" font-size="10.00">src/libs/vwidgets/scene</text>
<text text-anchor="middle" x="3875" y="-74.5" font-family="Helvetica,sans-Serif" font-size="10.00">_rect.cpp</text>
</a>
</g>
</g>
<!-- Node16&#45;&gt;Node43 -->
<g id="edge43" class="edge">
<title>Node16&#45;&gt;Node43</title>
<path fill="none" stroke="midnightblue" d="M3628.77,-137.75C3678.66,-126.76 3756.43,-109.63 3811.19,-97.56"/>
<polygon fill="midnightblue" stroke="midnightblue" points="3627.88,-134.37 3618.87,-139.94 3629.39,-141.2 3627.88,-134.37"/>
</g>
<!-- Node44 -->
<g id="node39" class="node">
<title>Node44</title>
<g id="a_node39"><a xlink:href="../../dd/df6/vabstractmainwindow_8cpp.html" target="_top" xlink:title=" ">
<polygon fill="white" stroke="black" points="3958.5,-73 3958.5,-92 4187.5,-92 4187.5,-73 3958.5,-73"/>
<text text-anchor="middle" x="4073" y="-80" font-family="Helvetica,sans-Serif" font-size="10.00">src/libs/vwidgets/vabstractmainwindow.cpp</text>
</a>
</g>
</g>
<!-- Node16&#45;&gt;Node44 -->
<g id="edge44" class="edge">
<title>Node16&#45;&gt;Node44</title>
<path fill="none" stroke="midnightblue" d="M3654.66,-138.66C3750.98,-125.96 3916.96,-104.07 4008.22,-92.04"/>
<polygon fill="midnightblue" stroke="midnightblue" points="3654.16,-135.19 3644.7,-139.97 3655.08,-142.13 3654.16,-135.19"/>
</g>
<!-- Node45 -->
<g id="node40" class="node">
<title>Node45</title>
<g id="a_node40"><a xlink:href="../../de/dec/vgraphicssimpletextitem_8cpp.html" target="_top" xlink:title=" ">
<polygon fill="white" stroke="black" points="4206,-73 4206,-92 4450,-92 4450,-73 4206,-73"/>
<text text-anchor="middle" x="4328" y="-80" font-family="Helvetica,sans-Serif" font-size="10.00">src/libs/vwidgets/vgraphicssimpletextitem.cpp</text>
</a>
</g>
</g>
<!-- Node16&#45;&gt;Node45 -->
<g id="edge45" class="edge">
<title>Node16&#45;&gt;Node45</title>
<path fill="none" stroke="midnightblue" d="M3687.87,-140.56C3810.91,-131.3 4018.08,-115.06 4196,-98 4214.7,-96.21 4234.88,-94.09 4253.69,-92.03"/>
<polygon fill="midnightblue" stroke="midnightblue" points="3687.4,-137.09 3677.69,-141.33 3687.93,-144.07 3687.4,-137.09"/>
</g>
<!-- Node46 -->
<g id="node41" class="node">
<title>Node46</title>
<g id="a_node41"><a xlink:href="../../d1/d90/vgrainlineitem_8cpp.html" target="_top" xlink:title=" ">
<polygon fill="white" stroke="black" points="4468.5,-73 4468.5,-92 4661.5,-92 4661.5,-73 4468.5,-73"/>
<text text-anchor="middle" x="4565" y="-80" font-family="Helvetica,sans-Serif" font-size="10.00">src/libs/vwidgets/vgrainlineitem.cpp</text>
</a>
</g>
</g>
<!-- Node16&#45;&gt;Node46 -->
<g id="edge46" class="edge">
<title>Node16&#45;&gt;Node46</title>
<path fill="none" stroke="midnightblue" d="M3687.96,-145.03C3853.98,-139.08 4181.82,-124.88 4459,-98 4475.18,-96.43 4492.68,-94.24 4508.71,-92.04"/>
<polygon fill="midnightblue" stroke="midnightblue" points="3687.62,-141.54 3677.75,-145.39 3687.87,-148.54 3687.62,-141.54"/>
</g>
<!-- Node47 -->
<g id="node42" class="node">
<title>Node47</title>
<g id="a_node42"><a xlink:href="../../d1/d88/vmaingraphicsscene_8cpp.html" target="_top" xlink:title=" ">
<polygon fill="white" stroke="black" points="4680,-73 4680,-92 4902,-92 4902,-73 4680,-73"/>
<text text-anchor="middle" x="4791" y="-80" font-family="Helvetica,sans-Serif" font-size="10.00">src/libs/vwidgets/vmaingraphicsscene.cpp</text>
</a>
</g>
</g>
<!-- Node16&#45;&gt;Node47 -->
<g id="edge47" class="edge">
<title>Node16&#45;&gt;Node47</title>
<path fill="none" stroke="midnightblue" d="M3687.87,-146.11C3883.76,-141.19 4310.93,-127.79 4670,-98 4688.66,-96.45 4708.88,-94.24 4727.35,-92.01"/>
<polygon fill="midnightblue" stroke="midnightblue" points="3687.77,-142.61 3677.86,-146.36 3687.95,-149.61 3687.77,-142.61"/>
</g>
<!-- Node48 -->
<g id="node43" class="node">
<title>Node48</title>
<g id="a_node43"><a xlink:href="../../de/d45/vcontrolpointspline_8cpp.html" target="_top" xlink:title=" ">
<polygon fill="white" stroke="black" points="4920.5,-73 4920.5,-92 5135.5,-92 5135.5,-73 4920.5,-73"/>
<text text-anchor="middle" x="5028" y="-80" font-family="Helvetica,sans-Serif" font-size="10.00">src/libs/vwidgets/vcontrolpointspline.cpp</text>
</a>
</g>
</g>
<!-- Node16&#45;&gt;Node48 -->
<g id="edge48" class="edge">
<title>Node16&#45;&gt;Node48</title>
<path fill="none" stroke="midnightblue" d="M3688.09,-147.52C3915.02,-144.79 4457.56,-134.63 4911,-98 4929.36,-96.52 4949.27,-94.28 4967.38,-92.01"/>
<polygon fill="midnightblue" stroke="midnightblue" points="3687.81,-144.03 3677.86,-147.64 3687.9,-151.03 3687.81,-144.03"/>
</g>
<!-- Node49 -->
<g id="node44" class="node">
<title>Node49</title>
<g id="a_node44"><a xlink:href="../../d0/d5d/vscenepoint_8cpp.html" target="_top" xlink:title=" ">
<polygon fill="white" stroke="black" points="5153.5,-73 5153.5,-92 5334.5,-92 5334.5,-73 5153.5,-73"/>
<text text-anchor="middle" x="5244" y="-80" font-family="Helvetica,sans-Serif" font-size="10.00">src/libs/vwidgets/vscenepoint.cpp</text>
</a>
</g>
</g>
<!-- Node16&#45;&gt;Node49 -->
<g id="edge49" class="edge">
<title>Node16&#45;&gt;Node49</title>
<path fill="none" stroke="midnightblue" d="M3688.02,-149.16C3942.34,-149.81 4598.49,-146.2 5144,-98 5159.99,-96.59 5177.32,-94.33 5193,-92.02"/>
<polygon fill="midnightblue" stroke="midnightblue" points="3687.69,-145.66 3677.68,-149.13 3687.67,-152.66 3687.69,-145.66"/>
</g>
<!-- Node25&#45;&gt;Node26 -->
<g id="edge24" class="edge">
<title>Node25&#45;&gt;Node26</title>
<path fill="none" stroke="midnightblue" d="M2054.28,-58.87C2060.21,-49.46 2066.91,-38.83 2072.12,-30.58"/>
<polygon fill="midnightblue" stroke="midnightblue" points="2051.27,-57.07 2048.9,-67.4 2057.19,-60.81 2051.27,-57.07"/>
</g>
<!-- Node37&#45;&gt;Node38 -->
<g id="edge38" class="edge">
<title>Node37&#45;&gt;Node38</title>
<path fill="none" stroke="midnightblue" d="M3233.14,-67.08C3529.79,-30.35 4399.5,-19.3 4624.43,-17"/>
<polygon fill="midnightblue" stroke="midnightblue" points="3232.31,-63.66 3222.83,-68.4 3233.2,-70.6 3232.31,-63.66"/>
</g>
</g>
</svg>
