<?xml version="1.0" encoding="UTF-8" standalone="no"?>
<!DOCTYPE svg PUBLIC "-//W3C//DTD SVG 1.1//EN"
 "http://www.w3.org/Graphics/SVG/1.1/DTD/svg11.dtd">
<!-- Generated by graphviz version 2.43.0 (0)
 -->
<!-- Title: src/libs/ifc/xml/vabstractpattern.h Pages: 1 -->
<svg width="1883pt" height="218pt"
 viewBox="0.00 0.00 1883.00 218.00" xmlns="http://www.w3.org/2000/svg" xmlns:xlink="http://www.w3.org/1999/xlink">
<g id="graph0" class="graph" transform="scale(1 1) rotate(0) translate(4 214)">
<title>src/libs/ifc/xml/vabstractpattern.h</title>
<polygon fill="white" stroke="transparent" points="-4,4 -4,-214 1879,-214 1879,4 -4,4"/>
<!-- Node1 -->
<g id="node1" class="node">
<title>Node1</title>
<g id="a_node1"><a xlink:title=" ">
<polygon fill="#bfbfbf" stroke="black" points="1221.5,-190.5 1221.5,-209.5 1402.5,-209.5 1402.5,-190.5 1221.5,-190.5"/>
<text text-anchor="middle" x="1312" y="-197.5" font-family="Helvetica,sans-Serif" font-size="10.00">src/libs/ifc/xml/vabstractpattern.h</text>
</a>
</g>
</g>
<!-- Node2 -->
<g id="node2" class="node">
<title>Node2</title>
<g id="a_node2"><a xlink:href="../../de/d7d/vabstractpattern_8cpp.html" target="_top" xlink:title=" ">
<polygon fill="white" stroke="black" points="526,-129 526,-148 718,-148 718,-129 526,-129"/>
<text text-anchor="middle" x="622" y="-136" font-family="Helvetica,sans-Serif" font-size="10.00">src/libs/ifc/xml/vabstractpattern.cpp</text>
</a>
</g>
</g>
<!-- Node1&#45;&gt;Node2 -->
<g id="edge1" class="edge">
<title>Node1&#45;&gt;Node2</title>
<path fill="none" stroke="midnightblue" d="M1211.41,-193.12C1094.72,-185.86 896.64,-172.22 727,-154 711.45,-152.33 694.65,-150.17 679.14,-148.03"/>
<polygon fill="midnightblue" stroke="midnightblue" points="1211.2,-196.61 1221.4,-193.73 1211.63,-189.62 1211.2,-196.61"/>
</g>
<!-- Node3 -->
<g id="node3" class="node">
<title>Node3</title>
<g id="a_node3"><a xlink:href="../../d6/de0/vlayoutpiece_8h.html" target="_top" xlink:title=" ">
<polygon fill="white" stroke="black" points="736,-129 736,-148 902,-148 902,-129 736,-129"/>
<text text-anchor="middle" x="819" y="-136" font-family="Helvetica,sans-Serif" font-size="10.00">src/libs/vlayout/vlayoutpiece.h</text>
</a>
</g>
</g>
<!-- Node1&#45;&gt;Node3 -->
<g id="edge2" class="edge">
<title>Node1&#45;&gt;Node3</title>
<path fill="none" stroke="midnightblue" d="M1231.22,-189.25C1136.17,-177.78 979.86,-158.91 889.5,-148.01"/>
<polygon fill="midnightblue" stroke="midnightblue" points="1231.02,-192.75 1241.37,-190.48 1231.86,-185.8 1231.02,-192.75"/>
</g>
<!-- Node13 -->
<g id="node13" class="node">
<title>Node13</title>
<g id="a_node13"><a xlink:href="../../d8/d70/vtextmanager_8cpp.html" target="_top" xlink:title=" ">
<polygon fill="white" stroke="black" points="1045,-129 1045,-148 1227,-148 1227,-129 1045,-129"/>
<text text-anchor="middle" x="1136" y="-136" font-family="Helvetica,sans-Serif" font-size="10.00">src/libs/vlayout/vtextmanager.cpp</text>
</a>
</g>
</g>
<!-- Node1&#45;&gt;Node13 -->
<g id="edge14" class="edge">
<title>Node1&#45;&gt;Node13</title>
<path fill="none" stroke="midnightblue" d="M1277.19,-187.23C1242.98,-175.67 1191.6,-158.3 1161.17,-148.01"/>
<polygon fill="midnightblue" stroke="midnightblue" points="1276.19,-190.59 1286.78,-190.48 1278.43,-183.96 1276.19,-190.59"/>
</g>
<!-- Node14 -->
<g id="node14" class="node">
<title>Node14</title>
<g id="a_node14"><a xlink:href="../../d0/da5/export__format__combobox_8h.html" target="_top" xlink:title=" ">
<polygon fill="white" stroke="black" points="1245.5,-123.5 1245.5,-153.5 1378.5,-153.5 1378.5,-123.5 1245.5,-123.5"/>
<text text-anchor="start" x="1253.5" y="-141.5" font-family="Helvetica,sans-Serif" font-size="10.00">src/libs/vwidgets/export</text>
<text text-anchor="middle" x="1312" y="-130.5" font-family="Helvetica,sans-Serif" font-size="10.00">_format_combobox.h</text>
</a>
</g>
</g>
<!-- Node1&#45;&gt;Node14 -->
<g id="edge15" class="edge">
<title>Node1&#45;&gt;Node14</title>
<path fill="none" stroke="midnightblue" d="M1312,-180.23C1312,-171.59 1312,-161.5 1312,-153.52"/>
<polygon fill="midnightblue" stroke="midnightblue" points="1308.5,-180.48 1312,-190.48 1315.5,-180.48 1308.5,-180.48"/>
</g>
<!-- Node16 -->
<g id="node16" class="node">
<title>Node16</title>
<g id="a_node16"><a xlink:href="../../d3/d86/page__format__combobox_8h.html" target="_top" xlink:title=" ">
<polygon fill="white" stroke="black" points="1396.5,-123.5 1396.5,-153.5 1521.5,-153.5 1521.5,-123.5 1396.5,-123.5"/>
<text text-anchor="start" x="1404.5" y="-141.5" font-family="Helvetica,sans-Serif" font-size="10.00">src/libs/vwidgets/page</text>
<text text-anchor="middle" x="1459" y="-130.5" font-family="Helvetica,sans-Serif" font-size="10.00">_format_combobox.h</text>
</a>
</g>
</g>
<!-- Node1&#45;&gt;Node16 -->
<g id="edge17" class="edge">
<title>Node1&#45;&gt;Node16</title>
<path fill="none" stroke="midnightblue" d="M1342.34,-186.72C1366.2,-177.06 1399.45,-163.6 1424.36,-153.52"/>
<polygon fill="midnightblue" stroke="midnightblue" points="1341.02,-183.48 1333.06,-190.48 1343.64,-189.97 1341.02,-183.48"/>
</g>
<!-- Node18 -->
<g id="node18" class="node">
<title>Node18</title>
<g id="a_node18"><a xlink:href="../../d7/df4/group__tablewidgetitem_8cpp.html" target="_top" xlink:title=" ">
<polygon fill="white" stroke="black" points="1539.5,-123.5 1539.5,-153.5 1668.5,-153.5 1668.5,-123.5 1539.5,-123.5"/>
<text text-anchor="start" x="1547.5" y="-141.5" font-family="Helvetica,sans-Serif" font-size="10.00">src/libs/vwidgets/group</text>
<text text-anchor="middle" x="1604" y="-130.5" font-family="Helvetica,sans-Serif" font-size="10.00">_tablewidgetitem.cpp</text>
</a>
</g>
</g>
<!-- Node1&#45;&gt;Node18 -->
<g id="edge19" class="edge">
<title>Node1&#45;&gt;Node18</title>
<path fill="none" stroke="midnightblue" d="M1363.9,-188.42C1412.91,-178.44 1486.56,-163.43 1539.36,-152.67"/>
<polygon fill="midnightblue" stroke="midnightblue" points="1362.94,-185.05 1353.84,-190.48 1364.33,-191.91 1362.94,-185.05"/>
</g>
<!-- Node19 -->
<g id="node19" class="node">
<title>Node19</title>
<g id="a_node19"><a xlink:href="../../de/d22/vsimplecurve_8cpp.html" target="_top" xlink:title=" ">
<polygon fill="white" stroke="black" points="1687,-129 1687,-148 1875,-148 1875,-129 1687,-129"/>
<text text-anchor="middle" x="1781" y="-136" font-family="Helvetica,sans-Serif" font-size="10.00">src/libs/vwidgets/vsimplecurve.cpp</text>
</a>
</g>
</g>
<!-- Node1&#45;&gt;Node19 -->
<g id="edge20" class="edge">
<title>Node1&#45;&gt;Node19</title>
<path fill="none" stroke="midnightblue" d="M1394.49,-189.28C1468.7,-180.43 1580.71,-166.83 1678,-154 1692.14,-152.14 1707.37,-150.04 1721.66,-148.04"/>
<polygon fill="midnightblue" stroke="midnightblue" points="1393.79,-185.84 1384.27,-190.49 1394.61,-192.79 1393.79,-185.84"/>
</g>
<!-- Node4 -->
<g id="node4" class="node">
<title>Node4</title>
<g id="a_node4"><a xlink:href="../../dd/d66/vdxfengine_8cpp.html" target="_top" xlink:title=" ">
<polygon fill="white" stroke="black" points="0,-62 0,-81 154,-81 154,-62 0,-62"/>
<text text-anchor="middle" x="77" y="-69" font-family="Helvetica,sans-Serif" font-size="10.00">src/libs/vdxf/vdxfengine.cpp</text>
</a>
</g>
</g>
<!-- Node3&#45;&gt;Node4 -->
<g id="edge3" class="edge">
<title>Node3&#45;&gt;Node4</title>
<path fill="none" stroke="midnightblue" d="M760.4,-127.43C749.33,-125.77 737.83,-124.2 727,-123 477.34,-95.42 412.51,-115.92 163,-87 149.76,-85.47 135.47,-83.27 122.4,-81.06"/>
<polygon fill="midnightblue" stroke="midnightblue" points="759.99,-130.91 770.41,-128.98 761.06,-123.99 759.99,-130.91"/>
</g>
<!-- Node5 -->
<g id="node5" class="node">
<title>Node5</title>
<g id="a_node5"><a xlink:href="../../df/d5d/vcontour_8cpp.html" target="_top" xlink:title=" ">
<polygon fill="white" stroke="black" points="172,-62 172,-81 328,-81 328,-62 172,-62"/>
<text text-anchor="middle" x="250" y="-69" font-family="Helvetica,sans-Serif" font-size="10.00">src/libs/vlayout/vcontour.cpp</text>
</a>
</g>
</g>
<!-- Node3&#45;&gt;Node5 -->
<g id="edge4" class="edge">
<title>Node3&#45;&gt;Node5</title>
<path fill="none" stroke="midnightblue" d="M758.53,-127.4C748.04,-125.81 737.21,-124.27 727,-123 554.27,-101.44 509.63,-109.32 337,-87 324.09,-85.33 310.16,-83.17 297.32,-81.03"/>
<polygon fill="midnightblue" stroke="midnightblue" points="758.05,-130.87 768.47,-128.94 759.12,-123.95 758.05,-130.87"/>
</g>
<!-- Node6 -->
<g id="node6" class="node">
<title>Node6</title>
<g id="a_node6"><a xlink:href="../../d3/d39/vlayoutgenerator_8cpp.html" target="_top" xlink:title=" ">
<polygon fill="white" stroke="black" points="346.5,-62 346.5,-81 543.5,-81 543.5,-62 346.5,-62"/>
<text text-anchor="middle" x="445" y="-69" font-family="Helvetica,sans-Serif" font-size="10.00">src/libs/vlayout/vlayoutgenerator.cpp</text>
</a>
</g>
</g>
<!-- Node3&#45;&gt;Node6 -->
<g id="edge5" class="edge">
<title>Node3&#45;&gt;Node6</title>
<path fill="none" stroke="midnightblue" d="M759.7,-127.19C686.25,-114.43 562.47,-92.92 494.09,-81.03"/>
<polygon fill="midnightblue" stroke="midnightblue" points="759.27,-130.67 769.72,-128.94 760.47,-123.77 759.27,-130.67"/>
</g>
<!-- Node7 -->
<g id="node7" class="node">
<title>Node7</title>
<g id="a_node7"><a xlink:href="../../d2/d2d/vlayoutpaper__p_8h.html" target="_top" xlink:title=" ">
<polygon fill="white" stroke="black" points="561.5,-62 561.5,-81 740.5,-81 740.5,-62 561.5,-62"/>
<text text-anchor="middle" x="651" y="-69" font-family="Helvetica,sans-Serif" font-size="10.00">src/libs/vlayout/vlayoutpaper_p.h</text>
</a>
</g>
</g>
<!-- Node3&#45;&gt;Node7 -->
<g id="edge6" class="edge">
<title>Node3&#45;&gt;Node7</title>
<path fill="none" stroke="midnightblue" d="M786.96,-125.1C753.61,-112.2 702.25,-92.33 673.13,-81.06"/>
<polygon fill="midnightblue" stroke="midnightblue" points="786.1,-128.52 796.69,-128.87 788.63,-122 786.1,-128.52"/>
</g>
<!-- Node8 -->
<g id="node8" class="node">
<title>Node8</title>
<g id="a_node8"><a xlink:href="../../d1/dd1/vlayoutpaper_8cpp.html" target="_top" xlink:title=" ">
<polygon fill="white" stroke="black" points="680,-0.5 680,-19.5 858,-19.5 858,-0.5 680,-0.5"/>
<text text-anchor="middle" x="769" y="-7.5" font-family="Helvetica,sans-Serif" font-size="10.00">src/libs/vlayout/vlayoutpaper.cpp</text>
</a>
</g>
</g>
<!-- Node3&#45;&gt;Node8 -->
<g id="edge8" class="edge">
<title>Node3&#45;&gt;Node8</title>
<path fill="none" stroke="midnightblue" d="M806.56,-120.22C800.25,-110.78 792.9,-98.67 788,-87 778.2,-63.68 772.61,-34.13 770.29,-19.71"/>
<polygon fill="midnightblue" stroke="midnightblue" points="803.83,-122.42 812.4,-128.65 809.58,-118.43 803.83,-122.42"/>
</g>
<!-- Node9 -->
<g id="node9" class="node">
<title>Node9</title>
<g id="a_node9"><a xlink:href="../../de/da8/vbank_8cpp.html" target="_top" xlink:title=" ">
<polygon fill="white" stroke="black" points="797,-62 797,-81 941,-81 941,-62 797,-62"/>
<text text-anchor="middle" x="869" y="-69" font-family="Helvetica,sans-Serif" font-size="10.00">src/libs/vlayout/vbank.cpp</text>
</a>
</g>
</g>
<!-- Node3&#45;&gt;Node9 -->
<g id="edge9" class="edge">
<title>Node3&#45;&gt;Node9</title>
<path fill="none" stroke="midnightblue" d="M831.87,-120.77C841.62,-108.1 854.61,-91.2 862.36,-81.13"/>
<polygon fill="midnightblue" stroke="midnightblue" points="829.07,-118.67 825.74,-128.73 834.61,-122.94 829.07,-118.67"/>
</g>
<!-- Node10 -->
<g id="node10" class="node">
<title>Node10</title>
<g id="a_node10"><a xlink:href="../../db/d5c/vposition_8h.html" target="_top" xlink:title=" ">
<polygon fill="white" stroke="black" points="959,-62 959,-81 1107,-81 1107,-62 959,-62"/>
<text text-anchor="middle" x="1033" y="-69" font-family="Helvetica,sans-Serif" font-size="10.00">src/libs/vlayout/vposition.h</text>
</a>
</g>
</g>
<!-- Node3&#45;&gt;Node10 -->
<g id="edge10" class="edge">
<title>Node3&#45;&gt;Node10</title>
<path fill="none" stroke="midnightblue" d="M857.1,-125.93C899.47,-113.06 966.92,-92.57 1004.81,-81.06"/>
<polygon fill="midnightblue" stroke="midnightblue" points="855.97,-122.61 847.42,-128.87 858,-129.31 855.97,-122.61"/>
</g>
<!-- Node12 -->
<g id="node12" class="node">
<title>Node12</title>
<g id="a_node12"><a xlink:href="../../dd/d70/vlayoutpiece_8cpp.html" target="_top" xlink:title=" ">
<polygon fill="white" stroke="black" points="1125.5,-62 1125.5,-81 1302.5,-81 1302.5,-62 1125.5,-62"/>
<text text-anchor="middle" x="1214" y="-69" font-family="Helvetica,sans-Serif" font-size="10.00">src/libs/vlayout/vlayoutpiece.cpp</text>
</a>
</g>
</g>
<!-- Node3&#45;&gt;Node12 -->
<g id="edge13" class="edge">
<title>Node3&#45;&gt;Node12</title>
<path fill="none" stroke="midnightblue" d="M881.15,-127.27C958.67,-114.52 1089.78,-92.94 1162.15,-81.03"/>
<polygon fill="midnightblue" stroke="midnightblue" points="880.34,-123.86 871.05,-128.94 881.48,-130.77 880.34,-123.86"/>
</g>
<!-- Node7&#45;&gt;Node8 -->
<g id="edge7" class="edge">
<title>Node7&#45;&gt;Node8</title>
<path fill="none" stroke="midnightblue" d="M677.05,-57.37C699.92,-45.83 732.51,-29.4 752.12,-19.51"/>
<polygon fill="midnightblue" stroke="midnightblue" points="675.26,-54.35 667.91,-61.98 678.41,-60.6 675.26,-54.35"/>
</g>
<!-- Node10&#45;&gt;Node8 -->
<g id="edge11" class="edge">
<title>Node10&#45;&gt;Node8</title>
<path fill="none" stroke="midnightblue" d="M985.34,-59.76C934.13,-48.22 853.77,-30.11 806.75,-19.51"/>
<polygon fill="midnightblue" stroke="midnightblue" points="984.65,-63.19 995.18,-61.98 986.19,-56.36 984.65,-63.19"/>
</g>
<!-- Node11 -->
<g id="node11" class="node">
<title>Node11</title>
<g id="a_node11"><a xlink:href="../../df/d76/vposition_8cpp.html" target="_top" xlink:title=" ">
<polygon fill="white" stroke="black" points="953.5,-0.5 953.5,-19.5 1112.5,-19.5 1112.5,-0.5 953.5,-0.5"/>
<text text-anchor="middle" x="1033" y="-7.5" font-family="Helvetica,sans-Serif" font-size="10.00">src/libs/vlayout/vposition.cpp</text>
</a>
</g>
</g>
<!-- Node10&#45;&gt;Node11 -->
<g id="edge12" class="edge">
<title>Node10&#45;&gt;Node11</title>
<path fill="none" stroke="midnightblue" d="M1033,-51.82C1033,-41 1033,-27.9 1033,-19.51"/>
<polygon fill="midnightblue" stroke="midnightblue" points="1029.5,-51.98 1033,-61.98 1036.5,-51.98 1029.5,-51.98"/>
</g>
<!-- Node15 -->
<g id="node15" class="node">
<title>Node15</title>
<g id="a_node15"><a xlink:href="../../df/d40/export__format__combobox_8cpp.html" target="_top" xlink:title=" ">
<polygon fill="white" stroke="black" points="1320.5,-56.5 1320.5,-86.5 1453.5,-86.5 1453.5,-56.5 1320.5,-56.5"/>
<text text-anchor="start" x="1328.5" y="-74.5" font-family="Helvetica,sans-Serif" font-size="10.00">src/libs/vwidgets/export</text>
<text text-anchor="middle" x="1387" y="-63.5" font-family="Helvetica,sans-Serif" font-size="10.00">_format_combobox.cpp</text>
</a>
</g>
</g>
<!-- Node14&#45;&gt;Node15 -->
<g id="edge16" class="edge">
<title>Node14&#45;&gt;Node15</title>
<path fill="none" stroke="midnightblue" d="M1336.12,-116.6C1347.44,-106.78 1360.64,-95.34 1370.76,-86.58"/>
<polygon fill="midnightblue" stroke="midnightblue" points="1333.54,-114.2 1328.27,-123.4 1338.12,-119.49 1333.54,-114.2"/>
</g>
<!-- Node17 -->
<g id="node17" class="node">
<title>Node17</title>
<g id="a_node17"><a xlink:href="../../d2/d28/page__format__combobox_8cpp.html" target="_top" xlink:title=" ">
<polygon fill="white" stroke="black" points="1471.5,-56.5 1471.5,-86.5 1602.5,-86.5 1602.5,-56.5 1471.5,-56.5"/>
<text text-anchor="start" x="1479.5" y="-74.5" font-family="Helvetica,sans-Serif" font-size="10.00">src/libs/vwidgets/page</text>
<text text-anchor="middle" x="1537" y="-63.5" font-family="Helvetica,sans-Serif" font-size="10.00">_format_combobox.cpp</text>
</a>
</g>
</g>
<!-- Node16&#45;&gt;Node17 -->
<g id="edge18" class="edge">
<title>Node16&#45;&gt;Node17</title>
<path fill="none" stroke="midnightblue" d="M1483.74,-116.88C1495.59,-107.01 1509.48,-95.43 1520.11,-86.58"/>
<polygon fill="midnightblue" stroke="midnightblue" points="1481.37,-114.31 1475.92,-123.4 1485.85,-119.68 1481.37,-114.31"/>
</g>
</g>
</svg>
