<?xml version="1.0" encoding="UTF-8" standalone="no"?>
<!DOCTYPE svg PUBLIC "-//W3C//DTD SVG 1.1//EN"
 "http://www.w3.org/Graphics/SVG/1.1/DTD/svg11.dtd">
<!-- Generated by graphviz version 2.43.0 (0)
 -->
<!-- Title: src/app/seamly2d/xml/vpattern.h Pages: 1 -->
<svg width="1122pt" height="240pt"
 viewBox="0.00 0.00 1122.00 240.00" xmlns="http://www.w3.org/2000/svg" xmlns:xlink="http://www.w3.org/1999/xlink">
<g id="graph0" class="graph" transform="scale(1 1) rotate(0) translate(4 236)">
<title>src/app/seamly2d/xml/vpattern.h</title>
<polygon fill="white" stroke="transparent" points="-4,4 -4,-236 1118,-236 1118,4 -4,4"/>
<!-- Node1 -->
<g id="node1" class="node">
<title>Node1</title>
<g id="a_node1"><a xlink:title=" ">
<polygon fill="#bfbfbf" stroke="black" points="499,-201.5 499,-231.5 624,-231.5 624,-201.5 499,-201.5"/>
<text text-anchor="start" x="507" y="-219.5" font-family="Helvetica,sans-Serif" font-size="10.00">src/app/seamly2d/xml</text>
<text text-anchor="middle" x="561.5" y="-208.5" font-family="Helvetica,sans-Serif" font-size="10.00">/vpattern.h</text>
</a>
</g>
</g>
<!-- Node2 -->
<g id="node2" class="node">
<title>Node2</title>
<g id="a_node2"><a xlink:href="../../d5/d18/dialogpatternproperties_8cpp.html" target="_top" xlink:title=" ">
<polygon fill="white" stroke="black" points="0,-134.5 0,-164.5 155,-164.5 155,-134.5 0,-134.5"/>
<text text-anchor="start" x="8" y="-152.5" font-family="Helvetica,sans-Serif" font-size="10.00">src/app/seamly2d/dialogs</text>
<text text-anchor="middle" x="77.5" y="-141.5" font-family="Helvetica,sans-Serif" font-size="10.00">/dialogpatternproperties.cpp</text>
</a>
</g>
</g>
<!-- Node1&#45;&gt;Node2 -->
<g id="edge1" class="edge">
<title>Node1&#45;&gt;Node2</title>
<path fill="none" stroke="midnightblue" d="M488.7,-207.17C408.81,-197.81 276.82,-181.74 163.5,-165 160.8,-164.6 158.06,-164.19 155.29,-163.76"/>
<polygon fill="midnightblue" stroke="midnightblue" points="488.32,-210.65 498.66,-208.33 489.14,-203.69 488.32,-210.65"/>
</g>
<!-- Node3 -->
<g id="node3" class="node">
<title>Node3</title>
<g id="a_node3"><a xlink:href="../../de/d7c/dialogvariables_8h.html" target="_top" xlink:title=" ">
<polygon fill="white" stroke="black" points="173,-134.5 173,-164.5 314,-164.5 314,-134.5 173,-134.5"/>
<text text-anchor="start" x="181" y="-152.5" font-family="Helvetica,sans-Serif" font-size="10.00">src/app/seamly2d/dialogs</text>
<text text-anchor="middle" x="243.5" y="-141.5" font-family="Helvetica,sans-Serif" font-size="10.00">/dialogvariables.h</text>
</a>
</g>
</g>
<!-- Node1&#45;&gt;Node3 -->
<g id="edge2" class="edge">
<title>Node1&#45;&gt;Node3</title>
<path fill="none" stroke="midnightblue" d="M488.66,-200.61C435.64,-189.77 364.31,-175.19 312.26,-164.55"/>
<polygon fill="midnightblue" stroke="midnightblue" points="488.18,-204.08 498.67,-202.66 489.58,-197.23 488.18,-204.08"/>
</g>
<!-- Node7 -->
<g id="node7" class="node">
<title>Node7</title>
<g id="a_node7"><a xlink:href="../../d5/d6c/history__dialog_8cpp.html" target="_top" xlink:title=" ">
<polygon fill="white" stroke="black" points="332,-134.5 332,-164.5 473,-164.5 473,-134.5 332,-134.5"/>
<text text-anchor="start" x="340" y="-152.5" font-family="Helvetica,sans-Serif" font-size="10.00">src/app/seamly2d/dialogs</text>
<text text-anchor="middle" x="402.5" y="-141.5" font-family="Helvetica,sans-Serif" font-size="10.00">/history_dialog.cpp</text>
</a>
</g>
</g>
<!-- Node1&#45;&gt;Node7 -->
<g id="edge6" class="edge">
<title>Node1&#45;&gt;Node7</title>
<path fill="none" stroke="midnightblue" d="M517.58,-197.54C492.13,-187.14 460.57,-174.24 436.93,-164.58"/>
<polygon fill="midnightblue" stroke="midnightblue" points="516.42,-200.85 527,-201.4 519.07,-194.37 516.42,-200.85"/>
</g>
<!-- Node8 -->
<g id="node8" class="node">
<title>Node8</title>
<g id="a_node8"><a xlink:href="../../dd/de2/show__info__dialog_8h.html" target="_top" xlink:title=" ">
<polygon fill="white" stroke="black" points="491,-134.5 491,-164.5 632,-164.5 632,-134.5 491,-134.5"/>
<text text-anchor="start" x="499" y="-152.5" font-family="Helvetica,sans-Serif" font-size="10.00">src/app/seamly2d/dialogs</text>
<text text-anchor="middle" x="561.5" y="-141.5" font-family="Helvetica,sans-Serif" font-size="10.00">/show_info_dialog.h</text>
</a>
</g>
</g>
<!-- Node1&#45;&gt;Node8 -->
<g id="edge7" class="edge">
<title>Node1&#45;&gt;Node8</title>
<path fill="none" stroke="midnightblue" d="M561.5,-191.11C561.5,-182.15 561.5,-172.32 561.5,-164.58"/>
<polygon fill="midnightblue" stroke="midnightblue" points="558,-191.4 561.5,-201.4 565,-191.4 558,-191.4"/>
</g>
<!-- Node9 -->
<g id="node9" class="node">
<title>Node9</title>
<g id="a_node9"><a xlink:href="../../d2/df4/show__info__dialog_8cpp.html" target="_top" xlink:title=" ">
<polygon fill="white" stroke="black" points="540,-67.5 540,-97.5 681,-97.5 681,-67.5 540,-67.5"/>
<text text-anchor="start" x="548" y="-85.5" font-family="Helvetica,sans-Serif" font-size="10.00">src/app/seamly2d/dialogs</text>
<text text-anchor="middle" x="610.5" y="-74.5" font-family="Helvetica,sans-Serif" font-size="10.00">/show_info_dialog.cpp</text>
</a>
</g>
</g>
<!-- Node1&#45;&gt;Node9 -->
<g id="edge10" class="edge">
<title>Node1&#45;&gt;Node9</title>
<path fill="none" stroke="midnightblue" d="M608.34,-196.53C621.43,-188.8 634.09,-178.44 641.5,-165 653.85,-142.6 636.39,-114.25 623.09,-97.58"/>
<polygon fill="midnightblue" stroke="midnightblue" points="606.38,-193.61 599.27,-201.47 609.73,-199.76 606.38,-193.61"/>
</g>
<!-- Node10 -->
<g id="node10" class="node">
<title>Node10</title>
<g id="a_node10"><a xlink:href="../../d3/d49/vpattern_8cpp.html" target="_top" xlink:title=" ">
<polygon fill="white" stroke="black" points="689,-134.5 689,-164.5 814,-164.5 814,-134.5 689,-134.5"/>
<text text-anchor="start" x="697" y="-152.5" font-family="Helvetica,sans-Serif" font-size="10.00">src/app/seamly2d/xml</text>
<text text-anchor="middle" x="751.5" y="-141.5" font-family="Helvetica,sans-Serif" font-size="10.00">/vpattern.cpp</text>
</a>
</g>
</g>
<!-- Node1&#45;&gt;Node10 -->
<g id="edge11" class="edge">
<title>Node1&#45;&gt;Node10</title>
<path fill="none" stroke="midnightblue" d="M612.39,-198.09C643.06,-187.6 681.61,-174.41 710.35,-164.58"/>
<polygon fill="midnightblue" stroke="midnightblue" points="611.06,-194.85 602.73,-201.4 613.32,-201.47 611.06,-194.85"/>
</g>
<!-- Node11 -->
<g id="node11" class="node">
<title>Node11</title>
<g id="a_node11"><a xlink:href="../../d1/d82/mainwindowsnogui_8h.html" target="_top" xlink:title=" ">
<polygon fill="white" stroke="black" points="832,-140 832,-159 1041,-159 1041,-140 832,-140"/>
<text text-anchor="middle" x="936.5" y="-147" font-family="Helvetica,sans-Serif" font-size="10.00">src/app/seamly2d/mainwindowsnogui.h</text>
</a>
</g>
</g>
<!-- Node1&#45;&gt;Node11 -->
<g id="edge12" class="edge">
<title>Node1&#45;&gt;Node11</title>
<path fill="none" stroke="midnightblue" d="M634.52,-202.84C709.09,-189.92 822.8,-170.21 887.31,-159.03"/>
<polygon fill="midnightblue" stroke="midnightblue" points="633.52,-199.46 624.27,-204.62 634.72,-206.36 633.52,-199.46"/>
</g>
<!-- Node4 -->
<g id="node4" class="node">
<title>Node4</title>
<g id="a_node4"><a xlink:href="../../d6/d64/dialogs_8h.html" target="_top" xlink:title=" ">
<polygon fill="white" stroke="black" points="381,-67.5 381,-97.5 522,-97.5 522,-67.5 381,-67.5"/>
<text text-anchor="start" x="389" y="-85.5" font-family="Helvetica,sans-Serif" font-size="10.00">src/app/seamly2d/dialogs</text>
<text text-anchor="middle" x="451.5" y="-74.5" font-family="Helvetica,sans-Serif" font-size="10.00">/dialogs.h</text>
</a>
</g>
</g>
<!-- Node3&#45;&gt;Node4 -->
<g id="edge3" class="edge">
<title>Node3&#45;&gt;Node4</title>
<path fill="none" stroke="midnightblue" d="M298.08,-131.44C331.8,-120.91 374.54,-107.55 406.35,-97.61"/>
<polygon fill="midnightblue" stroke="midnightblue" points="296.88,-128.15 288.38,-134.48 298.97,-134.83 296.88,-128.15"/>
</g>
<!-- Node6 -->
<g id="node6" class="node">
<title>Node6</title>
<g id="a_node6"><a xlink:href="../../db/dd7/dialogvariables_8cpp.html" target="_top" xlink:title=" ">
<polygon fill="white" stroke="black" points="173,-67.5 173,-97.5 314,-97.5 314,-67.5 173,-67.5"/>
<text text-anchor="start" x="181" y="-85.5" font-family="Helvetica,sans-Serif" font-size="10.00">src/app/seamly2d/dialogs</text>
<text text-anchor="middle" x="243.5" y="-74.5" font-family="Helvetica,sans-Serif" font-size="10.00">/dialogvariables.cpp</text>
</a>
</g>
</g>
<!-- Node3&#45;&gt;Node6 -->
<g id="edge5" class="edge">
<title>Node3&#45;&gt;Node6</title>
<path fill="none" stroke="midnightblue" d="M243.5,-124.11C243.5,-115.15 243.5,-105.32 243.5,-97.58"/>
<polygon fill="midnightblue" stroke="midnightblue" points="240,-124.4 243.5,-134.4 247,-124.4 240,-124.4"/>
</g>
<!-- Node5 -->
<g id="node5" class="node">
<title>Node5</title>
<g id="a_node5"><a xlink:href="../../d8/dd9/mainwindow_8cpp.html" target="_top" xlink:title=" ">
<polygon fill="white" stroke="black" points="437.5,-6 437.5,-25 625.5,-25 625.5,-6 437.5,-6"/>
<text text-anchor="middle" x="531.5" y="-13" font-family="Helvetica,sans-Serif" font-size="10.00">src/app/seamly2d/mainwindow.cpp</text>
</a>
</g>
</g>
<!-- Node4&#45;&gt;Node5 -->
<g id="edge4" class="edge">
<title>Node4&#45;&gt;Node5</title>
<path fill="none" stroke="midnightblue" d="M476.72,-61.01C491.57,-48.94 509.59,-34.3 520.8,-25.19"/>
<polygon fill="midnightblue" stroke="midnightblue" points="474.41,-58.37 468.86,-67.4 478.83,-63.81 474.41,-58.37"/>
</g>
<!-- Node8&#45;&gt;Node4 -->
<g id="edge8" class="edge">
<title>Node8&#45;&gt;Node4</title>
<path fill="none" stroke="midnightblue" d="M529,-129.3C511.79,-119.12 491.02,-106.85 475.32,-97.58"/>
<polygon fill="midnightblue" stroke="midnightblue" points="527.24,-132.32 537.63,-134.4 530.8,-126.3 527.24,-132.32"/>
</g>
<!-- Node8&#45;&gt;Node9 -->
<g id="edge9" class="edge">
<title>Node8&#45;&gt;Node9</title>
<path fill="none" stroke="midnightblue" d="M578.34,-126.16C585.49,-116.68 593.6,-105.92 599.89,-97.58"/>
<polygon fill="midnightblue" stroke="midnightblue" points="575.36,-124.3 572.13,-134.4 580.95,-128.52 575.36,-124.3"/>
</g>
<!-- Node12 -->
<g id="node12" class="node">
<title>Node12</title>
<g id="a_node12"><a xlink:href="../../d9/d53/mainwindow_8h.html" target="_top" xlink:title=" ">
<polygon fill="white" stroke="black" points="699.5,-73 699.5,-92 875.5,-92 875.5,-73 699.5,-73"/>
<text text-anchor="middle" x="787.5" y="-80" font-family="Helvetica,sans-Serif" font-size="10.00">src/app/seamly2d/mainwindow.h</text>
</a>
</g>
</g>
<!-- Node11&#45;&gt;Node12 -->
<g id="edge13" class="edge">
<title>Node11&#45;&gt;Node12</title>
<path fill="none" stroke="midnightblue" d="M907.34,-135.78C877.84,-122.91 833.01,-103.35 807.37,-92.17"/>
<polygon fill="midnightblue" stroke="midnightblue" points="906.15,-139.08 916.71,-139.87 908.95,-132.66 906.15,-139.08"/>
</g>
<!-- Node15 -->
<g id="node15" class="node">
<title>Node15</title>
<g id="a_node15"><a xlink:href="../../d8/de8/mainwindowsnogui_8cpp.html" target="_top" xlink:title=" ">
<polygon fill="white" stroke="black" points="893,-73 893,-92 1114,-92 1114,-73 893,-73"/>
<text text-anchor="middle" x="1003.5" y="-80" font-family="Helvetica,sans-Serif" font-size="10.00">src/app/seamly2d/mainwindowsnogui.cpp</text>
</a>
</g>
</g>
<!-- Node11&#45;&gt;Node15 -->
<g id="edge17" class="edge">
<title>Node11&#45;&gt;Node15</title>
<path fill="none" stroke="midnightblue" d="M953,-132.5C966.14,-119.75 984.02,-102.39 994.61,-92.13"/>
<polygon fill="midnightblue" stroke="midnightblue" points="950.28,-130.26 945.54,-139.73 955.15,-135.28 950.28,-130.26"/>
</g>
<!-- Node12&#45;&gt;Node5 -->
<g id="edge16" class="edge">
<title>Node12&#45;&gt;Node5</title>
<path fill="none" stroke="midnightblue" d="M743.8,-70.4C693.27,-57.58 611.2,-36.74 565.31,-25.08"/>
<polygon fill="midnightblue" stroke="midnightblue" points="743.22,-73.87 753.77,-72.94 744.94,-67.08 743.22,-73.87"/>
</g>
<!-- Node13 -->
<g id="node13" class="node">
<title>Node13</title>
<g id="a_node13"><a xlink:href="../../d3/dd8/vapplication_8cpp.html" target="_top" xlink:title=" ">
<polygon fill="white" stroke="black" points="645,-0.5 645,-30.5 772,-30.5 772,-0.5 645,-0.5"/>
<text text-anchor="start" x="653" y="-18.5" font-family="Helvetica,sans-Serif" font-size="10.00">src/app/seamly2d/core</text>
<text text-anchor="middle" x="708.5" y="-7.5" font-family="Helvetica,sans-Serif" font-size="10.00">/vapplication.cpp</text>
</a>
</g>
</g>
<!-- Node12&#45;&gt;Node13 -->
<g id="edge14" class="edge">
<title>Node12&#45;&gt;Node13</title>
<path fill="none" stroke="midnightblue" d="M768.95,-66.24C755.84,-55.45 738.4,-41.1 725.62,-30.59"/>
<polygon fill="midnightblue" stroke="midnightblue" points="766.9,-69.08 776.85,-72.73 771.35,-63.68 766.9,-69.08"/>
</g>
<!-- Node14 -->
<g id="node14" class="node">
<title>Node14</title>
<g id="a_node14"><a xlink:href="../../dc/d14/app_2seamly2d_2main_8cpp.html" target="_top" xlink:title=" ">
<polygon fill="white" stroke="black" points="790,-6 790,-25 941,-25 941,-6 790,-6"/>
<text text-anchor="middle" x="865.5" y="-13" font-family="Helvetica,sans-Serif" font-size="10.00">src/app/seamly2d/main.cpp</text>
</a>
</g>
</g>
<!-- Node12&#45;&gt;Node14 -->
<g id="edge15" class="edge">
<title>Node12&#45;&gt;Node14</title>
<path fill="none" stroke="midnightblue" d="M805.84,-66.21C821.21,-53.41 842.59,-35.59 855.15,-25.13"/>
<polygon fill="midnightblue" stroke="midnightblue" points="803.46,-63.64 798.02,-72.73 807.94,-69.02 803.46,-63.64"/>
</g>
</g>
</svg>
