<?xml version="1.0" encoding="UTF-8" standalone="no"?>
<!DOCTYPE svg PUBLIC "-//W3C//DTD SVG 1.1//EN"
 "http://www.w3.org/Graphics/SVG/1.1/DTD/svg11.dtd">
<!-- Generated by graphviz version 2.43.0 (0)
 -->
<!-- Title: src/libs/vpatterndb/vpiecepath.h Pages: 1 -->
<svg width="5885pt" height="318pt"
 viewBox="0.00 0.00 5884.50 318.00" xmlns="http://www.w3.org/2000/svg" xmlns:xlink="http://www.w3.org/1999/xlink">
<g id="graph0" class="graph" transform="scale(1 1) rotate(0) translate(4 314)">
<title>src/libs/vpatterndb/vpiecepath.h</title>
<polygon fill="white" stroke="transparent" points="-4,4 -4,-314 5880.5,-314 5880.5,4 -4,4"/>
<!-- Node1 -->
<g id="node1" class="node">
<title>Node1</title>
<g id="a_node1"><a xlink:title=" ">
<polygon fill="#bfbfbf" stroke="black" points="1497.5,-279.5 1497.5,-309.5 1604.5,-309.5 1604.5,-279.5 1497.5,-279.5"/>
<text text-anchor="start" x="1505.5" y="-297.5" font-family="Helvetica,sans-Serif" font-size="10.00">src/libs/vpatterndb</text>
<text text-anchor="middle" x="1551" y="-286.5" font-family="Helvetica,sans-Serif" font-size="10.00">/vpiecepath.h</text>
</a>
</g>
</g>
<!-- Node2 -->
<g id="node2" class="node">
<title>Node2</title>
<g id="a_node2"><a xlink:href="../../d6/d91/vnodedetail_8cpp.html" target="_top" xlink:title=" ">
<polygon fill="white" stroke="black" points="449.5,-140 449.5,-170 556.5,-170 556.5,-140 449.5,-140"/>
<text text-anchor="start" x="457.5" y="-158" font-family="Helvetica,sans-Serif" font-size="10.00">src/libs/vpatterndb</text>
<text text-anchor="middle" x="503" y="-147" font-family="Helvetica,sans-Serif" font-size="10.00">/vnodedetail.cpp</text>
</a>
</g>
</g>
<!-- Node1&#45;&gt;Node2 -->
<g id="edge1" class="edge">
<title>Node1&#45;&gt;Node2</title>
<path fill="none" stroke="midnightblue" d="M1486.96,-289.53C1329.66,-278.98 912.29,-246.14 571,-176 563.17,-174.39 554.93,-172.31 546.99,-170.1"/>
<polygon fill="midnightblue" stroke="midnightblue" points="1487.17,-293.05 1497.38,-290.22 1487.64,-286.07 1487.17,-293.05"/>
</g>
<!-- Node3 -->
<g id="node3" class="node">
<title>Node3</title>
<g id="a_node3"><a xlink:href="../../d8/da5/vpiece__p_8h.html" target="_top" xlink:title=" ">
<polygon fill="white" stroke="black" points="3423.5,-212.5 3423.5,-242.5 3530.5,-242.5 3530.5,-212.5 3423.5,-212.5"/>
<text text-anchor="start" x="3431.5" y="-230.5" font-family="Helvetica,sans-Serif" font-size="10.00">src/libs/vpatterndb</text>
<text text-anchor="middle" x="3477" y="-219.5" font-family="Helvetica,sans-Serif" font-size="10.00">/vpiece_p.h</text>
</a>
</g>
</g>
<!-- Node1&#45;&gt;Node3 -->
<g id="edge2" class="edge">
<title>Node1&#45;&gt;Node3</title>
<path fill="none" stroke="midnightblue" d="M1614.65,-291.35C1910.62,-281.36 3149.47,-239.55 3423.28,-230.31"/>
<polygon fill="midnightblue" stroke="midnightblue" points="1614.4,-287.86 1604.52,-291.69 1614.63,-294.85 1614.4,-287.86"/>
</g>
<!-- Node5 -->
<g id="node5" class="node">
<title>Node5</title>
<g id="a_node5"><a xlink:href="../../da/de1/vpiecepath_8cpp.html" target="_top" xlink:title=" ">
<polygon fill="white" stroke="black" points="3910.5,-140 3910.5,-170 4017.5,-170 4017.5,-140 3910.5,-140"/>
<text text-anchor="start" x="3918.5" y="-158" font-family="Helvetica,sans-Serif" font-size="10.00">src/libs/vpatterndb</text>
<text text-anchor="middle" x="3964" y="-147" font-family="Helvetica,sans-Serif" font-size="10.00">/vpiecepath.cpp</text>
</a>
</g>
</g>
<!-- Node1&#45;&gt;Node5 -->
<g id="edge4" class="edge">
<title>Node1&#45;&gt;Node5</title>
<path fill="none" stroke="midnightblue" d="M1614.6,-290.74C1978.1,-274.9 3780.41,-195.61 3896,-176 3904.49,-174.56 3913.42,-172.41 3921.92,-170.05"/>
<polygon fill="midnightblue" stroke="midnightblue" points="1614.36,-287.24 1604.52,-291.18 1614.66,-294.24 1614.36,-287.24"/>
</g>
<!-- Node6 -->
<g id="node6" class="node">
<title>Node6</title>
<g id="a_node6"><a xlink:href="../../d3/df7/vcontainer_8h.html" target="_top" xlink:title=" ">
<polygon fill="white" stroke="black" points="1456.5,-212.5 1456.5,-242.5 1563.5,-242.5 1563.5,-212.5 1456.5,-212.5"/>
<text text-anchor="start" x="1464.5" y="-230.5" font-family="Helvetica,sans-Serif" font-size="10.00">src/libs/vpatterndb</text>
<text text-anchor="middle" x="1510" y="-219.5" font-family="Helvetica,sans-Serif" font-size="10.00">/vcontainer.h</text>
</a>
</g>
</g>
<!-- Node1&#45;&gt;Node6 -->
<g id="edge5" class="edge">
<title>Node1&#45;&gt;Node6</title>
<path fill="none" stroke="midnightblue" d="M1536.72,-270.87C1530.79,-261.46 1524.09,-250.83 1518.88,-242.58"/>
<polygon fill="midnightblue" stroke="midnightblue" points="1533.81,-272.81 1542.1,-279.4 1539.73,-269.07 1533.81,-272.81"/>
</g>
<!-- Node4 -->
<g id="node4" class="node">
<title>Node4</title>
<g id="a_node4"><a xlink:href="../../df/d7a/vpiece_8cpp.html" target="_top" xlink:title=" ">
<polygon fill="white" stroke="black" points="5769.5,-67.5 5769.5,-97.5 5876.5,-97.5 5876.5,-67.5 5769.5,-67.5"/>
<text text-anchor="start" x="5777.5" y="-85.5" font-family="Helvetica,sans-Serif" font-size="10.00">src/libs/vpatterndb</text>
<text text-anchor="middle" x="5823" y="-74.5" font-family="Helvetica,sans-Serif" font-size="10.00">/vpiece.cpp</text>
</a>
</g>
</g>
<!-- Node3&#45;&gt;Node4 -->
<g id="edge3" class="edge">
<title>Node3&#45;&gt;Node4</title>
<path fill="none" stroke="midnightblue" d="M3540.91,-226.95C3811.4,-228 4888.23,-223.64 5761,-98 5763.74,-97.61 5766.53,-97.15 5769.34,-96.65"/>
<polygon fill="midnightblue" stroke="midnightblue" points="3540.89,-223.45 3530.88,-226.91 3540.86,-230.45 3540.89,-223.45"/>
</g>
<!-- Node6&#45;&gt;Node2 -->
<g id="edge57" class="edge">
<title>Node6&#45;&gt;Node2</title>
<path fill="none" stroke="midnightblue" d="M1446.11,-225C1263.21,-220.39 739.89,-204.97 571,-176 562.51,-174.54 553.58,-172.39 545.08,-170.03"/>
<polygon fill="midnightblue" stroke="midnightblue" points="1446.29,-228.5 1456.37,-225.25 1446.46,-221.5 1446.29,-228.5"/>
</g>
<!-- Node6&#45;&gt;Node4 -->
<g id="edge59" class="edge">
<title>Node6&#45;&gt;Node4</title>
<path fill="none" stroke="midnightblue" d="M1573.59,-225.8C1943.82,-221.61 3807.04,-199.42 3861,-176 3884.93,-165.61 3878.06,-144.36 3902,-134 3996.8,-92.98 5658.5,-110.83 5761,-98 5763.74,-97.66 5766.54,-97.24 5769.36,-96.77"/>
<polygon fill="midnightblue" stroke="midnightblue" points="1573.54,-222.3 1563.58,-225.91 1573.62,-229.29 1573.54,-222.3"/>
</g>
<!-- Node6&#45;&gt;Node5 -->
<g id="edge60" class="edge">
<title>Node6&#45;&gt;Node5</title>
<path fill="none" stroke="midnightblue" d="M1573.81,-225.63C1941.57,-220.53 3778.14,-194.25 3896,-176 3904.76,-174.64 3913.97,-172.47 3922.68,-170.04"/>
<polygon fill="midnightblue" stroke="midnightblue" points="1573.57,-222.13 1563.62,-225.77 1573.67,-229.13 1573.57,-222.13"/>
</g>
<!-- Node7 -->
<g id="node7" class="node">
<title>Node7</title>
<g id="a_node7"><a xlink:href="../../dc/db7/measurements_8h.html" target="_top" xlink:title=" ">
<polygon fill="white" stroke="black" points="613.5,-145.5 613.5,-164.5 792.5,-164.5 792.5,-145.5 613.5,-145.5"/>
<text text-anchor="middle" x="703" y="-152.5" font-family="Helvetica,sans-Serif" font-size="10.00">src/libs/vformat/measurements.h</text>
</a>
</g>
</g>
<!-- Node6&#45;&gt;Node7 -->
<g id="edge6" class="edge">
<title>Node6&#45;&gt;Node7</title>
<path fill="none" stroke="midnightblue" d="M1446.37,-224.69C1322.03,-220.56 1038.34,-208.17 802,-176 781.15,-173.16 758.09,-168.59 739.48,-164.53"/>
<polygon fill="midnightblue" stroke="midnightblue" points="1446.36,-228.2 1456.47,-225.02 1446.59,-221.2 1446.36,-228.2"/>
</g>
<!-- Node8 -->
<g id="node8" class="node">
<title>Node8</title>
<g id="a_node8"><a xlink:href="../../d9/de3/measurements_8cpp.html" target="_top" xlink:title=" ">
<polygon fill="white" stroke="black" points="0,-73 0,-92 190,-92 190,-73 0,-73"/>
<text text-anchor="middle" x="95" y="-80" font-family="Helvetica,sans-Serif" font-size="10.00">src/libs/vformat/measurements.cpp</text>
</a>
</g>
</g>
<!-- Node6&#45;&gt;Node8 -->
<g id="edge8" class="edge">
<title>Node6&#45;&gt;Node8</title>
<path fill="none" stroke="midnightblue" d="M1446.23,-225.69C1252.69,-222.84 680.56,-211.49 605,-176 581.94,-165.17 588.78,-145.4 566,-134 497.85,-99.91 300.75,-106.22 225,-98 207.39,-96.09 188.44,-94 170.61,-92.01"/>
<polygon fill="midnightblue" stroke="midnightblue" points="1446.2,-229.19 1456.25,-225.83 1446.31,-222.19 1446.2,-229.19"/>
</g>
<!-- Node9 -->
<g id="node9" class="node">
<title>Node9</title>
<g id="a_node9"><a xlink:href="../../d6/de0/vlayoutpiece_8h.html" target="_top" xlink:title=" ">
<polygon fill="white" stroke="black" points="811,-145.5 811,-164.5 977,-164.5 977,-145.5 811,-145.5"/>
<text text-anchor="middle" x="894" y="-152.5" font-family="Helvetica,sans-Serif" font-size="10.00">src/libs/vlayout/vlayoutpiece.h</text>
</a>
</g>
</g>
<!-- Node6&#45;&gt;Node9 -->
<g id="edge9" class="edge">
<title>Node6&#45;&gt;Node9</title>
<path fill="none" stroke="midnightblue" d="M1446.29,-222.49C1348.14,-215.82 1154.18,-200.69 991,-176 970.94,-172.96 948.76,-168.48 930.68,-164.52"/>
<polygon fill="midnightblue" stroke="midnightblue" points="1446.14,-225.99 1456.35,-223.17 1446.61,-219.01 1446.14,-225.99"/>
</g>
<!-- Node19 -->
<g id="node18" class="node">
<title>Node19</title>
<g id="a_node18"><a xlink:href="../../d8/d70/vtextmanager_8cpp.html" target="_top" xlink:title=" ">
<polygon fill="white" stroke="black" points="1692,-73 1692,-92 1874,-92 1874,-73 1692,-73"/>
<text text-anchor="middle" x="1783" y="-80" font-family="Helvetica,sans-Serif" font-size="10.00">src/libs/vlayout/vtextmanager.cpp</text>
</a>
</g>
</g>
<!-- Node6&#45;&gt;Node19 -->
<g id="edge20" class="edge">
<title>Node6&#45;&gt;Node19</title>
<path fill="none" stroke="midnightblue" d="M1573.78,-218.52C1611.94,-211.6 1660.2,-198.92 1698,-176 1734.93,-153.61 1765.58,-110.52 1777.57,-92.15"/>
<polygon fill="midnightblue" stroke="midnightblue" points="1573.07,-215.1 1563.81,-220.25 1574.26,-221.99 1573.07,-215.1"/>
</g>
<!-- Node20 -->
<g id="node19" class="node">
<title>Node20</title>
<g id="a_node19"><a xlink:href="../../d5/d74/vabstractapplication_8h.html" target="_top" xlink:title=" ">
<polygon fill="white" stroke="red" points="3621.5,-145.5 3621.5,-164.5 3816.5,-164.5 3816.5,-145.5 3621.5,-145.5"/>
<text text-anchor="middle" x="3719" y="-152.5" font-family="Helvetica,sans-Serif" font-size="10.00">src/libs/vmisc/vabstractapplication.h</text>
</a>
</g>
</g>
<!-- Node6&#45;&gt;Node20 -->
<g id="edge21" class="edge">
<title>Node6&#45;&gt;Node20</title>
<path fill="none" stroke="midnightblue" d="M1573.7,-224.47C1884.66,-214.54 3243.58,-171.17 3621.29,-159.12"/>
<polygon fill="midnightblue" stroke="midnightblue" points="1573.39,-220.97 1563.51,-224.79 1573.62,-227.97 1573.39,-220.97"/>
</g>
<!-- Node38 -->
<g id="node33" class="node">
<title>Node38</title>
<g id="a_node33"><a xlink:href="../../db/d11/vformula_8cpp.html" target="_top" xlink:title=" ">
<polygon fill="white" stroke="black" points="5644.5,-67.5 5644.5,-97.5 5751.5,-97.5 5751.5,-67.5 5644.5,-67.5"/>
<text text-anchor="start" x="5652.5" y="-85.5" font-family="Helvetica,sans-Serif" font-size="10.00">src/libs/vpatterndb</text>
<text text-anchor="middle" x="5698" y="-74.5" font-family="Helvetica,sans-Serif" font-size="10.00">/vformula.cpp</text>
</a>
</g>
</g>
<!-- Node6&#45;&gt;Node38 -->
<g id="edge55" class="edge">
<title>Node6&#45;&gt;Node38</title>
<path fill="none" stroke="midnightblue" d="M1573.79,-225.76C1941.2,-221.43 3772.77,-198.73 3826,-176 3850.28,-165.63 3843.71,-144.35 3868,-134 3958.38,-95.48 5538.52,-110.25 5636,-98 5638.74,-97.66 5641.54,-97.24 5644.36,-96.77"/>
<polygon fill="midnightblue" stroke="midnightblue" points="1573.56,-222.26 1563.61,-225.88 1573.65,-229.26 1573.56,-222.26"/>
</g>
<!-- Node39 -->
<g id="node34" class="node">
<title>Node39</title>
<g id="a_node34"><a xlink:href="../../d6/d46/vcontainer_8cpp.html" target="_top" xlink:title=" ">
<polygon fill="white" stroke="black" points="1528.5,-67.5 1528.5,-97.5 1635.5,-97.5 1635.5,-67.5 1528.5,-67.5"/>
<text text-anchor="start" x="1536.5" y="-85.5" font-family="Helvetica,sans-Serif" font-size="10.00">src/libs/vpatterndb</text>
<text text-anchor="middle" x="1582" y="-74.5" font-family="Helvetica,sans-Serif" font-size="10.00">/vcontainer.cpp</text>
</a>
</g>
</g>
<!-- Node6&#45;&gt;Node39 -->
<g id="edge56" class="edge">
<title>Node6&#45;&gt;Node39</title>
<path fill="none" stroke="midnightblue" d="M1446.06,-224.53C1320.56,-220.01 1051.76,-206.8 1024,-176 1011.5,-162.14 1011.29,-147.67 1024,-134 1061.63,-93.54 1465.37,-106.32 1520,-98 1522.73,-97.58 1525.52,-97.11 1528.33,-96.6"/>
<polygon fill="midnightblue" stroke="midnightblue" points="1446.18,-228.04 1456.29,-224.89 1446.42,-221.04 1446.18,-228.04"/>
</g>
<!-- Node41 -->
<g id="node36" class="node">
<title>Node41</title>
<g id="a_node36"><a xlink:href="../../d8/dba/vpiecenode_8cpp.html" target="_top" xlink:title=" ">
<polygon fill="white" stroke="black" points="2860.5,-0.5 2860.5,-30.5 2967.5,-30.5 2967.5,-0.5 2860.5,-0.5"/>
<text text-anchor="start" x="2868.5" y="-18.5" font-family="Helvetica,sans-Serif" font-size="10.00">src/libs/vpatterndb</text>
<text text-anchor="middle" x="2914" y="-7.5" font-family="Helvetica,sans-Serif" font-size="10.00">/vpiecenode.cpp</text>
</a>
</g>
</g>
<!-- Node6&#45;&gt;Node41 -->
<g id="edge58" class="edge">
<title>Node6&#45;&gt;Node41</title>
<path fill="none" stroke="midnightblue" d="M1573.89,-221.11C1605.82,-215.04 1642.37,-202.34 1665,-176 1697,-138.76 1646.22,-99.53 1683,-67 1727.66,-27.5 2628.6,-18.5 2860.13,-16.83"/>
<polygon fill="midnightblue" stroke="midnightblue" points="1572.97,-217.72 1563.71,-222.86 1574.16,-224.62 1572.97,-217.72"/>
</g>
<!-- Node58 -->
<g id="node47" class="node">
<title>Node58</title>
<g id="a_node47"><a xlink:href="../../d7/d8a/measurement__variable__p_8h.html" target="_top" xlink:title=" ">
<polygon fill="white" stroke="red" points="1033,-134.5 1033,-175.5 1169,-175.5 1169,-134.5 1033,-134.5"/>
<text text-anchor="start" x="1041" y="-163.5" font-family="Helvetica,sans-Serif" font-size="10.00">src/libs/vpatterndb</text>
<text text-anchor="start" x="1041" y="-152.5" font-family="Helvetica,sans-Serif" font-size="10.00">/variables/measurement</text>
<text text-anchor="middle" x="1101" y="-141.5" font-family="Helvetica,sans-Serif" font-size="10.00">_variable_p.h</text>
</a>
</g>
</g>
<!-- Node6&#45;&gt;Node58 -->
<g id="edge53" class="edge">
<title>Node6&#45;&gt;Node58</title>
<path fill="none" stroke="midnightblue" d="M1446.43,-218.71C1379.54,-210.08 1271.37,-194.84 1179,-176 1175.85,-175.36 1172.64,-174.67 1169.39,-173.95"/>
<polygon fill="midnightblue" stroke="midnightblue" points="1446.03,-222.19 1456.4,-219.99 1446.92,-215.25 1446.03,-222.19"/>
</g>
<!-- Node60 -->
<g id="node48" class="node">
<title>Node60</title>
<g id="a_node48"><a xlink:href="../../d1/de1/vincrement__p_8h.html" target="_top" xlink:title=" ">
<polygon fill="white" stroke="red" points="1187.5,-140 1187.5,-170 1330.5,-170 1330.5,-140 1187.5,-140"/>
<text text-anchor="start" x="1195.5" y="-158" font-family="Helvetica,sans-Serif" font-size="10.00">src/libs/vpatterndb</text>
<text text-anchor="middle" x="1259" y="-147" font-family="Helvetica,sans-Serif" font-size="10.00">/variables/vincrement_p.h</text>
</a>
</g>
</g>
<!-- Node6&#45;&gt;Node60 -->
<g id="edge54" class="edge">
<title>Node6&#45;&gt;Node60</title>
<path fill="none" stroke="midnightblue" d="M1450.33,-209.74C1407.32,-197.66 1349.9,-181.53 1309.22,-170.11"/>
<polygon fill="midnightblue" stroke="midnightblue" points="1449.54,-213.15 1460.11,-212.49 1451.43,-206.41 1449.54,-213.15"/>
</g>
<!-- Node62 -->
<g id="node49" class="node">
<title>Node62</title>
<g id="a_node49"><a xlink:href="../../d1/d3a/abstracttest_8cpp.html" target="_top" xlink:title=" ">
<polygon fill="white" stroke="black" points="1348.5,-145.5 1348.5,-164.5 1509.5,-164.5 1509.5,-145.5 1348.5,-145.5"/>
<text text-anchor="middle" x="1429" y="-152.5" font-family="Helvetica,sans-Serif" font-size="10.00">src/libs/vtest/abstracttest.cpp</text>
</a>
</g>
</g>
<!-- Node6&#45;&gt;Node62 -->
<g id="edge61" class="edge">
<title>Node6&#45;&gt;Node62</title>
<path fill="none" stroke="midnightblue" d="M1485.88,-205.51C1470.32,-191.96 1450.87,-175.03 1439.22,-164.89"/>
<polygon fill="midnightblue" stroke="midnightblue" points="1483.77,-208.31 1493.61,-212.23 1488.36,-203.03 1483.77,-208.31"/>
</g>
<!-- Node63 -->
<g id="node50" class="node">
<title>Node63</title>
<g id="a_node50"><a xlink:href="../../da/db4/piece__tablewidgetitem_8cpp.html" target="_top" xlink:title=" ">
<polygon fill="white" stroke="black" points="1528,-140 1528,-170 1656,-170 1656,-140 1528,-140"/>
<text text-anchor="start" x="1536" y="-158" font-family="Helvetica,sans-Serif" font-size="10.00">src/libs/vwidgets/piece</text>
<text text-anchor="middle" x="1592" y="-147" font-family="Helvetica,sans-Serif" font-size="10.00">_tablewidgetitem.cpp</text>
</a>
</g>
</g>
<!-- Node6&#45;&gt;Node63 -->
<g id="edge62" class="edge">
<title>Node6&#45;&gt;Node63</title>
<path fill="none" stroke="midnightblue" d="M1534.47,-205.46C1547.8,-194 1563.93,-180.14 1575.71,-170"/>
<polygon fill="midnightblue" stroke="midnightblue" points="1531.89,-203.06 1526.59,-212.23 1536.46,-208.37 1531.89,-203.06"/>
</g>
<!-- Node7&#45;&gt;Node8 -->
<g id="edge7" class="edge">
<title>Node7&#45;&gt;Node8</title>
<path fill="none" stroke="midnightblue" d="M653.78,-143.5C636.52,-140.09 616.96,-136.54 599,-134 424.45,-109.32 379.19,-117.63 204,-98 188.35,-96.25 171.46,-94.12 155.77,-92.04"/>
<polygon fill="midnightblue" stroke="midnightblue" points="653.15,-146.94 663.65,-145.48 654.53,-140.08 653.15,-146.94"/>
</g>
<!-- Node10 -->
<g id="node10" class="node">
<title>Node10</title>
<g id="a_node10"><a xlink:href="../../dd/d66/vdxfengine_8cpp.html" target="_top" xlink:title=" ">
<polygon fill="white" stroke="black" points="246,-73 246,-92 400,-92 400,-73 246,-73"/>
<text text-anchor="middle" x="323" y="-80" font-family="Helvetica,sans-Serif" font-size="10.00">src/libs/vdxf/vdxfengine.cpp</text>
</a>
</g>
</g>
<!-- Node9&#45;&gt;Node10 -->
<g id="edge10" class="edge">
<title>Node9&#45;&gt;Node10</title>
<path fill="none" stroke="midnightblue" d="M849.6,-143.2C834.56,-139.84 817.62,-136.4 802,-134 628.64,-107.32 582.94,-120.6 409,-98 396.24,-96.34 382.47,-94.19 369.77,-92.05"/>
<polygon fill="midnightblue" stroke="midnightblue" points="849.15,-146.68 859.67,-145.49 850.7,-139.86 849.15,-146.68"/>
</g>
<!-- Node11 -->
<g id="node11" class="node">
<title>Node11</title>
<g id="a_node11"><a xlink:href="../../df/d5d/vcontour_8cpp.html" target="_top" xlink:title=" ">
<polygon fill="white" stroke="black" points="418,-73 418,-92 574,-92 574,-73 418,-73"/>
<text text-anchor="middle" x="496" y="-80" font-family="Helvetica,sans-Serif" font-size="10.00">src/libs/vlayout/vcontour.cpp</text>
</a>
</g>
</g>
<!-- Node9&#45;&gt;Node11 -->
<g id="edge11" class="edge">
<title>Node9&#45;&gt;Node11</title>
<path fill="none" stroke="midnightblue" d="M846.79,-143.25C832.43,-140.11 816.6,-136.78 802,-134 705.11,-115.52 680.32,-114.11 583,-98 571.37,-96.07 558.86,-94 547.06,-92.03"/>
<polygon fill="midnightblue" stroke="midnightblue" points="846.42,-146.75 856.93,-145.49 847.92,-139.92 846.42,-146.75"/>
</g>
<!-- Node12 -->
<g id="node12" class="node">
<title>Node12</title>
<g id="a_node12"><a xlink:href="../../de/da8/vbank_8cpp.html" target="_top" xlink:title=" ">
<polygon fill="white" stroke="black" points="592,-73 592,-92 736,-92 736,-73 592,-73"/>
<text text-anchor="middle" x="664" y="-80" font-family="Helvetica,sans-Serif" font-size="10.00">src/libs/vlayout/vbank.cpp</text>
</a>
</g>
</g>
<!-- Node9&#45;&gt;Node12 -->
<g id="edge12" class="edge">
<title>Node9&#45;&gt;Node12</title>
<path fill="none" stroke="midnightblue" d="M856.63,-142.55C810.49,-128.4 733.08,-104.68 691.84,-92.03"/>
<polygon fill="midnightblue" stroke="midnightblue" points="855.67,-145.91 866.26,-145.5 857.72,-139.22 855.67,-145.91"/>
</g>
<!-- Node13 -->
<g id="node13" class="node">
<title>Node13</title>
<g id="a_node13"><a xlink:href="../../d2/d2d/vlayoutpaper__p_8h.html" target="_top" xlink:title=" ">
<polygon fill="white" stroke="black" points="754.5,-73 754.5,-92 933.5,-92 933.5,-73 754.5,-73"/>
<text text-anchor="middle" x="844" y="-80" font-family="Helvetica,sans-Serif" font-size="10.00">src/libs/vlayout/vlayoutpaper_p.h</text>
</a>
</g>
</g>
<!-- Node9&#45;&gt;Node13 -->
<g id="edge13" class="edge">
<title>Node9&#45;&gt;Node13</title>
<path fill="none" stroke="midnightblue" d="M881.94,-137C871.92,-122.87 858.08,-103.35 850.18,-92.22"/>
<polygon fill="midnightblue" stroke="midnightblue" points="879.23,-139.22 887.87,-145.36 884.94,-135.17 879.23,-139.22"/>
</g>
<!-- Node14 -->
<g id="node14" class="node">
<title>Node14</title>
<g id="a_node14"><a xlink:href="../../d1/dd1/vlayoutpaper_8cpp.html" target="_top" xlink:title=" ">
<polygon fill="white" stroke="black" points="755,-6 755,-25 933,-25 933,-6 755,-6"/>
<text text-anchor="middle" x="844" y="-13" font-family="Helvetica,sans-Serif" font-size="10.00">src/libs/vlayout/vlayoutpaper.cpp</text>
</a>
</g>
</g>
<!-- Node9&#45;&gt;Node14 -->
<g id="edge16" class="edge">
<title>Node9&#45;&gt;Node14</title>
<path fill="none" stroke="midnightblue" d="M850.4,-143.11C835.17,-139.69 817.91,-136.22 802,-134 739.7,-125.29 280.04,-143.87 237,-98 227.57,-87.95 227.67,-77.14 237,-67 271.33,-29.7 594.78,-19.94 754.98,-17.4"/>
<polygon fill="midnightblue" stroke="midnightblue" points="850.04,-146.62 860.57,-145.46 851.62,-139.8 850.04,-146.62"/>
</g>
<!-- Node15 -->
<g id="node15" class="node">
<title>Node15</title>
<g id="a_node15"><a xlink:href="../../d3/d39/vlayoutgenerator_8cpp.html" target="_top" xlink:title=" ">
<polygon fill="white" stroke="black" points="1118.5,-73 1118.5,-92 1315.5,-92 1315.5,-73 1118.5,-73"/>
<text text-anchor="middle" x="1217" y="-80" font-family="Helvetica,sans-Serif" font-size="10.00">src/libs/vlayout/vlayoutgenerator.cpp</text>
</a>
</g>
</g>
<!-- Node9&#45;&gt;Node15 -->
<g id="edge15" class="edge">
<title>Node9&#45;&gt;Node15</title>
<path fill="none" stroke="midnightblue" d="M942.86,-143.34C1007.15,-129.3 1118.89,-104.91 1177.9,-92.03"/>
<polygon fill="midnightblue" stroke="midnightblue" points="941.98,-139.94 932.96,-145.5 943.48,-146.78 941.98,-139.94"/>
</g>
<!-- Node16 -->
<g id="node16" class="node">
<title>Node16</title>
<g id="a_node16"><a xlink:href="../../db/d5c/vposition_8h.html" target="_top" xlink:title=" ">
<polygon fill="white" stroke="red" points="952,-73 952,-92 1100,-92 1100,-73 952,-73"/>
<text text-anchor="middle" x="1026" y="-80" font-family="Helvetica,sans-Serif" font-size="10.00">src/libs/vlayout/vposition.h</text>
</a>
</g>
</g>
<!-- Node9&#45;&gt;Node16 -->
<g id="edge17" class="edge">
<title>Node9&#45;&gt;Node16</title>
<path fill="none" stroke="midnightblue" d="M919.04,-140.62C945.8,-126.34 987.39,-104.12 1010.02,-92.03"/>
<polygon fill="midnightblue" stroke="midnightblue" points="917.09,-137.7 909.92,-145.5 920.39,-143.87 917.09,-137.7"/>
</g>
<!-- Node18 -->
<g id="node17" class="node">
<title>Node18</title>
<g id="a_node17"><a xlink:href="../../dd/d70/vlayoutpiece_8cpp.html" target="_top" xlink:title=" ">
<polygon fill="white" stroke="black" points="1333.5,-73 1333.5,-92 1510.5,-92 1510.5,-73 1333.5,-73"/>
<text text-anchor="middle" x="1422" y="-80" font-family="Helvetica,sans-Serif" font-size="10.00">src/libs/vlayout/vlayoutpiece.cpp</text>
</a>
</g>
</g>
<!-- Node9&#45;&gt;Node18 -->
<g id="edge19" class="edge">
<title>Node9&#45;&gt;Node18</title>
<path fill="none" stroke="midnightblue" d="M941.21,-143.32C956.98,-140 974.7,-136.55 991,-134 1138.51,-110.9 1176.91,-117.04 1325,-98 1338.85,-96.22 1353.78,-94.09 1367.67,-92.02"/>
<polygon fill="midnightblue" stroke="midnightblue" points="940.21,-139.95 931.16,-145.47 941.67,-146.8 940.21,-139.95"/>
</g>
<!-- Node13&#45;&gt;Node14 -->
<g id="edge14" class="edge">
<title>Node13&#45;&gt;Node14</title>
<path fill="none" stroke="midnightblue" d="M844,-62.54C844,-50.17 844,-34.62 844,-25.13"/>
<polygon fill="midnightblue" stroke="midnightblue" points="840.5,-62.73 844,-72.73 847.5,-62.73 840.5,-62.73"/>
</g>
<!-- Node16&#45;&gt;Node14 -->
<g id="edge18" class="edge">
<title>Node16&#45;&gt;Node14</title>
<path fill="none" stroke="midnightblue" d="M992.22,-69.44C956.12,-56.54 899.79,-36.42 867.98,-25.06"/>
<polygon fill="midnightblue" stroke="midnightblue" points="991.24,-72.8 1001.83,-72.87 993.59,-66.21 991.24,-72.8"/>
</g>
<!-- Node20&#45;&gt;Node4 -->
<g id="edge40" class="edge">
<title>Node20&#45;&gt;Node4</title>
<path fill="none" stroke="midnightblue" d="M3781.21,-144.03C3807.86,-140.18 3839.39,-136.19 3868,-134 4287.52,-101.96 5343.51,-150.2 5761,-98 5763.74,-97.66 5766.54,-97.24 5769.36,-96.77"/>
<polygon fill="midnightblue" stroke="midnightblue" points="3780.64,-140.58 3771.25,-145.5 3781.65,-147.51 3780.64,-140.58"/>
</g>
<!-- Node20&#45;&gt;Node18 -->
<g id="edge32" class="edge">
<title>Node20&#45;&gt;Node18</title>
<path fill="none" stroke="midnightblue" d="M3610.96,-152.99C3227.54,-149.12 1933.09,-133.69 1520,-98 1504.15,-96.63 1486.96,-94.36 1471.47,-92.01"/>
<polygon fill="midnightblue" stroke="midnightblue" points="3611.18,-156.49 3621.21,-153.09 3611.25,-149.49 3611.18,-156.49"/>
</g>
<!-- Node20&#45;&gt;Node19 -->
<g id="edge33" class="edge">
<title>Node20&#45;&gt;Node19</title>
<path fill="none" stroke="midnightblue" d="M3611.28,-152.32C3271.05,-146.77 2221.88,-127.64 1883,-98 1867.01,-96.6 1849.67,-94.35 1834,-92.03"/>
<polygon fill="midnightblue" stroke="midnightblue" points="3611.33,-155.82 3621.39,-152.49 3611.44,-148.82 3611.33,-155.82"/>
</g>
<!-- Node21 -->
<g id="node20" class="node">
<title>Node21</title>
<g id="a_node20"><a xlink:href="../../d4/d90/fvupdater_8cpp.html" target="_top" xlink:title=" ">
<polygon fill="white" stroke="black" points="3411.5,-73 3411.5,-92 3564.5,-92 3564.5,-73 3411.5,-73"/>
<text text-anchor="middle" x="3488" y="-80" font-family="Helvetica,sans-Serif" font-size="10.00">src/libs/fervor/fvupdater.cpp</text>
</a>
</g>
</g>
<!-- Node20&#45;&gt;Node21 -->
<g id="edge22" class="edge">
<title>Node20&#45;&gt;Node21</title>
<path fill="none" stroke="midnightblue" d="M3681.47,-142.55C3635.13,-128.4 3557.38,-104.68 3515.96,-92.03"/>
<polygon fill="midnightblue" stroke="midnightblue" points="3680.55,-145.92 3691.14,-145.5 3682.59,-139.23 3680.55,-145.92"/>
</g>
<!-- Node22 -->
<g id="node21" class="node">
<title>Node22</title>
<g id="a_node21"><a xlink:href="../../d9/dc8/dxiface_8cpp.html" target="_top" xlink:title=" ">
<polygon fill="white" stroke="black" points="3582.5,-73 3582.5,-92 3717.5,-92 3717.5,-73 3582.5,-73"/>
<text text-anchor="middle" x="3650" y="-80" font-family="Helvetica,sans-Serif" font-size="10.00">src/libs/vdxf/dxiface.cpp</text>
</a>
</g>
</g>
<!-- Node20&#45;&gt;Node22 -->
<g id="edge23" class="edge">
<title>Node20&#45;&gt;Node22</title>
<path fill="none" stroke="midnightblue" d="M3703.53,-138.19C3689.63,-123.99 3669.74,-103.67 3658.53,-92.22"/>
<polygon fill="midnightblue" stroke="midnightblue" points="3701.04,-140.66 3710.54,-145.36 3706.05,-135.76 3701.04,-140.66"/>
</g>
<!-- Node23 -->
<g id="node22" class="node">
<title>Node23</title>
<g id="a_node22"><a xlink:href="../../da/d75/vabstractarc__p_8h.html" target="_top" xlink:title=" ">
<polygon fill="white" stroke="red" points="3735.5,-67.5 3735.5,-97.5 3842.5,-97.5 3842.5,-67.5 3735.5,-67.5"/>
<text text-anchor="start" x="3743.5" y="-85.5" font-family="Helvetica,sans-Serif" font-size="10.00">src/libs/vgeometry</text>
<text text-anchor="middle" x="3789" y="-74.5" font-family="Helvetica,sans-Serif" font-size="10.00">/vabstractarc_p.h</text>
</a>
</g>
</g>
<!-- Node20&#45;&gt;Node23 -->
<g id="edge24" class="edge">
<title>Node20&#45;&gt;Node23</title>
<path fill="none" stroke="midnightblue" d="M3734.79,-138.09C3746.89,-125.91 3763.41,-109.27 3775.02,-97.58"/>
<polygon fill="midnightblue" stroke="midnightblue" points="3732.15,-135.79 3727.58,-145.36 3737.11,-140.73 3732.15,-135.79"/>
</g>
<!-- Node25 -->
<g id="node23" class="node">
<title>Node25</title>
<g id="a_node23"><a xlink:href="../../dc/da3/varc__p_8h.html" target="_top" xlink:title=" ">
<polygon fill="white" stroke="red" points="3860.5,-67.5 3860.5,-97.5 3967.5,-97.5 3967.5,-67.5 3860.5,-67.5"/>
<text text-anchor="start" x="3868.5" y="-85.5" font-family="Helvetica,sans-Serif" font-size="10.00">src/libs/vgeometry</text>
<text text-anchor="middle" x="3914" y="-74.5" font-family="Helvetica,sans-Serif" font-size="10.00">/varc_p.h</text>
</a>
</g>
</g>
<!-- Node20&#45;&gt;Node25 -->
<g id="edge25" class="edge">
<title>Node20&#45;&gt;Node25</title>
<path fill="none" stroke="midnightblue" d="M3752.02,-142.06C3786.1,-129.74 3839.22,-110.54 3875.26,-97.51"/>
<polygon fill="midnightblue" stroke="midnightblue" points="3750.74,-138.8 3742.52,-145.5 3753.12,-145.39 3750.74,-138.8"/>
</g>
<!-- Node27 -->
<g id="node24" class="node">
<title>Node27</title>
<g id="a_node24"><a xlink:href="../../d5/d8e/vcubicbezier__p_8h.html" target="_top" xlink:title=" ">
<polygon fill="white" stroke="red" points="3985.5,-67.5 3985.5,-97.5 4092.5,-97.5 4092.5,-67.5 3985.5,-67.5"/>
<text text-anchor="start" x="3993.5" y="-85.5" font-family="Helvetica,sans-Serif" font-size="10.00">src/libs/vgeometry</text>
<text text-anchor="middle" x="4039" y="-74.5" font-family="Helvetica,sans-Serif" font-size="10.00">/vcubicbezier_p.h</text>
</a>
</g>
</g>
<!-- Node20&#45;&gt;Node27 -->
<g id="edge26" class="edge">
<title>Node20&#45;&gt;Node27</title>
<path fill="none" stroke="midnightblue" d="M3769.24,-143.34C3821.27,-132.25 3904.9,-114.25 3977,-98 3979.7,-97.39 3982.46,-96.76 3985.24,-96.13"/>
<polygon fill="midnightblue" stroke="midnightblue" points="3768.32,-139.96 3759.26,-145.47 3769.77,-146.81 3768.32,-139.96"/>
</g>
<!-- Node29 -->
<g id="node25" class="node">
<title>Node29</title>
<g id="a_node25"><a xlink:href="../../df/dde/vellipticalarc__p_8h.html" target="_top" xlink:title=" ">
<polygon fill="white" stroke="black" points="5239.5,-67.5 5239.5,-97.5 5346.5,-97.5 5346.5,-67.5 5239.5,-67.5"/>
<text text-anchor="start" x="5247.5" y="-85.5" font-family="Helvetica,sans-Serif" font-size="10.00">src/libs/vgeometry</text>
<text text-anchor="middle" x="5293" y="-74.5" font-family="Helvetica,sans-Serif" font-size="10.00">/vellipticalarc_p.h</text>
</a>
</g>
</g>
<!-- Node20&#45;&gt;Node29 -->
<g id="edge27" class="edge">
<title>Node20&#45;&gt;Node29</title>
<path fill="none" stroke="midnightblue" d="M3768.12,-143.49C3787.33,-139.81 3809.61,-136.09 3830,-134 4449.64,-70.59 4613.2,-177.33 5231,-98 5233.74,-97.65 5236.54,-97.23 5239.35,-96.75"/>
<polygon fill="midnightblue" stroke="midnightblue" points="3767.23,-140.09 3758.09,-145.45 3768.58,-146.96 3767.23,-140.09"/>
</g>
<!-- Node30 -->
<g id="node26" class="node">
<title>Node30</title>
<g id="a_node26"><a xlink:href="../../d6/dfb/vellipticalarc_8cpp.html" target="_top" xlink:title=" ">
<polygon fill="white" stroke="black" points="4715.5,-0.5 4715.5,-30.5 4822.5,-30.5 4822.5,-0.5 4715.5,-0.5"/>
<text text-anchor="start" x="4723.5" y="-18.5" font-family="Helvetica,sans-Serif" font-size="10.00">src/libs/vgeometry</text>
<text text-anchor="middle" x="4769" y="-7.5" font-family="Helvetica,sans-Serif" font-size="10.00">/vellipticalarc.cpp</text>
</a>
</g>
</g>
<!-- Node20&#45;&gt;Node30 -->
<g id="edge29" class="edge">
<title>Node20&#45;&gt;Node30</title>
<path fill="none" stroke="midnightblue" d="M3771.28,-143.6C3789.78,-140.19 3810.76,-136.6 3830,-134 4005.57,-110.27 4062.54,-163.88 4227,-98 4247.55,-89.77 4245.49,-75.33 4266,-67 4346.4,-34.34 4602.73,-22.01 4715.21,-18.08"/>
<polygon fill="midnightblue" stroke="midnightblue" points="3770.48,-140.19 3761.29,-145.48 3771.77,-147.07 3770.48,-140.19"/>
</g>
<!-- Node31 -->
<g id="node27" class="node">
<title>Node31</title>
<g id="a_node27"><a xlink:href="../../d1/d76/vspline__p_8h.html" target="_top" xlink:title=" ">
<polygon fill="white" stroke="red" points="4274.5,-67.5 4274.5,-97.5 4381.5,-97.5 4381.5,-67.5 4274.5,-67.5"/>
<text text-anchor="start" x="4282.5" y="-85.5" font-family="Helvetica,sans-Serif" font-size="10.00">src/libs/vgeometry</text>
<text text-anchor="middle" x="4328" y="-74.5" font-family="Helvetica,sans-Serif" font-size="10.00">/vspline_p.h</text>
</a>
</g>
</g>
<!-- Node20&#45;&gt;Node31 -->
<g id="edge30" class="edge">
<title>Node20&#45;&gt;Node31</title>
<path fill="none" stroke="midnightblue" d="M3771.04,-143.57C3789.59,-140.14 3810.67,-136.54 3830,-134 4020.14,-108.97 4070.28,-126.05 4260,-98 4264.66,-97.31 4269.47,-96.5 4274.29,-95.61"/>
<polygon fill="midnightblue" stroke="midnightblue" points="3770.2,-140.17 3761.02,-145.46 3771.5,-147.05 3770.2,-140.17"/>
</g>
<!-- Node33 -->
<g id="node28" class="node">
<title>Node33</title>
<g id="a_node28"><a xlink:href="../../d9/d15/vabstractpiece_8cpp.html" target="_top" xlink:title=" ">
<polygon fill="white" stroke="black" points="4400,-73 4400,-92 4586,-92 4586,-73 4400,-73"/>
<text text-anchor="middle" x="4493" y="-80" font-family="Helvetica,sans-Serif" font-size="10.00">src/libs/vlayout/vabstractpiece.cpp</text>
</a>
</g>
</g>
<!-- Node20&#45;&gt;Node33 -->
<g id="edge31" class="edge">
<title>Node20&#45;&gt;Node33</title>
<path fill="none" stroke="midnightblue" d="M3769.81,-143.59C3788.64,-140.06 3810.23,-136.41 3830,-134 4078.01,-103.8 4142.47,-123.6 4391,-98 4406.48,-96.41 4423.22,-94.22 4438.57,-92.03"/>
<polygon fill="midnightblue" stroke="midnightblue" points="3769.11,-140.16 3759.95,-145.47 3770.43,-147.03 3769.11,-140.16"/>
</g>
<!-- Node34 -->
<g id="node29" class="node">
<title>Node34</title>
<g id="a_node29"><a xlink:href="../../db/d65/dialogexporttocsv_8cpp.html" target="_top" xlink:title=" ">
<polygon fill="white" stroke="black" points="4604.5,-67.5 4604.5,-97.5 4731.5,-97.5 4731.5,-67.5 4604.5,-67.5"/>
<text text-anchor="start" x="4612.5" y="-85.5" font-family="Helvetica,sans-Serif" font-size="10.00">src/libs/vmisc/dialogs</text>
<text text-anchor="middle" x="4668" y="-74.5" font-family="Helvetica,sans-Serif" font-size="10.00">/dialogexporttocsv.cpp</text>
</a>
</g>
</g>
<!-- Node20&#45;&gt;Node34 -->
<g id="edge34" class="edge">
<title>Node20&#45;&gt;Node34</title>
<path fill="none" stroke="midnightblue" d="M3769.08,-143.54C3788.08,-139.95 3809.96,-136.27 3830,-134 4168.22,-95.74 4257.14,-139.27 4595,-98 4598.08,-97.62 4601.22,-97.19 4604.39,-96.72"/>
<polygon fill="midnightblue" stroke="midnightblue" points="3768.3,-140.12 3759.15,-145.45 3769.63,-147 3768.3,-140.12"/>
</g>
<!-- Node35 -->
<g id="node30" class="node">
<title>Node35</title>
<g id="a_node30"><a xlink:href="../../d6/d0b/def_8cpp.html" target="_top" xlink:title=" ">
<polygon fill="white" stroke="black" points="4750,-73 4750,-92 4872,-92 4872,-73 4750,-73"/>
<text text-anchor="middle" x="4811" y="-80" font-family="Helvetica,sans-Serif" font-size="10.00">src/libs/vmisc/def.cpp</text>
</a>
</g>
</g>
<!-- Node20&#45;&gt;Node35 -->
<g id="edge35" class="edge">
<title>Node20&#45;&gt;Node35</title>
<path fill="none" stroke="midnightblue" d="M3768.61,-143.54C3787.71,-139.92 3809.79,-136.21 3830,-134 4232.81,-89.97 4338.8,-147.26 4741,-98 4752.33,-96.61 4764.56,-94.35 4775.58,-92.02"/>
<polygon fill="midnightblue" stroke="midnightblue" points="3767.77,-140.14 3758.62,-145.48 3769.11,-147.01 3767.77,-140.14"/>
</g>
<!-- Node36 -->
<g id="node31" class="node">
<title>Node36</title>
<g id="a_node31"><a xlink:href="../../d0/df6/vabstractapplication_8cpp.html" target="_top" xlink:title=" ">
<polygon fill="white" stroke="black" points="4890,-73 4890,-92 5096,-92 5096,-73 4890,-73"/>
<text text-anchor="middle" x="4993" y="-80" font-family="Helvetica,sans-Serif" font-size="10.00">src/libs/vmisc/vabstractapplication.cpp</text>
</a>
</g>
</g>
<!-- Node20&#45;&gt;Node36 -->
<g id="edge36" class="edge">
<title>Node20&#45;&gt;Node36</title>
<path fill="none" stroke="midnightblue" d="M3768.37,-143.53C3787.52,-139.88 3809.7,-136.17 3830,-134 4294.75,-84.43 4415.17,-136.05 4881,-98 4898.69,-96.56 4917.86,-94.32 4935.27,-92.03"/>
<polygon fill="midnightblue" stroke="midnightblue" points="3767.5,-140.13 3758.36,-145.48 3768.84,-147 3767.5,-140.13"/>
</g>
<!-- Node37 -->
<g id="node32" class="node">
<title>Node37</title>
<g id="a_node32"><a xlink:href="../../d4/d4f/pmsystems_8cpp.html" target="_top" xlink:title=" ">
<polygon fill="white" stroke="black" points="5114.5,-67.5 5114.5,-97.5 5221.5,-97.5 5221.5,-67.5 5114.5,-67.5"/>
<text text-anchor="start" x="5122.5" y="-85.5" font-family="Helvetica,sans-Serif" font-size="10.00">src/libs/vpatterndb</text>
<text text-anchor="middle" x="5168" y="-74.5" font-family="Helvetica,sans-Serif" font-size="10.00">/pmsystems.cpp</text>
</a>
</g>
</g>
<!-- Node20&#45;&gt;Node37 -->
<g id="edge37" class="edge">
<title>Node20&#45;&gt;Node37</title>
<path fill="none" stroke="midnightblue" d="M3768.13,-143.51C3787.34,-139.84 3809.61,-136.11 3830,-134 4393.87,-75.57 4542.69,-169.93 5105,-98 5108.01,-97.62 5111.08,-97.15 5114.17,-96.63"/>
<polygon fill="midnightblue" stroke="midnightblue" points="3767.24,-140.12 3758.09,-145.48 3768.58,-146.99 3767.24,-140.12"/>
</g>
<!-- Node20&#45;&gt;Node38 -->
<g id="edge38" class="edge">
<title>Node20&#45;&gt;Node38</title>
<path fill="none" stroke="midnightblue" d="M3767.65,-143.51C3786.96,-139.8 3809.44,-136.04 3830,-134 4229.44,-94.29 5237.71,-147.98 5636,-98 5638.74,-97.66 5641.54,-97.24 5644.36,-96.77"/>
<polygon fill="midnightblue" stroke="midnightblue" points="3766.71,-140.13 3757.57,-145.5 3768.06,-147 3766.71,-140.13"/>
</g>
<!-- Node20&#45;&gt;Node39 -->
<g id="edge39" class="edge">
<title>Node20&#45;&gt;Node39</title>
<path fill="none" stroke="midnightblue" d="M3611.29,-152.68C3247.04,-147.94 2062.82,-130.38 1683,-98 1667.56,-96.68 1650.87,-94.57 1635.6,-92.36"/>
<polygon fill="midnightblue" stroke="midnightblue" points="3611.26,-156.18 3621.31,-152.81 3611.36,-149.18 3611.26,-156.18"/>
</g>
<!-- Node40 -->
<g id="node35" class="node">
<title>Node40</title>
<g id="a_node35"><a xlink:href="../../df/dba/vpiecenode__p_8h.html" target="_top" xlink:title=" ">
<polygon fill="white" stroke="black" points="4110.5,-67.5 4110.5,-97.5 4217.5,-97.5 4217.5,-67.5 4110.5,-67.5"/>
<text text-anchor="start" x="4118.5" y="-85.5" font-family="Helvetica,sans-Serif" font-size="10.00">src/libs/vpatterndb</text>
<text text-anchor="middle" x="4164" y="-74.5" font-family="Helvetica,sans-Serif" font-size="10.00">/vpiecenode_p.h</text>
</a>
</g>
</g>
<!-- Node20&#45;&gt;Node40 -->
<g id="edge41" class="edge">
<title>Node20&#45;&gt;Node40</title>
<path fill="none" stroke="midnightblue" d="M3773.5,-143.66C3791.46,-140.39 3811.56,-136.88 3830,-134 3950.48,-115.18 3982.04,-119.91 4102,-98 4104.72,-97.5 4107.5,-96.97 4110.3,-96.4"/>
<polygon fill="midnightblue" stroke="midnightblue" points="3772.68,-140.25 3763.48,-145.5 3773.95,-147.13 3772.68,-140.25"/>
</g>
<!-- Node42 -->
<g id="node37" class="node">
<title>Node42</title>
<g id="a_node37"><a xlink:href="../../de/d3e/vtranslatevars_8cpp.html" target="_top" xlink:title=" ">
<polygon fill="white" stroke="black" points="5365,-67.5 5365,-97.5 5475,-97.5 5475,-67.5 5365,-67.5"/>
<text text-anchor="start" x="5373" y="-85.5" font-family="Helvetica,sans-Serif" font-size="10.00">src/libs/vpatterndb</text>
<text text-anchor="middle" x="5420" y="-74.5" font-family="Helvetica,sans-Serif" font-size="10.00">/vtranslatevars.cpp</text>
</a>
</g>
</g>
<!-- Node20&#45;&gt;Node42 -->
<g id="edge43" class="edge">
<title>Node20&#45;&gt;Node42</title>
<path fill="none" stroke="midnightblue" d="M3767.89,-143.51C3787.15,-139.82 3809.52,-136.07 3830,-134 4504.96,-65.65 4682.73,-181.36 5356,-98 5358.94,-97.64 5361.94,-97.2 5364.96,-96.7"/>
<polygon fill="midnightblue" stroke="midnightblue" points="3766.97,-140.12 3757.83,-145.48 3768.32,-146.99 3766.97,-140.12"/>
</g>
<!-- Node43 -->
<g id="node38" class="node">
<title>Node43</title>
<g id="a_node38"><a xlink:href="../../df/d40/export__format__combobox_8cpp.html" target="_top" xlink:title=" ">
<polygon fill="white" stroke="black" points="5493.5,-67.5 5493.5,-97.5 5626.5,-97.5 5626.5,-67.5 5493.5,-67.5"/>
<text text-anchor="start" x="5501.5" y="-85.5" font-family="Helvetica,sans-Serif" font-size="10.00">src/libs/vwidgets/export</text>
<text text-anchor="middle" x="5560" y="-74.5" font-family="Helvetica,sans-Serif" font-size="10.00">_format_combobox.cpp</text>
</a>
</g>
</g>
<!-- Node20&#45;&gt;Node43 -->
<g id="edge44" class="edge">
<title>Node20&#45;&gt;Node43</title>
<path fill="none" stroke="midnightblue" d="M3767.89,-143.49C3787.15,-139.79 3809.52,-136.06 3830,-134 4561.61,-60.58 4752.78,-175.17 5484,-98 5487.07,-97.68 5490.21,-97.29 5493.37,-96.86"/>
<polygon fill="midnightblue" stroke="midnightblue" points="3766.97,-140.1 3757.83,-145.47 3768.32,-146.97 3766.97,-140.1"/>
</g>
<!-- Node44 -->
<g id="node39" class="node">
<title>Node44</title>
<g id="a_node39"><a xlink:href="../../d3/d4f/mouse__coordinates_8cpp.html" target="_top" xlink:title=" ">
<polygon fill="white" stroke="black" points="1892,-67.5 1892,-97.5 2026,-97.5 2026,-67.5 1892,-67.5"/>
<text text-anchor="start" x="1900" y="-85.5" font-family="Helvetica,sans-Serif" font-size="10.00">src/libs/vwidgets/mouse</text>
<text text-anchor="middle" x="1959" y="-74.5" font-family="Helvetica,sans-Serif" font-size="10.00">_coordinates.cpp</text>
</a>
</g>
</g>
<!-- Node20&#45;&gt;Node44 -->
<g id="edge45" class="edge">
<title>Node20&#45;&gt;Node44</title>
<path fill="none" stroke="midnightblue" d="M3611.2,-152.57C3290.06,-147.96 2343.05,-131.82 2036,-98 2032.75,-97.64 2029.44,-97.22 2026.1,-96.76"/>
<polygon fill="midnightblue" stroke="midnightblue" points="3611.39,-156.07 3621.44,-152.71 3611.49,-149.07 3611.39,-156.07"/>
</g>
<!-- Node45 -->
<g id="node40" class="node">
<title>Node45</title>
<g id="a_node40"><a xlink:href="../../d7/d1b/pen__toolbar_8cpp.html" target="_top" xlink:title=" ">
<polygon fill="white" stroke="black" points="2044.5,-67.5 2044.5,-97.5 2163.5,-97.5 2163.5,-67.5 2044.5,-67.5"/>
<text text-anchor="start" x="2052.5" y="-85.5" font-family="Helvetica,sans-Serif" font-size="10.00">src/libs/vwidgets/pen</text>
<text text-anchor="middle" x="2104" y="-74.5" font-family="Helvetica,sans-Serif" font-size="10.00">_toolbar.cpp</text>
</a>
</g>
</g>
<!-- Node20&#45;&gt;Node45 -->
<g id="edge46" class="edge">
<title>Node20&#45;&gt;Node45</title>
<path fill="none" stroke="midnightblue" d="M3611.32,-152.5C3308.27,-147.88 2452,-132.11 2173,-98 2169.96,-97.63 2166.86,-97.19 2163.73,-96.7"/>
<polygon fill="midnightblue" stroke="midnightblue" points="3611.38,-156 3621.44,-152.65 3611.49,-149 3611.38,-156"/>
</g>
<!-- Node46 -->
<g id="node41" class="node">
<title>Node46</title>
<g id="a_node41"><a xlink:href="../../d2/d28/page__format__combobox_8cpp.html" target="_top" xlink:title=" ">
<polygon fill="white" stroke="black" points="2181.5,-67.5 2181.5,-97.5 2312.5,-97.5 2312.5,-67.5 2181.5,-67.5"/>
<text text-anchor="start" x="2189.5" y="-85.5" font-family="Helvetica,sans-Serif" font-size="10.00">src/libs/vwidgets/page</text>
<text text-anchor="middle" x="2247" y="-74.5" font-family="Helvetica,sans-Serif" font-size="10.00">_format_combobox.cpp</text>
</a>
</g>
</g>
<!-- Node20&#45;&gt;Node46 -->
<g id="edge47" class="edge">
<title>Node20&#45;&gt;Node46</title>
<path fill="none" stroke="midnightblue" d="M3611.23,-151.79C3328.69,-145.64 2571.18,-126.91 2322,-98 2318.97,-97.65 2315.88,-97.24 2312.76,-96.8"/>
<polygon fill="midnightblue" stroke="midnightblue" points="3611.41,-155.29 3621.49,-152.01 3611.57,-148.29 3611.41,-155.29"/>
</g>
<!-- Node47 -->
<g id="node42" class="node">
<title>Node47</title>
<g id="a_node42"><a xlink:href="../../d8/d76/scene__rect_8cpp.html" target="_top" xlink:title=" ">
<polygon fill="white" stroke="black" points="2331,-67.5 2331,-97.5 2461,-97.5 2461,-67.5 2331,-67.5"/>
<text text-anchor="start" x="2339" y="-85.5" font-family="Helvetica,sans-Serif" font-size="10.00">src/libs/vwidgets/scene</text>
<text text-anchor="middle" x="2396" y="-74.5" font-family="Helvetica,sans-Serif" font-size="10.00">_rect.cpp</text>
</a>
</g>
</g>
<!-- Node20&#45;&gt;Node47 -->
<g id="edge48" class="edge">
<title>Node20&#45;&gt;Node47</title>
<path fill="none" stroke="midnightblue" d="M3611.01,-154.45C3394.14,-154.19 2890.52,-147.7 2471,-98 2467.84,-97.63 2464.61,-97.19 2461.36,-96.72"/>
<polygon fill="midnightblue" stroke="midnightblue" points="3611.11,-157.95 3621.12,-154.46 3611.12,-150.95 3611.11,-157.95"/>
</g>
<!-- Node48 -->
<g id="node43" class="node">
<title>Node48</title>
<g id="a_node43"><a xlink:href="../../dd/df6/vabstractmainwindow_8cpp.html" target="_top" xlink:title=" ">
<polygon fill="white" stroke="black" points="2479.5,-73 2479.5,-92 2708.5,-92 2708.5,-73 2479.5,-73"/>
<text text-anchor="middle" x="2594" y="-80" font-family="Helvetica,sans-Serif" font-size="10.00">src/libs/vwidgets/vabstractmainwindow.cpp</text>
</a>
</g>
</g>
<!-- Node20&#45;&gt;Node48 -->
<g id="edge49" class="edge">
<title>Node20&#45;&gt;Node48</title>
<path fill="none" stroke="midnightblue" d="M3610.97,-150.1C3427.29,-142.99 3042.43,-126.02 2718,-98 2699.32,-96.39 2679.11,-94.21 2660.53,-92.03"/>
<polygon fill="midnightblue" stroke="midnightblue" points="3611.05,-153.61 3621.17,-150.49 3611.32,-146.61 3611.05,-153.61"/>
</g>
<!-- Node49 -->
<g id="node44" class="node">
<title>Node49</title>
<g id="a_node44"><a xlink:href="../../d1/d90/vgrainlineitem_8cpp.html" target="_top" xlink:title=" ">
<polygon fill="white" stroke="black" points="2726.5,-73 2726.5,-92 2919.5,-92 2919.5,-73 2726.5,-73"/>
<text text-anchor="middle" x="2823" y="-80" font-family="Helvetica,sans-Serif" font-size="10.00">src/libs/vwidgets/vgrainlineitem.cpp</text>
</a>
</g>
</g>
<!-- Node20&#45;&gt;Node49 -->
<g id="edge50" class="edge">
<title>Node20&#45;&gt;Node49</title>
<path fill="none" stroke="midnightblue" d="M3610.93,-148.58C3458.6,-140.42 3172.15,-123.22 2929,-98 2913.11,-96.35 2895.94,-94.17 2880.13,-92.01"/>
<polygon fill="midnightblue" stroke="midnightblue" points="3611.05,-152.09 3621.22,-149.12 3611.42,-145.1 3611.05,-152.09"/>
</g>
<!-- Node50 -->
<g id="node45" class="node">
<title>Node50</title>
<g id="a_node45"><a xlink:href="../../de/d45/vcontrolpointspline_8cpp.html" target="_top" xlink:title=" ">
<polygon fill="white" stroke="black" points="2937.5,-73 2937.5,-92 3152.5,-92 3152.5,-73 2937.5,-73"/>
<text text-anchor="middle" x="3045" y="-80" font-family="Helvetica,sans-Serif" font-size="10.00">src/libs/vwidgets/vcontrolpointspline.cpp</text>
</a>
</g>
</g>
<!-- Node20&#45;&gt;Node50 -->
<g id="edge51" class="edge">
<title>Node20&#45;&gt;Node50</title>
<path fill="none" stroke="midnightblue" d="M3617.51,-144.51C3505.81,-133.89 3320.99,-115.84 3162,-98 3145.63,-96.16 3127.98,-94.05 3111.48,-92.01"/>
<polygon fill="midnightblue" stroke="midnightblue" points="3617.47,-148.02 3627.76,-145.48 3618.13,-141.05 3617.47,-148.02"/>
</g>
<!-- Node51 -->
<g id="node46" class="node">
<title>Node51</title>
<g id="a_node46"><a xlink:href="../../d1/d88/vmaingraphicsscene_8cpp.html" target="_top" xlink:title=" ">
<polygon fill="white" stroke="black" points="3171,-73 3171,-92 3393,-92 3393,-73 3171,-73"/>
<text text-anchor="middle" x="3282" y="-80" font-family="Helvetica,sans-Serif" font-size="10.00">src/libs/vwidgets/vmaingraphicsscene.cpp</text>
</a>
</g>
</g>
<!-- Node20&#45;&gt;Node51 -->
<g id="edge52" class="edge">
<title>Node20&#45;&gt;Node51</title>
<path fill="none" stroke="midnightblue" d="M3656.35,-143.89C3569.97,-129.96 3415.81,-105.09 3334.9,-92.03"/>
<polygon fill="midnightblue" stroke="midnightblue" points="3655.86,-147.36 3666.29,-145.5 3656.97,-140.45 3655.86,-147.36"/>
</g>
<!-- Node29&#45;&gt;Node30 -->
<g id="edge28" class="edge">
<title>Node29&#45;&gt;Node30</title>
<path fill="none" stroke="midnightblue" d="M5229.29,-66.83C5076.78,-41.27 4907.21,-26.62 4822.65,-20.25"/>
<polygon fill="midnightblue" stroke="midnightblue" points="5228.87,-70.3 5239.31,-68.53 5230.04,-63.4 5228.87,-70.3"/>
</g>
<!-- Node40&#45;&gt;Node41 -->
<g id="edge42" class="edge">
<title>Node40&#45;&gt;Node41</title>
<path fill="none" stroke="midnightblue" d="M4100.2,-66.96C3858.18,-35.92 3165.82,-21.14 2967.58,-17.44"/>
<polygon fill="midnightblue" stroke="midnightblue" points="4099.97,-70.46 4110.35,-68.3 4100.89,-63.52 4099.97,-70.46"/>
</g>
</g>
</svg>
