<?xml version="1.0" encoding="UTF-8" standalone="no"?>
<!DOCTYPE svg PUBLIC "-//W3C//DTD SVG 1.1//EN"
 "http://www.w3.org/Graphics/SVG/1.1/DTD/svg11.dtd">
<!-- Generated by graphviz version 2.43.0 (0)
 -->
<!-- Title: src/libs/vpatterndb/vpiecepath.h Pages: 1 -->
<svg width="5908pt" height="318pt"
 viewBox="0.00 0.00 5907.50 318.00" xmlns="http://www.w3.org/2000/svg" xmlns:xlink="http://www.w3.org/1999/xlink">
<g id="graph0" class="graph" transform="scale(1 1) rotate(0) translate(4 314)">
<title>src/libs/vpatterndb/vpiecepath.h</title>
<polygon fill="white" stroke="transparent" points="-4,4 -4,-314 5903.5,-314 5903.5,4 -4,4"/>
<!-- Node1 -->
<g id="node1" class="node">
<title>Node1</title>
<g id="a_node1"><a xlink:title=" ">
<polygon fill="#bfbfbf" stroke="black" points="1497.5,-279.5 1497.5,-309.5 1604.5,-309.5 1604.5,-279.5 1497.5,-279.5"/>
<text text-anchor="start" x="1505.5" y="-297.5" font-family="Helvetica,sans-Serif" font-size="10.00">src/libs/vpatterndb</text>
<text text-anchor="middle" x="1551" y="-286.5" font-family="Helvetica,sans-Serif" font-size="10.00">/vpiecepath.h</text>
</a>
</g>
</g>
<!-- Node2 -->
<g id="node2" class="node">
<title>Node2</title>
<g id="a_node2"><a xlink:href="../../d6/d91/vnodedetail_8cpp.html" target="_top" xlink:title=" ">
<polygon fill="white" stroke="black" points="449.5,-140 449.5,-170 556.5,-170 556.5,-140 449.5,-140"/>
<text text-anchor="start" x="457.5" y="-158" font-family="Helvetica,sans-Serif" font-size="10.00">src/libs/vpatterndb</text>
<text text-anchor="middle" x="503" y="-147" font-family="Helvetica,sans-Serif" font-size="10.00">/vnodedetail.cpp</text>
</a>
</g>
</g>
<!-- Node1&#45;&gt;Node2 -->
<g id="edge1" class="edge">
<title>Node1&#45;&gt;Node2</title>
<path fill="none" stroke="midnightblue" d="M1486.96,-289.53C1329.66,-278.98 912.29,-246.14 571,-176 563.17,-174.39 554.93,-172.31 546.99,-170.1"/>
<polygon fill="midnightblue" stroke="midnightblue" points="1487.17,-293.05 1497.38,-290.22 1487.64,-286.07 1487.17,-293.05"/>
</g>
<!-- Node3 -->
<g id="node3" class="node">
<title>Node3</title>
<g id="a_node3"><a xlink:href="../../d8/da5/vpiece__p_8h.html" target="_top" xlink:title=" ">
<polygon fill="white" stroke="black" points="3440.5,-212.5 3440.5,-242.5 3547.5,-242.5 3547.5,-212.5 3440.5,-212.5"/>
<text text-anchor="start" x="3448.5" y="-230.5" font-family="Helvetica,sans-Serif" font-size="10.00">src/libs/vpatterndb</text>
<text text-anchor="middle" x="3494" y="-219.5" font-family="Helvetica,sans-Serif" font-size="10.00">/vpiece_p.h</text>
</a>
</g>
</g>
<!-- Node1&#45;&gt;Node3 -->
<g id="edge2" class="edge">
<title>Node1&#45;&gt;Node3</title>
<path fill="none" stroke="midnightblue" d="M1614.94,-291.36C1913.21,-281.38 3164.8,-239.51 3440.24,-230.3"/>
<polygon fill="midnightblue" stroke="midnightblue" points="1614.62,-287.87 1604.74,-291.7 1614.85,-294.87 1614.62,-287.87"/>
</g>
<!-- Node5 -->
<g id="node5" class="node">
<title>Node5</title>
<g id="a_node5"><a xlink:href="../../da/de1/vpiecepath_8cpp.html" target="_top" xlink:title=" ">
<polygon fill="white" stroke="black" points="3933.5,-140 3933.5,-170 4040.5,-170 4040.5,-140 3933.5,-140"/>
<text text-anchor="start" x="3941.5" y="-158" font-family="Helvetica,sans-Serif" font-size="10.00">src/libs/vpatterndb</text>
<text text-anchor="middle" x="3987" y="-147" font-family="Helvetica,sans-Serif" font-size="10.00">/vpiecepath.cpp</text>
</a>
</g>
</g>
<!-- Node1&#45;&gt;Node5 -->
<g id="edge4" class="edge">
<title>Node1&#45;&gt;Node5</title>
<path fill="none" stroke="midnightblue" d="M1614.93,-290.76C1981.3,-274.97 3802.24,-195.78 3919,-176 3927.49,-174.56 3936.43,-172.41 3944.92,-170.05"/>
<polygon fill="midnightblue" stroke="midnightblue" points="1614.61,-287.27 1604.77,-291.19 1614.91,-294.26 1614.61,-287.27"/>
</g>
<!-- Node6 -->
<g id="node6" class="node">
<title>Node6</title>
<g id="a_node6"><a xlink:href="../../d3/df7/vcontainer_8h.html" target="_top" xlink:title=" ">
<polygon fill="white" stroke="black" points="1456.5,-212.5 1456.5,-242.5 1563.5,-242.5 1563.5,-212.5 1456.5,-212.5"/>
<text text-anchor="start" x="1464.5" y="-230.5" font-family="Helvetica,sans-Serif" font-size="10.00">src/libs/vpatterndb</text>
<text text-anchor="middle" x="1510" y="-219.5" font-family="Helvetica,sans-Serif" font-size="10.00">/vcontainer.h</text>
</a>
</g>
</g>
<!-- Node1&#45;&gt;Node6 -->
<g id="edge5" class="edge">
<title>Node1&#45;&gt;Node6</title>
<path fill="none" stroke="midnightblue" d="M1536.72,-270.87C1530.79,-261.46 1524.09,-250.83 1518.88,-242.58"/>
<polygon fill="midnightblue" stroke="midnightblue" points="1533.81,-272.81 1542.1,-279.4 1539.73,-269.07 1533.81,-272.81"/>
</g>
<!-- Node4 -->
<g id="node4" class="node">
<title>Node4</title>
<g id="a_node4"><a xlink:href="../../df/d7a/vpiece_8cpp.html" target="_top" xlink:title=" ">
<polygon fill="white" stroke="black" points="5792.5,-67.5 5792.5,-97.5 5899.5,-97.5 5899.5,-67.5 5792.5,-67.5"/>
<text text-anchor="start" x="5800.5" y="-85.5" font-family="Helvetica,sans-Serif" font-size="10.00">src/libs/vpatterndb</text>
<text text-anchor="middle" x="5846" y="-74.5" font-family="Helvetica,sans-Serif" font-size="10.00">/vpiece.cpp</text>
</a>
</g>
</g>
<!-- Node3&#45;&gt;Node4 -->
<g id="edge3" class="edge">
<title>Node3&#45;&gt;Node4</title>
<path fill="none" stroke="midnightblue" d="M3557.62,-226.96C3828.07,-228.08 4908.45,-223.97 5784,-98 5786.74,-97.61 5789.53,-97.15 5792.34,-96.65"/>
<polygon fill="midnightblue" stroke="midnightblue" points="3557.61,-223.46 3547.6,-226.92 3557.58,-230.46 3557.61,-223.46"/>
</g>
<!-- Node6&#45;&gt;Node2 -->
<g id="edge56" class="edge">
<title>Node6&#45;&gt;Node2</title>
<path fill="none" stroke="midnightblue" d="M1446.11,-225C1263.21,-220.39 739.89,-204.97 571,-176 562.51,-174.54 553.58,-172.39 545.08,-170.03"/>
<polygon fill="midnightblue" stroke="midnightblue" points="1446.29,-228.5 1456.37,-225.25 1446.46,-221.5 1446.29,-228.5"/>
</g>
<!-- Node6&#45;&gt;Node4 -->
<g id="edge58" class="edge">
<title>Node6&#45;&gt;Node4</title>
<path fill="none" stroke="midnightblue" d="M1573.61,-225.81C1946.04,-221.68 3829.48,-199.65 3884,-176 3907.93,-165.62 3901.06,-144.36 3925,-134 4019.8,-92.98 5681.5,-110.83 5784,-98 5786.74,-97.66 5789.54,-97.24 5792.36,-96.77"/>
<polygon fill="midnightblue" stroke="midnightblue" points="1573.51,-222.31 1563.55,-225.92 1573.58,-229.31 1573.51,-222.31"/>
</g>
<!-- Node6&#45;&gt;Node5 -->
<g id="edge60" class="edge">
<title>Node6&#45;&gt;Node5</title>
<path fill="none" stroke="midnightblue" d="M1573.83,-225.64C1943.74,-220.59 3799.94,-194.42 3919,-176 3927.76,-174.65 3936.97,-172.47 3945.68,-170.04"/>
<polygon fill="midnightblue" stroke="midnightblue" points="1573.53,-222.14 1563.58,-225.78 1573.63,-229.14 1573.53,-222.14"/>
</g>
<!-- Node7 -->
<g id="node7" class="node">
<title>Node7</title>
<g id="a_node7"><a xlink:href="../../dc/db7/measurements_8h.html" target="_top" xlink:title=" ">
<polygon fill="white" stroke="black" points="613.5,-145.5 613.5,-164.5 792.5,-164.5 792.5,-145.5 613.5,-145.5"/>
<text text-anchor="middle" x="703" y="-152.5" font-family="Helvetica,sans-Serif" font-size="10.00">src/libs/vformat/measurements.h</text>
</a>
</g>
</g>
<!-- Node6&#45;&gt;Node7 -->
<g id="edge6" class="edge">
<title>Node6&#45;&gt;Node7</title>
<path fill="none" stroke="midnightblue" d="M1446.37,-224.69C1322.03,-220.56 1038.34,-208.17 802,-176 781.15,-173.16 758.09,-168.59 739.48,-164.53"/>
<polygon fill="midnightblue" stroke="midnightblue" points="1446.36,-228.2 1456.47,-225.02 1446.59,-221.2 1446.36,-228.2"/>
</g>
<!-- Node8 -->
<g id="node8" class="node">
<title>Node8</title>
<g id="a_node8"><a xlink:href="../../d9/de3/measurements_8cpp.html" target="_top" xlink:title=" ">
<polygon fill="white" stroke="black" points="0,-73 0,-92 190,-92 190,-73 0,-73"/>
<text text-anchor="middle" x="95" y="-80" font-family="Helvetica,sans-Serif" font-size="10.00">src/libs/vformat/measurements.cpp</text>
</a>
</g>
</g>
<!-- Node6&#45;&gt;Node8 -->
<g id="edge8" class="edge">
<title>Node6&#45;&gt;Node8</title>
<path fill="none" stroke="midnightblue" d="M1446.23,-225.69C1252.69,-222.84 680.56,-211.49 605,-176 581.94,-165.17 588.79,-145.39 566,-134 497.45,-99.74 299.19,-106.31 223,-98 205.66,-96.11 187,-94.02 169.44,-92.04"/>
<polygon fill="midnightblue" stroke="midnightblue" points="1446.2,-229.19 1456.25,-225.83 1446.31,-222.19 1446.2,-229.19"/>
</g>
<!-- Node9 -->
<g id="node9" class="node">
<title>Node9</title>
<g id="a_node9"><a xlink:href="../../d6/de0/vlayoutpiece_8h.html" target="_top" xlink:title=" ">
<polygon fill="white" stroke="black" points="811,-145.5 811,-164.5 977,-164.5 977,-145.5 811,-145.5"/>
<text text-anchor="middle" x="894" y="-152.5" font-family="Helvetica,sans-Serif" font-size="10.00">src/libs/vlayout/vlayoutpiece.h</text>
</a>
</g>
</g>
<!-- Node6&#45;&gt;Node9 -->
<g id="edge9" class="edge">
<title>Node6&#45;&gt;Node9</title>
<path fill="none" stroke="midnightblue" d="M1446.29,-222.49C1348.14,-215.82 1154.18,-200.69 991,-176 970.94,-172.96 948.76,-168.48 930.68,-164.52"/>
<polygon fill="midnightblue" stroke="midnightblue" points="1446.14,-225.99 1456.35,-223.17 1446.61,-219.01 1446.14,-225.99"/>
</g>
<!-- Node19 -->
<g id="node18" class="node">
<title>Node19</title>
<g id="a_node18"><a xlink:href="../../d8/d70/vtextmanager_8cpp.html" target="_top" xlink:title=" ">
<polygon fill="white" stroke="black" points="1692,-73 1692,-92 1874,-92 1874,-73 1692,-73"/>
<text text-anchor="middle" x="1783" y="-80" font-family="Helvetica,sans-Serif" font-size="10.00">src/libs/vlayout/vtextmanager.cpp</text>
</a>
</g>
</g>
<!-- Node6&#45;&gt;Node19 -->
<g id="edge20" class="edge">
<title>Node6&#45;&gt;Node19</title>
<path fill="none" stroke="midnightblue" d="M1573.78,-218.52C1611.94,-211.6 1660.2,-198.92 1698,-176 1734.93,-153.61 1765.58,-110.52 1777.57,-92.15"/>
<polygon fill="midnightblue" stroke="midnightblue" points="1573.07,-215.1 1563.81,-220.25 1574.26,-221.99 1573.07,-215.1"/>
</g>
<!-- Node20 -->
<g id="node19" class="node">
<title>Node20</title>
<g id="a_node19"><a xlink:href="../../d5/d74/vabstractapplication_8h.html" target="_top" xlink:title=" ">
<polygon fill="white" stroke="red" points="3644.5,-145.5 3644.5,-164.5 3839.5,-164.5 3839.5,-145.5 3644.5,-145.5"/>
<text text-anchor="middle" x="3742" y="-152.5" font-family="Helvetica,sans-Serif" font-size="10.00">src/libs/vmisc/vabstractapplication.h</text>
</a>
</g>
</g>
<!-- Node6&#45;&gt;Node20 -->
<g id="edge21" class="edge">
<title>Node6&#45;&gt;Node20</title>
<path fill="none" stroke="midnightblue" d="M1573.78,-224.49C1887.21,-214.59 3264.31,-171.09 3644.48,-159.08"/>
<polygon fill="midnightblue" stroke="midnightblue" points="1573.4,-221 1563.52,-224.81 1573.62,-227.99 1573.4,-221"/>
</g>
<!-- Node38 -->
<g id="node33" class="node">
<title>Node38</title>
<g id="a_node33"><a xlink:href="../../db/d11/vformula_8cpp.html" target="_top" xlink:title=" ">
<polygon fill="white" stroke="black" points="5667.5,-67.5 5667.5,-97.5 5774.5,-97.5 5774.5,-67.5 5667.5,-67.5"/>
<text text-anchor="start" x="5675.5" y="-85.5" font-family="Helvetica,sans-Serif" font-size="10.00">src/libs/vpatterndb</text>
<text text-anchor="middle" x="5721" y="-74.5" font-family="Helvetica,sans-Serif" font-size="10.00">/vformula.cpp</text>
</a>
</g>
</g>
<!-- Node6&#45;&gt;Node38 -->
<g id="edge55" class="edge">
<title>Node6&#45;&gt;Node38</title>
<path fill="none" stroke="midnightblue" d="M1573.83,-225.78C1943.49,-221.5 3795.21,-198.97 3849,-176 3873.28,-165.64 3866.71,-144.35 3891,-134 3981.38,-95.48 5561.52,-110.25 5659,-98 5661.74,-97.66 5664.54,-97.24 5667.36,-96.77"/>
<polygon fill="midnightblue" stroke="midnightblue" points="1573.54,-222.28 1563.58,-225.89 1573.62,-229.28 1573.54,-222.28"/>
</g>
<!-- Node39 -->
<g id="node34" class="node">
<title>Node39</title>
<g id="a_node34"><a xlink:href="../../d6/d46/vcontainer_8cpp.html" target="_top" xlink:title=" ">
<polygon fill="white" stroke="black" points="1528.5,-67.5 1528.5,-97.5 1635.5,-97.5 1635.5,-67.5 1528.5,-67.5"/>
<text text-anchor="start" x="1536.5" y="-85.5" font-family="Helvetica,sans-Serif" font-size="10.00">src/libs/vpatterndb</text>
<text text-anchor="middle" x="1582" y="-74.5" font-family="Helvetica,sans-Serif" font-size="10.00">/vcontainer.cpp</text>
</a>
</g>
</g>
<!-- Node6&#45;&gt;Node39 -->
<g id="edge57" class="edge">
<title>Node6&#45;&gt;Node39</title>
<path fill="none" stroke="midnightblue" d="M1446.06,-224.53C1320.56,-220.01 1051.76,-206.8 1024,-176 1011.5,-162.14 1011.29,-147.67 1024,-134 1061.63,-93.54 1465.37,-106.32 1520,-98 1522.73,-97.58 1525.52,-97.11 1528.33,-96.6"/>
<polygon fill="midnightblue" stroke="midnightblue" points="1446.18,-228.04 1456.29,-224.89 1446.42,-221.04 1446.18,-228.04"/>
</g>
<!-- Node41 -->
<g id="node36" class="node">
<title>Node41</title>
<g id="a_node36"><a xlink:href="../../d8/dba/vpiecenode_8cpp.html" target="_top" xlink:title=" ">
<polygon fill="white" stroke="black" points="2871.5,-0.5 2871.5,-30.5 2978.5,-30.5 2978.5,-0.5 2871.5,-0.5"/>
<text text-anchor="start" x="2879.5" y="-18.5" font-family="Helvetica,sans-Serif" font-size="10.00">src/libs/vpatterndb</text>
<text text-anchor="middle" x="2925" y="-7.5" font-family="Helvetica,sans-Serif" font-size="10.00">/vpiecenode.cpp</text>
</a>
</g>
</g>
<!-- Node6&#45;&gt;Node41 -->
<g id="edge59" class="edge">
<title>Node6&#45;&gt;Node41</title>
<path fill="none" stroke="midnightblue" d="M1573.89,-221.11C1605.82,-215.04 1642.37,-202.34 1665,-176 1697,-138.76 1646.21,-99.52 1683,-67 1728.12,-27.11 2639.09,-18.39 2871.44,-16.81"/>
<polygon fill="midnightblue" stroke="midnightblue" points="1572.97,-217.72 1563.71,-222.86 1574.16,-224.62 1572.97,-217.72"/>
</g>
<!-- Node58 -->
<g id="node47" class="node">
<title>Node58</title>
<g id="a_node47"><a xlink:href="../../d7/d8a/measurement__variable__p_8h.html" target="_top" xlink:title=" ">
<polygon fill="white" stroke="red" points="1033,-134.5 1033,-175.5 1169,-175.5 1169,-134.5 1033,-134.5"/>
<text text-anchor="start" x="1041" y="-163.5" font-family="Helvetica,sans-Serif" font-size="10.00">src/libs/vpatterndb</text>
<text text-anchor="start" x="1041" y="-152.5" font-family="Helvetica,sans-Serif" font-size="10.00">/variables/measurement</text>
<text text-anchor="middle" x="1101" y="-141.5" font-family="Helvetica,sans-Serif" font-size="10.00">_variable_p.h</text>
</a>
</g>
</g>
<!-- Node6&#45;&gt;Node58 -->
<g id="edge53" class="edge">
<title>Node6&#45;&gt;Node58</title>
<path fill="none" stroke="midnightblue" d="M1446.43,-218.71C1379.54,-210.08 1271.37,-194.84 1179,-176 1175.85,-175.36 1172.64,-174.67 1169.39,-173.95"/>
<polygon fill="midnightblue" stroke="midnightblue" points="1446.03,-222.19 1456.4,-219.99 1446.92,-215.25 1446.03,-222.19"/>
</g>
<!-- Node60 -->
<g id="node48" class="node">
<title>Node60</title>
<g id="a_node48"><a xlink:href="../../d1/de1/vincrement__p_8h.html" target="_top" xlink:title=" ">
<polygon fill="white" stroke="red" points="1187.5,-140 1187.5,-170 1330.5,-170 1330.5,-140 1187.5,-140"/>
<text text-anchor="start" x="1195.5" y="-158" font-family="Helvetica,sans-Serif" font-size="10.00">src/libs/vpatterndb</text>
<text text-anchor="middle" x="1259" y="-147" font-family="Helvetica,sans-Serif" font-size="10.00">/variables/vincrement_p.h</text>
</a>
</g>
</g>
<!-- Node6&#45;&gt;Node60 -->
<g id="edge54" class="edge">
<title>Node6&#45;&gt;Node60</title>
<path fill="none" stroke="midnightblue" d="M1450.33,-209.74C1407.32,-197.66 1349.9,-181.53 1309.22,-170.11"/>
<polygon fill="midnightblue" stroke="midnightblue" points="1449.54,-213.15 1460.11,-212.49 1451.43,-206.41 1449.54,-213.15"/>
</g>
<!-- Node62 -->
<g id="node49" class="node">
<title>Node62</title>
<g id="a_node49"><a xlink:href="../../d1/d3a/abstracttest_8cpp.html" target="_top" xlink:title=" ">
<polygon fill="white" stroke="black" points="1348.5,-145.5 1348.5,-164.5 1509.5,-164.5 1509.5,-145.5 1348.5,-145.5"/>
<text text-anchor="middle" x="1429" y="-152.5" font-family="Helvetica,sans-Serif" font-size="10.00">src/libs/vtest/abstracttest.cpp</text>
</a>
</g>
</g>
<!-- Node6&#45;&gt;Node62 -->
<g id="edge61" class="edge">
<title>Node6&#45;&gt;Node62</title>
<path fill="none" stroke="midnightblue" d="M1485.88,-205.51C1470.32,-191.96 1450.87,-175.03 1439.22,-164.89"/>
<polygon fill="midnightblue" stroke="midnightblue" points="1483.77,-208.31 1493.61,-212.23 1488.36,-203.03 1483.77,-208.31"/>
</g>
<!-- Node63 -->
<g id="node50" class="node">
<title>Node63</title>
<g id="a_node50"><a xlink:href="../../da/db4/piece__tablewidgetitem_8cpp.html" target="_top" xlink:title=" ">
<polygon fill="white" stroke="black" points="1528,-140 1528,-170 1656,-170 1656,-140 1528,-140"/>
<text text-anchor="start" x="1536" y="-158" font-family="Helvetica,sans-Serif" font-size="10.00">src/libs/vwidgets/piece</text>
<text text-anchor="middle" x="1592" y="-147" font-family="Helvetica,sans-Serif" font-size="10.00">_tablewidgetitem.cpp</text>
</a>
</g>
</g>
<!-- Node6&#45;&gt;Node63 -->
<g id="edge62" class="edge">
<title>Node6&#45;&gt;Node63</title>
<path fill="none" stroke="midnightblue" d="M1534.47,-205.46C1547.8,-194 1563.93,-180.14 1575.71,-170"/>
<polygon fill="midnightblue" stroke="midnightblue" points="1531.89,-203.06 1526.59,-212.23 1536.46,-208.37 1531.89,-203.06"/>
</g>
<!-- Node7&#45;&gt;Node8 -->
<g id="edge7" class="edge">
<title>Node7&#45;&gt;Node8</title>
<path fill="none" stroke="midnightblue" d="M653.78,-143.5C636.52,-140.09 616.96,-136.54 599,-134 424.45,-109.32 379.19,-117.63 204,-98 188.35,-96.25 171.46,-94.12 155.77,-92.04"/>
<polygon fill="midnightblue" stroke="midnightblue" points="653.15,-146.94 663.65,-145.48 654.53,-140.08 653.15,-146.94"/>
</g>
<!-- Node10 -->
<g id="node10" class="node">
<title>Node10</title>
<g id="a_node10"><a xlink:href="../../dd/d66/vdxfengine_8cpp.html" target="_top" xlink:title=" ">
<polygon fill="white" stroke="black" points="246,-73 246,-92 400,-92 400,-73 246,-73"/>
<text text-anchor="middle" x="323" y="-80" font-family="Helvetica,sans-Serif" font-size="10.00">src/libs/vdxf/vdxfengine.cpp</text>
</a>
</g>
</g>
<!-- Node9&#45;&gt;Node10 -->
<g id="edge10" class="edge">
<title>Node9&#45;&gt;Node10</title>
<path fill="none" stroke="midnightblue" d="M849.6,-143.2C834.56,-139.84 817.62,-136.4 802,-134 628.64,-107.32 582.94,-120.6 409,-98 396.24,-96.34 382.47,-94.19 369.77,-92.05"/>
<polygon fill="midnightblue" stroke="midnightblue" points="849.15,-146.68 859.67,-145.49 850.7,-139.86 849.15,-146.68"/>
</g>
<!-- Node11 -->
<g id="node11" class="node">
<title>Node11</title>
<g id="a_node11"><a xlink:href="../../de/da8/vbank_8cpp.html" target="_top" xlink:title=" ">
<polygon fill="white" stroke="black" points="418,-73 418,-92 562,-92 562,-73 418,-73"/>
<text text-anchor="middle" x="490" y="-80" font-family="Helvetica,sans-Serif" font-size="10.00">src/libs/vlayout/vbank.cpp</text>
</a>
</g>
</g>
<!-- Node9&#45;&gt;Node11 -->
<g id="edge11" class="edge">
<title>Node9&#45;&gt;Node11</title>
<path fill="none" stroke="midnightblue" d="M846.8,-143.18C832.45,-140.04 816.61,-136.72 802,-134 699.85,-114.96 673.48,-115.16 571,-98 559.87,-96.14 547.89,-94.04 536.66,-92.04"/>
<polygon fill="midnightblue" stroke="midnightblue" points="846.43,-146.68 856.95,-145.42 847.94,-139.84 846.43,-146.68"/>
</g>
<!-- Node12 -->
<g id="node12" class="node">
<title>Node12</title>
<g id="a_node12"><a xlink:href="../../df/d5d/vcontour_8cpp.html" target="_top" xlink:title=" ">
<polygon fill="white" stroke="black" points="580,-73 580,-92 736,-92 736,-73 580,-73"/>
<text text-anchor="middle" x="658" y="-80" font-family="Helvetica,sans-Serif" font-size="10.00">src/libs/vlayout/vcontour.cpp</text>
</a>
</g>
</g>
<!-- Node9&#45;&gt;Node12 -->
<g id="edge12" class="edge">
<title>Node9&#45;&gt;Node12</title>
<path fill="none" stroke="midnightblue" d="M855.66,-142.55C808.32,-128.4 728.89,-104.68 686.57,-92.03"/>
<polygon fill="midnightblue" stroke="midnightblue" points="854.95,-145.99 865.53,-145.5 856.95,-139.28 854.95,-145.99"/>
</g>
<!-- Node13 -->
<g id="node13" class="node">
<title>Node13</title>
<g id="a_node13"><a xlink:href="../../d3/d39/vlayoutgenerator_8cpp.html" target="_top" xlink:title=" ">
<polygon fill="white" stroke="black" points="754.5,-73 754.5,-92 951.5,-92 951.5,-73 754.5,-73"/>
<text text-anchor="middle" x="853" y="-80" font-family="Helvetica,sans-Serif" font-size="10.00">src/libs/vlayout/vlayoutgenerator.cpp</text>
</a>
</g>
</g>
<!-- Node9&#45;&gt;Node13 -->
<g id="edge13" class="edge">
<title>Node9&#45;&gt;Node13</title>
<path fill="none" stroke="midnightblue" d="M883.88,-136.59C875.68,-122.5 864.48,-103.24 858.07,-92.22"/>
<polygon fill="midnightblue" stroke="midnightblue" points="880.92,-138.47 888.97,-145.36 886.97,-134.95 880.92,-138.47"/>
</g>
<!-- Node14 -->
<g id="node14" class="node">
<title>Node14</title>
<g id="a_node14"><a xlink:href="../../d2/d2d/vlayoutpaper__p_8h.html" target="_top" xlink:title=" ">
<polygon fill="white" stroke="black" points="969.5,-73 969.5,-92 1148.5,-92 1148.5,-73 969.5,-73"/>
<text text-anchor="middle" x="1059" y="-80" font-family="Helvetica,sans-Serif" font-size="10.00">src/libs/vlayout/vlayoutpaper_p.h</text>
</a>
</g>
</g>
<!-- Node9&#45;&gt;Node14 -->
<g id="edge14" class="edge">
<title>Node9&#45;&gt;Node14</title>
<path fill="none" stroke="midnightblue" d="M923.13,-141.55C956.45,-127.32 1010.12,-104.38 1039.03,-92.03"/>
<polygon fill="midnightblue" stroke="midnightblue" points="921.72,-138.35 913.9,-145.5 924.47,-144.79 921.72,-138.35"/>
</g>
<!-- Node15 -->
<g id="node15" class="node">
<title>Node15</title>
<g id="a_node15"><a xlink:href="../../d1/dd1/vlayoutpaper_8cpp.html" target="_top" xlink:title=" ">
<polygon fill="white" stroke="black" points="970,-6 970,-25 1148,-25 1148,-6 970,-6"/>
<text text-anchor="middle" x="1059" y="-13" font-family="Helvetica,sans-Serif" font-size="10.00">src/libs/vlayout/vlayoutpaper.cpp</text>
</a>
</g>
</g>
<!-- Node9&#45;&gt;Node15 -->
<g id="edge16" class="edge">
<title>Node9&#45;&gt;Node15</title>
<path fill="none" stroke="midnightblue" d="M850.4,-143.11C835.17,-139.69 817.91,-136.22 802,-134 676.78,-116.5 150.38,-159.1 237,-67 261.81,-40.62 762.31,-24.36 969.94,-18.73"/>
<polygon fill="midnightblue" stroke="midnightblue" points="850.04,-146.62 860.57,-145.46 851.62,-139.8 850.04,-146.62"/>
</g>
<!-- Node16 -->
<g id="node16" class="node">
<title>Node16</title>
<g id="a_node16"><a xlink:href="../../db/d5c/vposition_8h.html" target="_top" xlink:title=" ">
<polygon fill="white" stroke="red" points="1167,-73 1167,-92 1315,-92 1315,-73 1167,-73"/>
<text text-anchor="middle" x="1241" y="-80" font-family="Helvetica,sans-Serif" font-size="10.00">src/libs/vlayout/vposition.h</text>
</a>
</g>
</g>
<!-- Node9&#45;&gt;Node16 -->
<g id="edge17" class="edge">
<title>Node9&#45;&gt;Node16</title>
<path fill="none" stroke="midnightblue" d="M945.06,-143.43C959.87,-140.38 976.08,-137.05 991,-134 1063.89,-119.12 1148.78,-102.02 1198.52,-92.03"/>
<polygon fill="midnightblue" stroke="midnightblue" points="944.14,-140.05 935.05,-145.5 945.56,-146.9 944.14,-140.05"/>
</g>
<!-- Node18 -->
<g id="node17" class="node">
<title>Node18</title>
<g id="a_node17"><a xlink:href="../../dd/d70/vlayoutpiece_8cpp.html" target="_top" xlink:title=" ">
<polygon fill="white" stroke="black" points="1333.5,-73 1333.5,-92 1510.5,-92 1510.5,-73 1333.5,-73"/>
<text text-anchor="middle" x="1422" y="-80" font-family="Helvetica,sans-Serif" font-size="10.00">src/libs/vlayout/vlayoutpiece.cpp</text>
</a>
</g>
</g>
<!-- Node9&#45;&gt;Node18 -->
<g id="edge19" class="edge">
<title>Node9&#45;&gt;Node18</title>
<path fill="none" stroke="midnightblue" d="M941.21,-143.32C956.98,-140.01 974.7,-136.56 991,-134 1138.07,-110.94 1176.34,-116.9 1324,-98 1337.99,-96.21 1353.07,-94.08 1367.11,-92.01"/>
<polygon fill="midnightblue" stroke="midnightblue" points="940.21,-139.96 931.16,-145.47 941.67,-146.8 940.21,-139.96"/>
</g>
<!-- Node14&#45;&gt;Node15 -->
<g id="edge15" class="edge">
<title>Node14&#45;&gt;Node15</title>
<path fill="none" stroke="midnightblue" d="M1059,-62.54C1059,-50.17 1059,-34.62 1059,-25.13"/>
<polygon fill="midnightblue" stroke="midnightblue" points="1055.5,-62.73 1059,-72.73 1062.5,-62.73 1055.5,-62.73"/>
</g>
<!-- Node16&#45;&gt;Node15 -->
<g id="edge18" class="edge">
<title>Node16&#45;&gt;Node15</title>
<path fill="none" stroke="midnightblue" d="M1207.22,-69.44C1171.12,-56.54 1114.79,-36.42 1082.98,-25.06"/>
<polygon fill="midnightblue" stroke="midnightblue" points="1206.24,-72.8 1216.83,-72.87 1208.59,-66.21 1206.24,-72.8"/>
</g>
<!-- Node20&#45;&gt;Node4 -->
<g id="edge40" class="edge">
<title>Node20&#45;&gt;Node4</title>
<path fill="none" stroke="midnightblue" d="M3804.21,-144.03C3830.86,-140.18 3862.39,-136.19 3891,-134 4310.52,-101.96 5366.51,-150.2 5784,-98 5786.74,-97.66 5789.54,-97.24 5792.36,-96.77"/>
<polygon fill="midnightblue" stroke="midnightblue" points="3803.64,-140.58 3794.25,-145.5 3804.65,-147.51 3803.64,-140.58"/>
</g>
<!-- Node20&#45;&gt;Node18 -->
<g id="edge32" class="edge">
<title>Node20&#45;&gt;Node18</title>
<path fill="none" stroke="midnightblue" d="M3634.44,-153.03C3249.04,-149.26 1938,-134.06 1520,-98 1504.15,-96.63 1486.96,-94.36 1471.47,-92.02"/>
<polygon fill="midnightblue" stroke="midnightblue" points="3634.43,-156.53 3644.47,-153.12 3634.5,-149.53 3634.43,-156.53"/>
</g>
<!-- Node20&#45;&gt;Node19 -->
<g id="edge33" class="edge">
<title>Node20&#45;&gt;Node19</title>
<path fill="none" stroke="midnightblue" d="M3634.19,-152.35C3291.15,-146.83 2227.36,-127.73 1884,-98 1867.85,-96.6 1850.34,-94.35 1834.51,-92.04"/>
<polygon fill="midnightblue" stroke="midnightblue" points="3634.32,-155.85 3644.37,-152.51 3634.43,-148.85 3634.32,-155.85"/>
</g>
<!-- Node21 -->
<g id="node20" class="node">
<title>Node21</title>
<g id="a_node20"><a xlink:href="../../d4/d90/fvupdater_8cpp.html" target="_top" xlink:title=" ">
<polygon fill="white" stroke="black" points="3434.5,-73 3434.5,-92 3587.5,-92 3587.5,-73 3434.5,-73"/>
<text text-anchor="middle" x="3511" y="-80" font-family="Helvetica,sans-Serif" font-size="10.00">src/libs/fervor/fvupdater.cpp</text>
</a>
</g>
</g>
<!-- Node20&#45;&gt;Node21 -->
<g id="edge22" class="edge">
<title>Node20&#45;&gt;Node21</title>
<path fill="none" stroke="midnightblue" d="M3704.47,-142.55C3658.13,-128.4 3580.38,-104.68 3538.96,-92.03"/>
<polygon fill="midnightblue" stroke="midnightblue" points="3703.55,-145.92 3714.14,-145.5 3705.59,-139.23 3703.55,-145.92"/>
</g>
<!-- Node22 -->
<g id="node21" class="node">
<title>Node22</title>
<g id="a_node21"><a xlink:href="../../d9/dc8/dxiface_8cpp.html" target="_top" xlink:title=" ">
<polygon fill="white" stroke="black" points="3605.5,-73 3605.5,-92 3740.5,-92 3740.5,-73 3605.5,-73"/>
<text text-anchor="middle" x="3673" y="-80" font-family="Helvetica,sans-Serif" font-size="10.00">src/libs/vdxf/dxiface.cpp</text>
</a>
</g>
</g>
<!-- Node20&#45;&gt;Node22 -->
<g id="edge23" class="edge">
<title>Node20&#45;&gt;Node22</title>
<path fill="none" stroke="midnightblue" d="M3726.53,-138.19C3712.63,-123.99 3692.74,-103.67 3681.53,-92.22"/>
<polygon fill="midnightblue" stroke="midnightblue" points="3724.04,-140.66 3733.54,-145.36 3729.05,-135.76 3724.04,-140.66"/>
</g>
<!-- Node23 -->
<g id="node22" class="node">
<title>Node23</title>
<g id="a_node22"><a xlink:href="../../da/d75/vabstractarc__p_8h.html" target="_top" xlink:title=" ">
<polygon fill="white" stroke="red" points="3758.5,-67.5 3758.5,-97.5 3865.5,-97.5 3865.5,-67.5 3758.5,-67.5"/>
<text text-anchor="start" x="3766.5" y="-85.5" font-family="Helvetica,sans-Serif" font-size="10.00">src/libs/vgeometry</text>
<text text-anchor="middle" x="3812" y="-74.5" font-family="Helvetica,sans-Serif" font-size="10.00">/vabstractarc_p.h</text>
</a>
</g>
</g>
<!-- Node20&#45;&gt;Node23 -->
<g id="edge24" class="edge">
<title>Node20&#45;&gt;Node23</title>
<path fill="none" stroke="midnightblue" d="M3757.79,-138.09C3769.89,-125.91 3786.41,-109.27 3798.02,-97.58"/>
<polygon fill="midnightblue" stroke="midnightblue" points="3755.15,-135.79 3750.58,-145.36 3760.11,-140.73 3755.15,-135.79"/>
</g>
<!-- Node25 -->
<g id="node23" class="node">
<title>Node25</title>
<g id="a_node23"><a xlink:href="../../dc/da3/varc__p_8h.html" target="_top" xlink:title=" ">
<polygon fill="white" stroke="red" points="3883.5,-67.5 3883.5,-97.5 3990.5,-97.5 3990.5,-67.5 3883.5,-67.5"/>
<text text-anchor="start" x="3891.5" y="-85.5" font-family="Helvetica,sans-Serif" font-size="10.00">src/libs/vgeometry</text>
<text text-anchor="middle" x="3937" y="-74.5" font-family="Helvetica,sans-Serif" font-size="10.00">/varc_p.h</text>
</a>
</g>
</g>
<!-- Node20&#45;&gt;Node25 -->
<g id="edge25" class="edge">
<title>Node20&#45;&gt;Node25</title>
<path fill="none" stroke="midnightblue" d="M3775.02,-142.06C3809.1,-129.74 3862.22,-110.54 3898.26,-97.51"/>
<polygon fill="midnightblue" stroke="midnightblue" points="3773.74,-138.8 3765.52,-145.5 3776.12,-145.39 3773.74,-138.8"/>
</g>
<!-- Node27 -->
<g id="node24" class="node">
<title>Node27</title>
<g id="a_node24"><a xlink:href="../../d5/d8e/vcubicbezier__p_8h.html" target="_top" xlink:title=" ">
<polygon fill="white" stroke="red" points="4008.5,-67.5 4008.5,-97.5 4115.5,-97.5 4115.5,-67.5 4008.5,-67.5"/>
<text text-anchor="start" x="4016.5" y="-85.5" font-family="Helvetica,sans-Serif" font-size="10.00">src/libs/vgeometry</text>
<text text-anchor="middle" x="4062" y="-74.5" font-family="Helvetica,sans-Serif" font-size="10.00">/vcubicbezier_p.h</text>
</a>
</g>
</g>
<!-- Node20&#45;&gt;Node27 -->
<g id="edge26" class="edge">
<title>Node20&#45;&gt;Node27</title>
<path fill="none" stroke="midnightblue" d="M3792.24,-143.34C3844.27,-132.25 3927.9,-114.25 4000,-98 4002.7,-97.39 4005.46,-96.76 4008.24,-96.13"/>
<polygon fill="midnightblue" stroke="midnightblue" points="3791.32,-139.96 3782.26,-145.47 3792.77,-146.81 3791.32,-139.96"/>
</g>
<!-- Node29 -->
<g id="node25" class="node">
<title>Node29</title>
<g id="a_node25"><a xlink:href="../../df/dde/vellipticalarc__p_8h.html" target="_top" xlink:title=" ">
<polygon fill="white" stroke="black" points="5262.5,-67.5 5262.5,-97.5 5369.5,-97.5 5369.5,-67.5 5262.5,-67.5"/>
<text text-anchor="start" x="5270.5" y="-85.5" font-family="Helvetica,sans-Serif" font-size="10.00">src/libs/vgeometry</text>
<text text-anchor="middle" x="5316" y="-74.5" font-family="Helvetica,sans-Serif" font-size="10.00">/vellipticalarc_p.h</text>
</a>
</g>
</g>
<!-- Node20&#45;&gt;Node29 -->
<g id="edge27" class="edge">
<title>Node20&#45;&gt;Node29</title>
<path fill="none" stroke="midnightblue" d="M3791.12,-143.49C3810.33,-139.81 3832.61,-136.09 3853,-134 4472.64,-70.59 4636.2,-177.33 5254,-98 5256.74,-97.65 5259.54,-97.23 5262.35,-96.75"/>
<polygon fill="midnightblue" stroke="midnightblue" points="3790.23,-140.09 3781.09,-145.45 3791.58,-146.96 3790.23,-140.09"/>
</g>
<!-- Node30 -->
<g id="node26" class="node">
<title>Node30</title>
<g id="a_node26"><a xlink:href="../../d6/dfb/vellipticalarc_8cpp.html" target="_top" xlink:title=" ">
<polygon fill="white" stroke="black" points="4738.5,-0.5 4738.5,-30.5 4845.5,-30.5 4845.5,-0.5 4738.5,-0.5"/>
<text text-anchor="start" x="4746.5" y="-18.5" font-family="Helvetica,sans-Serif" font-size="10.00">src/libs/vgeometry</text>
<text text-anchor="middle" x="4792" y="-7.5" font-family="Helvetica,sans-Serif" font-size="10.00">/vellipticalarc.cpp</text>
</a>
</g>
</g>
<!-- Node20&#45;&gt;Node30 -->
<g id="edge29" class="edge">
<title>Node20&#45;&gt;Node30</title>
<path fill="none" stroke="midnightblue" d="M3794.28,-143.6C3812.78,-140.19 3833.76,-136.6 3853,-134 4028.57,-110.27 4085.54,-163.88 4250,-98 4270.55,-89.77 4268.49,-75.33 4289,-67 4369.4,-34.34 4625.73,-22.01 4738.21,-18.08"/>
<polygon fill="midnightblue" stroke="midnightblue" points="3793.48,-140.19 3784.29,-145.48 3794.77,-147.07 3793.48,-140.19"/>
</g>
<!-- Node31 -->
<g id="node27" class="node">
<title>Node31</title>
<g id="a_node27"><a xlink:href="../../d1/d76/vspline__p_8h.html" target="_top" xlink:title=" ">
<polygon fill="white" stroke="red" points="4297.5,-67.5 4297.5,-97.5 4404.5,-97.5 4404.5,-67.5 4297.5,-67.5"/>
<text text-anchor="start" x="4305.5" y="-85.5" font-family="Helvetica,sans-Serif" font-size="10.00">src/libs/vgeometry</text>
<text text-anchor="middle" x="4351" y="-74.5" font-family="Helvetica,sans-Serif" font-size="10.00">/vspline_p.h</text>
</a>
</g>
</g>
<!-- Node20&#45;&gt;Node31 -->
<g id="edge30" class="edge">
<title>Node20&#45;&gt;Node31</title>
<path fill="none" stroke="midnightblue" d="M3794.04,-143.57C3812.59,-140.14 3833.67,-136.54 3853,-134 4043.14,-108.97 4093.28,-126.05 4283,-98 4287.66,-97.31 4292.47,-96.5 4297.29,-95.61"/>
<polygon fill="midnightblue" stroke="midnightblue" points="3793.2,-140.17 3784.02,-145.46 3794.5,-147.05 3793.2,-140.17"/>
</g>
<!-- Node33 -->
<g id="node28" class="node">
<title>Node33</title>
<g id="a_node28"><a xlink:href="../../d9/d15/vabstractpiece_8cpp.html" target="_top" xlink:title=" ">
<polygon fill="white" stroke="black" points="4423,-73 4423,-92 4609,-92 4609,-73 4423,-73"/>
<text text-anchor="middle" x="4516" y="-80" font-family="Helvetica,sans-Serif" font-size="10.00">src/libs/vlayout/vabstractpiece.cpp</text>
</a>
</g>
</g>
<!-- Node20&#45;&gt;Node33 -->
<g id="edge31" class="edge">
<title>Node20&#45;&gt;Node33</title>
<path fill="none" stroke="midnightblue" d="M3792.81,-143.59C3811.64,-140.06 3833.23,-136.41 3853,-134 4101.01,-103.8 4165.47,-123.6 4414,-98 4429.48,-96.41 4446.22,-94.22 4461.57,-92.03"/>
<polygon fill="midnightblue" stroke="midnightblue" points="3792.11,-140.16 3782.95,-145.47 3793.43,-147.03 3792.11,-140.16"/>
</g>
<!-- Node34 -->
<g id="node29" class="node">
<title>Node34</title>
<g id="a_node29"><a xlink:href="../../db/d65/dialogexporttocsv_8cpp.html" target="_top" xlink:title=" ">
<polygon fill="white" stroke="black" points="4627.5,-67.5 4627.5,-97.5 4754.5,-97.5 4754.5,-67.5 4627.5,-67.5"/>
<text text-anchor="start" x="4635.5" y="-85.5" font-family="Helvetica,sans-Serif" font-size="10.00">src/libs/vmisc/dialogs</text>
<text text-anchor="middle" x="4691" y="-74.5" font-family="Helvetica,sans-Serif" font-size="10.00">/dialogexporttocsv.cpp</text>
</a>
</g>
</g>
<!-- Node20&#45;&gt;Node34 -->
<g id="edge34" class="edge">
<title>Node20&#45;&gt;Node34</title>
<path fill="none" stroke="midnightblue" d="M3792.08,-143.54C3811.08,-139.95 3832.96,-136.27 3853,-134 4191.22,-95.74 4280.14,-139.27 4618,-98 4621.08,-97.62 4624.22,-97.19 4627.39,-96.72"/>
<polygon fill="midnightblue" stroke="midnightblue" points="3791.3,-140.12 3782.15,-145.45 3792.63,-147 3791.3,-140.12"/>
</g>
<!-- Node35 -->
<g id="node30" class="node">
<title>Node35</title>
<g id="a_node30"><a xlink:href="../../d6/d0b/def_8cpp.html" target="_top" xlink:title=" ">
<polygon fill="white" stroke="black" points="4773,-73 4773,-92 4895,-92 4895,-73 4773,-73"/>
<text text-anchor="middle" x="4834" y="-80" font-family="Helvetica,sans-Serif" font-size="10.00">src/libs/vmisc/def.cpp</text>
</a>
</g>
</g>
<!-- Node20&#45;&gt;Node35 -->
<g id="edge35" class="edge">
<title>Node20&#45;&gt;Node35</title>
<path fill="none" stroke="midnightblue" d="M3791.61,-143.54C3810.71,-139.92 3832.79,-136.21 3853,-134 4255.81,-89.97 4361.8,-147.26 4764,-98 4775.33,-96.61 4787.56,-94.35 4798.58,-92.02"/>
<polygon fill="midnightblue" stroke="midnightblue" points="3790.77,-140.14 3781.62,-145.48 3792.11,-147.01 3790.77,-140.14"/>
</g>
<!-- Node36 -->
<g id="node31" class="node">
<title>Node36</title>
<g id="a_node31"><a xlink:href="../../d0/df6/vabstractapplication_8cpp.html" target="_top" xlink:title=" ">
<polygon fill="white" stroke="black" points="4913,-73 4913,-92 5119,-92 5119,-73 4913,-73"/>
<text text-anchor="middle" x="5016" y="-80" font-family="Helvetica,sans-Serif" font-size="10.00">src/libs/vmisc/vabstractapplication.cpp</text>
</a>
</g>
</g>
<!-- Node20&#45;&gt;Node36 -->
<g id="edge36" class="edge">
<title>Node20&#45;&gt;Node36</title>
<path fill="none" stroke="midnightblue" d="M3791.37,-143.53C3810.52,-139.88 3832.7,-136.17 3853,-134 4317.75,-84.43 4438.17,-136.05 4904,-98 4921.69,-96.56 4940.86,-94.32 4958.27,-92.03"/>
<polygon fill="midnightblue" stroke="midnightblue" points="3790.5,-140.13 3781.36,-145.48 3791.84,-147 3790.5,-140.13"/>
</g>
<!-- Node37 -->
<g id="node32" class="node">
<title>Node37</title>
<g id="a_node32"><a xlink:href="../../d4/d4f/pmsystems_8cpp.html" target="_top" xlink:title=" ">
<polygon fill="white" stroke="black" points="5137.5,-67.5 5137.5,-97.5 5244.5,-97.5 5244.5,-67.5 5137.5,-67.5"/>
<text text-anchor="start" x="5145.5" y="-85.5" font-family="Helvetica,sans-Serif" font-size="10.00">src/libs/vpatterndb</text>
<text text-anchor="middle" x="5191" y="-74.5" font-family="Helvetica,sans-Serif" font-size="10.00">/pmsystems.cpp</text>
</a>
</g>
</g>
<!-- Node20&#45;&gt;Node37 -->
<g id="edge37" class="edge">
<title>Node20&#45;&gt;Node37</title>
<path fill="none" stroke="midnightblue" d="M3791.13,-143.51C3810.34,-139.84 3832.61,-136.11 3853,-134 4416.87,-75.57 4565.69,-169.93 5128,-98 5131.01,-97.62 5134.08,-97.15 5137.17,-96.63"/>
<polygon fill="midnightblue" stroke="midnightblue" points="3790.24,-140.12 3781.09,-145.48 3791.58,-146.99 3790.24,-140.12"/>
</g>
<!-- Node20&#45;&gt;Node38 -->
<g id="edge38" class="edge">
<title>Node20&#45;&gt;Node38</title>
<path fill="none" stroke="midnightblue" d="M3790.65,-143.51C3809.96,-139.8 3832.44,-136.04 3853,-134 4252.44,-94.29 5260.71,-147.98 5659,-98 5661.74,-97.66 5664.54,-97.24 5667.36,-96.77"/>
<polygon fill="midnightblue" stroke="midnightblue" points="3789.71,-140.13 3780.57,-145.5 3791.06,-147 3789.71,-140.13"/>
</g>
<!-- Node20&#45;&gt;Node39 -->
<g id="edge39" class="edge">
<title>Node20&#45;&gt;Node39</title>
<path fill="none" stroke="midnightblue" d="M3634.34,-152.71C3267.46,-148.08 2067.55,-130.72 1683,-98 1667.56,-96.69 1650.87,-94.58 1635.59,-92.37"/>
<polygon fill="midnightblue" stroke="midnightblue" points="3634.39,-156.22 3644.43,-152.84 3634.47,-149.22 3634.39,-156.22"/>
</g>
<!-- Node40 -->
<g id="node35" class="node">
<title>Node40</title>
<g id="a_node35"><a xlink:href="../../df/dba/vpiecenode__p_8h.html" target="_top" xlink:title=" ">
<polygon fill="white" stroke="black" points="4133.5,-67.5 4133.5,-97.5 4240.5,-97.5 4240.5,-67.5 4133.5,-67.5"/>
<text text-anchor="start" x="4141.5" y="-85.5" font-family="Helvetica,sans-Serif" font-size="10.00">src/libs/vpatterndb</text>
<text text-anchor="middle" x="4187" y="-74.5" font-family="Helvetica,sans-Serif" font-size="10.00">/vpiecenode_p.h</text>
</a>
</g>
</g>
<!-- Node20&#45;&gt;Node40 -->
<g id="edge41" class="edge">
<title>Node20&#45;&gt;Node40</title>
<path fill="none" stroke="midnightblue" d="M3796.5,-143.66C3814.46,-140.39 3834.56,-136.88 3853,-134 3973.48,-115.18 4005.04,-119.91 4125,-98 4127.72,-97.5 4130.5,-96.97 4133.3,-96.4"/>
<polygon fill="midnightblue" stroke="midnightblue" points="3795.68,-140.25 3786.48,-145.5 3796.95,-147.13 3795.68,-140.25"/>
</g>
<!-- Node42 -->
<g id="node37" class="node">
<title>Node42</title>
<g id="a_node37"><a xlink:href="../../de/d3e/vtranslatevars_8cpp.html" target="_top" xlink:title=" ">
<polygon fill="white" stroke="black" points="5388,-67.5 5388,-97.5 5498,-97.5 5498,-67.5 5388,-67.5"/>
<text text-anchor="start" x="5396" y="-85.5" font-family="Helvetica,sans-Serif" font-size="10.00">src/libs/vpatterndb</text>
<text text-anchor="middle" x="5443" y="-74.5" font-family="Helvetica,sans-Serif" font-size="10.00">/vtranslatevars.cpp</text>
</a>
</g>
</g>
<!-- Node20&#45;&gt;Node42 -->
<g id="edge43" class="edge">
<title>Node20&#45;&gt;Node42</title>
<path fill="none" stroke="midnightblue" d="M3790.89,-143.51C3810.15,-139.82 3832.52,-136.07 3853,-134 4527.96,-65.65 4705.73,-181.36 5379,-98 5381.94,-97.64 5384.94,-97.2 5387.96,-96.7"/>
<polygon fill="midnightblue" stroke="midnightblue" points="3789.97,-140.12 3780.83,-145.48 3791.32,-146.99 3789.97,-140.12"/>
</g>
<!-- Node43 -->
<g id="node38" class="node">
<title>Node43</title>
<g id="a_node38"><a xlink:href="../../df/d40/export__format__combobox_8cpp.html" target="_top" xlink:title=" ">
<polygon fill="white" stroke="black" points="5516.5,-67.5 5516.5,-97.5 5649.5,-97.5 5649.5,-67.5 5516.5,-67.5"/>
<text text-anchor="start" x="5524.5" y="-85.5" font-family="Helvetica,sans-Serif" font-size="10.00">src/libs/vwidgets/export</text>
<text text-anchor="middle" x="5583" y="-74.5" font-family="Helvetica,sans-Serif" font-size="10.00">_format_combobox.cpp</text>
</a>
</g>
</g>
<!-- Node20&#45;&gt;Node43 -->
<g id="edge44" class="edge">
<title>Node20&#45;&gt;Node43</title>
<path fill="none" stroke="midnightblue" d="M3790.89,-143.49C3810.15,-139.79 3832.52,-136.06 3853,-134 4584.61,-60.58 4775.78,-175.17 5507,-98 5510.07,-97.68 5513.21,-97.29 5516.37,-96.86"/>
<polygon fill="midnightblue" stroke="midnightblue" points="3789.97,-140.1 3780.83,-145.47 3791.32,-146.97 3789.97,-140.1"/>
</g>
<!-- Node44 -->
<g id="node39" class="node">
<title>Node44</title>
<g id="a_node39"><a xlink:href="../../d2/d28/page__format__combobox_8cpp.html" target="_top" xlink:title=" ">
<polygon fill="white" stroke="black" points="1892.5,-67.5 1892.5,-97.5 2023.5,-97.5 2023.5,-67.5 1892.5,-67.5"/>
<text text-anchor="start" x="1900.5" y="-85.5" font-family="Helvetica,sans-Serif" font-size="10.00">src/libs/vwidgets/page</text>
<text text-anchor="middle" x="1958" y="-74.5" font-family="Helvetica,sans-Serif" font-size="10.00">_format_combobox.cpp</text>
</a>
</g>
</g>
<!-- Node20&#45;&gt;Node44 -->
<g id="edge45" class="edge">
<title>Node20&#45;&gt;Node44</title>
<path fill="none" stroke="midnightblue" d="M3633.96,-152.7C3309.22,-148.43 2345.17,-133.07 2033,-98 2029.97,-97.66 2026.88,-97.26 2023.76,-96.82"/>
<polygon fill="midnightblue" stroke="midnightblue" points="3634.26,-156.2 3644.31,-152.83 3634.35,-149.2 3634.26,-156.2"/>
</g>
<!-- Node45 -->
<g id="node40" class="node">
<title>Node45</title>
<g id="a_node40"><a xlink:href="../../d3/d4f/mouse__coordinates_8cpp.html" target="_top" xlink:title=" ">
<polygon fill="white" stroke="black" points="2042,-67.5 2042,-97.5 2176,-97.5 2176,-67.5 2042,-67.5"/>
<text text-anchor="start" x="2050" y="-85.5" font-family="Helvetica,sans-Serif" font-size="10.00">src/libs/vwidgets/mouse</text>
<text text-anchor="middle" x="2109" y="-74.5" font-family="Helvetica,sans-Serif" font-size="10.00">_coordinates.cpp</text>
</a>
</g>
</g>
<!-- Node20&#45;&gt;Node45 -->
<g id="edge46" class="edge">
<title>Node20&#45;&gt;Node45</title>
<path fill="none" stroke="midnightblue" d="M3634.2,-152.23C3329.76,-146.89 2467.32,-129.37 2186,-98 2182.76,-97.64 2179.44,-97.22 2176.1,-96.75"/>
<polygon fill="midnightblue" stroke="midnightblue" points="3634.3,-155.73 3644.36,-152.41 3634.42,-148.73 3634.3,-155.73"/>
</g>
<!-- Node46 -->
<g id="node41" class="node">
<title>Node46</title>
<g id="a_node41"><a xlink:href="../../d7/d1b/pen__toolbar_8cpp.html" target="_top" xlink:title=" ">
<polygon fill="white" stroke="black" points="2194.5,-67.5 2194.5,-97.5 2313.5,-97.5 2313.5,-67.5 2194.5,-67.5"/>
<text text-anchor="start" x="2202.5" y="-85.5" font-family="Helvetica,sans-Serif" font-size="10.00">src/libs/vwidgets/pen</text>
<text text-anchor="middle" x="2254" y="-74.5" font-family="Helvetica,sans-Serif" font-size="10.00">_toolbar.cpp</text>
</a>
</g>
</g>
<!-- Node20&#45;&gt;Node46 -->
<g id="edge47" class="edge">
<title>Node20&#45;&gt;Node46</title>
<path fill="none" stroke="midnightblue" d="M3634.05,-152.08C3348.21,-146.64 2576.32,-129.39 2323,-98 2319.96,-97.62 2316.86,-97.18 2313.74,-96.69"/>
<polygon fill="midnightblue" stroke="midnightblue" points="3634.36,-155.59 3644.42,-152.28 3634.49,-148.59 3634.36,-155.59"/>
</g>
<!-- Node47 -->
<g id="node42" class="node">
<title>Node47</title>
<g id="a_node42"><a xlink:href="../../d8/d76/scene__rect_8cpp.html" target="_top" xlink:title=" ">
<polygon fill="white" stroke="black" points="2332,-67.5 2332,-97.5 2462,-97.5 2462,-67.5 2332,-67.5"/>
<text text-anchor="start" x="2340" y="-85.5" font-family="Helvetica,sans-Serif" font-size="10.00">src/libs/vwidgets/scene</text>
<text text-anchor="middle" x="2397" y="-74.5" font-family="Helvetica,sans-Serif" font-size="10.00">_rect.cpp</text>
</a>
</g>
</g>
<!-- Node20&#45;&gt;Node47 -->
<g id="edge48" class="edge">
<title>Node20&#45;&gt;Node47</title>
<path fill="none" stroke="midnightblue" d="M3634.19,-154.57C3414.65,-154.56 2900.27,-148.56 2472,-98 2468.84,-97.63 2465.61,-97.2 2462.36,-96.72"/>
<polygon fill="midnightblue" stroke="midnightblue" points="3634.42,-158.07 3644.42,-154.57 3634.42,-151.07 3634.42,-158.07"/>
</g>
<!-- Node48 -->
<g id="node43" class="node">
<title>Node48</title>
<g id="a_node43"><a xlink:href="../../dd/df6/vabstractmainwindow_8cpp.html" target="_top" xlink:title=" ">
<polygon fill="white" stroke="black" points="2480.5,-73 2480.5,-92 2709.5,-92 2709.5,-73 2480.5,-73"/>
<text text-anchor="middle" x="2595" y="-80" font-family="Helvetica,sans-Serif" font-size="10.00">src/libs/vwidgets/vabstractmainwindow.cpp</text>
</a>
</g>
</g>
<!-- Node20&#45;&gt;Node48 -->
<g id="edge49" class="edge">
<title>Node20&#45;&gt;Node48</title>
<path fill="none" stroke="midnightblue" d="M3634.08,-150.28C3447.36,-143.37 3052.03,-126.56 2719,-98 2700.21,-96.39 2679.87,-94.2 2661.21,-92.01"/>
<polygon fill="midnightblue" stroke="midnightblue" points="3634.05,-153.79 3644.18,-150.66 3634.31,-146.79 3634.05,-153.79"/>
</g>
<!-- Node49 -->
<g id="node44" class="node">
<title>Node49</title>
<g id="a_node44"><a xlink:href="../../de/d45/vcontrolpointspline_8cpp.html" target="_top" xlink:title=" ">
<polygon fill="white" stroke="black" points="2727.5,-73 2727.5,-92 2942.5,-92 2942.5,-73 2727.5,-73"/>
<text text-anchor="middle" x="2835" y="-80" font-family="Helvetica,sans-Serif" font-size="10.00">src/libs/vwidgets/vcontrolpointspline.cpp</text>
</a>
</g>
</g>
<!-- Node20&#45;&gt;Node49 -->
<g id="edge50" class="edge">
<title>Node20&#45;&gt;Node49</title>
<path fill="none" stroke="midnightblue" d="M3633.98,-148.14C3481.7,-139.48 3195.31,-121.68 2952,-98 2934.68,-96.31 2915.97,-94.15 2898.69,-92.01"/>
<polygon fill="midnightblue" stroke="midnightblue" points="3634.08,-151.66 3644.26,-148.73 3634.47,-144.67 3634.08,-151.66"/>
</g>
<!-- Node50 -->
<g id="node45" class="node">
<title>Node50</title>
<g id="a_node45"><a xlink:href="../../de/dec/vgraphicssimpletextitem_8cpp.html" target="_top" xlink:title=" ">
<polygon fill="white" stroke="black" points="2961,-73 2961,-92 3205,-92 3205,-73 2961,-73"/>
<text text-anchor="middle" x="3083" y="-80" font-family="Helvetica,sans-Serif" font-size="10.00">src/libs/vwidgets/vgraphicssimpletextitem.cpp</text>
</a>
</g>
</g>
<!-- Node20&#45;&gt;Node50 -->
<g id="edge51" class="edge">
<title>Node20&#45;&gt;Node50</title>
<path fill="none" stroke="midnightblue" d="M3650.48,-144.37C3545.36,-133.3 3367.71,-114.5 3215,-98 3197.24,-96.08 3178.13,-93.99 3160.12,-92.02"/>
<polygon fill="midnightblue" stroke="midnightblue" points="3650.43,-147.89 3660.74,-145.46 3651.16,-140.93 3650.43,-147.89"/>
</g>
<!-- Node51 -->
<g id="node46" class="node">
<title>Node51</title>
<g id="a_node46"><a xlink:href="../../d1/d90/vgrainlineitem_8cpp.html" target="_top" xlink:title=" ">
<polygon fill="white" stroke="black" points="3223.5,-73 3223.5,-92 3416.5,-92 3416.5,-73 3223.5,-73"/>
<text text-anchor="middle" x="3320" y="-80" font-family="Helvetica,sans-Serif" font-size="10.00">src/libs/vwidgets/vgrainlineitem.cpp</text>
</a>
</g>
</g>
<!-- Node20&#45;&gt;Node51 -->
<g id="edge52" class="edge">
<title>Node20&#45;&gt;Node51</title>
<path fill="none" stroke="midnightblue" d="M3681,-143.81C3597.48,-129.86 3449.06,-105.06 3371.08,-92.03"/>
<polygon fill="midnightblue" stroke="midnightblue" points="3680.66,-147.3 3691.1,-145.5 3681.81,-140.4 3680.66,-147.3"/>
</g>
<!-- Node29&#45;&gt;Node30 -->
<g id="edge28" class="edge">
<title>Node29&#45;&gt;Node30</title>
<path fill="none" stroke="midnightblue" d="M5252.29,-66.83C5099.78,-41.27 4930.21,-26.62 4845.65,-20.25"/>
<polygon fill="midnightblue" stroke="midnightblue" points="5251.87,-70.3 5262.31,-68.53 5253.04,-63.4 5251.87,-70.3"/>
</g>
<!-- Node40&#45;&gt;Node41 -->
<g id="edge42" class="edge">
<title>Node40&#45;&gt;Node41</title>
<path fill="none" stroke="midnightblue" d="M4123.09,-66.94C3878.57,-35.64 3178.55,-21.05 2978.78,-17.42"/>
<polygon fill="midnightblue" stroke="midnightblue" points="4122.97,-70.46 4133.35,-68.3 4123.89,-63.52 4122.97,-70.46"/>
</g>
</g>
</svg>
