<?xml version="1.0" encoding="UTF-8" standalone="no"?>
<!DOCTYPE svg PUBLIC "-//W3C//DTD SVG 1.1//EN"
 "http://www.w3.org/Graphics/SVG/1.1/DTD/svg11.dtd">
<!-- Generated by graphviz version 2.43.0 (0)
 -->
<!-- Title: src/libs/vpatterndb/vpiecepath.h Pages: 1 -->
<svg width="6631pt" height="318pt"
 viewBox="0.00 0.00 6630.50 318.00" xmlns="http://www.w3.org/2000/svg" xmlns:xlink="http://www.w3.org/1999/xlink">
<g id="graph0" class="graph" transform="scale(1 1) rotate(0) translate(4 314)">
<title>src/libs/vpatterndb/vpiecepath.h</title>
<polygon fill="white" stroke="transparent" points="-4,4 -4,-314 6626.5,-314 6626.5,4 -4,4"/>
<!-- Node1 -->
<g id="node1" class="node">
<title>Node1</title>
<g id="a_node1"><a xlink:title=" ">
<polygon fill="#bfbfbf" stroke="black" points="6349.5,-279.5 6349.5,-309.5 6456.5,-309.5 6456.5,-279.5 6349.5,-279.5"/>
<text text-anchor="start" x="6357.5" y="-297.5" font-family="Helvetica,sans-Serif" font-size="10.00">src/libs/vpatterndb</text>
<text text-anchor="middle" x="6403" y="-286.5" font-family="Helvetica,sans-Serif" font-size="10.00">/vpiecepath.h</text>
</a>
</g>
</g>
<!-- Node2 -->
<g id="node2" class="node">
<title>Node2</title>
<g id="a_node2"><a xlink:href="../../d3/df7/vcontainer_8h.html" target="_top" xlink:title=" ">
<polygon fill="white" stroke="black" points="5577.5,-212.5 5577.5,-242.5 5684.5,-242.5 5684.5,-212.5 5577.5,-212.5"/>
<text text-anchor="start" x="5585.5" y="-230.5" font-family="Helvetica,sans-Serif" font-size="10.00">src/libs/vpatterndb</text>
<text text-anchor="middle" x="5631" y="-219.5" font-family="Helvetica,sans-Serif" font-size="10.00">/vcontainer.h</text>
</a>
</g>
</g>
<!-- Node1&#45;&gt;Node2 -->
<g id="edge1" class="edge">
<title>Node1&#45;&gt;Node2</title>
<path fill="none" stroke="midnightblue" d="M6338.99,-288.11C6190.08,-275.57 5822.62,-244.63 5684.57,-233.01"/>
<polygon fill="midnightblue" stroke="midnightblue" points="6339.07,-291.63 6349.33,-288.98 6339.66,-284.65 6339.07,-291.63"/>
</g>
<!-- Node59 -->
<g id="node46" class="node">
<title>Node59</title>
<g id="a_node46"><a xlink:href="../../d6/d91/vnodedetail_8cpp.html" target="_top" xlink:title=" ">
<polygon fill="white" stroke="black" points="6319.5,-140 6319.5,-170 6426.5,-170 6426.5,-140 6319.5,-140"/>
<text text-anchor="start" x="6327.5" y="-158" font-family="Helvetica,sans-Serif" font-size="10.00">src/libs/vpatterndb</text>
<text text-anchor="middle" x="6373" y="-147" font-family="Helvetica,sans-Serif" font-size="10.00">/vnodedetail.cpp</text>
</a>
</g>
</g>
<!-- Node1&#45;&gt;Node59 -->
<g id="edge59" class="edge">
<title>Node1&#45;&gt;Node59</title>
<path fill="none" stroke="midnightblue" d="M6397.72,-269.29C6391.46,-240.61 6381.24,-193.78 6376.13,-170.33"/>
<polygon fill="midnightblue" stroke="midnightblue" points="6394.35,-270.28 6399.9,-279.3 6401.19,-268.79 6394.35,-270.28"/>
</g>
<!-- Node60 -->
<g id="node47" class="node">
<title>Node60</title>
<g id="a_node47"><a xlink:href="../../da/de1/vpiecepath_8cpp.html" target="_top" xlink:title=" ">
<polygon fill="white" stroke="black" points="6444.5,-140 6444.5,-170 6551.5,-170 6551.5,-140 6444.5,-140"/>
<text text-anchor="start" x="6452.5" y="-158" font-family="Helvetica,sans-Serif" font-size="10.00">src/libs/vpatterndb</text>
<text text-anchor="middle" x="6498" y="-147" font-family="Helvetica,sans-Serif" font-size="10.00">/vpiecepath.cpp</text>
</a>
</g>
</g>
<!-- Node1&#45;&gt;Node60 -->
<g id="edge62" class="edge">
<title>Node1&#45;&gt;Node60</title>
<path fill="none" stroke="midnightblue" d="M6418.69,-270.79C6438.4,-242.26 6471.62,-194.19 6488.1,-170.33"/>
<polygon fill="midnightblue" stroke="midnightblue" points="6415.61,-269.09 6412.81,-279.3 6421.37,-273.07 6415.61,-269.09"/>
</g>
<!-- Node63 -->
<g id="node50" class="node">
<title>Node63</title>
<g id="a_node50"><a xlink:href="../../d8/da5/vpiece__p_8h.html" target="_top" xlink:title=" ">
<polygon fill="white" stroke="black" points="6515.5,-212.5 6515.5,-242.5 6622.5,-242.5 6622.5,-212.5 6515.5,-212.5"/>
<text text-anchor="start" x="6523.5" y="-230.5" font-family="Helvetica,sans-Serif" font-size="10.00">src/libs/vpatterndb</text>
<text text-anchor="middle" x="6569" y="-219.5" font-family="Helvetica,sans-Serif" font-size="10.00">/vpiece_p.h</text>
</a>
</g>
</g>
<!-- Node1&#45;&gt;Node63 -->
<g id="edge60" class="edge">
<title>Node1&#45;&gt;Node63</title>
<path fill="none" stroke="midnightblue" d="M6448.51,-275.68C6475.13,-265.26 6508.27,-252.28 6533.05,-242.58"/>
<polygon fill="midnightblue" stroke="midnightblue" points="6447.05,-272.49 6439.02,-279.4 6449.61,-279.01 6447.05,-272.49"/>
</g>
<!-- Node3 -->
<g id="node3" class="node">
<title>Node3</title>
<g id="a_node3"><a xlink:href="../../dc/db7/measurements_8h.html" target="_top" xlink:title=" ">
<polygon fill="white" stroke="black" points="169.5,-145.5 169.5,-164.5 348.5,-164.5 348.5,-145.5 169.5,-145.5"/>
<text text-anchor="middle" x="259" y="-152.5" font-family="Helvetica,sans-Serif" font-size="10.00">src/libs/vformat/measurements.h</text>
</a>
</g>
</g>
<!-- Node2&#45;&gt;Node3 -->
<g id="edge2" class="edge">
<title>Node2&#45;&gt;Node3</title>
<path fill="none" stroke="midnightblue" d="M5567.16,-226.72C5143,-228.01 2687.83,-232.68 689,-176 571.34,-172.66 435.7,-165.86 348.73,-161.12"/>
<polygon fill="midnightblue" stroke="midnightblue" points="5567.39,-230.22 5577.38,-226.69 5567.37,-223.22 5567.39,-230.22"/>
</g>
<!-- Node4 -->
<g id="node4" class="node">
<title>Node4</title>
<g id="a_node4"><a xlink:href="../../d9/de3/measurements_8cpp.html" target="_top" xlink:title=" ">
<polygon fill="white" stroke="black" points="0,-73 0,-92 190,-92 190,-73 0,-73"/>
<text text-anchor="middle" x="95" y="-80" font-family="Helvetica,sans-Serif" font-size="10.00">src/libs/vformat/measurements.cpp</text>
</a>
</g>
</g>
<!-- Node2&#45;&gt;Node4 -->
<g id="edge4" class="edge">
<title>Node2&#45;&gt;Node4</title>
<path fill="none" stroke="midnightblue" d="M5567.37,-226.22C5038.09,-223.83 1373.16,-206.27 885,-176 607.63,-158.8 278.13,-111.48 149.89,-92.02"/>
<polygon fill="midnightblue" stroke="midnightblue" points="5567.48,-229.72 5577.49,-226.26 5567.51,-222.72 5567.48,-229.72"/>
</g>
<!-- Node5 -->
<g id="node5" class="node">
<title>Node5</title>
<g id="a_node5"><a xlink:href="../../d6/de0/vlayoutpiece_8h.html" target="_top" xlink:title=" ">
<polygon fill="white" stroke="black" points="894,-145.5 894,-164.5 1060,-164.5 1060,-145.5 894,-145.5"/>
<text text-anchor="middle" x="977" y="-152.5" font-family="Helvetica,sans-Serif" font-size="10.00">src/libs/vlayout/vlayoutpiece.h</text>
</a>
</g>
</g>
<!-- Node2&#45;&gt;Node5 -->
<g id="edge5" class="edge">
<title>Node2&#45;&gt;Node5</title>
<path fill="none" stroke="midnightblue" d="M5566.98,-225.53C5055.65,-217.78 1639.05,-166.03 1060.24,-157.26"/>
<polygon fill="midnightblue" stroke="midnightblue" points="5567.07,-229.03 5577.12,-225.68 5567.18,-222.03 5567.07,-229.03"/>
</g>
<!-- Node15 -->
<g id="node14" class="node">
<title>Node15</title>
<g id="a_node14"><a xlink:href="../../d8/d70/vtextmanager_8cpp.html" target="_top" xlink:title=" ">
<polygon fill="white" stroke="black" points="1529,-73 1529,-92 1711,-92 1711,-73 1529,-73"/>
<text text-anchor="middle" x="1620" y="-80" font-family="Helvetica,sans-Serif" font-size="10.00">src/libs/vlayout/vtextmanager.cpp</text>
</a>
</g>
</g>
<!-- Node2&#45;&gt;Node15 -->
<g id="edge16" class="edge">
<title>Node2&#45;&gt;Node15</title>
<path fill="none" stroke="midnightblue" d="M5567.1,-225.55C5304.37,-221.51 4281.64,-204.74 3441,-176 2675.77,-149.84 2482.25,-170.36 1720,-98 1704.28,-96.51 1687.26,-94.27 1671.78,-92"/>
<polygon fill="midnightblue" stroke="midnightblue" points="5567.17,-229.05 5577.22,-225.7 5567.27,-222.05 5567.17,-229.05"/>
</g>
<!-- Node16 -->
<g id="node15" class="node">
<title>Node16</title>
<g id="a_node15"><a xlink:href="../../d5/d74/vabstractapplication_8h.html" target="_top" xlink:title=" ">
<polygon fill="white" stroke="red" points="3450.5,-145.5 3450.5,-164.5 3645.5,-164.5 3645.5,-145.5 3450.5,-145.5"/>
<text text-anchor="middle" x="3548" y="-152.5" font-family="Helvetica,sans-Serif" font-size="10.00">src/libs/vmisc/vabstractapplication.h</text>
</a>
</g>
</g>
<!-- Node2&#45;&gt;Node16 -->
<g id="edge17" class="edge">
<title>Node2&#45;&gt;Node16</title>
<path fill="none" stroke="midnightblue" d="M5567.2,-224.34C5268.56,-214.23 4008.05,-171.57 3645.76,-159.31"/>
<polygon fill="midnightblue" stroke="midnightblue" points="5567.3,-227.85 5577.42,-224.69 5567.54,-220.85 5567.3,-227.85"/>
</g>
<!-- Node34 -->
<g id="node29" class="node">
<title>Node34</title>
<g id="a_node29"><a xlink:href="../../db/d11/vformula_8cpp.html" target="_top" xlink:title=" ">
<polygon fill="white" stroke="black" points="5482.5,-67.5 5482.5,-97.5 5589.5,-97.5 5589.5,-67.5 5482.5,-67.5"/>
<text text-anchor="start" x="5490.5" y="-85.5" font-family="Helvetica,sans-Serif" font-size="10.00">src/libs/vpatterndb</text>
<text text-anchor="middle" x="5536" y="-74.5" font-family="Helvetica,sans-Serif" font-size="10.00">/vformula.cpp</text>
</a>
</g>
</g>
<!-- Node2&#45;&gt;Node34 -->
<g id="edge51" class="edge">
<title>Node2&#45;&gt;Node34</title>
<path fill="none" stroke="midnightblue" d="M5611.44,-204.68C5604.06,-196.01 5595.8,-185.79 5589,-176 5570.63,-149.55 5552.75,-116.32 5543.18,-97.75"/>
<polygon fill="midnightblue" stroke="midnightblue" points="5608.98,-207.18 5618.18,-212.44 5614.27,-202.59 5608.98,-207.18"/>
</g>
<!-- Node36 -->
<g id="node31" class="node">
<title>Node36</title>
<g id="a_node31"><a xlink:href="../../d8/dba/vpiecenode_8cpp.html" target="_top" xlink:title=" ">
<polygon fill="white" stroke="black" points="4685.5,-0.5 4685.5,-30.5 4792.5,-30.5 4792.5,-0.5 4685.5,-0.5"/>
<text text-anchor="start" x="4693.5" y="-18.5" font-family="Helvetica,sans-Serif" font-size="10.00">src/libs/vpatterndb</text>
<text text-anchor="middle" x="4739" y="-7.5" font-family="Helvetica,sans-Serif" font-size="10.00">/vpiecenode.cpp</text>
</a>
</g>
</g>
<!-- Node2&#45;&gt;Node36 -->
<g id="edge53" class="edge">
<title>Node2&#45;&gt;Node36</title>
<path fill="none" stroke="midnightblue" d="M5634.4,-202.6C5638.71,-181.36 5648.26,-151.11 5669,-134 5734.53,-79.95 5906.68,-128.42 5848,-67 5811.18,-28.46 5009.64,-18.82 4792.72,-16.91"/>
<polygon fill="midnightblue" stroke="midnightblue" points="5630.94,-202.02 5632.63,-212.48 5637.84,-203.25 5630.94,-202.02"/>
</g>
<!-- Node37 -->
<g id="node32" class="node">
<title>Node37</title>
<g id="a_node32"><a xlink:href="../../d6/d46/vcontainer_8cpp.html" target="_top" xlink:title=" ">
<polygon fill="white" stroke="black" points="5607.5,-67.5 5607.5,-97.5 5714.5,-97.5 5714.5,-67.5 5607.5,-67.5"/>
<text text-anchor="start" x="5615.5" y="-85.5" font-family="Helvetica,sans-Serif" font-size="10.00">src/libs/vpatterndb</text>
<text text-anchor="middle" x="5661" y="-74.5" font-family="Helvetica,sans-Serif" font-size="10.00">/vcontainer.cpp</text>
</a>
</g>
</g>
<!-- Node2&#45;&gt;Node37 -->
<g id="edge54" class="edge">
<title>Node2&#45;&gt;Node37</title>
<path fill="none" stroke="midnightblue" d="M5612.41,-204.14C5606.62,-195.83 5600.97,-185.98 5598,-176 5592.67,-158.11 5589.92,-150.83 5598,-134 5605.46,-118.46 5620.3,-106.19 5633.7,-97.64"/>
<polygon fill="midnightblue" stroke="midnightblue" points="5609.61,-206.25 5618.39,-212.19 5615.23,-202.07 5609.61,-206.25"/>
</g>
<!-- Node38 -->
<g id="node33" class="node">
<title>Node38</title>
<g id="a_node33"><a xlink:href="../../df/d7a/vpiece_8cpp.html" target="_top" xlink:title=" ">
<polygon fill="white" stroke="black" points="5732.5,-67.5 5732.5,-97.5 5839.5,-97.5 5839.5,-67.5 5732.5,-67.5"/>
<text text-anchor="start" x="5740.5" y="-85.5" font-family="Helvetica,sans-Serif" font-size="10.00">src/libs/vpatterndb</text>
<text text-anchor="middle" x="5786" y="-74.5" font-family="Helvetica,sans-Serif" font-size="10.00">/vpiece.cpp</text>
</a>
</g>
</g>
<!-- Node2&#45;&gt;Node38 -->
<g id="edge55" class="edge">
<title>Node2&#45;&gt;Node38</title>
<path fill="none" stroke="midnightblue" d="M5625.41,-202.29C5622.2,-182 5621.31,-153.32 5636,-134 5642.32,-125.69 5694.02,-109.44 5734.98,-97.62"/>
<polygon fill="midnightblue" stroke="midnightblue" points="5622.01,-203.13 5627.28,-212.32 5628.89,-201.84 5622.01,-203.13"/>
</g>
<!-- Node55 -->
<g id="node44" class="node">
<title>Node55</title>
<g id="a_node44"><a xlink:href="../../d7/d8a/measurement__variable__p_8h.html" target="_top" xlink:title=" ">
<polygon fill="white" stroke="red" points="5678,-134.5 5678,-175.5 5814,-175.5 5814,-134.5 5678,-134.5"/>
<text text-anchor="start" x="5686" y="-163.5" font-family="Helvetica,sans-Serif" font-size="10.00">src/libs/vpatterndb</text>
<text text-anchor="start" x="5686" y="-152.5" font-family="Helvetica,sans-Serif" font-size="10.00">/variables/measurement</text>
<text text-anchor="middle" x="5746" y="-141.5" font-family="Helvetica,sans-Serif" font-size="10.00">_variable_p.h</text>
</a>
</g>
</g>
<!-- Node2&#45;&gt;Node55 -->
<g id="edge49" class="edge">
<title>Node2&#45;&gt;Node55</title>
<path fill="none" stroke="midnightblue" d="M5662.92,-206.93C5678.82,-197.19 5697.98,-185.44 5713.9,-175.68"/>
<polygon fill="midnightblue" stroke="midnightblue" points="5660.69,-204.19 5654,-212.4 5664.35,-210.16 5660.69,-204.19"/>
</g>
<!-- Node57 -->
<g id="node45" class="node">
<title>Node57</title>
<g id="a_node45"><a xlink:href="../../d1/de1/vincrement__p_8h.html" target="_top" xlink:title=" ">
<polygon fill="white" stroke="red" points="5832.5,-140 5832.5,-170 5975.5,-170 5975.5,-140 5832.5,-140"/>
<text text-anchor="start" x="5840.5" y="-158" font-family="Helvetica,sans-Serif" font-size="10.00">src/libs/vpatterndb</text>
<text text-anchor="middle" x="5904" y="-147" font-family="Helvetica,sans-Serif" font-size="10.00">/variables/vincrement_p.h</text>
</a>
</g>
</g>
<!-- Node2&#45;&gt;Node57 -->
<g id="edge50" class="edge">
<title>Node2&#45;&gt;Node57</title>
<path fill="none" stroke="midnightblue" d="M5694.38,-210.13C5741.4,-197.99 5804.84,-181.61 5849.58,-170.05"/>
<polygon fill="midnightblue" stroke="midnightblue" points="5693.42,-206.77 5684.61,-212.66 5695.17,-213.54 5693.42,-206.77"/>
</g>
<!-- Node2&#45;&gt;Node59 -->
<g id="edge52" class="edge">
<title>Node2&#45;&gt;Node59</title>
<path fill="none" stroke="midnightblue" d="M5695.03,-226.68C5816.22,-225.94 6086.99,-219.08 6310,-176 6317.77,-174.5 6325.93,-172.35 6333.71,-170.02"/>
<polygon fill="midnightblue" stroke="midnightblue" points="5694.8,-223.18 5684.82,-226.73 5694.83,-230.18 5694.8,-223.18"/>
</g>
<!-- Node2&#45;&gt;Node60 -->
<g id="edge56" class="edge">
<title>Node2&#45;&gt;Node60</title>
<path fill="none" stroke="midnightblue" d="M5695.17,-224.5C5859.69,-219.03 6293.51,-202.49 6435,-176 6442.78,-174.54 6450.95,-172.42 6458.72,-170.09"/>
<polygon fill="midnightblue" stroke="midnightblue" points="5694.61,-221.01 5684.73,-224.84 5694.84,-228.01 5694.61,-221.01"/>
</g>
<!-- Node61 -->
<g id="node48" class="node">
<title>Node61</title>
<g id="a_node48"><a xlink:href="../../d1/d3a/abstracttest_8cpp.html" target="_top" xlink:title=" ">
<polygon fill="white" stroke="black" points="5993.5,-145.5 5993.5,-164.5 6154.5,-164.5 6154.5,-145.5 5993.5,-145.5"/>
<text text-anchor="middle" x="6074" y="-152.5" font-family="Helvetica,sans-Serif" font-size="10.00">src/libs/vtest/abstracttest.cpp</text>
</a>
</g>
</g>
<!-- Node2&#45;&gt;Node61 -->
<g id="edge57" class="edge">
<title>Node2&#45;&gt;Node61</title>
<path fill="none" stroke="midnightblue" d="M5694.84,-218.86C5765.73,-210.03 5883.43,-194.34 5984,-176 6002.11,-172.7 6022.11,-168.33 6038.65,-164.51"/>
<polygon fill="midnightblue" stroke="midnightblue" points="5694.22,-215.41 5684.73,-220.11 5695.09,-222.36 5694.22,-215.41"/>
</g>
<!-- Node62 -->
<g id="node49" class="node">
<title>Node62</title>
<g id="a_node49"><a xlink:href="../../da/db4/piece__tablewidgetitem_8cpp.html" target="_top" xlink:title=" ">
<polygon fill="white" stroke="black" points="6173,-140 6173,-170 6301,-170 6301,-140 6173,-140"/>
<text text-anchor="start" x="6181" y="-158" font-family="Helvetica,sans-Serif" font-size="10.00">src/libs/vwidgets/piece</text>
<text text-anchor="middle" x="6237" y="-147" font-family="Helvetica,sans-Serif" font-size="10.00">_tablewidgetitem.cpp</text>
</a>
</g>
</g>
<!-- Node2&#45;&gt;Node62 -->
<g id="edge58" class="edge">
<title>Node2&#45;&gt;Node62</title>
<path fill="none" stroke="midnightblue" d="M5694.92,-223.93C5795.29,-219.11 5995.7,-206.32 6163,-176 6171.77,-174.41 6181.02,-172.28 6189.9,-170.01"/>
<polygon fill="midnightblue" stroke="midnightblue" points="5694.47,-220.45 5684.64,-224.41 5694.8,-227.44 5694.47,-220.45"/>
</g>
<!-- Node3&#45;&gt;Node4 -->
<g id="edge3" class="edge">
<title>Node3&#45;&gt;Node4</title>
<path fill="none" stroke="midnightblue" d="M229.62,-141.37C196.47,-127.12 143.46,-104.33 114.85,-92.03"/>
<polygon fill="midnightblue" stroke="midnightblue" points="228.65,-144.76 239.22,-145.5 231.41,-138.33 228.65,-144.76"/>
</g>
<!-- Node6 -->
<g id="node6" class="node">
<title>Node6</title>
<g id="a_node6"><a xlink:href="../../dd/d66/vdxfengine_8cpp.html" target="_top" xlink:title=" ">
<polygon fill="white" stroke="black" points="208,-73 208,-92 362,-92 362,-73 208,-73"/>
<text text-anchor="middle" x="285" y="-80" font-family="Helvetica,sans-Serif" font-size="10.00">src/libs/vdxf/vdxfengine.cpp</text>
</a>
</g>
</g>
<!-- Node5&#45;&gt;Node6 -->
<g id="edge6" class="edge">
<title>Node5&#45;&gt;Node6</title>
<path fill="none" stroke="midnightblue" d="M883.8,-146.25C739.24,-134.08 467.56,-110.58 371,-98 358.24,-96.34 344.47,-94.18 331.77,-92.04"/>
<polygon fill="midnightblue" stroke="midnightblue" points="883.73,-149.75 893.98,-147.1 884.31,-142.78 883.73,-149.75"/>
</g>
<!-- Node7 -->
<g id="node7" class="node">
<title>Node7</title>
<g id="a_node7"><a xlink:href="../../df/d5d/vcontour_8cpp.html" target="_top" xlink:title=" ">
<polygon fill="white" stroke="black" points="380,-73 380,-92 536,-92 536,-73 380,-73"/>
<text text-anchor="middle" x="458" y="-80" font-family="Helvetica,sans-Serif" font-size="10.00">src/libs/vlayout/vcontour.cpp</text>
</a>
</g>
</g>
<!-- Node5&#45;&gt;Node7 -->
<g id="edge7" class="edge">
<title>Node5&#45;&gt;Node7</title>
<path fill="none" stroke="midnightblue" d="M894.97,-144.26C807.98,-133.73 666.62,-116.01 545,-98 532.73,-96.18 519.52,-94.06 507.18,-92.02"/>
<polygon fill="midnightblue" stroke="midnightblue" points="894.69,-147.76 905.04,-145.48 895.53,-140.81 894.69,-147.76"/>
</g>
<!-- Node8 -->
<g id="node8" class="node">
<title>Node8</title>
<g id="a_node8"><a xlink:href="../../d3/d39/vlayoutgenerator_8cpp.html" target="_top" xlink:title=" ">
<polygon fill="white" stroke="black" points="554.5,-73 554.5,-92 751.5,-92 751.5,-73 554.5,-73"/>
<text text-anchor="middle" x="653" y="-80" font-family="Helvetica,sans-Serif" font-size="10.00">src/libs/vlayout/vlayoutgenerator.cpp</text>
</a>
</g>
</g>
<!-- Node5&#45;&gt;Node8 -->
<g id="edge8" class="edge">
<title>Node5&#45;&gt;Node8</title>
<path fill="none" stroke="midnightblue" d="M927.99,-143.34C863.5,-129.3 751.42,-104.91 692.22,-92.03"/>
<polygon fill="midnightblue" stroke="midnightblue" points="927.4,-146.79 937.92,-145.5 928.89,-139.95 927.4,-146.79"/>
</g>
<!-- Node9 -->
<g id="node9" class="node">
<title>Node9</title>
<g id="a_node9"><a xlink:href="../../d2/d2d/vlayoutpaper__p_8h.html" target="_top" xlink:title=" ">
<polygon fill="white" stroke="black" points="769.5,-73 769.5,-92 948.5,-92 948.5,-73 769.5,-73"/>
<text text-anchor="middle" x="859" y="-80" font-family="Helvetica,sans-Serif" font-size="10.00">src/libs/vlayout/vlayoutpaper_p.h</text>
</a>
</g>
</g>
<!-- Node5&#45;&gt;Node9 -->
<g id="edge9" class="edge">
<title>Node5&#45;&gt;Node9</title>
<path fill="none" stroke="midnightblue" d="M953.77,-140.12C929.96,-125.89 893.65,-104.2 873.59,-92.22"/>
<polygon fill="midnightblue" stroke="midnightblue" points="952.15,-143.23 962.53,-145.36 955.74,-137.22 952.15,-143.23"/>
</g>
<!-- Node10 -->
<g id="node10" class="node">
<title>Node10</title>
<g id="a_node10"><a xlink:href="../../d1/dd1/vlayoutpaper_8cpp.html" target="_top" xlink:title=" ">
<polygon fill="white" stroke="black" points="888,-6 888,-25 1066,-25 1066,-6 888,-6"/>
<text text-anchor="middle" x="977" y="-13" font-family="Helvetica,sans-Serif" font-size="10.00">src/libs/vlayout/vlayoutpaper.cpp</text>
</a>
</g>
</g>
<!-- Node5&#45;&gt;Node10 -->
<g id="edge11" class="edge">
<title>Node5&#45;&gt;Node10</title>
<path fill="none" stroke="midnightblue" d="M977,-135.36C977,-105.23 977,-46.99 977,-25.1"/>
<polygon fill="midnightblue" stroke="midnightblue" points="973.5,-135.4 977,-145.4 980.5,-135.4 973.5,-135.4"/>
</g>
<!-- Node11 -->
<g id="node11" class="node">
<title>Node11</title>
<g id="a_node11"><a xlink:href="../../de/da8/vbank_8cpp.html" target="_top" xlink:title=" ">
<polygon fill="white" stroke="black" points="1005,-73 1005,-92 1149,-92 1149,-73 1005,-73"/>
<text text-anchor="middle" x="1077" y="-80" font-family="Helvetica,sans-Serif" font-size="10.00">src/libs/vlayout/vbank.cpp</text>
</a>
</g>
</g>
<!-- Node5&#45;&gt;Node11 -->
<g id="edge12" class="edge">
<title>Node5&#45;&gt;Node11</title>
<path fill="none" stroke="midnightblue" d="M997.49,-139.55C1017.68,-125.32 1047.87,-104.04 1064.64,-92.22"/>
<polygon fill="midnightblue" stroke="midnightblue" points="995.42,-136.73 989.26,-145.36 999.45,-142.45 995.42,-136.73"/>
</g>
<!-- Node12 -->
<g id="node12" class="node">
<title>Node12</title>
<g id="a_node12"><a xlink:href="../../db/d5c/vposition_8h.html" target="_top" xlink:title=" ">
<polygon fill="white" stroke="red" points="1167,-73 1167,-92 1315,-92 1315,-73 1167,-73"/>
<text text-anchor="middle" x="1241" y="-80" font-family="Helvetica,sans-Serif" font-size="10.00">src/libs/vlayout/vposition.h</text>
</a>
</g>
</g>
<!-- Node5&#45;&gt;Node12 -->
<g id="edge13" class="edge">
<title>Node5&#45;&gt;Node12</title>
<path fill="none" stroke="midnightblue" d="M1018.57,-142.9C1071.36,-128.8 1161.31,-104.78 1209.04,-92.03"/>
<polygon fill="midnightblue" stroke="midnightblue" points="1017.6,-139.53 1008.84,-145.5 1019.41,-146.3 1017.6,-139.53"/>
</g>
<!-- Node14 -->
<g id="node13" class="node">
<title>Node14</title>
<g id="a_node13"><a xlink:href="../../dd/d70/vlayoutpiece_8cpp.html" target="_top" xlink:title=" ">
<polygon fill="white" stroke="black" points="1333.5,-73 1333.5,-92 1510.5,-92 1510.5,-73 1333.5,-73"/>
<text text-anchor="middle" x="1422" y="-80" font-family="Helvetica,sans-Serif" font-size="10.00">src/libs/vlayout/vlayoutpiece.cpp</text>
</a>
</g>
</g>
<!-- Node5&#45;&gt;Node14 -->
<g id="edge15" class="edge">
<title>Node5&#45;&gt;Node14</title>
<path fill="none" stroke="midnightblue" d="M1040.79,-143.89C1128.76,-129.96 1285.74,-105.09 1368.13,-92.03"/>
<polygon fill="midnightblue" stroke="midnightblue" points="1040.01,-140.47 1030.68,-145.5 1041.1,-147.39 1040.01,-140.47"/>
</g>
<!-- Node9&#45;&gt;Node10 -->
<g id="edge10" class="edge">
<title>Node9&#45;&gt;Node10</title>
<path fill="none" stroke="midnightblue" d="M883.89,-67.79C907.28,-54.9 941.56,-36.02 961.34,-25.13"/>
<polygon fill="midnightblue" stroke="midnightblue" points="881.98,-64.84 874.91,-72.73 885.36,-70.97 881.98,-64.84"/>
</g>
<!-- Node12&#45;&gt;Node10 -->
<g id="edge14" class="edge">
<title>Node12&#45;&gt;Node10</title>
<path fill="none" stroke="midnightblue" d="M1196.26,-70.48C1144.18,-57.66 1059.29,-36.76 1011.86,-25.08"/>
<polygon fill="midnightblue" stroke="midnightblue" points="1195.67,-73.94 1206.22,-72.94 1197.34,-67.15 1195.67,-73.94"/>
</g>
<!-- Node16&#45;&gt;Node14 -->
<g id="edge28" class="edge">
<title>Node16&#45;&gt;Node14</title>
<path fill="none" stroke="midnightblue" d="M3440.13,-152.72C3076.61,-148.15 1898.05,-131.07 1520,-98 1504.24,-96.62 1487.15,-94.36 1471.72,-92.03"/>
<polygon fill="midnightblue" stroke="midnightblue" points="3440.34,-156.22 3450.39,-152.85 3440.43,-149.22 3440.34,-156.22"/>
</g>
<!-- Node16&#45;&gt;Node15 -->
<g id="edge29" class="edge">
<title>Node16&#45;&gt;Node15</title>
<path fill="none" stroke="midnightblue" d="M3440.16,-152.3C3100.79,-146.71 2057.21,-127.52 1720,-98 1704.01,-96.6 1686.67,-94.35 1671,-92.03"/>
<polygon fill="midnightblue" stroke="midnightblue" points="3440.18,-155.8 3450.24,-152.47 3440.3,-148.81 3440.18,-155.8"/>
</g>
<!-- Node17 -->
<g id="node16" class="node">
<title>Node17</title>
<g id="a_node16"><a xlink:href="../../d4/d90/fvupdater_8cpp.html" target="_top" xlink:title=" ">
<polygon fill="white" stroke="black" points="1729.5,-73 1729.5,-92 1882.5,-92 1882.5,-73 1729.5,-73"/>
<text text-anchor="middle" x="1806" y="-80" font-family="Helvetica,sans-Serif" font-size="10.00">src/libs/fervor/fvupdater.cpp</text>
</a>
</g>
</g>
<!-- Node16&#45;&gt;Node17 -->
<g id="edge18" class="edge">
<title>Node16&#45;&gt;Node17</title>
<path fill="none" stroke="midnightblue" d="M3440.22,-152.26C3122.51,-146.84 2193.05,-128.73 1891,-98 1877.3,-96.61 1862.47,-94.34 1849.09,-92.01"/>
<polygon fill="midnightblue" stroke="midnightblue" points="3440.3,-155.76 3450.35,-152.43 3440.41,-148.77 3440.3,-155.76"/>
</g>
<!-- Node18 -->
<g id="node17" class="node">
<title>Node18</title>
<g id="a_node17"><a xlink:href="../../d9/dc8/dxiface_8cpp.html" target="_top" xlink:title=" ">
<polygon fill="white" stroke="black" points="1900.5,-73 1900.5,-92 2035.5,-92 2035.5,-73 1900.5,-73"/>
<text text-anchor="middle" x="1968" y="-80" font-family="Helvetica,sans-Serif" font-size="10.00">src/libs/vdxf/dxiface.cpp</text>
</a>
</g>
</g>
<!-- Node16&#45;&gt;Node18 -->
<g id="edge19" class="edge">
<title>Node16&#45;&gt;Node18</title>
<path fill="none" stroke="midnightblue" d="M3439.95,-152.1C3142.31,-146.54 2314.7,-128.68 2044,-98 2031.72,-96.61 2018.45,-94.34 2006.49,-92.01"/>
<polygon fill="midnightblue" stroke="midnightblue" points="3440.25,-155.61 3450.31,-152.3 3440.38,-148.61 3440.25,-155.61"/>
</g>
<!-- Node19 -->
<g id="node18" class="node">
<title>Node19</title>
<g id="a_node18"><a xlink:href="../../da/d75/vabstractarc__p_8h.html" target="_top" xlink:title=" ">
<polygon fill="white" stroke="red" points="2053.5,-67.5 2053.5,-97.5 2160.5,-97.5 2160.5,-67.5 2053.5,-67.5"/>
<text text-anchor="start" x="2061.5" y="-85.5" font-family="Helvetica,sans-Serif" font-size="10.00">src/libs/vgeometry</text>
<text text-anchor="middle" x="2107" y="-74.5" font-family="Helvetica,sans-Serif" font-size="10.00">/vabstractarc_p.h</text>
</a>
</g>
</g>
<!-- Node16&#45;&gt;Node19 -->
<g id="edge20" class="edge">
<title>Node16&#45;&gt;Node19</title>
<path fill="none" stroke="midnightblue" d="M3440.05,-152.26C3159.81,-147.3 2413.93,-131.31 2169,-98 2166.26,-97.63 2163.47,-97.19 2160.65,-96.7"/>
<polygon fill="midnightblue" stroke="midnightblue" points="3440.16,-155.76 3450.22,-152.43 3440.29,-148.76 3440.16,-155.76"/>
</g>
<!-- Node21 -->
<g id="node19" class="node">
<title>Node21</title>
<g id="a_node19"><a xlink:href="../../dc/da3/varc__p_8h.html" target="_top" xlink:title=" ">
<polygon fill="white" stroke="red" points="2178.5,-67.5 2178.5,-97.5 2285.5,-97.5 2285.5,-67.5 2178.5,-67.5"/>
<text text-anchor="start" x="2186.5" y="-85.5" font-family="Helvetica,sans-Serif" font-size="10.00">src/libs/vgeometry</text>
<text text-anchor="middle" x="2232" y="-74.5" font-family="Helvetica,sans-Serif" font-size="10.00">/varc_p.h</text>
</a>
</g>
</g>
<!-- Node16&#45;&gt;Node21 -->
<g id="edge21" class="edge">
<title>Node16&#45;&gt;Node21</title>
<path fill="none" stroke="midnightblue" d="M3440.2,-151.75C3178.31,-145.87 2513.96,-128.37 2294,-98 2291.26,-97.62 2288.47,-97.18 2285.65,-96.69"/>
<polygon fill="midnightblue" stroke="midnightblue" points="3440.4,-155.26 3450.48,-151.98 3440.56,-148.26 3440.4,-155.26"/>
</g>
<!-- Node23 -->
<g id="node20" class="node">
<title>Node23</title>
<g id="a_node20"><a xlink:href="../../d5/d8e/vcubicbezier__p_8h.html" target="_top" xlink:title=" ">
<polygon fill="white" stroke="red" points="2303.5,-67.5 2303.5,-97.5 2410.5,-97.5 2410.5,-67.5 2303.5,-67.5"/>
<text text-anchor="start" x="2311.5" y="-85.5" font-family="Helvetica,sans-Serif" font-size="10.00">src/libs/vgeometry</text>
<text text-anchor="middle" x="2357" y="-74.5" font-family="Helvetica,sans-Serif" font-size="10.00">/vcubicbezier_p.h</text>
</a>
</g>
</g>
<!-- Node16&#45;&gt;Node23 -->
<g id="edge22" class="edge">
<title>Node16&#45;&gt;Node23</title>
<path fill="none" stroke="midnightblue" d="M3440.16,-151.13C3197.41,-144.27 2614.06,-125.42 2419,-98 2416.26,-97.62 2413.47,-97.17 2410.66,-96.67"/>
<polygon fill="midnightblue" stroke="midnightblue" points="3440.32,-154.64 3450.41,-151.42 3440.51,-147.64 3440.32,-154.64"/>
</g>
<!-- Node25 -->
<g id="node21" class="node">
<title>Node25</title>
<g id="a_node21"><a xlink:href="../../df/dde/vellipticalarc__p_8h.html" target="_top" xlink:title=" ">
<polygon fill="white" stroke="black" points="2428.5,-67.5 2428.5,-97.5 2535.5,-97.5 2535.5,-67.5 2428.5,-67.5"/>
<text text-anchor="start" x="2436.5" y="-85.5" font-family="Helvetica,sans-Serif" font-size="10.00">src/libs/vgeometry</text>
<text text-anchor="middle" x="2482" y="-74.5" font-family="Helvetica,sans-Serif" font-size="10.00">/vellipticalarc_p.h</text>
</a>
</g>
</g>
<!-- Node16&#45;&gt;Node25 -->
<g id="edge23" class="edge">
<title>Node16&#45;&gt;Node25</title>
<path fill="none" stroke="midnightblue" d="M3440.3,-153.38C3256.77,-151.11 2872.01,-141.1 2550,-98 2545.33,-97.38 2540.51,-96.6 2535.69,-95.75"/>
<polygon fill="midnightblue" stroke="midnightblue" points="3440.45,-156.88 3450.49,-153.5 3440.53,-149.88 3440.45,-156.88"/>
</g>
<!-- Node26 -->
<g id="node22" class="node">
<title>Node26</title>
<g id="a_node22"><a xlink:href="../../d6/dfb/vellipticalarc_8cpp.html" target="_top" xlink:title=" ">
<polygon fill="white" stroke="black" points="2469.5,-0.5 2469.5,-30.5 2576.5,-30.5 2576.5,-0.5 2469.5,-0.5"/>
<text text-anchor="start" x="2477.5" y="-18.5" font-family="Helvetica,sans-Serif" font-size="10.00">src/libs/vgeometry</text>
<text text-anchor="middle" x="2523" y="-7.5" font-family="Helvetica,sans-Serif" font-size="10.00">/vellipticalarc.cpp</text>
</a>
</g>
</g>
<!-- Node16&#45;&gt;Node26 -->
<g id="edge26" class="edge">
<title>Node16&#45;&gt;Node26</title>
<path fill="none" stroke="midnightblue" d="M3439.92,-152.87C3203.73,-149.67 2656.72,-137.99 2583,-98 2555.66,-83.17 2537.45,-49.89 2528.81,-30.76"/>
<polygon fill="midnightblue" stroke="midnightblue" points="3440.2,-156.38 3450.24,-153.01 3440.29,-149.38 3440.2,-156.38"/>
</g>
<!-- Node27 -->
<g id="node23" class="node">
<title>Node27</title>
<g id="a_node23"><a xlink:href="../../d1/d76/vspline__p_8h.html" target="_top" xlink:title=" ">
<polygon fill="white" stroke="red" points="2592.5,-67.5 2592.5,-97.5 2699.5,-97.5 2699.5,-67.5 2592.5,-67.5"/>
<text text-anchor="start" x="2600.5" y="-85.5" font-family="Helvetica,sans-Serif" font-size="10.00">src/libs/vgeometry</text>
<text text-anchor="middle" x="2646" y="-74.5" font-family="Helvetica,sans-Serif" font-size="10.00">/vspline_p.h</text>
</a>
</g>
</g>
<!-- Node16&#45;&gt;Node27 -->
<g id="edge25" class="edge">
<title>Node16&#45;&gt;Node27</title>
<path fill="none" stroke="midnightblue" d="M3439.91,-152.29C3279.56,-148.51 2969.56,-136.43 2709,-98 2705.89,-97.54 2702.71,-97.01 2699.51,-96.43"/>
<polygon fill="midnightblue" stroke="midnightblue" points="3440.18,-155.79 3450.25,-152.52 3440.34,-148.8 3440.18,-155.79"/>
</g>
<!-- Node29 -->
<g id="node24" class="node">
<title>Node29</title>
<g id="a_node24"><a xlink:href="../../d9/d15/vabstractpiece_8cpp.html" target="_top" xlink:title=" ">
<polygon fill="white" stroke="black" points="2718,-73 2718,-92 2904,-92 2904,-73 2718,-73"/>
<text text-anchor="middle" x="2811" y="-80" font-family="Helvetica,sans-Serif" font-size="10.00">src/libs/vlayout/vabstractpiece.cpp</text>
</a>
</g>
</g>
<!-- Node16&#45;&gt;Node29 -->
<g id="edge27" class="edge">
<title>Node16&#45;&gt;Node29</title>
<path fill="none" stroke="midnightblue" d="M3440.4,-146.27C3313.96,-136.77 3097.92,-119.28 2913,-98 2898.07,-96.28 2881.96,-94.13 2867.05,-92.01"/>
<polygon fill="midnightblue" stroke="midnightblue" points="3440.24,-149.76 3450.47,-147.02 3440.76,-142.78 3440.24,-149.76"/>
</g>
<!-- Node30 -->
<g id="node25" class="node">
<title>Node30</title>
<g id="a_node25"><a xlink:href="../../d6/d0b/def_8cpp.html" target="_top" xlink:title=" ">
<polygon fill="white" stroke="black" points="2922,-73 2922,-92 3044,-92 3044,-73 2922,-73"/>
<text text-anchor="middle" x="2983" y="-80" font-family="Helvetica,sans-Serif" font-size="10.00">src/libs/vmisc/def.cpp</text>
</a>
</g>
</g>
<!-- Node16&#45;&gt;Node30 -->
<g id="edge30" class="edge">
<title>Node16&#45;&gt;Node30</title>
<path fill="none" stroke="midnightblue" d="M3440.26,-144.68C3339.73,-135.31 3185.73,-119.21 3053,-98 3042.58,-96.34 3031.37,-94.18 3021.03,-92.04"/>
<polygon fill="midnightblue" stroke="midnightblue" points="3440.15,-148.18 3450.43,-145.62 3440.8,-141.21 3440.15,-148.18"/>
</g>
<!-- Node31 -->
<g id="node26" class="node">
<title>Node31</title>
<g id="a_node26"><a xlink:href="../../db/d65/dialogexporttocsv_8cpp.html" target="_top" xlink:title=" ">
<polygon fill="white" stroke="black" points="3062.5,-67.5 3062.5,-97.5 3189.5,-97.5 3189.5,-67.5 3062.5,-67.5"/>
<text text-anchor="start" x="3070.5" y="-85.5" font-family="Helvetica,sans-Serif" font-size="10.00">src/libs/vmisc/dialogs</text>
<text text-anchor="middle" x="3126" y="-74.5" font-family="Helvetica,sans-Serif" font-size="10.00">/dialogexporttocsv.cpp</text>
</a>
</g>
</g>
<!-- Node16&#45;&gt;Node31 -->
<g id="edge31" class="edge">
<title>Node16&#45;&gt;Node31</title>
<path fill="none" stroke="midnightblue" d="M3480.7,-143.96C3410.32,-133.28 3296.72,-115.54 3199,-98 3195.95,-97.45 3192.83,-96.88 3189.67,-96.29"/>
<polygon fill="midnightblue" stroke="midnightblue" points="3480.35,-147.44 3490.76,-145.48 3481.4,-140.52 3480.35,-147.44"/>
</g>
<!-- Node32 -->
<g id="node27" class="node">
<title>Node32</title>
<g id="a_node27"><a xlink:href="../../d0/df6/vabstractapplication_8cpp.html" target="_top" xlink:title=" ">
<polygon fill="white" stroke="black" points="3208,-73 3208,-92 3414,-92 3414,-73 3208,-73"/>
<text text-anchor="middle" x="3311" y="-80" font-family="Helvetica,sans-Serif" font-size="10.00">src/libs/vmisc/vabstractapplication.cpp</text>
</a>
</g>
</g>
<!-- Node16&#45;&gt;Node32 -->
<g id="edge32" class="edge">
<title>Node16&#45;&gt;Node32</title>
<path fill="none" stroke="midnightblue" d="M3509.79,-142.63C3462.29,-128.5 3382.28,-104.7 3339.69,-92.03"/>
<polygon fill="midnightblue" stroke="midnightblue" points="3508.83,-146 3519.41,-145.5 3510.83,-139.29 3508.83,-146"/>
</g>
<!-- Node33 -->
<g id="node28" class="node">
<title>Node33</title>
<g id="a_node28"><a xlink:href="../../d4/d4f/pmsystems_8cpp.html" target="_top" xlink:title=" ">
<polygon fill="white" stroke="black" points="3432.5,-67.5 3432.5,-97.5 3539.5,-97.5 3539.5,-67.5 3432.5,-67.5"/>
<text text-anchor="start" x="3440.5" y="-85.5" font-family="Helvetica,sans-Serif" font-size="10.00">src/libs/vpatterndb</text>
<text text-anchor="middle" x="3486" y="-74.5" font-family="Helvetica,sans-Serif" font-size="10.00">/pmsystems.cpp</text>
</a>
</g>
</g>
<!-- Node16&#45;&gt;Node33 -->
<g id="edge33" class="edge">
<title>Node16&#45;&gt;Node33</title>
<path fill="none" stroke="midnightblue" d="M3533.7,-137.74C3523.02,-125.6 3508.57,-109.16 3498.38,-97.58"/>
<polygon fill="midnightblue" stroke="midnightblue" points="3531.17,-140.16 3540.4,-145.36 3536.42,-135.53 3531.17,-140.16"/>
</g>
<!-- Node16&#45;&gt;Node34 -->
<g id="edge34" class="edge">
<title>Node16&#45;&gt;Node34</title>
<path fill="none" stroke="midnightblue" d="M3655.88,-153.66C4007.4,-152.11 5117.52,-143.62 5473,-98 5476.01,-97.61 5479.08,-97.15 5482.17,-96.62"/>
<polygon fill="midnightblue" stroke="midnightblue" points="3655.69,-150.16 3645.71,-153.7 3655.72,-157.16 3655.69,-150.16"/>
</g>
<!-- Node35 -->
<g id="node30" class="node">
<title>Node35</title>
<g id="a_node30"><a xlink:href="../../df/dba/vpiecenode__p_8h.html" target="_top" xlink:title=" ">
<polygon fill="white" stroke="black" points="3557.5,-67.5 3557.5,-97.5 3664.5,-97.5 3664.5,-67.5 3557.5,-67.5"/>
<text text-anchor="start" x="3565.5" y="-85.5" font-family="Helvetica,sans-Serif" font-size="10.00">src/libs/vpatterndb</text>
<text text-anchor="middle" x="3611" y="-74.5" font-family="Helvetica,sans-Serif" font-size="10.00">/vpiecenode_p.h</text>
</a>
</g>
</g>
<!-- Node16&#45;&gt;Node35 -->
<g id="edge35" class="edge">
<title>Node16&#45;&gt;Node35</title>
<path fill="none" stroke="midnightblue" d="M3562.53,-137.74C3573.38,-125.6 3588.07,-109.16 3598.42,-97.58"/>
<polygon fill="midnightblue" stroke="midnightblue" points="3559.78,-135.57 3555.73,-145.36 3565,-140.23 3559.78,-135.57"/>
</g>
<!-- Node16&#45;&gt;Node37 -->
<g id="edge37" class="edge">
<title>Node16&#45;&gt;Node37</title>
<path fill="none" stroke="midnightblue" d="M3655.63,-153.88C4021.69,-153.05 5216.93,-146.57 5598,-98 5601.01,-97.62 5604.08,-97.15 5607.17,-96.63"/>
<polygon fill="midnightblue" stroke="midnightblue" points="3655.55,-150.38 3645.56,-153.91 3655.57,-157.38 3655.55,-150.38"/>
</g>
<!-- Node16&#45;&gt;Node38 -->
<g id="edge38" class="edge">
<title>Node16&#45;&gt;Node38</title>
<path fill="none" stroke="midnightblue" d="M3655.96,-154.08C4036.81,-153.93 5316.49,-149.49 5723,-98 5726.01,-97.62 5729.08,-97.16 5732.17,-96.64"/>
<polygon fill="midnightblue" stroke="midnightblue" points="3655.77,-150.58 3645.77,-154.09 3655.77,-157.58 3655.77,-150.58"/>
</g>
<!-- Node39 -->
<g id="node34" class="node">
<title>Node39</title>
<g id="a_node34"><a xlink:href="../../de/d3e/vtranslatevars_8cpp.html" target="_top" xlink:title=" ">
<polygon fill="white" stroke="black" points="3683,-67.5 3683,-97.5 3793,-97.5 3793,-67.5 3683,-67.5"/>
<text text-anchor="start" x="3691" y="-85.5" font-family="Helvetica,sans-Serif" font-size="10.00">src/libs/vpatterndb</text>
<text text-anchor="middle" x="3738" y="-74.5" font-family="Helvetica,sans-Serif" font-size="10.00">/vtranslatevars.cpp</text>
</a>
</g>
</g>
<!-- Node16&#45;&gt;Node39 -->
<g id="edge39" class="edge">
<title>Node16&#45;&gt;Node39</title>
<path fill="none" stroke="midnightblue" d="M3580.6,-141.9C3613.82,-129.58 3665.29,-110.48 3700.25,-97.51"/>
<polygon fill="midnightblue" stroke="midnightblue" points="3579.08,-138.74 3570.92,-145.5 3581.51,-145.3 3579.08,-138.74"/>
</g>
<!-- Node40 -->
<g id="node35" class="node">
<title>Node40</title>
<g id="a_node35"><a xlink:href="../../df/d40/export__format__combobox_8cpp.html" target="_top" xlink:title=" ">
<polygon fill="white" stroke="black" points="3811.5,-67.5 3811.5,-97.5 3944.5,-97.5 3944.5,-67.5 3811.5,-67.5"/>
<text text-anchor="start" x="3819.5" y="-85.5" font-family="Helvetica,sans-Serif" font-size="10.00">src/libs/vwidgets/export</text>
<text text-anchor="middle" x="3878" y="-74.5" font-family="Helvetica,sans-Serif" font-size="10.00">_format_combobox.cpp</text>
</a>
</g>
</g>
<!-- Node16&#45;&gt;Node40 -->
<g id="edge40" class="edge">
<title>Node16&#45;&gt;Node40</title>
<path fill="none" stroke="midnightblue" d="M3597.7,-143.38C3654.95,-131.15 3749.23,-111.01 3812.44,-97.51"/>
<polygon fill="midnightblue" stroke="midnightblue" points="3596.85,-139.98 3587.81,-145.5 3598.32,-146.83 3596.85,-139.98"/>
</g>
<!-- Node41 -->
<g id="node36" class="node">
<title>Node41</title>
<g id="a_node36"><a xlink:href="../../d3/d4f/mouse__coordinates_8cpp.html" target="_top" xlink:title=" ">
<polygon fill="white" stroke="black" points="3963,-67.5 3963,-97.5 4097,-97.5 4097,-67.5 3963,-67.5"/>
<text text-anchor="start" x="3971" y="-85.5" font-family="Helvetica,sans-Serif" font-size="10.00">src/libs/vwidgets/mouse</text>
<text text-anchor="middle" x="4030" y="-74.5" font-family="Helvetica,sans-Serif" font-size="10.00">_coordinates.cpp</text>
</a>
</g>
</g>
<!-- Node16&#45;&gt;Node41 -->
<g id="edge41" class="edge">
<title>Node16&#45;&gt;Node41</title>
<path fill="none" stroke="midnightblue" d="M3627.28,-144.2C3709.05,-133.82 3840.19,-116.41 3953,-98 3956.22,-97.47 3959.52,-96.92 3962.84,-96.35"/>
<polygon fill="midnightblue" stroke="midnightblue" points="3626.79,-140.73 3617.31,-145.46 3627.67,-147.68 3626.79,-140.73"/>
</g>
<!-- Node42 -->
<g id="node37" class="node">
<title>Node42</title>
<g id="a_node37"><a xlink:href="../../d2/d28/page__format__combobox_8cpp.html" target="_top" xlink:title=" ">
<polygon fill="white" stroke="black" points="4115.5,-67.5 4115.5,-97.5 4246.5,-97.5 4246.5,-67.5 4115.5,-67.5"/>
<text text-anchor="start" x="4123.5" y="-85.5" font-family="Helvetica,sans-Serif" font-size="10.00">src/libs/vwidgets/page</text>
<text text-anchor="middle" x="4181" y="-74.5" font-family="Helvetica,sans-Serif" font-size="10.00">_format_combobox.cpp</text>
</a>
</g>
</g>
<!-- Node16&#45;&gt;Node42 -->
<g id="edge42" class="edge">
<title>Node16&#45;&gt;Node42</title>
<path fill="none" stroke="midnightblue" d="M3655.61,-146.12C3768.25,-137.19 3950.07,-120.85 4106,-98 4109.02,-97.56 4112.1,-97.08 4115.21,-96.57"/>
<polygon fill="midnightblue" stroke="midnightblue" points="3655.3,-142.63 3645.6,-146.91 3655.85,-149.61 3655.3,-142.63"/>
</g>
<!-- Node43 -->
<g id="node38" class="node">
<title>Node43</title>
<g id="a_node38"><a xlink:href="../../d7/d1b/pen__toolbar_8cpp.html" target="_top" xlink:title=" ">
<polygon fill="white" stroke="black" points="4264.5,-67.5 4264.5,-97.5 4383.5,-97.5 4383.5,-67.5 4264.5,-67.5"/>
<text text-anchor="start" x="4272.5" y="-85.5" font-family="Helvetica,sans-Serif" font-size="10.00">src/libs/vwidgets/pen</text>
<text text-anchor="middle" x="4324" y="-74.5" font-family="Helvetica,sans-Serif" font-size="10.00">_toolbar.cpp</text>
</a>
</g>
</g>
<!-- Node16&#45;&gt;Node43 -->
<g id="edge43" class="edge">
<title>Node16&#45;&gt;Node43</title>
<path fill="none" stroke="midnightblue" d="M3655.88,-149.75C3794.94,-143.3 4043.96,-128.4 4255,-98 4258.03,-97.56 4261.12,-97.07 4264.24,-96.55"/>
<polygon fill="midnightblue" stroke="midnightblue" points="3655.47,-146.27 3645.64,-150.22 3655.79,-153.26 3655.47,-146.27"/>
</g>
<!-- Node44 -->
<g id="node39" class="node">
<title>Node44</title>
<g id="a_node39"><a xlink:href="../../d8/d76/scene__rect_8cpp.html" target="_top" xlink:title=" ">
<polygon fill="white" stroke="black" points="4402,-67.5 4402,-97.5 4532,-97.5 4532,-67.5 4402,-67.5"/>
<text text-anchor="start" x="4410" y="-85.5" font-family="Helvetica,sans-Serif" font-size="10.00">src/libs/vwidgets/scene</text>
<text text-anchor="middle" x="4467" y="-74.5" font-family="Helvetica,sans-Serif" font-size="10.00">_rect.cpp</text>
</a>
</g>
</g>
<!-- Node16&#45;&gt;Node44 -->
<g id="edge44" class="edge">
<title>Node16&#45;&gt;Node44</title>
<path fill="none" stroke="midnightblue" d="M3655.91,-151.15C3816.82,-145.92 4128.89,-132.03 4392,-98 4395.16,-97.59 4398.38,-97.13 4401.63,-96.64"/>
<polygon fill="midnightblue" stroke="midnightblue" points="3655.42,-147.66 3645.53,-151.48 3655.64,-154.66 3655.42,-147.66"/>
</g>
<!-- Node45 -->
<g id="node40" class="node">
<title>Node45</title>
<g id="a_node40"><a xlink:href="../../dd/df6/vabstractmainwindow_8cpp.html" target="_top" xlink:title=" ">
<polygon fill="white" stroke="black" points="4550.5,-73 4550.5,-92 4779.5,-92 4779.5,-73 4550.5,-73"/>
<text text-anchor="middle" x="4665" y="-80" font-family="Helvetica,sans-Serif" font-size="10.00">src/libs/vwidgets/vabstractmainwindow.cpp</text>
</a>
</g>
</g>
<!-- Node16&#45;&gt;Node45 -->
<g id="edge45" class="edge">
<title>Node16&#45;&gt;Node45</title>
<path fill="none" stroke="midnightblue" d="M3655.88,-150.04C3838.38,-142.87 4219.58,-125.83 4541,-98 4559.68,-96.38 4579.89,-94.2 4598.47,-92.03"/>
<polygon fill="midnightblue" stroke="midnightblue" points="3655.6,-146.55 3645.74,-150.44 3655.87,-153.54 3655.6,-146.55"/>
</g>
<!-- Node46 -->
<g id="node41" class="node">
<title>Node46</title>
<g id="a_node41"><a xlink:href="../../de/d45/vcontrolpointspline_8cpp.html" target="_top" xlink:title=" ">
<polygon fill="white" stroke="black" points="4797.5,-73 4797.5,-92 5012.5,-92 5012.5,-73 4797.5,-73"/>
<text text-anchor="middle" x="4905" y="-80" font-family="Helvetica,sans-Serif" font-size="10.00">src/libs/vwidgets/vcontrolpointspline.cpp</text>
</a>
</g>
</g>
<!-- Node16&#45;&gt;Node46 -->
<g id="edge46" class="edge">
<title>Node16&#45;&gt;Node46</title>
<path fill="none" stroke="midnightblue" d="M3655.87,-151.96C3871.36,-147.27 4370.26,-133.26 4788,-98 4806.15,-96.47 4825.82,-94.25 4843.76,-92"/>
<polygon fill="midnightblue" stroke="midnightblue" points="3655.75,-148.47 3645.83,-152.18 3655.9,-155.46 3655.75,-148.47"/>
</g>
<!-- Node47 -->
<g id="node42" class="node">
<title>Node47</title>
<g id="a_node42"><a xlink:href="../../d1/d90/vgrainlineitem_8cpp.html" target="_top" xlink:title=" ">
<polygon fill="white" stroke="black" points="5030.5,-73 5030.5,-92 5223.5,-92 5223.5,-73 5030.5,-73"/>
<text text-anchor="middle" x="5127" y="-80" font-family="Helvetica,sans-Serif" font-size="10.00">src/libs/vwidgets/vgrainlineitem.cpp</text>
</a>
</g>
</g>
<!-- Node16&#45;&gt;Node47 -->
<g id="edge47" class="edge">
<title>Node16&#45;&gt;Node47</title>
<path fill="none" stroke="midnightblue" d="M3655.86,-153.51C3899.61,-151.62 4511.42,-142.43 5021,-98 5037.75,-96.54 5055.9,-94.3 5072.37,-92.01"/>
<polygon fill="midnightblue" stroke="midnightblue" points="3655.56,-150.01 3645.59,-153.59 3655.62,-157.01 3655.56,-150.01"/>
</g>
<!-- Node48 -->
<g id="node43" class="node">
<title>Node48</title>
<g id="a_node43"><a xlink:href="../../d1/d88/vmaingraphicsscene_8cpp.html" target="_top" xlink:title=" ">
<polygon fill="white" stroke="black" points="5242,-73 5242,-92 5464,-92 5464,-73 5242,-73"/>
<text text-anchor="middle" x="5353" y="-80" font-family="Helvetica,sans-Serif" font-size="10.00">src/libs/vwidgets/vmaingraphicsscene.cpp</text>
</a>
</g>
</g>
<!-- Node16&#45;&gt;Node48 -->
<g id="edge48" class="edge">
<title>Node16&#45;&gt;Node48</title>
<path fill="none" stroke="midnightblue" d="M3656.01,-153.63C3923.51,-152 4638.06,-143.38 5232,-98 5251.09,-96.54 5271.81,-94.3 5290.61,-92.02"/>
<polygon fill="midnightblue" stroke="midnightblue" points="3655.9,-150.13 3645.92,-153.68 3655.94,-157.13 3655.9,-150.13"/>
</g>
<!-- Node25&#45;&gt;Node26 -->
<g id="edge24" class="edge">
<title>Node25&#45;&gt;Node26</title>
<path fill="none" stroke="midnightblue" d="M2496.28,-58.87C2502.21,-49.46 2508.91,-38.83 2514.12,-30.58"/>
<polygon fill="midnightblue" stroke="midnightblue" points="2493.27,-57.07 2490.9,-67.4 2499.19,-60.81 2493.27,-57.07"/>
</g>
<!-- Node35&#45;&gt;Node36 -->
<g id="edge36" class="edge">
<title>Node35&#45;&gt;Node36</title>
<path fill="none" stroke="midnightblue" d="M3674.88,-67.1C3892.04,-39.12 4500.61,-22.36 4685.26,-17.78"/>
<polygon fill="midnightblue" stroke="midnightblue" points="3674.29,-63.65 3664.84,-68.44 3675.21,-70.59 3674.29,-63.65"/>
</g>
<!-- Node63&#45;&gt;Node38 -->
<g id="edge61" class="edge">
<title>Node63&#45;&gt;Node38</title>
<path fill="none" stroke="midnightblue" d="M6574.65,-202.41C6578.03,-181.31 6578.74,-151.36 6561,-134 6509.66,-83.74 6006.66,-82.16 5839.61,-83.05"/>
<polygon fill="midnightblue" stroke="midnightblue" points="6571.21,-201.77 6572.79,-212.25 6578.09,-203.08 6571.21,-201.77"/>
</g>
</g>
</svg>
