<?xml version="1.0" encoding="UTF-8" standalone="no"?>
<!DOCTYPE svg PUBLIC "-//W3C//DTD SVG 1.1//EN"
 "http://www.w3.org/Graphics/SVG/1.1/DTD/svg11.dtd">
<!-- Generated by graphviz version 2.43.0 (0)
 -->
<!-- Title: src/libs/vtools/dialogs/support/edit_formula_dialog.h Pages: 1 -->
<svg width="4052pt" height="128pt"
 viewBox="0.00 0.00 4051.50 128.00" xmlns="http://www.w3.org/2000/svg" xmlns:xlink="http://www.w3.org/1999/xlink">
<g id="graph0" class="graph" transform="scale(1 1) rotate(0) translate(4 124)">
<title>src/libs/vtools/dialogs/support/edit_formula_dialog.h</title>
<polygon fill="white" stroke="transparent" points="-4,4 -4,-124 4047.5,-124 4047.5,4 -4,4"/>
<!-- Node1 -->
<g id="node1" class="node">
<title>Node1</title>
<g id="a_node1"><a xlink:title=" ">
<polygon fill="#bfbfbf" stroke="black" points="1935,-78.5 1935,-119.5 2057,-119.5 2057,-78.5 1935,-78.5"/>
<text text-anchor="start" x="1943" y="-107.5" font-family="Helvetica,sans-Serif" font-size="10.00">src/libs/vtools/dialogs</text>
<text text-anchor="start" x="1943" y="-96.5" font-family="Helvetica,sans-Serif" font-size="10.00">/support/edit_formula</text>
<text text-anchor="middle" x="1996" y="-85.5" font-family="Helvetica,sans-Serif" font-size="10.00">_dialog.h</text>
</a>
</g>
</g>
<!-- Node2 -->
<g id="node2" class="node">
<title>Node2</title>
<g id="a_node2"><a xlink:href="../../d7/d8d/edit__formula__dialog_8cpp.html" target="_top" xlink:title=" ">
<polygon fill="white" stroke="black" points="0,-0.5 0,-41.5 122,-41.5 122,-0.5 0,-0.5"/>
<text text-anchor="start" x="8" y="-29.5" font-family="Helvetica,sans-Serif" font-size="10.00">src/libs/vtools/dialogs</text>
<text text-anchor="start" x="8" y="-18.5" font-family="Helvetica,sans-Serif" font-size="10.00">/support/edit_formula</text>
<text text-anchor="middle" x="61" y="-7.5" font-family="Helvetica,sans-Serif" font-size="10.00">_dialog.cpp</text>
</a>
</g>
</g>
<!-- Node1&#45;&gt;Node2 -->
<g id="edge1" class="edge">
<title>Node1&#45;&gt;Node2</title>
<path fill="none" stroke="midnightblue" d="M1924.32,-98.22C1626.54,-98.78 486.09,-97.18 131,-42 128.13,-41.55 125.21,-41.03 122.27,-40.44"/>
<polygon fill="midnightblue" stroke="midnightblue" points="1924.56,-101.72 1934.56,-98.2 1924.55,-94.72 1924.56,-101.72"/>
</g>
<!-- Node3 -->
<g id="node3" class="node">
<title>Node3</title>
<g id="a_node3"><a xlink:href="../../d6/d5d/dialogalongline_8cpp.html" target="_top" xlink:title=" ">
<polygon fill="white" stroke="black" points="140,-6 140,-36 282,-36 282,-6 140,-6"/>
<text text-anchor="start" x="148" y="-24" font-family="Helvetica,sans-Serif" font-size="10.00">src/libs/vtools/dialogs</text>
<text text-anchor="middle" x="211" y="-13" font-family="Helvetica,sans-Serif" font-size="10.00">/tools/dialogalongline.cpp</text>
</a>
</g>
</g>
<!-- Node1&#45;&gt;Node3 -->
<g id="edge2" class="edge">
<title>Node1&#45;&gt;Node3</title>
<path fill="none" stroke="midnightblue" d="M1924.54,-97.67C1643.53,-96.07 614.05,-87.16 291,-42 280.93,-40.59 270.3,-38.43 260.18,-36.03"/>
<polygon fill="midnightblue" stroke="midnightblue" points="1924.59,-101.17 1934.61,-97.73 1924.63,-94.17 1924.59,-101.17"/>
</g>
<!-- Node4 -->
<g id="node4" class="node">
<title>Node4</title>
<g id="a_node4"><a xlink:href="../../d2/d29/dialogarcwithlength_8cpp.html" target="_top" xlink:title=" ">
<polygon fill="white" stroke="black" points="300,-6 300,-36 464,-36 464,-6 300,-6"/>
<text text-anchor="start" x="308" y="-24" font-family="Helvetica,sans-Serif" font-size="10.00">src/libs/vtools/dialogs</text>
<text text-anchor="middle" x="382" y="-13" font-family="Helvetica,sans-Serif" font-size="10.00">/tools/dialogarcwithlength.cpp</text>
</a>
</g>
</g>
<!-- Node1&#45;&gt;Node4 -->
<g id="edge3" class="edge">
<title>Node1&#45;&gt;Node4</title>
<path fill="none" stroke="midnightblue" d="M1924.51,-97.08C1663.07,-93.43 759.21,-78.41 473,-42 461.77,-40.57 449.87,-38.43 438.52,-36.07"/>
<polygon fill="midnightblue" stroke="midnightblue" points="1924.6,-100.58 1934.64,-97.22 1924.69,-93.58 1924.6,-100.58"/>
</g>
<!-- Node5 -->
<g id="node5" class="node">
<title>Node5</title>
<g id="a_node5"><a xlink:href="../../d1/d37/dialogarc_8cpp.html" target="_top" xlink:title=" ">
<polygon fill="white" stroke="black" points="482,-6 482,-36 604,-36 604,-6 482,-6"/>
<text text-anchor="start" x="490" y="-24" font-family="Helvetica,sans-Serif" font-size="10.00">src/libs/vtools/dialogs</text>
<text text-anchor="middle" x="543" y="-13" font-family="Helvetica,sans-Serif" font-size="10.00">/tools/dialogarc.cpp</text>
</a>
</g>
</g>
<!-- Node1&#45;&gt;Node5 -->
<g id="edge4" class="edge">
<title>Node1&#45;&gt;Node5</title>
<path fill="none" stroke="midnightblue" d="M1924.52,-97.35C1678.74,-94.75 869.41,-83.22 613,-42 604.14,-40.58 594.81,-38.4 585.95,-36.01"/>
<polygon fill="midnightblue" stroke="midnightblue" points="1924.72,-100.85 1934.76,-97.45 1924.8,-93.85 1924.72,-100.85"/>
</g>
<!-- Node6 -->
<g id="node6" class="node">
<title>Node6</title>
<g id="a_node6"><a xlink:href="../../da/dfa/dialogbisector_8cpp.html" target="_top" xlink:title=" ">
<polygon fill="white" stroke="black" points="622.5,-6 622.5,-36 757.5,-36 757.5,-6 622.5,-6"/>
<text text-anchor="start" x="630.5" y="-24" font-family="Helvetica,sans-Serif" font-size="10.00">src/libs/vtools/dialogs</text>
<text text-anchor="middle" x="690" y="-13" font-family="Helvetica,sans-Serif" font-size="10.00">/tools/dialogbisector.cpp</text>
</a>
</g>
</g>
<!-- Node1&#45;&gt;Node6 -->
<g id="edge5" class="edge">
<title>Node1&#45;&gt;Node6</title>
<path fill="none" stroke="midnightblue" d="M1924.5,-96.73C1697.01,-92.39 991.68,-76.43 766,-42 756.56,-40.56 746.6,-38.41 737.11,-36.05"/>
<polygon fill="midnightblue" stroke="midnightblue" points="1924.58,-100.24 1934.65,-96.93 1924.72,-93.24 1924.58,-100.24"/>
</g>
<!-- Node7 -->
<g id="node7" class="node">
<title>Node7</title>
<g id="a_node7"><a xlink:href="../../d9/d90/dialogcutarc_8cpp.html" target="_top" xlink:title=" ">
<polygon fill="white" stroke="black" points="775.5,-6 775.5,-36 902.5,-36 902.5,-6 775.5,-6"/>
<text text-anchor="start" x="783.5" y="-24" font-family="Helvetica,sans-Serif" font-size="10.00">src/libs/vtools/dialogs</text>
<text text-anchor="middle" x="839" y="-13" font-family="Helvetica,sans-Serif" font-size="10.00">/tools/dialogcutarc.cpp</text>
</a>
</g>
</g>
<!-- Node1&#45;&gt;Node7 -->
<g id="edge6" class="edge">
<title>Node1&#45;&gt;Node7</title>
<path fill="none" stroke="midnightblue" d="M1924.51,-96.36C1715.36,-91.22 1107.13,-73.9 911,-42 902.04,-40.54 892.59,-38.39 883.6,-36.02"/>
<polygon fill="midnightblue" stroke="midnightblue" points="1924.67,-99.86 1934.75,-96.61 1924.84,-92.86 1924.67,-99.86"/>
</g>
<!-- Node8 -->
<g id="node8" class="node">
<title>Node8</title>
<g id="a_node8"><a xlink:href="../../d3/d2e/dialogcutspline_8cpp.html" target="_top" xlink:title=" ">
<polygon fill="white" stroke="black" points="920.5,-6 920.5,-36 1061.5,-36 1061.5,-6 920.5,-6"/>
<text text-anchor="start" x="928.5" y="-24" font-family="Helvetica,sans-Serif" font-size="10.00">src/libs/vtools/dialogs</text>
<text text-anchor="middle" x="991" y="-13" font-family="Helvetica,sans-Serif" font-size="10.00">/tools/dialogcutspline.cpp</text>
</a>
</g>
</g>
<!-- Node1&#45;&gt;Node8 -->
<g id="edge7" class="edge">
<title>Node1&#45;&gt;Node8</title>
<path fill="none" stroke="midnightblue" d="M1924.51,-98.22C1768.42,-97.72 1385.81,-91.08 1070,-42 1060.35,-40.5 1050.17,-38.36 1040.44,-36.02"/>
<polygon fill="midnightblue" stroke="midnightblue" points="1924.9,-101.72 1934.91,-98.25 1924.91,-94.72 1924.9,-101.72"/>
</g>
<!-- Node9 -->
<g id="node9" class="node">
<title>Node9</title>
<g id="a_node9"><a xlink:href="../../df/d30/dialogcutsplinepath_8cpp.html" target="_top" xlink:title=" ">
<polygon fill="white" stroke="black" points="1079.5,-6 1079.5,-36 1242.5,-36 1242.5,-6 1079.5,-6"/>
<text text-anchor="start" x="1087.5" y="-24" font-family="Helvetica,sans-Serif" font-size="10.00">src/libs/vtools/dialogs</text>
<text text-anchor="middle" x="1161" y="-13" font-family="Helvetica,sans-Serif" font-size="10.00">/tools/dialogcutsplinepath.cpp</text>
</a>
</g>
</g>
<!-- Node1&#45;&gt;Node9 -->
<g id="edge8" class="edge">
<title>Node1&#45;&gt;Node9</title>
<path fill="none" stroke="midnightblue" d="M1924.77,-96.05C1791.73,-91.65 1496.73,-78.35 1251,-42 1240.39,-40.43 1229.17,-38.31 1218.39,-36.04"/>
<polygon fill="midnightblue" stroke="midnightblue" points="1924.72,-99.55 1934.83,-96.37 1924.95,-92.55 1924.72,-99.55"/>
</g>
<!-- Node10 -->
<g id="node10" class="node">
<title>Node10</title>
<g id="a_node10"><a xlink:href="../../dd/d39/dialogcurveintersectaxis_8cpp.html" target="_top" xlink:title=" ">
<polygon fill="white" stroke="black" points="1260.5,-6 1260.5,-36 1447.5,-36 1447.5,-6 1260.5,-6"/>
<text text-anchor="start" x="1268.5" y="-24" font-family="Helvetica,sans-Serif" font-size="10.00">src/libs/vtools/dialogs</text>
<text text-anchor="middle" x="1354" y="-13" font-family="Helvetica,sans-Serif" font-size="10.00">/tools/dialogcurveintersectaxis.cpp</text>
</a>
</g>
</g>
<!-- Node1&#45;&gt;Node10 -->
<g id="edge9" class="edge">
<title>Node1&#45;&gt;Node10</title>
<path fill="none" stroke="midnightblue" d="M1924.74,-92.61C1821.34,-84.34 1623.83,-66.81 1457,-42 1445.56,-40.3 1433.46,-38.21 1421.72,-36.03"/>
<polygon fill="midnightblue" stroke="midnightblue" points="1924.5,-96.1 1934.75,-93.41 1925.06,-89.13 1924.5,-96.1"/>
</g>
<!-- Node11 -->
<g id="node11" class="node">
<title>Node11</title>
<g id="a_node11"><a xlink:href="../../d9/d68/dialogellipticalarc_8cpp.html" target="_top" xlink:title=" ">
<polygon fill="white" stroke="black" points="1466,-6 1466,-36 1620,-36 1620,-6 1466,-6"/>
<text text-anchor="start" x="1474" y="-24" font-family="Helvetica,sans-Serif" font-size="10.00">src/libs/vtools/dialogs</text>
<text text-anchor="middle" x="1543" y="-13" font-family="Helvetica,sans-Serif" font-size="10.00">/tools/dialogellipticalarc.cpp</text>
</a>
</g>
</g>
<!-- Node1&#45;&gt;Node11 -->
<g id="edge10" class="edge">
<title>Node1&#45;&gt;Node11</title>
<path fill="none" stroke="midnightblue" d="M1924.55,-88.76C1850.39,-78.78 1731.16,-61.64 1629,-42 1619.82,-40.23 1610.13,-38.17 1600.69,-36.06"/>
<polygon fill="midnightblue" stroke="midnightblue" points="1924.34,-92.26 1934.71,-90.12 1925.27,-85.32 1924.34,-92.26"/>
</g>
<!-- Node12 -->
<g id="node12" class="node">
<title>Node12</title>
<g id="a_node12"><a xlink:href="../../d3/d15/dialogendline_8cpp.html" target="_top" xlink:title=" ">
<polygon fill="white" stroke="black" points="1638.5,-6 1638.5,-36 1771.5,-36 1771.5,-6 1638.5,-6"/>
<text text-anchor="start" x="1646.5" y="-24" font-family="Helvetica,sans-Serif" font-size="10.00">src/libs/vtools/dialogs</text>
<text text-anchor="middle" x="1705" y="-13" font-family="Helvetica,sans-Serif" font-size="10.00">/tools/dialogendline.cpp</text>
</a>
</g>
</g>
<!-- Node1&#45;&gt;Node12 -->
<g id="edge11" class="edge">
<title>Node1&#45;&gt;Node12</title>
<path fill="none" stroke="midnightblue" d="M1924.99,-79.55C1883.09,-68.65 1829.02,-54.57 1781,-42 1773.61,-40.06 1765.81,-38.02 1758.15,-36"/>
<polygon fill="midnightblue" stroke="midnightblue" points="1924.27,-82.98 1934.82,-82.11 1926.03,-76.21 1924.27,-82.98"/>
</g>
<!-- Node13 -->
<g id="node13" class="node">
<title>Node13</title>
<g id="a_node13"><a xlink:href="../../df/ded/tooldialogs_8h.html" target="_top" xlink:title=" ">
<polygon fill="white" stroke="black" points="1790,-6 1790,-36 1912,-36 1912,-6 1790,-6"/>
<text text-anchor="start" x="1798" y="-24" font-family="Helvetica,sans-Serif" font-size="10.00">src/libs/vtools/dialogs</text>
<text text-anchor="middle" x="1851" y="-13" font-family="Helvetica,sans-Serif" font-size="10.00">/tooldialogs.h</text>
</a>
</g>
</g>
<!-- Node1&#45;&gt;Node13 -->
<g id="edge12" class="edge">
<title>Node1&#45;&gt;Node13</title>
<path fill="none" stroke="midnightblue" d="M1949.53,-73.64C1925.97,-61.3 1898.19,-46.73 1878.14,-36.23"/>
<polygon fill="midnightblue" stroke="midnightblue" points="1948.18,-76.89 1958.66,-78.43 1951.43,-70.69 1948.18,-76.89"/>
</g>
<!-- Node14 -->
<g id="node14" class="node">
<title>Node14</title>
<g id="a_node14"><a xlink:href="../../da/df4/dialognormal_8cpp.html" target="_top" xlink:title=" ">
<polygon fill="white" stroke="black" points="1930.5,-6 1930.5,-36 2061.5,-36 2061.5,-6 1930.5,-6"/>
<text text-anchor="start" x="1938.5" y="-24" font-family="Helvetica,sans-Serif" font-size="10.00">src/libs/vtools/dialogs</text>
<text text-anchor="middle" x="1996" y="-13" font-family="Helvetica,sans-Serif" font-size="10.00">/tools/dialognormal.cpp</text>
</a>
</g>
</g>
<!-- Node1&#45;&gt;Node14 -->
<g id="edge13" class="edge">
<title>Node1&#45;&gt;Node14</title>
<path fill="none" stroke="midnightblue" d="M1996,-68.28C1996,-57.25 1996,-45.25 1996,-36.23"/>
<polygon fill="midnightblue" stroke="midnightblue" points="1992.5,-68.43 1996,-78.43 1999.5,-68.43 1992.5,-68.43"/>
</g>
<!-- Node15 -->
<g id="node15" class="node">
<title>Node15</title>
<g id="a_node15"><a xlink:href="../../de/d3c/dialoglineintersectaxis_8cpp.html" target="_top" xlink:title=" ">
<polygon fill="white" stroke="black" points="2080,-6 2080,-36 2258,-36 2258,-6 2080,-6"/>
<text text-anchor="start" x="2088" y="-24" font-family="Helvetica,sans-Serif" font-size="10.00">src/libs/vtools/dialogs</text>
<text text-anchor="middle" x="2169" y="-13" font-family="Helvetica,sans-Serif" font-size="10.00">/tools/dialoglineintersectaxis.cpp</text>
</a>
</g>
</g>
<!-- Node1&#45;&gt;Node15 -->
<g id="edge14" class="edge">
<title>Node1&#45;&gt;Node15</title>
<path fill="none" stroke="midnightblue" d="M2049.99,-74.28C2078.5,-61.76 2112.54,-46.81 2136.89,-36.11"/>
<polygon fill="midnightblue" stroke="midnightblue" points="2048.3,-71.2 2040.55,-78.43 2051.12,-77.61 2048.3,-71.2"/>
</g>
<!-- Node16 -->
<g id="node16" class="node">
<title>Node16</title>
<g id="a_node16"><a xlink:href="../../d2/d51/dialogmove_8cpp.html" target="_top" xlink:title=" ">
<polygon fill="white" stroke="black" points="2275.5,-6 2275.5,-36 2400.5,-36 2400.5,-6 2275.5,-6"/>
<text text-anchor="start" x="2283.5" y="-24" font-family="Helvetica,sans-Serif" font-size="10.00">src/libs/vtools/dialogs</text>
<text text-anchor="middle" x="2338" y="-13" font-family="Helvetica,sans-Serif" font-size="10.00">/tools/dialogmove.cpp</text>
</a>
</g>
</g>
<!-- Node1&#45;&gt;Node16 -->
<g id="edge15" class="edge">
<title>Node1&#45;&gt;Node16</title>
<path fill="none" stroke="midnightblue" d="M2067.05,-84.74C2121.9,-74.17 2199.55,-58.45 2267,-42 2274.46,-40.18 2282.33,-38.11 2290,-36.02"/>
<polygon fill="midnightblue" stroke="midnightblue" points="2066.25,-81.34 2057.09,-86.66 2067.57,-88.21 2066.25,-81.34"/>
</g>
<!-- Node17 -->
<g id="node17" class="node">
<title>Node17</title>
<g id="a_node17"><a xlink:href="../../d9/df4/dialogpointofcontact_8cpp.html" target="_top" xlink:title=" ">
<polygon fill="white" stroke="black" points="2418.5,-6 2418.5,-36 2585.5,-36 2585.5,-6 2418.5,-6"/>
<text text-anchor="start" x="2426.5" y="-24" font-family="Helvetica,sans-Serif" font-size="10.00">src/libs/vtools/dialogs</text>
<text text-anchor="middle" x="2502" y="-13" font-family="Helvetica,sans-Serif" font-size="10.00">/tools/dialogpointofcontact.cpp</text>
</a>
</g>
</g>
<!-- Node1&#45;&gt;Node17 -->
<g id="edge16" class="edge">
<title>Node1&#45;&gt;Node17</title>
<path fill="none" stroke="midnightblue" d="M2067.31,-90.1C2150.02,-80.54 2290.34,-63.06 2410,-42 2419.98,-40.24 2430.52,-38.16 2440.77,-36.02"/>
<polygon fill="midnightblue" stroke="midnightblue" points="2066.8,-86.64 2057.26,-91.26 2067.6,-93.59 2066.8,-86.64"/>
</g>
<!-- Node18 -->
<g id="node18" class="node">
<title>Node18</title>
<g id="a_node18"><a xlink:href="../../dc/d64/dialogrotation_8cpp.html" target="_top" xlink:title=" ">
<polygon fill="white" stroke="black" points="2603.5,-6 2603.5,-36 2738.5,-36 2738.5,-6 2603.5,-6"/>
<text text-anchor="start" x="2611.5" y="-24" font-family="Helvetica,sans-Serif" font-size="10.00">src/libs/vtools/dialogs</text>
<text text-anchor="middle" x="2671" y="-13" font-family="Helvetica,sans-Serif" font-size="10.00">/tools/dialogrotation.cpp</text>
</a>
</g>
</g>
<!-- Node1&#45;&gt;Node18 -->
<g id="edge17" class="edge">
<title>Node1&#45;&gt;Node18</title>
<path fill="none" stroke="midnightblue" d="M2067.47,-95.11C2180.29,-89.71 2406.26,-75.42 2595,-42 2604,-40.41 2613.5,-38.28 2622.61,-36"/>
<polygon fill="midnightblue" stroke="midnightblue" points="2067.06,-91.63 2057.24,-95.59 2067.39,-98.62 2067.06,-91.63"/>
</g>
<!-- Node19 -->
<g id="node19" class="node">
<title>Node19</title>
<g id="a_node19"><a xlink:href="../../d3/d23/dialogshoulderpoint_8cpp.html" target="_top" xlink:title=" ">
<polygon fill="white" stroke="black" points="2757,-6 2757,-36 2921,-36 2921,-6 2757,-6"/>
<text text-anchor="start" x="2765" y="-24" font-family="Helvetica,sans-Serif" font-size="10.00">src/libs/vtools/dialogs</text>
<text text-anchor="middle" x="2839" y="-13" font-family="Helvetica,sans-Serif" font-size="10.00">/tools/dialogshoulderpoint.cpp</text>
</a>
</g>
</g>
<!-- Node1&#45;&gt;Node19 -->
<g id="edge18" class="edge">
<title>Node1&#45;&gt;Node19</title>
<path fill="none" stroke="midnightblue" d="M2067.38,-96.06C2201.41,-91.67 2499.61,-78.36 2748,-42 2758.72,-40.43 2770.07,-38.31 2780.97,-36.04"/>
<polygon fill="midnightblue" stroke="midnightblue" points="2067.13,-92.57 2057.24,-96.38 2067.35,-99.56 2067.13,-92.57"/>
</g>
<!-- Node20 -->
<g id="node20" class="node">
<title>Node20</title>
<g id="a_node20"><a xlink:href="../../df/de5/dialogspline_8cpp.html" target="_top" xlink:title=" ">
<polygon fill="white" stroke="black" points="2939,-6 2939,-36 3065,-36 3065,-6 2939,-6"/>
<text text-anchor="start" x="2947" y="-24" font-family="Helvetica,sans-Serif" font-size="10.00">src/libs/vtools/dialogs</text>
<text text-anchor="middle" x="3002" y="-13" font-family="Helvetica,sans-Serif" font-size="10.00">/tools/dialogspline.cpp</text>
</a>
</g>
</g>
<!-- Node1&#45;&gt;Node20 -->
<g id="edge19" class="edge">
<title>Node1&#45;&gt;Node20</title>
<path fill="none" stroke="midnightblue" d="M2067.15,-98.83C2224.08,-99.54 2611.34,-95.2 2930,-42 2938.83,-40.53 2948.13,-38.39 2957.01,-36.06"/>
<polygon fill="midnightblue" stroke="midnightblue" points="2067.16,-95.33 2057.14,-98.77 2067.13,-102.33 2067.16,-95.33"/>
</g>
<!-- Node21 -->
<g id="node21" class="node">
<title>Node21</title>
<g id="a_node21"><a xlink:href="../../dc/dc2/dialogsplinepath_8cpp.html" target="_top" xlink:title=" ">
<polygon fill="white" stroke="black" points="3083,-6 3083,-36 3231,-36 3231,-6 3083,-6"/>
<text text-anchor="start" x="3091" y="-24" font-family="Helvetica,sans-Serif" font-size="10.00">src/libs/vtools/dialogs</text>
<text text-anchor="middle" x="3157" y="-13" font-family="Helvetica,sans-Serif" font-size="10.00">/tools/dialogsplinepath.cpp</text>
</a>
</g>
</g>
<!-- Node1&#45;&gt;Node21 -->
<g id="edge20" class="edge">
<title>Node1&#45;&gt;Node21</title>
<path fill="none" stroke="midnightblue" d="M2067.18,-98.82C2240.46,-99.84 2697.59,-96.65 3074,-42 3084.12,-40.53 3094.82,-38.4 3105.04,-36.07"/>
<polygon fill="midnightblue" stroke="midnightblue" points="2067.19,-95.32 2057.17,-98.76 2067.15,-102.32 2067.19,-95.32"/>
</g>
<!-- Node22 -->
<g id="node22" class="node">
<title>Node22</title>
<g id="a_node22"><a xlink:href="../../d5/de8/intersect__circles__dialog_8cpp.html" target="_top" xlink:title=" ">
<polygon fill="white" stroke="black" points="3249,-0.5 3249,-41.5 3375,-41.5 3375,-0.5 3249,-0.5"/>
<text text-anchor="start" x="3257" y="-29.5" font-family="Helvetica,sans-Serif" font-size="10.00">src/libs/vtools/dialogs</text>
<text text-anchor="start" x="3257" y="-18.5" font-family="Helvetica,sans-Serif" font-size="10.00">/tools/intersect_circles</text>
<text text-anchor="middle" x="3312" y="-7.5" font-family="Helvetica,sans-Serif" font-size="10.00">_dialog.cpp</text>
</a>
</g>
</g>
<!-- Node1&#45;&gt;Node22 -->
<g id="edge21" class="edge">
<title>Node1&#45;&gt;Node22</title>
<path fill="none" stroke="midnightblue" d="M2067.54,-96.9C2296.83,-93.05 3011.73,-78.36 3240,-42 3242.95,-41.53 3245.95,-40.98 3248.96,-40.38"/>
<polygon fill="midnightblue" stroke="midnightblue" points="2067.25,-93.41 2057.31,-97.07 2067.37,-100.41 2067.25,-93.41"/>
</g>
<!-- Node23 -->
<g id="node23" class="node">
<title>Node23</title>
<g id="a_node23"><a xlink:href="../../d5/d5a/intersect__circletangent__dialog_8cpp.html" target="_top" xlink:title=" ">
<polygon fill="white" stroke="black" points="3393,-0.5 3393,-41.5 3551,-41.5 3551,-0.5 3393,-0.5"/>
<text text-anchor="start" x="3401" y="-29.5" font-family="Helvetica,sans-Serif" font-size="10.00">src/libs/vtools/dialogs</text>
<text text-anchor="start" x="3401" y="-18.5" font-family="Helvetica,sans-Serif" font-size="10.00">/tools/intersect_circletangent</text>
<text text-anchor="middle" x="3472" y="-7.5" font-family="Helvetica,sans-Serif" font-size="10.00">_dialog.cpp</text>
</a>
</g>
</g>
<!-- Node1&#45;&gt;Node23 -->
<g id="edge22" class="edge">
<title>Node1&#45;&gt;Node23</title>
<path fill="none" stroke="midnightblue" d="M2067.66,-96.84C2314.08,-92.59 3125.63,-76.28 3384,-42 3386.95,-41.61 3389.95,-41.16 3392.97,-40.68"/>
<polygon fill="midnightblue" stroke="midnightblue" points="2067.33,-93.35 2057.4,-97.02 2067.45,-100.35 2067.33,-93.35"/>
</g>
<!-- Node24 -->
<g id="node24" class="node">
<title>Node24</title>
<g id="a_node24"><a xlink:href="../../dc/d82/dialoginternalpath_8cpp.html" target="_top" xlink:title=" ">
<polygon fill="white" stroke="black" points="3568.5,-6 3568.5,-36 3753.5,-36 3753.5,-6 3568.5,-6"/>
<text text-anchor="start" x="3576.5" y="-24" font-family="Helvetica,sans-Serif" font-size="10.00">src/libs/vtools/dialogs</text>
<text text-anchor="middle" x="3661" y="-13" font-family="Helvetica,sans-Serif" font-size="10.00">/tools/piece/dialoginternalpath.cpp</text>
</a>
</g>
</g>
<!-- Node1&#45;&gt;Node24 -->
<g id="edge23" class="edge">
<title>Node1&#45;&gt;Node24</title>
<path fill="none" stroke="midnightblue" d="M2067.58,-96.96C2333.58,-92.84 3265.04,-76.26 3560,-42 3572.43,-40.56 3585.61,-38.41 3598.21,-36.05"/>
<polygon fill="midnightblue" stroke="midnightblue" points="2067.22,-93.46 2057.27,-97.11 2067.33,-100.46 2067.22,-93.46"/>
</g>
<!-- Node25 -->
<g id="node25" class="node">
<title>Node25</title>
<g id="a_node25"><a xlink:href="../../de/d46/pattern__piece__dialog_8cpp.html" target="_top" xlink:title=" ">
<polygon fill="white" stroke="black" points="3771.5,-0.5 3771.5,-41.5 3914.5,-41.5 3914.5,-0.5 3771.5,-0.5"/>
<text text-anchor="start" x="3779.5" y="-29.5" font-family="Helvetica,sans-Serif" font-size="10.00">src/libs/vtools/dialogs</text>
<text text-anchor="start" x="3779.5" y="-18.5" font-family="Helvetica,sans-Serif" font-size="10.00">/tools/piece/pattern_piece</text>
<text text-anchor="middle" x="3843" y="-7.5" font-family="Helvetica,sans-Serif" font-size="10.00">_dialog.cpp</text>
</a>
</g>
</g>
<!-- Node1&#45;&gt;Node25 -->
<g id="edge24" class="edge">
<title>Node1&#45;&gt;Node25</title>
<path fill="none" stroke="midnightblue" d="M2067.63,-97.77C2355.3,-96.51 3427.25,-88.74 3763,-42 3765.69,-41.62 3768.43,-41.2 3771.18,-40.72"/>
<polygon fill="midnightblue" stroke="midnightblue" points="2067.31,-94.27 2057.32,-97.81 2067.34,-101.27 2067.31,-94.27"/>
</g>
<!-- Node26 -->
<g id="node26" class="node">
<title>Node26</title>
<g id="a_node26"><a xlink:href="../../d9/d4e/vabstracttool_8cpp.html" target="_top" xlink:title=" ">
<polygon fill="white" stroke="black" points="3932.5,-6 3932.5,-36 4043.5,-36 4043.5,-6 3932.5,-6"/>
<text text-anchor="start" x="3940.5" y="-24" font-family="Helvetica,sans-Serif" font-size="10.00">src/libs/vtools/tools</text>
<text text-anchor="middle" x="3988" y="-13" font-family="Helvetica,sans-Serif" font-size="10.00">/vabstracttool.cpp</text>
</a>
</g>
</g>
<!-- Node1&#45;&gt;Node26 -->
<g id="edge25" class="edge">
<title>Node1&#45;&gt;Node26</title>
<path fill="none" stroke="midnightblue" d="M2067.43,-97.08C2394.19,-92.73 3738.54,-73.07 3924,-42 3932.15,-40.63 3940.7,-38.49 3948.81,-36.1"/>
<polygon fill="midnightblue" stroke="midnightblue" points="2067.1,-93.59 2057.15,-97.22 2067.19,-100.59 2067.1,-93.59"/>
</g>
</g>
</svg>
