<?xml version="1.0" encoding="UTF-8" standalone="no"?>
<!DOCTYPE svg PUBLIC "-//W3C//DTD SVG 1.1//EN"
 "http://www.w3.org/Graphics/SVG/1.1/DTD/svg11.dtd">
<!-- Generated by graphviz version 2.43.0 (0)
 -->
<!-- Title: src/libs/vtools/dialogs/support/edit_formula_dialog.h Pages: 1 -->
<svg width="4054pt" height="128pt"
 viewBox="0.00 0.00 4053.50 128.00" xmlns="http://www.w3.org/2000/svg" xmlns:xlink="http://www.w3.org/1999/xlink">
<g id="graph0" class="graph" transform="scale(1 1) rotate(0) translate(4 124)">
<title>src/libs/vtools/dialogs/support/edit_formula_dialog.h</title>
<polygon fill="white" stroke="transparent" points="-4,4 -4,-124 4049.5,-124 4049.5,4 -4,4"/>
<!-- Node1 -->
<g id="node1" class="node">
<title>Node1</title>
<g id="a_node1"><a xlink:title=" ">
<polygon fill="#bfbfbf" stroke="black" points="1935,-78.5 1935,-119.5 2057,-119.5 2057,-78.5 1935,-78.5"/>
<text text-anchor="start" x="1943" y="-107.5" font-family="Helvetica,sans-Serif" font-size="10.00">src/libs/vtools/dialogs</text>
<text text-anchor="start" x="1943" y="-96.5" font-family="Helvetica,sans-Serif" font-size="10.00">/support/edit_formula</text>
<text text-anchor="middle" x="1996" y="-85.5" font-family="Helvetica,sans-Serif" font-size="10.00">_dialog.h</text>
</a>
</g>
</g>
<!-- Node2 -->
<g id="node2" class="node">
<title>Node2</title>
<g id="a_node2"><a xlink:href="../../d7/d8d/edit__formula__dialog_8cpp.html" target="_top" xlink:title=" ">
<polygon fill="white" stroke="black" points="0,-0.5 0,-41.5 122,-41.5 122,-0.5 0,-0.5"/>
<text text-anchor="start" x="8" y="-29.5" font-family="Helvetica,sans-Serif" font-size="10.00">src/libs/vtools/dialogs</text>
<text text-anchor="start" x="8" y="-18.5" font-family="Helvetica,sans-Serif" font-size="10.00">/support/edit_formula</text>
<text text-anchor="middle" x="61" y="-7.5" font-family="Helvetica,sans-Serif" font-size="10.00">_dialog.cpp</text>
</a>
</g>
</g>
<!-- Node1&#45;&gt;Node2 -->
<g id="edge1" class="edge">
<title>Node1&#45;&gt;Node2</title>
<path fill="none" stroke="midnightblue" d="M1924.32,-98.22C1626.54,-98.78 486.09,-97.18 131,-42 128.13,-41.55 125.21,-41.03 122.27,-40.44"/>
<polygon fill="midnightblue" stroke="midnightblue" points="1924.56,-101.72 1934.56,-98.2 1924.55,-94.72 1924.56,-101.72"/>
</g>
<!-- Node3 -->
<g id="node3" class="node">
<title>Node3</title>
<g id="a_node3"><a xlink:href="../../d1/d37/dialogarc_8cpp.html" target="_top" xlink:title=" ">
<polygon fill="white" stroke="black" points="140,-6 140,-36 262,-36 262,-6 140,-6"/>
<text text-anchor="start" x="148" y="-24" font-family="Helvetica,sans-Serif" font-size="10.00">src/libs/vtools/dialogs</text>
<text text-anchor="middle" x="201" y="-13" font-family="Helvetica,sans-Serif" font-size="10.00">/tools/dialogarc.cpp</text>
</a>
</g>
</g>
<!-- Node1&#45;&gt;Node3 -->
<g id="edge2" class="edge">
<title>Node1&#45;&gt;Node3</title>
<path fill="none" stroke="midnightblue" d="M1924.61,-98.02C1641.5,-97.73 597.41,-93.13 271,-42 262.13,-40.61 252.8,-38.45 243.94,-36.06"/>
<polygon fill="midnightblue" stroke="midnightblue" points="1924.75,-101.52 1934.75,-98.03 1924.76,-94.52 1924.75,-101.52"/>
</g>
<!-- Node4 -->
<g id="node4" class="node">
<title>Node4</title>
<g id="a_node4"><a xlink:href="../../d6/d5d/dialogalongline_8cpp.html" target="_top" xlink:title=" ">
<polygon fill="white" stroke="black" points="280,-6 280,-36 422,-36 422,-6 280,-6"/>
<text text-anchor="start" x="288" y="-24" font-family="Helvetica,sans-Serif" font-size="10.00">src/libs/vtools/dialogs</text>
<text text-anchor="middle" x="351" y="-13" font-family="Helvetica,sans-Serif" font-size="10.00">/tools/dialogalongline.cpp</text>
</a>
</g>
</g>
<!-- Node1&#45;&gt;Node4 -->
<g id="edge3" class="edge">
<title>Node1&#45;&gt;Node4</title>
<path fill="none" stroke="midnightblue" d="M1924.32,-97.43C1657.93,-94.98 725.21,-83.57 431,-42 420.94,-40.58 410.3,-38.41 400.18,-36.01"/>
<polygon fill="midnightblue" stroke="midnightblue" points="1924.6,-100.93 1934.64,-97.52 1924.67,-93.93 1924.6,-100.93"/>
</g>
<!-- Node5 -->
<g id="node5" class="node">
<title>Node5</title>
<g id="a_node5"><a xlink:href="../../d2/d29/dialogarcwithlength_8cpp.html" target="_top" xlink:title=" ">
<polygon fill="white" stroke="black" points="440,-6 440,-36 604,-36 604,-6 440,-6"/>
<text text-anchor="start" x="448" y="-24" font-family="Helvetica,sans-Serif" font-size="10.00">src/libs/vtools/dialogs</text>
<text text-anchor="middle" x="522" y="-13" font-family="Helvetica,sans-Serif" font-size="10.00">/tools/dialogarcwithlength.cpp</text>
</a>
</g>
</g>
<!-- Node1&#45;&gt;Node5 -->
<g id="edge4" class="edge">
<title>Node1&#45;&gt;Node5</title>
<path fill="none" stroke="midnightblue" d="M1924.61,-96.77C1679.1,-92.28 870.56,-75.26 613,-42 601.77,-40.55 589.88,-38.4 578.52,-36.04"/>
<polygon fill="midnightblue" stroke="midnightblue" points="1924.77,-100.27 1934.83,-96.95 1924.9,-93.27 1924.77,-100.27"/>
</g>
<!-- Node6 -->
<g id="node6" class="node">
<title>Node6</title>
<g id="a_node6"><a xlink:href="../../da/dfa/dialogbisector_8cpp.html" target="_top" xlink:title=" ">
<polygon fill="white" stroke="black" points="622.5,-6 622.5,-36 757.5,-36 757.5,-6 622.5,-6"/>
<text text-anchor="start" x="630.5" y="-24" font-family="Helvetica,sans-Serif" font-size="10.00">src/libs/vtools/dialogs</text>
<text text-anchor="middle" x="690" y="-13" font-family="Helvetica,sans-Serif" font-size="10.00">/tools/dialogbisector.cpp</text>
</a>
</g>
</g>
<!-- Node1&#45;&gt;Node6 -->
<g id="edge5" class="edge">
<title>Node1&#45;&gt;Node6</title>
<path fill="none" stroke="midnightblue" d="M1924.5,-96.73C1697.01,-92.39 991.68,-76.43 766,-42 756.56,-40.56 746.6,-38.41 737.11,-36.05"/>
<polygon fill="midnightblue" stroke="midnightblue" points="1924.58,-100.24 1934.65,-96.93 1924.72,-93.24 1924.58,-100.24"/>
</g>
<!-- Node7 -->
<g id="node7" class="node">
<title>Node7</title>
<g id="a_node7"><a xlink:href="../../dd/d39/dialogcurveintersectaxis_8cpp.html" target="_top" xlink:title=" ">
<polygon fill="white" stroke="black" points="775.5,-6 775.5,-36 962.5,-36 962.5,-6 775.5,-6"/>
<text text-anchor="start" x="783.5" y="-24" font-family="Helvetica,sans-Serif" font-size="10.00">src/libs/vtools/dialogs</text>
<text text-anchor="middle" x="869" y="-13" font-family="Helvetica,sans-Serif" font-size="10.00">/tools/dialogcurveintersectaxis.cpp</text>
</a>
</g>
</g>
<!-- Node1&#45;&gt;Node7 -->
<g id="edge6" class="edge">
<title>Node1&#45;&gt;Node7</title>
<path fill="none" stroke="midnightblue" d="M1924.64,-97.51C1757.36,-95.61 1327.18,-86.43 971,-42 958.73,-40.47 945.73,-38.33 933.26,-36.01"/>
<polygon fill="midnightblue" stroke="midnightblue" points="1924.76,-101.01 1934.79,-97.62 1924.83,-94.01 1924.76,-101.01"/>
</g>
<!-- Node8 -->
<g id="node8" class="node">
<title>Node8</title>
<g id="a_node8"><a xlink:href="../../d9/d90/dialogcutarc_8cpp.html" target="_top" xlink:title=" ">
<polygon fill="white" stroke="black" points="980.5,-6 980.5,-36 1107.5,-36 1107.5,-6 980.5,-6"/>
<text text-anchor="start" x="988.5" y="-24" font-family="Helvetica,sans-Serif" font-size="10.00">src/libs/vtools/dialogs</text>
<text text-anchor="middle" x="1044" y="-13" font-family="Helvetica,sans-Serif" font-size="10.00">/tools/dialogcutarc.cpp</text>
</a>
</g>
</g>
<!-- Node1&#45;&gt;Node8 -->
<g id="edge7" class="edge">
<title>Node1&#45;&gt;Node8</title>
<path fill="none" stroke="midnightblue" d="M1924.93,-98.45C1774.54,-98.31 1413.52,-92.23 1116,-42 1107.17,-40.51 1097.87,-38.37 1089,-36.04"/>
<polygon fill="midnightblue" stroke="midnightblue" points="1924.95,-101.95 1934.95,-98.45 1924.96,-94.95 1924.95,-101.95"/>
</g>
<!-- Node9 -->
<g id="node9" class="node">
<title>Node9</title>
<g id="a_node9"><a xlink:href="../../d3/d2e/dialogcutspline_8cpp.html" target="_top" xlink:title=" ">
<polygon fill="white" stroke="black" points="1125.5,-6 1125.5,-36 1266.5,-36 1266.5,-6 1125.5,-6"/>
<text text-anchor="start" x="1133.5" y="-24" font-family="Helvetica,sans-Serif" font-size="10.00">src/libs/vtools/dialogs</text>
<text text-anchor="middle" x="1196" y="-13" font-family="Helvetica,sans-Serif" font-size="10.00">/tools/dialogcutspline.cpp</text>
</a>
</g>
</g>
<!-- Node1&#45;&gt;Node9 -->
<g id="edge8" class="edge">
<title>Node1&#45;&gt;Node9</title>
<path fill="none" stroke="midnightblue" d="M1924.59,-96.48C1794.56,-92.82 1510.82,-80.72 1275,-42 1265.65,-40.46 1255.78,-38.36 1246.3,-36.1"/>
<polygon fill="midnightblue" stroke="midnightblue" points="1924.72,-99.98 1934.81,-96.76 1924.91,-92.99 1924.72,-99.98"/>
</g>
<!-- Node10 -->
<g id="node10" class="node">
<title>Node10</title>
<g id="a_node10"><a xlink:href="../../df/d30/dialogcutsplinepath_8cpp.html" target="_top" xlink:title=" ">
<polygon fill="white" stroke="black" points="1284.5,-6 1284.5,-36 1447.5,-36 1447.5,-6 1284.5,-6"/>
<text text-anchor="start" x="1292.5" y="-24" font-family="Helvetica,sans-Serif" font-size="10.00">src/libs/vtools/dialogs</text>
<text text-anchor="middle" x="1366" y="-13" font-family="Helvetica,sans-Serif" font-size="10.00">/tools/dialogcutsplinepath.cpp</text>
</a>
</g>
</g>
<!-- Node1&#45;&gt;Node10 -->
<g id="edge9" class="edge">
<title>Node1&#45;&gt;Node10</title>
<path fill="none" stroke="midnightblue" d="M1924.65,-93.16C1821.15,-85.56 1623.51,-68.86 1457,-42 1446.78,-40.35 1435.98,-38.28 1425.53,-36.09"/>
<polygon fill="midnightblue" stroke="midnightblue" points="1924.45,-96.66 1934.68,-93.89 1924.96,-89.68 1924.45,-96.66"/>
</g>
<!-- Node11 -->
<g id="node11" class="node">
<title>Node11</title>
<g id="a_node11"><a xlink:href="../../d9/d68/dialogellipticalarc_8cpp.html" target="_top" xlink:title=" ">
<polygon fill="white" stroke="black" points="1466,-6 1466,-36 1620,-36 1620,-6 1466,-6"/>
<text text-anchor="start" x="1474" y="-24" font-family="Helvetica,sans-Serif" font-size="10.00">src/libs/vtools/dialogs</text>
<text text-anchor="middle" x="1543" y="-13" font-family="Helvetica,sans-Serif" font-size="10.00">/tools/dialogellipticalarc.cpp</text>
</a>
</g>
</g>
<!-- Node1&#45;&gt;Node11 -->
<g id="edge10" class="edge">
<title>Node1&#45;&gt;Node11</title>
<path fill="none" stroke="midnightblue" d="M1924.55,-88.76C1850.39,-78.78 1731.16,-61.64 1629,-42 1619.82,-40.23 1610.13,-38.17 1600.69,-36.06"/>
<polygon fill="midnightblue" stroke="midnightblue" points="1924.34,-92.26 1934.71,-90.12 1925.27,-85.32 1924.34,-92.26"/>
</g>
<!-- Node12 -->
<g id="node12" class="node">
<title>Node12</title>
<g id="a_node12"><a xlink:href="../../d3/d15/dialogendline_8cpp.html" target="_top" xlink:title=" ">
<polygon fill="white" stroke="black" points="1638.5,-6 1638.5,-36 1771.5,-36 1771.5,-6 1638.5,-6"/>
<text text-anchor="start" x="1646.5" y="-24" font-family="Helvetica,sans-Serif" font-size="10.00">src/libs/vtools/dialogs</text>
<text text-anchor="middle" x="1705" y="-13" font-family="Helvetica,sans-Serif" font-size="10.00">/tools/dialogendline.cpp</text>
</a>
</g>
</g>
<!-- Node1&#45;&gt;Node12 -->
<g id="edge11" class="edge">
<title>Node1&#45;&gt;Node12</title>
<path fill="none" stroke="midnightblue" d="M1924.99,-79.55C1883.09,-68.65 1829.02,-54.57 1781,-42 1773.61,-40.06 1765.81,-38.02 1758.15,-36"/>
<polygon fill="midnightblue" stroke="midnightblue" points="1924.27,-82.98 1934.82,-82.11 1926.03,-76.21 1924.27,-82.98"/>
</g>
<!-- Node13 -->
<g id="node13" class="node">
<title>Node13</title>
<g id="a_node13"><a xlink:href="../../df/ded/tooldialogs_8h.html" target="_top" xlink:title=" ">
<polygon fill="white" stroke="black" points="1790,-6 1790,-36 1912,-36 1912,-6 1790,-6"/>
<text text-anchor="start" x="1798" y="-24" font-family="Helvetica,sans-Serif" font-size="10.00">src/libs/vtools/dialogs</text>
<text text-anchor="middle" x="1851" y="-13" font-family="Helvetica,sans-Serif" font-size="10.00">/tooldialogs.h</text>
</a>
</g>
</g>
<!-- Node1&#45;&gt;Node13 -->
<g id="edge12" class="edge">
<title>Node1&#45;&gt;Node13</title>
<path fill="none" stroke="midnightblue" d="M1949.53,-73.64C1925.97,-61.3 1898.19,-46.73 1878.14,-36.23"/>
<polygon fill="midnightblue" stroke="midnightblue" points="1948.18,-76.89 1958.66,-78.43 1951.43,-70.69 1948.18,-76.89"/>
</g>
<!-- Node14 -->
<g id="node14" class="node">
<title>Node14</title>
<g id="a_node14"><a xlink:href="../../da/df4/dialognormal_8cpp.html" target="_top" xlink:title=" ">
<polygon fill="white" stroke="black" points="1930.5,-6 1930.5,-36 2061.5,-36 2061.5,-6 1930.5,-6"/>
<text text-anchor="start" x="1938.5" y="-24" font-family="Helvetica,sans-Serif" font-size="10.00">src/libs/vtools/dialogs</text>
<text text-anchor="middle" x="1996" y="-13" font-family="Helvetica,sans-Serif" font-size="10.00">/tools/dialognormal.cpp</text>
</a>
</g>
</g>
<!-- Node1&#45;&gt;Node14 -->
<g id="edge13" class="edge">
<title>Node1&#45;&gt;Node14</title>
<path fill="none" stroke="midnightblue" d="M1996,-68.28C1996,-57.25 1996,-45.25 1996,-36.23"/>
<polygon fill="midnightblue" stroke="midnightblue" points="1992.5,-68.43 1996,-78.43 1999.5,-68.43 1992.5,-68.43"/>
</g>
<!-- Node15 -->
<g id="node15" class="node">
<title>Node15</title>
<g id="a_node15"><a xlink:href="../../de/d3c/dialoglineintersectaxis_8cpp.html" target="_top" xlink:title=" ">
<polygon fill="white" stroke="black" points="2080,-6 2080,-36 2258,-36 2258,-6 2080,-6"/>
<text text-anchor="start" x="2088" y="-24" font-family="Helvetica,sans-Serif" font-size="10.00">src/libs/vtools/dialogs</text>
<text text-anchor="middle" x="2169" y="-13" font-family="Helvetica,sans-Serif" font-size="10.00">/tools/dialoglineintersectaxis.cpp</text>
</a>
</g>
</g>
<!-- Node1&#45;&gt;Node15 -->
<g id="edge14" class="edge">
<title>Node1&#45;&gt;Node15</title>
<path fill="none" stroke="midnightblue" d="M2049.99,-74.28C2078.5,-61.76 2112.54,-46.81 2136.89,-36.11"/>
<polygon fill="midnightblue" stroke="midnightblue" points="2048.3,-71.2 2040.55,-78.43 2051.12,-77.61 2048.3,-71.2"/>
</g>
<!-- Node16 -->
<g id="node16" class="node">
<title>Node16</title>
<g id="a_node16"><a xlink:href="../../d2/d51/dialogmove_8cpp.html" target="_top" xlink:title=" ">
<polygon fill="white" stroke="black" points="2275.5,-6 2275.5,-36 2400.5,-36 2400.5,-6 2275.5,-6"/>
<text text-anchor="start" x="2283.5" y="-24" font-family="Helvetica,sans-Serif" font-size="10.00">src/libs/vtools/dialogs</text>
<text text-anchor="middle" x="2338" y="-13" font-family="Helvetica,sans-Serif" font-size="10.00">/tools/dialogmove.cpp</text>
</a>
</g>
</g>
<!-- Node1&#45;&gt;Node16 -->
<g id="edge15" class="edge">
<title>Node1&#45;&gt;Node16</title>
<path fill="none" stroke="midnightblue" d="M2067.05,-84.74C2121.9,-74.17 2199.55,-58.45 2267,-42 2274.46,-40.18 2282.33,-38.11 2290,-36.02"/>
<polygon fill="midnightblue" stroke="midnightblue" points="2066.25,-81.34 2057.09,-86.66 2067.57,-88.21 2066.25,-81.34"/>
</g>
<!-- Node17 -->
<g id="node17" class="node">
<title>Node17</title>
<g id="a_node17"><a xlink:href="../../d9/df4/dialogpointofcontact_8cpp.html" target="_top" xlink:title=" ">
<polygon fill="white" stroke="black" points="2418.5,-6 2418.5,-36 2585.5,-36 2585.5,-6 2418.5,-6"/>
<text text-anchor="start" x="2426.5" y="-24" font-family="Helvetica,sans-Serif" font-size="10.00">src/libs/vtools/dialogs</text>
<text text-anchor="middle" x="2502" y="-13" font-family="Helvetica,sans-Serif" font-size="10.00">/tools/dialogpointofcontact.cpp</text>
</a>
</g>
</g>
<!-- Node1&#45;&gt;Node17 -->
<g id="edge16" class="edge">
<title>Node1&#45;&gt;Node17</title>
<path fill="none" stroke="midnightblue" d="M2067.31,-90.1C2150.02,-80.54 2290.34,-63.06 2410,-42 2419.98,-40.24 2430.52,-38.16 2440.77,-36.02"/>
<polygon fill="midnightblue" stroke="midnightblue" points="2066.8,-86.64 2057.26,-91.26 2067.6,-93.59 2066.8,-86.64"/>
</g>
<!-- Node18 -->
<g id="node18" class="node">
<title>Node18</title>
<g id="a_node18"><a xlink:href="../../d3/d23/dialogshoulderpoint_8cpp.html" target="_top" xlink:title=" ">
<polygon fill="white" stroke="black" points="2604,-6 2604,-36 2768,-36 2768,-6 2604,-6"/>
<text text-anchor="start" x="2612" y="-24" font-family="Helvetica,sans-Serif" font-size="10.00">src/libs/vtools/dialogs</text>
<text text-anchor="middle" x="2686" y="-13" font-family="Helvetica,sans-Serif" font-size="10.00">/tools/dialogshoulderpoint.cpp</text>
</a>
</g>
</g>
<!-- Node1&#45;&gt;Node18 -->
<g id="edge17" class="edge">
<title>Node1&#45;&gt;Node18</title>
<path fill="none" stroke="midnightblue" d="M2067.31,-94.18C2179.92,-87.51 2405.61,-71.55 2595,-42 2605.39,-40.38 2616.37,-38.29 2626.97,-36.08"/>
<polygon fill="midnightblue" stroke="midnightblue" points="2066.88,-90.7 2057.1,-94.78 2067.29,-97.69 2066.88,-90.7"/>
</g>
<!-- Node19 -->
<g id="node19" class="node">
<title>Node19</title>
<g id="a_node19"><a xlink:href="../../dc/d64/dialogrotation_8cpp.html" target="_top" xlink:title=" ">
<polygon fill="white" stroke="black" points="2786.5,-6 2786.5,-36 2921.5,-36 2921.5,-6 2786.5,-6"/>
<text text-anchor="start" x="2794.5" y="-24" font-family="Helvetica,sans-Serif" font-size="10.00">src/libs/vtools/dialogs</text>
<text text-anchor="middle" x="2854" y="-13" font-family="Helvetica,sans-Serif" font-size="10.00">/tools/dialogrotation.cpp</text>
</a>
</g>
</g>
<!-- Node1&#45;&gt;Node19 -->
<g id="edge18" class="edge">
<title>Node1&#45;&gt;Node19</title>
<path fill="none" stroke="midnightblue" d="M2067.22,-97.23C2205.14,-94.78 2517.89,-84.57 2777,-42 2786.27,-40.48 2796.04,-38.35 2805.41,-36.05"/>
<polygon fill="midnightblue" stroke="midnightblue" points="2067.14,-93.73 2057.2,-97.4 2067.26,-100.73 2067.14,-93.73"/>
</g>
<!-- Node20 -->
<g id="node20" class="node">
<title>Node20</title>
<g id="a_node20"><a xlink:href="../../df/de5/dialogspline_8cpp.html" target="_top" xlink:title=" ">
<polygon fill="white" stroke="black" points="2940,-6 2940,-36 3066,-36 3066,-6 2940,-6"/>
<text text-anchor="start" x="2948" y="-24" font-family="Helvetica,sans-Serif" font-size="10.00">src/libs/vtools/dialogs</text>
<text text-anchor="middle" x="3003" y="-13" font-family="Helvetica,sans-Serif" font-size="10.00">/tools/dialogspline.cpp</text>
</a>
</g>
</g>
<!-- Node1&#45;&gt;Node20 -->
<g id="edge19" class="edge">
<title>Node1&#45;&gt;Node20</title>
<path fill="none" stroke="midnightblue" d="M2067.22,-98.83C2224.33,-99.56 2611.99,-95.24 2931,-42 2939.83,-40.53 2949.13,-38.39 2958.01,-36.07"/>
<polygon fill="midnightblue" stroke="midnightblue" points="2067.23,-95.33 2057.21,-98.78 2067.19,-102.33 2067.23,-95.33"/>
</g>
<!-- Node21 -->
<g id="node21" class="node">
<title>Node21</title>
<g id="a_node21"><a xlink:href="../../dc/dc2/dialogsplinepath_8cpp.html" target="_top" xlink:title=" ">
<polygon fill="white" stroke="black" points="3084,-6 3084,-36 3232,-36 3232,-6 3084,-6"/>
<text text-anchor="start" x="3092" y="-24" font-family="Helvetica,sans-Serif" font-size="10.00">src/libs/vtools/dialogs</text>
<text text-anchor="middle" x="3158" y="-13" font-family="Helvetica,sans-Serif" font-size="10.00">/tools/dialogsplinepath.cpp</text>
</a>
</g>
</g>
<!-- Node1&#45;&gt;Node21 -->
<g id="edge20" class="edge">
<title>Node1&#45;&gt;Node21</title>
<path fill="none" stroke="midnightblue" d="M2067.25,-98.83C2240.69,-99.86 2698.25,-96.69 3075,-42 3085.12,-40.53 3095.82,-38.4 3106.04,-36.07"/>
<polygon fill="midnightblue" stroke="midnightblue" points="2067.25,-95.33 2057.23,-98.76 2067.2,-102.33 2067.25,-95.33"/>
</g>
<!-- Node22 -->
<g id="node22" class="node">
<title>Node22</title>
<g id="a_node22"><a xlink:href="../../d5/de8/intersect__circles__dialog_8cpp.html" target="_top" xlink:title=" ">
<polygon fill="white" stroke="black" points="3250,-0.5 3250,-41.5 3376,-41.5 3376,-0.5 3250,-0.5"/>
<text text-anchor="start" x="3258" y="-29.5" font-family="Helvetica,sans-Serif" font-size="10.00">src/libs/vtools/dialogs</text>
<text text-anchor="start" x="3258" y="-18.5" font-family="Helvetica,sans-Serif" font-size="10.00">/tools/intersect_circles</text>
<text text-anchor="middle" x="3313" y="-7.5" font-family="Helvetica,sans-Serif" font-size="10.00">_dialog.cpp</text>
</a>
</g>
</g>
<!-- Node1&#45;&gt;Node22 -->
<g id="edge21" class="edge">
<title>Node1&#45;&gt;Node22</title>
<path fill="none" stroke="midnightblue" d="M2067.6,-96.9C2297.07,-93.06 3012.54,-78.39 3241,-42 3243.95,-41.53 3246.95,-40.98 3249.96,-40.38"/>
<polygon fill="midnightblue" stroke="midnightblue" points="2067.3,-93.41 2057.36,-97.07 2067.42,-100.41 2067.3,-93.41"/>
</g>
<!-- Node23 -->
<g id="node23" class="node">
<title>Node23</title>
<g id="a_node23"><a xlink:href="../../dc/d82/dialoginternalpath_8cpp.html" target="_top" xlink:title=" ">
<polygon fill="white" stroke="black" points="3394.5,-6 3394.5,-36 3579.5,-36 3579.5,-6 3394.5,-6"/>
<text text-anchor="start" x="3402.5" y="-24" font-family="Helvetica,sans-Serif" font-size="10.00">src/libs/vtools/dialogs</text>
<text text-anchor="middle" x="3487" y="-13" font-family="Helvetica,sans-Serif" font-size="10.00">/tools/piece/dialoginternalpath.cpp</text>
</a>
</g>
</g>
<!-- Node1&#45;&gt;Node23 -->
<g id="edge22" class="edge">
<title>Node1&#45;&gt;Node23</title>
<path fill="none" stroke="midnightblue" d="M2067.26,-96.57C2313.24,-91.42 3125.81,-72.45 3385,-42 3397.46,-40.54 3410.67,-38.39 3423.3,-36.05"/>
<polygon fill="midnightblue" stroke="midnightblue" points="2066.94,-93.08 2057.01,-96.79 2067.08,-100.08 2066.94,-93.08"/>
</g>
<!-- Node24 -->
<g id="node24" class="node">
<title>Node24</title>
<g id="a_node24"><a xlink:href="../../d5/d5a/intersect__circletangent__dialog_8cpp.html" target="_top" xlink:title=" ">
<polygon fill="white" stroke="black" points="3597,-0.5 3597,-41.5 3755,-41.5 3755,-0.5 3597,-0.5"/>
<text text-anchor="start" x="3605" y="-29.5" font-family="Helvetica,sans-Serif" font-size="10.00">src/libs/vtools/dialogs</text>
<text text-anchor="start" x="3605" y="-18.5" font-family="Helvetica,sans-Serif" font-size="10.00">/tools/intersect_circletangent</text>
<text text-anchor="middle" x="3676" y="-7.5" font-family="Helvetica,sans-Serif" font-size="10.00">_dialog.cpp</text>
</a>
</g>
</g>
<!-- Node1&#45;&gt;Node24 -->
<g id="edge23" class="edge">
<title>Node1&#45;&gt;Node24</title>
<path fill="none" stroke="midnightblue" d="M2067.17,-97.3C2335.85,-94.39 3288.48,-81.46 3589,-42 3591.61,-41.66 3594.26,-41.27 3596.93,-40.85"/>
<polygon fill="midnightblue" stroke="midnightblue" points="2067.11,-93.8 2057.15,-97.41 2067.18,-100.8 2067.11,-93.8"/>
</g>
<!-- Node25 -->
<g id="node25" class="node">
<title>Node25</title>
<g id="a_node25"><a xlink:href="../../de/d46/pattern__piece__dialog_8cpp.html" target="_top" xlink:title=" ">
<polygon fill="white" stroke="black" points="3773.5,-0.5 3773.5,-41.5 3916.5,-41.5 3916.5,-0.5 3773.5,-0.5"/>
<text text-anchor="start" x="3781.5" y="-29.5" font-family="Helvetica,sans-Serif" font-size="10.00">src/libs/vtools/dialogs</text>
<text text-anchor="start" x="3781.5" y="-18.5" font-family="Helvetica,sans-Serif" font-size="10.00">/tools/piece/pattern_piece</text>
<text text-anchor="middle" x="3845" y="-7.5" font-family="Helvetica,sans-Serif" font-size="10.00">_dialog.cpp</text>
</a>
</g>
</g>
<!-- Node1&#45;&gt;Node25 -->
<g id="edge24" class="edge">
<title>Node1&#45;&gt;Node25</title>
<path fill="none" stroke="midnightblue" d="M2067.66,-97.74C2355.49,-96.39 3427.99,-88.28 3764,-42 3767.01,-41.58 3770.08,-41.1 3773.16,-40.57"/>
<polygon fill="midnightblue" stroke="midnightblue" points="2067.34,-94.24 2057.36,-97.79 2067.37,-101.24 2067.34,-94.24"/>
</g>
<!-- Node26 -->
<g id="node26" class="node">
<title>Node26</title>
<g id="a_node26"><a xlink:href="../../d9/d4e/vabstracttool_8cpp.html" target="_top" xlink:title=" ">
<polygon fill="white" stroke="black" points="3934.5,-6 3934.5,-36 4045.5,-36 4045.5,-6 3934.5,-6"/>
<text text-anchor="start" x="3942.5" y="-24" font-family="Helvetica,sans-Serif" font-size="10.00">src/libs/vtools/tools</text>
<text text-anchor="middle" x="3990" y="-13" font-family="Helvetica,sans-Serif" font-size="10.00">/vabstracttool.cpp</text>
</a>
</g>
</g>
<!-- Node1&#45;&gt;Node26 -->
<g id="edge25" class="edge">
<title>Node1&#45;&gt;Node26</title>
<path fill="none" stroke="midnightblue" d="M2067.5,-97.08C2394.6,-92.74 3740.35,-73.09 3926,-42 3934.15,-40.63 3942.7,-38.49 3950.81,-36.1"/>
<polygon fill="midnightblue" stroke="midnightblue" points="2067.16,-93.59 2057.21,-97.22 2067.26,-100.59 2067.16,-93.59"/>
</g>
</g>
</svg>
