<?xml version="1.0" encoding="UTF-8" standalone="no"?>
<!DOCTYPE svg PUBLIC "-//W3C//DTD SVG 1.1//EN"
 "http://www.w3.org/Graphics/SVG/1.1/DTD/svg11.dtd">
<!-- Generated by graphviz version 2.43.0 (0)
 -->
<!-- Title: src/libs/vpatterndb/variables/vlineangle.h Pages: 1 -->
<svg width="6384pt" height="385pt"
 viewBox="0.00 0.00 6384.06 385.00" xmlns="http://www.w3.org/2000/svg" xmlns:xlink="http://www.w3.org/1999/xlink">
<g id="graph0" class="graph" transform="scale(1 1) rotate(0) translate(4 381)">
<title>src/libs/vpatterndb/variables/vlineangle.h</title>
<polygon fill="white" stroke="transparent" points="-4,4 -4,-381 6380.06,-381 6380.06,4 -4,4"/>
<!-- Node1 -->
<g id="node1" class="node">
<title>Node1</title>
<g id="a_node1"><a xlink:title=" ">
<polygon fill="#bfbfbf" stroke="black" points="5789,-346.5 5789,-376.5 5917,-376.5 5917,-346.5 5789,-346.5"/>
<text text-anchor="start" x="5797" y="-364.5" font-family="Helvetica,sans-Serif" font-size="10.00">src/libs/vpatterndb</text>
<text text-anchor="middle" x="5853" y="-353.5" font-family="Helvetica,sans-Serif" font-size="10.00">/variables/vlineangle.h</text>
</a>
</g>
</g>
<!-- Node2 -->
<g id="node2" class="node">
<title>Node2</title>
<g id="a_node2"><a xlink:href="../../d6/d98/vlineangle_8cpp.html" target="_top" xlink:title=" ">
<polygon fill="white" stroke="black" points="5642.5,-279.5 5642.5,-309.5 5781.5,-309.5 5781.5,-279.5 5642.5,-279.5"/>
<text text-anchor="start" x="5650.5" y="-297.5" font-family="Helvetica,sans-Serif" font-size="10.00">src/libs/vpatterndb</text>
<text text-anchor="middle" x="5712" y="-286.5" font-family="Helvetica,sans-Serif" font-size="10.00">/variables/vlineangle.cpp</text>
</a>
</g>
</g>
<!-- Node1&#45;&gt;Node2 -->
<g id="edge1" class="edge">
<title>Node1&#45;&gt;Node2</title>
<path fill="none" stroke="midnightblue" d="M5813.15,-342.13C5790.75,-331.8 5763.22,-319.11 5742.54,-309.58"/>
<polygon fill="midnightblue" stroke="midnightblue" points="5811.86,-345.39 5822.41,-346.4 5814.79,-339.03 5811.86,-345.39"/>
</g>
<!-- Node3 -->
<g id="node3" class="node">
<title>Node3</title>
<g id="a_node3"><a xlink:href="../../de/dca/variables_8h.html" target="_top" xlink:title=" ">
<polygon fill="white" stroke="black" points="5799.5,-279.5 5799.5,-309.5 5906.5,-309.5 5906.5,-279.5 5799.5,-279.5"/>
<text text-anchor="start" x="5807.5" y="-297.5" font-family="Helvetica,sans-Serif" font-size="10.00">src/libs/vpatterndb</text>
<text text-anchor="middle" x="5853" y="-286.5" font-family="Helvetica,sans-Serif" font-size="10.00">/variables.h</text>
</a>
</g>
</g>
<!-- Node1&#45;&gt;Node3 -->
<g id="edge2" class="edge">
<title>Node1&#45;&gt;Node3</title>
<path fill="none" stroke="midnightblue" d="M5853,-336.11C5853,-327.15 5853,-317.32 5853,-309.58"/>
<polygon fill="midnightblue" stroke="midnightblue" points="5849.5,-336.4 5853,-346.4 5856.5,-336.4 5849.5,-336.4"/>
</g>
<!-- Node40 -->
<g id="node35" class="node">
<title>Node40</title>
<g id="a_node35"><a xlink:href="../../d6/d46/vcontainer_8cpp.html" target="_top" xlink:title=" ">
<polygon fill="white" stroke="black" points="5560.5,-67.5 5560.5,-97.5 5667.5,-97.5 5667.5,-67.5 5560.5,-67.5"/>
<text text-anchor="start" x="5568.5" y="-85.5" font-family="Helvetica,sans-Serif" font-size="10.00">src/libs/vpatterndb</text>
<text text-anchor="middle" x="5614" y="-74.5" font-family="Helvetica,sans-Serif" font-size="10.00">/vcontainer.cpp</text>
</a>
</g>
</g>
<!-- Node1&#45;&gt;Node40 -->
<g id="edge60" class="edge">
<title>Node1&#45;&gt;Node40</title>
<path fill="none" stroke="midnightblue" d="M5927.02,-353.21C6094.77,-334.06 6479.58,-273.86 6349,-134 6302.74,-84.45 5829.04,-82.33 5667.57,-83.07"/>
<polygon fill="midnightblue" stroke="midnightblue" points="5926.56,-349.74 5917.01,-354.33 5927.34,-356.69 5926.56,-349.74"/>
</g>
<!-- Node4 -->
<g id="node4" class="node">
<title>Node4</title>
<g id="a_node4"><a xlink:href="../../d3/df7/vcontainer_8h.html" target="_top" xlink:title=" ">
<polygon fill="white" stroke="black" points="5366.5,-212.5 5366.5,-242.5 5473.5,-242.5 5473.5,-212.5 5366.5,-212.5"/>
<text text-anchor="start" x="5374.5" y="-230.5" font-family="Helvetica,sans-Serif" font-size="10.00">src/libs/vpatterndb</text>
<text text-anchor="middle" x="5420" y="-219.5" font-family="Helvetica,sans-Serif" font-size="10.00">/vcontainer.h</text>
</a>
</g>
</g>
<!-- Node3&#45;&gt;Node4 -->
<g id="edge3" class="edge">
<title>Node3&#45;&gt;Node4</title>
<path fill="none" stroke="midnightblue" d="M5789.39,-278.8C5671.6,-257.42 5544.11,-242.02 5473.7,-234.2"/>
<polygon fill="midnightblue" stroke="midnightblue" points="5788.83,-282.25 5799.3,-280.61 5790.09,-275.37 5788.83,-282.25"/>
</g>
<!-- Node5 -->
<g id="node5" class="node">
<title>Node5</title>
<g id="a_node5"><a xlink:href="../../dc/db7/measurements_8h.html" target="_top" xlink:title=" ">
<polygon fill="white" stroke="black" points="527.5,-145.5 527.5,-164.5 706.5,-164.5 706.5,-145.5 527.5,-145.5"/>
<text text-anchor="middle" x="617" y="-152.5" font-family="Helvetica,sans-Serif" font-size="10.00">src/libs/vformat/measurements.h</text>
</a>
</g>
</g>
<!-- Node4&#45;&gt;Node5 -->
<g id="edge4" class="edge">
<title>Node4&#45;&gt;Node5</title>
<path fill="none" stroke="midnightblue" d="M5355.96,-226.45C4872.05,-225.97 1783.98,-221.18 850,-176 799.61,-173.56 743.25,-168.78 698.58,-164.5"/>
<polygon fill="midnightblue" stroke="midnightblue" points="5356.24,-229.95 5366.24,-226.46 5356.25,-222.95 5356.24,-229.95"/>
</g>
<!-- Node6 -->
<g id="node6" class="node">
<title>Node6</title>
<g id="a_node6"><a xlink:href="../../d9/de3/measurements_8cpp.html" target="_top" xlink:title=" ">
<polygon fill="white" stroke="black" points="0,-73 0,-92 190,-92 190,-73 0,-73"/>
<text text-anchor="middle" x="95" y="-80" font-family="Helvetica,sans-Serif" font-size="10.00">src/libs/vformat/measurements.cpp</text>
</a>
</g>
</g>
<!-- Node4&#45;&gt;Node6 -->
<g id="edge6" class="edge">
<title>Node4&#45;&gt;Node6</title>
<path fill="none" stroke="midnightblue" d="M5355.95,-226.64C4815.2,-227.68 1020.49,-232.92 518,-176 367.68,-158.97 192.29,-111.55 124.14,-92.05"/>
<polygon fill="midnightblue" stroke="midnightblue" points="5356.29,-230.14 5366.29,-226.62 5356.28,-223.14 5356.29,-230.14"/>
</g>
<!-- Node7 -->
<g id="node7" class="node">
<title>Node7</title>
<g id="a_node7"><a xlink:href="../../d6/de0/vlayoutpiece_8h.html" target="_top" xlink:title=" ">
<polygon fill="white" stroke="black" points="859,-145.5 859,-164.5 1025,-164.5 1025,-145.5 859,-145.5"/>
<text text-anchor="middle" x="942" y="-152.5" font-family="Helvetica,sans-Serif" font-size="10.00">src/libs/vlayout/vlayoutpiece.h</text>
</a>
</g>
</g>
<!-- Node4&#45;&gt;Node7 -->
<g id="edge7" class="edge">
<title>Node4&#45;&gt;Node7</title>
<path fill="none" stroke="midnightblue" d="M5355.93,-225.49C4856.4,-217.63 1589.61,-166.2 1025.05,-157.31"/>
<polygon fill="midnightblue" stroke="midnightblue" points="5356.14,-228.99 5366.19,-225.65 5356.25,-222 5356.14,-228.99"/>
</g>
<!-- Node17 -->
<g id="node16" class="node">
<title>Node17</title>
<g id="a_node16"><a xlink:href="../../d8/d70/vtextmanager_8cpp.html" target="_top" xlink:title=" ">
<polygon fill="white" stroke="black" points="1530,-73 1530,-92 1712,-92 1712,-73 1530,-73"/>
<text text-anchor="middle" x="1621" y="-80" font-family="Helvetica,sans-Serif" font-size="10.00">src/libs/vlayout/vtextmanager.cpp</text>
</a>
</g>
</g>
<!-- Node4&#45;&gt;Node17 -->
<g id="edge18" class="edge">
<title>Node4&#45;&gt;Node17</title>
<path fill="none" stroke="midnightblue" d="M5356.49,-225.35C4929.18,-217.47 2467.72,-169.52 1721,-98 1705.37,-96.5 1688.45,-94.28 1673.04,-92.02"/>
<polygon fill="midnightblue" stroke="midnightblue" points="5356.43,-228.85 5366.5,-225.54 5356.56,-221.85 5356.43,-228.85"/>
</g>
<!-- Node18 -->
<g id="node17" class="node">
<title>Node18</title>
<g id="a_node17"><a xlink:href="../../d5/d74/vabstractapplication_8h.html" target="_top" xlink:title=" ">
<polygon fill="white" stroke="red" points="3389.5,-145.5 3389.5,-164.5 3584.5,-164.5 3584.5,-145.5 3389.5,-145.5"/>
<text text-anchor="middle" x="3487" y="-152.5" font-family="Helvetica,sans-Serif" font-size="10.00">src/libs/vmisc/vabstractapplication.h</text>
</a>
</g>
</g>
<!-- Node4&#45;&gt;Node18 -->
<g id="edge19" class="edge">
<title>Node4&#45;&gt;Node18</title>
<path fill="none" stroke="midnightblue" d="M5356.18,-224.17C5072.84,-213.84 3927.75,-172.07 3584.63,-159.56"/>
<polygon fill="midnightblue" stroke="midnightblue" points="5356.16,-227.67 5366.28,-224.54 5356.42,-220.68 5356.16,-227.67"/>
</g>
<!-- Node36 -->
<g id="node31" class="node">
<title>Node36</title>
<g id="a_node31"><a xlink:href="../../db/d11/vformula_8cpp.html" target="_top" xlink:title=" ">
<polygon fill="white" stroke="black" points="5271.5,-67.5 5271.5,-97.5 5378.5,-97.5 5378.5,-67.5 5271.5,-67.5"/>
<text text-anchor="start" x="5279.5" y="-85.5" font-family="Helvetica,sans-Serif" font-size="10.00">src/libs/vpatterndb</text>
<text text-anchor="middle" x="5325" y="-74.5" font-family="Helvetica,sans-Serif" font-size="10.00">/vformula.cpp</text>
</a>
</g>
</g>
<!-- Node4&#45;&gt;Node36 -->
<g id="edge52" class="edge">
<title>Node4&#45;&gt;Node36</title>
<path fill="none" stroke="midnightblue" d="M5399.56,-204.39C5392.08,-195.82 5383.79,-185.74 5377,-176 5358.67,-149.7 5341.23,-116.42 5331.95,-97.8"/>
<polygon fill="midnightblue" stroke="midnightblue" points="5397.15,-206.94 5406.42,-212.08 5402.38,-202.29 5397.15,-206.94"/>
</g>
<!-- Node37 -->
<g id="node32" class="node">
<title>Node37</title>
<g id="a_node32"><a xlink:href="../../df/d7a/vpiece_8cpp.html" target="_top" xlink:title=" ">
<polygon fill="white" stroke="black" points="5396.5,-67.5 5396.5,-97.5 5503.5,-97.5 5503.5,-67.5 5396.5,-67.5"/>
<text text-anchor="start" x="5404.5" y="-85.5" font-family="Helvetica,sans-Serif" font-size="10.00">src/libs/vpatterndb</text>
<text text-anchor="middle" x="5450" y="-74.5" font-family="Helvetica,sans-Serif" font-size="10.00">/vpiece.cpp</text>
</a>
</g>
</g>
<!-- Node4&#45;&gt;Node37 -->
<g id="edge55" class="edge">
<title>Node4&#45;&gt;Node37</title>
<path fill="none" stroke="midnightblue" d="M5401.41,-204.14C5395.62,-195.83 5389.97,-185.98 5387,-176 5381.67,-158.11 5378.92,-150.83 5387,-134 5394.46,-118.46 5409.3,-106.19 5422.7,-97.64"/>
<polygon fill="midnightblue" stroke="midnightblue" points="5398.61,-206.25 5407.39,-212.19 5404.23,-202.07 5398.61,-206.25"/>
</g>
<!-- Node39 -->
<g id="node34" class="node">
<title>Node39</title>
<g id="a_node34"><a xlink:href="../../d8/dba/vpiecenode_8cpp.html" target="_top" xlink:title=" ">
<polygon fill="white" stroke="black" points="4518.5,-0.5 4518.5,-30.5 4625.5,-30.5 4625.5,-0.5 4518.5,-0.5"/>
<text text-anchor="start" x="4526.5" y="-18.5" font-family="Helvetica,sans-Serif" font-size="10.00">src/libs/vpatterndb</text>
<text text-anchor="middle" x="4572" y="-7.5" font-family="Helvetica,sans-Serif" font-size="10.00">/vpiecenode.cpp</text>
</a>
</g>
</g>
<!-- Node4&#45;&gt;Node39 -->
<g id="edge54" class="edge">
<title>Node4&#45;&gt;Node39</title>
<path fill="none" stroke="midnightblue" d="M5415.71,-202.47C5413.48,-182.29 5413.71,-153.68 5428,-134 5452.11,-100.81 5490.34,-132.2 5513,-98 5520.61,-86.51 5522.48,-77 5513,-67 5482.31,-34.62 4820.76,-20.76 4625.68,-17.36"/>
<polygon fill="midnightblue" stroke="midnightblue" points="5412.25,-203.01 5417.08,-212.44 5419.18,-202.05 5412.25,-203.01"/>
</g>
<!-- Node4&#45;&gt;Node40 -->
<g id="edge57" class="edge">
<title>Node4&#45;&gt;Node40</title>
<path fill="none" stroke="midnightblue" d="M5424.01,-202.51C5428.71,-181.67 5438.47,-152.08 5458,-134 5473.19,-119.93 5521.51,-105.54 5560.39,-95.74"/>
<polygon fill="midnightblue" stroke="midnightblue" points="5420.55,-202 5422,-212.5 5427.41,-203.39 5420.55,-202"/>
</g>
<!-- Node57 -->
<g id="node45" class="node">
<title>Node57</title>
<g id="a_node45"><a xlink:href="../../d7/d8a/measurement__variable__p_8h.html" target="_top" xlink:title=" ">
<polygon fill="white" stroke="red" points="5467,-134.5 5467,-175.5 5603,-175.5 5603,-134.5 5467,-134.5"/>
<text text-anchor="start" x="5475" y="-163.5" font-family="Helvetica,sans-Serif" font-size="10.00">src/libs/vpatterndb</text>
<text text-anchor="start" x="5475" y="-152.5" font-family="Helvetica,sans-Serif" font-size="10.00">/variables/measurement</text>
<text text-anchor="middle" x="5535" y="-141.5" font-family="Helvetica,sans-Serif" font-size="10.00">_variable_p.h</text>
</a>
</g>
</g>
<!-- Node4&#45;&gt;Node57 -->
<g id="edge50" class="edge">
<title>Node4&#45;&gt;Node57</title>
<path fill="none" stroke="midnightblue" d="M5451.92,-206.93C5467.82,-197.19 5486.98,-185.44 5502.9,-175.68"/>
<polygon fill="midnightblue" stroke="midnightblue" points="5449.69,-204.19 5443,-212.4 5453.35,-210.16 5449.69,-204.19"/>
</g>
<!-- Node59 -->
<g id="node46" class="node">
<title>Node59</title>
<g id="a_node46"><a xlink:href="../../d1/de1/vincrement__p_8h.html" target="_top" xlink:title=" ">
<polygon fill="white" stroke="red" points="5621.5,-140 5621.5,-170 5764.5,-170 5764.5,-140 5621.5,-140"/>
<text text-anchor="start" x="5629.5" y="-158" font-family="Helvetica,sans-Serif" font-size="10.00">src/libs/vpatterndb</text>
<text text-anchor="middle" x="5693" y="-147" font-family="Helvetica,sans-Serif" font-size="10.00">/variables/vincrement_p.h</text>
</a>
</g>
</g>
<!-- Node4&#45;&gt;Node59 -->
<g id="edge51" class="edge">
<title>Node4&#45;&gt;Node59</title>
<path fill="none" stroke="midnightblue" d="M5483.38,-210.13C5530.4,-197.99 5593.84,-181.61 5638.58,-170.05"/>
<polygon fill="midnightblue" stroke="midnightblue" points="5482.42,-206.77 5473.61,-212.66 5484.17,-213.54 5482.42,-206.77"/>
</g>
<!-- Node61 -->
<g id="node47" class="node">
<title>Node61</title>
<g id="a_node47"><a xlink:href="../../d6/d91/vnodedetail_8cpp.html" target="_top" xlink:title=" ">
<polygon fill="white" stroke="black" points="5782.5,-140 5782.5,-170 5889.5,-170 5889.5,-140 5782.5,-140"/>
<text text-anchor="start" x="5790.5" y="-158" font-family="Helvetica,sans-Serif" font-size="10.00">src/libs/vpatterndb</text>
<text text-anchor="middle" x="5836" y="-147" font-family="Helvetica,sans-Serif" font-size="10.00">/vnodedetail.cpp</text>
</a>
</g>
</g>
<!-- Node4&#45;&gt;Node61 -->
<g id="edge53" class="edge">
<title>Node4&#45;&gt;Node61</title>
<path fill="none" stroke="midnightblue" d="M5483.77,-220.71C5555.12,-213.46 5673.83,-199.12 5774,-176 5781.16,-174.35 5788.69,-172.24 5795.92,-170.03"/>
<polygon fill="midnightblue" stroke="midnightblue" points="5483.2,-217.25 5473.6,-221.72 5483.9,-224.21 5483.2,-217.25"/>
</g>
<!-- Node62 -->
<g id="node48" class="node">
<title>Node62</title>
<g id="a_node48"><a xlink:href="../../da/de1/vpiecepath_8cpp.html" target="_top" xlink:title=" ">
<polygon fill="white" stroke="black" points="5907.5,-140 5907.5,-170 6014.5,-170 6014.5,-140 5907.5,-140"/>
<text text-anchor="start" x="5915.5" y="-158" font-family="Helvetica,sans-Serif" font-size="10.00">src/libs/vpatterndb</text>
<text text-anchor="middle" x="5961" y="-147" font-family="Helvetica,sans-Serif" font-size="10.00">/vpiecepath.cpp</text>
</a>
</g>
</g>
<!-- Node4&#45;&gt;Node62 -->
<g id="edge56" class="edge">
<title>Node4&#45;&gt;Node62</title>
<path fill="none" stroke="midnightblue" d="M5483.76,-223.97C5576.17,-219.37 5752.33,-207.04 5899,-176 5906.41,-174.43 5914.19,-172.31 5921.64,-170.04"/>
<polygon fill="midnightblue" stroke="midnightblue" points="5483.54,-220.48 5473.72,-224.46 5483.88,-227.47 5483.54,-220.48"/>
</g>
<!-- Node63 -->
<g id="node49" class="node">
<title>Node63</title>
<g id="a_node49"><a xlink:href="../../d1/d3a/abstracttest_8cpp.html" target="_top" xlink:title=" ">
<polygon fill="white" stroke="black" points="6032.5,-145.5 6032.5,-164.5 6193.5,-164.5 6193.5,-145.5 6032.5,-145.5"/>
<text text-anchor="middle" x="6113" y="-152.5" font-family="Helvetica,sans-Serif" font-size="10.00">src/libs/vtest/abstracttest.cpp</text>
</a>
</g>
</g>
<!-- Node4&#45;&gt;Node63 -->
<g id="edge58" class="edge">
<title>Node4&#45;&gt;Node63</title>
<path fill="none" stroke="midnightblue" d="M5483.93,-224.05C5594.53,-219.16 5828.53,-205.99 6024,-176 6042.63,-173.14 6063.17,-168.62 6079.82,-164.6"/>
<polygon fill="midnightblue" stroke="midnightblue" points="5483.46,-220.57 5473.62,-224.5 5483.76,-227.56 5483.46,-220.57"/>
</g>
<!-- Node64 -->
<g id="node50" class="node">
<title>Node64</title>
<g id="a_node50"><a xlink:href="../../da/db4/piece__tablewidgetitem_8cpp.html" target="_top" xlink:title=" ">
<polygon fill="white" stroke="black" points="6212,-140 6212,-170 6340,-170 6340,-140 6212,-140"/>
<text text-anchor="start" x="6220" y="-158" font-family="Helvetica,sans-Serif" font-size="10.00">src/libs/vwidgets/piece</text>
<text text-anchor="middle" x="6276" y="-147" font-family="Helvetica,sans-Serif" font-size="10.00">_tablewidgetitem.cpp</text>
</a>
</g>
</g>
<!-- Node4&#45;&gt;Node64 -->
<g id="edge59" class="edge">
<title>Node4&#45;&gt;Node64</title>
<path fill="none" stroke="midnightblue" d="M5483.69,-226.75C5617.75,-226.33 5938.5,-220.29 6203,-176 6211.94,-174.5 6221.37,-172.36 6230.37,-170.03"/>
<polygon fill="midnightblue" stroke="midnightblue" points="5483.59,-223.25 5473.59,-226.77 5483.6,-230.25 5483.59,-223.25"/>
</g>
<!-- Node5&#45;&gt;Node6 -->
<g id="edge5" class="edge">
<title>Node5&#45;&gt;Node6</title>
<path fill="none" stroke="midnightblue" d="M542.37,-144.12C458.74,-133.03 319.13,-114.42 199,-98 185,-96.09 169.95,-94 155.76,-92.03"/>
<polygon fill="midnightblue" stroke="midnightblue" points="542.17,-147.63 552.54,-145.47 543.09,-140.69 542.17,-147.63"/>
</g>
<!-- Node8 -->
<g id="node8" class="node">
<title>Node8</title>
<g id="a_node8"><a xlink:href="../../dd/d66/vdxfengine_8cpp.html" target="_top" xlink:title=" ">
<polygon fill="white" stroke="black" points="208,-73 208,-92 362,-92 362,-73 208,-73"/>
<text text-anchor="middle" x="285" y="-80" font-family="Helvetica,sans-Serif" font-size="10.00">src/libs/vdxf/vdxfengine.cpp</text>
</a>
</g>
</g>
<!-- Node7&#45;&gt;Node8 -->
<g id="edge8" class="edge">
<title>Node7&#45;&gt;Node8</title>
<path fill="none" stroke="midnightblue" d="M848.85,-145.66C711.4,-133.21 460.82,-109.96 371,-98 358.39,-96.32 344.8,-94.18 332.23,-92.07"/>
<polygon fill="midnightblue" stroke="midnightblue" points="848.68,-149.15 858.95,-146.57 849.31,-142.18 848.68,-149.15"/>
</g>
<!-- Node9 -->
<g id="node9" class="node">
<title>Node9</title>
<g id="a_node9"><a xlink:href="../../de/da8/vbank_8cpp.html" target="_top" xlink:title=" ">
<polygon fill="white" stroke="black" points="380,-73 380,-92 524,-92 524,-73 380,-73"/>
<text text-anchor="middle" x="452" y="-80" font-family="Helvetica,sans-Serif" font-size="10.00">src/libs/vlayout/vbank.cpp</text>
</a>
</g>
</g>
<!-- Node7&#45;&gt;Node9 -->
<g id="edge9" class="edge">
<title>Node7&#45;&gt;Node9</title>
<path fill="none" stroke="midnightblue" d="M863.44,-144.22C780.99,-133.72 647.68,-116.11 533,-98 521.57,-96.2 509.26,-94.08 497.78,-92.03"/>
<polygon fill="midnightblue" stroke="midnightblue" points="863.13,-147.7 873.49,-145.49 864.01,-140.76 863.13,-147.7"/>
</g>
<!-- Node10 -->
<g id="node10" class="node">
<title>Node10</title>
<g id="a_node10"><a xlink:href="../../df/d5d/vcontour_8cpp.html" target="_top" xlink:title=" ">
<polygon fill="white" stroke="black" points="542,-73 542,-92 698,-92 698,-73 542,-73"/>
<text text-anchor="middle" x="620" y="-80" font-family="Helvetica,sans-Serif" font-size="10.00">src/libs/vlayout/vcontour.cpp</text>
</a>
</g>
</g>
<!-- Node7&#45;&gt;Node10 -->
<g id="edge10" class="edge">
<title>Node7&#45;&gt;Node10</title>
<path fill="none" stroke="midnightblue" d="M893.29,-143.34C829.2,-129.3 717.81,-104.91 658.98,-92.03"/>
<polygon fill="midnightblue" stroke="midnightblue" points="892.64,-146.78 903.16,-145.5 894.14,-139.94 892.64,-146.78"/>
</g>
<!-- Node11 -->
<g id="node11" class="node">
<title>Node11</title>
<g id="a_node11"><a xlink:href="../../d3/d39/vlayoutgenerator_8cpp.html" target="_top" xlink:title=" ">
<polygon fill="white" stroke="black" points="716.5,-73 716.5,-92 913.5,-92 913.5,-73 716.5,-73"/>
<text text-anchor="middle" x="815" y="-80" font-family="Helvetica,sans-Serif" font-size="10.00">src/libs/vlayout/vlayoutgenerator.cpp</text>
</a>
</g>
</g>
<!-- Node7&#45;&gt;Node11 -->
<g id="edge11" class="edge">
<title>Node7&#45;&gt;Node11</title>
<path fill="none" stroke="midnightblue" d="M917.68,-140.5C892.06,-126.28 852.48,-104.3 830.7,-92.22"/>
<polygon fill="midnightblue" stroke="midnightblue" points="915.99,-143.56 926.43,-145.36 919.38,-137.44 915.99,-143.56"/>
</g>
<!-- Node12 -->
<g id="node12" class="node">
<title>Node12</title>
<g id="a_node12"><a xlink:href="../../d2/d2d/vlayoutpaper__p_8h.html" target="_top" xlink:title=" ">
<polygon fill="white" stroke="black" points="970.5,-73 970.5,-92 1149.5,-92 1149.5,-73 970.5,-73"/>
<text text-anchor="middle" x="1060" y="-80" font-family="Helvetica,sans-Serif" font-size="10.00">src/libs/vlayout/vlayoutpaper_p.h</text>
</a>
</g>
</g>
<!-- Node7&#45;&gt;Node12 -->
<g id="edge12" class="edge">
<title>Node7&#45;&gt;Node12</title>
<path fill="none" stroke="midnightblue" d="M965.23,-140.12C989.04,-125.89 1025.35,-104.2 1045.41,-92.22"/>
<polygon fill="midnightblue" stroke="midnightblue" points="963.26,-137.22 956.47,-145.36 966.85,-143.23 963.26,-137.22"/>
</g>
<!-- Node13 -->
<g id="node13" class="node">
<title>Node13</title>
<g id="a_node13"><a xlink:href="../../d1/dd1/vlayoutpaper_8cpp.html" target="_top" xlink:title=" ">
<polygon fill="white" stroke="black" points="971,-6 971,-25 1149,-25 1149,-6 971,-6"/>
<text text-anchor="middle" x="1060" y="-13" font-family="Helvetica,sans-Serif" font-size="10.00">src/libs/vlayout/vlayoutpaper.cpp</text>
</a>
</g>
</g>
<!-- Node7&#45;&gt;Node13 -->
<g id="edge14" class="edge">
<title>Node7&#45;&gt;Node13</title>
<path fill="none" stroke="midnightblue" d="M941.62,-135.24C942.18,-116.19 945.76,-86.76 961,-67 977.5,-45.61 1005.56,-32.51 1027.6,-25.04"/>
<polygon fill="midnightblue" stroke="midnightblue" points="938.12,-135.33 941.58,-145.34 945.12,-135.36 938.12,-135.33"/>
</g>
<!-- Node14 -->
<g id="node14" class="node">
<title>Node14</title>
<g id="a_node14"><a xlink:href="../../db/d5c/vposition_8h.html" target="_top" xlink:title=" ">
<polygon fill="white" stroke="red" points="1168,-73 1168,-92 1316,-92 1316,-73 1168,-73"/>
<text text-anchor="middle" x="1242" y="-80" font-family="Helvetica,sans-Serif" font-size="10.00">src/libs/vlayout/vposition.h</text>
</a>
</g>
</g>
<!-- Node7&#45;&gt;Node14 -->
<g id="edge15" class="edge">
<title>Node7&#45;&gt;Node14</title>
<path fill="none" stroke="midnightblue" d="M988.12,-143.16C1047.95,-129.1 1151.1,-104.86 1205.68,-92.03"/>
<polygon fill="midnightblue" stroke="midnightblue" points="987.12,-139.8 978.19,-145.5 988.72,-146.62 987.12,-139.8"/>
</g>
<!-- Node16 -->
<g id="node15" class="node">
<title>Node16</title>
<g id="a_node15"><a xlink:href="../../dd/d70/vlayoutpiece_8cpp.html" target="_top" xlink:title=" ">
<polygon fill="white" stroke="black" points="1334.5,-73 1334.5,-92 1511.5,-92 1511.5,-73 1334.5,-73"/>
<text text-anchor="middle" x="1423" y="-80" font-family="Helvetica,sans-Serif" font-size="10.00">src/libs/vlayout/vlayoutpiece.cpp</text>
</a>
</g>
</g>
<!-- Node7&#45;&gt;Node16 -->
<g id="edge17" class="edge">
<title>Node7&#45;&gt;Node16</title>
<path fill="none" stroke="midnightblue" d="M1010.41,-144.03C1087.03,-132.86 1214.92,-114.19 1325,-98 1338.1,-96.07 1352.19,-93.99 1365.48,-92.03"/>
<polygon fill="midnightblue" stroke="midnightblue" points="1009.79,-140.59 1000.4,-145.49 1010.8,-147.51 1009.79,-140.59"/>
</g>
<!-- Node12&#45;&gt;Node13 -->
<g id="edge13" class="edge">
<title>Node12&#45;&gt;Node13</title>
<path fill="none" stroke="midnightblue" d="M1060,-62.54C1060,-50.17 1060,-34.62 1060,-25.13"/>
<polygon fill="midnightblue" stroke="midnightblue" points="1056.5,-62.73 1060,-72.73 1063.5,-62.73 1056.5,-62.73"/>
</g>
<!-- Node14&#45;&gt;Node13 -->
<g id="edge16" class="edge">
<title>Node14&#45;&gt;Node13</title>
<path fill="none" stroke="midnightblue" d="M1208.22,-69.44C1172.12,-56.54 1115.79,-36.42 1083.98,-25.06"/>
<polygon fill="midnightblue" stroke="midnightblue" points="1207.24,-72.8 1217.83,-72.87 1209.59,-66.21 1207.24,-72.8"/>
</g>
<!-- Node18&#45;&gt;Node16 -->
<g id="edge30" class="edge">
<title>Node18&#45;&gt;Node16</title>
<path fill="none" stroke="midnightblue" d="M3379.37,-152.62C3023.46,-147.77 1886.44,-130.13 1521,-98 1505.24,-96.61 1488.15,-94.35 1472.72,-92.02"/>
<polygon fill="midnightblue" stroke="midnightblue" points="3379.37,-156.12 3389.42,-152.75 3379.47,-149.12 3379.37,-156.12"/>
</g>
<!-- Node18&#45;&gt;Node17 -->
<g id="edge31" class="edge">
<title>Node18&#45;&gt;Node17</title>
<path fill="none" stroke="midnightblue" d="M3379.42,-152.17C3048.03,-146.3 2045.65,-126.59 1721,-98 1705.01,-96.59 1687.68,-94.34 1672,-92.02"/>
<polygon fill="midnightblue" stroke="midnightblue" points="3379.44,-155.68 3389.5,-152.35 3379.56,-148.68 3379.44,-155.68"/>
</g>
<!-- Node19 -->
<g id="node18" class="node">
<title>Node19</title>
<g id="a_node18"><a xlink:href="../../d4/d90/fvupdater_8cpp.html" target="_top" xlink:title=" ">
<polygon fill="white" stroke="black" points="1730.5,-73 1730.5,-92 1883.5,-92 1883.5,-73 1730.5,-73"/>
<text text-anchor="middle" x="1807" y="-80" font-family="Helvetica,sans-Serif" font-size="10.00">src/libs/fervor/fvupdater.cpp</text>
</a>
</g>
</g>
<!-- Node18&#45;&gt;Node19 -->
<g id="edge20" class="edge">
<title>Node18&#45;&gt;Node19</title>
<path fill="none" stroke="midnightblue" d="M3379,-152.09C3069.22,-146.33 2181.41,-127.63 1892,-98 1878.3,-96.6 1863.47,-94.33 1850.09,-92"/>
<polygon fill="midnightblue" stroke="midnightblue" points="3379.27,-155.6 3389.33,-152.29 3379.4,-148.6 3379.27,-155.6"/>
</g>
<!-- Node20 -->
<g id="node19" class="node">
<title>Node20</title>
<g id="a_node19"><a xlink:href="../../d9/dc8/dxiface_8cpp.html" target="_top" xlink:title=" ">
<polygon fill="white" stroke="black" points="1901.5,-73 1901.5,-92 2036.5,-92 2036.5,-73 1901.5,-73"/>
<text text-anchor="middle" x="1969" y="-80" font-family="Helvetica,sans-Serif" font-size="10.00">src/libs/vdxf/dxiface.cpp</text>
</a>
</g>
</g>
<!-- Node18&#45;&gt;Node20 -->
<g id="edge21" class="edge">
<title>Node18&#45;&gt;Node20</title>
<path fill="none" stroke="midnightblue" d="M3379.31,-151.91C3090.52,-145.97 2303.3,-127.49 2045,-98 2032.72,-96.6 2019.45,-94.33 2007.49,-92"/>
<polygon fill="midnightblue" stroke="midnightblue" points="3379.3,-155.41 3389.37,-152.12 3379.45,-148.41 3379.3,-155.41"/>
</g>
<!-- Node21 -->
<g id="node20" class="node">
<title>Node21</title>
<g id="a_node20"><a xlink:href="../../da/d75/vabstractarc__p_8h.html" target="_top" xlink:title=" ">
<polygon fill="white" stroke="red" points="2054.5,-67.5 2054.5,-97.5 2161.5,-97.5 2161.5,-67.5 2054.5,-67.5"/>
<text text-anchor="start" x="2062.5" y="-85.5" font-family="Helvetica,sans-Serif" font-size="10.00">src/libs/vgeometry</text>
<text text-anchor="middle" x="2108" y="-74.5" font-family="Helvetica,sans-Serif" font-size="10.00">/vabstractarc_p.h</text>
</a>
</g>
</g>
<!-- Node18&#45;&gt;Node21 -->
<g id="edge22" class="edge">
<title>Node18&#45;&gt;Node21</title>
<path fill="none" stroke="midnightblue" d="M3379.14,-152.02C3107.9,-146.61 2402.53,-129.85 2170,-98 2167.26,-97.62 2164.47,-97.18 2161.65,-96.7"/>
<polygon fill="midnightblue" stroke="midnightblue" points="3379.31,-155.52 3389.38,-152.22 3379.45,-148.52 3379.31,-155.52"/>
</g>
<!-- Node23 -->
<g id="node21" class="node">
<title>Node23</title>
<g id="a_node21"><a xlink:href="../../dc/da3/varc__p_8h.html" target="_top" xlink:title=" ">
<polygon fill="white" stroke="red" points="2179.5,-67.5 2179.5,-97.5 2286.5,-97.5 2286.5,-67.5 2179.5,-67.5"/>
<text text-anchor="start" x="2187.5" y="-85.5" font-family="Helvetica,sans-Serif" font-size="10.00">src/libs/vgeometry</text>
<text text-anchor="middle" x="2233" y="-74.5" font-family="Helvetica,sans-Serif" font-size="10.00">/varc_p.h</text>
</a>
</g>
</g>
<!-- Node18&#45;&gt;Node23 -->
<g id="edge23" class="edge">
<title>Node18&#45;&gt;Node23</title>
<path fill="none" stroke="midnightblue" d="M3379.13,-151.46C3126.57,-145.1 2502.57,-126.9 2295,-98 2292.26,-97.62 2289.47,-97.17 2286.66,-96.68"/>
<polygon fill="midnightblue" stroke="midnightblue" points="3379.33,-154.96 3389.42,-151.72 3379.51,-147.97 3379.33,-154.96"/>
</g>
<!-- Node25 -->
<g id="node22" class="node">
<title>Node25</title>
<g id="a_node22"><a xlink:href="../../d5/d8e/vcubicbezier__p_8h.html" target="_top" xlink:title=" ">
<polygon fill="white" stroke="red" points="2304.5,-67.5 2304.5,-97.5 2411.5,-97.5 2411.5,-67.5 2304.5,-67.5"/>
<text text-anchor="start" x="2312.5" y="-85.5" font-family="Helvetica,sans-Serif" font-size="10.00">src/libs/vgeometry</text>
<text text-anchor="middle" x="2358" y="-74.5" font-family="Helvetica,sans-Serif" font-size="10.00">/vcubicbezier_p.h</text>
</a>
</g>
</g>
<!-- Node18&#45;&gt;Node25 -->
<g id="edge24" class="edge">
<title>Node18&#45;&gt;Node25</title>
<path fill="none" stroke="midnightblue" d="M3379.14,-153.9C3186.8,-152.47 2772.28,-143.77 2426,-98 2421.33,-97.38 2416.51,-96.62 2411.69,-95.76"/>
<polygon fill="midnightblue" stroke="midnightblue" points="3379.23,-157.4 3389.25,-153.97 3379.28,-150.4 3379.23,-157.4"/>
</g>
<!-- Node27 -->
<g id="node23" class="node">
<title>Node27</title>
<g id="a_node23"><a xlink:href="../../df/dde/vellipticalarc__p_8h.html" target="_top" xlink:title=" ">
<polygon fill="white" stroke="black" points="2468.5,-67.5 2468.5,-97.5 2575.5,-97.5 2575.5,-67.5 2468.5,-67.5"/>
<text text-anchor="start" x="2476.5" y="-85.5" font-family="Helvetica,sans-Serif" font-size="10.00">src/libs/vgeometry</text>
<text text-anchor="middle" x="2522" y="-74.5" font-family="Helvetica,sans-Serif" font-size="10.00">/vellipticalarc_p.h</text>
</a>
</g>
</g>
<!-- Node18&#45;&gt;Node27 -->
<g id="edge25" class="edge">
<title>Node18&#45;&gt;Node27</title>
<path fill="none" stroke="midnightblue" d="M3379.03,-153.14C3209.03,-150.48 2868.98,-139.86 2584,-98 2581.27,-97.6 2578.47,-97.14 2575.66,-96.63"/>
<polygon fill="midnightblue" stroke="midnightblue" points="3379.18,-156.65 3389.23,-153.3 3379.28,-149.65 3379.18,-156.65"/>
</g>
<!-- Node28 -->
<g id="node24" class="node">
<title>Node28</title>
<g id="a_node24"><a xlink:href="../../d6/dfb/vellipticalarc_8cpp.html" target="_top" xlink:title=" ">
<polygon fill="white" stroke="black" points="2427.5,-0.5 2427.5,-30.5 2534.5,-30.5 2534.5,-0.5 2427.5,-0.5"/>
<text text-anchor="start" x="2435.5" y="-18.5" font-family="Helvetica,sans-Serif" font-size="10.00">src/libs/vgeometry</text>
<text text-anchor="middle" x="2481" y="-7.5" font-family="Helvetica,sans-Serif" font-size="10.00">/vellipticalarc.cpp</text>
</a>
</g>
</g>
<!-- Node18&#45;&gt;Node28 -->
<g id="edge28" class="edge">
<title>Node18&#45;&gt;Node28</title>
<path fill="none" stroke="midnightblue" d="M3379.09,-152.07C3121.61,-146.93 2490.27,-131.02 2459,-98 2441.47,-79.48 2457.93,-48.49 2470.28,-30.53"/>
<polygon fill="midnightblue" stroke="midnightblue" points="3379.14,-155.57 3389.21,-152.27 3379.28,-148.57 3379.14,-155.57"/>
</g>
<!-- Node29 -->
<g id="node25" class="node">
<title>Node29</title>
<g id="a_node25"><a xlink:href="../../d1/d76/vspline__p_8h.html" target="_top" xlink:title=" ">
<polygon fill="white" stroke="red" points="2593.5,-67.5 2593.5,-97.5 2700.5,-97.5 2700.5,-67.5 2593.5,-67.5"/>
<text text-anchor="start" x="2601.5" y="-85.5" font-family="Helvetica,sans-Serif" font-size="10.00">src/libs/vgeometry</text>
<text text-anchor="middle" x="2647" y="-74.5" font-family="Helvetica,sans-Serif" font-size="10.00">/vspline_p.h</text>
</a>
</g>
</g>
<!-- Node18&#45;&gt;Node29 -->
<g id="edge27" class="edge">
<title>Node18&#45;&gt;Node29</title>
<path fill="none" stroke="midnightblue" d="M3379.09,-151.47C3228.5,-146.76 2947.13,-133.62 2710,-98 2706.89,-97.53 2703.71,-97 2700.51,-96.41"/>
<polygon fill="midnightblue" stroke="midnightblue" points="3379.15,-154.98 3389.26,-151.79 3379.37,-147.98 3379.15,-154.98"/>
</g>
<!-- Node31 -->
<g id="node26" class="node">
<title>Node31</title>
<g id="a_node26"><a xlink:href="../../d9/d15/vabstractpiece_8cpp.html" target="_top" xlink:title=" ">
<polygon fill="white" stroke="black" points="2719,-73 2719,-92 2905,-92 2905,-73 2719,-73"/>
<text text-anchor="middle" x="2812" y="-80" font-family="Helvetica,sans-Serif" font-size="10.00">src/libs/vlayout/vabstractpiece.cpp</text>
</a>
</g>
</g>
<!-- Node18&#45;&gt;Node31 -->
<g id="edge29" class="edge">
<title>Node18&#45;&gt;Node31</title>
<path fill="none" stroke="midnightblue" d="M3379.04,-144.87C3263.73,-134.78 3075.72,-117.39 2914,-98 2899.35,-96.24 2883.55,-94.11 2868.86,-92.03"/>
<polygon fill="midnightblue" stroke="midnightblue" points="3379.01,-148.38 3389.27,-145.76 3379.62,-141.41 3379.01,-148.38"/>
</g>
<!-- Node32 -->
<g id="node27" class="node">
<title>Node32</title>
<g id="a_node27"><a xlink:href="../../db/d65/dialogexporttocsv_8cpp.html" target="_top" xlink:title=" ">
<polygon fill="white" stroke="black" points="2923.5,-67.5 2923.5,-97.5 3050.5,-97.5 3050.5,-67.5 2923.5,-67.5"/>
<text text-anchor="start" x="2931.5" y="-85.5" font-family="Helvetica,sans-Serif" font-size="10.00">src/libs/vmisc/dialogs</text>
<text text-anchor="middle" x="2987" y="-74.5" font-family="Helvetica,sans-Serif" font-size="10.00">/dialogexporttocsv.cpp</text>
</a>
</g>
</g>
<!-- Node18&#45;&gt;Node32 -->
<g id="edge32" class="edge">
<title>Node18&#45;&gt;Node32</title>
<path fill="none" stroke="midnightblue" d="M3400.39,-144.33C3313.95,-134.29 3177.44,-117.34 3060,-98 3056.94,-97.5 3053.81,-96.96 3050.66,-96.4"/>
<polygon fill="midnightblue" stroke="midnightblue" points="3400.08,-147.82 3410.41,-145.49 3400.88,-140.87 3400.08,-147.82"/>
</g>
<!-- Node33 -->
<g id="node28" class="node">
<title>Node33</title>
<g id="a_node28"><a xlink:href="../../d6/d0b/def_8cpp.html" target="_top" xlink:title=" ">
<polygon fill="white" stroke="black" points="3069,-73 3069,-92 3191,-92 3191,-73 3069,-73"/>
<text text-anchor="middle" x="3130" y="-80" font-family="Helvetica,sans-Serif" font-size="10.00">src/libs/vmisc/def.cpp</text>
</a>
</g>
</g>
<!-- Node18&#45;&gt;Node33 -->
<g id="edge33" class="edge">
<title>Node18&#45;&gt;Node33</title>
<path fill="none" stroke="midnightblue" d="M3432.22,-143.51C3374.44,-132.39 3280.75,-114.24 3200,-98 3190.51,-96.09 3180.3,-94 3170.7,-92.01"/>
<polygon fill="midnightblue" stroke="midnightblue" points="3431.75,-146.98 3442.23,-145.43 3433.07,-140.11 3431.75,-146.98"/>
</g>
<!-- Node34 -->
<g id="node29" class="node">
<title>Node34</title>
<g id="a_node29"><a xlink:href="../../d0/df6/vabstractapplication_8cpp.html" target="_top" xlink:title=" ">
<polygon fill="white" stroke="black" points="3209,-73 3209,-92 3415,-92 3415,-73 3209,-73"/>
<text text-anchor="middle" x="3312" y="-80" font-family="Helvetica,sans-Serif" font-size="10.00">src/libs/vmisc/vabstractapplication.cpp</text>
</a>
</g>
</g>
<!-- Node18&#45;&gt;Node34 -->
<g id="edge34" class="edge">
<title>Node18&#45;&gt;Node34</title>
<path fill="none" stroke="midnightblue" d="M3456.56,-141.74C3421.25,-127.51 3363.97,-104.44 3333.18,-92.03"/>
<polygon fill="midnightblue" stroke="midnightblue" points="3455.31,-145.01 3465.89,-145.5 3457.92,-138.51 3455.31,-145.01"/>
</g>
<!-- Node35 -->
<g id="node30" class="node">
<title>Node35</title>
<g id="a_node30"><a xlink:href="../../d4/d4f/pmsystems_8cpp.html" target="_top" xlink:title=" ">
<polygon fill="white" stroke="black" points="3433.5,-67.5 3433.5,-97.5 3540.5,-97.5 3540.5,-67.5 3433.5,-67.5"/>
<text text-anchor="start" x="3441.5" y="-85.5" font-family="Helvetica,sans-Serif" font-size="10.00">src/libs/vpatterndb</text>
<text text-anchor="middle" x="3487" y="-74.5" font-family="Helvetica,sans-Serif" font-size="10.00">/pmsystems.cpp</text>
</a>
</g>
</g>
<!-- Node18&#45;&gt;Node35 -->
<g id="edge35" class="edge">
<title>Node18&#45;&gt;Node35</title>
<path fill="none" stroke="midnightblue" d="M3487,-135.24C3487,-123.41 3487,-108.38 3487,-97.58"/>
<polygon fill="midnightblue" stroke="midnightblue" points="3483.5,-135.36 3487,-145.36 3490.5,-135.36 3483.5,-135.36"/>
</g>
<!-- Node18&#45;&gt;Node36 -->
<g id="edge36" class="edge">
<title>Node18&#45;&gt;Node36</title>
<path fill="none" stroke="midnightblue" d="M3594.74,-153.4C3927.8,-151.11 4937.86,-140.72 5263,-98 5265.74,-97.64 5268.54,-97.21 5271.35,-96.73"/>
<polygon fill="midnightblue" stroke="midnightblue" points="3594.59,-149.9 3584.61,-153.47 3594.64,-156.9 3594.59,-149.9"/>
</g>
<!-- Node18&#45;&gt;Node37 -->
<g id="edge37" class="edge">
<title>Node18&#45;&gt;Node37</title>
<path fill="none" stroke="midnightblue" d="M3594.75,-153.66C3943.23,-152.12 5037.45,-143.69 5388,-98 5390.74,-97.64 5393.54,-97.22 5396.35,-96.74"/>
<polygon fill="midnightblue" stroke="midnightblue" points="3594.64,-150.16 3584.66,-153.71 3594.67,-157.16 3594.64,-150.16"/>
</g>
<!-- Node38 -->
<g id="node33" class="node">
<title>Node38</title>
<g id="a_node33"><a xlink:href="../../df/dba/vpiecenode__p_8h.html" target="_top" xlink:title=" ">
<polygon fill="white" stroke="black" points="3558.5,-67.5 3558.5,-97.5 3665.5,-97.5 3665.5,-67.5 3558.5,-67.5"/>
<text text-anchor="start" x="3566.5" y="-85.5" font-family="Helvetica,sans-Serif" font-size="10.00">src/libs/vpatterndb</text>
<text text-anchor="middle" x="3612" y="-74.5" font-family="Helvetica,sans-Serif" font-size="10.00">/vpiecenode_p.h</text>
</a>
</g>
</g>
<!-- Node18&#45;&gt;Node38 -->
<g id="edge38" class="edge">
<title>Node18&#45;&gt;Node38</title>
<path fill="none" stroke="midnightblue" d="M3511.29,-140.3C3533.11,-127.99 3565.02,-110 3587.04,-97.58"/>
<polygon fill="midnightblue" stroke="midnightblue" points="3509.32,-137.39 3502.33,-145.36 3512.76,-143.49 3509.32,-137.39"/>
</g>
<!-- Node18&#45;&gt;Node40 -->
<g id="edge40" class="edge">
<title>Node18&#45;&gt;Node40</title>
<path fill="none" stroke="midnightblue" d="M3594.76,-152.66C3957.9,-147.88 5135.25,-130.23 5513,-98 5528.44,-96.68 5545.13,-94.57 5560.4,-92.36"/>
<polygon fill="midnightblue" stroke="midnightblue" points="3594.47,-149.16 3584.51,-152.79 3594.56,-156.16 3594.47,-149.16"/>
</g>
<!-- Node41 -->
<g id="node36" class="node">
<title>Node41</title>
<g id="a_node36"><a xlink:href="../../de/d3e/vtranslatevars_8cpp.html" target="_top" xlink:title=" ">
<polygon fill="white" stroke="black" points="3684,-67.5 3684,-97.5 3794,-97.5 3794,-67.5 3684,-67.5"/>
<text text-anchor="start" x="3692" y="-85.5" font-family="Helvetica,sans-Serif" font-size="10.00">src/libs/vpatterndb</text>
<text text-anchor="middle" x="3739" y="-74.5" font-family="Helvetica,sans-Serif" font-size="10.00">/vtranslatevars.cpp</text>
</a>
</g>
</g>
<!-- Node18&#45;&gt;Node41 -->
<g id="edge41" class="edge">
<title>Node18&#45;&gt;Node41</title>
<path fill="none" stroke="midnightblue" d="M3527.15,-142.77C3571.05,-130.49 3641.46,-110.79 3688.94,-97.51"/>
<polygon fill="midnightblue" stroke="midnightblue" points="3526.08,-139.43 3517.4,-145.5 3527.97,-146.17 3526.08,-139.43"/>
</g>
<!-- Node42 -->
<g id="node37" class="node">
<title>Node42</title>
<g id="a_node37"><a xlink:href="../../df/d40/export__format__combobox_8cpp.html" target="_top" xlink:title=" ">
<polygon fill="white" stroke="black" points="3812.5,-67.5 3812.5,-97.5 3945.5,-97.5 3945.5,-67.5 3812.5,-67.5"/>
<text text-anchor="start" x="3820.5" y="-85.5" font-family="Helvetica,sans-Serif" font-size="10.00">src/libs/vwidgets/export</text>
<text text-anchor="middle" x="3879" y="-74.5" font-family="Helvetica,sans-Serif" font-size="10.00">_format_combobox.cpp</text>
</a>
</g>
</g>
<!-- Node18&#45;&gt;Node42 -->
<g id="edge42" class="edge">
<title>Node18&#45;&gt;Node42</title>
<path fill="none" stroke="midnightblue" d="M3546.53,-143.69C3610.08,-132.63 3713.72,-114.43 3803,-98 3806.04,-97.44 3809.14,-96.87 3812.28,-96.28"/>
<polygon fill="midnightblue" stroke="midnightblue" points="3545.55,-140.31 3536.3,-145.47 3546.75,-147.2 3545.55,-140.31"/>
</g>
<!-- Node43 -->
<g id="node38" class="node">
<title>Node43</title>
<g id="a_node38"><a xlink:href="../../d2/d28/page__format__combobox_8cpp.html" target="_top" xlink:title=" ">
<polygon fill="white" stroke="black" points="3963.5,-67.5 3963.5,-97.5 4094.5,-97.5 4094.5,-67.5 3963.5,-67.5"/>
<text text-anchor="start" x="3971.5" y="-85.5" font-family="Helvetica,sans-Serif" font-size="10.00">src/libs/vwidgets/page</text>
<text text-anchor="middle" x="4029" y="-74.5" font-family="Helvetica,sans-Serif" font-size="10.00">_format_combobox.cpp</text>
</a>
</g>
</g>
<!-- Node18&#45;&gt;Node43 -->
<g id="edge43" class="edge">
<title>Node18&#45;&gt;Node43</title>
<path fill="none" stroke="midnightblue" d="M3583.89,-144.43C3678.53,-134.6 3826.54,-117.94 3954,-98 3957.01,-97.53 3960.09,-97.02 3963.2,-96.5"/>
<polygon fill="midnightblue" stroke="midnightblue" points="3583.34,-140.97 3573.76,-145.48 3584.06,-147.93 3583.34,-140.97"/>
</g>
<!-- Node44 -->
<g id="node39" class="node">
<title>Node44</title>
<g id="a_node39"><a xlink:href="../../d7/d1b/pen__toolbar_8cpp.html" target="_top" xlink:title=" ">
<polygon fill="white" stroke="black" points="4112.5,-67.5 4112.5,-97.5 4231.5,-97.5 4231.5,-67.5 4112.5,-67.5"/>
<text text-anchor="start" x="4120.5" y="-85.5" font-family="Helvetica,sans-Serif" font-size="10.00">src/libs/vwidgets/pen</text>
<text text-anchor="middle" x="4172" y="-74.5" font-family="Helvetica,sans-Serif" font-size="10.00">_toolbar.cpp</text>
</a>
</g>
</g>
<!-- Node18&#45;&gt;Node44 -->
<g id="edge44" class="edge">
<title>Node18&#45;&gt;Node44</title>
<path fill="none" stroke="midnightblue" d="M3594.7,-148.02C3718.02,-140.29 3925.85,-124.57 4103,-98 4106.03,-97.55 4109.12,-97.04 4112.24,-96.5"/>
<polygon fill="midnightblue" stroke="midnightblue" points="3594.27,-144.54 3584.51,-148.65 3594.7,-151.53 3594.27,-144.54"/>
</g>
<!-- Node45 -->
<g id="node40" class="node">
<title>Node45</title>
<g id="a_node40"><a xlink:href="../../d3/d4f/mouse__coordinates_8cpp.html" target="_top" xlink:title=" ">
<polygon fill="white" stroke="black" points="4250,-67.5 4250,-97.5 4384,-97.5 4384,-67.5 4250,-67.5"/>
<text text-anchor="start" x="4258" y="-85.5" font-family="Helvetica,sans-Serif" font-size="10.00">src/libs/vwidgets/mouse</text>
<text text-anchor="middle" x="4317" y="-74.5" font-family="Helvetica,sans-Serif" font-size="10.00">_coordinates.cpp</text>
</a>
</g>
</g>
<!-- Node18&#45;&gt;Node45 -->
<g id="edge45" class="edge">
<title>Node18&#45;&gt;Node45</title>
<path fill="none" stroke="midnightblue" d="M3594.87,-149.78C3741.41,-143.17 4011.36,-127.93 4240,-98 4243.24,-97.58 4246.54,-97.1 4249.88,-96.6"/>
<polygon fill="midnightblue" stroke="midnightblue" points="3594.36,-146.29 3584.53,-150.24 3594.68,-153.29 3594.36,-146.29"/>
</g>
<!-- Node46 -->
<g id="node41" class="node">
<title>Node46</title>
<g id="a_node41"><a xlink:href="../../d8/d76/scene__rect_8cpp.html" target="_top" xlink:title=" ">
<polygon fill="white" stroke="black" points="4402,-67.5 4402,-97.5 4532,-97.5 4532,-67.5 4402,-67.5"/>
<text text-anchor="start" x="4410" y="-85.5" font-family="Helvetica,sans-Serif" font-size="10.00">src/libs/vwidgets/scene</text>
<text text-anchor="middle" x="4467" y="-74.5" font-family="Helvetica,sans-Serif" font-size="10.00">_rect.cpp</text>
</a>
</g>
</g>
<!-- Node18&#45;&gt;Node46 -->
<g id="edge46" class="edge">
<title>Node18&#45;&gt;Node46</title>
<path fill="none" stroke="midnightblue" d="M3594.82,-151.93C3765.03,-147.62 4106.17,-134.8 4393,-98 4395.86,-97.63 4398.77,-97.22 4401.71,-96.78"/>
<polygon fill="midnightblue" stroke="midnightblue" points="3594.51,-148.43 3584.6,-152.18 3594.69,-155.43 3594.51,-148.43"/>
</g>
<!-- Node47 -->
<g id="node42" class="node">
<title>Node47</title>
<g id="a_node42"><a xlink:href="../../dd/df6/vabstractmainwindow_8cpp.html" target="_top" xlink:title=" ">
<polygon fill="white" stroke="black" points="4550.5,-73 4550.5,-92 4779.5,-92 4779.5,-73 4550.5,-73"/>
<text text-anchor="middle" x="4665" y="-80" font-family="Helvetica,sans-Serif" font-size="10.00">src/libs/vwidgets/vabstractmainwindow.cpp</text>
</a>
</g>
</g>
<!-- Node18&#45;&gt;Node47 -->
<g id="edge47" class="edge">
<title>Node18&#45;&gt;Node47</title>
<path fill="none" stroke="midnightblue" d="M3594.53,-150.54C3785.37,-143.89 4195.7,-127.33 4541,-98 4559.79,-96.4 4580.13,-94.22 4598.79,-92.03"/>
<polygon fill="midnightblue" stroke="midnightblue" points="3594.37,-147.04 3584.5,-150.88 3594.62,-154.04 3594.37,-147.04"/>
</g>
<!-- Node48 -->
<g id="node43" class="node">
<title>Node48</title>
<g id="a_node43"><a xlink:href="../../de/dec/vgraphicssimpletextitem_8cpp.html" target="_top" xlink:title=" ">
<polygon fill="white" stroke="black" points="4798,-73 4798,-92 5042,-92 5042,-73 4798,-73"/>
<text text-anchor="middle" x="4920" y="-80" font-family="Helvetica,sans-Serif" font-size="10.00">src/libs/vwidgets/vgraphicssimpletextitem.cpp</text>
</a>
</g>
</g>
<!-- Node18&#45;&gt;Node48 -->
<g id="edge48" class="edge">
<title>Node18&#45;&gt;Node48</title>
<path fill="none" stroke="midnightblue" d="M3594.79,-151.82C3817.94,-146.75 4346.6,-131.96 4789,-98 4809.19,-96.45 4831.08,-94.24 4851.07,-92.01"/>
<polygon fill="midnightblue" stroke="midnightblue" points="3594.64,-148.32 3584.72,-152.04 3594.8,-155.32 3594.64,-148.32"/>
</g>
<!-- Node49 -->
<g id="node44" class="node">
<title>Node49</title>
<g id="a_node44"><a xlink:href="../../d1/d90/vgrainlineitem_8cpp.html" target="_top" xlink:title=" ">
<polygon fill="white" stroke="black" points="5060.5,-73 5060.5,-92 5253.5,-92 5253.5,-73 5060.5,-73"/>
<text text-anchor="middle" x="5157" y="-80" font-family="Helvetica,sans-Serif" font-size="10.00">src/libs/vwidgets/vgrainlineitem.cpp</text>
</a>
</g>
</g>
<!-- Node18&#45;&gt;Node49 -->
<g id="edge49" class="edge">
<title>Node18&#45;&gt;Node49</title>
<path fill="none" stroke="midnightblue" d="M3595,-153.85C3849.26,-152.69 4505.32,-144.97 5051,-98 5067.75,-96.56 5085.9,-94.32 5102.37,-92.04"/>
<polygon fill="midnightblue" stroke="midnightblue" points="3594.65,-150.35 3584.66,-153.9 3594.68,-157.35 3594.65,-150.35"/>
</g>
<!-- Node27&#45;&gt;Node28 -->
<g id="edge26" class="edge">
<title>Node27&#45;&gt;Node28</title>
<path fill="none" stroke="midnightblue" d="M2507.72,-58.87C2501.79,-49.46 2495.09,-38.83 2489.88,-30.58"/>
<polygon fill="midnightblue" stroke="midnightblue" points="2504.81,-60.81 2513.1,-67.4 2510.73,-57.07 2504.81,-60.81"/>
</g>
<!-- Node38&#45;&gt;Node39 -->
<g id="edge39" class="edge">
<title>Node38&#45;&gt;Node39</title>
<path fill="none" stroke="midnightblue" d="M3675.58,-67.11C4000.43,-21.75 4380.11,-16.65 4518.36,-16.35"/>
<polygon fill="midnightblue" stroke="midnightblue" points="3674.91,-63.67 3665.5,-68.54 3675.89,-70.6 3674.91,-63.67"/>
</g>
</g>
</svg>
