<?xml version="1.0" encoding="UTF-8" standalone="no"?>
<!DOCTYPE svg PUBLIC "-//W3C//DTD SVG 1.1//EN"
 "http://www.w3.org/Graphics/SVG/1.1/DTD/svg11.dtd">
<!-- Generated by graphviz version 2.43.0 (0)
 -->
<!-- Title: src/libs/vpatterndb/variables/vcurvevariable.h Pages: 1 -->
<svg width="5278pt" height="452pt"
 viewBox="0.00 0.00 5277.50 452.00" xmlns="http://www.w3.org/2000/svg" xmlns:xlink="http://www.w3.org/1999/xlink">
<g id="graph0" class="graph" transform="scale(1 1) rotate(0) translate(4 448)">
<title>src/libs/vpatterndb/variables/vcurvevariable.h</title>
<polygon fill="white" stroke="transparent" points="-4,4 -4,-448 5273.5,-448 5273.5,4 -4,4"/>
<!-- Node1 -->
<g id="node1" class="node">
<title>Node1</title>
<g id="a_node1"><a xlink:title=" ">
<polygon fill="#bfbfbf" stroke="black" points="4709.5,-413.5 4709.5,-443.5 4858.5,-443.5 4858.5,-413.5 4709.5,-413.5"/>
<text text-anchor="start" x="4717.5" y="-431.5" font-family="Helvetica,sans-Serif" font-size="10.00">src/libs/vpatterndb</text>
<text text-anchor="middle" x="4784" y="-420.5" font-family="Helvetica,sans-Serif" font-size="10.00">/variables/vcurvevariable.h</text>
</a>
</g>
</g>
<!-- Node2 -->
<g id="node2" class="node">
<title>Node2</title>
<g id="a_node2"><a xlink:href="../../df/db3/vcurveangle_8cpp.html" target="_top" xlink:title=" ">
<polygon fill="white" stroke="black" points="4291,-279.5 4291,-309.5 4439,-309.5 4439,-279.5 4291,-279.5"/>
<text text-anchor="start" x="4299" y="-297.5" font-family="Helvetica,sans-Serif" font-size="10.00">src/libs/vpatterndb</text>
<text text-anchor="middle" x="4365" y="-286.5" font-family="Helvetica,sans-Serif" font-size="10.00">/variables/vcurveangle.cpp</text>
</a>
</g>
</g>
<!-- Node1&#45;&gt;Node2 -->
<g id="edge1" class="edge">
<title>Node1&#45;&gt;Node2</title>
<path fill="none" stroke="midnightblue" d="M4699.24,-426.99C4597.94,-424.64 4436.4,-414.85 4391,-377 4371.04,-360.36 4366.22,-328.38 4365.17,-309.82"/>
<polygon fill="midnightblue" stroke="midnightblue" points="4699.38,-430.49 4709.46,-427.2 4699.53,-423.49 4699.38,-430.49"/>
</g>
<!-- Node3 -->
<g id="node3" class="node">
<title>Node3</title>
<g id="a_node3"><a xlink:href="../../d9/d7c/vcurveangle_8h.html" target="_top" xlink:title=" ">
<polygon fill="white" stroke="black" points="4400.5,-346.5 4400.5,-376.5 4537.5,-376.5 4537.5,-346.5 4400.5,-346.5"/>
<text text-anchor="start" x="4408.5" y="-364.5" font-family="Helvetica,sans-Serif" font-size="10.00">src/libs/vpatterndb</text>
<text text-anchor="middle" x="4469" y="-353.5" font-family="Helvetica,sans-Serif" font-size="10.00">/variables/vcurveangle.h</text>
</a>
</g>
</g>
<!-- Node1&#45;&gt;Node3 -->
<g id="edge2" class="edge">
<title>Node1&#45;&gt;Node3</title>
<path fill="none" stroke="midnightblue" d="M4706.22,-411.45C4654.36,-400.75 4586.85,-386.82 4537.11,-376.55"/>
<polygon fill="midnightblue" stroke="midnightblue" points="4705.54,-414.88 4716.04,-413.48 4706.95,-408.03 4705.54,-414.88"/>
</g>
<!-- Node66 -->
<g id="node44" class="node">
<title>Node66</title>
<g id="a_node44"><a xlink:href="../../d1/d66/vcurveclength_8h.html" target="_top" xlink:title=" ">
<polygon fill="white" stroke="black" points="4561,-346.5 4561,-376.5 4707,-376.5 4707,-346.5 4561,-346.5"/>
<text text-anchor="start" x="4569" y="-364.5" font-family="Helvetica,sans-Serif" font-size="10.00">src/libs/vpatterndb</text>
<text text-anchor="middle" x="4634" y="-353.5" font-family="Helvetica,sans-Serif" font-size="10.00">/variables/vcurveclength.h</text>
</a>
</g>
</g>
<!-- Node1&#45;&gt;Node66 -->
<g id="edge55" class="edge">
<title>Node1&#45;&gt;Node66</title>
<path fill="none" stroke="midnightblue" d="M4742.25,-409.41C4718.3,-399.03 4688.68,-386.2 4666.48,-376.58"/>
<polygon fill="midnightblue" stroke="midnightblue" points="4740.89,-412.63 4751.45,-413.4 4743.67,-406.21 4740.89,-412.63"/>
</g>
<!-- Node67 -->
<g id="node45" class="node">
<title>Node67</title>
<g id="a_node45"><a xlink:href="../../d9/d15/vcurveclength_8cpp.html" target="_top" xlink:title=" ">
<polygon fill="white" stroke="black" points="4659.5,-279.5 4659.5,-309.5 4816.5,-309.5 4816.5,-279.5 4659.5,-279.5"/>
<text text-anchor="start" x="4667.5" y="-297.5" font-family="Helvetica,sans-Serif" font-size="10.00">src/libs/vpatterndb</text>
<text text-anchor="middle" x="4738" y="-286.5" font-family="Helvetica,sans-Serif" font-size="10.00">/variables/vcurveclength.cpp</text>
</a>
</g>
</g>
<!-- Node1&#45;&gt;Node67 -->
<g id="edge59" class="edge">
<title>Node1&#45;&gt;Node67</title>
<path fill="none" stroke="midnightblue" d="M4770.08,-404.53C4765.41,-396.1 4760.51,-386.33 4757,-377 4748.4,-354.16 4742.91,-326.2 4740.14,-309.67"/>
<polygon fill="midnightblue" stroke="midnightblue" points="4767.15,-406.45 4775.16,-413.39 4773.22,-402.97 4767.15,-406.45"/>
</g>
<!-- Node68 -->
<g id="node46" class="node">
<title>Node68</title>
<g id="a_node46"><a xlink:href="../../d1/d1c/varcradius_8h.html" target="_top" xlink:title=" ">
<polygon fill="white" stroke="black" points="4766,-346.5 4766,-376.5 4894,-376.5 4894,-346.5 4766,-346.5"/>
<text text-anchor="start" x="4774" y="-364.5" font-family="Helvetica,sans-Serif" font-size="10.00">src/libs/vpatterndb</text>
<text text-anchor="middle" x="4830" y="-353.5" font-family="Helvetica,sans-Serif" font-size="10.00">/variables/varcradius.h</text>
</a>
</g>
</g>
<!-- Node1&#45;&gt;Node68 -->
<g id="edge60" class="edge">
<title>Node1&#45;&gt;Node68</title>
<path fill="none" stroke="midnightblue" d="M4799.81,-405.16C4806.52,-395.68 4814.13,-384.92 4820.04,-376.58"/>
<polygon fill="midnightblue" stroke="midnightblue" points="4796.9,-403.21 4793.98,-413.4 4802.62,-407.26 4796.9,-403.21"/>
</g>
<!-- Node70 -->
<g id="node48" class="node">
<title>Node70</title>
<g id="a_node48"><a xlink:href="../../df/d03/vcurvelength_8h.html" target="_top" xlink:title=" ">
<polygon fill="white" stroke="black" points="4912,-346.5 4912,-376.5 5052,-376.5 5052,-346.5 4912,-346.5"/>
<text text-anchor="start" x="4920" y="-364.5" font-family="Helvetica,sans-Serif" font-size="10.00">src/libs/vpatterndb</text>
<text text-anchor="middle" x="4982" y="-353.5" font-family="Helvetica,sans-Serif" font-size="10.00">/variables/vcurvelength.h</text>
</a>
</g>
</g>
<!-- Node1&#45;&gt;Node70 -->
<g id="edge64" class="edge">
<title>Node1&#45;&gt;Node70</title>
<path fill="none" stroke="midnightblue" d="M4836.61,-410.23C4868.64,-399.71 4909.04,-386.45 4939.12,-376.58"/>
<polygon fill="midnightblue" stroke="midnightblue" points="4835.37,-406.95 4826.96,-413.4 4837.56,-413.6 4835.37,-406.95"/>
</g>
<!-- Node71 -->
<g id="node49" class="node">
<title>Node71</title>
<g id="a_node49"><a xlink:href="../../d6/dd4/vcurvelength_8cpp.html" target="_top" xlink:title=" ">
<polygon fill="white" stroke="black" points="5069,-279.5 5069,-309.5 5221,-309.5 5221,-279.5 5069,-279.5"/>
<text text-anchor="start" x="5077" y="-297.5" font-family="Helvetica,sans-Serif" font-size="10.00">src/libs/vpatterndb</text>
<text text-anchor="middle" x="5145" y="-286.5" font-family="Helvetica,sans-Serif" font-size="10.00">/variables/vcurvelength.cpp</text>
</a>
</g>
</g>
<!-- Node1&#45;&gt;Node71 -->
<g id="edge68" class="edge">
<title>Node1&#45;&gt;Node71</title>
<path fill="none" stroke="midnightblue" d="M4868.7,-424.83C4925.77,-420.04 5001.24,-407.76 5061,-377 5077.53,-368.49 5113.35,-330.5 5132.44,-309.53"/>
<polygon fill="midnightblue" stroke="midnightblue" points="4868.33,-421.35 4858.63,-425.61 4868.87,-428.32 4868.33,-421.35"/>
</g>
<!-- Node72 -->
<g id="node50" class="node">
<title>Node72</title>
<g id="a_node50"><a xlink:href="../../de/da5/vcurvevariable_8cpp.html" target="_top" xlink:title=" ">
<polygon fill="white" stroke="black" points="5108.5,-346.5 5108.5,-376.5 5269.5,-376.5 5269.5,-346.5 5108.5,-346.5"/>
<text text-anchor="start" x="5116.5" y="-364.5" font-family="Helvetica,sans-Serif" font-size="10.00">src/libs/vpatterndb</text>
<text text-anchor="middle" x="5189" y="-353.5" font-family="Helvetica,sans-Serif" font-size="10.00">/variables/vcurvevariable.cpp</text>
</a>
</g>
</g>
<!-- Node1&#45;&gt;Node72 -->
<g id="edge69" class="edge">
<title>Node1&#45;&gt;Node72</title>
<path fill="none" stroke="midnightblue" d="M4868.94,-413.87C4939.48,-402.55 5039.14,-386.55 5108.43,-375.43"/>
<polygon fill="midnightblue" stroke="midnightblue" points="4868.07,-410.46 4858.76,-415.5 4869.18,-417.37 4868.07,-410.46"/>
</g>
<!-- Node3&#45;&gt;Node2 -->
<g id="edge3" class="edge">
<title>Node3&#45;&gt;Node2</title>
<path fill="none" stroke="midnightblue" d="M4437.82,-341.02C4421.64,-330.9 4402.23,-318.77 4387.52,-309.58"/>
<polygon fill="midnightblue" stroke="midnightblue" points="4436.1,-344.06 4446.43,-346.4 4439.81,-338.13 4436.1,-344.06"/>
</g>
<!-- Node4 -->
<g id="node4" class="node">
<title>Node4</title>
<g id="a_node4"><a xlink:href="../../de/dca/variables_8h.html" target="_top" xlink:title=" ">
<polygon fill="white" stroke="black" points="4495.5,-279.5 4495.5,-309.5 4602.5,-309.5 4602.5,-279.5 4495.5,-279.5"/>
<text text-anchor="start" x="4503.5" y="-297.5" font-family="Helvetica,sans-Serif" font-size="10.00">src/libs/vpatterndb</text>
<text text-anchor="middle" x="4549" y="-286.5" font-family="Helvetica,sans-Serif" font-size="10.00">/variables.h</text>
</a>
</g>
</g>
<!-- Node3&#45;&gt;Node4 -->
<g id="edge4" class="edge">
<title>Node3&#45;&gt;Node4</title>
<path fill="none" stroke="midnightblue" d="M4494.37,-339.88C4506.53,-330.01 4520.78,-318.43 4531.68,-309.58"/>
<polygon fill="midnightblue" stroke="midnightblue" points="4491.91,-337.37 4486.36,-346.4 4496.33,-342.81 4491.91,-337.37"/>
</g>
<!-- Node41 -->
<g id="node36" class="node">
<title>Node41</title>
<g id="a_node36"><a xlink:href="../../d6/d46/vcontainer_8cpp.html" target="_top" xlink:title=" ">
<polygon fill="white" stroke="black" points="4527.5,-67.5 4527.5,-97.5 4634.5,-97.5 4634.5,-67.5 4527.5,-67.5"/>
<text text-anchor="start" x="4535.5" y="-85.5" font-family="Helvetica,sans-Serif" font-size="10.00">src/libs/vpatterndb</text>
<text text-anchor="middle" x="4581" y="-74.5" font-family="Helvetica,sans-Serif" font-size="10.00">/vcontainer.cpp</text>
</a>
</g>
</g>
<!-- Node3&#45;&gt;Node41 -->
<g id="edge54" class="edge">
<title>Node3&#45;&gt;Node41</title>
<path fill="none" stroke="midnightblue" d="M4472.41,-336.48C4475.13,-320.02 4479.56,-297.85 4486,-279 4510.26,-207.93 4554.21,-129.22 4572.58,-97.69"/>
<polygon fill="midnightblue" stroke="midnightblue" points="4468.95,-335.96 4470.86,-346.38 4475.87,-337.04 4468.95,-335.96"/>
</g>
<!-- Node5 -->
<g id="node5" class="node">
<title>Node5</title>
<g id="a_node5"><a xlink:href="../../d3/df7/vcontainer_8h.html" target="_top" xlink:title=" ">
<polygon fill="white" stroke="black" points="3528.5,-212.5 3528.5,-242.5 3635.5,-242.5 3635.5,-212.5 3528.5,-212.5"/>
<text text-anchor="start" x="3536.5" y="-230.5" font-family="Helvetica,sans-Serif" font-size="10.00">src/libs/vpatterndb</text>
<text text-anchor="middle" x="3582" y="-219.5" font-family="Helvetica,sans-Serif" font-size="10.00">/vcontainer.h</text>
</a>
</g>
</g>
<!-- Node4&#45;&gt;Node5 -->
<g id="edge5" class="edge">
<title>Node4&#45;&gt;Node5</title>
<path fill="none" stroke="midnightblue" d="M4485.18,-283.51C4472.86,-281.81 4460.05,-280.21 4448,-279 4141.57,-248.12 3772.09,-234.35 3635.84,-230.06"/>
<polygon fill="midnightblue" stroke="midnightblue" points="4484.99,-287.01 4495.38,-284.94 4485.96,-280.08 4484.99,-287.01"/>
</g>
<!-- Node6 -->
<g id="node6" class="node">
<title>Node6</title>
<g id="a_node6"><a xlink:href="../../dc/db7/measurements_8h.html" target="_top" xlink:title=" ">
<polygon fill="white" stroke="black" points="166.5,-145.5 166.5,-164.5 345.5,-164.5 345.5,-145.5 166.5,-145.5"/>
<text text-anchor="middle" x="256" y="-152.5" font-family="Helvetica,sans-Serif" font-size="10.00">src/libs/vformat/measurements.h</text>
</a>
</g>
</g>
<!-- Node5&#45;&gt;Node6 -->
<g id="edge6" class="edge">
<title>Node5&#45;&gt;Node6</title>
<path fill="none" stroke="midnightblue" d="M3517.89,-226.09C3206.13,-223.95 1817.26,-212.71 680,-176 564.55,-172.27 431.51,-165.61 345.71,-161.01"/>
<polygon fill="midnightblue" stroke="midnightblue" points="3518.07,-229.59 3528.1,-226.16 3518.12,-222.59 3518.07,-229.59"/>
</g>
<!-- Node7 -->
<g id="node7" class="node">
<title>Node7</title>
<g id="a_node7"><a xlink:href="../../d9/de3/measurements_8cpp.html" target="_top" xlink:title=" ">
<polygon fill="white" stroke="black" points="0,-73 0,-92 190,-92 190,-73 0,-73"/>
<text text-anchor="middle" x="95" y="-80" font-family="Helvetica,sans-Serif" font-size="10.00">src/libs/vformat/measurements.cpp</text>
</a>
</g>
</g>
<!-- Node5&#45;&gt;Node7 -->
<g id="edge8" class="edge">
<title>Node5&#45;&gt;Node7</title>
<path fill="none" stroke="midnightblue" d="M3518.18,-226.15C3161.48,-224.06 1411.54,-212.1 873,-176 600.55,-157.74 276.98,-111.24 150,-92.01"/>
<polygon fill="midnightblue" stroke="midnightblue" points="3518.3,-229.65 3528.32,-226.21 3518.34,-222.65 3518.3,-229.65"/>
</g>
<!-- Node8 -->
<g id="node8" class="node">
<title>Node8</title>
<g id="a_node8"><a xlink:href="../../d6/de0/vlayoutpiece_8h.html" target="_top" xlink:title=" ">
<polygon fill="white" stroke="black" points="882,-145.5 882,-164.5 1048,-164.5 1048,-145.5 882,-145.5"/>
<text text-anchor="middle" x="965" y="-152.5" font-family="Helvetica,sans-Serif" font-size="10.00">src/libs/vlayout/vlayoutpiece.h</text>
</a>
</g>
</g>
<!-- Node5&#45;&gt;Node8 -->
<g id="edge9" class="edge">
<title>Node5&#45;&gt;Node8</title>
<path fill="none" stroke="midnightblue" d="M3518.18,-224.78C3164.59,-215.26 1447.47,-169 1048.11,-158.24"/>
<polygon fill="midnightblue" stroke="midnightblue" points="3518.15,-228.28 3528.24,-225.05 3518.34,-221.28 3518.15,-228.28"/>
</g>
<!-- Node18 -->
<g id="node17" class="node">
<title>Node18</title>
<g id="a_node17"><a xlink:href="../../d8/d70/vtextmanager_8cpp.html" target="_top" xlink:title=" ">
<polygon fill="white" stroke="black" points="1529,-73 1529,-92 1711,-92 1711,-73 1529,-73"/>
<text text-anchor="middle" x="1620" y="-80" font-family="Helvetica,sans-Serif" font-size="10.00">src/libs/vlayout/vtextmanager.cpp</text>
</a>
</g>
</g>
<!-- Node5&#45;&gt;Node18 -->
<g id="edge20" class="edge">
<title>Node5&#45;&gt;Node18</title>
<path fill="none" stroke="midnightblue" d="M3517.94,-224.06C3279.69,-214.57 2422.43,-176.68 1720,-98 1705.09,-96.33 1688.99,-94.16 1674.15,-92.01"/>
<polygon fill="midnightblue" stroke="midnightblue" points="3518.02,-227.57 3528.15,-224.47 3518.3,-220.57 3518.02,-227.57"/>
</g>
<!-- Node19 -->
<g id="node18" class="node">
<title>Node19</title>
<g id="a_node18"><a xlink:href="../../d5/d74/vabstractapplication_8h.html" target="_top" xlink:title=" ">
<polygon fill="white" stroke="red" points="2713.5,-145.5 2713.5,-164.5 2908.5,-164.5 2908.5,-145.5 2713.5,-145.5"/>
<text text-anchor="middle" x="2811" y="-152.5" font-family="Helvetica,sans-Serif" font-size="10.00">src/libs/vmisc/vabstractapplication.h</text>
</a>
</g>
</g>
<!-- Node5&#45;&gt;Node19 -->
<g id="edge21" class="edge">
<title>Node5&#45;&gt;Node19</title>
<path fill="none" stroke="midnightblue" d="M3518.14,-220.66C3382.07,-208.22 3063.05,-179.05 2904.23,-164.52"/>
<polygon fill="midnightblue" stroke="midnightblue" points="3518.12,-224.17 3528.4,-221.6 3518.76,-217.2 3518.12,-224.17"/>
</g>
<!-- Node37 -->
<g id="node32" class="node">
<title>Node37</title>
<g id="a_node32"><a xlink:href="../../db/d11/vformula_8cpp.html" target="_top" xlink:title=" ">
<polygon fill="white" stroke="black" points="3811.5,-67.5 3811.5,-97.5 3918.5,-97.5 3918.5,-67.5 3811.5,-67.5"/>
<text text-anchor="start" x="3819.5" y="-85.5" font-family="Helvetica,sans-Serif" font-size="10.00">src/libs/vpatterndb</text>
<text text-anchor="middle" x="3865" y="-74.5" font-family="Helvetica,sans-Serif" font-size="10.00">/vformula.cpp</text>
</a>
</g>
</g>
<!-- Node5&#45;&gt;Node37 -->
<g id="edge46" class="edge">
<title>Node5&#45;&gt;Node37</title>
<path fill="none" stroke="midnightblue" d="M3541.18,-207.04C3529.25,-199.18 3517.64,-188.87 3511,-176 3502.44,-159.41 3498.64,-147.99 3511,-134 3554.15,-85.18 3737.83,-109.32 3802,-98 3805.09,-97.45 3808.27,-96.85 3811.46,-96.22"/>
<polygon fill="midnightblue" stroke="midnightblue" points="3539.49,-210.12 3549.85,-212.34 3543.14,-204.14 3539.49,-210.12"/>
</g>
<!-- Node38 -->
<g id="node33" class="node">
<title>Node38</title>
<g id="a_node33"><a xlink:href="../../df/d7a/vpiece_8cpp.html" target="_top" xlink:title=" ">
<polygon fill="white" stroke="black" points="3936.5,-67.5 3936.5,-97.5 4043.5,-97.5 4043.5,-67.5 3936.5,-67.5"/>
<text text-anchor="start" x="3944.5" y="-85.5" font-family="Helvetica,sans-Serif" font-size="10.00">src/libs/vpatterndb</text>
<text text-anchor="middle" x="3990" y="-74.5" font-family="Helvetica,sans-Serif" font-size="10.00">/vpiece.cpp</text>
</a>
</g>
</g>
<!-- Node5&#45;&gt;Node38 -->
<g id="edge49" class="edge">
<title>Node5&#45;&gt;Node38</title>
<path fill="none" stroke="midnightblue" d="M3562.77,-204.37C3547.37,-183.89 3531.05,-153.74 3549,-134 3577.38,-102.78 3885.35,-104.75 3927,-98 3930.1,-97.5 3933.28,-96.93 3936.48,-96.32"/>
<polygon fill="midnightblue" stroke="midnightblue" points="3560.04,-206.56 3568.99,-212.22 3565.53,-202.21 3560.04,-206.56"/>
</g>
<!-- Node40 -->
<g id="node35" class="node">
<title>Node40</title>
<g id="a_node35"><a xlink:href="../../d8/dba/vpiecenode_8cpp.html" target="_top" xlink:title=" ">
<polygon fill="white" stroke="black" points="3787.5,-0.5 3787.5,-30.5 3894.5,-30.5 3894.5,-0.5 3787.5,-0.5"/>
<text text-anchor="start" x="3795.5" y="-18.5" font-family="Helvetica,sans-Serif" font-size="10.00">src/libs/vpatterndb</text>
<text text-anchor="middle" x="3841" y="-7.5" font-family="Helvetica,sans-Serif" font-size="10.00">/vpiecenode.cpp</text>
</a>
</g>
</g>
<!-- Node5&#45;&gt;Node40 -->
<g id="edge48" class="edge">
<title>Node5&#45;&gt;Node40</title>
<path fill="none" stroke="midnightblue" d="M3575.8,-202.54C3571.95,-181.52 3570.59,-151.63 3588,-134 3660.67,-60.41 3981.76,-173.91 4052,-98 4100.81,-45.26 3972.02,-26.27 3894.59,-19.74"/>
<polygon fill="midnightblue" stroke="midnightblue" points="3572.38,-203.28 3577.89,-212.33 3579.23,-201.82 3572.38,-203.28"/>
</g>
<!-- Node5&#45;&gt;Node41 -->
<g id="edge51" class="edge">
<title>Node5&#45;&gt;Node41</title>
<path fill="none" stroke="midnightblue" d="M3584.77,-202.23C3588.66,-180.47 3597.95,-149.63 3620,-134 3657.2,-107.62 4330.21,-89.5 4527.24,-84.74"/>
<polygon fill="midnightblue" stroke="midnightblue" points="3581.28,-201.95 3583.23,-212.36 3588.2,-203 3581.28,-201.95"/>
</g>
<!-- Node58 -->
<g id="node38" class="node">
<title>Node58</title>
<g id="a_node38"><a xlink:href="../../d7/d8a/measurement__variable__p_8h.html" target="_top" xlink:title=" ">
<polygon fill="white" stroke="red" points="3629,-134.5 3629,-175.5 3765,-175.5 3765,-134.5 3629,-134.5"/>
<text text-anchor="start" x="3637" y="-163.5" font-family="Helvetica,sans-Serif" font-size="10.00">src/libs/vpatterndb</text>
<text text-anchor="start" x="3637" y="-152.5" font-family="Helvetica,sans-Serif" font-size="10.00">/variables/measurement</text>
<text text-anchor="middle" x="3697" y="-141.5" font-family="Helvetica,sans-Serif" font-size="10.00">_variable_p.h</text>
</a>
</g>
</g>
<!-- Node5&#45;&gt;Node58 -->
<g id="edge44" class="edge">
<title>Node5&#45;&gt;Node58</title>
<path fill="none" stroke="midnightblue" d="M3613.92,-206.93C3629.82,-197.19 3648.98,-185.44 3664.9,-175.68"/>
<polygon fill="midnightblue" stroke="midnightblue" points="3611.69,-204.19 3605,-212.4 3615.35,-210.16 3611.69,-204.19"/>
</g>
<!-- Node60 -->
<g id="node39" class="node">
<title>Node60</title>
<g id="a_node39"><a xlink:href="../../d1/de1/vincrement__p_8h.html" target="_top" xlink:title=" ">
<polygon fill="white" stroke="red" points="3783.5,-140 3783.5,-170 3926.5,-170 3926.5,-140 3783.5,-140"/>
<text text-anchor="start" x="3791.5" y="-158" font-family="Helvetica,sans-Serif" font-size="10.00">src/libs/vpatterndb</text>
<text text-anchor="middle" x="3855" y="-147" font-family="Helvetica,sans-Serif" font-size="10.00">/variables/vincrement_p.h</text>
</a>
</g>
</g>
<!-- Node5&#45;&gt;Node60 -->
<g id="edge45" class="edge">
<title>Node5&#45;&gt;Node60</title>
<path fill="none" stroke="midnightblue" d="M3645.38,-210.13C3692.4,-197.99 3755.84,-181.61 3800.58,-170.05"/>
<polygon fill="midnightblue" stroke="midnightblue" points="3644.42,-206.77 3635.61,-212.66 3646.17,-213.54 3644.42,-206.77"/>
</g>
<!-- Node62 -->
<g id="node40" class="node">
<title>Node62</title>
<g id="a_node40"><a xlink:href="../../d6/d91/vnodedetail_8cpp.html" target="_top" xlink:title=" ">
<polygon fill="white" stroke="black" points="3944.5,-140 3944.5,-170 4051.5,-170 4051.5,-140 3944.5,-140"/>
<text text-anchor="start" x="3952.5" y="-158" font-family="Helvetica,sans-Serif" font-size="10.00">src/libs/vpatterndb</text>
<text text-anchor="middle" x="3998" y="-147" font-family="Helvetica,sans-Serif" font-size="10.00">/vnodedetail.cpp</text>
</a>
</g>
</g>
<!-- Node5&#45;&gt;Node62 -->
<g id="edge47" class="edge">
<title>Node5&#45;&gt;Node62</title>
<path fill="none" stroke="midnightblue" d="M3645.88,-220.57C3717.04,-213.23 3835.2,-198.82 3935,-176 3942.27,-174.34 3949.91,-172.23 3957.27,-170.01"/>
<polygon fill="midnightblue" stroke="midnightblue" points="3645.32,-217.11 3635.73,-221.6 3646.03,-224.07 3645.32,-217.11"/>
</g>
<!-- Node63 -->
<g id="node41" class="node">
<title>Node63</title>
<g id="a_node41"><a xlink:href="../../da/de1/vpiecepath_8cpp.html" target="_top" xlink:title=" ">
<polygon fill="white" stroke="black" points="4069.5,-140 4069.5,-170 4176.5,-170 4176.5,-140 4069.5,-140"/>
<text text-anchor="start" x="4077.5" y="-158" font-family="Helvetica,sans-Serif" font-size="10.00">src/libs/vpatterndb</text>
<text text-anchor="middle" x="4123" y="-147" font-family="Helvetica,sans-Serif" font-size="10.00">/vpiecepath.cpp</text>
</a>
</g>
</g>
<!-- Node5&#45;&gt;Node63 -->
<g id="edge50" class="edge">
<title>Node5&#45;&gt;Node63</title>
<path fill="none" stroke="midnightblue" d="M3645.61,-223.87C3737.8,-219.14 3913.57,-206.65 4060,-176 4067.53,-174.42 4075.43,-172.3 4082.99,-170.03"/>
<polygon fill="midnightblue" stroke="midnightblue" points="3645.41,-220.38 3635.6,-224.37 3645.76,-227.37 3645.41,-220.38"/>
</g>
<!-- Node64 -->
<g id="node42" class="node">
<title>Node64</title>
<g id="a_node42"><a xlink:href="../../d1/d3a/abstracttest_8cpp.html" target="_top" xlink:title=" ">
<polygon fill="white" stroke="black" points="4194.5,-145.5 4194.5,-164.5 4355.5,-164.5 4355.5,-145.5 4194.5,-145.5"/>
<text text-anchor="middle" x="4275" y="-152.5" font-family="Helvetica,sans-Serif" font-size="10.00">src/libs/vtest/abstracttest.cpp</text>
</a>
</g>
</g>
<!-- Node5&#45;&gt;Node64 -->
<g id="edge52" class="edge">
<title>Node5&#45;&gt;Node64</title>
<path fill="none" stroke="midnightblue" d="M3645.82,-223.99C3756.23,-219.02 3989.81,-205.72 4185,-176 4203.83,-173.13 4224.6,-168.61 4241.44,-164.59"/>
<polygon fill="midnightblue" stroke="midnightblue" points="3645.36,-220.51 3635.52,-224.45 3645.67,-227.5 3645.36,-220.51"/>
</g>
<!-- Node65 -->
<g id="node43" class="node">
<title>Node65</title>
<g id="a_node43"><a xlink:href="../../da/db4/piece__tablewidgetitem_8cpp.html" target="_top" xlink:title=" ">
<polygon fill="white" stroke="black" points="4374,-140 4374,-170 4502,-170 4502,-140 4374,-140"/>
<text text-anchor="start" x="4382" y="-158" font-family="Helvetica,sans-Serif" font-size="10.00">src/libs/vwidgets/piece</text>
<text text-anchor="middle" x="4438" y="-147" font-family="Helvetica,sans-Serif" font-size="10.00">_tablewidgetitem.cpp</text>
</a>
</g>
</g>
<!-- Node5&#45;&gt;Node65 -->
<g id="edge53" class="edge">
<title>Node5&#45;&gt;Node65</title>
<path fill="none" stroke="midnightblue" d="M3645.59,-226.67C3779.46,-226.09 4099.77,-219.79 4364,-176 4373.06,-174.5 4382.61,-172.35 4391.73,-170.02"/>
<polygon fill="midnightblue" stroke="midnightblue" points="3645.5,-223.17 3635.52,-226.7 3645.53,-230.17 3645.5,-223.17"/>
</g>
<!-- Node6&#45;&gt;Node7 -->
<g id="edge7" class="edge">
<title>Node6&#45;&gt;Node7</title>
<path fill="none" stroke="midnightblue" d="M227.15,-141.37C194.61,-127.12 142.57,-104.33 114.49,-92.03"/>
<polygon fill="midnightblue" stroke="midnightblue" points="226.02,-144.69 236.58,-145.5 228.82,-138.28 226.02,-144.69"/>
</g>
<!-- Node9 -->
<g id="node9" class="node">
<title>Node9</title>
<g id="a_node9"><a xlink:href="../../dd/d66/vdxfengine_8cpp.html" target="_top" xlink:title=" ">
<polygon fill="white" stroke="black" points="208,-73 208,-92 362,-92 362,-73 208,-73"/>
<text text-anchor="middle" x="285" y="-80" font-family="Helvetica,sans-Serif" font-size="10.00">src/libs/vdxf/vdxfengine.cpp</text>
</a>
</g>
</g>
<!-- Node8&#45;&gt;Node9 -->
<g id="edge10" class="edge">
<title>Node8&#45;&gt;Node9</title>
<path fill="none" stroke="midnightblue" d="M871.64,-147.32C754.45,-138.44 547.38,-121.15 371,-98 358.24,-96.33 344.47,-94.16 331.77,-92.02"/>
<polygon fill="midnightblue" stroke="midnightblue" points="871.42,-150.81 881.66,-148.07 871.95,-143.83 871.42,-150.81"/>
</g>
<!-- Node10 -->
<g id="node10" class="node">
<title>Node10</title>
<g id="a_node10"><a xlink:href="../../de/da8/vbank_8cpp.html" target="_top" xlink:title=" ">
<polygon fill="white" stroke="black" points="380,-73 380,-92 524,-92 524,-73 380,-73"/>
<text text-anchor="middle" x="452" y="-80" font-family="Helvetica,sans-Serif" font-size="10.00">src/libs/vlayout/vbank.cpp</text>
</a>
</g>
</g>
<!-- Node8&#45;&gt;Node10 -->
<g id="edge11" class="edge">
<title>Node8&#45;&gt;Node10</title>
<path fill="none" stroke="midnightblue" d="M880.59,-144.28C793.39,-133.95 653.43,-116.57 533,-98 521.42,-96.21 508.95,-94.08 497.35,-92.02"/>
<polygon fill="midnightblue" stroke="midnightblue" points="880.36,-147.78 890.7,-145.47 881.18,-140.82 880.36,-147.78"/>
</g>
<!-- Node11 -->
<g id="node11" class="node">
<title>Node11</title>
<g id="a_node11"><a xlink:href="../../d3/d39/vlayoutgenerator_8cpp.html" target="_top" xlink:title=" ">
<polygon fill="white" stroke="black" points="542.5,-73 542.5,-92 739.5,-92 739.5,-73 542.5,-73"/>
<text text-anchor="middle" x="641" y="-80" font-family="Helvetica,sans-Serif" font-size="10.00">src/libs/vlayout/vlayoutgenerator.cpp</text>
</a>
</g>
</g>
<!-- Node8&#45;&gt;Node11 -->
<g id="edge12" class="edge">
<title>Node8&#45;&gt;Node11</title>
<path fill="none" stroke="midnightblue" d="M915.99,-143.34C851.5,-129.3 739.42,-104.91 680.22,-92.03"/>
<polygon fill="midnightblue" stroke="midnightblue" points="915.4,-146.79 925.92,-145.5 916.89,-139.95 915.4,-146.79"/>
</g>
<!-- Node12 -->
<g id="node12" class="node">
<title>Node12</title>
<g id="a_node12"><a xlink:href="../../d2/d2d/vlayoutpaper__p_8h.html" target="_top" xlink:title=" ">
<polygon fill="white" stroke="black" points="757.5,-73 757.5,-92 936.5,-92 936.5,-73 757.5,-73"/>
<text text-anchor="middle" x="847" y="-80" font-family="Helvetica,sans-Serif" font-size="10.00">src/libs/vlayout/vlayoutpaper_p.h</text>
</a>
</g>
</g>
<!-- Node8&#45;&gt;Node12 -->
<g id="edge13" class="edge">
<title>Node8&#45;&gt;Node12</title>
<path fill="none" stroke="midnightblue" d="M941.77,-140.12C917.96,-125.89 881.65,-104.2 861.59,-92.22"/>
<polygon fill="midnightblue" stroke="midnightblue" points="940.15,-143.23 950.53,-145.36 943.74,-137.22 940.15,-143.23"/>
</g>
<!-- Node13 -->
<g id="node13" class="node">
<title>Node13</title>
<g id="a_node13"><a xlink:href="../../d1/dd1/vlayoutpaper_8cpp.html" target="_top" xlink:title=" ">
<polygon fill="white" stroke="black" points="876,-6 876,-25 1054,-25 1054,-6 876,-6"/>
<text text-anchor="middle" x="965" y="-13" font-family="Helvetica,sans-Serif" font-size="10.00">src/libs/vlayout/vlayoutpaper.cpp</text>
</a>
</g>
</g>
<!-- Node8&#45;&gt;Node13 -->
<g id="edge15" class="edge">
<title>Node8&#45;&gt;Node13</title>
<path fill="none" stroke="midnightblue" d="M965,-135.36C965,-105.23 965,-46.99 965,-25.1"/>
<polygon fill="midnightblue" stroke="midnightblue" points="961.5,-135.4 965,-145.4 968.5,-135.4 961.5,-135.4"/>
</g>
<!-- Node14 -->
<g id="node14" class="node">
<title>Node14</title>
<g id="a_node14"><a xlink:href="../../df/d5d/vcontour_8cpp.html" target="_top" xlink:title=" ">
<polygon fill="white" stroke="black" points="993,-73 993,-92 1149,-92 1149,-73 993,-73"/>
<text text-anchor="middle" x="1071" y="-80" font-family="Helvetica,sans-Serif" font-size="10.00">src/libs/vlayout/vcontour.cpp</text>
</a>
</g>
</g>
<!-- Node8&#45;&gt;Node14 -->
<g id="edge16" class="edge">
<title>Node8&#45;&gt;Node14</title>
<path fill="none" stroke="midnightblue" d="M986.43,-139.74C1007.84,-125.51 1040.04,-104.09 1057.9,-92.22"/>
<polygon fill="midnightblue" stroke="midnightblue" points="984.39,-136.9 978,-145.36 988.26,-142.73 984.39,-136.9"/>
</g>
<!-- Node15 -->
<g id="node15" class="node">
<title>Node15</title>
<g id="a_node15"><a xlink:href="../../db/d5c/vposition_8h.html" target="_top" xlink:title=" ">
<polygon fill="white" stroke="red" points="1167,-73 1167,-92 1315,-92 1315,-73 1167,-73"/>
<text text-anchor="middle" x="1241" y="-80" font-family="Helvetica,sans-Serif" font-size="10.00">src/libs/vlayout/vposition.h</text>
</a>
</g>
</g>
<!-- Node8&#45;&gt;Node15 -->
<g id="edge17" class="edge">
<title>Node8&#45;&gt;Node15</title>
<path fill="none" stroke="midnightblue" d="M1008.11,-142.99C1063.25,-128.9 1157.58,-104.81 1207.59,-92.03"/>
<polygon fill="midnightblue" stroke="midnightblue" points="1007.11,-139.63 998.29,-145.5 1008.85,-146.41 1007.11,-139.63"/>
</g>
<!-- Node17 -->
<g id="node16" class="node">
<title>Node17</title>
<g id="a_node16"><a xlink:href="../../dd/d70/vlayoutpiece_8cpp.html" target="_top" xlink:title=" ">
<polygon fill="white" stroke="black" points="1333.5,-73 1333.5,-92 1510.5,-92 1510.5,-73 1333.5,-73"/>
<text text-anchor="middle" x="1422" y="-80" font-family="Helvetica,sans-Serif" font-size="10.00">src/libs/vlayout/vlayoutpiece.cpp</text>
</a>
</g>
</g>
<!-- Node8&#45;&gt;Node17 -->
<g id="edge19" class="edge">
<title>Node8&#45;&gt;Node17</title>
<path fill="none" stroke="midnightblue" d="M1030.24,-143.94C1120.52,-130.01 1281.98,-105.1 1366.68,-92.03"/>
<polygon fill="midnightblue" stroke="midnightblue" points="1029.47,-140.51 1020.12,-145.5 1030.54,-147.43 1029.47,-140.51"/>
</g>
<!-- Node12&#45;&gt;Node13 -->
<g id="edge14" class="edge">
<title>Node12&#45;&gt;Node13</title>
<path fill="none" stroke="midnightblue" d="M871.89,-67.79C895.28,-54.9 929.56,-36.02 949.34,-25.13"/>
<polygon fill="midnightblue" stroke="midnightblue" points="869.98,-64.84 862.91,-72.73 873.36,-70.97 869.98,-64.84"/>
</g>
<!-- Node15&#45;&gt;Node13 -->
<g id="edge18" class="edge">
<title>Node15&#45;&gt;Node13</title>
<path fill="none" stroke="midnightblue" d="M1194.56,-70.56C1140.15,-57.75 1051.13,-36.78 1001.45,-25.08"/>
<polygon fill="midnightblue" stroke="midnightblue" points="1194.1,-74.05 1204.63,-72.94 1195.7,-67.24 1194.1,-74.05"/>
</g>
<!-- Node19&#45;&gt;Node17 -->
<g id="edge32" class="edge">
<title>Node19&#45;&gt;Node17</title>
<path fill="none" stroke="midnightblue" d="M2703.17,-153.09C2481.22,-150.39 1957.42,-139.73 1520,-98 1504.59,-96.53 1487.9,-94.3 1472.74,-92.03"/>
<polygon fill="midnightblue" stroke="midnightblue" points="2703.14,-156.59 2713.19,-153.21 2703.23,-149.59 2703.14,-156.59"/>
</g>
<!-- Node19&#45;&gt;Node18 -->
<g id="edge33" class="edge">
<title>Node19&#45;&gt;Node18</title>
<path fill="none" stroke="midnightblue" d="M2703.33,-151.78C2507.31,-147.01 2079.23,-133.19 1720,-98 1704.46,-96.48 1687.64,-94.26 1672.31,-92.02"/>
<polygon fill="midnightblue" stroke="midnightblue" points="2703.27,-155.28 2713.35,-152.02 2703.43,-148.28 2703.27,-155.28"/>
</g>
<!-- Node20 -->
<g id="node19" class="node">
<title>Node20</title>
<g id="a_node19"><a xlink:href="../../d4/d90/fvupdater_8cpp.html" target="_top" xlink:title=" ">
<polygon fill="white" stroke="black" points="1729.5,-73 1729.5,-92 1882.5,-92 1882.5,-73 1729.5,-73"/>
<text text-anchor="middle" x="1806" y="-80" font-family="Helvetica,sans-Serif" font-size="10.00">src/libs/fervor/fvupdater.cpp</text>
</a>
</g>
</g>
<!-- Node19&#45;&gt;Node20 -->
<g id="edge22" class="edge">
<title>Node19&#45;&gt;Node20</title>
<path fill="none" stroke="midnightblue" d="M2703.26,-151.22C2531.11,-145.93 2183.62,-131.76 1891,-98 1877.76,-96.47 1863.46,-94.25 1850.43,-92.01"/>
<polygon fill="midnightblue" stroke="midnightblue" points="2703.23,-154.72 2713.33,-151.52 2703.45,-147.72 2703.23,-154.72"/>
</g>
<!-- Node21 -->
<g id="node20" class="node">
<title>Node21</title>
<g id="a_node20"><a xlink:href="../../d9/dc8/dxiface_8cpp.html" target="_top" xlink:title=" ">
<polygon fill="white" stroke="black" points="1900.5,-73 1900.5,-92 2035.5,-92 2035.5,-73 1900.5,-73"/>
<text text-anchor="middle" x="1968" y="-80" font-family="Helvetica,sans-Serif" font-size="10.00">src/libs/vdxf/dxiface.cpp</text>
</a>
</g>
</g>
<!-- Node19&#45;&gt;Node21 -->
<g id="edge23" class="edge">
<title>Node19&#45;&gt;Node21</title>
<path fill="none" stroke="midnightblue" d="M2703.42,-150.07C2554.68,-143.75 2278.06,-128.77 2044,-98 2032.28,-96.46 2019.64,-94.26 2008.09,-92.05"/>
<polygon fill="midnightblue" stroke="midnightblue" points="2703.33,-153.57 2713.47,-150.49 2703.63,-146.58 2703.33,-153.57"/>
</g>
<!-- Node22 -->
<g id="node21" class="node">
<title>Node22</title>
<g id="a_node21"><a xlink:href="../../da/d75/vabstractarc__p_8h.html" target="_top" xlink:title=" ">
<polygon fill="white" stroke="red" points="2053.5,-67.5 2053.5,-97.5 2160.5,-97.5 2160.5,-67.5 2053.5,-67.5"/>
<text text-anchor="start" x="2061.5" y="-85.5" font-family="Helvetica,sans-Serif" font-size="10.00">src/libs/vgeometry</text>
<text text-anchor="middle" x="2107" y="-74.5" font-family="Helvetica,sans-Serif" font-size="10.00">/vabstractarc_p.h</text>
</a>
</g>
</g>
<!-- Node19&#45;&gt;Node22 -->
<g id="edge24" class="edge">
<title>Node19&#45;&gt;Node22</title>
<path fill="none" stroke="midnightblue" d="M2703.2,-149.3C2575.18,-142.64 2355.5,-127.79 2169,-98 2166.27,-97.56 2163.48,-97.08 2160.68,-96.55"/>
<polygon fill="midnightblue" stroke="midnightblue" points="2703.23,-152.81 2713.4,-149.83 2703.59,-145.82 2703.23,-152.81"/>
</g>
<!-- Node24 -->
<g id="node22" class="node">
<title>Node24</title>
<g id="a_node22"><a xlink:href="../../dc/da3/varc__p_8h.html" target="_top" xlink:title=" ">
<polygon fill="white" stroke="red" points="2178.5,-67.5 2178.5,-97.5 2285.5,-97.5 2285.5,-67.5 2178.5,-67.5"/>
<text text-anchor="start" x="2186.5" y="-85.5" font-family="Helvetica,sans-Serif" font-size="10.00">src/libs/vgeometry</text>
<text text-anchor="middle" x="2232" y="-74.5" font-family="Helvetica,sans-Serif" font-size="10.00">/varc_p.h</text>
</a>
</g>
</g>
<!-- Node19&#45;&gt;Node24 -->
<g id="edge25" class="edge">
<title>Node19&#45;&gt;Node24</title>
<path fill="none" stroke="midnightblue" d="M2703.35,-146.19C2598.4,-137.66 2434.53,-121.95 2294,-98 2291.28,-97.54 2288.49,-97.02 2285.69,-96.48"/>
<polygon fill="midnightblue" stroke="midnightblue" points="2703.07,-149.67 2713.32,-146.99 2703.63,-142.7 2703.07,-149.67"/>
</g>
<!-- Node26 -->
<g id="node23" class="node">
<title>Node26</title>
<g id="a_node23"><a xlink:href="../../d5/d8e/vcubicbezier__p_8h.html" target="_top" xlink:title=" ">
<polygon fill="white" stroke="red" points="2303.5,-67.5 2303.5,-97.5 2410.5,-97.5 2410.5,-67.5 2303.5,-67.5"/>
<text text-anchor="start" x="2311.5" y="-85.5" font-family="Helvetica,sans-Serif" font-size="10.00">src/libs/vgeometry</text>
<text text-anchor="middle" x="2357" y="-74.5" font-family="Helvetica,sans-Serif" font-size="10.00">/vcubicbezier_p.h</text>
</a>
</g>
</g>
<!-- Node19&#45;&gt;Node26 -->
<g id="edge26" class="edge">
<title>Node19&#45;&gt;Node26</title>
<path fill="none" stroke="midnightblue" d="M2727.75,-144.26C2648.15,-134.44 2524.93,-117.91 2419,-98 2416.28,-97.49 2413.51,-96.94 2410.71,-96.36"/>
<polygon fill="midnightblue" stroke="midnightblue" points="2727.36,-147.74 2737.71,-145.48 2728.22,-140.79 2727.36,-147.74"/>
</g>
<!-- Node28 -->
<g id="node24" class="node">
<title>Node28</title>
<g id="a_node24"><a xlink:href="../../df/dde/vellipticalarc__p_8h.html" target="_top" xlink:title=" ">
<polygon fill="white" stroke="black" points="2428.5,-67.5 2428.5,-97.5 2535.5,-97.5 2535.5,-67.5 2428.5,-67.5"/>
<text text-anchor="start" x="2436.5" y="-85.5" font-family="Helvetica,sans-Serif" font-size="10.00">src/libs/vgeometry</text>
<text text-anchor="middle" x="2482" y="-74.5" font-family="Helvetica,sans-Serif" font-size="10.00">/vellipticalarc_p.h</text>
</a>
</g>
</g>
<!-- Node19&#45;&gt;Node28 -->
<g id="edge27" class="edge">
<title>Node19&#45;&gt;Node28</title>
<path fill="none" stroke="midnightblue" d="M2761.21,-143.33C2700.47,-130.32 2598.2,-108.4 2535.73,-95.01"/>
<polygon fill="midnightblue" stroke="midnightblue" points="2760.8,-146.82 2771.31,-145.5 2762.27,-139.98 2760.8,-146.82"/>
</g>
<!-- Node29 -->
<g id="node25" class="node">
<title>Node29</title>
<g id="a_node25"><a xlink:href="../../d6/dfb/vellipticalarc_8cpp.html" target="_top" xlink:title=" ">
<polygon fill="white" stroke="black" points="2469.5,-0.5 2469.5,-30.5 2576.5,-30.5 2576.5,-0.5 2469.5,-0.5"/>
<text text-anchor="start" x="2477.5" y="-18.5" font-family="Helvetica,sans-Serif" font-size="10.00">src/libs/vgeometry</text>
<text text-anchor="middle" x="2523" y="-7.5" font-family="Helvetica,sans-Serif" font-size="10.00">/vellipticalarc.cpp</text>
</a>
</g>
</g>
<!-- Node19&#45;&gt;Node29 -->
<g id="edge29" class="edge">
<title>Node19&#45;&gt;Node29</title>
<path fill="none" stroke="midnightblue" d="M2705.46,-143.66C2664.61,-135.83 2619.1,-122.09 2583,-98 2557.43,-80.93 2538.78,-49.11 2529.54,-30.69"/>
<polygon fill="midnightblue" stroke="midnightblue" points="2704.99,-147.13 2715.46,-145.48 2706.24,-140.25 2704.99,-147.13"/>
</g>
<!-- Node30 -->
<g id="node26" class="node">
<title>Node30</title>
<g id="a_node26"><a xlink:href="../../d1/d76/vspline__p_8h.html" target="_top" xlink:title=" ">
<polygon fill="white" stroke="red" points="2592.5,-67.5 2592.5,-97.5 2699.5,-97.5 2699.5,-67.5 2592.5,-67.5"/>
<text text-anchor="start" x="2600.5" y="-85.5" font-family="Helvetica,sans-Serif" font-size="10.00">src/libs/vgeometry</text>
<text text-anchor="middle" x="2646" y="-74.5" font-family="Helvetica,sans-Serif" font-size="10.00">/vspline_p.h</text>
</a>
</g>
</g>
<!-- Node19&#45;&gt;Node30 -->
<g id="edge30" class="edge">
<title>Node19&#45;&gt;Node30</title>
<path fill="none" stroke="midnightblue" d="M2781.56,-141.42C2752.69,-129.08 2708.75,-110.31 2678.78,-97.51"/>
<polygon fill="midnightblue" stroke="midnightblue" points="2780.53,-144.79 2791.1,-145.5 2783.28,-138.35 2780.53,-144.79"/>
</g>
<!-- Node32 -->
<g id="node27" class="node">
<title>Node32</title>
<g id="a_node27"><a xlink:href="../../d9/d15/vabstractpiece_8cpp.html" target="_top" xlink:title=" ">
<polygon fill="white" stroke="black" points="2718,-73 2718,-92 2904,-92 2904,-73 2718,-73"/>
<text text-anchor="middle" x="2811" y="-80" font-family="Helvetica,sans-Serif" font-size="10.00">src/libs/vlayout/vabstractpiece.cpp</text>
</a>
</g>
</g>
<!-- Node19&#45;&gt;Node32 -->
<g id="edge31" class="edge">
<title>Node19&#45;&gt;Node32</title>
<path fill="none" stroke="midnightblue" d="M2811,-134.94C2811,-121.03 2811,-102.82 2811,-92.22"/>
<polygon fill="midnightblue" stroke="midnightblue" points="2807.5,-135.36 2811,-145.36 2814.5,-135.36 2807.5,-135.36"/>
</g>
<!-- Node33 -->
<g id="node28" class="node">
<title>Node33</title>
<g id="a_node28"><a xlink:href="../../d6/d0b/def_8cpp.html" target="_top" xlink:title=" ">
<polygon fill="white" stroke="black" points="2922,-73 2922,-92 3044,-92 3044,-73 2922,-73"/>
<text text-anchor="middle" x="2983" y="-80" font-family="Helvetica,sans-Serif" font-size="10.00">src/libs/vmisc/def.cpp</text>
</a>
</g>
</g>
<!-- Node19&#45;&gt;Node33 -->
<g id="edge34" class="edge">
<title>Node19&#45;&gt;Node33</title>
<path fill="none" stroke="midnightblue" d="M2841.37,-141.55C2876.1,-127.32 2932.05,-104.38 2962.18,-92.03"/>
<polygon fill="midnightblue" stroke="midnightblue" points="2839.67,-138.46 2831.75,-145.5 2842.33,-144.94 2839.67,-138.46"/>
</g>
<!-- Node34 -->
<g id="node29" class="node">
<title>Node34</title>
<g id="a_node29"><a xlink:href="../../db/d65/dialogexporttocsv_8cpp.html" target="_top" xlink:title=" ">
<polygon fill="white" stroke="black" points="3062.5,-67.5 3062.5,-97.5 3189.5,-97.5 3189.5,-67.5 3062.5,-67.5"/>
<text text-anchor="start" x="3070.5" y="-85.5" font-family="Helvetica,sans-Serif" font-size="10.00">src/libs/vmisc/dialogs</text>
<text text-anchor="middle" x="3126" y="-74.5" font-family="Helvetica,sans-Serif" font-size="10.00">/dialogexporttocsv.cpp</text>
</a>
</g>
</g>
<!-- Node19&#45;&gt;Node34 -->
<g id="edge35" class="edge">
<title>Node19&#45;&gt;Node34</title>
<path fill="none" stroke="midnightblue" d="M2858.78,-143.31C2913.46,-131.07 3003.2,-110.98 3063.42,-97.51"/>
<polygon fill="midnightblue" stroke="midnightblue" points="2857.99,-139.9 2849,-145.5 2859.52,-146.73 2857.99,-139.9"/>
</g>
<!-- Node35 -->
<g id="node30" class="node">
<title>Node35</title>
<g id="a_node30"><a xlink:href="../../d0/df6/vabstractapplication_8cpp.html" target="_top" xlink:title=" ">
<polygon fill="white" stroke="black" points="3208,-73 3208,-92 3414,-92 3414,-73 3208,-73"/>
<text text-anchor="middle" x="3311" y="-80" font-family="Helvetica,sans-Serif" font-size="10.00">src/libs/vmisc/vabstractapplication.cpp</text>
</a>
</g>
</g>
<!-- Node19&#45;&gt;Node35 -->
<g id="edge36" class="edge">
<title>Node19&#45;&gt;Node35</title>
<path fill="none" stroke="midnightblue" d="M2881.48,-144.06C2980.08,-130.16 3157.53,-105.14 3250.47,-92.03"/>
<polygon fill="midnightblue" stroke="midnightblue" points="2880.73,-140.63 2871.31,-145.5 2881.7,-147.57 2880.73,-140.63"/>
</g>
<!-- Node36 -->
<g id="node31" class="node">
<title>Node36</title>
<g id="a_node31"><a xlink:href="../../d4/d4f/pmsystems_8cpp.html" target="_top" xlink:title=" ">
<polygon fill="white" stroke="black" points="3432.5,-67.5 3432.5,-97.5 3539.5,-97.5 3539.5,-67.5 3432.5,-67.5"/>
<text text-anchor="start" x="3440.5" y="-85.5" font-family="Helvetica,sans-Serif" font-size="10.00">src/libs/vpatterndb</text>
<text text-anchor="middle" x="3486" y="-74.5" font-family="Helvetica,sans-Serif" font-size="10.00">/pmsystems.cpp</text>
</a>
</g>
</g>
<!-- Node19&#45;&gt;Node36 -->
<g id="edge37" class="edge">
<title>Node19&#45;&gt;Node36</title>
<path fill="none" stroke="midnightblue" d="M2918.9,-148.54C3041.6,-141.31 3247.65,-126.07 3423,-98 3426.1,-97.5 3429.28,-96.94 3432.48,-96.34"/>
<polygon fill="midnightblue" stroke="midnightblue" points="2918.54,-145.06 2908.76,-149.13 2918.94,-152.04 2918.54,-145.06"/>
</g>
<!-- Node19&#45;&gt;Node37 -->
<g id="edge38" class="edge">
<title>Node19&#45;&gt;Node37</title>
<path fill="none" stroke="midnightblue" d="M2918.74,-153.88C3101.38,-152.35 3483.03,-143.38 3802,-98 3805.11,-97.56 3808.3,-97.04 3811.5,-96.46"/>
<polygon fill="midnightblue" stroke="midnightblue" points="2918.57,-150.38 2908.6,-153.96 2918.63,-157.38 2918.57,-150.38"/>
</g>
<!-- Node19&#45;&gt;Node38 -->
<g id="edge39" class="edge">
<title>Node19&#45;&gt;Node38</title>
<path fill="none" stroke="midnightblue" d="M2918.92,-151.01C3159.65,-143.94 3734.5,-124.77 3927,-98 3930,-97.58 3933.07,-97.09 3936.16,-96.55"/>
<polygon fill="midnightblue" stroke="midnightblue" points="2918.65,-147.51 2908.75,-151.31 2918.85,-154.51 2918.65,-147.51"/>
</g>
<!-- Node39 -->
<g id="node34" class="node">
<title>Node39</title>
<g id="a_node34"><a xlink:href="../../df/dba/vpiecenode__p_8h.html" target="_top" xlink:title=" ">
<polygon fill="white" stroke="black" points="3557.5,-67.5 3557.5,-97.5 3664.5,-97.5 3664.5,-67.5 3557.5,-67.5"/>
<text text-anchor="start" x="3565.5" y="-85.5" font-family="Helvetica,sans-Serif" font-size="10.00">src/libs/vpatterndb</text>
<text text-anchor="middle" x="3611" y="-74.5" font-family="Helvetica,sans-Serif" font-size="10.00">/vpiecenode_p.h</text>
</a>
</g>
</g>
<!-- Node19&#45;&gt;Node39 -->
<g id="edge40" class="edge">
<title>Node19&#45;&gt;Node39</title>
<path fill="none" stroke="midnightblue" d="M2918.86,-150.88C3062.97,-145.56 3325.93,-131.8 3548,-98 3551.11,-97.53 3554.29,-96.98 3557.49,-96.39"/>
<polygon fill="midnightblue" stroke="midnightblue" points="2918.56,-147.39 2908.69,-151.25 2918.81,-154.38 2918.56,-147.39"/>
</g>
<!-- Node19&#45;&gt;Node41 -->
<g id="edge42" class="edge">
<title>Node19&#45;&gt;Node41</title>
<path fill="none" stroke="midnightblue" d="M2918.94,-149.7C3255.95,-136.28 4280.88,-95.45 4527.3,-85.64"/>
<polygon fill="midnightblue" stroke="midnightblue" points="2918.54,-146.21 2908.68,-150.11 2918.82,-153.21 2918.54,-146.21"/>
</g>
<!-- Node42 -->
<g id="node37" class="node">
<title>Node42</title>
<g id="a_node37"><a xlink:href="../../de/d3e/vtranslatevars_8cpp.html" target="_top" xlink:title=" ">
<polygon fill="white" stroke="black" points="3683,-67.5 3683,-97.5 3793,-97.5 3793,-67.5 3683,-67.5"/>
<text text-anchor="start" x="3691" y="-85.5" font-family="Helvetica,sans-Serif" font-size="10.00">src/libs/vpatterndb</text>
<text text-anchor="middle" x="3738" y="-74.5" font-family="Helvetica,sans-Serif" font-size="10.00">/vtranslatevars.cpp</text>
</a>
</g>
</g>
<!-- Node19&#45;&gt;Node42 -->
<g id="edge43" class="edge">
<title>Node19&#45;&gt;Node42</title>
<path fill="none" stroke="midnightblue" d="M2918.86,-152.34C3082.62,-148.61 3403.45,-136.59 3673,-98 3676.2,-97.54 3679.49,-97.01 3682.79,-96.43"/>
<polygon fill="midnightblue" stroke="midnightblue" points="2918.7,-148.84 2908.78,-152.56 2918.86,-155.84 2918.7,-148.84"/>
</g>
<!-- Node28&#45;&gt;Node29 -->
<g id="edge28" class="edge">
<title>Node28&#45;&gt;Node29</title>
<path fill="none" stroke="midnightblue" d="M2496.28,-58.87C2502.21,-49.46 2508.91,-38.83 2514.12,-30.58"/>
<polygon fill="midnightblue" stroke="midnightblue" points="2493.27,-57.07 2490.9,-67.4 2499.19,-60.81 2493.27,-57.07"/>
</g>
<!-- Node39&#45;&gt;Node40 -->
<g id="edge41" class="edge">
<title>Node39&#45;&gt;Node40</title>
<path fill="none" stroke="midnightblue" d="M3670.39,-64.71C3707.82,-54.14 3755.6,-40.63 3791.07,-30.61"/>
<polygon fill="midnightblue" stroke="midnightblue" points="3669.29,-61.39 3660.62,-67.48 3671.2,-68.12 3669.29,-61.39"/>
</g>
<!-- Node66&#45;&gt;Node4 -->
<g id="edge57" class="edge">
<title>Node66&#45;&gt;Node4</title>
<path fill="none" stroke="midnightblue" d="M4607.41,-340.17C4594.41,-330.23 4579.1,-318.51 4567.41,-309.58"/>
<polygon fill="midnightblue" stroke="midnightblue" points="4605.49,-343.1 4615.56,-346.4 4609.74,-337.54 4605.49,-343.1"/>
</g>
<!-- Node66&#45;&gt;Node41 -->
<g id="edge58" class="edge">
<title>Node66&#45;&gt;Node41</title>
<path fill="none" stroke="midnightblue" d="M4629.37,-336.28C4618.61,-280.06 4592.21,-142.1 4583.7,-97.59"/>
<polygon fill="midnightblue" stroke="midnightblue" points="4625.98,-337.22 4631.3,-346.38 4632.86,-335.9 4625.98,-337.22"/>
</g>
<!-- Node66&#45;&gt;Node67 -->
<g id="edge56" class="edge">
<title>Node66&#45;&gt;Node67</title>
<path fill="none" stroke="midnightblue" d="M4665.18,-341.02C4681.36,-330.9 4700.77,-318.77 4715.48,-309.58"/>
<polygon fill="midnightblue" stroke="midnightblue" points="4663.19,-338.13 4656.57,-346.4 4666.9,-344.06 4663.19,-338.13"/>
</g>
<!-- Node68&#45;&gt;Node4 -->
<g id="edge62" class="edge">
<title>Node68&#45;&gt;Node4</title>
<path fill="none" stroke="midnightblue" d="M4759.56,-344.21C4710.99,-332.97 4647.41,-318.26 4602.87,-307.96"/>
<polygon fill="midnightblue" stroke="midnightblue" points="4758.84,-347.63 4769.37,-346.48 4760.42,-340.81 4758.84,-347.63"/>
</g>
<!-- Node68&#45;&gt;Node41 -->
<g id="edge63" class="edge">
<title>Node68&#45;&gt;Node41</title>
<path fill="none" stroke="midnightblue" d="M4833.49,-336.12C4834.77,-319.16 4834.1,-296.55 4825,-279 4777.53,-187.44 4666.12,-124.1 4611.83,-97.53"/>
<polygon fill="midnightblue" stroke="midnightblue" points="4829.98,-336.02 4832.44,-346.33 4836.95,-336.74 4829.98,-336.02"/>
</g>
<!-- Node69 -->
<g id="node47" class="node">
<title>Node69</title>
<g id="a_node47"><a xlink:href="../../d4/dfb/varcradius_8cpp.html" target="_top" xlink:title=" ">
<polygon fill="white" stroke="black" points="4873.5,-279.5 4873.5,-309.5 5012.5,-309.5 5012.5,-279.5 4873.5,-279.5"/>
<text text-anchor="start" x="4881.5" y="-297.5" font-family="Helvetica,sans-Serif" font-size="10.00">src/libs/vpatterndb</text>
<text text-anchor="middle" x="4943" y="-286.5" font-family="Helvetica,sans-Serif" font-size="10.00">/variables/varcradius.cpp</text>
</a>
</g>
</g>
<!-- Node68&#45;&gt;Node69 -->
<g id="edge61" class="edge">
<title>Node68&#45;&gt;Node69</title>
<path fill="none" stroke="midnightblue" d="M4863.39,-341.3C4881.07,-331.12 4902.4,-318.85 4918.53,-309.58"/>
<polygon fill="midnightblue" stroke="midnightblue" points="4861.44,-338.38 4854.52,-346.4 4864.93,-344.44 4861.44,-338.38"/>
</g>
<!-- Node70&#45;&gt;Node4 -->
<g id="edge66" class="edge">
<title>Node70&#45;&gt;Node4</title>
<path fill="none" stroke="midnightblue" d="M4901.76,-345.83C4789.22,-327.64 4759.25,-325.61 4650,-310 4634.66,-307.81 4618,-305.42 4602.73,-303.23"/>
<polygon fill="midnightblue" stroke="midnightblue" points="4901.38,-349.32 4911.81,-347.47 4902.5,-342.41 4901.38,-349.32"/>
</g>
<!-- Node70&#45;&gt;Node41 -->
<g id="edge67" class="edge">
<title>Node70&#45;&gt;Node41</title>
<path fill="none" stroke="midnightblue" d="M5004.82,-338.82C5019.66,-322 5034.18,-298.38 5022,-279 4936.68,-143.2 4732.24,-101.17 4634.63,-88.62"/>
<polygon fill="midnightblue" stroke="midnightblue" points="5001.93,-336.79 4997.63,-346.47 5007.03,-341.58 5001.93,-336.79"/>
</g>
<!-- Node70&#45;&gt;Node71 -->
<g id="edge65" class="edge">
<title>Node70&#45;&gt;Node71</title>
<path fill="none" stroke="midnightblue" d="M5026.68,-342.68C5052.83,-332.26 5085.37,-319.28 5109.7,-309.58"/>
<polygon fill="midnightblue" stroke="midnightblue" points="5025.36,-339.44 5017.37,-346.4 5027.95,-345.94 5025.36,-339.44"/>
</g>
</g>
</svg>
