<?xml version="1.0" encoding="UTF-8" standalone="no"?>
<!DOCTYPE svg PUBLIC "-//W3C//DTD SVG 1.1//EN"
 "http://www.w3.org/Graphics/SVG/1.1/DTD/svg11.dtd">
<!-- Generated by graphviz version 2.43.0 (0)
 -->
<!-- Title: src/libs/ifc/xml/vdomdocument.h Pages: 1 -->
<!--zoomable 296 -->
<svg id="main" version="1.1" xmlns="http://www.w3.org/2000/svg" xmlns:xlink="http://www.w3.org/1999/xlink" xml:space="preserve" onload="init(evt)">
<style type="text/css"><![CDATA[
.edge:hover path { stroke: red; }
.edge:hover polygon { stroke: red; fill: red; }
]]></style>
<script type="text/javascript"><![CDATA[
var edges = document.getElementsByTagName('g');
if (edges && edges.length) {
  for (var i=0;i<edges.length;i++) {
    if (edges[i].id.substr(0,4)=='edge') {
      edges[i].setAttribute('class','edge');
    }
  }
}
]]></script>
        <defs>
                <circle id="rim" cx="0" cy="0" r="7"/>
                <circle id="rim2" cx="0" cy="0" r="3.5"/>
                <g id="zoomPlus">
                        <use xlink:href="#rim" fill="#404040">
                                <set attributeName="fill" to="#808080" begin="zoomplus.mouseover" end="zoomplus.mouseout"/>
                        </use>
                        <path d="M-4,0h8M0,-4v8" fill="none" stroke="white" stroke-width="1.5" pointer-events="none"/>
                </g>
                <g id="zoomMin">
                        <use xlink:href="#rim" fill="#404040">
                                <set attributeName="fill" to="#808080" begin="zoomminus.mouseover" end="zoomminus.mouseout"/>
                        </use>
                        <path d="M-4,0h8" fill="none" stroke="white" stroke-width="1.5" pointer-events="none"/>
                </g>
                <g id="dirArrow">
                        <path fill="none" stroke="white" stroke-width="1.5" d="M0,-3.0v7 M-2.5,-0.5L0,-3.0L2.5,-0.5"/>
                </g>
               <g id="resetDef">
                       <use xlink:href="#rim2" fill="#404040">
                               <set attributeName="fill" to="#808080" begin="reset.mouseover" end="reset.mouseout"/>
                       </use>
               </g>
        </defs>

<script type="text/javascript">
var viewWidth = 3051;
var viewHeight = 296;
var sectionId = 'dynsection-1';
</script>
<script xlink:href="../../svgpan.js"/>
<svg id="graph" class="graph">
<g id="viewport">
<title>src/libs/ifc/xml/vdomdocument.h</title>
<polygon fill="white" stroke="transparent" points="-4,4 -4,-292 3047,-292 3047,4 -4,4"/>
<!-- Node1 -->
<g id="node1" class="node">
<title>Node1</title>
<g id="a_node1"><a xlink:title=" ">
<polygon fill="#bfbfbf" stroke="black" points="1113.5,-268.5 1113.5,-287.5 1289.5,-287.5 1289.5,-268.5 1113.5,-268.5"/>
<text text-anchor="middle" x="1201.5" y="-275.5" font-family="Helvetica,sans-Serif" font-size="10.00">src/libs/ifc/xml/vdomdocument.h</text>
</a>
</g>
</g>
<!-- Node2 -->
<g id="node2" class="node">
<title>Node2</title>
<g id="a_node2"><a xlink:href="../../d0/da1/abstract__converter_8h.html" target="_top" xlink:title=" ">
<polygon fill="white" stroke="black" points="436,-201.5 436,-231.5 567,-231.5 567,-201.5 436,-201.5"/>
<text text-anchor="start" x="444" y="-219.5" font-family="Helvetica,sans-Serif" font-size="10.00">src/libs/ifc/xml/abstract</text>
<text text-anchor="middle" x="501.5" y="-208.5" font-family="Helvetica,sans-Serif" font-size="10.00">_converter.h</text>
</a>
</g>
</g>
<!-- Node1&#45;&gt;Node2 -->
<g id="edge1" class="edge">
<title>Node1&#45;&gt;Node2</title>
<path fill="none" stroke="midnightblue" d="M1102.97,-268.62C957.86,-256.29 690.59,-233.57 567.15,-223.08"/>
<polygon fill="midnightblue" stroke="midnightblue" points="1102.94,-272.13 1113.2,-269.49 1103.53,-265.16 1102.94,-272.13"/>
</g>
<!-- Node3 -->
<g id="node3" class="node">
<title>Node3</title>
<g id="a_node3"><a xlink:href="../../d0/d08/abstract__converter_8cpp.html" target="_top" xlink:title=" ">
<polygon fill="white" stroke="black" points="33,-134.5 33,-164.5 164,-164.5 164,-134.5 33,-134.5"/>
<text text-anchor="start" x="41" y="-152.5" font-family="Helvetica,sans-Serif" font-size="10.00">src/libs/ifc/xml/abstract</text>
<text text-anchor="middle" x="98.5" y="-141.5" font-family="Helvetica,sans-Serif" font-size="10.00">_converter.cpp</text>
</a>
</g>
</g>
<!-- Node1&#45;&gt;Node3 -->
<g id="edge24" class="edge">
<title>Node1&#45;&gt;Node3</title>
<path fill="none" stroke="midnightblue" d="M1103.09,-277.11C955.33,-275.97 667.72,-268.65 426.5,-232 323.82,-216.4 206.33,-183.41 143.59,-164.54"/>
<polygon fill="midnightblue" stroke="midnightblue" points="1103.47,-280.61 1113.49,-277.18 1103.51,-273.61 1103.47,-280.61"/>
</g>
<!-- Node16 -->
<g id="node16" class="node">
<title>Node16</title>
<g id="a_node16"><a xlink:href="../../de/d7d/vabstractpattern_8cpp.html" target="_top" xlink:title=" ">
<polygon fill="white" stroke="black" points="1229.5,-73 1229.5,-92 1421.5,-92 1421.5,-73 1229.5,-73"/>
<text text-anchor="middle" x="1325.5" y="-80" font-family="Helvetica,sans-Serif" font-size="10.00">src/libs/ifc/xml/vabstractpattern.cpp</text>
</a>
</g>
</g>
<!-- Node1&#45;&gt;Node16 -->
<g id="edge46" class="edge">
<title>Node1&#45;&gt;Node16</title>
<path fill="none" stroke="midnightblue" d="M1250.37,-265C1268.39,-258.19 1287.35,-247.76 1299.5,-232 1332.9,-188.68 1329.09,-117.12 1326.57,-92.3"/>
<polygon fill="midnightblue" stroke="midnightblue" points="1248.81,-261.84 1240.51,-268.42 1251.1,-268.45 1248.81,-261.84"/>
</g>
<!-- Node18 -->
<g id="node18" class="node">
<title>Node18</title>
<g id="a_node18"><a xlink:href="../../d0/d89/vabstractpattern_8h.html" target="_top" xlink:title=" ">
<polygon fill="white" stroke="black" points="1740,-207 1740,-226 1921,-226 1921,-207 1740,-207"/>
<text text-anchor="middle" x="1830.5" y="-214" font-family="Helvetica,sans-Serif" font-size="10.00">src/libs/ifc/xml/vabstractpattern.h</text>
</a>
</g>
</g>
<!-- Node1&#45;&gt;Node18 -->
<g id="edge25" class="edge">
<title>Node1&#45;&gt;Node18</title>
<path fill="none" stroke="midnightblue" d="M1299.6,-267.72C1420.3,-256.3 1623.54,-237.08 1740.43,-226.02"/>
<polygon fill="midnightblue" stroke="midnightblue" points="1299.25,-264.24 1289.62,-268.66 1299.91,-271.21 1299.25,-264.24"/>
</g>
<!-- Node36 -->
<g id="node36" class="node">
<title>Node36</title>
<g id="a_node36"><a xlink:href="../../d7/d49/vdomdocument_8cpp.html" target="_top" xlink:title=" ">
<polygon fill="white" stroke="black" points="1939.5,-207 1939.5,-226 2127.5,-226 2127.5,-207 1939.5,-207"/>
<text text-anchor="middle" x="2033.5" y="-214" font-family="Helvetica,sans-Serif" font-size="10.00">src/libs/ifc/xml/vdomdocument.cpp</text>
</a>
</g>
</g>
<!-- Node1&#45;&gt;Node36 -->
<g id="edge47" class="edge">
<title>Node1&#45;&gt;Node36</title>
<path fill="none" stroke="midnightblue" d="M1299.93,-273.32C1440.02,-267.53 1704.86,-254.57 1929.5,-232 1945.37,-230.41 1962.54,-228.21 1978.27,-226"/>
<polygon fill="midnightblue" stroke="midnightblue" points="1299.49,-269.83 1289.64,-273.74 1299.78,-276.83 1299.49,-269.83"/>
</g>
<!-- Node37 -->
<g id="node37" class="node">
<title>Node37</title>
<g id="a_node37"><a xlink:href="../../dc/db7/measurements_8h.html" target="_top" xlink:title=" ">
<polygon fill="white" stroke="black" points="1112,-207 1112,-226 1291,-226 1291,-207 1112,-207"/>
<text text-anchor="middle" x="1201.5" y="-214" font-family="Helvetica,sans-Serif" font-size="10.00">src/libs/vformat/measurements.h</text>
</a>
</g>
</g>
<!-- Node1&#45;&gt;Node37 -->
<g id="edge48" class="edge">
<title>Node1&#45;&gt;Node37</title>
<path fill="none" stroke="midnightblue" d="M1201.5,-258.32C1201.5,-247.5 1201.5,-234.4 1201.5,-226.01"/>
<polygon fill="midnightblue" stroke="midnightblue" points="1198,-258.48 1201.5,-268.48 1205,-258.48 1198,-258.48"/>
</g>
<!-- Node38 -->
<g id="node38" class="node">
<title>Node38</title>
<g id="a_node38"><a xlink:href="../../d2/d8a/vlabeltemplate_8h.html" target="_top" xlink:title=" ">
<polygon fill="white" stroke="black" points="863,-207 863,-226 1042,-226 1042,-207 863,-207"/>
<text text-anchor="middle" x="952.5" y="-214" font-family="Helvetica,sans-Serif" font-size="10.00">src/libs/vformat/vlabeltemplate.h</text>
</a>
</g>
</g>
<!-- Node1&#45;&gt;Node38 -->
<g id="edge50" class="edge">
<title>Node1&#45;&gt;Node38</title>
<path fill="none" stroke="midnightblue" d="M1155.94,-266.11C1107.61,-254.57 1032.27,-236.56 988.11,-226.01"/>
<polygon fill="midnightblue" stroke="midnightblue" points="1155.28,-269.56 1165.82,-268.48 1156.91,-262.75 1155.28,-269.56"/>
</g>
<!-- Node2&#45;&gt;Node3 -->
<g id="edge2" class="edge">
<title>Node2&#45;&gt;Node3</title>
<path fill="none" stroke="midnightblue" d="M425.61,-204.17C360.1,-194.25 262.97,-179.26 178.5,-165 173.91,-164.22 169.17,-163.41 164.4,-162.57"/>
<polygon fill="midnightblue" stroke="midnightblue" points="425.44,-207.68 435.85,-205.71 426.48,-200.76 425.44,-207.68"/>
</g>
<!-- Node4 -->
<g id="node4" class="node">
<title>Node4</title>
<g id="a_node4"><a xlink:href="../../da/d2c/abstract__m__converter_8h.html" target="_top" xlink:title=" ">
<polygon fill="white" stroke="black" points="221,-134.5 221,-164.5 352,-164.5 352,-134.5 221,-134.5"/>
<text text-anchor="start" x="229" y="-152.5" font-family="Helvetica,sans-Serif" font-size="10.00">src/libs/ifc/xml/abstract</text>
<text text-anchor="middle" x="286.5" y="-141.5" font-family="Helvetica,sans-Serif" font-size="10.00">_m_converter.h</text>
</a>
</g>
</g>
<!-- Node2&#45;&gt;Node4 -->
<g id="edge3" class="edge">
<title>Node2&#45;&gt;Node4</title>
<path fill="none" stroke="midnightblue" d="M445.53,-198.58C410.61,-188.02 366.19,-174.59 333.17,-164.61"/>
<polygon fill="midnightblue" stroke="midnightblue" points="444.53,-201.93 455.11,-201.48 446.55,-195.23 444.53,-201.93"/>
</g>
<!-- Node5 -->
<g id="node5" class="node">
<title>Node5</title>
<g id="a_node5"><a xlink:href="../../de/dec/abstract__m__converter_8cpp.html" target="_top" xlink:title=" ">
<polygon fill="white" stroke="black" points="0,-67.5 0,-97.5 131,-97.5 131,-67.5 0,-67.5"/>
<text text-anchor="start" x="8" y="-85.5" font-family="Helvetica,sans-Serif" font-size="10.00">src/libs/ifc/xml/abstract</text>
<text text-anchor="middle" x="65.5" y="-74.5" font-family="Helvetica,sans-Serif" font-size="10.00">_m_converter.cpp</text>
</a>
</g>
</g>
<!-- Node2&#45;&gt;Node5 -->
<g id="edge13" class="edge">
<title>Node2&#45;&gt;Node5</title>
<path fill="none" stroke="midnightblue" d="M425.53,-212.54C365.2,-207.81 279.92,-195.72 211.5,-165 191.3,-155.93 191.3,-145.69 172.5,-134 149.65,-119.79 122.17,-106.9 100.77,-97.7"/>
<polygon fill="midnightblue" stroke="midnightblue" points="425.51,-216.05 435.74,-213.29 426.02,-209.07 425.51,-216.05"/>
</g>
<!-- Node6 -->
<g id="node6" class="node">
<title>Node6</title>
<g id="a_node6"><a xlink:href="../../d0/d93/individual__size__converter_8h.html" target="_top" xlink:title=" ">
<polygon fill="white" stroke="black" points="360,-67.5 360,-97.5 499,-97.5 499,-67.5 360,-67.5"/>
<text text-anchor="start" x="368" y="-85.5" font-family="Helvetica,sans-Serif" font-size="10.00">src/libs/ifc/xml/individual</text>
<text text-anchor="middle" x="429.5" y="-74.5" font-family="Helvetica,sans-Serif" font-size="10.00">_size_converter.h</text>
</a>
</g>
</g>
<!-- Node2&#45;&gt;Node6 -->
<g id="edge14" class="edge">
<title>Node2&#45;&gt;Node6</title>
<path fill="none" stroke="midnightblue" d="M476.75,-194.03C468.37,-185.69 459.61,-175.59 453.5,-165 440.97,-143.28 434.5,-114.47 431.56,-97.56"/>
<polygon fill="midnightblue" stroke="midnightblue" points="474.58,-196.81 484.24,-201.17 479.41,-191.74 474.58,-196.81"/>
</g>
<!-- Node9 -->
<g id="node9" class="node">
<title>Node9</title>
<g id="a_node9"><a xlink:href="../../d5/d4c/multi__size__converter_8h.html" target="_top" xlink:title=" ">
<polygon fill="white" stroke="black" points="225.5,-67.5 225.5,-97.5 341.5,-97.5 341.5,-67.5 225.5,-67.5"/>
<text text-anchor="start" x="233.5" y="-85.5" font-family="Helvetica,sans-Serif" font-size="10.00">src/libs/ifc/xml/multi</text>
<text text-anchor="middle" x="283.5" y="-74.5" font-family="Helvetica,sans-Serif" font-size="10.00">_size_converter.h</text>
</a>
</g>
</g>
<!-- Node2&#45;&gt;Node9 -->
<g id="edge15" class="edge">
<title>Node2&#45;&gt;Node9</title>
<path fill="none" stroke="midnightblue" d="M469.51,-196.13C425.1,-169.24 345.8,-121.22 306.66,-97.52"/>
<polygon fill="midnightblue" stroke="midnightblue" points="467.8,-199.19 478.17,-201.37 471.43,-193.2 467.8,-199.19"/>
</g>
<!-- Node11 -->
<g id="node11" class="node">
<title>Node11</title>
<g id="a_node11"><a xlink:href="../../d5/d35/vlabeltemplateconverter_8h.html" target="_top" xlink:title=" ">
<polygon fill="white" stroke="black" points="462.5,-140 462.5,-159 682.5,-159 682.5,-140 462.5,-140"/>
<text text-anchor="middle" x="572.5" y="-147" font-family="Helvetica,sans-Serif" font-size="10.00">src/libs/ifc/xml/vlabeltemplateconverter.h</text>
</a>
</g>
</g>
<!-- Node2&#45;&gt;Node11 -->
<g id="edge16" class="edge">
<title>Node2&#45;&gt;Node11</title>
<path fill="none" stroke="midnightblue" d="M524.62,-194.34C537.65,-182.4 553.24,-168.14 563,-159.19"/>
<polygon fill="midnightblue" stroke="midnightblue" points="521.92,-192.06 516.91,-201.4 526.65,-197.22 521.92,-192.06"/>
</g>
<!-- Node14 -->
<g id="node14" class="node">
<title>Node14</title>
<g id="a_node14"><a xlink:href="../../d5/d2c/vpatternconverter_8cpp.html" target="_top" xlink:title=" ">
<polygon fill="white" stroke="black" points="975.5,-73 975.5,-92 1173.5,-92 1173.5,-73 975.5,-73"/>
<text text-anchor="middle" x="1074.5" y="-80" font-family="Helvetica,sans-Serif" font-size="10.00">src/libs/ifc/xml/vpatternconverter.cpp</text>
</a>
</g>
</g>
<!-- Node2&#45;&gt;Node14 -->
<g id="edge19" class="edge">
<title>Node2&#45;&gt;Node14</title>
<path fill="none" stroke="midnightblue" d="M577.39,-209.95C651.12,-203.37 765.8,-190 862.5,-165 936.75,-145.8 1020.55,-108.73 1056.53,-92.03"/>
<polygon fill="midnightblue" stroke="midnightblue" points="576.92,-206.47 567.26,-210.83 577.53,-213.45 576.92,-206.47"/>
</g>
<!-- Node15 -->
<g id="node15" class="node">
<title>Node15</title>
<g id="a_node15"><a xlink:href="../../df/d2f/vpatternconverter_8h.html" target="_top" xlink:title=" ">
<polygon fill="white" stroke="black" points="981,-140 981,-159 1168,-159 1168,-140 981,-140"/>
<text text-anchor="middle" x="1074.5" y="-147" font-family="Helvetica,sans-Serif" font-size="10.00">src/libs/ifc/xml/vpatternconverter.h</text>
</a>
</g>
</g>
<!-- Node2&#45;&gt;Node15 -->
<g id="edge20" class="edge">
<title>Node2&#45;&gt;Node15</title>
<path fill="none" stroke="midnightblue" d="M577.19,-207.67C668.57,-198.11 826.88,-181.21 962.5,-165 977.98,-163.15 994.64,-161.05 1010.27,-159.04"/>
<polygon fill="midnightblue" stroke="midnightblue" points="576.78,-204.19 567.2,-208.71 577.51,-211.15 576.78,-204.19"/>
</g>
<!-- Node17 -->
<g id="node17" class="node">
<title>Node17</title>
<g id="a_node17"><a xlink:href="../../d4/d90/fvupdater_8cpp.html" target="_top" xlink:title=" ">
<polygon fill="white" stroke="black" points="701,-140 701,-159 854,-159 854,-140 701,-140"/>
<text text-anchor="middle" x="777.5" y="-147" font-family="Helvetica,sans-Serif" font-size="10.00">src/libs/fervor/fvupdater.cpp</text>
</a>
</g>
</g>
<!-- Node2&#45;&gt;Node17 -->
<g id="edge23" class="edge">
<title>Node2&#45;&gt;Node17</title>
<path fill="none" stroke="midnightblue" d="M570.93,-199.15C625.09,-186.39 698.14,-169.19 741.29,-159.03"/>
<polygon fill="midnightblue" stroke="midnightblue" points="569.98,-195.78 561.05,-201.48 571.58,-202.59 569.98,-195.78"/>
</g>
<!-- Node4&#45;&gt;Node5 -->
<g id="edge4" class="edge">
<title>Node4&#45;&gt;Node5</title>
<path fill="none" stroke="midnightblue" d="M228.97,-131.58C193.08,-121.02 147.41,-107.59 113.48,-97.61"/>
<polygon fill="midnightblue" stroke="midnightblue" points="228.24,-135.01 238.82,-134.48 230.21,-128.3 228.24,-135.01"/>
</g>
<!-- Node4&#45;&gt;Node6 -->
<g id="edge5" class="edge">
<title>Node4&#45;&gt;Node6</title>
<path fill="none" stroke="midnightblue" d="M326.91,-130.13C349.63,-119.8 377.56,-107.11 398.53,-97.58"/>
<polygon fill="midnightblue" stroke="midnightblue" points="325.18,-127.07 317.53,-134.4 328.08,-133.44 325.18,-127.07"/>
</g>
<!-- Node7 -->
<g id="node7" class="node">
<title>Node7</title>
<g id="a_node7"><a xlink:href="../../d5/d6e/individual__size__converter_8cpp.html" target="_top" xlink:title=" ">
<polygon fill="white" stroke="black" points="236,-0.5 236,-30.5 375,-30.5 375,-0.5 236,-0.5"/>
<text text-anchor="start" x="244" y="-18.5" font-family="Helvetica,sans-Serif" font-size="10.00">src/libs/ifc/xml/individual</text>
<text text-anchor="middle" x="305.5" y="-7.5" font-family="Helvetica,sans-Serif" font-size="10.00">_size_converter.cpp</text>
</a>
</g>
</g>
<!-- Node4&#45;&gt;Node7 -->
<g id="edge8" class="edge">
<title>Node4&#45;&gt;Node7</title>
<path fill="none" stroke="midnightblue" d="M246.53,-129.12C234.67,-121.23 223.09,-110.88 216.5,-98 210.22,-85.73 209.57,-78.91 216.5,-67 226.33,-50.11 244.15,-38.41 261.27,-30.56"/>
<polygon fill="midnightblue" stroke="midnightblue" points="244.81,-132.17 255.16,-134.44 248.48,-126.21 244.81,-132.17"/>
</g>
<!-- Node4&#45;&gt;Node9 -->
<g id="edge9" class="edge">
<title>Node4&#45;&gt;Node9</title>
<path fill="none" stroke="midnightblue" d="M285.39,-124.4C284.97,-115.37 284.51,-105.41 284.15,-97.58"/>
<polygon fill="midnightblue" stroke="midnightblue" points="281.89,-124.57 285.85,-134.4 288.88,-124.25 281.89,-124.57"/>
</g>
<!-- Node10 -->
<g id="node10" class="node">
<title>Node10</title>
<g id="a_node10"><a xlink:href="../../d9/d94/multi__size__converter_8cpp.html" target="_top" xlink:title=" ">
<polygon fill="white" stroke="black" points="101.5,-0.5 101.5,-30.5 217.5,-30.5 217.5,-0.5 101.5,-0.5"/>
<text text-anchor="start" x="109.5" y="-18.5" font-family="Helvetica,sans-Serif" font-size="10.00">src/libs/ifc/xml/multi</text>
<text text-anchor="middle" x="159.5" y="-7.5" font-family="Helvetica,sans-Serif" font-size="10.00">_size_converter.cpp</text>
</a>
</g>
</g>
<!-- Node4&#45;&gt;Node10 -->
<g id="edge12" class="edge">
<title>Node4&#45;&gt;Node10</title>
<path fill="none" stroke="midnightblue" d="M249.39,-129.23C235.51,-120.86 220.28,-110.17 208.5,-98 188.87,-77.71 173.6,-48.16 165.63,-30.78"/>
<polygon fill="midnightblue" stroke="midnightblue" points="247.86,-132.38 258.27,-134.38 251.38,-126.33 247.86,-132.38"/>
</g>
<!-- Node6&#45;&gt;Node7 -->
<g id="edge6" class="edge">
<title>Node6&#45;&gt;Node7</title>
<path fill="none" stroke="midnightblue" d="M393.66,-62.71C374.11,-52.46 350.3,-39.98 332.35,-30.58"/>
<polygon fill="midnightblue" stroke="midnightblue" points="392.11,-65.85 402.59,-67.4 395.36,-59.65 392.11,-65.85"/>
</g>
<!-- Node8 -->
<g id="node8" class="node">
<title>Node8</title>
<g id="a_node8"><a xlink:href="../../d9/de3/measurements_8cpp.html" target="_top" xlink:title=" ">
<polygon fill="white" stroke="black" points="393.5,-6 393.5,-25 583.5,-25 583.5,-6 393.5,-6"/>
<text text-anchor="middle" x="488.5" y="-13" font-family="Helvetica,sans-Serif" font-size="10.00">src/libs/vformat/measurements.cpp</text>
</a>
</g>
</g>
<!-- Node6&#45;&gt;Node8 -->
<g id="edge7" class="edge">
<title>Node6&#45;&gt;Node8</title>
<path fill="none" stroke="midnightblue" d="M449.33,-59.66C460.03,-47.86 472.65,-33.97 480.61,-25.19"/>
<polygon fill="midnightblue" stroke="midnightblue" points="446.43,-57.64 442.3,-67.4 451.61,-62.34 446.43,-57.64"/>
</g>
<!-- Node9&#45;&gt;Node8 -->
<g id="edge11" class="edge">
<title>Node9&#45;&gt;Node8</title>
<path fill="none" stroke="midnightblue" d="M337.34,-64.43C377.31,-51.75 430.15,-35 461.6,-25.03"/>
<polygon fill="midnightblue" stroke="midnightblue" points="336.2,-61.12 327.73,-67.48 338.32,-67.79 336.2,-61.12"/>
</g>
<!-- Node9&#45;&gt;Node10 -->
<g id="edge10" class="edge">
<title>Node9&#45;&gt;Node10</title>
<path fill="none" stroke="midnightblue" d="M247.66,-62.71C228.11,-52.46 204.3,-39.98 186.35,-30.58"/>
<polygon fill="midnightblue" stroke="midnightblue" points="246.11,-65.85 256.59,-67.4 249.36,-59.65 246.11,-65.85"/>
</g>
<!-- Node12 -->
<g id="node12" class="node">
<title>Node12</title>
<g id="a_node12"><a xlink:href="../../d7/d63/vlabeltemplateconverter_8cpp.html" target="_top" xlink:title=" ">
<polygon fill="white" stroke="black" points="517,-73 517,-92 748,-92 748,-73 517,-73"/>
<text text-anchor="middle" x="632.5" y="-80" font-family="Helvetica,sans-Serif" font-size="10.00">src/libs/ifc/xml/vlabeltemplateconverter.cpp</text>
</a>
</g>
</g>
<!-- Node11&#45;&gt;Node12 -->
<g id="edge17" class="edge">
<title>Node11&#45;&gt;Node12</title>
<path fill="none" stroke="midnightblue" d="M587.61,-132.13C599.34,-119.42 615.15,-102.3 624.54,-92.13"/>
<polygon fill="midnightblue" stroke="midnightblue" points="584.8,-130.01 580.59,-139.73 589.95,-134.76 584.8,-130.01"/>
</g>
<!-- Node13 -->
<g id="node13" class="node">
<title>Node13</title>
<g id="a_node13"><a xlink:href="../../d9/daf/vlabeltemplate_8cpp.html" target="_top" xlink:title=" ">
<polygon fill="white" stroke="black" points="766,-73 766,-92 957,-92 957,-73 766,-73"/>
<text text-anchor="middle" x="861.5" y="-80" font-family="Helvetica,sans-Serif" font-size="10.00">src/libs/vformat/vlabeltemplate.cpp</text>
</a>
</g>
</g>
<!-- Node11&#45;&gt;Node13 -->
<g id="edge18" class="edge">
<title>Node11&#45;&gt;Node13</title>
<path fill="none" stroke="midnightblue" d="M620.41,-137.72C677.32,-124.92 771.09,-103.83 823.34,-92.08"/>
<polygon fill="midnightblue" stroke="midnightblue" points="619.57,-134.33 610.58,-139.94 621.1,-141.16 619.57,-134.33"/>
</g>
<!-- Node15&#45;&gt;Node14 -->
<g id="edge22" class="edge">
<title>Node15&#45;&gt;Node14</title>
<path fill="none" stroke="midnightblue" d="M1074.5,-129.54C1074.5,-117.17 1074.5,-101.62 1074.5,-92.13"/>
<polygon fill="midnightblue" stroke="midnightblue" points="1071,-129.73 1074.5,-139.73 1078,-129.73 1071,-129.73"/>
</g>
<!-- Node15&#45;&gt;Node16 -->
<g id="edge21" class="edge">
<title>Node15&#45;&gt;Node16</title>
<path fill="none" stroke="midnightblue" d="M1117.35,-137.4C1166.88,-124.58 1247.36,-103.74 1292.35,-92.08"/>
<polygon fill="midnightblue" stroke="midnightblue" points="1116.38,-134.04 1107.57,-139.94 1118.13,-140.82 1116.38,-134.04"/>
</g>
<!-- Node18&#45;&gt;Node16 -->
<g id="edge26" class="edge">
<title>Node18&#45;&gt;Node16</title>
<path fill="none" stroke="midnightblue" d="M1756.72,-205.49C1700.26,-197.02 1620.77,-183.32 1552.5,-165 1474.45,-144.05 1385.06,-108.37 1345.8,-92.07"/>
<polygon fill="midnightblue" stroke="midnightblue" points="1756.22,-208.96 1766.63,-206.96 1757.25,-202.03 1756.22,-208.96"/>
</g>
<!-- Node19 -->
<g id="node19" class="node">
<title>Node19</title>
<g id="a_node19"><a xlink:href="../../d6/de0/vlayoutpiece_8h.html" target="_top" xlink:title=" ">
<polygon fill="white" stroke="black" points="1968.5,-140 1968.5,-159 2134.5,-159 2134.5,-140 1968.5,-140"/>
<text text-anchor="middle" x="2051.5" y="-147" font-family="Helvetica,sans-Serif" font-size="10.00">src/libs/vlayout/vlayoutpiece.h</text>
</a>
</g>
</g>
<!-- Node18&#45;&gt;Node19 -->
<g id="edge27" class="edge">
<title>Node18&#45;&gt;Node19</title>
<path fill="none" stroke="midnightblue" d="M1869.57,-204.01C1913.31,-191.15 1983.18,-170.59 2022.38,-159.06"/>
<polygon fill="midnightblue" stroke="midnightblue" points="1868.45,-200.69 1859.85,-206.87 1870.43,-207.4 1868.45,-200.69"/>
</g>
<!-- Node29 -->
<g id="node29" class="node">
<title>Node29</title>
<g id="a_node29"><a xlink:href="../../d8/d70/vtextmanager_8cpp.html" target="_top" xlink:title=" ">
<polygon fill="white" stroke="black" points="2152.5,-140 2152.5,-159 2334.5,-159 2334.5,-140 2152.5,-140"/>
<text text-anchor="middle" x="2243.5" y="-147" font-family="Helvetica,sans-Serif" font-size="10.00">src/libs/vlayout/vtextmanager.cpp</text>
</a>
</g>
</g>
<!-- Node18&#45;&gt;Node29 -->
<g id="edge39" class="edge">
<title>Node18&#45;&gt;Node29</title>
<path fill="none" stroke="midnightblue" d="M1894.99,-205.35C1975.97,-192.6 2113.47,-170.96 2189.29,-159.03"/>
<polygon fill="midnightblue" stroke="midnightblue" points="1894.25,-201.92 1884.92,-206.94 1895.34,-208.84 1894.25,-201.92"/>
</g>
<!-- Node30 -->
<g id="node30" class="node">
<title>Node30</title>
<g id="a_node30"><a xlink:href="../../d0/da5/export__format__combobox_8h.html" target="_top" xlink:title=" ">
<polygon fill="white" stroke="black" points="2353,-134.5 2353,-164.5 2486,-164.5 2486,-134.5 2353,-134.5"/>
<text text-anchor="start" x="2361" y="-152.5" font-family="Helvetica,sans-Serif" font-size="10.00">src/libs/vwidgets/export</text>
<text text-anchor="middle" x="2419.5" y="-141.5" font-family="Helvetica,sans-Serif" font-size="10.00">_format_combobox.h</text>
</a>
</g>
</g>
<!-- Node18&#45;&gt;Node30 -->
<g id="edge40" class="edge">
<title>Node18&#45;&gt;Node30</title>
<path fill="none" stroke="midnightblue" d="M1895.33,-205.55C1907.02,-203.91 1919.11,-202.32 1930.5,-201 2113.52,-179.77 2160.99,-190.3 2343.5,-165 2346.56,-164.58 2349.68,-164.11 2352.84,-163.62"/>
<polygon fill="midnightblue" stroke="midnightblue" points="1894.59,-202.12 1885.18,-207 1895.58,-209.05 1894.59,-202.12"/>
</g>
<!-- Node32 -->
<g id="node32" class="node">
<title>Node32</title>
<g id="a_node32"><a xlink:href="../../d7/df4/group__tablewidgetitem_8cpp.html" target="_top" xlink:title=" ">
<polygon fill="white" stroke="black" points="2504,-134.5 2504,-164.5 2633,-164.5 2633,-134.5 2504,-134.5"/>
<text text-anchor="start" x="2512" y="-152.5" font-family="Helvetica,sans-Serif" font-size="10.00">src/libs/vwidgets/group</text>
<text text-anchor="middle" x="2568.5" y="-141.5" font-family="Helvetica,sans-Serif" font-size="10.00">_tablewidgetitem.cpp</text>
</a>
</g>
</g>
<!-- Node18&#45;&gt;Node32 -->
<g id="edge42" class="edge">
<title>Node18&#45;&gt;Node32</title>
<path fill="none" stroke="midnightblue" d="M1893.69,-205.55C1905.88,-203.86 1918.57,-202.24 1930.5,-201 2180.77,-174.93 2246,-197.58 2495.5,-165 2498.19,-164.65 2500.93,-164.26 2503.69,-163.84"/>
<polygon fill="midnightblue" stroke="midnightblue" points="1893,-202.12 1883.6,-206.99 1893.99,-209.05 1893,-202.12"/>
</g>
<!-- Node33 -->
<g id="node33" class="node">
<title>Node33</title>
<g id="a_node33"><a xlink:href="../../d3/d86/page__format__combobox_8h.html" target="_top" xlink:title=" ">
<polygon fill="white" stroke="black" points="1768,-134.5 1768,-164.5 1893,-164.5 1893,-134.5 1768,-134.5"/>
<text text-anchor="start" x="1776" y="-152.5" font-family="Helvetica,sans-Serif" font-size="10.00">src/libs/vwidgets/page</text>
<text text-anchor="middle" x="1830.5" y="-141.5" font-family="Helvetica,sans-Serif" font-size="10.00">_format_combobox.h</text>
</a>
</g>
</g>
<!-- Node18&#45;&gt;Node33 -->
<g id="edge43" class="edge">
<title>Node18&#45;&gt;Node33</title>
<path fill="none" stroke="midnightblue" d="M1830.5,-196.41C1830.5,-186.22 1830.5,-173.9 1830.5,-164.59"/>
<polygon fill="midnightblue" stroke="midnightblue" points="1827,-196.73 1830.5,-206.73 1834,-196.73 1827,-196.73"/>
</g>
<!-- Node35 -->
<g id="node35" class="node">
<title>Node35</title>
<g id="a_node35"><a xlink:href="../../de/d22/vsimplecurve_8cpp.html" target="_top" xlink:title=" ">
<polygon fill="white" stroke="black" points="1561.5,-140 1561.5,-159 1749.5,-159 1749.5,-140 1561.5,-140"/>
<text text-anchor="middle" x="1655.5" y="-147" font-family="Helvetica,sans-Serif" font-size="10.00">src/libs/vwidgets/vsimplecurve.cpp</text>
</a>
</g>
</g>
<!-- Node18&#45;&gt;Node35 -->
<g id="edge45" class="edge">
<title>Node18&#45;&gt;Node35</title>
<path fill="none" stroke="midnightblue" d="M1797.57,-203.27C1762.84,-190.37 1709.01,-170.38 1678.56,-159.06"/>
<polygon fill="midnightblue" stroke="midnightblue" points="1796.67,-206.67 1807.26,-206.87 1799.11,-200.11 1796.67,-206.67"/>
</g>
<!-- Node20 -->
<g id="node20" class="node">
<title>Node20</title>
<g id="a_node20"><a xlink:href="../../dd/d66/vdxfengine_8cpp.html" target="_top" xlink:title=" ">
<polygon fill="white" stroke="black" points="2363.5,-73 2363.5,-92 2517.5,-92 2517.5,-73 2363.5,-73"/>
<text text-anchor="middle" x="2440.5" y="-80" font-family="Helvetica,sans-Serif" font-size="10.00">src/libs/vdxf/vdxfengine.cpp</text>
</a>
</g>
</g>
<!-- Node19&#45;&gt;Node20 -->
<g id="edge28" class="edge">
<title>Node19&#45;&gt;Node20</title>
<path fill="none" stroke="midnightblue" d="M2112.58,-138.35C2173.78,-128.18 2270.67,-112.05 2354.5,-98 2366,-96.07 2378.36,-93.99 2390.03,-92.03"/>
<polygon fill="midnightblue" stroke="midnightblue" points="2111.99,-134.9 2102.7,-140 2113.14,-141.81 2111.99,-134.9"/>
</g>
<!-- Node21 -->
<g id="node21" class="node">
<title>Node21</title>
<g id="a_node21"><a xlink:href="../../de/da8/vbank_8cpp.html" target="_top" xlink:title=" ">
<polygon fill="white" stroke="black" points="2535.5,-73 2535.5,-92 2679.5,-92 2679.5,-73 2535.5,-73"/>
<text text-anchor="middle" x="2607.5" y="-80" font-family="Helvetica,sans-Serif" font-size="10.00">src/libs/vlayout/vbank.cpp</text>
</a>
</g>
</g>
<!-- Node19&#45;&gt;Node21 -->
<g id="edge29" class="edge">
<title>Node19&#45;&gt;Node21</title>
<path fill="none" stroke="midnightblue" d="M2111.97,-138.42C2122.47,-136.83 2133.29,-135.28 2143.5,-134 2313.14,-112.68 2357.09,-121.08 2526.5,-98 2538.53,-96.36 2551.5,-94.21 2563.46,-92.07"/>
<polygon fill="midnightblue" stroke="midnightblue" points="2111.38,-134.97 2102.03,-139.95 2112.45,-141.88 2111.38,-134.97"/>
</g>
<!-- Node22 -->
<g id="node22" class="node">
<title>Node22</title>
<g id="a_node22"><a xlink:href="../../df/d5d/vcontour_8cpp.html" target="_top" xlink:title=" ">
<polygon fill="white" stroke="black" points="2697.5,-73 2697.5,-92 2853.5,-92 2853.5,-73 2697.5,-73"/>
<text text-anchor="middle" x="2775.5" y="-80" font-family="Helvetica,sans-Serif" font-size="10.00">src/libs/vlayout/vcontour.cpp</text>
</a>
</g>
</g>
<!-- Node19&#45;&gt;Node22 -->
<g id="edge30" class="edge">
<title>Node19&#45;&gt;Node22</title>
<path fill="none" stroke="midnightblue" d="M2110.48,-138.4C2121.43,-136.75 2132.8,-135.19 2143.5,-134 2384.75,-107.08 2447.37,-125.99 2688.5,-98 2701.89,-96.45 2716.35,-94.25 2729.57,-92.03"/>
<polygon fill="midnightblue" stroke="midnightblue" points="2109.92,-134.94 2100.57,-139.93 2110.98,-141.86 2109.92,-134.94"/>
</g>
<!-- Node23 -->
<g id="node23" class="node">
<title>Node23</title>
<g id="a_node23"><a xlink:href="../../d2/d2d/vlayoutpaper__p_8h.html" target="_top" xlink:title=" ">
<polygon fill="white" stroke="black" points="1756,-73 1756,-92 1935,-92 1935,-73 1756,-73"/>
<text text-anchor="middle" x="1845.5" y="-80" font-family="Helvetica,sans-Serif" font-size="10.00">src/libs/vlayout/vlayoutpaper_p.h</text>
</a>
</g>
</g>
<!-- Node19&#45;&gt;Node23 -->
<g id="edge31" class="edge">
<title>Node19&#45;&gt;Node23</title>
<path fill="none" stroke="midnightblue" d="M2014.57,-136.85C1973.77,-123.97 1909.03,-103.55 1872.64,-92.06"/>
<polygon fill="midnightblue" stroke="midnightblue" points="2013.56,-140.2 2024.14,-139.87 2015.66,-133.52 2013.56,-140.2"/>
</g>
<!-- Node24 -->
<g id="node24" class="node">
<title>Node24</title>
<g id="a_node24"><a xlink:href="../../d1/dd1/vlayoutpaper_8cpp.html" target="_top" xlink:title=" ">
<polygon fill="white" stroke="black" points="1758.5,-6 1758.5,-25 1936.5,-25 1936.5,-6 1758.5,-6"/>
<text text-anchor="middle" x="1847.5" y="-13" font-family="Helvetica,sans-Serif" font-size="10.00">src/libs/vlayout/vlayoutpaper.cpp</text>
</a>
</g>
</g>
<!-- Node19&#45;&gt;Node24 -->
<g id="edge34" class="edge">
<title>Node19&#45;&gt;Node24</title>
<path fill="none" stroke="midnightblue" d="M2109.71,-138.37C2120.9,-136.69 2132.54,-135.13 2143.5,-134 2183.28,-129.88 2834.94,-126.98 2862.5,-98 2872,-88.02 2872,-76.98 2862.5,-67 2830.82,-33.71 2178.24,-21.15 1936.53,-17.64"/>
<polygon fill="midnightblue" stroke="midnightblue" points="2108.95,-134.94 2099.6,-139.93 2110.02,-141.86 2108.95,-134.94"/>
</g>
<!-- Node25 -->
<g id="node25" class="node">
<title>Node25</title>
<g id="a_node25"><a xlink:href="../../d3/d39/vlayoutgenerator_8cpp.html" target="_top" xlink:title=" ">
<polygon fill="white" stroke="black" points="1953,-73 1953,-92 2150,-92 2150,-73 1953,-73"/>
<text text-anchor="middle" x="2051.5" y="-80" font-family="Helvetica,sans-Serif" font-size="10.00">src/libs/vlayout/vlayoutgenerator.cpp</text>
</a>
</g>
</g>
<!-- Node19&#45;&gt;Node25 -->
<g id="edge33" class="edge">
<title>Node19&#45;&gt;Node25</title>
<path fill="none" stroke="midnightblue" d="M2051.5,-129.54C2051.5,-117.17 2051.5,-101.62 2051.5,-92.13"/>
<polygon fill="midnightblue" stroke="midnightblue" points="2048,-129.73 2051.5,-139.73 2055,-129.73 2048,-129.73"/>
</g>
<!-- Node26 -->
<g id="node26" class="node">
<title>Node26</title>
<g id="a_node26"><a xlink:href="../../db/d5c/vposition_8h.html" target="_top" xlink:title=" ">
<polygon fill="white" stroke="black" points="1589.5,-73 1589.5,-92 1737.5,-92 1737.5,-73 1589.5,-73"/>
<text text-anchor="middle" x="1663.5" y="-80" font-family="Helvetica,sans-Serif" font-size="10.00">src/libs/vlayout/vposition.h</text>
</a>
</g>
</g>
<!-- Node19&#45;&gt;Node26 -->
<g id="edge35" class="edge">
<title>Node19&#45;&gt;Node26</title>
<path fill="none" stroke="midnightblue" d="M1989.17,-138.34C1927.5,-128.26 1830.45,-112.28 1746.5,-98 1735.25,-96.09 1723.15,-93.99 1711.77,-92.01"/>
<polygon fill="midnightblue" stroke="midnightblue" points="1988.69,-141.81 1999.13,-139.97 1989.82,-134.91 1988.69,-141.81"/>
</g>
<!-- Node28 -->
<g id="node28" class="node">
<title>Node28</title>
<g id="a_node28"><a xlink:href="../../dd/d70/vlayoutpiece_8cpp.html" target="_top" xlink:title=" ">
<polygon fill="white" stroke="black" points="2168,-73 2168,-92 2345,-92 2345,-73 2168,-73"/>
<text text-anchor="middle" x="2256.5" y="-80" font-family="Helvetica,sans-Serif" font-size="10.00">src/libs/vlayout/vlayoutpiece.cpp</text>
</a>
</g>
</g>
<!-- Node19&#45;&gt;Node28 -->
<g id="edge38" class="edge">
<title>Node19&#45;&gt;Node28</title>
<path fill="none" stroke="midnightblue" d="M2088.51,-136.77C2129.13,-123.89 2193.36,-103.52 2229.49,-92.06"/>
<polygon fill="midnightblue" stroke="midnightblue" points="2087.2,-133.51 2078.72,-139.87 2089.31,-140.18 2087.2,-133.51"/>
</g>
<!-- Node23&#45;&gt;Node24 -->
<g id="edge32" class="edge">
<title>Node23&#45;&gt;Node24</title>
<path fill="none" stroke="midnightblue" d="M1846.08,-62.54C1846.46,-50.17 1846.94,-34.62 1847.23,-25.13"/>
<polygon fill="midnightblue" stroke="midnightblue" points="1842.58,-62.63 1845.77,-72.73 1849.58,-62.85 1842.58,-62.63"/>
</g>
<!-- Node26&#45;&gt;Node24 -->
<g id="edge36" class="edge">
<title>Node26&#45;&gt;Node24</title>
<path fill="none" stroke="midnightblue" d="M1697.65,-69.44C1734.15,-56.54 1791.1,-36.42 1823.26,-25.06"/>
<polygon fill="midnightblue" stroke="midnightblue" points="1696.2,-66.24 1687.93,-72.87 1698.53,-72.84 1696.2,-66.24"/>
</g>
<!-- Node27 -->
<g id="node27" class="node">
<title>Node27</title>
<g id="a_node27"><a xlink:href="../../df/d76/vposition_8cpp.html" target="_top" xlink:title=" ">
<polygon fill="white" stroke="black" points="1582,-6 1582,-25 1741,-25 1741,-6 1582,-6"/>
<text text-anchor="middle" x="1661.5" y="-13" font-family="Helvetica,sans-Serif" font-size="10.00">src/libs/vlayout/vposition.cpp</text>
</a>
</g>
</g>
<!-- Node26&#45;&gt;Node27 -->
<g id="edge37" class="edge">
<title>Node26&#45;&gt;Node27</title>
<path fill="none" stroke="midnightblue" d="M1662.92,-62.54C1662.54,-50.17 1662.06,-34.62 1661.77,-25.13"/>
<polygon fill="midnightblue" stroke="midnightblue" points="1659.42,-62.85 1663.23,-72.73 1666.42,-62.63 1659.42,-62.85"/>
</g>
<!-- Node31 -->
<g id="node31" class="node">
<title>Node31</title>
<g id="a_node31"><a xlink:href="../../df/d40/export__format__combobox_8cpp.html" target="_top" xlink:title=" ">
<polygon fill="white" stroke="black" points="2910,-67.5 2910,-97.5 3043,-97.5 3043,-67.5 2910,-67.5"/>
<text text-anchor="start" x="2918" y="-85.5" font-family="Helvetica,sans-Serif" font-size="10.00">src/libs/vwidgets/export</text>
<text text-anchor="middle" x="2976.5" y="-74.5" font-family="Helvetica,sans-Serif" font-size="10.00">_format_combobox.cpp</text>
</a>
</g>
</g>
<!-- Node30&#45;&gt;Node31 -->
<g id="edge41" class="edge">
<title>Node30&#45;&gt;Node31</title>
<path fill="none" stroke="midnightblue" d="M2496.12,-134.01C2673.99,-109.68 2721.79,-121.32 2895.5,-98 2900.17,-97.37 2904.99,-96.67 2909.83,-95.91"/>
<polygon fill="midnightblue" stroke="midnightblue" points="2495.59,-130.55 2486.17,-135.39 2496.55,-137.49 2495.59,-130.55"/>
</g>
<!-- Node34 -->
<g id="node34" class="node">
<title>Node34</title>
<g id="a_node34"><a xlink:href="../../d2/d28/page__format__combobox_8cpp.html" target="_top" xlink:title=" ">
<polygon fill="white" stroke="black" points="1440,-67.5 1440,-97.5 1571,-97.5 1571,-67.5 1440,-67.5"/>
<text text-anchor="start" x="1448" y="-85.5" font-family="Helvetica,sans-Serif" font-size="10.00">src/libs/vwidgets/page</text>
<text text-anchor="middle" x="1505.5" y="-74.5" font-family="Helvetica,sans-Serif" font-size="10.00">_format_combobox.cpp</text>
</a>
</g>
</g>
<!-- Node33&#45;&gt;Node34 -->
<g id="edge44" class="edge">
<title>Node33&#45;&gt;Node34</title>
<path fill="none" stroke="midnightblue" d="M1757.86,-133.87C1688.33,-119.94 1619.82,-106.27 1571.03,-96.55"/>
<polygon fill="midnightblue" stroke="midnightblue" points="1757.18,-137.31 1767.67,-135.84 1758.56,-130.44 1757.18,-137.31"/>
</g>
<!-- Node37&#45;&gt;Node8 -->
<g id="edge49" class="edge">
<title>Node37&#45;&gt;Node8</title>
<path fill="none" stroke="midnightblue" d="M1205.71,-196.7C1211.6,-164.88 1217.97,-100.58 1182.5,-67 1139.98,-26.74 763.83,-18.5 583.76,-16.87"/>
<polygon fill="midnightblue" stroke="midnightblue" points="1202.21,-196.34 1203.64,-206.84 1209.07,-197.75 1202.21,-196.34"/>
</g>
<!-- Node38&#45;&gt;Node13 -->
<g id="edge51" class="edge">
<title>Node38&#45;&gt;Node13</title>
<path fill="none" stroke="midnightblue" d="M940.64,-198.29C920.92,-169.69 882.12,-113.41 867.37,-92.02"/>
<polygon fill="midnightblue" stroke="midnightblue" points="937.97,-200.59 946.53,-206.84 943.73,-196.62 937.97,-200.59"/>
</g>
</g>
</svg>
        <g id="navigator" transform="translate(0 0)" fill="#404254">
                <rect fill="#f2f5e9" fill-opacity="0.5" stroke="#606060" stroke-width=".5" x="0" y="0" width="60" height="60"/>
                <use id="zoomplus" xlink:href="#zoomPlus" x="17" y="9" onmousedown="handleZoom(evt,'in')"/>
                <use id="zoomminus" xlink:href="#zoomMin" x="42" y="9" onmousedown="handleZoom(evt,'out')"/>
                <use id="reset" xlink:href="#resetDef" x="30" y="36" onmousedown="handleReset()"/>
                <g id="arrowUp" xlink:href="#dirArrow" transform="translate(30 24)" onmousedown="handlePan(0,-1)">
                  <use xlink:href="#rim" fill="#404040">
                        <set attributeName="fill" to="#808080" begin="arrowUp.mouseover" end="arrowUp.mouseout"/>
                  </use>
                  <path fill="none" stroke="white" stroke-width="1.5" d="M0,-3.0v7 M-2.5,-0.5L0,-3.0L2.5,-0.5"/>
                </g>
                <g id="arrowRight" xlink:href="#dirArrow" transform="rotate(90) translate(36 -43)" onmousedown="handlePan(1,0)">
                  <use xlink:href="#rim" fill="#404040">
                        <set attributeName="fill" to="#808080" begin="arrowRight.mouseover" end="arrowRight.mouseout"/>
                  </use>
                  <path fill="none" stroke="white" stroke-width="1.5" d="M0,-3.0v7 M-2.5,-0.5L0,-3.0L2.5,-0.5"/>
                </g>
                <g id="arrowDown" xlink:href="#dirArrow" transform="rotate(180) translate(-30 -48)" onmousedown="handlePan(0,1)">
                  <use xlink:href="#rim" fill="#404040">
                        <set attributeName="fill" to="#808080" begin="arrowDown.mouseover" end="arrowDown.mouseout"/>
                  </use>
                  <path fill="none" stroke="white" stroke-width="1.5" d="M0,-3.0v7 M-2.5,-0.5L0,-3.0L2.5,-0.5"/>
                </g>
                <g id="arrowLeft" xlink:href="#dirArrow" transform="rotate(270) translate(-36 17)" onmousedown="handlePan(-1,0)">
                  <use xlink:href="#rim" fill="#404040">
                        <set attributeName="fill" to="#808080" begin="arrowLeft.mouseover" end="arrowLeft.mouseout"/>
                  </use>
                  <path fill="none" stroke="white" stroke-width="1.5" d="M0,-3.0v7 M-2.5,-0.5L0,-3.0L2.5,-0.5"/>
                </g>
        </g>
        <svg viewBox="0 0 15 15" width="100%" height="30px" preserveAspectRatio="xMaxYMin meet">
         <g id="arrow_out" transform="scale(0.3 0.3)">
          <a xlink:href="vdomdocument_8h__dep__incl_org.svg" target="_base">
           <rect id="button" ry="5" rx="5" y="6" x="6" height="38" width="38"
                fill="#f2f5e9" fill-opacity="0.5" stroke="#606060" stroke-width="1.0"/>
           <path id="arrow"
             d="M 11.500037,31.436501 C 11.940474,20.09759 22.043105,11.32322 32.158766,21.979434 L 37.068811,17.246167 C 37.068811,17.246167 37.088388,32 37.088388,32 L 22.160133,31.978069 C 22.160133,31.978069 26.997745,27.140456 26.997745,27.140456 C 18.528582,18.264221 13.291696,25.230495 11.500037,31.436501 z"
             style="fill:#404040;"/>
          </a>
         </g>
        </svg>
</svg>
