<?xml version="1.0" encoding="UTF-8" standalone="no"?>
<!DOCTYPE svg PUBLIC "-//W3C//DTD SVG 1.1//EN"
 "http://www.w3.org/Graphics/SVG/1.1/DTD/svg11.dtd">
<!-- Generated by graphviz version 2.43.0 (0)
 -->
<!-- Title: src/libs/ifc/xml/vdomdocument.h Pages: 1 -->
<svg width="3101pt" height="296pt"
 viewBox="0.00 0.00 3101.00 296.00" xmlns="http://www.w3.org/2000/svg" xmlns:xlink="http://www.w3.org/1999/xlink">
<g id="graph0" class="graph" transform="scale(1 1) rotate(0) translate(4 292)">
<title>src/libs/ifc/xml/vdomdocument.h</title>
<polygon fill="white" stroke="transparent" points="-4,4 -4,-292 3097,-292 3097,4 -4,4"/>
<!-- Node1 -->
<g id="node1" class="node">
<title>Node1</title>
<g id="a_node1"><a xlink:title=" ">
<polygon fill="#bfbfbf" stroke="black" points="1168.5,-268.5 1168.5,-287.5 1344.5,-287.5 1344.5,-268.5 1168.5,-268.5"/>
<text text-anchor="middle" x="1256.5" y="-275.5" font-family="Helvetica,sans-Serif" font-size="10.00">src/libs/ifc/xml/vdomdocument.h</text>
</a>
</g>
</g>
<!-- Node2 -->
<g id="node2" class="node">
<title>Node2</title>
<g id="a_node2"><a xlink:href="../../d0/da1/abstract__converter_8h.html" target="_top" xlink:title=" ">
<polygon fill="white" stroke="black" points="739,-201.5 739,-231.5 870,-231.5 870,-201.5 739,-201.5"/>
<text text-anchor="start" x="747" y="-219.5" font-family="Helvetica,sans-Serif" font-size="10.00">src/libs/ifc/xml/abstract</text>
<text text-anchor="middle" x="804.5" y="-208.5" font-family="Helvetica,sans-Serif" font-size="10.00">_converter.h</text>
</a>
</g>
</g>
<!-- Node1&#45;&gt;Node2 -->
<g id="edge1" class="edge">
<title>Node1&#45;&gt;Node2</title>
<path fill="none" stroke="midnightblue" d="M1181.69,-267.15C1094.86,-255.72 953.01,-237.05 870.24,-226.15"/>
<polygon fill="midnightblue" stroke="midnightblue" points="1181.37,-270.64 1191.74,-268.48 1182.28,-263.7 1181.37,-270.64"/>
</g>
<!-- Node10 -->
<g id="node10" class="node">
<title>Node10</title>
<g id="a_node10"><a xlink:href="../../d0/d08/abstract__converter_8cpp.html" target="_top" xlink:title=" ">
<polygon fill="white" stroke="black" points="1094,-134.5 1094,-164.5 1225,-164.5 1225,-134.5 1094,-134.5"/>
<text text-anchor="start" x="1102" y="-152.5" font-family="Helvetica,sans-Serif" font-size="10.00">src/libs/ifc/xml/abstract</text>
<text text-anchor="middle" x="1159.5" y="-141.5" font-family="Helvetica,sans-Serif" font-size="10.00">_converter.cpp</text>
</a>
</g>
</g>
<!-- Node1&#45;&gt;Node10 -->
<g id="edge24" class="edge">
<title>Node1&#45;&gt;Node10</title>
<path fill="none" stroke="midnightblue" d="M1202.83,-265.08C1185.35,-258.38 1167.81,-248.01 1157.5,-232 1144.4,-211.65 1149.69,-182.12 1154.65,-164.76"/>
<polygon fill="midnightblue" stroke="midnightblue" points="1201.9,-268.46 1212.49,-268.44 1204.2,-261.85 1201.9,-268.46"/>
</g>
<!-- Node16 -->
<g id="node16" class="node">
<title>Node16</title>
<g id="a_node16"><a xlink:href="../../de/d7d/vabstractpattern_8cpp.html" target="_top" xlink:title=" ">
<polygon fill="white" stroke="black" points="1278.5,-73 1278.5,-92 1470.5,-92 1470.5,-73 1278.5,-73"/>
<text text-anchor="middle" x="1374.5" y="-80" font-family="Helvetica,sans-Serif" font-size="10.00">src/libs/ifc/xml/vabstractpattern.cpp</text>
</a>
</g>
</g>
<!-- Node1&#45;&gt;Node16 -->
<g id="edge47" class="edge">
<title>Node1&#45;&gt;Node16</title>
<path fill="none" stroke="midnightblue" d="M1306.12,-265.08C1324.05,-258.3 1342.75,-247.87 1354.5,-232 1386.84,-188.3 1379.71,-116.97 1376,-92.26"/>
<polygon fill="midnightblue" stroke="midnightblue" points="1304.59,-261.91 1296.29,-268.49 1306.88,-268.52 1304.59,-261.91"/>
</g>
<!-- Node18 -->
<g id="node18" class="node">
<title>Node18</title>
<g id="a_node18"><a xlink:href="../../d0/d89/vabstractpattern_8h.html" target="_top" xlink:title=" ">
<polygon fill="white" stroke="black" points="1924,-207 1924,-226 2105,-226 2105,-207 1924,-207"/>
<text text-anchor="middle" x="2014.5" y="-214" font-family="Helvetica,sans-Serif" font-size="10.00">src/libs/ifc/xml/vabstractpattern.h</text>
</a>
</g>
</g>
<!-- Node1&#45;&gt;Node18 -->
<g id="edge25" class="edge">
<title>Node1&#45;&gt;Node18</title>
<path fill="none" stroke="midnightblue" d="M1354.55,-269.3C1502.44,-257.69 1780.49,-235.87 1923.88,-224.61"/>
<polygon fill="midnightblue" stroke="midnightblue" points="1354.26,-265.82 1344.56,-270.09 1354.81,-272.79 1354.26,-265.82"/>
</g>
<!-- Node36 -->
<g id="node36" class="node">
<title>Node36</title>
<g id="a_node36"><a xlink:href="../../d7/d49/vdomdocument_8cpp.html" target="_top" xlink:title=" ">
<polygon fill="white" stroke="black" points="2123.5,-207 2123.5,-226 2311.5,-226 2311.5,-207 2123.5,-207"/>
<text text-anchor="middle" x="2217.5" y="-214" font-family="Helvetica,sans-Serif" font-size="10.00">src/libs/ifc/xml/vdomdocument.cpp</text>
</a>
</g>
</g>
<!-- Node1&#45;&gt;Node36 -->
<g id="edge46" class="edge">
<title>Node1&#45;&gt;Node36</title>
<path fill="none" stroke="midnightblue" d="M1354.85,-274.59C1514.4,-270.06 1839.4,-258.26 2113.5,-232 2129.56,-230.46 2146.95,-228.25 2162.82,-226.02"/>
<polygon fill="midnightblue" stroke="midnightblue" points="1354.48,-271.1 1344.59,-274.88 1354.68,-278.09 1354.48,-271.1"/>
</g>
<!-- Node37 -->
<g id="node37" class="node">
<title>Node37</title>
<g id="a_node37"><a xlink:href="../../dc/db7/measurements_8h.html" target="_top" xlink:title=" ">
<polygon fill="white" stroke="black" points="1167,-207 1167,-226 1346,-226 1346,-207 1167,-207"/>
<text text-anchor="middle" x="1256.5" y="-214" font-family="Helvetica,sans-Serif" font-size="10.00">src/libs/vformat/measurements.h</text>
</a>
</g>
</g>
<!-- Node1&#45;&gt;Node37 -->
<g id="edge48" class="edge">
<title>Node1&#45;&gt;Node37</title>
<path fill="none" stroke="midnightblue" d="M1256.5,-258.32C1256.5,-247.5 1256.5,-234.4 1256.5,-226.01"/>
<polygon fill="midnightblue" stroke="midnightblue" points="1253,-258.48 1256.5,-268.48 1260,-258.48 1253,-258.48"/>
</g>
<!-- Node38 -->
<g id="node38" class="node">
<title>Node38</title>
<g id="a_node38"><a xlink:href="../../d2/d8a/vlabeltemplate_8h.html" target="_top" xlink:title=" ">
<polygon fill="white" stroke="black" points="292,-207 292,-226 471,-226 471,-207 292,-207"/>
<text text-anchor="middle" x="381.5" y="-214" font-family="Helvetica,sans-Serif" font-size="10.00">src/libs/vformat/vlabeltemplate.h</text>
</a>
</g>
</g>
<!-- Node1&#45;&gt;Node38 -->
<g id="edge50" class="edge">
<title>Node1&#45;&gt;Node38</title>
<path fill="none" stroke="midnightblue" d="M1158.17,-270.31C986.87,-258.67 636.27,-234.82 471.2,-223.6"/>
<polygon fill="midnightblue" stroke="midnightblue" points="1157.98,-273.81 1168.19,-270.99 1158.45,-266.82 1157.98,-273.81"/>
</g>
<!-- Node3 -->
<g id="node3" class="node">
<title>Node3</title>
<g id="a_node3"><a xlink:href="../../de/dec/abstract__m__converter_8cpp.html" target="_top" xlink:title=" ">
<polygon fill="white" stroke="black" points="458,-67.5 458,-97.5 589,-97.5 589,-67.5 458,-67.5"/>
<text text-anchor="start" x="466" y="-85.5" font-family="Helvetica,sans-Serif" font-size="10.00">src/libs/ifc/xml/abstract</text>
<text text-anchor="middle" x="523.5" y="-74.5" font-family="Helvetica,sans-Serif" font-size="10.00">_m_converter.cpp</text>
</a>
</g>
</g>
<!-- Node2&#45;&gt;Node3 -->
<g id="edge2" class="edge">
<title>Node2&#45;&gt;Node3</title>
<path fill="none" stroke="midnightblue" d="M728.9,-216C634.63,-214.82 481.45,-206.37 445.5,-165 424.17,-140.46 463.3,-113.48 493.45,-97.54"/>
<polygon fill="midnightblue" stroke="midnightblue" points="728.93,-219.5 738.97,-216.1 729,-212.5 728.93,-219.5"/>
</g>
<!-- Node4 -->
<g id="node4" class="node">
<title>Node4</title>
<g id="a_node4"><a xlink:href="../../da/d2c/abstract__m__converter_8h.html" target="_top" xlink:title=" ">
<polygon fill="white" stroke="black" points="626,-134.5 626,-164.5 757,-164.5 757,-134.5 626,-134.5"/>
<text text-anchor="start" x="634" y="-152.5" font-family="Helvetica,sans-Serif" font-size="10.00">src/libs/ifc/xml/abstract</text>
<text text-anchor="middle" x="691.5" y="-141.5" font-family="Helvetica,sans-Serif" font-size="10.00">_m_converter.h</text>
</a>
</g>
</g>
<!-- Node2&#45;&gt;Node4 -->
<g id="edge3" class="edge">
<title>Node2&#45;&gt;Node4</title>
<path fill="none" stroke="midnightblue" d="M771.11,-196.3C753.43,-186.12 732.1,-173.85 715.97,-164.58"/>
<polygon fill="midnightblue" stroke="midnightblue" points="769.57,-199.44 779.98,-201.4 773.06,-193.38 769.57,-199.44"/>
</g>
<!-- Node6 -->
<g id="node6" class="node">
<title>Node6</title>
<g id="a_node6"><a xlink:href="../../d0/d93/individual__size__converter_8h.html" target="_top" xlink:title=" ">
<polygon fill="white" stroke="black" points="818,-67.5 818,-97.5 957,-97.5 957,-67.5 818,-67.5"/>
<text text-anchor="start" x="826" y="-85.5" font-family="Helvetica,sans-Serif" font-size="10.00">src/libs/ifc/xml/individual</text>
<text text-anchor="middle" x="887.5" y="-74.5" font-family="Helvetica,sans-Serif" font-size="10.00">_size_converter.h</text>
</a>
</g>
</g>
<!-- Node2&#45;&gt;Node6 -->
<g id="edge14" class="edge">
<title>Node2&#45;&gt;Node6</title>
<path fill="none" stroke="midnightblue" d="M815.38,-192.18C823.48,-175.52 835.23,-152.82 847.5,-134 855.93,-121.07 866.89,-107.41 875.21,-97.56"/>
<polygon fill="midnightblue" stroke="midnightblue" points="812.21,-190.68 811.05,-201.21 818.52,-193.71 812.21,-190.68"/>
</g>
<!-- Node8 -->
<g id="node8" class="node">
<title>Node8</title>
<g id="a_node8"><a xlink:href="../../d5/d4c/multi__size__converter_8h.html" target="_top" xlink:title=" ">
<polygon fill="white" stroke="black" points="683.5,-67.5 683.5,-97.5 799.5,-97.5 799.5,-67.5 683.5,-67.5"/>
<text text-anchor="start" x="691.5" y="-85.5" font-family="Helvetica,sans-Serif" font-size="10.00">src/libs/ifc/xml/multi</text>
<text text-anchor="middle" x="741.5" y="-74.5" font-family="Helvetica,sans-Serif" font-size="10.00">_size_converter.h</text>
</a>
</g>
</g>
<!-- Node2&#45;&gt;Node8 -->
<g id="edge15" class="edge">
<title>Node2&#45;&gt;Node8</title>
<path fill="none" stroke="midnightblue" d="M793.34,-192.12C780.25,-164.68 758.96,-120.09 748.19,-97.52"/>
<polygon fill="midnightblue" stroke="midnightblue" points="790.29,-193.86 797.76,-201.37 796.61,-190.84 790.29,-193.86"/>
</g>
<!-- Node2&#45;&gt;Node10 -->
<g id="edge13" class="edge">
<title>Node2&#45;&gt;Node10</title>
<path fill="none" stroke="midnightblue" d="M880.07,-202.13C936.45,-192.1 1015.33,-177.92 1084.5,-165 1087.5,-164.44 1090.56,-163.86 1093.66,-163.28"/>
<polygon fill="midnightblue" stroke="midnightblue" points="879.4,-198.7 870.17,-203.9 880.63,-205.59 879.4,-198.7"/>
</g>
<!-- Node11 -->
<g id="node11" class="node">
<title>Node11</title>
<g id="a_node11"><a xlink:href="../../d4/d90/fvupdater_8cpp.html" target="_top" xlink:title=" ">
<polygon fill="white" stroke="black" points="455,-140 455,-159 608,-159 608,-140 455,-140"/>
<text text-anchor="middle" x="531.5" y="-147" font-family="Helvetica,sans-Serif" font-size="10.00">src/libs/fervor/fvupdater.cpp</text>
</a>
</g>
</g>
<!-- Node2&#45;&gt;Node11 -->
<g id="edge16" class="edge">
<title>Node2&#45;&gt;Node11</title>
<path fill="none" stroke="midnightblue" d="M735.83,-199.15C682.26,-186.39 610,-169.19 567.32,-159.03"/>
<polygon fill="midnightblue" stroke="midnightblue" points="735.06,-202.56 745.6,-201.48 736.68,-195.75 735.06,-202.56"/>
</g>
<!-- Node12 -->
<g id="node12" class="node">
<title>Node12</title>
<g id="a_node12"><a xlink:href="../../d5/d35/vlabeltemplateconverter_8h.html" target="_top" xlink:title=" ">
<polygon fill="white" stroke="black" points="178.5,-140 178.5,-159 398.5,-159 398.5,-140 178.5,-140"/>
<text text-anchor="middle" x="288.5" y="-147" font-family="Helvetica,sans-Serif" font-size="10.00">src/libs/ifc/xml/vlabeltemplateconverter.h</text>
</a>
</g>
</g>
<!-- Node2&#45;&gt;Node12 -->
<g id="edge17" class="edge">
<title>Node2&#45;&gt;Node12</title>
<path fill="none" stroke="midnightblue" d="M728.81,-205.96C628.31,-193.31 452.35,-171.14 356.11,-159.02"/>
<polygon fill="midnightblue" stroke="midnightblue" points="728.53,-209.46 738.89,-207.23 729.4,-202.51 728.53,-209.46"/>
</g>
<!-- Node15 -->
<g id="node15" class="node">
<title>Node15</title>
<g id="a_node15"><a xlink:href="../../df/d2f/vpatternconverter_8h.html" target="_top" xlink:title=" ">
<polygon fill="white" stroke="black" points="889,-140 889,-159 1076,-159 1076,-140 889,-140"/>
<text text-anchor="middle" x="982.5" y="-147" font-family="Helvetica,sans-Serif" font-size="10.00">src/libs/ifc/xml/vpatternconverter.h</text>
</a>
</g>
</g>
<!-- Node2&#45;&gt;Node15 -->
<g id="edge20" class="edge">
<title>Node2&#45;&gt;Node15</title>
<path fill="none" stroke="midnightblue" d="M852.57,-197.95C887.14,-185.32 932.25,-168.85 959.2,-159.01"/>
<polygon fill="midnightblue" stroke="midnightblue" points="851.32,-194.68 843.12,-201.4 853.72,-201.25 851.32,-194.68"/>
</g>
<!-- Node17 -->
<g id="node17" class="node">
<title>Node17</title>
<g id="a_node17"><a xlink:href="../../d5/d2c/vpatternconverter_8cpp.html" target="_top" xlink:title=" ">
<polygon fill="white" stroke="black" points="975.5,-73 975.5,-92 1173.5,-92 1173.5,-73 975.5,-73"/>
<text text-anchor="middle" x="1074.5" y="-80" font-family="Helvetica,sans-Serif" font-size="10.00">src/libs/ifc/xml/vpatternconverter.cpp</text>
</a>
</g>
</g>
<!-- Node2&#45;&gt;Node17 -->
<g id="edge23" class="edge">
<title>Node2&#45;&gt;Node17</title>
<path fill="none" stroke="midnightblue" d="M823.44,-193.67C843.33,-170.95 872.68,-138.09 879.5,-134 916.84,-111.61 963.98,-99.05 1002.56,-92.06"/>
<polygon fill="midnightblue" stroke="midnightblue" points="820.79,-191.39 816.85,-201.23 826.06,-195.99 820.79,-191.39"/>
</g>
<!-- Node4&#45;&gt;Node3 -->
<g id="edge4" class="edge">
<title>Node4&#45;&gt;Node3</title>
<path fill="none" stroke="midnightblue" d="M645.45,-130.68C618.5,-120.26 584.96,-107.28 559.88,-97.58"/>
<polygon fill="midnightblue" stroke="midnightblue" points="644.46,-134.05 655.05,-134.4 646.98,-127.52 644.46,-134.05"/>
</g>
<!-- Node5 -->
<g id="node5" class="node">
<title>Node5</title>
<g id="a_node5"><a xlink:href="../../d5/d6e/individual__size__converter_8cpp.html" target="_top" xlink:title=" ">
<polygon fill="white" stroke="black" points="694,-0.5 694,-30.5 833,-30.5 833,-0.5 694,-0.5"/>
<text text-anchor="start" x="702" y="-18.5" font-family="Helvetica,sans-Serif" font-size="10.00">src/libs/ifc/xml/individual</text>
<text text-anchor="middle" x="763.5" y="-7.5" font-family="Helvetica,sans-Serif" font-size="10.00">_size_converter.cpp</text>
</a>
</g>
</g>
<!-- Node4&#45;&gt;Node5 -->
<g id="edge5" class="edge">
<title>Node4&#45;&gt;Node5</title>
<path fill="none" stroke="midnightblue" d="M678.26,-125C670.54,-107.91 664.16,-84.75 674.5,-67 684.33,-50.11 702.15,-38.41 719.27,-30.56"/>
<polygon fill="midnightblue" stroke="midnightblue" points="675.28,-126.86 682.85,-134.28 681.55,-123.76 675.28,-126.86"/>
</g>
<!-- Node4&#45;&gt;Node6 -->
<g id="edge6" class="edge">
<title>Node4&#45;&gt;Node6</title>
<path fill="none" stroke="midnightblue" d="M743.58,-131.23C775.29,-120.71 815.28,-107.45 845.05,-97.58"/>
<polygon fill="midnightblue" stroke="midnightblue" points="742.42,-127.93 734.03,-134.4 744.62,-134.57 742.42,-127.93"/>
</g>
<!-- Node4&#45;&gt;Node8 -->
<g id="edge9" class="edge">
<title>Node4&#45;&gt;Node8</title>
<path fill="none" stroke="midnightblue" d="M708.46,-126.45C715.81,-116.9 724.19,-106 730.67,-97.58"/>
<polygon fill="midnightblue" stroke="midnightblue" points="705.67,-124.34 702.35,-134.4 711.22,-128.6 705.67,-124.34"/>
</g>
<!-- Node9 -->
<g id="node9" class="node">
<title>Node9</title>
<g id="a_node9"><a xlink:href="../../d9/d94/multi__size__converter_8cpp.html" target="_top" xlink:title=" ">
<polygon fill="white" stroke="black" points="559.5,-0.5 559.5,-30.5 675.5,-30.5 675.5,-0.5 559.5,-0.5"/>
<text text-anchor="start" x="567.5" y="-18.5" font-family="Helvetica,sans-Serif" font-size="10.00">src/libs/ifc/xml/multi</text>
<text text-anchor="middle" x="617.5" y="-7.5" font-family="Helvetica,sans-Serif" font-size="10.00">_size_converter.cpp</text>
</a>
</g>
</g>
<!-- Node4&#45;&gt;Node9 -->
<g id="edge12" class="edge">
<title>Node4&#45;&gt;Node9</title>
<path fill="none" stroke="midnightblue" d="M678.59,-125.48C663.23,-98.07 638.07,-53.19 625.36,-30.52"/>
<polygon fill="midnightblue" stroke="midnightblue" points="675.64,-127.36 683.58,-134.37 681.74,-123.94 675.64,-127.36"/>
</g>
<!-- Node6&#45;&gt;Node5 -->
<g id="edge7" class="edge">
<title>Node6&#45;&gt;Node5</title>
<path fill="none" stroke="midnightblue" d="M851.66,-62.71C832.11,-52.46 808.3,-39.98 790.35,-30.58"/>
<polygon fill="midnightblue" stroke="midnightblue" points="850.11,-65.85 860.59,-67.4 853.36,-59.65 850.11,-65.85"/>
</g>
<!-- Node7 -->
<g id="node7" class="node">
<title>Node7</title>
<g id="a_node7"><a xlink:href="../../d9/de3/measurements_8cpp.html" target="_top" xlink:title=" ">
<polygon fill="white" stroke="black" points="851.5,-6 851.5,-25 1041.5,-25 1041.5,-6 851.5,-6"/>
<text text-anchor="middle" x="946.5" y="-13" font-family="Helvetica,sans-Serif" font-size="10.00">src/libs/vformat/measurements.cpp</text>
</a>
</g>
</g>
<!-- Node6&#45;&gt;Node7 -->
<g id="edge8" class="edge">
<title>Node6&#45;&gt;Node7</title>
<path fill="none" stroke="midnightblue" d="M907.33,-59.66C918.03,-47.86 930.65,-33.97 938.61,-25.19"/>
<polygon fill="midnightblue" stroke="midnightblue" points="904.43,-57.64 900.3,-67.4 909.61,-62.34 904.43,-57.64"/>
</g>
<!-- Node8&#45;&gt;Node7 -->
<g id="edge11" class="edge">
<title>Node8&#45;&gt;Node7</title>
<path fill="none" stroke="midnightblue" d="M795.34,-64.43C835.31,-51.75 888.15,-35 919.6,-25.03"/>
<polygon fill="midnightblue" stroke="midnightblue" points="794.2,-61.12 785.73,-67.48 796.32,-67.79 794.2,-61.12"/>
</g>
<!-- Node8&#45;&gt;Node9 -->
<g id="edge10" class="edge">
<title>Node8&#45;&gt;Node9</title>
<path fill="none" stroke="midnightblue" d="M705.66,-62.71C686.11,-52.46 662.3,-39.98 644.35,-30.58"/>
<polygon fill="midnightblue" stroke="midnightblue" points="704.11,-65.85 714.59,-67.4 707.36,-59.65 704.11,-65.85"/>
</g>
<!-- Node13 -->
<g id="node13" class="node">
<title>Node13</title>
<g id="a_node13"><a xlink:href="../../d7/d63/vlabeltemplateconverter_8cpp.html" target="_top" xlink:title=" ">
<polygon fill="white" stroke="black" points="209,-73 209,-92 440,-92 440,-73 209,-73"/>
<text text-anchor="middle" x="324.5" y="-80" font-family="Helvetica,sans-Serif" font-size="10.00">src/libs/ifc/xml/vlabeltemplateconverter.cpp</text>
</a>
</g>
</g>
<!-- Node12&#45;&gt;Node13 -->
<g id="edge18" class="edge">
<title>Node12&#45;&gt;Node13</title>
<path fill="none" stroke="midnightblue" d="M298.38,-130.66C305.32,-118.13 314.3,-101.91 319.72,-92.13"/>
<polygon fill="midnightblue" stroke="midnightblue" points="295.14,-129.29 293.36,-139.73 301.26,-132.68 295.14,-129.29"/>
</g>
<!-- Node14 -->
<g id="node14" class="node">
<title>Node14</title>
<g id="a_node14"><a xlink:href="../../d9/daf/vlabeltemplate_8cpp.html" target="_top" xlink:title=" ">
<polygon fill="white" stroke="black" points="0,-73 0,-92 191,-92 191,-73 0,-73"/>
<text text-anchor="middle" x="95.5" y="-80" font-family="Helvetica,sans-Serif" font-size="10.00">src/libs/vformat/vlabeltemplate.cpp</text>
</a>
</g>
</g>
<!-- Node12&#45;&gt;Node14 -->
<g id="edge19" class="edge">
<title>Node12&#45;&gt;Node14</title>
<path fill="none" stroke="midnightblue" d="M253.17,-136.6C214.9,-123.71 154.8,-103.47 120.93,-92.06"/>
<polygon fill="midnightblue" stroke="midnightblue" points="252.28,-139.99 262.87,-139.87 254.51,-133.36 252.28,-139.99"/>
</g>
<!-- Node15&#45;&gt;Node16 -->
<g id="edge21" class="edge">
<title>Node15&#45;&gt;Node16</title>
<path fill="none" stroke="midnightblue" d="M1044.18,-138.27C1121.11,-125.52 1251.23,-103.94 1323.05,-92.03"/>
<polygon fill="midnightblue" stroke="midnightblue" points="1043.44,-134.85 1034.15,-139.94 1044.59,-141.75 1043.44,-134.85"/>
</g>
<!-- Node15&#45;&gt;Node17 -->
<g id="edge22" class="edge">
<title>Node15&#45;&gt;Node17</title>
<path fill="none" stroke="midnightblue" d="M1003.14,-133.92C1021.32,-121.07 1047.21,-102.78 1062.29,-92.13"/>
<polygon fill="midnightblue" stroke="midnightblue" points="1001.06,-131.1 994.91,-139.73 1005.09,-136.82 1001.06,-131.1"/>
</g>
<!-- Node18&#45;&gt;Node16 -->
<g id="edge26" class="edge">
<title>Node18&#45;&gt;Node16</title>
<path fill="none" stroke="midnightblue" d="M1949.45,-205.37C1890.14,-195.87 1800.18,-180.8 1722.5,-165 1606.36,-141.38 1469.81,-107.64 1407.95,-92.03"/>
<polygon fill="midnightblue" stroke="midnightblue" points="1949,-208.85 1959.43,-206.97 1950.1,-201.93 1949,-208.85"/>
</g>
<!-- Node19 -->
<g id="node19" class="node">
<title>Node19</title>
<g id="a_node19"><a xlink:href="../../d6/de0/vlayoutpiece_8h.html" target="_top" xlink:title=" ">
<polygon fill="white" stroke="black" points="1931.5,-140 1931.5,-159 2097.5,-159 2097.5,-140 1931.5,-140"/>
<text text-anchor="middle" x="2014.5" y="-147" font-family="Helvetica,sans-Serif" font-size="10.00">src/libs/vlayout/vlayoutpiece.h</text>
</a>
</g>
</g>
<!-- Node18&#45;&gt;Node19 -->
<g id="edge27" class="edge">
<title>Node18&#45;&gt;Node19</title>
<path fill="none" stroke="midnightblue" d="M2014.5,-196.54C2014.5,-184.17 2014.5,-168.62 2014.5,-159.13"/>
<polygon fill="midnightblue" stroke="midnightblue" points="2011,-196.73 2014.5,-206.73 2018,-196.73 2011,-196.73"/>
</g>
<!-- Node29 -->
<g id="node29" class="node">
<title>Node29</title>
<g id="a_node29"><a xlink:href="../../d8/d70/vtextmanager_8cpp.html" target="_top" xlink:title=" ">
<polygon fill="white" stroke="black" points="1731.5,-140 1731.5,-159 1913.5,-159 1913.5,-140 1731.5,-140"/>
<text text-anchor="middle" x="1822.5" y="-147" font-family="Helvetica,sans-Serif" font-size="10.00">src/libs/vlayout/vtextmanager.cpp</text>
</a>
</g>
</g>
<!-- Node18&#45;&gt;Node29 -->
<g id="edge39" class="edge">
<title>Node18&#45;&gt;Node29</title>
<path fill="none" stroke="midnightblue" d="M1979.35,-203.6C1941.29,-190.71 1881.5,-170.47 1847.8,-159.06"/>
<polygon fill="midnightblue" stroke="midnightblue" points="1978.41,-206.98 1989,-206.87 1980.65,-200.35 1978.41,-206.98"/>
</g>
<!-- Node30 -->
<g id="node30" class="node">
<title>Node30</title>
<g id="a_node30"><a xlink:href="../../d0/da5/export__format__combobox_8h.html" target="_top" xlink:title=" ">
<polygon fill="white" stroke="black" points="2263,-134.5 2263,-164.5 2396,-164.5 2396,-134.5 2263,-134.5"/>
<text text-anchor="start" x="2271" y="-152.5" font-family="Helvetica,sans-Serif" font-size="10.00">src/libs/vwidgets/export</text>
<text text-anchor="middle" x="2329.5" y="-141.5" font-family="Helvetica,sans-Serif" font-size="10.00">_format_combobox.h</text>
</a>
</g>
</g>
<!-- Node18&#45;&gt;Node30 -->
<g id="edge40" class="edge">
<title>Node18&#45;&gt;Node30</title>
<path fill="none" stroke="midnightblue" d="M2065.99,-204.87C2119.7,-193.79 2204.1,-176.38 2262.86,-164.25"/>
<polygon fill="midnightblue" stroke="midnightblue" points="2065.09,-201.49 2056,-206.94 2066.51,-208.34 2065.09,-201.49"/>
</g>
<!-- Node32 -->
<g id="node32" class="node">
<title>Node32</title>
<g id="a_node32"><a xlink:href="../../d7/df4/group__tablewidgetitem_8cpp.html" target="_top" xlink:title=" ">
<polygon fill="white" stroke="black" points="2116,-134.5 2116,-164.5 2245,-164.5 2245,-134.5 2116,-134.5"/>
<text text-anchor="start" x="2124" y="-152.5" font-family="Helvetica,sans-Serif" font-size="10.00">src/libs/vwidgets/group</text>
<text text-anchor="middle" x="2180.5" y="-141.5" font-family="Helvetica,sans-Serif" font-size="10.00">_tablewidgetitem.cpp</text>
</a>
</g>
</g>
<!-- Node18&#45;&gt;Node32 -->
<g id="edge42" class="edge">
<title>Node18&#45;&gt;Node32</title>
<path fill="none" stroke="midnightblue" d="M2045.91,-203.2C2074.04,-192.19 2115.27,-176.04 2144.67,-164.53"/>
<polygon fill="midnightblue" stroke="midnightblue" points="2044.58,-199.96 2036.54,-206.87 2047.13,-206.48 2044.58,-199.96"/>
</g>
<!-- Node33 -->
<g id="node33" class="node">
<title>Node33</title>
<g id="a_node33"><a xlink:href="../../d3/d86/page__format__combobox_8h.html" target="_top" xlink:title=" ">
<polygon fill="white" stroke="black" points="2793,-134.5 2793,-164.5 2918,-164.5 2918,-134.5 2793,-134.5"/>
<text text-anchor="start" x="2801" y="-152.5" font-family="Helvetica,sans-Serif" font-size="10.00">src/libs/vwidgets/page</text>
<text text-anchor="middle" x="2855.5" y="-141.5" font-family="Helvetica,sans-Serif" font-size="10.00">_format_combobox.h</text>
</a>
</g>
</g>
<!-- Node18&#45;&gt;Node33 -->
<g id="edge43" class="edge">
<title>Node18&#45;&gt;Node33</title>
<path fill="none" stroke="midnightblue" d="M2077.91,-205.57C2090.03,-203.88 2102.64,-202.26 2114.5,-201 2245.44,-187.06 2639.14,-163.22 2792.95,-154.15"/>
<polygon fill="midnightblue" stroke="midnightblue" points="2077.27,-202.12 2067.86,-207 2078.25,-209.05 2077.27,-202.12"/>
</g>
<!-- Node35 -->
<g id="node35" class="node">
<title>Node35</title>
<g id="a_node35"><a xlink:href="../../de/d22/vsimplecurve_8cpp.html" target="_top" xlink:title=" ">
<polygon fill="white" stroke="black" points="2414.5,-140 2414.5,-159 2602.5,-159 2602.5,-140 2414.5,-140"/>
<text text-anchor="middle" x="2508.5" y="-147" font-family="Helvetica,sans-Serif" font-size="10.00">src/libs/vwidgets/vsimplecurve.cpp</text>
</a>
</g>
</g>
<!-- Node18&#45;&gt;Node35 -->
<g id="edge45" class="edge">
<title>Node18&#45;&gt;Node35</title>
<path fill="none" stroke="midnightblue" d="M2081.78,-205.55C2092.71,-203.99 2103.92,-202.42 2114.5,-201 2243.66,-183.65 2276.31,-182.08 2405.5,-165 2419.64,-163.13 2434.87,-161.03 2449.16,-159.03"/>
<polygon fill="midnightblue" stroke="midnightblue" points="2081.25,-202.09 2071.85,-206.97 2082.24,-209.02 2081.25,-202.09"/>
</g>
<!-- Node20 -->
<g id="node20" class="node">
<title>Node20</title>
<g id="a_node20"><a xlink:href="../../dd/d66/vdxfengine_8cpp.html" target="_top" xlink:title=" ">
<polygon fill="white" stroke="black" points="2476.5,-73 2476.5,-92 2630.5,-92 2630.5,-73 2476.5,-73"/>
<text text-anchor="middle" x="2553.5" y="-80" font-family="Helvetica,sans-Serif" font-size="10.00">src/libs/vdxf/vdxfengine.cpp</text>
</a>
</g>
</g>
<!-- Node19&#45;&gt;Node20 -->
<g id="edge28" class="edge">
<title>Node19&#45;&gt;Node20</title>
<path fill="none" stroke="midnightblue" d="M2075.67,-138.36C2085.95,-136.8 2096.52,-135.28 2106.5,-134 2266.42,-113.44 2307.69,-119.42 2467.5,-98 2480.11,-96.31 2493.7,-94.17 2506.27,-92.05"/>
<polygon fill="midnightblue" stroke="midnightblue" points="2074.87,-134.94 2065.52,-139.93 2075.94,-141.86 2074.87,-134.94"/>
</g>
<!-- Node21 -->
<g id="node21" class="node">
<title>Node21</title>
<g id="a_node21"><a xlink:href="../../de/da8/vbank_8cpp.html" target="_top" xlink:title=" ">
<polygon fill="white" stroke="black" points="2648.5,-73 2648.5,-92 2792.5,-92 2792.5,-73 2648.5,-73"/>
<text text-anchor="middle" x="2720.5" y="-80" font-family="Helvetica,sans-Serif" font-size="10.00">src/libs/vlayout/vbank.cpp</text>
</a>
</g>
</g>
<!-- Node19&#45;&gt;Node21 -->
<g id="edge29" class="edge">
<title>Node19&#45;&gt;Node21</title>
<path fill="none" stroke="midnightblue" d="M2073.48,-138.41C2084.44,-136.76 2095.8,-135.2 2106.5,-134 2342.44,-107.49 2403.84,-126.96 2639.5,-98 2651.98,-96.47 2665.45,-94.27 2677.75,-92.06"/>
<polygon fill="midnightblue" stroke="midnightblue" points="2072.92,-134.95 2063.57,-139.94 2073.99,-141.87 2072.92,-134.95"/>
</g>
<!-- Node22 -->
<g id="node22" class="node">
<title>Node22</title>
<g id="a_node22"><a xlink:href="../../d3/d39/vlayoutgenerator_8cpp.html" target="_top" xlink:title=" ">
<polygon fill="white" stroke="black" points="1489,-73 1489,-92 1686,-92 1686,-73 1489,-73"/>
<text text-anchor="middle" x="1587.5" y="-80" font-family="Helvetica,sans-Serif" font-size="10.00">src/libs/vlayout/vlayoutgenerator.cpp</text>
</a>
</g>
</g>
<!-- Node19&#45;&gt;Node22 -->
<g id="edge30" class="edge">
<title>Node19&#45;&gt;Node22</title>
<path fill="none" stroke="midnightblue" d="M1950.44,-138.35C1941.07,-136.88 1931.54,-135.39 1922.5,-134 1824.99,-118.97 1711.43,-101.95 1644.72,-92.01"/>
<polygon fill="midnightblue" stroke="midnightblue" points="1950.09,-141.83 1960.51,-139.93 1951.17,-134.92 1950.09,-141.83"/>
</g>
<!-- Node23 -->
<g id="node23" class="node">
<title>Node23</title>
<g id="a_node23"><a xlink:href="../../d2/d2d/vlayoutpaper__p_8h.html" target="_top" xlink:title=" ">
<polygon fill="white" stroke="black" points="1743,-73 1743,-92 1922,-92 1922,-73 1743,-73"/>
<text text-anchor="middle" x="1832.5" y="-80" font-family="Helvetica,sans-Serif" font-size="10.00">src/libs/vlayout/vlayoutpaper_p.h</text>
</a>
</g>
</g>
<!-- Node19&#45;&gt;Node23 -->
<g id="edge31" class="edge">
<title>Node19&#45;&gt;Node23</title>
<path fill="none" stroke="midnightblue" d="M1980.72,-136.44C1944.62,-123.54 1888.29,-103.42 1856.48,-92.06"/>
<polygon fill="midnightblue" stroke="midnightblue" points="1979.74,-139.8 1990.33,-139.87 1982.09,-133.21 1979.74,-139.8"/>
</g>
<!-- Node24 -->
<g id="node24" class="node">
<title>Node24</title>
<g id="a_node24"><a xlink:href="../../d1/dd1/vlayoutpaper_8cpp.html" target="_top" xlink:title=" ">
<polygon fill="white" stroke="black" points="1741.5,-6 1741.5,-25 1919.5,-25 1919.5,-6 1741.5,-6"/>
<text text-anchor="middle" x="1830.5" y="-13" font-family="Helvetica,sans-Serif" font-size="10.00">src/libs/vlayout/vlayoutpaper.cpp</text>
</a>
</g>
</g>
<!-- Node19&#45;&gt;Node24 -->
<g id="edge33" class="edge">
<title>Node19&#45;&gt;Node24</title>
<path fill="none" stroke="midnightblue" d="M1951.98,-138.28C1870.26,-124.78 1737.02,-102.21 1733.5,-98 1707.68,-67.12 1768.34,-38.74 1805.04,-25.07"/>
<polygon fill="midnightblue" stroke="midnightblue" points="1951.73,-141.79 1962.17,-139.96 1952.87,-134.88 1951.73,-141.79"/>
</g>
<!-- Node25 -->
<g id="node25" class="node">
<title>Node25</title>
<g id="a_node25"><a xlink:href="../../df/d5d/vcontour_8cpp.html" target="_top" xlink:title=" ">
<polygon fill="white" stroke="black" points="2106.5,-73 2106.5,-92 2262.5,-92 2262.5,-73 2106.5,-73"/>
<text text-anchor="middle" x="2184.5" y="-80" font-family="Helvetica,sans-Serif" font-size="10.00">src/libs/vlayout/vcontour.cpp</text>
</a>
</g>
</g>
<!-- Node19&#45;&gt;Node25 -->
<g id="edge34" class="edge">
<title>Node19&#45;&gt;Node25</title>
<path fill="none" stroke="midnightblue" d="M2046.48,-136.27C2080.22,-123.37 2132.52,-103.38 2162.1,-92.06"/>
<polygon fill="midnightblue" stroke="midnightblue" points="2045.17,-133.03 2037.07,-139.87 2047.67,-139.57 2045.17,-133.03"/>
</g>
<!-- Node26 -->
<g id="node26" class="node">
<title>Node26</title>
<g id="a_node26"><a xlink:href="../../db/d5c/vposition_8h.html" target="_top" xlink:title=" ">
<polygon fill="white" stroke="black" points="1940.5,-73 1940.5,-92 2088.5,-92 2088.5,-73 1940.5,-73"/>
<text text-anchor="middle" x="2014.5" y="-80" font-family="Helvetica,sans-Serif" font-size="10.00">src/libs/vlayout/vposition.h</text>
</a>
</g>
</g>
<!-- Node19&#45;&gt;Node26 -->
<g id="edge35" class="edge">
<title>Node19&#45;&gt;Node26</title>
<path fill="none" stroke="midnightblue" d="M2014.5,-129.54C2014.5,-117.17 2014.5,-101.62 2014.5,-92.13"/>
<polygon fill="midnightblue" stroke="midnightblue" points="2011,-129.73 2014.5,-139.73 2018,-129.73 2011,-129.73"/>
</g>
<!-- Node28 -->
<g id="node28" class="node">
<title>Node28</title>
<g id="a_node28"><a xlink:href="../../dd/d70/vlayoutpiece_8cpp.html" target="_top" xlink:title=" ">
<polygon fill="white" stroke="black" points="2281,-73 2281,-92 2458,-92 2458,-73 2281,-73"/>
<text text-anchor="middle" x="2369.5" y="-80" font-family="Helvetica,sans-Serif" font-size="10.00">src/libs/vlayout/vlayoutpiece.cpp</text>
</a>
</g>
</g>
<!-- Node19&#45;&gt;Node28 -->
<g id="edge38" class="edge">
<title>Node19&#45;&gt;Node28</title>
<path fill="none" stroke="midnightblue" d="M2071.21,-138.12C2140.99,-125.34 2258.13,-103.89 2322.9,-92.03"/>
<polygon fill="midnightblue" stroke="midnightblue" points="2070.48,-134.69 2061.28,-139.94 2071.74,-141.58 2070.48,-134.69"/>
</g>
<!-- Node23&#45;&gt;Node24 -->
<g id="edge32" class="edge">
<title>Node23&#45;&gt;Node24</title>
<path fill="none" stroke="midnightblue" d="M1831.92,-62.54C1831.54,-50.17 1831.06,-34.62 1830.77,-25.13"/>
<polygon fill="midnightblue" stroke="midnightblue" points="1828.42,-62.85 1832.23,-72.73 1835.42,-62.63 1828.42,-62.85"/>
</g>
<!-- Node26&#45;&gt;Node24 -->
<g id="edge36" class="edge">
<title>Node26&#45;&gt;Node24</title>
<path fill="none" stroke="midnightblue" d="M1980.35,-69.44C1943.85,-56.54 1886.9,-36.42 1854.74,-25.06"/>
<polygon fill="midnightblue" stroke="midnightblue" points="1979.47,-72.84 1990.07,-72.87 1981.8,-66.24 1979.47,-72.84"/>
</g>
<!-- Node27 -->
<g id="node27" class="node">
<title>Node27</title>
<g id="a_node27"><a xlink:href="../../df/d76/vposition_8cpp.html" target="_top" xlink:title=" ">
<polygon fill="white" stroke="black" points="1937,-6 1937,-25 2096,-25 2096,-6 1937,-6"/>
<text text-anchor="middle" x="2016.5" y="-13" font-family="Helvetica,sans-Serif" font-size="10.00">src/libs/vlayout/vposition.cpp</text>
</a>
</g>
</g>
<!-- Node26&#45;&gt;Node27 -->
<g id="edge37" class="edge">
<title>Node26&#45;&gt;Node27</title>
<path fill="none" stroke="midnightblue" d="M2015.08,-62.54C2015.46,-50.17 2015.94,-34.62 2016.23,-25.13"/>
<polygon fill="midnightblue" stroke="midnightblue" points="2011.58,-62.63 2014.77,-72.73 2018.58,-62.85 2011.58,-62.63"/>
</g>
<!-- Node31 -->
<g id="node31" class="node">
<title>Node31</title>
<g id="a_node31"><a xlink:href="../../df/d40/export__format__combobox_8cpp.html" target="_top" xlink:title=" ">
<polygon fill="white" stroke="black" points="2811,-67.5 2811,-97.5 2944,-97.5 2944,-67.5 2811,-67.5"/>
<text text-anchor="start" x="2819" y="-85.5" font-family="Helvetica,sans-Serif" font-size="10.00">src/libs/vwidgets/export</text>
<text text-anchor="middle" x="2877.5" y="-74.5" font-family="Helvetica,sans-Serif" font-size="10.00">_format_combobox.cpp</text>
</a>
</g>
</g>
<!-- Node30&#45;&gt;Node31 -->
<g id="edge41" class="edge">
<title>Node30&#45;&gt;Node31</title>
<path fill="none" stroke="midnightblue" d="M2406.29,-133.99C2582.26,-109.89 2629.74,-122.13 2801.5,-98 2804.56,-97.57 2807.68,-97.1 2810.83,-96.6"/>
<polygon fill="midnightblue" stroke="midnightblue" points="2405.59,-130.55 2396.17,-135.4 2406.55,-137.49 2405.59,-130.55"/>
</g>
<!-- Node34 -->
<g id="node34" class="node">
<title>Node34</title>
<g id="a_node34"><a xlink:href="../../d2/d28/page__format__combobox_8cpp.html" target="_top" xlink:title=" ">
<polygon fill="white" stroke="black" points="2962,-67.5 2962,-97.5 3093,-97.5 3093,-67.5 2962,-67.5"/>
<text text-anchor="start" x="2970" y="-85.5" font-family="Helvetica,sans-Serif" font-size="10.00">src/libs/vwidgets/page</text>
<text text-anchor="middle" x="3027.5" y="-74.5" font-family="Helvetica,sans-Serif" font-size="10.00">_format_combobox.cpp</text>
</a>
</g>
</g>
<!-- Node33&#45;&gt;Node34 -->
<g id="edge44" class="edge">
<title>Node33&#45;&gt;Node34</title>
<path fill="none" stroke="midnightblue" d="M2902.29,-130.82C2929.93,-120.37 2964.46,-107.32 2990.25,-97.58"/>
<polygon fill="midnightblue" stroke="midnightblue" points="2900.94,-127.59 2892.82,-134.4 2903.41,-134.13 2900.94,-127.59"/>
</g>
<!-- Node37&#45;&gt;Node7 -->
<g id="edge49" class="edge">
<title>Node37&#45;&gt;Node7</title>
<path fill="none" stroke="midnightblue" d="M1253.46,-196.64C1247.02,-163.67 1228.62,-96.27 1182.5,-67 1140.67,-40.45 1087.13,-27.65 1041.62,-21.57"/>
<polygon fill="midnightblue" stroke="midnightblue" points="1250.06,-197.52 1255.26,-206.75 1256.95,-196.29 1250.06,-197.52"/>
</g>
<!-- Node38&#45;&gt;Node14 -->
<g id="edge51" class="edge">
<title>Node38&#45;&gt;Node14</title>
<path fill="none" stroke="midnightblue" d="M285.74,-205.15C247.61,-197.94 204.56,-185.72 169.5,-165 137.58,-146.14 111.54,-109.06 100.8,-92.21"/>
<polygon fill="midnightblue" stroke="midnightblue" points="285.37,-208.64 295.84,-206.97 286.61,-201.75 285.37,-208.64"/>
</g>
</g>
</svg>
