<?xml version="1.0" encoding="UTF-8" standalone="no"?>
<!DOCTYPE svg PUBLIC "-//W3C//DTD SVG 1.1//EN"
 "http://www.w3.org/Graphics/SVG/1.1/DTD/svg11.dtd">
<!-- Generated by graphviz version 2.43.0 (0)
 -->
<!-- Title: src/libs/ifc/xml/vdomdocument.h Pages: 1 -->
<svg width="3095pt" height="274pt"
 viewBox="0.00 0.00 3095.00 274.00" xmlns="http://www.w3.org/2000/svg" xmlns:xlink="http://www.w3.org/1999/xlink">
<g id="graph0" class="graph" transform="scale(1 1) rotate(0) translate(4 270)">
<title>src/libs/ifc/xml/vdomdocument.h</title>
<polygon fill="white" stroke="transparent" points="-4,4 -4,-270 3091,-270 3091,4 -4,4"/>
<!-- Node1 -->
<g id="node1" class="node">
<title>Node1</title>
<g id="a_node1"><a xlink:title=" ">
<polygon fill="#bfbfbf" stroke="black" points="760.5,-246.5 760.5,-265.5 936.5,-265.5 936.5,-246.5 760.5,-246.5"/>
<text text-anchor="middle" x="848.5" y="-253.5" font-family="Helvetica,sans-Serif" font-size="10.00">src/libs/ifc/xml/vdomdocument.h</text>
</a>
</g>
</g>
<!-- Node2 -->
<g id="node2" class="node">
<title>Node2</title>
<g id="a_node2"><a xlink:href="../../df/de4/vabstractconverter_8h.html" target="_top" xlink:title=" ">
<polygon fill="white" stroke="black" points="753,-190.5 753,-209.5 944,-209.5 944,-190.5 753,-190.5"/>
<text text-anchor="middle" x="848.5" y="-197.5" font-family="Helvetica,sans-Serif" font-size="10.00">src/libs/ifc/xml/vabstractconverter.h</text>
</a>
</g>
</g>
<!-- Node1&#45;&gt;Node2 -->
<g id="edge1" class="edge">
<title>Node1&#45;&gt;Node2</title>
<path fill="none" stroke="midnightblue" d="M848.5,-235.8C848.5,-226.91 848.5,-216.78 848.5,-209.75"/>
<polygon fill="midnightblue" stroke="midnightblue" points="845,-236.08 848.5,-246.08 852,-236.08 845,-236.08"/>
</g>
<!-- Node3 -->
<g id="node3" class="node">
<title>Node3</title>
<g id="a_node3"><a xlink:href="../../d4/d9f/vabstractconverter_8cpp.html" target="_top" xlink:title=" ">
<polygon fill="white" stroke="black" points="169,-129 169,-148 372,-148 372,-129 169,-129"/>
<text text-anchor="middle" x="270.5" y="-136" font-family="Helvetica,sans-Serif" font-size="10.00">src/libs/ifc/xml/vabstractconverter.cpp</text>
</a>
</g>
</g>
<!-- Node1&#45;&gt;Node3 -->
<g id="edge24" class="edge">
<title>Node1&#45;&gt;Node3</title>
<path fill="none" stroke="midnightblue" d="M805,-243.99C750.27,-230.34 653.28,-206.82 569.5,-190 485.5,-173.14 387.46,-157.3 327.18,-148.01"/>
<polygon fill="midnightblue" stroke="midnightblue" points="804.17,-247.39 814.72,-246.42 805.87,-240.6 804.17,-247.39"/>
</g>
<!-- Node17 -->
<g id="node17" class="node">
<title>Node17</title>
<g id="a_node17"><a xlink:href="../../de/d7d/vabstractpattern_8cpp.html" target="_top" xlink:title=" ">
<polygon fill="white" stroke="black" points="1422.5,-62 1422.5,-81 1614.5,-81 1614.5,-62 1422.5,-62"/>
<text text-anchor="middle" x="1518.5" y="-69" font-family="Helvetica,sans-Serif" font-size="10.00">src/libs/ifc/xml/vabstractpattern.cpp</text>
</a>
</g>
</g>
<!-- Node1&#45;&gt;Node17 -->
<g id="edge45" class="edge">
<title>Node1&#45;&gt;Node17</title>
<path fill="none" stroke="midnightblue" d="M946.93,-250.62C1061.71,-242.54 1255.13,-219.51 1407.5,-154 1450.33,-135.59 1492.31,-97.94 1509.89,-81.04"/>
<polygon fill="midnightblue" stroke="midnightblue" points="946.5,-247.15 936.76,-251.32 946.98,-254.13 946.5,-247.15"/>
</g>
<!-- Node18 -->
<g id="node18" class="node">
<title>Node18</title>
<g id="a_node18"><a xlink:href="../../d0/d89/vabstractpattern_8h.html" target="_top" xlink:title=" ">
<polygon fill="white" stroke="black" points="2038,-190.5 2038,-209.5 2219,-209.5 2219,-190.5 2038,-190.5"/>
<text text-anchor="middle" x="2128.5" y="-197.5" font-family="Helvetica,sans-Serif" font-size="10.00">src/libs/ifc/xml/vabstractpattern.h</text>
</a>
</g>
</g>
<!-- Node1&#45;&gt;Node18 -->
<g id="edge25" class="edge">
<title>Node1&#45;&gt;Node18</title>
<path fill="none" stroke="midnightblue" d="M946.88,-250.85C1187.89,-240.68 1805.05,-214.65 2037.82,-204.83"/>
<polygon fill="midnightblue" stroke="midnightblue" points="946.58,-247.36 936.73,-251.28 946.87,-254.35 946.58,-247.36"/>
</g>
<!-- Node34 -->
<g id="node34" class="node">
<title>Node34</title>
<g id="a_node34"><a xlink:href="../../d7/d49/vdomdocument_8cpp.html" target="_top" xlink:title=" ">
<polygon fill="white" stroke="black" points="2237.5,-190.5 2237.5,-209.5 2425.5,-209.5 2425.5,-190.5 2237.5,-190.5"/>
<text text-anchor="middle" x="2331.5" y="-197.5" font-family="Helvetica,sans-Serif" font-size="10.00">src/libs/ifc/xml/vdomdocument.cpp</text>
</a>
</g>
</g>
<!-- Node1&#45;&gt;Node34 -->
<g id="edge44" class="edge">
<title>Node1&#45;&gt;Node34</title>
<path fill="none" stroke="midnightblue" d="M946.75,-253.64C1173.03,-250.09 1748.34,-238.78 2228.5,-210 2231.46,-209.82 2234.46,-209.63 2237.49,-209.43"/>
<polygon fill="midnightblue" stroke="midnightblue" points="946.51,-250.14 936.57,-253.79 946.62,-257.14 946.51,-250.14"/>
</g>
<!-- Node35 -->
<g id="node35" class="node">
<title>Node35</title>
<g id="a_node35"><a xlink:href="../../d2/d8a/vlabeltemplate_8h.html" target="_top" xlink:title=" ">
<polygon fill="white" stroke="black" points="382,-190.5 382,-209.5 561,-209.5 561,-190.5 382,-190.5"/>
<text text-anchor="middle" x="471.5" y="-197.5" font-family="Helvetica,sans-Serif" font-size="10.00">src/libs/vformat/vlabeltemplate.h</text>
</a>
</g>
</g>
<!-- Node1&#45;&gt;Node35 -->
<g id="edge46" class="edge">
<title>Node1&#45;&gt;Node35</title>
<path fill="none" stroke="midnightblue" d="M778.54,-244.98C707.33,-234.78 598.12,-219.14 530.96,-209.52"/>
<polygon fill="midnightblue" stroke="midnightblue" points="778.37,-248.49 788.76,-246.44 779.36,-241.56 778.37,-248.49"/>
</g>
<!-- Node36 -->
<g id="node36" class="node">
<title>Node36</title>
<g id="a_node36"><a xlink:href="../../d4/dd6/vmeasurements_8h.html" target="_top" xlink:title=" ">
<polygon fill="white" stroke="black" points="0,-190.5 0,-209.5 185,-209.5 185,-190.5 0,-190.5"/>
<text text-anchor="middle" x="92.5" y="-197.5" font-family="Helvetica,sans-Serif" font-size="10.00">src/libs/vformat/vmeasurements.h</text>
</a>
</g>
</g>
<!-- Node1&#45;&gt;Node36 -->
<g id="edge48" class="edge">
<title>Node1&#45;&gt;Node36</title>
<path fill="none" stroke="midnightblue" d="M749.94,-247.96C603.03,-237.47 328.56,-217.86 185.15,-207.62"/>
<polygon fill="midnightblue" stroke="midnightblue" points="750.07,-251.48 760.3,-248.7 750.57,-244.5 750.07,-251.48"/>
</g>
<!-- Node2&#45;&gt;Node3 -->
<g id="edge2" class="edge">
<title>Node2&#45;&gt;Node3</title>
<path fill="none" stroke="midnightblue" d="M742.54,-189.82C647.82,-181.37 505.27,-168.04 381.5,-154 365.76,-152.21 348.79,-150.1 332.98,-148.04"/>
<polygon fill="midnightblue" stroke="midnightblue" points="742.43,-193.32 752.7,-190.72 743.05,-186.35 742.43,-193.32"/>
</g>
<!-- Node4 -->
<g id="node4" class="node">
<title>Node4</title>
<g id="a_node4"><a xlink:href="../../d6/d2d/vabstractmconverter_8h.html" target="_top" xlink:title=" ">
<polygon fill="white" stroke="black" points="877,-129 877,-148 1078,-148 1078,-129 877,-129"/>
<text text-anchor="middle" x="977.5" y="-136" font-family="Helvetica,sans-Serif" font-size="10.00">src/libs/ifc/xml/vabstractmconverter.h</text>
</a>
</g>
</g>
<!-- Node2&#45;&gt;Node4 -->
<g id="edge3" class="edge">
<title>Node2&#45;&gt;Node4</title>
<path fill="none" stroke="midnightblue" d="M876.31,-186.17C901.34,-174.63 937.42,-157.99 959.05,-148.01"/>
<polygon fill="midnightblue" stroke="midnightblue" points="874.6,-183.11 866.98,-190.48 877.53,-189.46 874.6,-183.11"/>
</g>
<!-- Node5 -->
<g id="node5" class="node">
<title>Node5</title>
<g id="a_node5"><a xlink:href="../../dd/d2b/vabstractmconverter_8cpp.html" target="_top" xlink:title=" ">
<polygon fill="white" stroke="black" points="718.5,-62 718.5,-81 930.5,-81 930.5,-62 718.5,-62"/>
<text text-anchor="middle" x="824.5" y="-69" font-family="Helvetica,sans-Serif" font-size="10.00">src/libs/ifc/xml/vabstractmconverter.cpp</text>
</a>
</g>
</g>
<!-- Node2&#45;&gt;Node5 -->
<g id="edge13" class="edge">
<title>Node2&#45;&gt;Node5</title>
<path fill="none" stroke="midnightblue" d="M844.95,-180.31C839.69,-152.58 830.03,-101.63 826.16,-81.26"/>
<polygon fill="midnightblue" stroke="midnightblue" points="841.55,-181.13 846.85,-190.31 848.42,-179.83 841.55,-181.13"/>
</g>
<!-- Node6 -->
<g id="node6" class="node">
<title>Node6</title>
<g id="a_node6"><a xlink:href="../../d1/d8f/vvitconverter_8h.html" target="_top" xlink:title=" ">
<polygon fill="white" stroke="black" points="1024.5,-62 1024.5,-81 1188.5,-81 1188.5,-62 1024.5,-62"/>
<text text-anchor="middle" x="1106.5" y="-69" font-family="Helvetica,sans-Serif" font-size="10.00">src/libs/ifc/xml/vvitconverter.h</text>
</a>
</g>
</g>
<!-- Node2&#45;&gt;Node6 -->
<g id="edge21" class="edge">
<title>Node2&#45;&gt;Node6</title>
<path fill="none" stroke="midnightblue" d="M954.32,-190.21C1008.53,-183.56 1067.14,-172.35 1086.5,-154 1107.02,-134.56 1107.92,-97.78 1107.16,-81.1"/>
<polygon fill="midnightblue" stroke="midnightblue" points="953.78,-186.74 944.26,-191.39 954.6,-193.7 953.78,-186.74"/>
</g>
<!-- Node9 -->
<g id="node9" class="node">
<title>Node9</title>
<g id="a_node9"><a xlink:href="../../d2/d10/vvstconverter_8h.html" target="_top" xlink:title=" ">
<polygon fill="white" stroke="black" points="534,-62 534,-81 701,-81 701,-62 534,-62"/>
<text text-anchor="middle" x="617.5" y="-69" font-family="Helvetica,sans-Serif" font-size="10.00">src/libs/ifc/xml/vvstconverter.h</text>
</a>
</g>
</g>
<!-- Node2&#45;&gt;Node9 -->
<g id="edge22" class="edge">
<title>Node2&#45;&gt;Node9</title>
<path fill="none" stroke="midnightblue" d="M742.7,-191.04C712.71,-184.53 681.67,-173.27 657.5,-154 633.59,-134.94 622.95,-97.96 619.19,-81.17"/>
<polygon fill="midnightblue" stroke="midnightblue" points="742.33,-194.54 752.82,-193.07 743.71,-187.67 742.33,-194.54"/>
</g>
<!-- Node11 -->
<g id="node11" class="node">
<title>Node11</title>
<g id="a_node11"><a xlink:href="../../d4/d90/fvupdater_8cpp.html" target="_top" xlink:title=" ">
<polygon fill="white" stroke="black" points="667,-129 667,-148 820,-148 820,-129 667,-129"/>
<text text-anchor="middle" x="743.5" y="-136" font-family="Helvetica,sans-Serif" font-size="10.00">src/libs/fervor/fvupdater.cpp</text>
</a>
</g>
</g>
<!-- Node2&#45;&gt;Node11 -->
<g id="edge14" class="edge">
<title>Node2&#45;&gt;Node11</title>
<path fill="none" stroke="midnightblue" d="M824.5,-185.4C804.2,-173.9 775.74,-157.77 758.52,-148.01"/>
<polygon fill="midnightblue" stroke="midnightblue" points="823.03,-188.59 833.46,-190.48 826.48,-182.5 823.03,-188.59"/>
</g>
<!-- Node12 -->
<g id="node12" class="node">
<title>Node12</title>
<g id="a_node12"><a xlink:href="../../d5/d35/vlabeltemplateconverter_8h.html" target="_top" xlink:title=" ">
<polygon fill="white" stroke="black" points="390.5,-129 390.5,-148 610.5,-148 610.5,-129 390.5,-129"/>
<text text-anchor="middle" x="500.5" y="-136" font-family="Helvetica,sans-Serif" font-size="10.00">src/libs/ifc/xml/vlabeltemplateconverter.h</text>
</a>
</g>
</g>
<!-- Node2&#45;&gt;Node12 -->
<g id="edge15" class="edge">
<title>Node2&#45;&gt;Node12</title>
<path fill="none" stroke="midnightblue" d="M788.6,-188.76C721.27,-177.25 613.15,-158.76 550.27,-148.01"/>
<polygon fill="midnightblue" stroke="midnightblue" points="788.19,-192.24 798.64,-190.48 789.37,-185.34 788.19,-192.24"/>
</g>
<!-- Node15 -->
<g id="node15" class="node">
<title>Node15</title>
<g id="a_node15"><a xlink:href="../../df/d2f/vpatternconverter_8h.html" target="_top" xlink:title=" ">
<polygon fill="white" stroke="black" points="1212,-129 1212,-148 1399,-148 1399,-129 1212,-129"/>
<text text-anchor="middle" x="1305.5" y="-136" font-family="Helvetica,sans-Serif" font-size="10.00">src/libs/ifc/xml/vpatternconverter.h</text>
</a>
</g>
</g>
<!-- Node2&#45;&gt;Node15 -->
<g id="edge18" class="edge">
<title>Node2&#45;&gt;Node15</title>
<path fill="none" stroke="midnightblue" d="M923.91,-189.18C1012.08,-177.7 1156.55,-158.89 1240.14,-148.01"/>
<polygon fill="midnightblue" stroke="midnightblue" points="923.44,-185.71 913.98,-190.48 924.35,-192.65 923.44,-185.71"/>
</g>
<!-- Node16 -->
<g id="node16" class="node">
<title>Node16</title>
<g id="a_node16"><a xlink:href="../../d5/d2c/vpatternconverter_8cpp.html" target="_top" xlink:title=" ">
<polygon fill="white" stroke="black" points="1206.5,-62 1206.5,-81 1404.5,-81 1404.5,-62 1206.5,-62"/>
<text text-anchor="middle" x="1305.5" y="-69" font-family="Helvetica,sans-Serif" font-size="10.00">src/libs/ifc/xml/vpatternconverter.cpp</text>
</a>
</g>
</g>
<!-- Node2&#45;&gt;Node16 -->
<g id="edge23" class="edge">
<title>Node2&#45;&gt;Node16</title>
<path fill="none" stroke="midnightblue" d="M934.41,-189.11C985.84,-181.97 1052.16,-170.64 1109.5,-154 1178.16,-134.08 1255.32,-97.55 1288.66,-81.02"/>
<polygon fill="midnightblue" stroke="midnightblue" points="933.76,-185.66 924.32,-190.48 934.7,-192.6 933.76,-185.66"/>
</g>
<!-- Node4&#45;&gt;Node5 -->
<g id="edge4" class="edge">
<title>Node4&#45;&gt;Node5</title>
<path fill="none" stroke="midnightblue" d="M947.96,-124.95C917.66,-112.08 871.35,-92.4 844.9,-81.17"/>
<polygon fill="midnightblue" stroke="midnightblue" points="946.61,-128.18 957.18,-128.87 949.35,-121.74 946.61,-128.18"/>
</g>
<!-- Node4&#45;&gt;Node6 -->
<g id="edge5" class="edge">
<title>Node4&#45;&gt;Node6</title>
<path fill="none" stroke="midnightblue" d="M1003.75,-124.27C1029.3,-111.4 1067.39,-92.21 1089.3,-81.17"/>
<polygon fill="midnightblue" stroke="midnightblue" points="1001.99,-121.24 994.63,-128.87 1005.14,-127.49 1001.99,-121.24"/>
</g>
<!-- Node7 -->
<g id="node7" class="node">
<title>Node7</title>
<g id="a_node7"><a xlink:href="../../d5/dba/vvitconverter_8cpp.html" target="_top" xlink:title=" ">
<polygon fill="white" stroke="black" points="974.5,-0.5 974.5,-19.5 1150.5,-19.5 1150.5,-0.5 974.5,-0.5"/>
<text text-anchor="middle" x="1062.5" y="-7.5" font-family="Helvetica,sans-Serif" font-size="10.00">src/libs/ifc/xml/vvitconverter.cpp</text>
</a>
</g>
</g>
<!-- Node4&#45;&gt;Node7 -->
<g id="edge8" class="edge">
<title>Node4&#45;&gt;Node7</title>
<path fill="none" stroke="midnightblue" d="M983.71,-119.41C990.12,-102.18 1001.19,-75.97 1015.5,-56 1025.76,-41.67 1040.97,-28.1 1051.29,-19.68"/>
<polygon fill="midnightblue" stroke="midnightblue" points="980.4,-118.26 980.33,-128.85 986.99,-120.61 980.4,-118.26"/>
</g>
<!-- Node4&#45;&gt;Node9 -->
<g id="edge9" class="edge">
<title>Node4&#45;&gt;Node9</title>
<path fill="none" stroke="midnightblue" d="M919.99,-127.12C849.23,-114.34 730.44,-92.89 664.75,-81.03"/>
<polygon fill="midnightblue" stroke="midnightblue" points="919.6,-130.6 930.07,-128.94 920.85,-123.71 919.6,-130.6"/>
</g>
<!-- Node10 -->
<g id="node10" class="node">
<title>Node10</title>
<g id="a_node10"><a xlink:href="../../d0/dd6/vvstconverter_8cpp.html" target="_top" xlink:title=" ">
<polygon fill="white" stroke="black" points="756.5,-0.5 756.5,-19.5 934.5,-19.5 934.5,-0.5 756.5,-0.5"/>
<text text-anchor="middle" x="845.5" y="-7.5" font-family="Helvetica,sans-Serif" font-size="10.00">src/libs/ifc/xml/vvstconverter.cpp</text>
</a>
</g>
</g>
<!-- Node4&#45;&gt;Node10 -->
<g id="edge12" class="edge">
<title>Node4&#45;&gt;Node10</title>
<path fill="none" stroke="midnightblue" d="M972.86,-119.12C967.49,-101.06 957.04,-73.72 939.5,-56 921.93,-38.25 895.99,-26.56 875.81,-19.56"/>
<polygon fill="midnightblue" stroke="midnightblue" points="969.49,-120.05 975.52,-128.76 976.24,-118.19 969.49,-120.05"/>
</g>
<!-- Node6&#45;&gt;Node7 -->
<g id="edge6" class="edge">
<title>Node6&#45;&gt;Node7</title>
<path fill="none" stroke="midnightblue" d="M1094.18,-53.84C1085.92,-42.67 1075.39,-28.43 1068.79,-19.51"/>
<polygon fill="midnightblue" stroke="midnightblue" points="1091.44,-56.02 1100.2,-61.98 1097.06,-51.85 1091.44,-56.02"/>
</g>
<!-- Node8 -->
<g id="node8" class="node">
<title>Node8</title>
<g id="a_node8"><a xlink:href="../../de/db3/vmeasurements_8cpp.html" target="_top" xlink:title=" ">
<polygon fill="white" stroke="black" points="519.5,-0.5 519.5,-19.5 715.5,-19.5 715.5,-0.5 519.5,-0.5"/>
<text text-anchor="middle" x="617.5" y="-7.5" font-family="Helvetica,sans-Serif" font-size="10.00">src/libs/vformat/vmeasurements.cpp</text>
</a>
</g>
</g>
<!-- Node6&#45;&gt;Node8 -->
<g id="edge7" class="edge">
<title>Node6&#45;&gt;Node8</title>
<path fill="none" stroke="midnightblue" d="M1026.38,-60.75C932.09,-49.28 777.06,-30.41 687.43,-19.51"/>
<polygon fill="midnightblue" stroke="midnightblue" points="1026.09,-64.24 1036.44,-61.98 1026.93,-57.29 1026.09,-64.24"/>
</g>
<!-- Node9&#45;&gt;Node8 -->
<g id="edge11" class="edge">
<title>Node9&#45;&gt;Node8</title>
<path fill="none" stroke="midnightblue" d="M617.5,-51.82C617.5,-41 617.5,-27.9 617.5,-19.51"/>
<polygon fill="midnightblue" stroke="midnightblue" points="614,-51.98 617.5,-61.98 621,-51.98 614,-51.98"/>
</g>
<!-- Node9&#45;&gt;Node10 -->
<g id="edge10" class="edge">
<title>Node9&#45;&gt;Node10</title>
<path fill="none" stroke="midnightblue" d="M660.05,-59.4C704.33,-47.84 772.71,-30 812.89,-19.51"/>
<polygon fill="midnightblue" stroke="midnightblue" points="658.96,-56.06 650.17,-61.98 660.73,-62.84 658.96,-56.06"/>
</g>
<!-- Node13 -->
<g id="node13" class="node">
<title>Node13</title>
<g id="a_node13"><a xlink:href="../../d7/d63/vlabeltemplateconverter_8cpp.html" target="_top" xlink:title=" ">
<polygon fill="white" stroke="black" points="285,-62 285,-81 516,-81 516,-62 285,-62"/>
<text text-anchor="middle" x="400.5" y="-69" font-family="Helvetica,sans-Serif" font-size="10.00">src/libs/ifc/xml/vlabeltemplateconverter.cpp</text>
</a>
</g>
</g>
<!-- Node12&#45;&gt;Node13 -->
<g id="edge16" class="edge">
<title>Node12&#45;&gt;Node13</title>
<path fill="none" stroke="midnightblue" d="M478.61,-123.27C458.81,-110.4 430.31,-91.88 413.77,-81.13"/>
<polygon fill="midnightblue" stroke="midnightblue" points="476.72,-126.22 487.01,-128.73 480.54,-120.35 476.72,-126.22"/>
</g>
<!-- Node14 -->
<g id="node14" class="node">
<title>Node14</title>
<g id="a_node14"><a xlink:href="../../d9/daf/vlabeltemplate_8cpp.html" target="_top" xlink:title=" ">
<polygon fill="white" stroke="black" points="76,-62 76,-81 267,-81 267,-62 76,-62"/>
<text text-anchor="middle" x="171.5" y="-69" font-family="Helvetica,sans-Serif" font-size="10.00">src/libs/vformat/vlabeltemplate.cpp</text>
</a>
</g>
</g>
<!-- Node12&#45;&gt;Node14 -->
<g id="edge17" class="edge">
<title>Node12&#45;&gt;Node14</title>
<path fill="none" stroke="midnightblue" d="M447.14,-126.96C382.39,-114.16 274.47,-92.84 214.68,-81.03"/>
<polygon fill="midnightblue" stroke="midnightblue" points="446.66,-130.43 457.15,-128.94 448.02,-123.56 446.66,-130.43"/>
</g>
<!-- Node15&#45;&gt;Node16 -->
<g id="edge19" class="edge">
<title>Node15&#45;&gt;Node16</title>
<path fill="none" stroke="midnightblue" d="M1305.5,-118.54C1305.5,-106.17 1305.5,-90.62 1305.5,-81.13"/>
<polygon fill="midnightblue" stroke="midnightblue" points="1302,-118.73 1305.5,-128.73 1309,-118.73 1302,-118.73"/>
</g>
<!-- Node15&#45;&gt;Node17 -->
<g id="edge20" class="edge">
<title>Node15&#45;&gt;Node17</title>
<path fill="none" stroke="midnightblue" d="M1343.42,-125.93C1385.59,-113.06 1452.73,-92.57 1490.44,-81.06"/>
<polygon fill="midnightblue" stroke="midnightblue" points="1342.33,-122.6 1333.78,-128.87 1344.37,-129.3 1342.33,-122.6"/>
</g>
<!-- Node18&#45;&gt;Node17 -->
<g id="edge26" class="edge">
<title>Node18&#45;&gt;Node17</title>
<path fill="none" stroke="midnightblue" d="M2077.13,-188.35C1958.51,-163.75 1667.48,-103.39 1559.6,-81.02"/>
<polygon fill="midnightblue" stroke="midnightblue" points="2076.55,-191.8 2087.05,-190.4 2077.97,-184.95 2076.55,-191.8"/>
</g>
<!-- Node19 -->
<g id="node19" class="node">
<title>Node19</title>
<g id="a_node19"><a xlink:href="../../d6/de0/vlayoutpiece_8h.html" target="_top" xlink:title=" ">
<polygon fill="white" stroke="black" points="1949.5,-129 1949.5,-148 2115.5,-148 2115.5,-129 1949.5,-129"/>
<text text-anchor="middle" x="2032.5" y="-136" font-family="Helvetica,sans-Serif" font-size="10.00">src/libs/vlayout/vlayoutpiece.h</text>
</a>
</g>
</g>
<!-- Node18&#45;&gt;Node19 -->
<g id="edge27" class="edge">
<title>Node18&#45;&gt;Node19</title>
<path fill="none" stroke="midnightblue" d="M2106.05,-185.09C2087.53,-173.6 2061.83,-157.68 2046.23,-148.01"/>
<polygon fill="midnightblue" stroke="midnightblue" points="2104.4,-188.18 2114.75,-190.48 2108.09,-182.23 2104.4,-188.18"/>
</g>
<!-- Node29 -->
<g id="node29" class="node">
<title>Node29</title>
<g id="a_node29"><a xlink:href="../../d8/d70/vtextmanager_8cpp.html" target="_top" xlink:title=" ">
<polygon fill="white" stroke="black" points="2133.5,-129 2133.5,-148 2315.5,-148 2315.5,-129 2133.5,-129"/>
<text text-anchor="middle" x="2224.5" y="-136" font-family="Helvetica,sans-Serif" font-size="10.00">src/libs/vlayout/vtextmanager.cpp</text>
</a>
</g>
</g>
<!-- Node18&#45;&gt;Node29 -->
<g id="edge39" class="edge">
<title>Node18&#45;&gt;Node29</title>
<path fill="none" stroke="midnightblue" d="M2150.95,-185.09C2169.47,-173.6 2195.17,-157.68 2210.77,-148.01"/>
<polygon fill="midnightblue" stroke="midnightblue" points="2148.91,-182.23 2142.25,-190.48 2152.6,-188.18 2148.91,-182.23"/>
</g>
<!-- Node30 -->
<g id="node30" class="node">
<title>Node30</title>
<g id="a_node30"><a xlink:href="../../d0/da5/export__format__combobox_8h.html" target="_top" xlink:title=" ">
<polygon fill="white" stroke="black" points="2334,-123.5 2334,-153.5 2467,-153.5 2467,-123.5 2334,-123.5"/>
<text text-anchor="start" x="2342" y="-141.5" font-family="Helvetica,sans-Serif" font-size="10.00">src/libs/vwidgets/export</text>
<text text-anchor="middle" x="2400.5" y="-130.5" font-family="Helvetica,sans-Serif" font-size="10.00">_format_combobox.h</text>
</a>
</g>
</g>
<!-- Node18&#45;&gt;Node30 -->
<g id="edge40" class="edge">
<title>Node18&#45;&gt;Node30</title>
<path fill="none" stroke="midnightblue" d="M2177.45,-188.29C2221.9,-178.57 2287.76,-164.16 2336.39,-153.52"/>
<polygon fill="midnightblue" stroke="midnightblue" points="2176.49,-184.92 2167.47,-190.48 2177.99,-191.76 2176.49,-184.92"/>
</g>
<!-- Node32 -->
<g id="node32" class="node">
<title>Node32</title>
<g id="a_node32"><a xlink:href="../../d7/df4/group__tablewidgetitem_8cpp.html" target="_top" xlink:title=" ">
<polygon fill="white" stroke="black" points="2485,-123.5 2485,-153.5 2614,-153.5 2614,-123.5 2485,-123.5"/>
<text text-anchor="start" x="2493" y="-141.5" font-family="Helvetica,sans-Serif" font-size="10.00">src/libs/vwidgets/group</text>
<text text-anchor="middle" x="2549.5" y="-130.5" font-family="Helvetica,sans-Serif" font-size="10.00">_tablewidgetitem.cpp</text>
</a>
</g>
</g>
<!-- Node18&#45;&gt;Node32 -->
<g id="edge42" class="edge">
<title>Node18&#45;&gt;Node32</title>
<path fill="none" stroke="midnightblue" d="M2216.29,-189.31C2286.8,-181.13 2388.26,-168.45 2476.5,-154 2479.18,-153.56 2481.91,-153.1 2484.66,-152.61"/>
<polygon fill="midnightblue" stroke="midnightblue" points="2215.65,-185.86 2206.12,-190.48 2216.46,-192.81 2215.65,-185.86"/>
</g>
<!-- Node33 -->
<g id="node33" class="node">
<title>Node33</title>
<g id="a_node33"><a xlink:href="../../de/d22/vsimplecurve_8cpp.html" target="_top" xlink:title=" ">
<polygon fill="white" stroke="black" points="2632.5,-129 2632.5,-148 2820.5,-148 2820.5,-129 2632.5,-129"/>
<text text-anchor="middle" x="2726.5" y="-136" font-family="Helvetica,sans-Serif" font-size="10.00">src/libs/vwidgets/vsimplecurve.cpp</text>
</a>
</g>
</g>
<!-- Node18&#45;&gt;Node33 -->
<g id="edge43" class="edge">
<title>Node18&#45;&gt;Node33</title>
<path fill="none" stroke="midnightblue" d="M2229.07,-189.92C2370.95,-177.1 2613.81,-155.12 2623.5,-154 2638.48,-152.27 2654.64,-150.12 2669.63,-148.02"/>
<polygon fill="midnightblue" stroke="midnightblue" points="2228.68,-186.44 2219.03,-190.83 2229.31,-193.41 2228.68,-186.44"/>
</g>
<!-- Node20 -->
<g id="node20" class="node">
<title>Node20</title>
<g id="a_node20"><a xlink:href="../../dd/d66/vdxfengine_8cpp.html" target="_top" xlink:title=" ">
<polygon fill="white" stroke="black" points="2230.5,-62 2230.5,-81 2384.5,-81 2384.5,-62 2230.5,-62"/>
<text text-anchor="middle" x="2307.5" y="-69" font-family="Helvetica,sans-Serif" font-size="10.00">src/libs/vdxf/vdxfengine.cpp</text>
</a>
</g>
</g>
<!-- Node19&#45;&gt;Node20 -->
<g id="edge28" class="edge">
<title>Node19&#45;&gt;Node20</title>
<path fill="none" stroke="midnightblue" d="M2078.77,-126.56C2132.98,-113.75 2221.68,-92.78 2271.19,-81.08"/>
<polygon fill="midnightblue" stroke="midnightblue" points="2077.66,-123.23 2068.73,-128.94 2079.27,-130.04 2077.66,-123.23"/>
</g>
<!-- Node21 -->
<g id="node21" class="node">
<title>Node21</title>
<g id="a_node21"><a xlink:href="../../de/da8/vbank_8cpp.html" target="_top" xlink:title=" ">
<polygon fill="white" stroke="black" points="2402.5,-62 2402.5,-81 2546.5,-81 2546.5,-62 2402.5,-62"/>
<text text-anchor="middle" x="2474.5" y="-69" font-family="Helvetica,sans-Serif" font-size="10.00">src/libs/vlayout/vbank.cpp</text>
</a>
</g>
</g>
<!-- Node19&#45;&gt;Node21 -->
<g id="edge29" class="edge">
<title>Node19&#45;&gt;Node21</title>
<path fill="none" stroke="midnightblue" d="M2095.5,-127.37C2105.21,-125.87 2115.12,-124.37 2124.5,-123 2243.86,-105.61 2274.33,-105.63 2393.5,-87 2404.93,-85.21 2417.24,-83.1 2428.72,-81.06"/>
<polygon fill="midnightblue" stroke="midnightblue" points="2094.84,-123.93 2085.5,-128.93 2095.92,-130.85 2094.84,-123.93"/>
</g>
<!-- Node22 -->
<g id="node22" class="node">
<title>Node22</title>
<g id="a_node22"><a xlink:href="../../df/d5d/vcontour_8cpp.html" target="_top" xlink:title=" ">
<polygon fill="white" stroke="black" points="2564.5,-62 2564.5,-81 2720.5,-81 2720.5,-62 2564.5,-62"/>
<text text-anchor="middle" x="2642.5" y="-69" font-family="Helvetica,sans-Serif" font-size="10.00">src/libs/vlayout/vcontour.cpp</text>
</a>
</g>
</g>
<!-- Node19&#45;&gt;Node22 -->
<g id="edge30" class="edge">
<title>Node19&#45;&gt;Node22</title>
<path fill="none" stroke="midnightblue" d="M2092.58,-127.38C2103.2,-125.78 2114.16,-124.25 2124.5,-123 2315.34,-100.02 2364.76,-110.82 2555.5,-87 2568.57,-85.37 2582.67,-83.2 2595.65,-81.03"/>
<polygon fill="midnightblue" stroke="midnightblue" points="2091.89,-123.95 2082.54,-128.93 2092.96,-130.87 2091.89,-123.95"/>
</g>
<!-- Node23 -->
<g id="node23" class="node">
<title>Node23</title>
<g id="a_node23"><a xlink:href="../../d3/d39/vlayoutgenerator_8cpp.html" target="_top" xlink:title=" ">
<polygon fill="white" stroke="black" points="2739,-62 2739,-81 2936,-81 2936,-62 2739,-62"/>
<text text-anchor="middle" x="2837.5" y="-69" font-family="Helvetica,sans-Serif" font-size="10.00">src/libs/vlayout/vlayoutgenerator.cpp</text>
</a>
</g>
</g>
<!-- Node19&#45;&gt;Node23 -->
<g id="edge31" class="edge">
<title>Node19&#45;&gt;Node23</title>
<path fill="none" stroke="midnightblue" d="M2091.1,-127.39C2102.17,-125.73 2113.67,-124.17 2124.5,-123 2392.3,-94 2461.39,-112.94 2729.5,-87 2745.98,-85.41 2763.81,-83.21 2780.14,-81"/>
<polygon fill="midnightblue" stroke="midnightblue" points="2090.43,-123.96 2081.08,-128.94 2091.5,-130.87 2090.43,-123.96"/>
</g>
<!-- Node24 -->
<g id="node24" class="node">
<title>Node24</title>
<g id="a_node24"><a xlink:href="../../d2/d2d/vlayoutpaper__p_8h.html" target="_top" xlink:title=" ">
<polygon fill="white" stroke="black" points="1671,-62 1671,-81 1850,-81 1850,-62 1671,-62"/>
<text text-anchor="middle" x="1760.5" y="-69" font-family="Helvetica,sans-Serif" font-size="10.00">src/libs/vlayout/vlayoutpaper_p.h</text>
</a>
</g>
</g>
<!-- Node19&#45;&gt;Node24 -->
<g id="edge32" class="edge">
<title>Node19&#45;&gt;Node24</title>
<path fill="none" stroke="midnightblue" d="M1986.74,-126.56C1933.11,-113.75 1845.38,-92.78 1796.42,-81.08"/>
<polygon fill="midnightblue" stroke="midnightblue" points="1986.12,-130.02 1996.66,-128.94 1987.75,-123.21 1986.12,-130.02"/>
</g>
<!-- Node25 -->
<g id="node25" class="node">
<title>Node25</title>
<g id="a_node25"><a xlink:href="../../d1/dd1/vlayoutpaper_8cpp.html" target="_top" xlink:title=" ">
<polygon fill="white" stroke="black" points="1669.5,-0.5 1669.5,-19.5 1847.5,-19.5 1847.5,-0.5 1669.5,-0.5"/>
<text text-anchor="middle" x="1758.5" y="-7.5" font-family="Helvetica,sans-Serif" font-size="10.00">src/libs/vlayout/vlayoutpaper.cpp</text>
</a>
</g>
</g>
<!-- Node19&#45;&gt;Node25 -->
<g id="edge34" class="edge">
<title>Node19&#45;&gt;Node25</title>
<path fill="none" stroke="midnightblue" d="M1938.91,-131.06C1835.32,-122.97 1680.47,-107.59 1662.5,-87 1653.44,-76.62 1655.11,-67.63 1662.5,-56 1674.55,-37.05 1696.91,-25.94 1717.03,-19.5"/>
<polygon fill="midnightblue" stroke="midnightblue" points="1938.85,-134.57 1949.09,-131.85 1939.39,-127.59 1938.85,-134.57"/>
</g>
<!-- Node26 -->
<g id="node26" class="node">
<title>Node26</title>
<g id="a_node26"><a xlink:href="../../db/d5c/vposition_8h.html" target="_top" xlink:title=" ">
<polygon fill="white" stroke="black" points="1868.5,-62 1868.5,-81 2016.5,-81 2016.5,-62 1868.5,-62"/>
<text text-anchor="middle" x="1942.5" y="-69" font-family="Helvetica,sans-Serif" font-size="10.00">src/libs/vlayout/vposition.h</text>
</a>
</g>
</g>
<!-- Node19&#45;&gt;Node26 -->
<g id="edge35" class="edge">
<title>Node19&#45;&gt;Node26</title>
<path fill="none" stroke="midnightblue" d="M2011.82,-122.57C1994.06,-109.74 1969.06,-91.69 1954.45,-81.13"/>
<polygon fill="midnightblue" stroke="midnightblue" points="2010.21,-125.72 2020.36,-128.73 2014.3,-120.04 2010.21,-125.72"/>
</g>
<!-- Node28 -->
<g id="node28" class="node">
<title>Node28</title>
<g id="a_node28"><a xlink:href="../../dd/d70/vlayoutpiece_8cpp.html" target="_top" xlink:title=" ">
<polygon fill="white" stroke="black" points="2035,-62 2035,-81 2212,-81 2212,-62 2035,-62"/>
<text text-anchor="middle" x="2123.5" y="-69" font-family="Helvetica,sans-Serif" font-size="10.00">src/libs/vlayout/vlayoutpiece.cpp</text>
</a>
</g>
</g>
<!-- Node19&#45;&gt;Node28 -->
<g id="edge38" class="edge">
<title>Node19&#45;&gt;Node28</title>
<path fill="none" stroke="midnightblue" d="M2052.91,-122.92C2070.9,-110.07 2096.51,-91.78 2111.42,-81.13"/>
<polygon fill="midnightblue" stroke="midnightblue" points="2050.88,-120.07 2044.77,-128.73 2054.94,-125.77 2050.88,-120.07"/>
</g>
<!-- Node24&#45;&gt;Node25 -->
<g id="edge33" class="edge">
<title>Node24&#45;&gt;Node25</title>
<path fill="none" stroke="midnightblue" d="M1759.87,-51.82C1759.51,-41 1759.07,-27.9 1758.79,-19.51"/>
<polygon fill="midnightblue" stroke="midnightblue" points="1756.38,-52.1 1760.21,-61.98 1763.38,-51.86 1756.38,-52.1"/>
</g>
<!-- Node26&#45;&gt;Node25 -->
<g id="edge36" class="edge">
<title>Node26&#45;&gt;Node25</title>
<path fill="none" stroke="midnightblue" d="M1906.57,-58.88C1870.8,-47.32 1816.76,-29.84 1784.81,-19.51"/>
<polygon fill="midnightblue" stroke="midnightblue" points="1905.55,-62.23 1916.14,-61.98 1907.7,-55.57 1905.55,-62.23"/>
</g>
<!-- Node27 -->
<g id="node27" class="node">
<title>Node27</title>
<g id="a_node27"><a xlink:href="../../df/d76/vposition_8cpp.html" target="_top" xlink:title=" ">
<polygon fill="white" stroke="black" points="1865,-0.5 1865,-19.5 2024,-19.5 2024,-0.5 1865,-0.5"/>
<text text-anchor="middle" x="1944.5" y="-7.5" font-family="Helvetica,sans-Serif" font-size="10.00">src/libs/vlayout/vposition.cpp</text>
</a>
</g>
</g>
<!-- Node26&#45;&gt;Node27 -->
<g id="edge37" class="edge">
<title>Node26&#45;&gt;Node27</title>
<path fill="none" stroke="midnightblue" d="M1943.13,-51.82C1943.49,-41 1943.93,-27.9 1944.21,-19.51"/>
<polygon fill="midnightblue" stroke="midnightblue" points="1939.62,-51.86 1942.79,-61.98 1946.62,-52.1 1939.62,-51.86"/>
</g>
<!-- Node31 -->
<g id="node31" class="node">
<title>Node31</title>
<g id="a_node31"><a xlink:href="../../df/d40/export__format__combobox_8cpp.html" target="_top" xlink:title=" ">
<polygon fill="white" stroke="black" points="2954,-56.5 2954,-86.5 3087,-86.5 3087,-56.5 2954,-56.5"/>
<text text-anchor="start" x="2962" y="-74.5" font-family="Helvetica,sans-Serif" font-size="10.00">src/libs/vwidgets/export</text>
<text text-anchor="middle" x="3020.5" y="-63.5" font-family="Helvetica,sans-Serif" font-size="10.00">_format_combobox.cpp</text>
</a>
</g>
</g>
<!-- Node30&#45;&gt;Node31 -->
<g id="edge41" class="edge">
<title>Node30&#45;&gt;Node31</title>
<path fill="none" stroke="midnightblue" d="M2477.19,-123.02C2685.47,-95.97 2741.55,-114.45 2945.5,-87 2948.26,-86.63 2951.07,-86.22 2953.91,-85.78"/>
<polygon fill="midnightblue" stroke="midnightblue" points="2476.62,-119.57 2467.16,-124.34 2477.53,-126.51 2476.62,-119.57"/>
</g>
<!-- Node35&#45;&gt;Node14 -->
<g id="edge47" class="edge">
<title>Node35&#45;&gt;Node14</title>
<path fill="none" stroke="midnightblue" d="M371.58,-198.29C290.95,-195.35 186.64,-185.34 159.5,-154 141.52,-133.24 157.26,-97.78 166.25,-81.34"/>
<polygon fill="midnightblue" stroke="midnightblue" points="371.67,-201.8 381.78,-198.63 371.91,-194.8 371.67,-201.8"/>
</g>
<!-- Node36&#45;&gt;Node8 -->
<g id="edge49" class="edge">
<title>Node36&#45;&gt;Node8</title>
<path fill="none" stroke="midnightblue" d="M81.1,-181.37C63.37,-151.51 34.39,-90.84 66.5,-56 96.48,-23.47 369.09,-14.45 519.28,-11.96"/>
<polygon fill="midnightblue" stroke="midnightblue" points="78.34,-183.56 86.58,-190.23 84.3,-179.88 78.34,-183.56"/>
</g>
</g>
</svg>
