<?xml version="1.0" encoding="UTF-8" standalone="no"?>
<!DOCTYPE svg PUBLIC "-//W3C//DTD SVG 1.1//EN"
 "http://www.w3.org/Graphics/SVG/1.1/DTD/svg11.dtd">
<!-- Generated by graphviz version 2.43.0 (0)
 -->
<!-- Title: src/libs/ifc/xml/vdomdocument.h Pages: 1 -->
<svg width="3087pt" height="296pt"
 viewBox="0.00 0.00 3086.50 296.00" xmlns="http://www.w3.org/2000/svg" xmlns:xlink="http://www.w3.org/1999/xlink">
<g id="graph0" class="graph" transform="scale(1 1) rotate(0) translate(4 292)">
<title>src/libs/ifc/xml/vdomdocument.h</title>
<polygon fill="white" stroke="transparent" points="-4,4 -4,-292 3082.5,-292 3082.5,4 -4,4"/>
<!-- Node1 -->
<g id="node1" class="node">
<title>Node1</title>
<g id="a_node1"><a xlink:title=" ">
<polygon fill="#bfbfbf" stroke="black" points="866,-268.5 866,-287.5 1042,-287.5 1042,-268.5 866,-268.5"/>
<text text-anchor="middle" x="954" y="-275.5" font-family="Helvetica,sans-Serif" font-size="10.00">src/libs/ifc/xml/vdomdocument.h</text>
</a>
</g>
</g>
<!-- Node2 -->
<g id="node2" class="node">
<title>Node2</title>
<g id="a_node2"><a xlink:href="../../d0/da1/abstract__converter_8h.html" target="_top" xlink:title=" ">
<polygon fill="white" stroke="black" points="530.5,-201.5 530.5,-231.5 661.5,-231.5 661.5,-201.5 530.5,-201.5"/>
<text text-anchor="start" x="538.5" y="-219.5" font-family="Helvetica,sans-Serif" font-size="10.00">src/libs/ifc/xml/abstract</text>
<text text-anchor="middle" x="596" y="-208.5" font-family="Helvetica,sans-Serif" font-size="10.00">_converter.h</text>
</a>
</g>
</g>
<!-- Node1&#45;&gt;Node2 -->
<g id="edge1" class="edge">
<title>Node1&#45;&gt;Node2</title>
<path fill="none" stroke="midnightblue" d="M892.71,-266.81C828.42,-256.13 727.73,-239.39 661.79,-228.43"/>
<polygon fill="midnightblue" stroke="midnightblue" points="892.27,-270.29 902.71,-268.48 893.42,-263.38 892.27,-270.29"/>
</g>
<!-- Node3 -->
<g id="node3" class="node">
<title>Node3</title>
<g id="a_node3"><a xlink:href="../../d0/d08/abstract__converter_8cpp.html" target="_top" xlink:title=" ">
<polygon fill="white" stroke="black" points="120.5,-134.5 120.5,-164.5 251.5,-164.5 251.5,-134.5 120.5,-134.5"/>
<text text-anchor="start" x="128.5" y="-152.5" font-family="Helvetica,sans-Serif" font-size="10.00">src/libs/ifc/xml/abstract</text>
<text text-anchor="middle" x="186" y="-141.5" font-family="Helvetica,sans-Serif" font-size="10.00">_converter.cpp</text>
</a>
</g>
</g>
<!-- Node1&#45;&gt;Node3 -->
<g id="edge24" class="edge">
<title>Node1&#45;&gt;Node3</title>
<path fill="none" stroke="midnightblue" d="M855.63,-270.58C767.53,-263.93 635.02,-251.7 521,-232 417.93,-214.19 299.48,-182.72 234.67,-164.54"/>
<polygon fill="midnightblue" stroke="midnightblue" points="855.38,-274.07 865.62,-271.33 855.9,-267.09 855.38,-274.07"/>
</g>
<!-- Node16 -->
<g id="node16" class="node">
<title>Node16</title>
<g id="a_node16"><a xlink:href="../../de/d7d/vabstractpattern_8cpp.html" target="_top" xlink:title=" ">
<polygon fill="white" stroke="black" points="1264,-73 1264,-92 1456,-92 1456,-73 1264,-73"/>
<text text-anchor="middle" x="1360" y="-80" font-family="Helvetica,sans-Serif" font-size="10.00">src/libs/ifc/xml/vabstractpattern.cpp</text>
</a>
</g>
</g>
<!-- Node1&#45;&gt;Node16 -->
<g id="edge47" class="edge">
<title>Node1&#45;&gt;Node16</title>
<path fill="none" stroke="midnightblue" d="M994.4,-265.48C1052.66,-248.04 1162.74,-211.91 1249,-165 1289.33,-143.07 1331.6,-108.19 1350.22,-92.12"/>
<polygon fill="midnightblue" stroke="midnightblue" points="993.07,-262.22 984.48,-268.42 995.06,-268.94 993.07,-262.22"/>
</g>
<!-- Node18 -->
<g id="node18" class="node">
<title>Node18</title>
<g id="a_node18"><a xlink:href="../../d0/d89/vabstractpattern_8h.html" target="_top" xlink:title=" ">
<polygon fill="white" stroke="black" points="1568.5,-207 1568.5,-226 1749.5,-226 1749.5,-207 1568.5,-207"/>
<text text-anchor="middle" x="1659" y="-214" font-family="Helvetica,sans-Serif" font-size="10.00">src/libs/ifc/xml/vabstractpattern.h</text>
</a>
</g>
</g>
<!-- Node1&#45;&gt;Node18 -->
<g id="edge25" class="edge">
<title>Node1&#45;&gt;Node18</title>
<path fill="none" stroke="midnightblue" d="M1052.3,-268.7C1189.3,-257.14 1435.73,-236.34 1568.46,-225.14"/>
<polygon fill="midnightblue" stroke="midnightblue" points="1051.89,-265.23 1042.22,-269.55 1052.48,-272.2 1051.89,-265.23"/>
</g>
<!-- Node36 -->
<g id="node36" class="node">
<title>Node36</title>
<g id="a_node36"><a xlink:href="../../d7/d49/vdomdocument_8cpp.html" target="_top" xlink:title=" ">
<polygon fill="white" stroke="black" points="1768,-207 1768,-226 1956,-226 1956,-207 1768,-207"/>
<text text-anchor="middle" x="1862" y="-214" font-family="Helvetica,sans-Serif" font-size="10.00">src/libs/ifc/xml/vdomdocument.cpp</text>
</a>
</g>
</g>
<!-- Node1&#45;&gt;Node36 -->
<g id="edge46" class="edge">
<title>Node1&#45;&gt;Node36</title>
<path fill="none" stroke="midnightblue" d="M1052.44,-274.11C1204.21,-269.06 1504.33,-256.74 1758,-232 1773.97,-230.44 1791.25,-228.24 1807.05,-226.03"/>
<polygon fill="midnightblue" stroke="midnightblue" points="1052.1,-270.62 1042.22,-274.45 1052.33,-277.62 1052.1,-270.62"/>
</g>
<!-- Node37 -->
<g id="node37" class="node">
<title>Node37</title>
<g id="a_node37"><a xlink:href="../../dc/db7/measurements_8h.html" target="_top" xlink:title=" ">
<polygon fill="white" stroke="black" points="3.5,-207 3.5,-226 182.5,-226 182.5,-207 3.5,-207"/>
<text text-anchor="middle" x="93" y="-214" font-family="Helvetica,sans-Serif" font-size="10.00">src/libs/vformat/measurements.h</text>
</a>
</g>
</g>
<!-- Node1&#45;&gt;Node37 -->
<g id="edge48" class="edge">
<title>Node1&#45;&gt;Node37</title>
<path fill="none" stroke="midnightblue" d="M855.79,-270.21C687.17,-258.56 345.08,-234.92 182.58,-223.69"/>
<polygon fill="midnightblue" stroke="midnightblue" points="855.69,-273.71 865.9,-270.91 856.17,-266.73 855.69,-273.71"/>
</g>
<!-- Node38 -->
<g id="node38" class="node">
<title>Node38</title>
<g id="a_node38"><a xlink:href="../../d2/d8a/vlabeltemplate_8h.html" target="_top" xlink:title=" ">
<polygon fill="white" stroke="black" points="864.5,-207 864.5,-226 1043.5,-226 1043.5,-207 864.5,-207"/>
<text text-anchor="middle" x="954" y="-214" font-family="Helvetica,sans-Serif" font-size="10.00">src/libs/vformat/vlabeltemplate.h</text>
</a>
</g>
</g>
<!-- Node1&#45;&gt;Node38 -->
<g id="edge50" class="edge">
<title>Node1&#45;&gt;Node38</title>
<path fill="none" stroke="midnightblue" d="M954,-258.32C954,-247.5 954,-234.4 954,-226.01"/>
<polygon fill="midnightblue" stroke="midnightblue" points="950.5,-258.48 954,-268.48 957.5,-258.48 950.5,-258.48"/>
</g>
<!-- Node2&#45;&gt;Node3 -->
<g id="edge2" class="edge">
<title>Node2&#45;&gt;Node3</title>
<path fill="none" stroke="midnightblue" d="M520.45,-204.54C453.5,-194.69 353.14,-179.56 266,-165 261.41,-164.23 256.67,-163.42 251.9,-162.59"/>
<polygon fill="midnightblue" stroke="midnightblue" points="520.08,-208.02 530.49,-206.02 521.1,-201.1 520.08,-208.02"/>
</g>
<!-- Node4 -->
<g id="node4" class="node">
<title>Node4</title>
<g id="a_node4"><a xlink:href="../../da/d2c/abstract__m__converter_8h.html" target="_top" xlink:title=" ">
<polygon fill="white" stroke="black" points="346.5,-134.5 346.5,-164.5 477.5,-164.5 477.5,-134.5 346.5,-134.5"/>
<text text-anchor="start" x="354.5" y="-152.5" font-family="Helvetica,sans-Serif" font-size="10.00">src/libs/ifc/xml/abstract</text>
<text text-anchor="middle" x="412" y="-141.5" font-family="Helvetica,sans-Serif" font-size="10.00">_m_converter.h</text>
</a>
</g>
</g>
<!-- Node2&#45;&gt;Node4 -->
<g id="edge3" class="edge">
<title>Node2&#45;&gt;Node4</title>
<path fill="none" stroke="midnightblue" d="M546.33,-197.96C516.7,-187.48 479.56,-174.37 451.85,-164.58"/>
<polygon fill="midnightblue" stroke="midnightblue" points="545.48,-201.37 556.07,-201.4 547.81,-194.76 545.48,-201.37"/>
</g>
<!-- Node5 -->
<g id="node5" class="node">
<title>Node5</title>
<g id="a_node5"><a xlink:href="../../d0/d93/individual__size__converter_8h.html" target="_top" xlink:title=" ">
<polygon fill="white" stroke="black" points="206.5,-67.5 206.5,-97.5 345.5,-97.5 345.5,-67.5 206.5,-67.5"/>
<text text-anchor="start" x="214.5" y="-85.5" font-family="Helvetica,sans-Serif" font-size="10.00">src/libs/ifc/xml/individual</text>
<text text-anchor="middle" x="276" y="-74.5" font-family="Helvetica,sans-Serif" font-size="10.00">_size_converter.h</text>
</a>
</g>
</g>
<!-- Node2&#45;&gt;Node5 -->
<g id="edge13" class="edge">
<title>Node2&#45;&gt;Node5</title>
<path fill="none" stroke="midnightblue" d="M520.01,-214.92C465.37,-211.27 391.96,-199.49 337,-165 310.65,-148.47 291.7,-116.14 282.43,-97.56"/>
<polygon fill="midnightblue" stroke="midnightblue" points="520.14,-218.43 530.32,-215.53 520.55,-211.44 520.14,-218.43"/>
</g>
<!-- Node8 -->
<g id="node8" class="node">
<title>Node8</title>
<g id="a_node8"><a xlink:href="../../de/dec/abstract__m__converter_8cpp.html" target="_top" xlink:title=" ">
<polygon fill="white" stroke="black" points="440.5,-67.5 440.5,-97.5 571.5,-97.5 571.5,-67.5 440.5,-67.5"/>
<text text-anchor="start" x="448.5" y="-85.5" font-family="Helvetica,sans-Serif" font-size="10.00">src/libs/ifc/xml/abstract</text>
<text text-anchor="middle" x="506" y="-74.5" font-family="Helvetica,sans-Serif" font-size="10.00">_m_converter.cpp</text>
</a>
</g>
</g>
<!-- Node2&#45;&gt;Node8 -->
<g id="edge14" class="edge">
<title>Node2&#45;&gt;Node8</title>
<path fill="none" stroke="midnightblue" d="M558.34,-196.04C546.05,-187.97 533.41,-177.53 525,-165 511.16,-144.37 507.33,-114.93 506.32,-97.66"/>
<polygon fill="midnightblue" stroke="midnightblue" points="556.82,-199.21 567.17,-201.49 560.5,-193.26 556.82,-199.21"/>
</g>
<!-- Node9 -->
<g id="node9" class="node">
<title>Node9</title>
<g id="a_node9"><a xlink:href="../../d5/d4c/multi__size__converter_8h.html" target="_top" xlink:title=" ">
<polygon fill="white" stroke="black" points="72,-67.5 72,-97.5 188,-97.5 188,-67.5 72,-67.5"/>
<text text-anchor="start" x="80" y="-85.5" font-family="Helvetica,sans-Serif" font-size="10.00">src/libs/ifc/xml/multi</text>
<text text-anchor="middle" x="130" y="-74.5" font-family="Helvetica,sans-Serif" font-size="10.00">_size_converter.h</text>
</a>
</g>
</g>
<!-- Node2&#45;&gt;Node9 -->
<g id="edge15" class="edge">
<title>Node2&#45;&gt;Node9</title>
<path fill="none" stroke="midnightblue" d="M520.16,-212.12C459.13,-207.15 372.26,-194.95 302,-165 280.66,-155.9 280.33,-145.19 260,-134 232.85,-119.06 200.35,-106.43 174.64,-97.54"/>
<polygon fill="midnightblue" stroke="midnightblue" points="520.25,-215.63 530.49,-212.91 520.78,-208.65 520.25,-215.63"/>
</g>
<!-- Node11 -->
<g id="node11" class="node">
<title>Node11</title>
<g id="a_node11"><a xlink:href="../../d4/d90/fvupdater_8cpp.html" target="_top" xlink:title=" ">
<polygon fill="white" stroke="black" points="772.5,-140 772.5,-159 925.5,-159 925.5,-140 772.5,-140"/>
<text text-anchor="middle" x="849" y="-147" font-family="Helvetica,sans-Serif" font-size="10.00">src/libs/fervor/fvupdater.cpp</text>
</a>
</g>
</g>
<!-- Node2&#45;&gt;Node11 -->
<g id="edge16" class="edge">
<title>Node2&#45;&gt;Node11</title>
<path fill="none" stroke="midnightblue" d="M660.57,-198.91C710.12,-186.18 776.5,-169.13 815.8,-159.03"/>
<polygon fill="midnightblue" stroke="midnightblue" points="659.4,-195.6 650.59,-201.48 661.14,-202.38 659.4,-195.6"/>
</g>
<!-- Node12 -->
<g id="node12" class="node">
<title>Node12</title>
<g id="a_node12"><a xlink:href="../../d5/d35/vlabeltemplateconverter_8h.html" target="_top" xlink:title=" ">
<polygon fill="white" stroke="black" points="534,-140 534,-159 754,-159 754,-140 534,-140"/>
<text text-anchor="middle" x="644" y="-147" font-family="Helvetica,sans-Serif" font-size="10.00">src/libs/ifc/xml/vlabeltemplateconverter.h</text>
</a>
</g>
</g>
<!-- Node2&#45;&gt;Node12 -->
<g id="edge17" class="edge">
<title>Node2&#45;&gt;Node12</title>
<path fill="none" stroke="midnightblue" d="M612.38,-193.32C621.04,-181.6 631.16,-167.88 637.58,-159.19"/>
<polygon fill="midnightblue" stroke="midnightblue" points="609.54,-191.27 606.42,-201.4 615.17,-195.43 609.54,-191.27"/>
</g>
<!-- Node15 -->
<g id="node15" class="node">
<title>Node15</title>
<g id="a_node15"><a xlink:href="../../df/d2f/vpatternconverter_8h.html" target="_top" xlink:title=" ">
<polygon fill="white" stroke="black" points="1053.5,-140 1053.5,-159 1240.5,-159 1240.5,-140 1053.5,-140"/>
<text text-anchor="middle" x="1147" y="-147" font-family="Helvetica,sans-Serif" font-size="10.00">src/libs/ifc/xml/vpatternconverter.h</text>
</a>
</g>
</g>
<!-- Node2&#45;&gt;Node15 -->
<g id="edge20" class="edge">
<title>Node2&#45;&gt;Node15</title>
<path fill="none" stroke="midnightblue" d="M671.66,-206.57C778.02,-194.03 970.38,-171.34 1074.82,-159.02"/>
<polygon fill="midnightblue" stroke="midnightblue" points="671.16,-203.11 661.64,-207.76 671.98,-210.06 671.16,-203.11"/>
</g>
<!-- Node17 -->
<g id="node17" class="node">
<title>Node17</title>
<g id="a_node17"><a xlink:href="../../d5/d2c/vpatternconverter_8cpp.html" target="_top" xlink:title=" ">
<polygon fill="white" stroke="black" points="1048,-73 1048,-92 1246,-92 1246,-73 1048,-73"/>
<text text-anchor="middle" x="1147" y="-80" font-family="Helvetica,sans-Serif" font-size="10.00">src/libs/ifc/xml/vpatternconverter.cpp</text>
</a>
</g>
</g>
<!-- Node2&#45;&gt;Node17 -->
<g id="edge23" class="edge">
<title>Node2&#45;&gt;Node17</title>
<path fill="none" stroke="midnightblue" d="M672.01,-208.91C741.14,-201.79 845.58,-188.23 934,-165 1008.29,-145.49 1092.31,-108.74 1128.64,-92.09"/>
<polygon fill="midnightblue" stroke="midnightblue" points="671.24,-205.46 661.65,-209.95 671.95,-212.43 671.24,-205.46"/>
</g>
<!-- Node4&#45;&gt;Node5 -->
<g id="edge4" class="edge">
<title>Node4&#45;&gt;Node5</title>
<path fill="none" stroke="midnightblue" d="M373.28,-129.99C351.72,-119.69 325.31,-107.07 305.45,-97.58"/>
<polygon fill="midnightblue" stroke="midnightblue" points="371.96,-133.24 382.49,-134.4 374.98,-126.93 371.96,-133.24"/>
</g>
<!-- Node6 -->
<g id="node6" class="node">
<title>Node6</title>
<g id="a_node6"><a xlink:href="../../d5/d6e/individual__size__converter_8cpp.html" target="_top" xlink:title=" ">
<polygon fill="white" stroke="black" points="342.5,-0.5 342.5,-30.5 481.5,-30.5 481.5,-0.5 342.5,-0.5"/>
<text text-anchor="start" x="350.5" y="-18.5" font-family="Helvetica,sans-Serif" font-size="10.00">src/libs/ifc/xml/individual</text>
<text text-anchor="middle" x="412" y="-7.5" font-family="Helvetica,sans-Serif" font-size="10.00">_size_converter.cpp</text>
</a>
</g>
</g>
<!-- Node4&#45;&gt;Node6 -->
<g id="edge8" class="edge">
<title>Node4&#45;&gt;Node6</title>
<path fill="none" stroke="midnightblue" d="M412,-124.02C412,-96.51 412,-52.79 412,-30.52"/>
<polygon fill="midnightblue" stroke="midnightblue" points="408.5,-124.37 412,-134.37 415.5,-124.37 408.5,-124.37"/>
</g>
<!-- Node4&#45;&gt;Node8 -->
<g id="edge7" class="edge">
<title>Node4&#45;&gt;Node8</title>
<path fill="none" stroke="midnightblue" d="M440.99,-128.45C455.45,-118.45 472.59,-106.6 485.64,-97.58"/>
<polygon fill="midnightblue" stroke="midnightblue" points="438.63,-125.83 432.4,-134.4 442.61,-131.59 438.63,-125.83"/>
</g>
<!-- Node4&#45;&gt;Node9 -->
<g id="edge9" class="edge">
<title>Node4&#45;&gt;Node9</title>
<path fill="none" stroke="midnightblue" d="M341.31,-132.21C294.09,-121.32 232.74,-107.18 188.32,-96.94"/>
<polygon fill="midnightblue" stroke="midnightblue" points="340.63,-135.64 351.16,-134.48 342.2,-128.82 340.63,-135.64"/>
</g>
<!-- Node10 -->
<g id="node10" class="node">
<title>Node10</title>
<g id="a_node10"><a xlink:href="../../d9/d94/multi__size__converter_8cpp.html" target="_top" xlink:title=" ">
<polygon fill="white" stroke="black" points="208,-0.5 208,-30.5 324,-30.5 324,-0.5 208,-0.5"/>
<text text-anchor="start" x="216" y="-18.5" font-family="Helvetica,sans-Serif" font-size="10.00">src/libs/ifc/xml/multi</text>
<text text-anchor="middle" x="266" y="-7.5" font-family="Helvetica,sans-Serif" font-size="10.00">_size_converter.cpp</text>
</a>
</g>
</g>
<!-- Node4&#45;&gt;Node10 -->
<g id="edge12" class="edge">
<title>Node4&#45;&gt;Node10</title>
<path fill="none" stroke="midnightblue" d="M399.29,-125.41C388.81,-107.86 372.67,-83.93 354,-67 337.43,-51.97 315.64,-39.43 297.89,-30.6"/>
<polygon fill="midnightblue" stroke="midnightblue" points="396.47,-127.52 404.51,-134.42 402.53,-124.01 396.47,-127.52"/>
</g>
<!-- Node5&#45;&gt;Node6 -->
<g id="edge5" class="edge">
<title>Node5&#45;&gt;Node6</title>
<path fill="none" stroke="midnightblue" d="M314.72,-62.99C336.28,-52.69 362.69,-40.07 382.55,-30.58"/>
<polygon fill="midnightblue" stroke="midnightblue" points="313.02,-59.93 305.51,-67.4 316.04,-66.24 313.02,-59.93"/>
</g>
<!-- Node7 -->
<g id="node7" class="node">
<title>Node7</title>
<g id="a_node7"><a xlink:href="../../d9/de3/measurements_8cpp.html" target="_top" xlink:title=" ">
<polygon fill="white" stroke="black" points="0,-6 0,-25 190,-25 190,-6 0,-6"/>
<text text-anchor="middle" x="95" y="-13" font-family="Helvetica,sans-Serif" font-size="10.00">src/libs/vformat/measurements.cpp</text>
</a>
</g>
</g>
<!-- Node5&#45;&gt;Node7 -->
<g id="edge6" class="edge">
<title>Node5&#45;&gt;Node7</title>
<path fill="none" stroke="midnightblue" d="M227.12,-63.95C191.96,-51.32 146.1,-34.85 118.69,-25.01"/>
<polygon fill="midnightblue" stroke="midnightblue" points="226.13,-67.31 236.73,-67.4 228.5,-60.72 226.13,-67.31"/>
</g>
<!-- Node9&#45;&gt;Node7 -->
<g id="edge11" class="edge">
<title>Node9&#45;&gt;Node7</title>
<path fill="none" stroke="midnightblue" d="M117.5,-58.29C111.32,-46.8 104.22,-33.63 99.68,-25.19"/>
<polygon fill="midnightblue" stroke="midnightblue" points="114.58,-60.25 122.41,-67.4 120.75,-56.93 114.58,-60.25"/>
</g>
<!-- Node9&#45;&gt;Node10 -->
<g id="edge10" class="edge">
<title>Node9&#45;&gt;Node10</title>
<path fill="none" stroke="midnightblue" d="M168.72,-62.99C190.28,-52.69 216.69,-40.07 236.55,-30.58"/>
<polygon fill="midnightblue" stroke="midnightblue" points="167.02,-59.93 159.51,-67.4 170.04,-66.24 167.02,-59.93"/>
</g>
<!-- Node13 -->
<g id="node13" class="node">
<title>Node13</title>
<g id="a_node13"><a xlink:href="../../d7/d63/vlabeltemplateconverter_8cpp.html" target="_top" xlink:title=" ">
<polygon fill="white" stroke="black" points="589.5,-73 589.5,-92 820.5,-92 820.5,-73 589.5,-73"/>
<text text-anchor="middle" x="705" y="-80" font-family="Helvetica,sans-Serif" font-size="10.00">src/libs/ifc/xml/vlabeltemplateconverter.cpp</text>
</a>
</g>
</g>
<!-- Node12&#45;&gt;Node13 -->
<g id="edge18" class="edge">
<title>Node12&#45;&gt;Node13</title>
<path fill="none" stroke="midnightblue" d="M659.36,-132.13C671.29,-119.42 687.36,-102.3 696.9,-92.13"/>
<polygon fill="midnightblue" stroke="midnightblue" points="656.52,-130.05 652.23,-139.73 661.62,-134.84 656.52,-130.05"/>
</g>
<!-- Node14 -->
<g id="node14" class="node">
<title>Node14</title>
<g id="a_node14"><a xlink:href="../../d9/daf/vlabeltemplate_8cpp.html" target="_top" xlink:title=" ">
<polygon fill="white" stroke="black" points="838.5,-73 838.5,-92 1029.5,-92 1029.5,-73 838.5,-73"/>
<text text-anchor="middle" x="934" y="-80" font-family="Helvetica,sans-Serif" font-size="10.00">src/libs/vformat/vlabeltemplate.cpp</text>
</a>
</g>
</g>
<!-- Node12&#45;&gt;Node14 -->
<g id="edge19" class="edge">
<title>Node12&#45;&gt;Node14</title>
<path fill="none" stroke="midnightblue" d="M692.08,-137.72C749.18,-124.92 843.28,-103.83 895.7,-92.08"/>
<polygon fill="midnightblue" stroke="midnightblue" points="691.2,-134.33 682.21,-139.94 692.73,-141.16 691.2,-134.33"/>
</g>
<!-- Node15&#45;&gt;Node16 -->
<g id="edge21" class="edge">
<title>Node15&#45;&gt;Node16</title>
<path fill="none" stroke="midnightblue" d="M1184.92,-136.93C1227.09,-124.06 1294.23,-103.57 1331.94,-92.06"/>
<polygon fill="midnightblue" stroke="midnightblue" points="1183.83,-133.6 1175.28,-139.87 1185.87,-140.3 1183.83,-133.6"/>
</g>
<!-- Node15&#45;&gt;Node17 -->
<g id="edge22" class="edge">
<title>Node15&#45;&gt;Node17</title>
<path fill="none" stroke="midnightblue" d="M1147,-129.54C1147,-117.17 1147,-101.62 1147,-92.13"/>
<polygon fill="midnightblue" stroke="midnightblue" points="1143.5,-129.73 1147,-139.73 1150.5,-129.73 1143.5,-129.73"/>
</g>
<!-- Node18&#45;&gt;Node16 -->
<g id="edge26" class="edge">
<title>Node18&#45;&gt;Node16</title>
<path fill="none" stroke="midnightblue" d="M1571.86,-205.61C1510.22,-197.21 1434.07,-183.56 1408,-165 1381.91,-146.43 1367.72,-108.86 1362.43,-92.01"/>
<polygon fill="midnightblue" stroke="midnightblue" points="1571.64,-209.11 1582.01,-206.97 1572.56,-202.18 1571.64,-209.11"/>
</g>
<!-- Node19 -->
<g id="node19" class="node">
<title>Node19</title>
<g id="a_node19"><a xlink:href="../../d6/de0/vlayoutpiece_8h.html" target="_top" xlink:title=" ">
<polygon fill="white" stroke="black" points="1999,-140 1999,-159 2165,-159 2165,-140 1999,-140"/>
<text text-anchor="middle" x="2082" y="-147" font-family="Helvetica,sans-Serif" font-size="10.00">src/libs/vlayout/vlayoutpiece.h</text>
</a>
</g>
</g>
<!-- Node18&#45;&gt;Node19 -->
<g id="edge27" class="edge">
<title>Node18&#45;&gt;Node19</title>
<path fill="none" stroke="midnightblue" d="M1724.8,-205.39C1807.71,-192.65 1948.74,-170.98 2026.48,-159.03"/>
<polygon fill="midnightblue" stroke="midnightblue" points="1724.09,-201.96 1714.73,-206.94 1725.15,-208.88 1724.09,-201.96"/>
</g>
<!-- Node29 -->
<g id="node29" class="node">
<title>Node29</title>
<g id="a_node29"><a xlink:href="../../d8/d70/vtextmanager_8cpp.html" target="_top" xlink:title=" ">
<polygon fill="white" stroke="black" points="1771,-140 1771,-159 1953,-159 1953,-140 1771,-140"/>
<text text-anchor="middle" x="1862" y="-147" font-family="Helvetica,sans-Serif" font-size="10.00">src/libs/vlayout/vtextmanager.cpp</text>
</a>
</g>
</g>
<!-- Node18&#45;&gt;Node29 -->
<g id="edge39" class="edge">
<title>Node18&#45;&gt;Node29</title>
<path fill="none" stroke="midnightblue" d="M1695.65,-203.77C1735.87,-190.89 1799.47,-170.52 1835.25,-159.06"/>
<polygon fill="midnightblue" stroke="midnightblue" points="1694.41,-200.49 1685.96,-206.87 1696.55,-207.15 1694.41,-200.49"/>
</g>
<!-- Node30 -->
<g id="node30" class="node">
<title>Node30</title>
<g id="a_node30"><a xlink:href="../../d0/da5/export__format__combobox_8h.html" target="_top" xlink:title=" ">
<polygon fill="white" stroke="black" points="2489.5,-134.5 2489.5,-164.5 2622.5,-164.5 2622.5,-134.5 2489.5,-134.5"/>
<text text-anchor="start" x="2497.5" y="-152.5" font-family="Helvetica,sans-Serif" font-size="10.00">src/libs/vwidgets/export</text>
<text text-anchor="middle" x="2556" y="-141.5" font-family="Helvetica,sans-Serif" font-size="10.00">_format_combobox.h</text>
</a>
</g>
</g>
<!-- Node18&#45;&gt;Node30 -->
<g id="edge40" class="edge">
<title>Node18&#45;&gt;Node30</title>
<path fill="none" stroke="midnightblue" d="M1722.19,-205.55C1734.38,-203.85 1747.07,-202.24 1759,-201 2029.11,-172.91 2352.47,-158.24 2489.46,-152.9"/>
<polygon fill="midnightblue" stroke="midnightblue" points="1721.5,-202.11 1712.1,-206.99 1722.49,-209.04 1721.5,-202.11"/>
</g>
<!-- Node32 -->
<g id="node32" class="node">
<title>Node32</title>
<g id="a_node32"><a xlink:href="../../d3/d86/page__format__combobox_8h.html" target="_top" xlink:title=" ">
<polygon fill="white" stroke="black" points="2795.5,-134.5 2795.5,-164.5 2920.5,-164.5 2920.5,-134.5 2795.5,-134.5"/>
<text text-anchor="start" x="2803.5" y="-152.5" font-family="Helvetica,sans-Serif" font-size="10.00">src/libs/vwidgets/page</text>
<text text-anchor="middle" x="2858" y="-141.5" font-family="Helvetica,sans-Serif" font-size="10.00">_format_combobox.h</text>
</a>
</g>
</g>
<!-- Node18&#45;&gt;Node32 -->
<g id="edge42" class="edge">
<title>Node18&#45;&gt;Node32</title>
<path fill="none" stroke="midnightblue" d="M1720.54,-205.56C1733.23,-203.8 1746.53,-202.16 1759,-201 2145.67,-165.09 2244.21,-185.43 2632,-165 2687.16,-162.09 2749.85,-158.01 2795.19,-154.92"/>
<polygon fill="midnightblue" stroke="midnightblue" points="1719.93,-202.11 1710.52,-207 1720.92,-209.04 1719.93,-202.11"/>
</g>
<!-- Node34 -->
<g id="node34" class="node">
<title>Node34</title>
<g id="a_node34"><a xlink:href="../../d7/df4/group__tablewidgetitem_8cpp.html" target="_top" xlink:title=" ">
<polygon fill="white" stroke="black" points="1417.5,-134.5 1417.5,-164.5 1546.5,-164.5 1546.5,-134.5 1417.5,-134.5"/>
<text text-anchor="start" x="1425.5" y="-152.5" font-family="Helvetica,sans-Serif" font-size="10.00">src/libs/vwidgets/group</text>
<text text-anchor="middle" x="1482" y="-141.5" font-family="Helvetica,sans-Serif" font-size="10.00">_tablewidgetitem.cpp</text>
</a>
</g>
</g>
<!-- Node18&#45;&gt;Node34 -->
<g id="edge44" class="edge">
<title>Node18&#45;&gt;Node34</title>
<path fill="none" stroke="midnightblue" d="M1625.91,-203.35C1595.9,-192.33 1551.69,-176.09 1520.2,-164.53"/>
<polygon fill="midnightblue" stroke="midnightblue" points="1624.9,-206.71 1635.5,-206.87 1627.32,-200.14 1624.9,-206.71"/>
</g>
<!-- Node35 -->
<g id="node35" class="node">
<title>Node35</title>
<g id="a_node35"><a xlink:href="../../de/d22/vsimplecurve_8cpp.html" target="_top" xlink:title=" ">
<polygon fill="white" stroke="black" points="1565,-140 1565,-159 1753,-159 1753,-140 1565,-140"/>
<text text-anchor="middle" x="1659" y="-147" font-family="Helvetica,sans-Serif" font-size="10.00">src/libs/vwidgets/vsimplecurve.cpp</text>
</a>
</g>
</g>
<!-- Node18&#45;&gt;Node35 -->
<g id="edge45" class="edge">
<title>Node18&#45;&gt;Node35</title>
<path fill="none" stroke="midnightblue" d="M1659,-196.54C1659,-184.17 1659,-168.62 1659,-159.13"/>
<polygon fill="midnightblue" stroke="midnightblue" points="1655.5,-196.73 1659,-206.73 1662.5,-196.73 1655.5,-196.73"/>
</g>
<!-- Node20 -->
<g id="node20" class="node">
<title>Node20</title>
<g id="a_node20"><a xlink:href="../../dd/d66/vdxfengine_8cpp.html" target="_top" xlink:title=" ">
<polygon fill="white" stroke="black" points="1832,-73 1832,-92 1986,-92 1986,-73 1832,-73"/>
<text text-anchor="middle" x="1909" y="-80" font-family="Helvetica,sans-Serif" font-size="10.00">src/libs/vdxf/vdxfengine.cpp</text>
</a>
</g>
</g>
<!-- Node19&#45;&gt;Node20 -->
<g id="edge28" class="edge">
<title>Node19&#45;&gt;Node20</title>
<path fill="none" stroke="midnightblue" d="M2049.45,-136.27C2015.12,-123.37 1961.9,-103.38 1931.79,-92.06"/>
<polygon fill="midnightblue" stroke="midnightblue" points="2048.43,-139.63 2059.03,-139.87 2050.9,-133.07 2048.43,-139.63"/>
</g>
<!-- Node21 -->
<g id="node21" class="node">
<title>Node21</title>
<g id="a_node21"><a xlink:href="../../df/d5d/vcontour_8cpp.html" target="_top" xlink:title=" ">
<polygon fill="white" stroke="black" points="2004,-73 2004,-92 2160,-92 2160,-73 2004,-73"/>
<text text-anchor="middle" x="2082" y="-80" font-family="Helvetica,sans-Serif" font-size="10.00">src/libs/vlayout/vcontour.cpp</text>
</a>
</g>
</g>
<!-- Node19&#45;&gt;Node21 -->
<g id="edge29" class="edge">
<title>Node19&#45;&gt;Node21</title>
<path fill="none" stroke="midnightblue" d="M2082,-129.54C2082,-117.17 2082,-101.62 2082,-92.13"/>
<polygon fill="midnightblue" stroke="midnightblue" points="2078.5,-129.73 2082,-139.73 2085.5,-129.73 2078.5,-129.73"/>
</g>
<!-- Node22 -->
<g id="node22" class="node">
<title>Node22</title>
<g id="a_node22"><a xlink:href="../../d3/d39/vlayoutgenerator_8cpp.html" target="_top" xlink:title=" ">
<polygon fill="white" stroke="black" points="2178.5,-73 2178.5,-92 2375.5,-92 2375.5,-73 2178.5,-73"/>
<text text-anchor="middle" x="2277" y="-80" font-family="Helvetica,sans-Serif" font-size="10.00">src/libs/vlayout/vlayoutgenerator.cpp</text>
</a>
</g>
</g>
<!-- Node19&#45;&gt;Node22 -->
<g id="edge30" class="edge">
<title>Node19&#45;&gt;Node22</title>
<path fill="none" stroke="midnightblue" d="M2117.7,-136.6C2156.36,-123.71 2217.08,-103.47 2251.31,-92.06"/>
<polygon fill="midnightblue" stroke="midnightblue" points="2116.27,-133.39 2107.89,-139.87 2118.49,-140.03 2116.27,-133.39"/>
</g>
<!-- Node23 -->
<g id="node23" class="node">
<title>Node23</title>
<g id="a_node23"><a xlink:href="../../d2/d2d/vlayoutpaper__p_8h.html" target="_top" xlink:title=" ">
<polygon fill="white" stroke="black" points="2432.5,-73 2432.5,-92 2611.5,-92 2611.5,-73 2432.5,-73"/>
<text text-anchor="middle" x="2522" y="-80" font-family="Helvetica,sans-Serif" font-size="10.00">src/libs/vlayout/vlayoutpaper_p.h</text>
</a>
</g>
</g>
<!-- Node19&#45;&gt;Node23 -->
<g id="edge31" class="edge">
<title>Node19&#45;&gt;Node23</title>
<path fill="none" stroke="midnightblue" d="M2149.92,-138.47C2236.09,-125.74 2383.22,-104 2464.25,-92.03"/>
<polygon fill="midnightblue" stroke="midnightblue" points="2149.36,-135.01 2139.97,-139.94 2150.38,-141.94 2149.36,-135.01"/>
</g>
<!-- Node24 -->
<g id="node24" class="node">
<title>Node24</title>
<g id="a_node24"><a xlink:href="../../d1/dd1/vlayoutpaper_8cpp.html" target="_top" xlink:title=" ">
<polygon fill="white" stroke="black" points="2431,-6 2431,-25 2609,-25 2609,-6 2431,-6"/>
<text text-anchor="middle" x="2520" y="-13" font-family="Helvetica,sans-Serif" font-size="10.00">src/libs/vlayout/vlayoutpaper.cpp</text>
</a>
</g>
</g>
<!-- Node19&#45;&gt;Node24 -->
<g id="edge33" class="edge">
<title>Node19&#45;&gt;Node24</title>
<path fill="none" stroke="midnightblue" d="M2175.4,-145.06C2237.15,-139.91 2318.64,-127.5 2385,-98 2405.23,-89 2405.45,-79.1 2424,-67 2449.71,-50.23 2481.6,-34.34 2501.38,-25.01"/>
<polygon fill="midnightblue" stroke="midnightblue" points="2174.97,-141.58 2165.28,-145.85 2175.52,-148.56 2174.97,-141.58"/>
</g>
<!-- Node25 -->
<g id="node25" class="node">
<title>Node25</title>
<g id="a_node25"><a xlink:href="../../de/da8/vbank_8cpp.html" target="_top" xlink:title=" ">
<polygon fill="white" stroke="black" points="1474,-73 1474,-92 1618,-92 1618,-73 1474,-73"/>
<text text-anchor="middle" x="1546" y="-80" font-family="Helvetica,sans-Serif" font-size="10.00">src/libs/vlayout/vbank.cpp</text>
</a>
</g>
</g>
<!-- Node19&#45;&gt;Node25 -->
<g id="edge34" class="edge">
<title>Node19&#45;&gt;Node25</title>
<path fill="none" stroke="midnightblue" d="M2002.59,-138.76C1989.05,-137.14 1975.13,-135.5 1962,-134 1813.22,-117.02 1775.24,-119.21 1627,-98 1615.12,-96.3 1602.32,-94.16 1590.47,-92.04"/>
<polygon fill="midnightblue" stroke="midnightblue" points="2002.51,-142.27 2012.85,-139.99 2003.34,-135.32 2002.51,-142.27"/>
</g>
<!-- Node26 -->
<g id="node26" class="node">
<title>Node26</title>
<g id="a_node26"><a xlink:href="../../db/d5c/vposition_8h.html" target="_top" xlink:title=" ">
<polygon fill="white" stroke="black" points="2630,-73 2630,-92 2778,-92 2778,-73 2630,-73"/>
<text text-anchor="middle" x="2704" y="-80" font-family="Helvetica,sans-Serif" font-size="10.00">src/libs/vlayout/vposition.h</text>
</a>
</g>
</g>
<!-- Node19&#45;&gt;Node26 -->
<g id="edge35" class="edge">
<title>Node19&#45;&gt;Node26</title>
<path fill="none" stroke="midnightblue" d="M2175.52,-142.01C2283.22,-134 2465.33,-118.86 2621,-98 2633.32,-96.35 2646.61,-94.2 2658.87,-92.06"/>
<polygon fill="midnightblue" stroke="midnightblue" points="2175.05,-138.53 2165.34,-142.76 2175.57,-145.51 2175.05,-138.53"/>
</g>
<!-- Node28 -->
<g id="node28" class="node">
<title>Node28</title>
<g id="a_node28"><a xlink:href="../../dd/d70/vlayoutpiece_8cpp.html" target="_top" xlink:title=" ">
<polygon fill="white" stroke="black" points="1636.5,-73 1636.5,-92 1813.5,-92 1813.5,-73 1636.5,-73"/>
<text text-anchor="middle" x="1725" y="-80" font-family="Helvetica,sans-Serif" font-size="10.00">src/libs/vlayout/vlayoutpiece.cpp</text>
</a>
</g>
</g>
<!-- Node19&#45;&gt;Node28 -->
<g id="edge38" class="edge">
<title>Node19&#45;&gt;Node28</title>
<path fill="none" stroke="midnightblue" d="M2024.97,-138.12C1954.8,-125.34 1837,-103.89 1771.86,-92.03"/>
<polygon fill="midnightblue" stroke="midnightblue" points="2024.5,-141.59 2034.96,-139.94 2025.75,-134.7 2024.5,-141.59"/>
</g>
<!-- Node23&#45;&gt;Node24 -->
<g id="edge32" class="edge">
<title>Node23&#45;&gt;Node24</title>
<path fill="none" stroke="midnightblue" d="M2521.42,-62.54C2521.04,-50.17 2520.56,-34.62 2520.27,-25.13"/>
<polygon fill="midnightblue" stroke="midnightblue" points="2517.92,-62.85 2521.73,-72.73 2524.92,-62.63 2517.92,-62.85"/>
</g>
<!-- Node26&#45;&gt;Node24 -->
<g id="edge36" class="edge">
<title>Node26&#45;&gt;Node24</title>
<path fill="none" stroke="midnightblue" d="M2669.85,-69.44C2633.35,-56.54 2576.4,-36.42 2544.24,-25.06"/>
<polygon fill="midnightblue" stroke="midnightblue" points="2668.97,-72.84 2679.57,-72.87 2671.3,-66.24 2668.97,-72.84"/>
</g>
<!-- Node27 -->
<g id="node27" class="node">
<title>Node27</title>
<g id="a_node27"><a xlink:href="../../df/d76/vposition_8cpp.html" target="_top" xlink:title=" ">
<polygon fill="white" stroke="black" points="2626.5,-6 2626.5,-25 2785.5,-25 2785.5,-6 2626.5,-6"/>
<text text-anchor="middle" x="2706" y="-13" font-family="Helvetica,sans-Serif" font-size="10.00">src/libs/vlayout/vposition.cpp</text>
</a>
</g>
</g>
<!-- Node26&#45;&gt;Node27 -->
<g id="edge37" class="edge">
<title>Node26&#45;&gt;Node27</title>
<path fill="none" stroke="midnightblue" d="M2704.58,-62.54C2704.96,-50.17 2705.44,-34.62 2705.73,-25.13"/>
<polygon fill="midnightblue" stroke="midnightblue" points="2701.08,-62.63 2704.27,-72.73 2708.08,-62.85 2701.08,-62.63"/>
</g>
<!-- Node31 -->
<g id="node31" class="node">
<title>Node31</title>
<g id="a_node31"><a xlink:href="../../df/d40/export__format__combobox_8cpp.html" target="_top" xlink:title=" ">
<polygon fill="white" stroke="black" points="2796.5,-67.5 2796.5,-97.5 2929.5,-97.5 2929.5,-67.5 2796.5,-67.5"/>
<text text-anchor="start" x="2804.5" y="-85.5" font-family="Helvetica,sans-Serif" font-size="10.00">src/libs/vwidgets/export</text>
<text text-anchor="middle" x="2863" y="-74.5" font-family="Helvetica,sans-Serif" font-size="10.00">_format_combobox.cpp</text>
</a>
</g>
</g>
<!-- Node30&#45;&gt;Node31 -->
<g id="edge41" class="edge">
<title>Node30&#45;&gt;Node31</title>
<path fill="none" stroke="midnightblue" d="M2632.12,-132.38C2682.62,-121.69 2748.25,-107.8 2796.62,-97.55"/>
<polygon fill="midnightblue" stroke="midnightblue" points="2631.29,-128.98 2622.24,-134.48 2632.74,-135.83 2631.29,-128.98"/>
</g>
<!-- Node33 -->
<g id="node33" class="node">
<title>Node33</title>
<g id="a_node33"><a xlink:href="../../d2/d28/page__format__combobox_8cpp.html" target="_top" xlink:title=" ">
<polygon fill="white" stroke="black" points="2947.5,-67.5 2947.5,-97.5 3078.5,-97.5 3078.5,-67.5 2947.5,-67.5"/>
<text text-anchor="start" x="2955.5" y="-85.5" font-family="Helvetica,sans-Serif" font-size="10.00">src/libs/vwidgets/page</text>
<text text-anchor="middle" x="3013" y="-74.5" font-family="Helvetica,sans-Serif" font-size="10.00">_format_combobox.cpp</text>
</a>
</g>
</g>
<!-- Node32&#45;&gt;Node33 -->
<g id="edge43" class="edge">
<title>Node32&#45;&gt;Node33</title>
<path fill="none" stroke="midnightblue" d="M2901.15,-130.41C2925.89,-120.03 2956.5,-107.2 2979.43,-97.58"/>
<polygon fill="midnightblue" stroke="midnightblue" points="2899.5,-127.3 2891.63,-134.4 2902.21,-133.76 2899.5,-127.3"/>
</g>
<!-- Node37&#45;&gt;Node7 -->
<g id="edge49" class="edge">
<title>Node37&#45;&gt;Node7</title>
<path fill="none" stroke="midnightblue" d="M83.9,-197.65C70.79,-169.53 49.55,-113.34 63,-67 67.74,-50.65 79.54,-34.52 87.41,-25.04"/>
<polygon fill="midnightblue" stroke="midnightblue" points="80.77,-199.21 88.29,-206.67 87.06,-196.15 80.77,-199.21"/>
</g>
<!-- Node38&#45;&gt;Node14 -->
<g id="edge51" class="edge">
<title>Node38&#45;&gt;Node14</title>
<path fill="none" stroke="midnightblue" d="M951.16,-196.78C946.76,-167.75 938.48,-113.04 935.29,-92.02"/>
<polygon fill="midnightblue" stroke="midnightblue" points="947.73,-197.48 952.69,-206.84 954.65,-196.43 947.73,-197.48"/>
</g>
</g>
</svg>
