<?xml version="1.0" encoding="UTF-8" standalone="no"?>
<!DOCTYPE svg PUBLIC "-//W3C//DTD SVG 1.1//EN"
 "http://www.w3.org/Graphics/SVG/1.1/DTD/svg11.dtd">
<!-- Generated by graphviz version 2.43.0 (0)
 -->
<!-- Title: src/libs/ifc/xml/vdomdocument.h Pages: 1 -->
<!--zoomable 296 -->
<svg id="main" version="1.1" xmlns="http://www.w3.org/2000/svg" xmlns:xlink="http://www.w3.org/1999/xlink" xml:space="preserve" onload="init(evt)">
<style type="text/css"><![CDATA[
.edge:hover path { stroke: red; }
.edge:hover polygon { stroke: red; fill: red; }
]]></style>
<script type="text/javascript"><![CDATA[
var edges = document.getElementsByTagName('g');
if (edges && edges.length) {
  for (var i=0;i<edges.length;i++) {
    if (edges[i].id.substr(0,4)=='edge') {
      edges[i].setAttribute('class','edge');
    }
  }
}
]]></script>
        <defs>
                <circle id="rim" cx="0" cy="0" r="7"/>
                <circle id="rim2" cx="0" cy="0" r="3.5"/>
                <g id="zoomPlus">
                        <use xlink:href="#rim" fill="#404040">
                                <set attributeName="fill" to="#808080" begin="zoomplus.mouseover" end="zoomplus.mouseout"/>
                        </use>
                        <path d="M-4,0h8M0,-4v8" fill="none" stroke="white" stroke-width="1.5" pointer-events="none"/>
                </g>
                <g id="zoomMin">
                        <use xlink:href="#rim" fill="#404040">
                                <set attributeName="fill" to="#808080" begin="zoomminus.mouseover" end="zoomminus.mouseout"/>
                        </use>
                        <path d="M-4,0h8" fill="none" stroke="white" stroke-width="1.5" pointer-events="none"/>
                </g>
                <g id="dirArrow">
                        <path fill="none" stroke="white" stroke-width="1.5" d="M0,-3.0v7 M-2.5,-0.5L0,-3.0L2.5,-0.5"/>
                </g>
               <g id="resetDef">
                       <use xlink:href="#rim2" fill="#404040">
                               <set attributeName="fill" to="#808080" begin="reset.mouseover" end="reset.mouseout"/>
                       </use>
               </g>
        </defs>

<script type="text/javascript">
var viewWidth = 3184;
var viewHeight = 296;
var sectionId = 'dynsection-1';
</script>
<script xlink:href="../../svgpan.js"/>
<svg id="graph" class="graph">
<g id="viewport">
<title>src/libs/ifc/xml/vdomdocument.h</title>
<polygon fill="white" stroke="transparent" points="-4,4 -4,-292 3179.5,-292 3179.5,4 -4,4"/>
<!-- Node1 -->
<g id="node1" class="node">
<title>Node1</title>
<g id="a_node1"><a xlink:title=" ">
<polygon fill="#bfbfbf" stroke="black" points="1184,-268.5 1184,-287.5 1360,-287.5 1360,-268.5 1184,-268.5"/>
<text text-anchor="middle" x="1272" y="-275.5" font-family="Helvetica,sans-Serif" font-size="10.00">src/libs/ifc/xml/vdomdocument.h</text>
</a>
</g>
</g>
<!-- Node2 -->
<g id="node2" class="node">
<title>Node2</title>
<g id="a_node2"><a xlink:href="../../d0/da1/abstract__converter_8h.html" target="_top" xlink:title=" ">
<polygon fill="white" stroke="black" points="521.5,-201.5 521.5,-231.5 652.5,-231.5 652.5,-201.5 521.5,-201.5"/>
<text text-anchor="start" x="529.5" y="-219.5" font-family="Helvetica,sans-Serif" font-size="10.00">src/libs/ifc/xml/abstract</text>
<text text-anchor="middle" x="587" y="-208.5" font-family="Helvetica,sans-Serif" font-size="10.00">_converter.h</text>
</a>
</g>
</g>
<!-- Node1&#45;&gt;Node2 -->
<g id="edge1" class="edge">
<title>Node1&#45;&gt;Node2</title>
<path fill="none" stroke="midnightblue" d="M1173.85,-268.47C1032.07,-256.16 773.76,-233.72 652.79,-223.21"/>
<polygon fill="midnightblue" stroke="midnightblue" points="1173.59,-271.96 1183.85,-269.34 1174.19,-264.99 1173.59,-271.96"/>
</g>
<!-- Node10 -->
<g id="node10" class="node">
<title>Node10</title>
<g id="a_node10"><a xlink:href="../../d0/d08/abstract__converter_8cpp.html" target="_top" xlink:title=" ">
<polygon fill="white" stroke="black" points="1168.5,-134.5 1168.5,-164.5 1299.5,-164.5 1299.5,-134.5 1168.5,-134.5"/>
<text text-anchor="start" x="1176.5" y="-152.5" font-family="Helvetica,sans-Serif" font-size="10.00">src/libs/ifc/xml/abstract</text>
<text text-anchor="middle" x="1234" y="-141.5" font-family="Helvetica,sans-Serif" font-size="10.00">_converter.cpp</text>
</a>
</g>
</g>
<!-- Node1&#45;&gt;Node10 -->
<g id="edge24" class="edge">
<title>Node1&#45;&gt;Node10</title>
<path fill="none" stroke="midnightblue" d="M1218.33,-265.08C1200.85,-258.38 1183.31,-248.01 1173,-232 1165.54,-220.42 1167.14,-213.47 1173,-201 1180.26,-185.57 1194.79,-173.24 1207.86,-164.63"/>
<polygon fill="midnightblue" stroke="midnightblue" points="1217.4,-268.46 1227.99,-268.44 1219.7,-261.85 1217.4,-268.46"/>
</g>
<!-- Node17 -->
<g id="node17" class="node">
<title>Node17</title>
<g id="a_node17"><a xlink:href="../../de/d7d/vabstractpattern_8cpp.html" target="_top" xlink:title=" ">
<polygon fill="white" stroke="black" points="1313,-73 1313,-92 1505,-92 1505,-73 1313,-73"/>
<text text-anchor="middle" x="1409" y="-80" font-family="Helvetica,sans-Serif" font-size="10.00">src/libs/ifc/xml/vabstractpattern.cpp</text>
</a>
</g>
</g>
<!-- Node1&#45;&gt;Node17 -->
<g id="edge47" class="edge">
<title>Node1&#45;&gt;Node17</title>
<path fill="none" stroke="midnightblue" d="M1318.42,-265.15C1336.85,-258.27 1356.77,-247.75 1370,-232 1406,-189.14 1409.18,-116.67 1409.16,-92.01"/>
<polygon fill="midnightblue" stroke="midnightblue" points="1317.26,-261.84 1308.96,-268.42 1319.55,-268.46 1317.26,-261.84"/>
</g>
<!-- Node18 -->
<g id="node18" class="node">
<title>Node18</title>
<g id="a_node18"><a xlink:href="../../d0/d89/vabstractpattern_8h.html" target="_top" xlink:title=" ">
<polygon fill="white" stroke="black" points="1579.5,-207 1579.5,-226 1760.5,-226 1760.5,-207 1579.5,-207"/>
<text text-anchor="middle" x="1670" y="-214" font-family="Helvetica,sans-Serif" font-size="10.00">src/libs/ifc/xml/vabstractpattern.h</text>
</a>
</g>
</g>
<!-- Node1&#45;&gt;Node18 -->
<g id="edge25" class="edge">
<title>Node1&#45;&gt;Node18</title>
<path fill="none" stroke="midnightblue" d="M1339.08,-266.97C1415.99,-255.47 1540.72,-236.83 1613.08,-226.01"/>
<polygon fill="midnightblue" stroke="midnightblue" points="1338.4,-263.53 1329.02,-268.48 1339.43,-270.46 1338.4,-263.53"/>
</g>
<!-- Node36 -->
<g id="node36" class="node">
<title>Node36</title>
<g id="a_node36"><a xlink:href="../../d7/d49/vdomdocument_8cpp.html" target="_top" xlink:title=" ">
<polygon fill="white" stroke="black" points="1779,-207 1779,-226 1967,-226 1967,-207 1779,-207"/>
<text text-anchor="middle" x="1873" y="-214" font-family="Helvetica,sans-Serif" font-size="10.00">src/libs/ifc/xml/vdomdocument.cpp</text>
</a>
</g>
</g>
<!-- Node1&#45;&gt;Node36 -->
<g id="edge46" class="edge">
<title>Node1&#45;&gt;Node36</title>
<path fill="none" stroke="midnightblue" d="M1370.44,-269.56C1471.01,-261.61 1631.6,-247.98 1770,-232 1784.98,-230.27 1801.14,-228.13 1816.13,-226.02"/>
<polygon fill="midnightblue" stroke="midnightblue" points="1369.99,-266.08 1360.29,-270.36 1370.54,-273.06 1369.99,-266.08"/>
</g>
<!-- Node37 -->
<g id="node37" class="node">
<title>Node37</title>
<g id="a_node37"><a xlink:href="../../dc/db7/measurements_8h.html" target="_top" xlink:title=" ">
<polygon fill="white" stroke="black" points="115.5,-207 115.5,-226 294.5,-226 294.5,-207 115.5,-207"/>
<text text-anchor="middle" x="205" y="-214" font-family="Helvetica,sans-Serif" font-size="10.00">src/libs/vformat/measurements.h</text>
</a>
</g>
</g>
<!-- Node1&#45;&gt;Node37 -->
<g id="edge48" class="edge">
<title>Node1&#45;&gt;Node37</title>
<path fill="none" stroke="midnightblue" d="M1173.57,-271.51C967.47,-260.02 493.23,-233.57 294.83,-222.51"/>
<polygon fill="midnightblue" stroke="midnightblue" points="1173.6,-275.02 1183.78,-272.08 1173.99,-268.03 1173.6,-275.02"/>
</g>
<!-- Node38 -->
<g id="node38" class="node">
<title>Node38</title>
<g id="a_node38"><a xlink:href="../../d2/d8a/vlabeltemplate_8h.html" target="_top" xlink:title=" ">
<polygon fill="white" stroke="black" points="1182.5,-207 1182.5,-226 1361.5,-226 1361.5,-207 1182.5,-207"/>
<text text-anchor="middle" x="1272" y="-214" font-family="Helvetica,sans-Serif" font-size="10.00">src/libs/vformat/vlabeltemplate.h</text>
</a>
</g>
</g>
<!-- Node1&#45;&gt;Node38 -->
<g id="edge50" class="edge">
<title>Node1&#45;&gt;Node38</title>
<path fill="none" stroke="midnightblue" d="M1272,-258.32C1272,-247.5 1272,-234.4 1272,-226.01"/>
<polygon fill="midnightblue" stroke="midnightblue" points="1268.5,-258.48 1272,-268.48 1275.5,-258.48 1268.5,-258.48"/>
</g>
<!-- Node3 -->
<g id="node3" class="node">
<title>Node3</title>
<g id="a_node3"><a xlink:href="../../da/d2c/abstract__m__converter_8h.html" target="_top" xlink:title=" ">
<polygon fill="white" stroke="black" points="328.5,-134.5 328.5,-164.5 459.5,-164.5 459.5,-134.5 328.5,-134.5"/>
<text text-anchor="start" x="336.5" y="-152.5" font-family="Helvetica,sans-Serif" font-size="10.00">src/libs/ifc/xml/abstract</text>
<text text-anchor="middle" x="394" y="-141.5" font-family="Helvetica,sans-Serif" font-size="10.00">_m_converter.h</text>
</a>
</g>
</g>
<!-- Node2&#45;&gt;Node3 -->
<g id="edge2" class="edge">
<title>Node2&#45;&gt;Node3</title>
<path fill="none" stroke="midnightblue" d="M535.31,-198.09C504.16,-187.6 464.99,-174.41 435.8,-164.58"/>
<polygon fill="midnightblue" stroke="midnightblue" points="534.53,-201.52 545.12,-201.4 536.76,-194.89 534.53,-201.52"/>
</g>
<!-- Node4 -->
<g id="node4" class="node">
<title>Node4</title>
<g id="a_node4"><a xlink:href="../../de/dec/abstract__m__converter_8cpp.html" target="_top" xlink:title=" ">
<polygon fill="white" stroke="black" points="452.5,-67.5 452.5,-97.5 583.5,-97.5 583.5,-67.5 452.5,-67.5"/>
<text text-anchor="start" x="460.5" y="-85.5" font-family="Helvetica,sans-Serif" font-size="10.00">src/libs/ifc/xml/abstract</text>
<text text-anchor="middle" x="518" y="-74.5" font-family="Helvetica,sans-Serif" font-size="10.00">_m_converter.cpp</text>
</a>
</g>
</g>
<!-- Node2&#45;&gt;Node4 -->
<g id="edge12" class="edge">
<title>Node2&#45;&gt;Node4</title>
<path fill="none" stroke="midnightblue" d="M543.3,-196.11C530.92,-188.33 518.94,-178.05 512,-165 500.67,-143.71 507.03,-114.76 512.59,-97.7"/>
<polygon fill="midnightblue" stroke="midnightblue" points="541.9,-199.35 552.31,-201.34 545.42,-193.3 541.9,-199.35"/>
</g>
<!-- Node6 -->
<g id="node6" class="node">
<title>Node6</title>
<g id="a_node6"><a xlink:href="../../d0/d93/individual__size__converter_8h.html" target="_top" xlink:title=" ">
<polygon fill="white" stroke="black" points="84.5,-67.5 84.5,-97.5 223.5,-97.5 223.5,-67.5 84.5,-67.5"/>
<text text-anchor="start" x="92.5" y="-85.5" font-family="Helvetica,sans-Serif" font-size="10.00">src/libs/ifc/xml/individual</text>
<text text-anchor="middle" x="154" y="-74.5" font-family="Helvetica,sans-Serif" font-size="10.00">_size_converter.h</text>
</a>
</g>
</g>
<!-- Node2&#45;&gt;Node6 -->
<g id="edge14" class="edge">
<title>Node2&#45;&gt;Node6</title>
<path fill="none" stroke="midnightblue" d="M511.32,-209.16C452.4,-202.58 369.28,-189.64 300,-165 252.14,-147.98 201.48,-116.14 174.22,-97.7"/>
<polygon fill="midnightblue" stroke="midnightblue" points="510.98,-212.64 521.29,-210.24 511.73,-205.68 510.98,-212.64"/>
</g>
<!-- Node8 -->
<g id="node8" class="node">
<title>Node8</title>
<g id="a_node8"><a xlink:href="../../d5/d4c/multi__size__converter_8h.html" target="_top" xlink:title=" ">
<polygon fill="white" stroke="black" points="242,-67.5 242,-97.5 358,-97.5 358,-67.5 242,-67.5"/>
<text text-anchor="start" x="250" y="-85.5" font-family="Helvetica,sans-Serif" font-size="10.00">src/libs/ifc/xml/multi</text>
<text text-anchor="middle" x="300" y="-74.5" font-family="Helvetica,sans-Serif" font-size="10.00">_size_converter.h</text>
</a>
</g>
</g>
<!-- Node2&#45;&gt;Node8 -->
<g id="edge15" class="edge">
<title>Node2&#45;&gt;Node8</title>
<path fill="none" stroke="midnightblue" d="M511.41,-210.37C442.03,-204.08 346.05,-190.91 319,-165 300.64,-147.41 298.5,-115.78 298.99,-97.53"/>
<polygon fill="midnightblue" stroke="midnightblue" points="511.17,-213.86 521.44,-211.24 511.78,-206.89 511.17,-213.86"/>
</g>
<!-- Node2&#45;&gt;Node10 -->
<g id="edge13" class="edge">
<title>Node2&#45;&gt;Node10</title>
<path fill="none" stroke="midnightblue" d="M662.86,-211.3C772.67,-204.64 982.13,-189.84 1159,-165 1162.02,-164.58 1165.1,-164.11 1168.21,-163.62"/>
<polygon fill="midnightblue" stroke="midnightblue" points="662.65,-207.8 652.88,-211.89 663.07,-214.79 662.65,-207.8"/>
</g>
<!-- Node11 -->
<g id="node11" class="node">
<title>Node11</title>
<g id="a_node11"><a xlink:href="../../d4/d90/fvupdater_8cpp.html" target="_top" xlink:title=" ">
<polygon fill="white" stroke="black" points="758.5,-140 758.5,-159 911.5,-159 911.5,-140 758.5,-140"/>
<text text-anchor="middle" x="835" y="-147" font-family="Helvetica,sans-Serif" font-size="10.00">src/libs/fervor/fvupdater.cpp</text>
</a>
</g>
</g>
<!-- Node2&#45;&gt;Node11 -->
<g id="edge16" class="edge">
<title>Node2&#45;&gt;Node11</title>
<path fill="none" stroke="midnightblue" d="M650.3,-198.91C698.87,-186.18 763.93,-169.13 802.46,-159.03"/>
<polygon fill="midnightblue" stroke="midnightblue" points="649.29,-195.55 640.51,-201.48 651.07,-202.33 649.29,-195.55"/>
</g>
<!-- Node12 -->
<g id="node12" class="node">
<title>Node12</title>
<g id="a_node12"><a xlink:href="../../d5/d35/vlabeltemplateconverter_8h.html" target="_top" xlink:title=" ">
<polygon fill="white" stroke="black" points="930,-140 930,-159 1150,-159 1150,-140 930,-140"/>
<text text-anchor="middle" x="1040" y="-147" font-family="Helvetica,sans-Serif" font-size="10.00">src/libs/ifc/xml/vlabeltemplateconverter.h</text>
</a>
</g>
</g>
<!-- Node2&#45;&gt;Node12 -->
<g id="edge17" class="edge">
<title>Node2&#45;&gt;Node12</title>
<path fill="none" stroke="midnightblue" d="M662.95,-204.6C752.36,-191.77 898.99,-170.73 980.55,-159.03"/>
<polygon fill="midnightblue" stroke="midnightblue" points="662.27,-201.16 652.87,-206.05 663.27,-208.09 662.27,-201.16"/>
</g>
<!-- Node15 -->
<g id="node15" class="node">
<title>Node15</title>
<g id="a_node15"><a xlink:href="../../df/d2f/vpatternconverter_8h.html" target="_top" xlink:title=" ">
<polygon fill="white" stroke="black" points="553.5,-140 553.5,-159 740.5,-159 740.5,-140 553.5,-140"/>
<text text-anchor="middle" x="647" y="-147" font-family="Helvetica,sans-Serif" font-size="10.00">src/libs/ifc/xml/vpatternconverter.h</text>
</a>
</g>
</g>
<!-- Node2&#45;&gt;Node15 -->
<g id="edge20" class="edge">
<title>Node2&#45;&gt;Node15</title>
<path fill="none" stroke="midnightblue" d="M606.85,-194C617.8,-182.13 630.8,-168.05 638.97,-159.19"/>
<polygon fill="midnightblue" stroke="midnightblue" points="604.23,-191.67 600.02,-201.4 609.37,-196.42 604.23,-191.67"/>
</g>
<!-- Node16 -->
<g id="node16" class="node">
<title>Node16</title>
<g id="a_node16"><a xlink:href="../../d5/d2c/vpatternconverter_8cpp.html" target="_top" xlink:title=" ">
<polygon fill="white" stroke="black" points="602,-73 602,-92 800,-92 800,-73 602,-73"/>
<text text-anchor="middle" x="701" y="-80" font-family="Helvetica,sans-Serif" font-size="10.00">src/libs/ifc/xml/vpatternconverter.cpp</text>
</a>
</g>
</g>
<!-- Node2&#45;&gt;Node16 -->
<g id="edge23" class="edge">
<title>Node2&#45;&gt;Node16</title>
<path fill="none" stroke="midnightblue" d="M562.57,-193.94C546.29,-176.91 530.19,-152.95 544,-134 560.1,-111.9 586.04,-99.26 612.24,-92.1"/>
<polygon fill="midnightblue" stroke="midnightblue" points="560.38,-196.7 569.96,-201.23 565.3,-191.71 560.38,-196.7"/>
</g>
<!-- Node3&#45;&gt;Node4 -->
<g id="edge3" class="edge">
<title>Node3&#45;&gt;Node4</title>
<path fill="none" stroke="midnightblue" d="M429.84,-129.71C449.39,-119.46 473.2,-106.98 491.15,-97.58"/>
<polygon fill="midnightblue" stroke="midnightblue" points="428.14,-126.65 420.91,-134.4 431.39,-132.85 428.14,-126.65"/>
</g>
<!-- Node5 -->
<g id="node5" class="node">
<title>Node5</title>
<g id="a_node5"><a xlink:href="../../d5/d6e/individual__size__converter_8cpp.html" target="_top" xlink:title=" ">
<polygon fill="white" stroke="black" points="208.5,-0.5 208.5,-30.5 347.5,-30.5 347.5,-0.5 208.5,-0.5"/>
<text text-anchor="start" x="216.5" y="-18.5" font-family="Helvetica,sans-Serif" font-size="10.00">src/libs/ifc/xml/individual</text>
<text text-anchor="middle" x="278" y="-7.5" font-family="Helvetica,sans-Serif" font-size="10.00">_size_converter.cpp</text>
</a>
</g>
</g>
<!-- Node3&#45;&gt;Node5 -->
<g id="edge4" class="edge">
<title>Node3&#45;&gt;Node5</title>
<path fill="none" stroke="midnightblue" d="M390.73,-124.3C387.31,-106.79 380.47,-83.41 367,-67 353.7,-50.8 333.75,-38.8 316.11,-30.58"/>
<polygon fill="midnightblue" stroke="midnightblue" points="387.31,-125.07 392.44,-134.33 394.21,-123.89 387.31,-125.07"/>
</g>
<!-- Node3&#45;&gt;Node6 -->
<g id="edge5" class="edge">
<title>Node3&#45;&gt;Node6</title>
<path fill="none" stroke="midnightblue" d="M332.52,-131.85C293.39,-121.25 243.27,-107.68 206.1,-97.61"/>
<polygon fill="midnightblue" stroke="midnightblue" points="331.65,-135.24 342.22,-134.48 333.48,-128.48 331.65,-135.24"/>
</g>
<!-- Node3&#45;&gt;Node8 -->
<g id="edge8" class="edge">
<title>Node3&#45;&gt;Node8</title>
<path fill="none" stroke="midnightblue" d="M365.01,-128.45C350.55,-118.45 333.41,-106.6 320.36,-97.58"/>
<polygon fill="midnightblue" stroke="midnightblue" points="363.39,-131.59 373.6,-134.4 367.37,-125.83 363.39,-131.59"/>
</g>
<!-- Node9 -->
<g id="node9" class="node">
<title>Node9</title>
<g id="a_node9"><a xlink:href="../../d9/d94/multi__size__converter_8cpp.html" target="_top" xlink:title=" ">
<polygon fill="white" stroke="black" points="366,-0.5 366,-30.5 482,-30.5 482,-0.5 366,-0.5"/>
<text text-anchor="start" x="374" y="-18.5" font-family="Helvetica,sans-Serif" font-size="10.00">src/libs/ifc/xml/multi</text>
<text text-anchor="middle" x="424" y="-7.5" font-family="Helvetica,sans-Serif" font-size="10.00">_size_converter.cpp</text>
</a>
</g>
</g>
<!-- Node3&#45;&gt;Node9 -->
<g id="edge11" class="edge">
<title>Node3&#45;&gt;Node9</title>
<path fill="none" stroke="midnightblue" d="M399.48,-124.39C405.73,-96.9 415.73,-52.89 420.81,-30.52"/>
<polygon fill="midnightblue" stroke="midnightblue" points="396.01,-123.85 397.21,-134.37 402.84,-125.4 396.01,-123.85"/>
</g>
<!-- Node6&#45;&gt;Node5 -->
<g id="edge6" class="edge">
<title>Node6&#45;&gt;Node5</title>
<path fill="none" stroke="midnightblue" d="M189.84,-62.71C209.39,-52.46 233.2,-39.98 251.15,-30.58"/>
<polygon fill="midnightblue" stroke="midnightblue" points="188.14,-59.65 180.91,-67.4 191.39,-65.85 188.14,-59.65"/>
</g>
<!-- Node7 -->
<g id="node7" class="node">
<title>Node7</title>
<g id="a_node7"><a xlink:href="../../d9/de3/measurements_8cpp.html" target="_top" xlink:title=" ">
<polygon fill="white" stroke="black" points="0,-6 0,-25 190,-25 190,-6 0,-6"/>
<text text-anchor="middle" x="95" y="-13" font-family="Helvetica,sans-Serif" font-size="10.00">src/libs/vformat/measurements.cpp</text>
</a>
</g>
</g>
<!-- Node6&#45;&gt;Node7 -->
<g id="edge7" class="edge">
<title>Node6&#45;&gt;Node7</title>
<path fill="none" stroke="midnightblue" d="M134.17,-59.66C123.47,-47.86 110.85,-33.97 102.89,-25.19"/>
<polygon fill="midnightblue" stroke="midnightblue" points="131.89,-62.34 141.2,-67.4 137.07,-57.64 131.89,-62.34"/>
</g>
<!-- Node8&#45;&gt;Node7 -->
<g id="edge10" class="edge">
<title>Node8&#45;&gt;Node7</title>
<path fill="none" stroke="midnightblue" d="M246.16,-64.43C206.19,-51.75 153.35,-35 121.9,-25.03"/>
<polygon fill="midnightblue" stroke="midnightblue" points="245.18,-67.79 255.77,-67.48 247.3,-61.12 245.18,-67.79"/>
</g>
<!-- Node8&#45;&gt;Node9 -->
<g id="edge9" class="edge">
<title>Node8&#45;&gt;Node9</title>
<path fill="none" stroke="midnightblue" d="M335.84,-62.71C355.39,-52.46 379.2,-39.98 397.15,-30.58"/>
<polygon fill="midnightblue" stroke="midnightblue" points="334.14,-59.65 326.91,-67.4 337.39,-65.85 334.14,-59.65"/>
</g>
<!-- Node13 -->
<g id="node13" class="node">
<title>Node13</title>
<g id="a_node13"><a xlink:href="../../d7/d63/vlabeltemplateconverter_8cpp.html" target="_top" xlink:title=" ">
<polygon fill="white" stroke="black" points="854.5,-73 854.5,-92 1085.5,-92 1085.5,-73 854.5,-73"/>
<text text-anchor="middle" x="970" y="-80" font-family="Helvetica,sans-Serif" font-size="10.00">src/libs/ifc/xml/vlabeltemplateconverter.cpp</text>
</a>
</g>
</g>
<!-- Node12&#45;&gt;Node13 -->
<g id="edge18" class="edge">
<title>Node12&#45;&gt;Node13</title>
<path fill="none" stroke="midnightblue" d="M1023.15,-132.86C1009.39,-120.08 990.45,-102.49 979.29,-92.13"/>
<polygon fill="midnightblue" stroke="midnightblue" points="1020.85,-135.49 1030.56,-139.73 1025.61,-130.36 1020.85,-135.49"/>
</g>
<!-- Node14 -->
<g id="node14" class="node">
<title>Node14</title>
<g id="a_node14"><a xlink:href="../../d9/daf/vlabeltemplate_8cpp.html" target="_top" xlink:title=" ">
<polygon fill="white" stroke="black" points="1103.5,-73 1103.5,-92 1294.5,-92 1294.5,-73 1103.5,-73"/>
<text text-anchor="middle" x="1199" y="-80" font-family="Helvetica,sans-Serif" font-size="10.00">src/libs/vformat/vlabeltemplate.cpp</text>
</a>
</g>
</g>
<!-- Node12&#45;&gt;Node14 -->
<g id="edge19" class="edge">
<title>Node12&#45;&gt;Node14</title>
<path fill="none" stroke="midnightblue" d="M1070.73,-135.94C1102.31,-123.03 1150.62,-103.28 1178.05,-92.06"/>
<polygon fill="midnightblue" stroke="midnightblue" points="1069.05,-132.84 1061.11,-139.87 1071.69,-139.32 1069.05,-132.84"/>
</g>
<!-- Node15&#45;&gt;Node16 -->
<g id="edge21" class="edge">
<title>Node15&#45;&gt;Node16</title>
<path fill="none" stroke="midnightblue" d="M660.9,-131.77C671.43,-119.1 685.46,-102.2 693.83,-92.13"/>
<polygon fill="midnightblue" stroke="midnightblue" points="657.98,-129.81 654.28,-139.73 663.37,-134.28 657.98,-129.81"/>
</g>
<!-- Node15&#45;&gt;Node17 -->
<g id="edge22" class="edge">
<title>Node15&#45;&gt;Node17</title>
<path fill="none" stroke="midnightblue" d="M711.68,-138.55C724.05,-136.86 736.91,-135.25 749,-134 994.43,-108.62 1057.5,-122.74 1303,-98 1318.99,-96.39 1336.27,-94.21 1352.15,-92.03"/>
<polygon fill="midnightblue" stroke="midnightblue" points="710.85,-135.13 701.43,-139.98 711.82,-142.06 710.85,-135.13"/>
</g>
<!-- Node18&#45;&gt;Node17 -->
<g id="edge26" class="edge">
<title>Node18&#45;&gt;Node17</title>
<path fill="none" stroke="midnightblue" d="M1593.19,-205.44C1537.95,-196.86 1469.4,-183.06 1447,-165 1423.42,-145.99 1413.76,-108.99 1410.46,-92.18"/>
<polygon fill="midnightblue" stroke="midnightblue" points="1592.93,-208.94 1603.34,-206.98 1593.98,-202.01 1592.93,-208.94"/>
</g>
<!-- Node19 -->
<g id="node19" class="node">
<title>Node19</title>
<g id="a_node19"><a xlink:href="../../d6/de0/vlayoutpiece_8h.html" target="_top" xlink:title=" ">
<polygon fill="white" stroke="black" points="2255,-140 2255,-159 2421,-159 2421,-140 2255,-140"/>
<text text-anchor="middle" x="2338" y="-147" font-family="Helvetica,sans-Serif" font-size="10.00">src/libs/vlayout/vlayoutpiece.h</text>
</a>
</g>
</g>
<!-- Node18&#45;&gt;Node19 -->
<g id="edge27" class="edge">
<title>Node18&#45;&gt;Node19</title>
<path fill="none" stroke="midnightblue" d="M1735.04,-205.54C1746.66,-203.91 1758.68,-202.32 1770,-201 1941.83,-180.92 2143.74,-164.72 2254.6,-156.46"/>
<polygon fill="midnightblue" stroke="midnightblue" points="1734.35,-202.1 1724.94,-206.98 1735.34,-209.03 1734.35,-202.1"/>
</g>
<!-- Node29 -->
<g id="node29" class="node">
<title>Node29</title>
<g id="a_node29"><a xlink:href="../../d8/d70/vtextmanager_8cpp.html" target="_top" xlink:title=" ">
<polygon fill="white" stroke="black" points="2439,-140 2439,-159 2621,-159 2621,-140 2439,-140"/>
<text text-anchor="middle" x="2530" y="-147" font-family="Helvetica,sans-Serif" font-size="10.00">src/libs/vlayout/vtextmanager.cpp</text>
</a>
</g>
</g>
<!-- Node18&#45;&gt;Node29 -->
<g id="edge39" class="edge">
<title>Node18&#45;&gt;Node29</title>
<path fill="none" stroke="midnightblue" d="M1732.77,-205.52C1745.09,-203.81 1757.93,-202.2 1770,-201 2062.32,-171.89 2137.68,-194.11 2430,-165 2445.45,-163.46 2462.17,-161.25 2477.43,-159.02"/>
<polygon fill="midnightblue" stroke="midnightblue" points="1731.97,-202.1 1722.57,-206.98 1732.96,-209.03 1731.97,-202.1"/>
</g>
<!-- Node30 -->
<g id="node30" class="node">
<title>Node30</title>
<g id="a_node30"><a xlink:href="../../d0/da5/export__format__combobox_8h.html" target="_top" xlink:title=" ">
<polygon fill="white" stroke="black" points="1603.5,-134.5 1603.5,-164.5 1736.5,-164.5 1736.5,-134.5 1603.5,-134.5"/>
<text text-anchor="start" x="1611.5" y="-152.5" font-family="Helvetica,sans-Serif" font-size="10.00">src/libs/vwidgets/export</text>
<text text-anchor="middle" x="1670" y="-141.5" font-family="Helvetica,sans-Serif" font-size="10.00">_format_combobox.h</text>
</a>
</g>
</g>
<!-- Node18&#45;&gt;Node30 -->
<g id="edge40" class="edge">
<title>Node18&#45;&gt;Node30</title>
<path fill="none" stroke="midnightblue" d="M1670,-196.41C1670,-186.22 1670,-173.9 1670,-164.59"/>
<polygon fill="midnightblue" stroke="midnightblue" points="1666.5,-196.73 1670,-206.73 1673.5,-196.73 1666.5,-196.73"/>
</g>
<!-- Node32 -->
<g id="node32" class="node">
<title>Node32</title>
<g id="a_node32"><a xlink:href="../../d7/df4/group__tablewidgetitem_8cpp.html" target="_top" xlink:title=" ">
<polygon fill="white" stroke="black" points="1456.5,-134.5 1456.5,-164.5 1585.5,-164.5 1585.5,-134.5 1456.5,-134.5"/>
<text text-anchor="start" x="1464.5" y="-152.5" font-family="Helvetica,sans-Serif" font-size="10.00">src/libs/vwidgets/group</text>
<text text-anchor="middle" x="1521" y="-141.5" font-family="Helvetica,sans-Serif" font-size="10.00">_tablewidgetitem.cpp</text>
</a>
</g>
</g>
<!-- Node18&#45;&gt;Node32 -->
<g id="edge42" class="edge">
<title>Node18&#45;&gt;Node32</title>
<path fill="none" stroke="midnightblue" d="M1640.81,-202.77C1615.59,-191.77 1579.21,-175.89 1553.16,-164.53"/>
<polygon fill="midnightblue" stroke="midnightblue" points="1639.65,-206.08 1650.21,-206.87 1642.45,-199.66 1639.65,-206.08"/>
</g>
<!-- Node33 -->
<g id="node33" class="node">
<title>Node33</title>
<g id="a_node33"><a xlink:href="../../d3/d86/page__format__combobox_8h.html" target="_top" xlink:title=" ">
<polygon fill="white" stroke="black" points="1961.5,-134.5 1961.5,-164.5 2086.5,-164.5 2086.5,-134.5 1961.5,-134.5"/>
<text text-anchor="start" x="1969.5" y="-152.5" font-family="Helvetica,sans-Serif" font-size="10.00">src/libs/vwidgets/page</text>
<text text-anchor="middle" x="2024" y="-141.5" font-family="Helvetica,sans-Serif" font-size="10.00">_format_combobox.h</text>
</a>
</g>
</g>
<!-- Node18&#45;&gt;Node33 -->
<g id="edge43" class="edge">
<title>Node18&#45;&gt;Node33</title>
<path fill="none" stroke="midnightblue" d="M1729.41,-205.24C1786.53,-195.29 1875.25,-179.6 1952,-165 1955.01,-164.43 1958.08,-163.84 1961.19,-163.23"/>
<polygon fill="midnightblue" stroke="midnightblue" points="1728.72,-201.81 1719.47,-206.97 1729.92,-208.71 1728.72,-201.81"/>
</g>
<!-- Node35 -->
<g id="node35" class="node">
<title>Node35</title>
<g id="a_node35"><a xlink:href="../../de/d22/vsimplecurve_8cpp.html" target="_top" xlink:title=" ">
<polygon fill="white" stroke="black" points="1755,-140 1755,-159 1943,-159 1943,-140 1755,-140"/>
<text text-anchor="middle" x="1849" y="-147" font-family="Helvetica,sans-Serif" font-size="10.00">src/libs/vwidgets/vsimplecurve.cpp</text>
</a>
</g>
</g>
<!-- Node18&#45;&gt;Node35 -->
<g id="edge45" class="edge">
<title>Node18&#45;&gt;Node35</title>
<path fill="none" stroke="midnightblue" d="M1703.22,-203.44C1738.73,-190.54 1794.13,-170.42 1825.42,-159.06"/>
<polygon fill="midnightblue" stroke="midnightblue" points="1701.97,-200.17 1693.77,-206.87 1704.36,-206.75 1701.97,-200.17"/>
</g>
<!-- Node20 -->
<g id="node20" class="node">
<title>Node20</title>
<g id="a_node20"><a xlink:href="../../dd/d66/vdxfengine_8cpp.html" target="_top" xlink:title=" ">
<polygon fill="white" stroke="black" points="1873,-73 1873,-92 2027,-92 2027,-73 1873,-73"/>
<text text-anchor="middle" x="1950" y="-80" font-family="Helvetica,sans-Serif" font-size="10.00">src/libs/vdxf/vdxfengine.cpp</text>
</a>
</g>
</g>
<!-- Node19&#45;&gt;Node20 -->
<g id="edge28" class="edge">
<title>Node19&#45;&gt;Node20</title>
<path fill="none" stroke="midnightblue" d="M2276.74,-138.28C2215.73,-128.1 2119.38,-112 2036,-98 2024.5,-96.07 2012.14,-93.99 2000.48,-92.02"/>
<polygon fill="midnightblue" stroke="midnightblue" points="2276.53,-141.79 2286.97,-139.99 2277.68,-134.89 2276.53,-141.79"/>
</g>
<!-- Node21 -->
<g id="node21" class="node">
<title>Node21</title>
<g id="a_node21"><a xlink:href="../../de/da8/vbank_8cpp.html" target="_top" xlink:title=" ">
<polygon fill="white" stroke="black" points="2045,-73 2045,-92 2189,-92 2189,-73 2045,-73"/>
<text text-anchor="middle" x="2117" y="-80" font-family="Helvetica,sans-Serif" font-size="10.00">src/libs/vlayout/vbank.cpp</text>
</a>
</g>
</g>
<!-- Node19&#45;&gt;Node21 -->
<g id="edge29" class="edge">
<title>Node19&#45;&gt;Node21</title>
<path fill="none" stroke="midnightblue" d="M2298.93,-137.01C2255.19,-124.15 2185.32,-103.59 2146.12,-92.06"/>
<polygon fill="midnightblue" stroke="midnightblue" points="2298.07,-140.4 2308.65,-139.87 2300.05,-133.69 2298.07,-140.4"/>
</g>
<!-- Node22 -->
<g id="node22" class="node">
<title>Node22</title>
<g id="a_node22"><a xlink:href="../../df/d5d/vcontour_8cpp.html" target="_top" xlink:title=" ">
<polygon fill="white" stroke="black" points="2207,-73 2207,-92 2363,-92 2363,-73 2207,-73"/>
<text text-anchor="middle" x="2285" y="-80" font-family="Helvetica,sans-Serif" font-size="10.00">src/libs/vlayout/vcontour.cpp</text>
</a>
</g>
</g>
<!-- Node19&#45;&gt;Node22 -->
<g id="edge30" class="edge">
<title>Node19&#45;&gt;Node22</title>
<path fill="none" stroke="midnightblue" d="M2324.36,-131.77C2314.03,-119.1 2300.25,-102.2 2292.03,-92.13"/>
<polygon fill="midnightblue" stroke="midnightblue" points="2321.82,-134.2 2330.85,-139.73 2327.25,-129.77 2321.82,-134.2"/>
</g>
<!-- Node23 -->
<g id="node23" class="node">
<title>Node23</title>
<g id="a_node23"><a xlink:href="../../d2/d2d/vlayoutpaper__p_8h.html" target="_top" xlink:title=" ">
<polygon fill="white" stroke="black" points="2419.5,-73 2419.5,-92 2598.5,-92 2598.5,-73 2419.5,-73"/>
<text text-anchor="middle" x="2509" y="-80" font-family="Helvetica,sans-Serif" font-size="10.00">src/libs/vlayout/vlayoutpaper_p.h</text>
</a>
</g>
</g>
<!-- Node19&#45;&gt;Node23 -->
<g id="edge31" class="edge">
<title>Node19&#45;&gt;Node23</title>
<path fill="none" stroke="midnightblue" d="M2370.17,-136.27C2404.11,-123.37 2456.71,-103.38 2486.47,-92.06"/>
<polygon fill="midnightblue" stroke="midnightblue" points="2368.81,-133.04 2360.71,-139.87 2371.3,-139.59 2368.81,-133.04"/>
</g>
<!-- Node24 -->
<g id="node24" class="node">
<title>Node24</title>
<g id="a_node24"><a xlink:href="../../d1/dd1/vlayoutpaper_8cpp.html" target="_top" xlink:title=" ">
<polygon fill="white" stroke="black" points="2418,-6 2418,-25 2596,-25 2596,-6 2418,-6"/>
<text text-anchor="middle" x="2507" y="-13" font-family="Helvetica,sans-Serif" font-size="10.00">src/libs/vlayout/vlayoutpaper.cpp</text>
</a>
</g>
</g>
<!-- Node19&#45;&gt;Node24 -->
<g id="edge34" class="edge">
<title>Node19&#45;&gt;Node24</title>
<path fill="none" stroke="midnightblue" d="M2350.11,-131.75C2363.52,-114.05 2386.51,-86.1 2411,-67 2434.32,-48.82 2465.14,-33.94 2485.49,-25.16"/>
<polygon fill="midnightblue" stroke="midnightblue" points="2347.16,-129.85 2344.01,-139.97 2352.78,-134.02 2347.16,-129.85"/>
</g>
<!-- Node25 -->
<g id="node25" class="node">
<title>Node25</title>
<g id="a_node25"><a xlink:href="../../d3/d39/vlayoutgenerator_8cpp.html" target="_top" xlink:title=" ">
<polygon fill="white" stroke="black" points="2783.5,-73 2783.5,-92 2980.5,-92 2980.5,-73 2783.5,-73"/>
<text text-anchor="middle" x="2882" y="-80" font-family="Helvetica,sans-Serif" font-size="10.00">src/libs/vlayout/vlayoutgenerator.cpp</text>
</a>
</g>
</g>
<!-- Node19&#45;&gt;Node25 -->
<g id="edge33" class="edge">
<title>Node19&#45;&gt;Node25</title>
<path fill="none" stroke="midnightblue" d="M2399.18,-138.4C2409.45,-136.84 2420.02,-135.31 2430,-134 2582.42,-114.03 2621.36,-116.23 2774,-98 2789.22,-96.18 2805.61,-94.06 2820.93,-92.02"/>
<polygon fill="midnightblue" stroke="midnightblue" points="2398.37,-134.98 2389.03,-139.97 2399.45,-141.9 2398.37,-134.98"/>
</g>
<!-- Node26 -->
<g id="node26" class="node">
<title>Node26</title>
<g id="a_node26"><a xlink:href="../../db/d5c/vposition_8h.html" target="_top" xlink:title=" ">
<polygon fill="white" stroke="black" points="2617,-73 2617,-92 2765,-92 2765,-73 2617,-73"/>
<text text-anchor="middle" x="2691" y="-80" font-family="Helvetica,sans-Serif" font-size="10.00">src/libs/vlayout/vposition.h</text>
</a>
</g>
</g>
<!-- Node19&#45;&gt;Node26 -->
<g id="edge35" class="edge">
<title>Node19&#45;&gt;Node26</title>
<path fill="none" stroke="midnightblue" d="M2394.39,-138.12C2463.77,-125.34 2580.26,-103.89 2644.67,-92.03"/>
<polygon fill="midnightblue" stroke="midnightblue" points="2393.71,-134.68 2384.51,-139.94 2394.98,-141.57 2393.71,-134.68"/>
</g>
<!-- Node28 -->
<g id="node28" class="node">
<title>Node28</title>
<g id="a_node28"><a xlink:href="../../dd/d70/vlayoutpiece_8cpp.html" target="_top" xlink:title=" ">
<polygon fill="white" stroke="black" points="2998.5,-73 2998.5,-92 3175.5,-92 3175.5,-73 2998.5,-73"/>
<text text-anchor="middle" x="3087" y="-80" font-family="Helvetica,sans-Serif" font-size="10.00">src/libs/vlayout/vlayoutpiece.cpp</text>
</a>
</g>
</g>
<!-- Node19&#45;&gt;Node28 -->
<g id="edge38" class="edge">
<title>Node19&#45;&gt;Node28</title>
<path fill="none" stroke="midnightblue" d="M2396.6,-138.44C2407.67,-136.77 2419.17,-135.2 2430,-134 2677.89,-106.56 2742,-124.46 2990,-98 3004.81,-96.42 3020.83,-94.23 3035.5,-92.02"/>
<polygon fill="midnightblue" stroke="midnightblue" points="2395.94,-135 2386.59,-139.99 2397.01,-141.92 2395.94,-135"/>
</g>
<!-- Node23&#45;&gt;Node24 -->
<g id="edge32" class="edge">
<title>Node23&#45;&gt;Node24</title>
<path fill="none" stroke="midnightblue" d="M2508.42,-62.54C2508.04,-50.17 2507.56,-34.62 2507.27,-25.13"/>
<polygon fill="midnightblue" stroke="midnightblue" points="2504.92,-62.85 2508.73,-72.73 2511.92,-62.63 2504.92,-62.85"/>
</g>
<!-- Node26&#45;&gt;Node24 -->
<g id="edge36" class="edge">
<title>Node26&#45;&gt;Node24</title>
<path fill="none" stroke="midnightblue" d="M2656.85,-69.44C2620.35,-56.54 2563.4,-36.42 2531.24,-25.06"/>
<polygon fill="midnightblue" stroke="midnightblue" points="2655.97,-72.84 2666.57,-72.87 2658.3,-66.24 2655.97,-72.84"/>
</g>
<!-- Node27 -->
<g id="node27" class="node">
<title>Node27</title>
<g id="a_node27"><a xlink:href="../../df/d76/vposition_8cpp.html" target="_top" xlink:title=" ">
<polygon fill="white" stroke="black" points="2613.5,-6 2613.5,-25 2772.5,-25 2772.5,-6 2613.5,-6"/>
<text text-anchor="middle" x="2693" y="-13" font-family="Helvetica,sans-Serif" font-size="10.00">src/libs/vlayout/vposition.cpp</text>
</a>
</g>
</g>
<!-- Node26&#45;&gt;Node27 -->
<g id="edge37" class="edge">
<title>Node26&#45;&gt;Node27</title>
<path fill="none" stroke="midnightblue" d="M2691.58,-62.54C2691.96,-50.17 2692.44,-34.62 2692.73,-25.13"/>
<polygon fill="midnightblue" stroke="midnightblue" points="2688.08,-62.63 2691.27,-72.73 2695.08,-62.85 2688.08,-62.63"/>
</g>
<!-- Node31 -->
<g id="node31" class="node">
<title>Node31</title>
<g id="a_node31"><a xlink:href="../../df/d40/export__format__combobox_8cpp.html" target="_top" xlink:title=" ">
<polygon fill="white" stroke="black" points="1572.5,-67.5 1572.5,-97.5 1705.5,-97.5 1705.5,-67.5 1572.5,-67.5"/>
<text text-anchor="start" x="1580.5" y="-85.5" font-family="Helvetica,sans-Serif" font-size="10.00">src/libs/vwidgets/export</text>
<text text-anchor="middle" x="1639" y="-74.5" font-family="Helvetica,sans-Serif" font-size="10.00">_format_combobox.cpp</text>
</a>
</g>
</g>
<!-- Node30&#45;&gt;Node31 -->
<g id="edge41" class="edge">
<title>Node30&#45;&gt;Node31</title>
<path fill="none" stroke="midnightblue" d="M1658.93,-125.28C1654.51,-116.02 1649.57,-105.66 1645.71,-97.58"/>
<polygon fill="midnightblue" stroke="midnightblue" points="1655.81,-126.88 1663.27,-134.4 1662.13,-123.86 1655.81,-126.88"/>
</g>
<!-- Node34 -->
<g id="node34" class="node">
<title>Node34</title>
<g id="a_node34"><a xlink:href="../../d2/d28/page__format__combobox_8cpp.html" target="_top" xlink:title=" ">
<polygon fill="white" stroke="black" points="1723.5,-67.5 1723.5,-97.5 1854.5,-97.5 1854.5,-67.5 1723.5,-67.5"/>
<text text-anchor="start" x="1731.5" y="-85.5" font-family="Helvetica,sans-Serif" font-size="10.00">src/libs/vwidgets/page</text>
<text text-anchor="middle" x="1789" y="-74.5" font-family="Helvetica,sans-Serif" font-size="10.00">_format_combobox.cpp</text>
</a>
</g>
</g>
<!-- Node33&#45;&gt;Node34 -->
<g id="edge44" class="edge">
<title>Node33&#45;&gt;Node34</title>
<path fill="none" stroke="midnightblue" d="M1963.32,-131.71C1925.07,-121.14 1876.26,-107.63 1840.02,-97.61"/>
<polygon fill="midnightblue" stroke="midnightblue" points="1962.73,-135.18 1973.3,-134.48 1964.59,-128.44 1962.73,-135.18"/>
</g>
<!-- Node37&#45;&gt;Node7 -->
<g id="edge49" class="edge">
<title>Node37&#45;&gt;Node7</title>
<path fill="none" stroke="midnightblue" d="M179.65,-201.65C148.28,-182.89 96.37,-146.13 75,-98 63.88,-72.97 79.88,-40.75 89.16,-25.4"/>
<polygon fill="midnightblue" stroke="midnightblue" points="178.27,-204.9 188.67,-206.89 181.78,-198.84 178.27,-204.9"/>
</g>
<!-- Node38&#45;&gt;Node14 -->
<g id="edge51" class="edge">
<title>Node38&#45;&gt;Node14</title>
<path fill="none" stroke="midnightblue" d="M1288.1,-199.55C1303.2,-182.57 1321.6,-155.28 1308,-134 1293.74,-111.68 1266.8,-99.08 1243.28,-92.04"/>
<polygon fill="midnightblue" stroke="midnightblue" points="1285.41,-197.3 1281.1,-206.98 1290.5,-202.1 1285.41,-197.3"/>
</g>
</g>
</svg>
        <g id="navigator" transform="translate(0 0)" fill="#404254">
                <rect fill="#f2f5e9" fill-opacity="0.5" stroke="#606060" stroke-width=".5" x="0" y="0" width="60" height="60"/>
                <use id="zoomplus" xlink:href="#zoomPlus" x="17" y="9" onmousedown="handleZoom(evt,'in')"/>
                <use id="zoomminus" xlink:href="#zoomMin" x="42" y="9" onmousedown="handleZoom(evt,'out')"/>
                <use id="reset" xlink:href="#resetDef" x="30" y="36" onmousedown="handleReset()"/>
                <g id="arrowUp" xlink:href="#dirArrow" transform="translate(30 24)" onmousedown="handlePan(0,-1)">
                  <use xlink:href="#rim" fill="#404040">
                        <set attributeName="fill" to="#808080" begin="arrowUp.mouseover" end="arrowUp.mouseout"/>
                  </use>
                  <path fill="none" stroke="white" stroke-width="1.5" d="M0,-3.0v7 M-2.5,-0.5L0,-3.0L2.5,-0.5"/>
                </g>
                <g id="arrowRight" xlink:href="#dirArrow" transform="rotate(90) translate(36 -43)" onmousedown="handlePan(1,0)">
                  <use xlink:href="#rim" fill="#404040">
                        <set attributeName="fill" to="#808080" begin="arrowRight.mouseover" end="arrowRight.mouseout"/>
                  </use>
                  <path fill="none" stroke="white" stroke-width="1.5" d="M0,-3.0v7 M-2.5,-0.5L0,-3.0L2.5,-0.5"/>
                </g>
                <g id="arrowDown" xlink:href="#dirArrow" transform="rotate(180) translate(-30 -48)" onmousedown="handlePan(0,1)">
                  <use xlink:href="#rim" fill="#404040">
                        <set attributeName="fill" to="#808080" begin="arrowDown.mouseover" end="arrowDown.mouseout"/>
                  </use>
                  <path fill="none" stroke="white" stroke-width="1.5" d="M0,-3.0v7 M-2.5,-0.5L0,-3.0L2.5,-0.5"/>
                </g>
                <g id="arrowLeft" xlink:href="#dirArrow" transform="rotate(270) translate(-36 17)" onmousedown="handlePan(-1,0)">
                  <use xlink:href="#rim" fill="#404040">
                        <set attributeName="fill" to="#808080" begin="arrowLeft.mouseover" end="arrowLeft.mouseout"/>
                  </use>
                  <path fill="none" stroke="white" stroke-width="1.5" d="M0,-3.0v7 M-2.5,-0.5L0,-3.0L2.5,-0.5"/>
                </g>
        </g>
        <svg viewBox="0 0 15 15" width="100%" height="30px" preserveAspectRatio="xMaxYMin meet">
         <g id="arrow_out" transform="scale(0.3 0.3)">
          <a xlink:href="vdomdocument_8h__dep__incl_org.svg" target="_base">
           <rect id="button" ry="5" rx="5" y="6" x="6" height="38" width="38"
                fill="#f2f5e9" fill-opacity="0.5" stroke="#606060" stroke-width="1.0"/>
           <path id="arrow"
             d="M 11.500037,31.436501 C 11.940474,20.09759 22.043105,11.32322 32.158766,21.979434 L 37.068811,17.246167 C 37.068811,17.246167 37.088388,32 37.088388,32 L 22.160133,31.978069 C 22.160133,31.978069 26.997745,27.140456 26.997745,27.140456 C 18.528582,18.264221 13.291696,25.230495 11.500037,31.436501 z"
             style="fill:#404040;"/>
          </a>
         </g>
        </svg>
</svg>
