<?xml version="1.0" encoding="UTF-8" standalone="no"?>
<!DOCTYPE svg PUBLIC "-//W3C//DTD SVG 1.1//EN"
 "http://www.w3.org/Graphics/SVG/1.1/DTD/svg11.dtd">
<!-- Generated by graphviz version 2.43.0 (0)
 -->
<!-- Title: src/libs/ifc/xml/abstract_converter.h Pages: 1 -->
<svg width="1396pt" height="240pt"
 viewBox="0.00 0.00 1395.50 240.00" xmlns="http://www.w3.org/2000/svg" xmlns:xlink="http://www.w3.org/1999/xlink">
<g id="graph0" class="graph" transform="scale(1 1) rotate(0) translate(4 236)">
<title>src/libs/ifc/xml/abstract_converter.h</title>
<polygon fill="white" stroke="transparent" points="-4,4 -4,-236 1391.5,-236 1391.5,4 -4,4"/>
<!-- Node1 -->
<g id="node1" class="node">
<title>Node1</title>
<g id="a_node1"><a xlink:title=" ">
<polygon fill="#bfbfbf" stroke="black" points="415,-201.5 415,-231.5 546,-231.5 546,-201.5 415,-201.5"/>
<text text-anchor="start" x="423" y="-219.5" font-family="Helvetica,sans-Serif" font-size="10.00">src/libs/ifc/xml/abstract</text>
<text text-anchor="middle" x="480.5" y="-208.5" font-family="Helvetica,sans-Serif" font-size="10.00">_converter.h</text>
</a>
</g>
</g>
<!-- Node2 -->
<g id="node2" class="node">
<title>Node2</title>
<g id="a_node2"><a xlink:href="../../da/d2c/abstract__m__converter_8h.html" target="_top" xlink:title=" ">
<polygon fill="white" stroke="black" points="189,-134.5 189,-164.5 320,-164.5 320,-134.5 189,-134.5"/>
<text text-anchor="start" x="197" y="-152.5" font-family="Helvetica,sans-Serif" font-size="10.00">src/libs/ifc/xml/abstract</text>
<text text-anchor="middle" x="254.5" y="-141.5" font-family="Helvetica,sans-Serif" font-size="10.00">_m_converter.h</text>
</a>
</g>
</g>
<!-- Node1&#45;&gt;Node2 -->
<g id="edge1" class="edge">
<title>Node1&#45;&gt;Node2</title>
<path fill="none" stroke="midnightblue" d="M421.67,-198.58C384.96,-188.02 338.27,-174.59 303.56,-164.61"/>
<polygon fill="midnightblue" stroke="midnightblue" points="421.16,-202.08 431.74,-201.48 423.1,-195.35 421.16,-202.08"/>
</g>
<!-- Node3 -->
<g id="node3" class="node">
<title>Node3</title>
<g id="a_node3"><a xlink:href="../../de/dec/abstract__m__converter_8cpp.html" target="_top" xlink:title=" ">
<polygon fill="white" stroke="black" points="0,-67.5 0,-97.5 131,-97.5 131,-67.5 0,-67.5"/>
<text text-anchor="start" x="8" y="-85.5" font-family="Helvetica,sans-Serif" font-size="10.00">src/libs/ifc/xml/abstract</text>
<text text-anchor="middle" x="65.5" y="-74.5" font-family="Helvetica,sans-Serif" font-size="10.00">_m_converter.cpp</text>
</a>
</g>
</g>
<!-- Node1&#45;&gt;Node3 -->
<g id="edge11" class="edge">
<title>Node1&#45;&gt;Node3</title>
<path fill="none" stroke="midnightblue" d="M404.57,-212.24C342.09,-207.36 252.28,-195.21 179.5,-165 139.95,-148.58 100.9,-116.22 80.35,-97.59"/>
<polygon fill="midnightblue" stroke="midnightblue" points="404.51,-215.75 414.74,-212.99 405.03,-208.77 404.51,-215.75"/>
</g>
<!-- Node5 -->
<g id="node5" class="node">
<title>Node5</title>
<g id="a_node5"><a xlink:href="../../d0/d93/individual__size__converter_8h.html" target="_top" xlink:title=" ">
<polygon fill="white" stroke="black" points="188,-67.5 188,-97.5 327,-97.5 327,-67.5 188,-67.5"/>
<text text-anchor="start" x="196" y="-85.5" font-family="Helvetica,sans-Serif" font-size="10.00">src/libs/ifc/xml/individual</text>
<text text-anchor="middle" x="257.5" y="-74.5" font-family="Helvetica,sans-Serif" font-size="10.00">_size_converter.h</text>
</a>
</g>
</g>
<!-- Node1&#45;&gt;Node5 -->
<g id="edge13" class="edge">
<title>Node1&#45;&gt;Node5</title>
<path fill="none" stroke="midnightblue" d="M447.78,-196.13C402.34,-169.24 321.23,-121.22 281.19,-97.52"/>
<polygon fill="midnightblue" stroke="midnightblue" points="446.25,-199.29 456.64,-201.37 449.81,-193.27 446.25,-199.29"/>
</g>
<!-- Node7 -->
<g id="node7" class="node">
<title>Node7</title>
<g id="a_node7"><a xlink:href="../../d5/d4c/multi__size__converter_8h.html" target="_top" xlink:title=" ">
<polygon fill="white" stroke="black" points="383.5,-67.5 383.5,-97.5 499.5,-97.5 499.5,-67.5 383.5,-67.5"/>
<text text-anchor="start" x="391.5" y="-85.5" font-family="Helvetica,sans-Serif" font-size="10.00">src/libs/ifc/xml/multi</text>
<text text-anchor="middle" x="441.5" y="-74.5" font-family="Helvetica,sans-Serif" font-size="10.00">_size_converter.h</text>
</a>
</g>
</g>
<!-- Node1&#45;&gt;Node7 -->
<g id="edge14" class="edge">
<title>Node1&#45;&gt;Node7</title>
<path fill="none" stroke="midnightblue" d="M436.8,-196.11C424.42,-188.33 412.44,-178.05 405.5,-165 393.29,-142.06 412.61,-114.13 427.33,-97.64"/>
<polygon fill="midnightblue" stroke="midnightblue" points="435.4,-199.35 445.81,-201.34 438.92,-193.3 435.4,-199.35"/>
</g>
<!-- Node9 -->
<g id="node9" class="node">
<title>Node9</title>
<g id="a_node9"><a xlink:href="../../d0/d08/abstract__converter_8cpp.html" target="_top" xlink:title=" ">
<polygon fill="white" stroke="black" points="415,-134.5 415,-164.5 546,-164.5 546,-134.5 415,-134.5"/>
<text text-anchor="start" x="423" y="-152.5" font-family="Helvetica,sans-Serif" font-size="10.00">src/libs/ifc/xml/abstract</text>
<text text-anchor="middle" x="480.5" y="-141.5" font-family="Helvetica,sans-Serif" font-size="10.00">_converter.cpp</text>
</a>
</g>
</g>
<!-- Node1&#45;&gt;Node9 -->
<g id="edge12" class="edge">
<title>Node1&#45;&gt;Node9</title>
<path fill="none" stroke="midnightblue" d="M480.5,-191.11C480.5,-182.15 480.5,-172.32 480.5,-164.58"/>
<polygon fill="midnightblue" stroke="midnightblue" points="477,-191.4 480.5,-201.4 484,-191.4 477,-191.4"/>
</g>
<!-- Node10 -->
<g id="node10" class="node">
<title>Node10</title>
<g id="a_node10"><a xlink:href="../../d4/d90/fvupdater_8cpp.html" target="_top" xlink:title=" ">
<polygon fill="white" stroke="black" points="564,-140 564,-159 717,-159 717,-140 564,-140"/>
<text text-anchor="middle" x="640.5" y="-147" font-family="Helvetica,sans-Serif" font-size="10.00">src/libs/fervor/fvupdater.cpp</text>
</a>
</g>
</g>
<!-- Node1&#45;&gt;Node10 -->
<g id="edge15" class="edge">
<title>Node1&#45;&gt;Node10</title>
<path fill="none" stroke="midnightblue" d="M524.51,-197.62C555.48,-185.04 595.54,-168.77 619.56,-159.01"/>
<polygon fill="midnightblue" stroke="midnightblue" points="523.16,-194.39 515.22,-201.4 525.8,-200.87 523.16,-194.39"/>
</g>
<!-- Node11 -->
<g id="node11" class="node">
<title>Node11</title>
<g id="a_node11"><a xlink:href="../../d5/d35/vlabeltemplateconverter_8h.html" target="_top" xlink:title=" ">
<polygon fill="white" stroke="black" points="735.5,-140 735.5,-159 955.5,-159 955.5,-140 735.5,-140"/>
<text text-anchor="middle" x="845.5" y="-147" font-family="Helvetica,sans-Serif" font-size="10.00">src/libs/ifc/xml/vlabeltemplateconverter.h</text>
</a>
</g>
</g>
<!-- Node1&#45;&gt;Node11 -->
<g id="edge16" class="edge">
<title>Node1&#45;&gt;Node11</title>
<path fill="none" stroke="midnightblue" d="M556.17,-202.02C628.72,-189.1 736.02,-170 797.52,-159.04"/>
<polygon fill="midnightblue" stroke="midnightblue" points="555.41,-198.61 546.18,-203.8 556.64,-205.5 555.41,-198.61"/>
</g>
<!-- Node14 -->
<g id="node14" class="node">
<title>Node14</title>
<g id="a_node14"><a xlink:href="../../d5/d2c/vpatternconverter_8cpp.html" target="_top" xlink:title=" ">
<polygon fill="white" stroke="black" points="979.5,-73 979.5,-92 1177.5,-92 1177.5,-73 979.5,-73"/>
<text text-anchor="middle" x="1078.5" y="-80" font-family="Helvetica,sans-Serif" font-size="10.00">src/libs/ifc/xml/vpatternconverter.cpp</text>
</a>
</g>
</g>
<!-- Node1&#45;&gt;Node14 -->
<g id="edge19" class="edge">
<title>Node1&#45;&gt;Node14</title>
<path fill="none" stroke="midnightblue" d="M556.42,-212.86C673.64,-207.9 892.66,-194.88 964.5,-165 984.62,-156.63 984.96,-146.94 1002.5,-134 1023.67,-118.39 1049.34,-101.79 1064.77,-92.05"/>
<polygon fill="midnightblue" stroke="midnightblue" points="555.94,-209.38 546.1,-213.29 556.23,-216.37 555.94,-209.38"/>
</g>
<!-- Node15 -->
<g id="node15" class="node">
<title>Node15</title>
<g id="a_node15"><a xlink:href="../../df/d2f/vpatternconverter_8h.html" target="_top" xlink:title=" ">
<polygon fill="white" stroke="black" points="1011,-140 1011,-159 1198,-159 1198,-140 1011,-140"/>
<text text-anchor="middle" x="1104.5" y="-147" font-family="Helvetica,sans-Serif" font-size="10.00">src/libs/ifc/xml/vpatternconverter.h</text>
</a>
</g>
</g>
<!-- Node1&#45;&gt;Node15 -->
<g id="edge20" class="edge">
<title>Node1&#45;&gt;Node15</title>
<path fill="none" stroke="midnightblue" d="M556.38,-208.98C657.23,-200.11 840.96,-183.25 997.5,-165 1012.77,-163.22 1029.23,-161.09 1044.56,-159.02"/>
<polygon fill="midnightblue" stroke="midnightblue" points="555.94,-205.51 546.28,-209.87 556.55,-212.48 555.94,-205.51"/>
</g>
<!-- Node2&#45;&gt;Node3 -->
<g id="edge2" class="edge">
<title>Node2&#45;&gt;Node3</title>
<path fill="none" stroke="midnightblue" d="M203.88,-131.09C173.37,-120.6 135.02,-107.41 106.43,-97.58"/>
<polygon fill="midnightblue" stroke="midnightblue" points="202.9,-134.45 213.49,-134.4 205.17,-127.83 202.9,-134.45"/>
</g>
<!-- Node4 -->
<g id="node4" class="node">
<title>Node4</title>
<g id="a_node4"><a xlink:href="../../d5/d6e/individual__size__converter_8cpp.html" target="_top" xlink:title=" ">
<polygon fill="white" stroke="black" points="54,-0.5 54,-30.5 193,-30.5 193,-0.5 54,-0.5"/>
<text text-anchor="start" x="62" y="-18.5" font-family="Helvetica,sans-Serif" font-size="10.00">src/libs/ifc/xml/individual</text>
<text text-anchor="middle" x="123.5" y="-7.5" font-family="Helvetica,sans-Serif" font-size="10.00">_size_converter.cpp</text>
</a>
</g>
</g>
<!-- Node2&#45;&gt;Node4 -->
<g id="edge3" class="edge">
<title>Node2&#45;&gt;Node4</title>
<path fill="none" stroke="midnightblue" d="M219.32,-129.14C205.68,-120.65 190.49,-109.9 178.5,-98 157.79,-77.43 140.2,-47.98 130.81,-30.69"/>
<polygon fill="midnightblue" stroke="midnightblue" points="217.64,-132.22 228.01,-134.39 221.26,-126.22 217.64,-132.22"/>
</g>
<!-- Node2&#45;&gt;Node5 -->
<g id="edge4" class="edge">
<title>Node2&#45;&gt;Node5</title>
<path fill="none" stroke="midnightblue" d="M255.61,-124.4C256.03,-115.37 256.49,-105.41 256.85,-97.58"/>
<polygon fill="midnightblue" stroke="midnightblue" points="252.12,-124.25 255.15,-134.4 259.11,-124.57 252.12,-124.25"/>
</g>
<!-- Node2&#45;&gt;Node7 -->
<g id="edge7" class="edge">
<title>Node2&#45;&gt;Node7</title>
<path fill="none" stroke="midnightblue" d="M304.58,-131.09C334.77,-120.6 372.72,-107.41 401,-97.58"/>
<polygon fill="midnightblue" stroke="midnightblue" points="303.37,-127.81 295.08,-134.4 305.67,-134.42 303.37,-127.81"/>
</g>
<!-- Node8 -->
<g id="node8" class="node">
<title>Node8</title>
<g id="a_node8"><a xlink:href="../../d9/d94/multi__size__converter_8cpp.html" target="_top" xlink:title=" ">
<polygon fill="white" stroke="black" points="419.5,-0.5 419.5,-30.5 535.5,-30.5 535.5,-0.5 419.5,-0.5"/>
<text text-anchor="start" x="427.5" y="-18.5" font-family="Helvetica,sans-Serif" font-size="10.00">src/libs/ifc/xml/multi</text>
<text text-anchor="middle" x="477.5" y="-7.5" font-family="Helvetica,sans-Serif" font-size="10.00">_size_converter.cpp</text>
</a>
</g>
</g>
<!-- Node2&#45;&gt;Node8 -->
<g id="edge10" class="edge">
<title>Node2&#45;&gt;Node8</title>
<path fill="none" stroke="midnightblue" d="M287.59,-129.05C302.48,-119.99 320.14,-108.84 335.5,-98 353.59,-85.23 355.78,-78.83 374.5,-67 396.72,-52.95 423.41,-39.97 444.05,-30.68"/>
<polygon fill="midnightblue" stroke="midnightblue" points="285.47,-126.24 278.71,-134.39 289.08,-132.23 285.47,-126.24"/>
</g>
<!-- Node5&#45;&gt;Node4 -->
<g id="edge5" class="edge">
<title>Node5&#45;&gt;Node4</title>
<path fill="none" stroke="midnightblue" d="M219.35,-62.99C198.11,-52.69 172.09,-40.07 152.52,-30.58"/>
<polygon fill="midnightblue" stroke="midnightblue" points="217.9,-66.18 228.42,-67.4 220.95,-59.88 217.9,-66.18"/>
</g>
<!-- Node6 -->
<g id="node6" class="node">
<title>Node6</title>
<g id="a_node6"><a xlink:href="../../d9/de3/measurements_8cpp.html" target="_top" xlink:title=" ">
<polygon fill="white" stroke="black" points="211.5,-6 211.5,-25 401.5,-25 401.5,-6 211.5,-6"/>
<text text-anchor="middle" x="306.5" y="-13" font-family="Helvetica,sans-Serif" font-size="10.00">src/libs/vformat/measurements.cpp</text>
</a>
</g>
</g>
<!-- Node5&#45;&gt;Node6 -->
<g id="edge6" class="edge">
<title>Node5&#45;&gt;Node6</title>
<path fill="none" stroke="midnightblue" d="M274.22,-59.32C283.06,-47.6 293.4,-33.88 299.95,-25.19"/>
<polygon fill="midnightblue" stroke="midnightblue" points="271.36,-57.3 268.13,-67.4 276.95,-61.52 271.36,-57.3"/>
</g>
<!-- Node7&#45;&gt;Node6 -->
<g id="edge9" class="edge">
<title>Node7&#45;&gt;Node6</title>
<path fill="none" stroke="midnightblue" d="M403.01,-62.97C377.08,-50.48 344.09,-34.6 324.17,-25.01"/>
<polygon fill="midnightblue" stroke="midnightblue" points="401.68,-66.21 412.21,-67.4 404.72,-59.9 401.68,-66.21"/>
</g>
<!-- Node7&#45;&gt;Node8 -->
<g id="edge8" class="edge">
<title>Node7&#45;&gt;Node8</title>
<path fill="none" stroke="midnightblue" d="M454.2,-58.58C459.37,-49.24 465.18,-38.75 469.7,-30.58"/>
<polygon fill="midnightblue" stroke="midnightblue" points="451.09,-56.95 449.31,-67.4 457.22,-60.34 451.09,-56.95"/>
</g>
<!-- Node12 -->
<g id="node12" class="node">
<title>Node12</title>
<g id="a_node12"><a xlink:href="../../d7/d63/vlabeltemplateconverter_8cpp.html" target="_top" xlink:title=" ">
<polygon fill="white" stroke="black" points="730,-73 730,-92 961,-92 961,-73 730,-73"/>
<text text-anchor="middle" x="845.5" y="-80" font-family="Helvetica,sans-Serif" font-size="10.00">src/libs/ifc/xml/vlabeltemplateconverter.cpp</text>
</a>
</g>
</g>
<!-- Node11&#45;&gt;Node12 -->
<g id="edge17" class="edge">
<title>Node11&#45;&gt;Node12</title>
<path fill="none" stroke="midnightblue" d="M845.5,-129.54C845.5,-117.17 845.5,-101.62 845.5,-92.13"/>
<polygon fill="midnightblue" stroke="midnightblue" points="842,-129.73 845.5,-139.73 849,-129.73 842,-129.73"/>
</g>
<!-- Node13 -->
<g id="node13" class="node">
<title>Node13</title>
<g id="a_node13"><a xlink:href="../../d9/daf/vlabeltemplate_8cpp.html" target="_top" xlink:title=" ">
<polygon fill="white" stroke="black" points="521,-73 521,-92 712,-92 712,-73 521,-73"/>
<text text-anchor="middle" x="616.5" y="-80" font-family="Helvetica,sans-Serif" font-size="10.00">src/libs/vformat/vlabeltemplate.cpp</text>
</a>
</g>
</g>
<!-- Node11&#45;&gt;Node13 -->
<g id="edge18" class="edge">
<title>Node11&#45;&gt;Node13</title>
<path fill="none" stroke="midnightblue" d="M805.31,-137.09C760,-124.23 687.38,-103.62 646.67,-92.06"/>
<polygon fill="midnightblue" stroke="midnightblue" points="804.51,-140.5 815.09,-139.87 806.43,-133.77 804.51,-140.5"/>
</g>
<!-- Node15&#45;&gt;Node14 -->
<g id="edge22" class="edge">
<title>Node15&#45;&gt;Node14</title>
<path fill="none" stroke="midnightblue" d="M1097.22,-130.29C1092.22,-117.81 1085.83,-101.81 1081.95,-92.13"/>
<polygon fill="midnightblue" stroke="midnightblue" points="1094.03,-131.75 1100.99,-139.73 1100.53,-129.15 1094.03,-131.75"/>
</g>
<!-- Node16 -->
<g id="node16" class="node">
<title>Node16</title>
<g id="a_node16"><a xlink:href="../../de/d7d/vabstractpattern_8cpp.html" target="_top" xlink:title=" ">
<polygon fill="white" stroke="black" points="1195.5,-73 1195.5,-92 1387.5,-92 1387.5,-73 1195.5,-73"/>
<text text-anchor="middle" x="1291.5" y="-80" font-family="Helvetica,sans-Serif" font-size="10.00">src/libs/ifc/xml/vabstractpattern.cpp</text>
</a>
</g>
</g>
<!-- Node15&#45;&gt;Node16 -->
<g id="edge21" class="edge">
<title>Node15&#45;&gt;Node16</title>
<path fill="none" stroke="midnightblue" d="M1139.21,-136.44C1176.3,-123.54 1234.18,-103.42 1266.86,-92.06"/>
<polygon fill="midnightblue" stroke="midnightblue" points="1137.63,-133.28 1129.33,-139.87 1139.93,-139.89 1137.63,-133.28"/>
</g>
</g>
</svg>
