<?xml version="1.0" encoding="UTF-8" standalone="no"?>
<!DOCTYPE svg PUBLIC "-//W3C//DTD SVG 1.1//EN"
 "http://www.w3.org/Graphics/SVG/1.1/DTD/svg11.dtd">
<!-- Generated by graphviz version 2.43.0 (0)
 -->
<!-- Title: src/libs/ifc/xml/abstract_converter.h Pages: 1 -->
<svg width="1393pt" height="240pt"
 viewBox="0.00 0.00 1392.50 240.00" xmlns="http://www.w3.org/2000/svg" xmlns:xlink="http://www.w3.org/1999/xlink">
<g id="graph0" class="graph" transform="scale(1 1) rotate(0) translate(4 236)">
<title>src/libs/ifc/xml/abstract_converter.h</title>
<polygon fill="white" stroke="transparent" points="-4,4 -4,-236 1388.5,-236 1388.5,4 -4,4"/>
<!-- Node1 -->
<g id="node1" class="node">
<title>Node1</title>
<g id="a_node1"><a xlink:title=" ">
<polygon fill="#bfbfbf" stroke="black" points="393,-201.5 393,-231.5 524,-231.5 524,-201.5 393,-201.5"/>
<text text-anchor="start" x="401" y="-219.5" font-family="Helvetica,sans-Serif" font-size="10.00">src/libs/ifc/xml/abstract</text>
<text text-anchor="middle" x="458.5" y="-208.5" font-family="Helvetica,sans-Serif" font-size="10.00">_converter.h</text>
</a>
</g>
</g>
<!-- Node2 -->
<g id="node2" class="node">
<title>Node2</title>
<g id="a_node2"><a xlink:href="../../d0/d08/abstract__converter_8cpp.html" target="_top" xlink:title=" ">
<polygon fill="white" stroke="black" points="73,-134.5 73,-164.5 204,-164.5 204,-134.5 73,-134.5"/>
<text text-anchor="start" x="81" y="-152.5" font-family="Helvetica,sans-Serif" font-size="10.00">src/libs/ifc/xml/abstract</text>
<text text-anchor="middle" x="138.5" y="-141.5" font-family="Helvetica,sans-Serif" font-size="10.00">_converter.cpp</text>
</a>
</g>
</g>
<!-- Node1&#45;&gt;Node2 -->
<g id="edge1" class="edge">
<title>Node1&#45;&gt;Node2</title>
<path fill="none" stroke="midnightblue" d="M383.05,-200.17C328.73,-189.14 256.16,-174.4 204.22,-163.85"/>
<polygon fill="midnightblue" stroke="midnightblue" points="382.47,-203.63 392.97,-202.19 383.87,-196.77 382.47,-203.63"/>
</g>
<!-- Node3 -->
<g id="node3" class="node">
<title>Node3</title>
<g id="a_node3"><a xlink:href="../../da/d2c/abstract__m__converter_8h.html" target="_top" xlink:title=" ">
<polygon fill="white" stroke="black" points="261,-134.5 261,-164.5 392,-164.5 392,-134.5 261,-134.5"/>
<text text-anchor="start" x="269" y="-152.5" font-family="Helvetica,sans-Serif" font-size="10.00">src/libs/ifc/xml/abstract</text>
<text text-anchor="middle" x="326.5" y="-141.5" font-family="Helvetica,sans-Serif" font-size="10.00">_m_converter.h</text>
</a>
</g>
</g>
<!-- Node1&#45;&gt;Node3 -->
<g id="edge2" class="edge">
<title>Node1&#45;&gt;Node3</title>
<path fill="none" stroke="midnightblue" d="M420.63,-196.85C399.76,-186.58 374.27,-174.03 355.09,-164.58"/>
<polygon fill="midnightblue" stroke="midnightblue" points="419.34,-200.12 429.86,-201.4 422.43,-193.84 419.34,-200.12"/>
</g>
<!-- Node4 -->
<g id="node4" class="node">
<title>Node4</title>
<g id="a_node4"><a xlink:href="../../de/dec/abstract__m__converter_8cpp.html" target="_top" xlink:title=" ">
<polygon fill="white" stroke="black" points="0,-67.5 0,-97.5 131,-97.5 131,-67.5 0,-67.5"/>
<text text-anchor="start" x="8" y="-85.5" font-family="Helvetica,sans-Serif" font-size="10.00">src/libs/ifc/xml/abstract</text>
<text text-anchor="middle" x="65.5" y="-74.5" font-family="Helvetica,sans-Serif" font-size="10.00">_m_converter.cpp</text>
</a>
</g>
</g>
<!-- Node1&#45;&gt;Node4 -->
<g id="edge12" class="edge">
<title>Node1&#45;&gt;Node4</title>
<path fill="none" stroke="midnightblue" d="M382.55,-205.07C342.17,-197.56 292.54,-185.1 251.5,-165 231.61,-155.26 231.92,-144.64 212.5,-134 183.63,-118.18 148.89,-105.97 120.43,-97.52"/>
<polygon fill="midnightblue" stroke="midnightblue" points="382.14,-208.56 392.6,-206.88 383.38,-201.67 382.14,-208.56"/>
</g>
<!-- Node5 -->
<g id="node5" class="node">
<title>Node5</title>
<g id="a_node5"><a xlink:href="../../d0/d93/individual__size__converter_8h.html" target="_top" xlink:title=" ">
<polygon fill="white" stroke="black" points="188,-67.5 188,-97.5 327,-97.5 327,-67.5 188,-67.5"/>
<text text-anchor="start" x="196" y="-85.5" font-family="Helvetica,sans-Serif" font-size="10.00">src/libs/ifc/xml/individual</text>
<text text-anchor="middle" x="257.5" y="-74.5" font-family="Helvetica,sans-Serif" font-size="10.00">_size_converter.h</text>
</a>
</g>
</g>
<!-- Node1&#45;&gt;Node5 -->
<g id="edge13" class="edge">
<title>Node1&#45;&gt;Node5</title>
<path fill="none" stroke="midnightblue" d="M446.96,-192.04C436.94,-173.9 420.86,-149.35 400.5,-134 377.9,-116.96 349.06,-105.33 323.21,-97.57"/>
<polygon fill="midnightblue" stroke="midnightblue" points="444.12,-194.16 451.89,-201.37 450.31,-190.89 444.12,-194.16"/>
</g>
<!-- Node8 -->
<g id="node8" class="node">
<title>Node8</title>
<g id="a_node8"><a xlink:href="../../d5/d4c/multi__size__converter_8h.html" target="_top" xlink:title=" ">
<polygon fill="white" stroke="black" points="383.5,-67.5 383.5,-97.5 499.5,-97.5 499.5,-67.5 383.5,-67.5"/>
<text text-anchor="start" x="391.5" y="-85.5" font-family="Helvetica,sans-Serif" font-size="10.00">src/libs/ifc/xml/multi</text>
<text text-anchor="middle" x="441.5" y="-74.5" font-family="Helvetica,sans-Serif" font-size="10.00">_size_converter.h</text>
</a>
</g>
</g>
<!-- Node1&#45;&gt;Node8 -->
<g id="edge14" class="edge">
<title>Node1&#45;&gt;Node8</title>
<path fill="none" stroke="midnightblue" d="M455.39,-191.39C451.85,-163.9 446.19,-119.89 443.31,-97.52"/>
<polygon fill="midnightblue" stroke="midnightblue" points="451.93,-191.9 456.68,-201.37 458.87,-191.01 451.93,-191.9"/>
</g>
<!-- Node10 -->
<g id="node10" class="node">
<title>Node10</title>
<g id="a_node10"><a xlink:href="../../d5/d35/vlabeltemplateconverter_8h.html" target="_top" xlink:title=" ">
<polygon fill="white" stroke="black" points="503.5,-140 503.5,-159 723.5,-159 723.5,-140 503.5,-140"/>
<text text-anchor="middle" x="613.5" y="-147" font-family="Helvetica,sans-Serif" font-size="10.00">src/libs/ifc/xml/vlabeltemplateconverter.h</text>
</a>
</g>
</g>
<!-- Node1&#45;&gt;Node10 -->
<g id="edge15" class="edge">
<title>Node1&#45;&gt;Node10</title>
<path fill="none" stroke="midnightblue" d="M501.52,-197.46C531.47,-184.9 570.04,-168.72 593.21,-159.01"/>
<polygon fill="midnightblue" stroke="midnightblue" points="500,-194.3 492.13,-201.4 502.71,-200.76 500,-194.3"/>
</g>
<!-- Node13 -->
<g id="node13" class="node">
<title>Node13</title>
<g id="a_node13"><a xlink:href="../../d5/d2c/vpatternconverter_8cpp.html" target="_top" xlink:title=" ">
<polygon fill="white" stroke="black" points="976.5,-73 976.5,-92 1174.5,-92 1174.5,-73 976.5,-73"/>
<text text-anchor="middle" x="1075.5" y="-80" font-family="Helvetica,sans-Serif" font-size="10.00">src/libs/ifc/xml/vpatternconverter.cpp</text>
</a>
</g>
</g>
<!-- Node1&#45;&gt;Node13 -->
<g id="edge18" class="edge">
<title>Node1&#45;&gt;Node13</title>
<path fill="none" stroke="midnightblue" d="M534.05,-202.64C589.19,-193 665.66,-179.09 732.5,-165 846.59,-140.95 980.82,-107.56 1042.03,-92.05"/>
<polygon fill="midnightblue" stroke="midnightblue" points="533.26,-199.23 524.01,-204.39 534.46,-206.12 533.26,-199.23"/>
</g>
<!-- Node14 -->
<g id="node14" class="node">
<title>Node14</title>
<g id="a_node14"><a xlink:href="../../df/d2f/vpatternconverter_8h.html" target="_top" xlink:title=" ">
<polygon fill="white" stroke="black" points="931,-140 931,-159 1118,-159 1118,-140 931,-140"/>
<text text-anchor="middle" x="1024.5" y="-147" font-family="Helvetica,sans-Serif" font-size="10.00">src/libs/ifc/xml/vpatternconverter.h</text>
</a>
</g>
</g>
<!-- Node1&#45;&gt;Node14 -->
<g id="edge19" class="edge">
<title>Node1&#45;&gt;Node14</title>
<path fill="none" stroke="midnightblue" d="M534.51,-206.77C643.38,-194.27 842.45,-171.41 950.31,-159.02"/>
<polygon fill="midnightblue" stroke="midnightblue" points="533.79,-203.33 524.26,-207.95 534.59,-210.28 533.79,-203.33"/>
</g>
<!-- Node16 -->
<g id="node16" class="node">
<title>Node16</title>
<g id="a_node16"><a xlink:href="../../d4/d90/fvupdater_8cpp.html" target="_top" xlink:title=" ">
<polygon fill="white" stroke="black" points="1136,-140 1136,-159 1289,-159 1289,-140 1136,-140"/>
<text text-anchor="middle" x="1212.5" y="-147" font-family="Helvetica,sans-Serif" font-size="10.00">src/libs/fervor/fvupdater.cpp</text>
</a>
</g>
</g>
<!-- Node1&#45;&gt;Node16 -->
<g id="edge22" class="edge">
<title>Node1&#45;&gt;Node16</title>
<path fill="none" stroke="midnightblue" d="M534.27,-212.04C658.38,-205.85 912.58,-191.06 1126.5,-165 1139.58,-163.41 1153.7,-161.22 1166.64,-159.03"/>
<polygon fill="midnightblue" stroke="midnightblue" points="533.94,-208.55 524.12,-212.54 534.28,-215.54 533.94,-208.55"/>
</g>
<!-- Node3&#45;&gt;Node4 -->
<g id="edge3" class="edge">
<title>Node3&#45;&gt;Node4</title>
<path fill="none" stroke="midnightblue" d="M260.45,-132.05C217.78,-121.43 162.84,-107.74 122.16,-97.61"/>
<polygon fill="midnightblue" stroke="midnightblue" points="259.64,-135.46 270.19,-134.48 261.33,-128.66 259.64,-135.46"/>
</g>
<!-- Node3&#45;&gt;Node5 -->
<g id="edge4" class="edge">
<title>Node3&#45;&gt;Node5</title>
<path fill="none" stroke="midnightblue" d="M304.01,-127.31C293.66,-117.56 281.66,-106.26 272.44,-97.58"/>
<polygon fill="midnightblue" stroke="midnightblue" points="301.85,-130.09 311.53,-134.4 306.65,-124.99 301.85,-130.09"/>
</g>
<!-- Node6 -->
<g id="node6" class="node">
<title>Node6</title>
<g id="a_node6"><a xlink:href="../../d5/d6e/individual__size__converter_8cpp.html" target="_top" xlink:title=" ">
<polygon fill="white" stroke="black" points="54,-0.5 54,-30.5 193,-30.5 193,-0.5 54,-0.5"/>
<text text-anchor="start" x="62" y="-18.5" font-family="Helvetica,sans-Serif" font-size="10.00">src/libs/ifc/xml/individual</text>
<text text-anchor="middle" x="123.5" y="-7.5" font-family="Helvetica,sans-Serif" font-size="10.00">_size_converter.cpp</text>
</a>
</g>
</g>
<!-- Node3&#45;&gt;Node6 -->
<g id="edge7" class="edge">
<title>Node3&#45;&gt;Node6</title>
<path fill="none" stroke="midnightblue" d="M251.1,-133.01C226.27,-125.35 199.63,-114.16 178.5,-98 154.91,-79.95 137.98,-48.79 129.55,-30.67"/>
<polygon fill="midnightblue" stroke="midnightblue" points="250.3,-136.42 260.88,-135.87 252.27,-129.7 250.3,-136.42"/>
</g>
<!-- Node3&#45;&gt;Node8 -->
<g id="edge8" class="edge">
<title>Node3&#45;&gt;Node8</title>
<path fill="none" stroke="midnightblue" d="M360.48,-129.3C378.47,-119.12 400.18,-106.85 416.6,-97.58"/>
<polygon fill="midnightblue" stroke="midnightblue" points="358.44,-126.43 351.45,-134.4 361.88,-132.52 358.44,-126.43"/>
</g>
<!-- Node9 -->
<g id="node9" class="node">
<title>Node9</title>
<g id="a_node9"><a xlink:href="../../d9/d94/multi__size__converter_8cpp.html" target="_top" xlink:title=" ">
<polygon fill="white" stroke="black" points="419.5,-0.5 419.5,-30.5 535.5,-30.5 535.5,-0.5 419.5,-0.5"/>
<text text-anchor="start" x="427.5" y="-18.5" font-family="Helvetica,sans-Serif" font-size="10.00">src/libs/ifc/xml/multi</text>
<text text-anchor="middle" x="477.5" y="-7.5" font-family="Helvetica,sans-Serif" font-size="10.00">_size_converter.cpp</text>
</a>
</g>
</g>
<!-- Node3&#45;&gt;Node9 -->
<g id="edge11" class="edge">
<title>Node3&#45;&gt;Node9</title>
<path fill="none" stroke="midnightblue" d="M335.96,-124.81C344.02,-107.05 357.08,-83.14 374.5,-67 391.89,-50.89 415.36,-38.85 435.51,-30.57"/>
<polygon fill="midnightblue" stroke="midnightblue" points="332.55,-123.87 331.79,-134.44 338.97,-126.65 332.55,-123.87"/>
</g>
<!-- Node5&#45;&gt;Node6 -->
<g id="edge5" class="edge">
<title>Node5&#45;&gt;Node6</title>
<path fill="none" stroke="midnightblue" d="M219.35,-62.99C198.11,-52.69 172.09,-40.07 152.52,-30.58"/>
<polygon fill="midnightblue" stroke="midnightblue" points="217.9,-66.18 228.42,-67.4 220.95,-59.88 217.9,-66.18"/>
</g>
<!-- Node7 -->
<g id="node7" class="node">
<title>Node7</title>
<g id="a_node7"><a xlink:href="../../d9/de3/measurements_8cpp.html" target="_top" xlink:title=" ">
<polygon fill="white" stroke="black" points="211.5,-6 211.5,-25 401.5,-25 401.5,-6 211.5,-6"/>
<text text-anchor="middle" x="306.5" y="-13" font-family="Helvetica,sans-Serif" font-size="10.00">src/libs/vformat/measurements.cpp</text>
</a>
</g>
</g>
<!-- Node5&#45;&gt;Node7 -->
<g id="edge6" class="edge">
<title>Node5&#45;&gt;Node7</title>
<path fill="none" stroke="midnightblue" d="M274.22,-59.32C283.06,-47.6 293.4,-33.88 299.95,-25.19"/>
<polygon fill="midnightblue" stroke="midnightblue" points="271.36,-57.3 268.13,-67.4 276.95,-61.52 271.36,-57.3"/>
</g>
<!-- Node8&#45;&gt;Node7 -->
<g id="edge10" class="edge">
<title>Node8&#45;&gt;Node7</title>
<path fill="none" stroke="midnightblue" d="M403.01,-62.97C377.08,-50.48 344.09,-34.6 324.17,-25.01"/>
<polygon fill="midnightblue" stroke="midnightblue" points="401.68,-66.21 412.21,-67.4 404.72,-59.9 401.68,-66.21"/>
</g>
<!-- Node8&#45;&gt;Node9 -->
<g id="edge9" class="edge">
<title>Node8&#45;&gt;Node9</title>
<path fill="none" stroke="midnightblue" d="M454.2,-58.58C459.37,-49.24 465.18,-38.75 469.7,-30.58"/>
<polygon fill="midnightblue" stroke="midnightblue" points="451.09,-56.95 449.31,-67.4 457.22,-60.34 451.09,-56.95"/>
</g>
<!-- Node11 -->
<g id="node11" class="node">
<title>Node11</title>
<g id="a_node11"><a xlink:href="../../d7/d63/vlabeltemplateconverter_8cpp.html" target="_top" xlink:title=" ">
<polygon fill="white" stroke="black" points="727,-73 727,-92 958,-92 958,-73 727,-73"/>
<text text-anchor="middle" x="842.5" y="-80" font-family="Helvetica,sans-Serif" font-size="10.00">src/libs/ifc/xml/vlabeltemplateconverter.cpp</text>
</a>
</g>
</g>
<!-- Node10&#45;&gt;Node11 -->
<g id="edge16" class="edge">
<title>Node10&#45;&gt;Node11</title>
<path fill="none" stroke="midnightblue" d="M653.69,-137.09C699,-124.23 771.62,-103.62 812.33,-92.06"/>
<polygon fill="midnightblue" stroke="midnightblue" points="652.57,-133.77 643.91,-139.87 654.49,-140.5 652.57,-133.77"/>
</g>
<!-- Node12 -->
<g id="node12" class="node">
<title>Node12</title>
<g id="a_node12"><a xlink:href="../../d9/daf/vlabeltemplate_8cpp.html" target="_top" xlink:title=" ">
<polygon fill="white" stroke="black" points="518,-73 518,-92 709,-92 709,-73 518,-73"/>
<text text-anchor="middle" x="613.5" y="-80" font-family="Helvetica,sans-Serif" font-size="10.00">src/libs/vformat/vlabeltemplate.cpp</text>
</a>
</g>
</g>
<!-- Node10&#45;&gt;Node12 -->
<g id="edge17" class="edge">
<title>Node10&#45;&gt;Node12</title>
<path fill="none" stroke="midnightblue" d="M613.5,-129.54C613.5,-117.17 613.5,-101.62 613.5,-92.13"/>
<polygon fill="midnightblue" stroke="midnightblue" points="610,-129.73 613.5,-139.73 617,-129.73 610,-129.73"/>
</g>
<!-- Node14&#45;&gt;Node13 -->
<g id="edge21" class="edge">
<title>Node14&#45;&gt;Node13</title>
<path fill="none" stroke="midnightblue" d="M1037.63,-131.77C1047.57,-119.1 1060.83,-102.2 1068.73,-92.13"/>
<polygon fill="midnightblue" stroke="midnightblue" points="1034.8,-129.71 1031.38,-139.73 1040.3,-134.03 1034.8,-129.71"/>
</g>
<!-- Node15 -->
<g id="node15" class="node">
<title>Node15</title>
<g id="a_node15"><a xlink:href="../../de/d7d/vabstractpattern_8cpp.html" target="_top" xlink:title=" ">
<polygon fill="white" stroke="black" points="1192.5,-73 1192.5,-92 1384.5,-92 1384.5,-73 1192.5,-73"/>
<text text-anchor="middle" x="1288.5" y="-80" font-family="Helvetica,sans-Serif" font-size="10.00">src/libs/ifc/xml/vabstractpattern.cpp</text>
</a>
</g>
</g>
<!-- Node14&#45;&gt;Node15 -->
<g id="edge20" class="edge">
<title>Node14&#45;&gt;Node15</title>
<path fill="none" stroke="midnightblue" d="M1069.24,-137.48C1121.32,-124.66 1206.21,-103.76 1253.64,-92.08"/>
<polygon fill="midnightblue" stroke="midnightblue" points="1068.16,-134.15 1059.28,-139.94 1069.83,-140.94 1068.16,-134.15"/>
</g>
</g>
</svg>
