<?xml version="1.0" encoding="UTF-8" standalone="no"?>
<!DOCTYPE svg PUBLIC "-//W3C//DTD SVG 1.1//EN"
 "http://www.w3.org/Graphics/SVG/1.1/DTD/svg11.dtd">
<!-- Generated by graphviz version 2.43.0 (0)
 -->
<!-- Title: src/libs/vpropertyexplorer/vproperty_p.h Pages: 1 -->
<svg width="3029pt" height="173pt"
 viewBox="0.00 0.00 3028.50 173.00" xmlns="http://www.w3.org/2000/svg" xmlns:xlink="http://www.w3.org/1999/xlink">
<g id="graph0" class="graph" transform="scale(1 1) rotate(0) translate(4 169)">
<title>src/libs/vpropertyexplorer/vproperty_p.h</title>
<polygon fill="white" stroke="transparent" points="-4,4 -4,-169 3024.5,-169 3024.5,4 -4,4"/>
<!-- Node1 -->
<g id="node1" class="node">
<title>Node1</title>
<g id="a_node1"><a xlink:title=" ">
<polygon fill="#bfbfbf" stroke="black" points="1433,-134.5 1433,-164.5 1575,-164.5 1575,-134.5 1433,-134.5"/>
<text text-anchor="start" x="1441" y="-152.5" font-family="Helvetica,sans-Serif" font-size="10.00">src/libs/vpropertyexplorer</text>
<text text-anchor="middle" x="1504" y="-141.5" font-family="Helvetica,sans-Serif" font-size="10.00">/vproperty_p.h</text>
</a>
</g>
</g>
<!-- Node2 -->
<g id="node2" class="node">
<title>Node2</title>
<g id="a_node2"><a xlink:href="../../d9/d33/lineweight__property_8cpp.html" target="_top" xlink:title=" ">
<polygon fill="white" stroke="black" points="0,-67.5 0,-97.5 174,-97.5 174,-67.5 0,-67.5"/>
<text text-anchor="start" x="8" y="-85.5" font-family="Helvetica,sans-Serif" font-size="10.00">src/libs/vpropertyexplorer</text>
<text text-anchor="middle" x="87" y="-74.5" font-family="Helvetica,sans-Serif" font-size="10.00">/plugins/lineweight_property.cpp</text>
</a>
</g>
</g>
<!-- Node1&#45;&gt;Node2 -->
<g id="edge1" class="edge">
<title>Node1&#45;&gt;Node2</title>
<path fill="none" stroke="midnightblue" d="M1422.75,-148.55C1215.58,-147.98 650.94,-142.14 183,-98 180.06,-97.72 177.08,-97.42 174.07,-97.08"/>
<polygon fill="midnightblue" stroke="midnightblue" points="1422.92,-152.05 1432.93,-148.57 1422.94,-145.05 1422.92,-152.05"/>
</g>
<!-- Node3 -->
<g id="node3" class="node">
<title>Node3</title>
<g id="a_node3"><a xlink:href="../../da/d2f/plaintext__property_8cpp.html" target="_top" xlink:title=" ">
<polygon fill="white" stroke="black" points="192.5,-67.5 192.5,-97.5 359.5,-97.5 359.5,-67.5 192.5,-67.5"/>
<text text-anchor="start" x="200.5" y="-85.5" font-family="Helvetica,sans-Serif" font-size="10.00">src/libs/vpropertyexplorer</text>
<text text-anchor="middle" x="276" y="-74.5" font-family="Helvetica,sans-Serif" font-size="10.00">/plugins/plaintext_property.cpp</text>
</a>
</g>
</g>
<!-- Node1&#45;&gt;Node3 -->
<g id="edge2" class="edge">
<title>Node1&#45;&gt;Node3</title>
<path fill="none" stroke="midnightblue" d="M1422.75,-147.95C1236.13,-146.03 762.63,-137.32 369,-98 365.91,-97.69 362.77,-97.35 359.6,-96.98"/>
<polygon fill="midnightblue" stroke="midnightblue" points="1422.72,-151.45 1432.75,-148.05 1422.79,-144.45 1422.72,-151.45"/>
</g>
<!-- Node4 -->
<g id="node4" class="node">
<title>Node4</title>
<g id="a_node4"><a xlink:href="../../d0/d6b/vcolorproperty_8cpp.html" target="_top" xlink:title=" ">
<polygon fill="white" stroke="black" points="378,-67.5 378,-97.5 526,-97.5 526,-67.5 378,-67.5"/>
<text text-anchor="start" x="386" y="-85.5" font-family="Helvetica,sans-Serif" font-size="10.00">src/libs/vpropertyexplorer</text>
<text text-anchor="middle" x="452" y="-74.5" font-family="Helvetica,sans-Serif" font-size="10.00">/plugins/vcolorproperty.cpp</text>
</a>
</g>
</g>
<!-- Node1&#45;&gt;Node4 -->
<g id="edge3" class="edge">
<title>Node1&#45;&gt;Node4</title>
<path fill="none" stroke="midnightblue" d="M1422.76,-147.58C1255.9,-144.96 862.71,-135.03 535,-98 532.09,-97.67 529.13,-97.31 526.15,-96.91"/>
<polygon fill="midnightblue" stroke="midnightblue" points="1422.89,-151.08 1432.94,-147.73 1423,-144.08 1422.89,-151.08"/>
</g>
<!-- Node5 -->
<g id="node5" class="node">
<title>Node5</title>
<g id="a_node5"><a xlink:href="../../d2/d8f/vvector3dproperty_8cpp.html" target="_top" xlink:title=" ">
<polygon fill="white" stroke="black" points="544,-67.5 544,-97.5 756,-97.5 756,-67.5 544,-67.5"/>
<text text-anchor="start" x="552" y="-85.5" font-family="Helvetica,sans-Serif" font-size="10.00">src/libs/vpropertyexplorer</text>
<text text-anchor="middle" x="650" y="-74.5" font-family="Helvetica,sans-Serif" font-size="10.00">/plugins/Vector3d/vvector3dproperty.cpp</text>
</a>
</g>
</g>
<!-- Node1&#45;&gt;Node5 -->
<g id="edge4" class="edge">
<title>Node1&#45;&gt;Node5</title>
<path fill="none" stroke="midnightblue" d="M1422.46,-144.46C1286.13,-137.35 1003.42,-121.16 765,-98 762.1,-97.72 759.15,-97.42 756.18,-97.11"/>
<polygon fill="midnightblue" stroke="midnightblue" points="1422.64,-147.97 1432.81,-144.99 1423,-140.98 1422.64,-147.97"/>
</g>
<!-- Node6 -->
<g id="node6" class="node">
<title>Node6</title>
<g id="a_node6"><a xlink:href="../../d3/d60/venumproperty_8cpp.html" target="_top" xlink:title=" ">
<polygon fill="white" stroke="black" points="774,-67.5 774,-97.5 926,-97.5 926,-67.5 774,-67.5"/>
<text text-anchor="start" x="782" y="-85.5" font-family="Helvetica,sans-Serif" font-size="10.00">src/libs/vpropertyexplorer</text>
<text text-anchor="middle" x="850" y="-74.5" font-family="Helvetica,sans-Serif" font-size="10.00">/plugins/venumproperty.cpp</text>
</a>
</g>
</g>
<!-- Node1&#45;&gt;Node6 -->
<g id="edge5" class="edge">
<title>Node1&#45;&gt;Node6</title>
<path fill="none" stroke="midnightblue" d="M1422.59,-143.02C1312.78,-135.21 1111.22,-119.43 940,-98 935.45,-97.43 930.77,-96.8 926.05,-96.14"/>
<polygon fill="midnightblue" stroke="midnightblue" points="1422.38,-146.51 1432.6,-143.73 1422.87,-139.53 1422.38,-146.51"/>
</g>
<!-- Node7 -->
<g id="node7" class="node">
<title>Node7</title>
<g id="a_node7"><a xlink:href="../../d7/dd2/vfileproperty_8cpp.html" target="_top" xlink:title=" ">
<polygon fill="white" stroke="black" points="1717,-0.5 1717,-30.5 1859,-30.5 1859,-0.5 1717,-0.5"/>
<text text-anchor="start" x="1725" y="-18.5" font-family="Helvetica,sans-Serif" font-size="10.00">src/libs/vpropertyexplorer</text>
<text text-anchor="middle" x="1788" y="-7.5" font-family="Helvetica,sans-Serif" font-size="10.00">/plugins/vfileproperty.cpp</text>
</a>
</g>
</g>
<!-- Node1&#45;&gt;Node7 -->
<g id="edge6" class="edge">
<title>Node1&#45;&gt;Node7</title>
<path fill="none" stroke="midnightblue" d="M1422.48,-146.66C1281.1,-142.61 1002.61,-130.56 973,-98 963.73,-87.81 963.56,-77.04 973,-67 998.3,-40.08 1523.01,-23.51 1716.85,-18.29"/>
<polygon fill="midnightblue" stroke="midnightblue" points="1422.74,-150.17 1432.83,-146.95 1422.93,-143.17 1422.74,-150.17"/>
</g>
<!-- Node8 -->
<g id="node8" class="node">
<title>Node8</title>
<g id="a_node8"><a xlink:href="../../d6/ddf/vlabelproperty_8cpp.html" target="_top" xlink:title=" ">
<polygon fill="white" stroke="black" points="982,-67.5 982,-97.5 1130,-97.5 1130,-67.5 982,-67.5"/>
<text text-anchor="start" x="990" y="-85.5" font-family="Helvetica,sans-Serif" font-size="10.00">src/libs/vpropertyexplorer</text>
<text text-anchor="middle" x="1056" y="-74.5" font-family="Helvetica,sans-Serif" font-size="10.00">/plugins/vlabelproperty.cpp</text>
</a>
</g>
</g>
<!-- Node1&#45;&gt;Node8 -->
<g id="edge7" class="edge">
<title>Node1&#45;&gt;Node8</title>
<path fill="none" stroke="midnightblue" d="M1422.7,-138.09C1348.66,-128.41 1236.34,-113.23 1139,-98 1136.11,-97.55 1133.16,-97.08 1130.19,-96.6"/>
<polygon fill="midnightblue" stroke="midnightblue" points="1422.53,-141.6 1432.89,-139.42 1423.43,-134.66 1422.53,-141.6"/>
</g>
<!-- Node9 -->
<g id="node9" class="node">
<title>Node9</title>
<g id="a_node9"><a xlink:href="../../dd/d22/vlinecolorproperty_8cpp.html" target="_top" xlink:title=" ">
<polygon fill="white" stroke="black" points="1148,-67.5 1148,-97.5 1314,-97.5 1314,-67.5 1148,-67.5"/>
<text text-anchor="start" x="1156" y="-85.5" font-family="Helvetica,sans-Serif" font-size="10.00">src/libs/vpropertyexplorer</text>
<text text-anchor="middle" x="1231" y="-74.5" font-family="Helvetica,sans-Serif" font-size="10.00">/plugins/vlinecolorproperty.cpp</text>
</a>
</g>
</g>
<!-- Node1&#45;&gt;Node9 -->
<g id="edge8" class="edge">
<title>Node1&#45;&gt;Node9</title>
<path fill="none" stroke="midnightblue" d="M1435.2,-132.12C1390.53,-121.48 1332.9,-107.76 1290.27,-97.61"/>
<polygon fill="midnightblue" stroke="midnightblue" points="1434.56,-135.56 1445.1,-134.48 1436.18,-128.75 1434.56,-135.56"/>
</g>
<!-- Node10 -->
<g id="node10" class="node">
<title>Node10</title>
<g id="a_node10"><a xlink:href="../../dc/d32/vlinetypeproperty_8cpp.html" target="_top" xlink:title=" ">
<polygon fill="white" stroke="black" points="1332,-67.5 1332,-97.5 1496,-97.5 1496,-67.5 1332,-67.5"/>
<text text-anchor="start" x="1340" y="-85.5" font-family="Helvetica,sans-Serif" font-size="10.00">src/libs/vpropertyexplorer</text>
<text text-anchor="middle" x="1414" y="-74.5" font-family="Helvetica,sans-Serif" font-size="10.00">/plugins/vlinetypeproperty.cpp</text>
</a>
</g>
</g>
<!-- Node1&#45;&gt;Node10 -->
<g id="edge9" class="edge">
<title>Node1&#45;&gt;Node10</title>
<path fill="none" stroke="midnightblue" d="M1476.24,-128.45C1462.39,-118.45 1445.98,-106.6 1433.49,-97.58"/>
<polygon fill="midnightblue" stroke="midnightblue" points="1474.32,-131.38 1484.47,-134.4 1478.41,-125.7 1474.32,-131.38"/>
</g>
<!-- Node11 -->
<g id="node11" class="node">
<title>Node11</title>
<g id="a_node11"><a xlink:href="../../d7/dda/vnumberproperty_8cpp.html" target="_top" xlink:title=" ">
<polygon fill="white" stroke="black" points="1514.5,-67.5 1514.5,-97.5 1675.5,-97.5 1675.5,-67.5 1514.5,-67.5"/>
<text text-anchor="start" x="1522.5" y="-85.5" font-family="Helvetica,sans-Serif" font-size="10.00">src/libs/vpropertyexplorer</text>
<text text-anchor="middle" x="1595" y="-74.5" font-family="Helvetica,sans-Serif" font-size="10.00">/plugins/vnumberproperty.cpp</text>
</a>
</g>
</g>
<!-- Node1&#45;&gt;Node11 -->
<g id="edge10" class="edge">
<title>Node1&#45;&gt;Node11</title>
<path fill="none" stroke="midnightblue" d="M1532.07,-128.45C1546.07,-118.45 1562.66,-106.6 1575.29,-97.58"/>
<polygon fill="midnightblue" stroke="midnightblue" points="1529.85,-125.74 1523.75,-134.4 1533.92,-131.43 1529.85,-125.74"/>
</g>
<!-- Node12 -->
<g id="node12" class="node">
<title>Node12</title>
<g id="a_node12"><a xlink:href="../../d8/d83/vboolproperty_8cpp.html" target="_top" xlink:title=" ">
<polygon fill="white" stroke="black" points="1693.5,-67.5 1693.5,-97.5 1838.5,-97.5 1838.5,-67.5 1693.5,-67.5"/>
<text text-anchor="start" x="1701.5" y="-85.5" font-family="Helvetica,sans-Serif" font-size="10.00">src/libs/vpropertyexplorer</text>
<text text-anchor="middle" x="1766" y="-74.5" font-family="Helvetica,sans-Serif" font-size="10.00">/plugins/vboolproperty.cpp</text>
</a>
</g>
</g>
<!-- Node1&#45;&gt;Node12 -->
<g id="edge11" class="edge">
<title>Node1&#45;&gt;Node12</title>
<path fill="none" stroke="midnightblue" d="M1570.3,-132.05C1613.13,-121.43 1668.29,-107.74 1709.12,-97.61"/>
<polygon fill="midnightblue" stroke="midnightblue" points="1569.39,-128.67 1560.53,-134.48 1571.08,-135.47 1569.39,-128.67"/>
</g>
<!-- Node13 -->
<g id="node13" class="node">
<title>Node13</title>
<g id="a_node13"><a xlink:href="../../d5/d66/vobjectproperty_8cpp.html" target="_top" xlink:title=" ">
<polygon fill="white" stroke="black" points="1857,-67.5 1857,-97.5 2011,-97.5 2011,-67.5 1857,-67.5"/>
<text text-anchor="start" x="1865" y="-85.5" font-family="Helvetica,sans-Serif" font-size="10.00">src/libs/vpropertyexplorer</text>
<text text-anchor="middle" x="1934" y="-74.5" font-family="Helvetica,sans-Serif" font-size="10.00">/plugins/vobjectproperty.cpp</text>
</a>
</g>
</g>
<!-- Node1&#45;&gt;Node13 -->
<g id="edge12" class="edge">
<title>Node1&#45;&gt;Node13</title>
<path fill="none" stroke="midnightblue" d="M1585.02,-137.01C1654.57,-127.05 1757.45,-112.05 1847,-98 1850.18,-97.5 1853.42,-96.99 1856.69,-96.46"/>
<polygon fill="midnightblue" stroke="midnightblue" points="1584.41,-133.56 1575.01,-138.45 1585.4,-140.49 1584.41,-133.56"/>
</g>
<!-- Node14 -->
<g id="node14" class="node">
<title>Node14</title>
<g id="a_node14"><a xlink:href="../../d2/dec/vpointfproperty_8cpp.html" target="_top" xlink:title=" ">
<polygon fill="white" stroke="black" points="2029,-67.5 2029,-97.5 2181,-97.5 2181,-67.5 2029,-67.5"/>
<text text-anchor="start" x="2037" y="-85.5" font-family="Helvetica,sans-Serif" font-size="10.00">src/libs/vpropertyexplorer</text>
<text text-anchor="middle" x="2105" y="-74.5" font-family="Helvetica,sans-Serif" font-size="10.00">/plugins/vpointfproperty.cpp</text>
</a>
</g>
</g>
<!-- Node1&#45;&gt;Node14 -->
<g id="edge13" class="edge">
<title>Node1&#45;&gt;Node14</title>
<path fill="none" stroke="midnightblue" d="M1585.35,-142.35C1687.19,-134.22 1866.9,-118.52 2020,-98 2022.82,-97.62 2025.69,-97.22 2028.58,-96.8"/>
<polygon fill="midnightblue" stroke="midnightblue" points="1584.82,-138.88 1575.13,-143.15 1585.38,-145.85 1584.82,-138.88"/>
</g>
<!-- Node15 -->
<g id="node15" class="node">
<title>Node15</title>
<g id="a_node15"><a xlink:href="../../de/d34/vshortcutproperty_8cpp.html" target="_top" xlink:title=" ">
<polygon fill="white" stroke="black" points="2199,-67.5 2199,-97.5 2363,-97.5 2363,-67.5 2199,-67.5"/>
<text text-anchor="start" x="2207" y="-85.5" font-family="Helvetica,sans-Serif" font-size="10.00">src/libs/vpropertyexplorer</text>
<text text-anchor="middle" x="2281" y="-74.5" font-family="Helvetica,sans-Serif" font-size="10.00">/plugins/vshortcutproperty.cpp</text>
</a>
</g>
</g>
<!-- Node1&#45;&gt;Node15 -->
<g id="edge14" class="edge">
<title>Node1&#45;&gt;Node15</title>
<path fill="none" stroke="midnightblue" d="M1585.46,-144.74C1714.16,-138.29 1972.3,-123.31 2190,-98 2192.86,-97.67 2195.77,-97.31 2198.7,-96.93"/>
<polygon fill="midnightblue" stroke="midnightblue" points="1585.11,-141.25 1575.29,-145.24 1585.45,-148.24 1585.11,-141.25"/>
</g>
<!-- Node16 -->
<g id="node16" class="node">
<title>Node16</title>
<g id="a_node16"><a xlink:href="../../dc/d18/vstringproperty_8cpp.html" target="_top" xlink:title=" ">
<polygon fill="white" stroke="black" points="2381,-67.5 2381,-97.5 2533,-97.5 2533,-67.5 2381,-67.5"/>
<text text-anchor="start" x="2389" y="-85.5" font-family="Helvetica,sans-Serif" font-size="10.00">src/libs/vpropertyexplorer</text>
<text text-anchor="middle" x="2457" y="-74.5" font-family="Helvetica,sans-Serif" font-size="10.00">/plugins/vstringproperty.cpp</text>
</a>
</g>
</g>
<!-- Node1&#45;&gt;Node16 -->
<g id="edge15" class="edge">
<title>Node1&#45;&gt;Node16</title>
<path fill="none" stroke="midnightblue" d="M1585.43,-146.77C1739.46,-142.83 2083.91,-130.85 2372,-98 2374.83,-97.68 2377.7,-97.32 2380.6,-96.94"/>
<polygon fill="midnightblue" stroke="midnightblue" points="1585.02,-143.28 1575.11,-147.03 1585.2,-150.28 1585.02,-143.28"/>
</g>
<!-- Node17 -->
<g id="node17" class="node">
<title>Node17</title>
<g id="a_node17"><a xlink:href="../../dc/de7/vfileproperty__p_8h.html" target="_top" xlink:title=" ">
<polygon fill="white" stroke="black" points="2551,-67.5 2551,-97.5 2693,-97.5 2693,-67.5 2551,-67.5"/>
<text text-anchor="start" x="2559" y="-85.5" font-family="Helvetica,sans-Serif" font-size="10.00">src/libs/vpropertyexplorer</text>
<text text-anchor="middle" x="2622" y="-74.5" font-family="Helvetica,sans-Serif" font-size="10.00">/vfileproperty_p.h</text>
</a>
</g>
</g>
<!-- Node1&#45;&gt;Node17 -->
<g id="edge16" class="edge">
<title>Node1&#45;&gt;Node17</title>
<path fill="none" stroke="midnightblue" d="M1585.23,-148.15C1760.53,-146.61 2187.2,-138.61 2542,-98 2544.94,-97.66 2547.95,-97.28 2550.97,-96.87"/>
<polygon fill="midnightblue" stroke="midnightblue" points="1585.02,-144.65 1575.05,-148.24 1585.08,-151.65 1585.02,-144.65"/>
</g>
<!-- Node18 -->
<g id="node18" class="node">
<title>Node18</title>
<g id="a_node18"><a xlink:href="../../d8/dd2/vproperty_8cpp.html" target="_top" xlink:title=" ">
<polygon fill="white" stroke="black" points="2711,-67.5 2711,-97.5 2853,-97.5 2853,-67.5 2711,-67.5"/>
<text text-anchor="start" x="2719" y="-85.5" font-family="Helvetica,sans-Serif" font-size="10.00">src/libs/vpropertyexplorer</text>
<text text-anchor="middle" x="2782" y="-74.5" font-family="Helvetica,sans-Serif" font-size="10.00">/vproperty.cpp</text>
</a>
</g>
</g>
<!-- Node1&#45;&gt;Node18 -->
<g id="edge18" class="edge">
<title>Node1&#45;&gt;Node18</title>
<path fill="none" stroke="midnightblue" d="M1585.25,-148.91C1779.12,-149.05 2283.79,-144.49 2702,-98 2704.95,-97.67 2707.95,-97.3 2710.97,-96.9"/>
<polygon fill="midnightblue" stroke="midnightblue" points="1585.15,-145.41 1575.15,-148.9 1585.15,-152.41 1585.15,-145.41"/>
</g>
<!-- Node19 -->
<g id="node19" class="node">
<title>Node19</title>
<g id="a_node19"><a xlink:href="../../d4/d5a/vwidgetproperty__p_8h.html" target="_top" xlink:title=" ">
<polygon fill="white" stroke="black" points="2871,-67.5 2871,-97.5 3013,-97.5 3013,-67.5 2871,-67.5"/>
<text text-anchor="start" x="2879" y="-85.5" font-family="Helvetica,sans-Serif" font-size="10.00">src/libs/vpropertyexplorer</text>
<text text-anchor="middle" x="2942" y="-74.5" font-family="Helvetica,sans-Serif" font-size="10.00">/vwidgetproperty_p.h</text>
</a>
</g>
</g>
<!-- Node1&#45;&gt;Node19 -->
<g id="edge19" class="edge">
<title>Node1&#45;&gt;Node19</title>
<path fill="none" stroke="midnightblue" d="M1585.64,-146.99C1839.43,-142.05 2612.44,-125.12 2862,-98 2864.95,-97.68 2867.95,-97.31 2870.98,-96.91"/>
<polygon fill="midnightblue" stroke="midnightblue" points="1585.32,-143.49 1575.39,-147.19 1585.46,-150.49 1585.32,-143.49"/>
</g>
<!-- Node17&#45;&gt;Node7 -->
<g id="edge17" class="edge">
<title>Node17&#45;&gt;Node7</title>
<path fill="none" stroke="midnightblue" d="M2540.71,-66.94C2284.32,-35.75 1991.5,-23.09 1859.2,-18.6"/>
<polygon fill="midnightblue" stroke="midnightblue" points="2540.61,-70.45 2550.96,-68.2 2541.46,-63.5 2540.61,-70.45"/>
</g>
<!-- Node20 -->
<g id="node20" class="node">
<title>Node20</title>
<g id="a_node20"><a xlink:href="../../dc/ddd/vwidgetproperty_8cpp.html" target="_top" xlink:title=" ">
<polygon fill="white" stroke="black" points="2863.5,-0.5 2863.5,-30.5 3020.5,-30.5 3020.5,-0.5 2863.5,-0.5"/>
<text text-anchor="start" x="2871.5" y="-18.5" font-family="Helvetica,sans-Serif" font-size="10.00">src/libs/vpropertyexplorer</text>
<text text-anchor="middle" x="2942" y="-7.5" font-family="Helvetica,sans-Serif" font-size="10.00">/plugins/vwidgetproperty.cpp</text>
</a>
</g>
</g>
<!-- Node19&#45;&gt;Node20 -->
<g id="edge20" class="edge">
<title>Node19&#45;&gt;Node20</title>
<path fill="none" stroke="midnightblue" d="M2942,-57.11C2942,-48.15 2942,-38.32 2942,-30.58"/>
<polygon fill="midnightblue" stroke="midnightblue" points="2938.5,-57.4 2942,-67.4 2945.5,-57.4 2938.5,-57.4"/>
</g>
</g>
</svg>
