<?xml version="1.0" encoding="UTF-8" standalone="no"?>
<!DOCTYPE svg PUBLIC "-//W3C//DTD SVG 1.1//EN"
 "http://www.w3.org/Graphics/SVG/1.1/DTD/svg11.dtd">
<!-- Generated by graphviz version 2.43.0 (0)
 -->
<!-- Title: src/libs/vpropertyexplorer/vproperty_p.h Pages: 1 -->
<svg width="3029pt" height="173pt"
 viewBox="0.00 0.00 3029.00 173.00" xmlns="http://www.w3.org/2000/svg" xmlns:xlink="http://www.w3.org/1999/xlink">
<g id="graph0" class="graph" transform="scale(1 1) rotate(0) translate(4 169)">
<title>src/libs/vpropertyexplorer/vproperty_p.h</title>
<polygon fill="white" stroke="transparent" points="-4,4 -4,-169 3025,-169 3025,4 -4,4"/>
<!-- Node1 -->
<g id="node1" class="node">
<title>Node1</title>
<g id="a_node1"><a xlink:title=" ">
<polygon fill="#bfbfbf" stroke="black" points="1523.5,-134.5 1523.5,-164.5 1665.5,-164.5 1665.5,-134.5 1523.5,-134.5"/>
<text text-anchor="start" x="1531.5" y="-152.5" font-family="Helvetica,sans-Serif" font-size="10.00">src/libs/vpropertyexplorer</text>
<text text-anchor="middle" x="1594.5" y="-141.5" font-family="Helvetica,sans-Serif" font-size="10.00">/vproperty_p.h</text>
</a>
</g>
</g>
<!-- Node2 -->
<g id="node2" class="node">
<title>Node2</title>
<g id="a_node2"><a xlink:href="../../da/d2f/plaintext__property_8cpp.html" target="_top" xlink:title=" ">
<polygon fill="white" stroke="black" points="0,-67.5 0,-97.5 167,-97.5 167,-67.5 0,-67.5"/>
<text text-anchor="start" x="8" y="-85.5" font-family="Helvetica,sans-Serif" font-size="10.00">src/libs/vpropertyexplorer</text>
<text text-anchor="middle" x="83.5" y="-74.5" font-family="Helvetica,sans-Serif" font-size="10.00">/plugins/plaintext_property.cpp</text>
</a>
</g>
</g>
<!-- Node1&#45;&gt;Node2 -->
<g id="edge1" class="edge">
<title>Node1&#45;&gt;Node2</title>
<path fill="none" stroke="midnightblue" d="M1513.44,-148.98C1296.27,-149.55 683.42,-146.37 176.5,-98 173.41,-97.71 170.27,-97.37 167.09,-97.01"/>
<polygon fill="midnightblue" stroke="midnightblue" points="1513.49,-152.48 1523.48,-148.95 1513.47,-145.48 1513.49,-152.48"/>
</g>
<!-- Node3 -->
<g id="node3" class="node">
<title>Node3</title>
<g id="a_node3"><a xlink:href="../../d9/d33/lineweight__property_8cpp.html" target="_top" xlink:title=" ">
<polygon fill="white" stroke="black" points="185.5,-67.5 185.5,-97.5 359.5,-97.5 359.5,-67.5 185.5,-67.5"/>
<text text-anchor="start" x="193.5" y="-85.5" font-family="Helvetica,sans-Serif" font-size="10.00">src/libs/vpropertyexplorer</text>
<text text-anchor="middle" x="272.5" y="-74.5" font-family="Helvetica,sans-Serif" font-size="10.00">/plugins/lineweight_property.cpp</text>
</a>
</g>
</g>
<!-- Node1&#45;&gt;Node3 -->
<g id="edge2" class="edge">
<title>Node1&#45;&gt;Node3</title>
<path fill="none" stroke="midnightblue" d="M1513.23,-148.2C1316.36,-146.82 798.44,-139.2 368.5,-98 365.56,-97.72 362.58,-97.41 359.57,-97.07"/>
<polygon fill="midnightblue" stroke="midnightblue" points="1513.46,-151.7 1523.49,-148.27 1513.51,-144.7 1513.46,-151.7"/>
</g>
<!-- Node4 -->
<g id="node4" class="node">
<title>Node4</title>
<g id="a_node4"><a xlink:href="../../d8/d83/vboolproperty_8cpp.html" target="_top" xlink:title=" ">
<polygon fill="white" stroke="black" points="378,-67.5 378,-97.5 523,-97.5 523,-67.5 378,-67.5"/>
<text text-anchor="start" x="386" y="-85.5" font-family="Helvetica,sans-Serif" font-size="10.00">src/libs/vpropertyexplorer</text>
<text text-anchor="middle" x="450.5" y="-74.5" font-family="Helvetica,sans-Serif" font-size="10.00">/plugins/vboolproperty.cpp</text>
</a>
</g>
</g>
<!-- Node1&#45;&gt;Node4 -->
<g id="edge3" class="edge">
<title>Node1&#45;&gt;Node4</title>
<path fill="none" stroke="midnightblue" d="M1513.33,-148.16C1335.22,-146.65 896.9,-138.71 532.5,-98 529.48,-97.66 526.41,-97.28 523.31,-96.87"/>
<polygon fill="midnightblue" stroke="midnightblue" points="1513.38,-151.66 1523.41,-148.24 1513.44,-144.66 1513.38,-151.66"/>
</g>
<!-- Node5 -->
<g id="node5" class="node">
<title>Node5</title>
<g id="a_node5"><a xlink:href="../../d0/d6b/vcolorproperty_8cpp.html" target="_top" xlink:title=" ">
<polygon fill="white" stroke="black" points="541.5,-67.5 541.5,-97.5 689.5,-97.5 689.5,-67.5 541.5,-67.5"/>
<text text-anchor="start" x="549.5" y="-85.5" font-family="Helvetica,sans-Serif" font-size="10.00">src/libs/vpropertyexplorer</text>
<text text-anchor="middle" x="615.5" y="-74.5" font-family="Helvetica,sans-Serif" font-size="10.00">/plugins/vcolorproperty.cpp</text>
</a>
</g>
</g>
<!-- Node1&#45;&gt;Node5 -->
<g id="edge4" class="edge">
<title>Node1&#45;&gt;Node5</title>
<path fill="none" stroke="midnightblue" d="M1513.32,-147.09C1355.74,-143.66 997.62,-132.44 698.5,-98 695.59,-97.67 692.63,-97.29 689.65,-96.9"/>
<polygon fill="midnightblue" stroke="midnightblue" points="1513.33,-150.59 1523.41,-147.31 1513.48,-143.6 1513.33,-150.59"/>
</g>
<!-- Node6 -->
<g id="node6" class="node">
<title>Node6</title>
<g id="a_node6"><a xlink:href="../../d2/d8f/vvector3dproperty_8cpp.html" target="_top" xlink:title=" ">
<polygon fill="white" stroke="black" points="707.5,-67.5 707.5,-97.5 919.5,-97.5 919.5,-67.5 707.5,-67.5"/>
<text text-anchor="start" x="715.5" y="-85.5" font-family="Helvetica,sans-Serif" font-size="10.00">src/libs/vpropertyexplorer</text>
<text text-anchor="middle" x="813.5" y="-74.5" font-family="Helvetica,sans-Serif" font-size="10.00">/plugins/Vector3d/vvector3dproperty.cpp</text>
</a>
</g>
</g>
<!-- Node1&#45;&gt;Node6 -->
<g id="edge5" class="edge">
<title>Node1&#45;&gt;Node6</title>
<path fill="none" stroke="midnightblue" d="M1513.13,-143.64C1387.53,-135.84 1138.91,-119.23 928.5,-98 925.6,-97.71 922.65,-97.4 919.68,-97.08"/>
<polygon fill="midnightblue" stroke="midnightblue" points="1513.23,-147.15 1523.43,-144.28 1513.67,-140.17 1513.23,-147.15"/>
</g>
<!-- Node7 -->
<g id="node7" class="node">
<title>Node7</title>
<g id="a_node7"><a xlink:href="../../d3/d60/venumproperty_8cpp.html" target="_top" xlink:title=" ">
<polygon fill="white" stroke="black" points="937.5,-67.5 937.5,-97.5 1089.5,-97.5 1089.5,-67.5 937.5,-67.5"/>
<text text-anchor="start" x="945.5" y="-85.5" font-family="Helvetica,sans-Serif" font-size="10.00">src/libs/vpropertyexplorer</text>
<text text-anchor="middle" x="1013.5" y="-74.5" font-family="Helvetica,sans-Serif" font-size="10.00">/plugins/venumproperty.cpp</text>
</a>
</g>
</g>
<!-- Node1&#45;&gt;Node7 -->
<g id="edge6" class="edge">
<title>Node1&#45;&gt;Node7</title>
<path fill="none" stroke="midnightblue" d="M1513.1,-141.91C1414.67,-133.55 1244.08,-117.81 1098.5,-98 1095.68,-97.62 1092.81,-97.21 1089.92,-96.79"/>
<polygon fill="midnightblue" stroke="midnightblue" points="1513.01,-145.41 1523.27,-142.77 1513.6,-138.44 1513.01,-145.41"/>
</g>
<!-- Node8 -->
<g id="node8" class="node">
<title>Node8</title>
<g id="a_node8"><a xlink:href="../../d6/ddf/vlabelproperty_8cpp.html" target="_top" xlink:title=" ">
<polygon fill="white" stroke="black" points="1107.5,-67.5 1107.5,-97.5 1255.5,-97.5 1255.5,-67.5 1107.5,-67.5"/>
<text text-anchor="start" x="1115.5" y="-85.5" font-family="Helvetica,sans-Serif" font-size="10.00">src/libs/vpropertyexplorer</text>
<text text-anchor="middle" x="1181.5" y="-74.5" font-family="Helvetica,sans-Serif" font-size="10.00">/plugins/vlabelproperty.cpp</text>
</a>
</g>
</g>
<!-- Node1&#45;&gt;Node8 -->
<g id="edge7" class="edge">
<title>Node1&#45;&gt;Node8</title>
<path fill="none" stroke="midnightblue" d="M1513.25,-136.55C1446.41,-126.61 1349.23,-111.88 1264.5,-98 1261.61,-97.53 1258.67,-97.04 1255.7,-96.54"/>
<polygon fill="midnightblue" stroke="midnightblue" points="1512.89,-140.04 1523.3,-138.05 1513.92,-133.12 1512.89,-140.04"/>
</g>
<!-- Node9 -->
<g id="node9" class="node">
<title>Node9</title>
<g id="a_node9"><a xlink:href="../../dd/d22/vlinecolorproperty_8cpp.html" target="_top" xlink:title=" ">
<polygon fill="white" stroke="black" points="1273.5,-67.5 1273.5,-97.5 1439.5,-97.5 1439.5,-67.5 1273.5,-67.5"/>
<text text-anchor="start" x="1281.5" y="-85.5" font-family="Helvetica,sans-Serif" font-size="10.00">src/libs/vpropertyexplorer</text>
<text text-anchor="middle" x="1356.5" y="-74.5" font-family="Helvetica,sans-Serif" font-size="10.00">/plugins/vlinecolorproperty.cpp</text>
</a>
</g>
</g>
<!-- Node1&#45;&gt;Node9 -->
<g id="edge8" class="edge">
<title>Node1&#45;&gt;Node9</title>
<path fill="none" stroke="midnightblue" d="M1533.04,-131.71C1494.31,-121.14 1444.87,-107.63 1408.17,-97.61"/>
<polygon fill="midnightblue" stroke="midnightblue" points="1532.58,-135.22 1543.15,-134.48 1534.43,-128.46 1532.58,-135.22"/>
</g>
<!-- Node10 -->
<g id="node10" class="node">
<title>Node10</title>
<g id="a_node10"><a xlink:href="../../dc/d32/vlinetypeproperty_8cpp.html" target="_top" xlink:title=" ">
<polygon fill="white" stroke="black" points="1457.5,-67.5 1457.5,-97.5 1621.5,-97.5 1621.5,-67.5 1457.5,-67.5"/>
<text text-anchor="start" x="1465.5" y="-85.5" font-family="Helvetica,sans-Serif" font-size="10.00">src/libs/vpropertyexplorer</text>
<text text-anchor="middle" x="1539.5" y="-74.5" font-family="Helvetica,sans-Serif" font-size="10.00">/plugins/vlinetypeproperty.cpp</text>
</a>
</g>
</g>
<!-- Node1&#45;&gt;Node10 -->
<g id="edge9" class="edge">
<title>Node1&#45;&gt;Node10</title>
<path fill="none" stroke="midnightblue" d="M1576.08,-126.74C1567.95,-117.12 1558.61,-106.09 1551.41,-97.58"/>
<polygon fill="midnightblue" stroke="midnightblue" points="1573.43,-129.02 1582.57,-134.4 1578.78,-124.5 1573.43,-129.02"/>
</g>
<!-- Node11 -->
<g id="node11" class="node">
<title>Node11</title>
<g id="a_node11"><a xlink:href="../../d7/dd2/vfileproperty_8cpp.html" target="_top" xlink:title=" ">
<polygon fill="white" stroke="black" points="2065.5,-0.5 2065.5,-30.5 2207.5,-30.5 2207.5,-0.5 2065.5,-0.5"/>
<text text-anchor="start" x="2073.5" y="-18.5" font-family="Helvetica,sans-Serif" font-size="10.00">src/libs/vpropertyexplorer</text>
<text text-anchor="middle" x="2136.5" y="-7.5" font-family="Helvetica,sans-Serif" font-size="10.00">/plugins/vfileproperty.cpp</text>
</a>
</g>
</g>
<!-- Node1&#45;&gt;Node11 -->
<g id="edge10" class="edge">
<title>Node1&#45;&gt;Node11</title>
<path fill="none" stroke="midnightblue" d="M1611.67,-126.26C1628.88,-104.62 1654.74,-74 1668.5,-67 1736.15,-32.59 1952.02,-21.53 2065.4,-18.05"/>
<polygon fill="midnightblue" stroke="midnightblue" points="1608.75,-124.31 1605.32,-134.33 1614.25,-128.64 1608.75,-124.31"/>
</g>
<!-- Node12 -->
<g id="node12" class="node">
<title>Node12</title>
<g id="a_node12"><a xlink:href="../../d7/dda/vnumberproperty_8cpp.html" target="_top" xlink:title=" ">
<polygon fill="white" stroke="black" points="1678,-67.5 1678,-97.5 1839,-97.5 1839,-67.5 1678,-67.5"/>
<text text-anchor="start" x="1686" y="-85.5" font-family="Helvetica,sans-Serif" font-size="10.00">src/libs/vpropertyexplorer</text>
<text text-anchor="middle" x="1758.5" y="-74.5" font-family="Helvetica,sans-Serif" font-size="10.00">/plugins/vnumberproperty.cpp</text>
</a>
</g>
</g>
<!-- Node1&#45;&gt;Node12 -->
<g id="edge11" class="edge">
<title>Node1&#45;&gt;Node12</title>
<path fill="none" stroke="midnightblue" d="M1639.46,-130.68C1665.76,-120.26 1698.5,-107.28 1722.98,-97.58"/>
<polygon fill="midnightblue" stroke="midnightblue" points="1638.09,-127.46 1630.09,-134.4 1640.67,-133.97 1638.09,-127.46"/>
</g>
<!-- Node13 -->
<g id="node13" class="node">
<title>Node13</title>
<g id="a_node13"><a xlink:href="../../d5/d66/vobjectproperty_8cpp.html" target="_top" xlink:title=" ">
<polygon fill="white" stroke="black" points="1857.5,-67.5 1857.5,-97.5 2011.5,-97.5 2011.5,-67.5 1857.5,-67.5"/>
<text text-anchor="start" x="1865.5" y="-85.5" font-family="Helvetica,sans-Serif" font-size="10.00">src/libs/vpropertyexplorer</text>
<text text-anchor="middle" x="1934.5" y="-74.5" font-family="Helvetica,sans-Serif" font-size="10.00">/plugins/vobjectproperty.cpp</text>
</a>
</g>
</g>
<!-- Node1&#45;&gt;Node13 -->
<g id="edge12" class="edge">
<title>Node1&#45;&gt;Node13</title>
<path fill="none" stroke="midnightblue" d="M1675.73,-132.97C1732.14,-122.19 1806.68,-107.94 1861.27,-97.5"/>
<polygon fill="midnightblue" stroke="midnightblue" points="1674.94,-129.56 1665.78,-134.87 1676.25,-136.43 1674.94,-129.56"/>
</g>
<!-- Node14 -->
<g id="node14" class="node">
<title>Node14</title>
<g id="a_node14"><a xlink:href="../../d2/dec/vpointfproperty_8cpp.html" target="_top" xlink:title=" ">
<polygon fill="white" stroke="black" points="2029.5,-67.5 2029.5,-97.5 2181.5,-97.5 2181.5,-67.5 2029.5,-67.5"/>
<text text-anchor="start" x="2037.5" y="-85.5" font-family="Helvetica,sans-Serif" font-size="10.00">src/libs/vpropertyexplorer</text>
<text text-anchor="middle" x="2105.5" y="-74.5" font-family="Helvetica,sans-Serif" font-size="10.00">/plugins/vpointfproperty.cpp</text>
</a>
</g>
</g>
<!-- Node1&#45;&gt;Node14 -->
<g id="edge13" class="edge">
<title>Node1&#45;&gt;Node14</title>
<path fill="none" stroke="midnightblue" d="M1676.08,-140.08C1761.94,-130.92 1900.97,-115.27 2020.5,-98 2023.32,-97.59 2026.18,-97.17 2029.07,-96.73"/>
<polygon fill="midnightblue" stroke="midnightblue" points="1675.45,-136.63 1665.87,-141.16 1676.19,-143.59 1675.45,-136.63"/>
</g>
<!-- Node15 -->
<g id="node15" class="node">
<title>Node15</title>
<g id="a_node15"><a xlink:href="../../de/d34/vshortcutproperty_8cpp.html" target="_top" xlink:title=" ">
<polygon fill="white" stroke="black" points="2199.5,-67.5 2199.5,-97.5 2363.5,-97.5 2363.5,-67.5 2199.5,-67.5"/>
<text text-anchor="start" x="2207.5" y="-85.5" font-family="Helvetica,sans-Serif" font-size="10.00">src/libs/vpropertyexplorer</text>
<text text-anchor="middle" x="2281.5" y="-74.5" font-family="Helvetica,sans-Serif" font-size="10.00">/plugins/vshortcutproperty.cpp</text>
</a>
</g>
</g>
<!-- Node1&#45;&gt;Node15 -->
<g id="edge14" class="edge">
<title>Node1&#45;&gt;Node15</title>
<path fill="none" stroke="midnightblue" d="M1675.9,-143.51C1790.84,-136.02 2007.14,-120.35 2190.5,-98 2193.36,-97.65 2196.26,-97.28 2199.2,-96.89"/>
<polygon fill="midnightblue" stroke="midnightblue" points="1675.53,-140.02 1665.77,-144.16 1675.98,-147.01 1675.53,-140.02"/>
</g>
<!-- Node16 -->
<g id="node16" class="node">
<title>Node16</title>
<g id="a_node16"><a xlink:href="../../dc/d18/vstringproperty_8cpp.html" target="_top" xlink:title=" ">
<polygon fill="white" stroke="black" points="2381.5,-67.5 2381.5,-97.5 2533.5,-97.5 2533.5,-67.5 2381.5,-67.5"/>
<text text-anchor="start" x="2389.5" y="-85.5" font-family="Helvetica,sans-Serif" font-size="10.00">src/libs/vpropertyexplorer</text>
<text text-anchor="middle" x="2457.5" y="-74.5" font-family="Helvetica,sans-Serif" font-size="10.00">/plugins/vstringproperty.cpp</text>
</a>
</g>
</g>
<!-- Node1&#45;&gt;Node16 -->
<g id="edge15" class="edge">
<title>Node1&#45;&gt;Node16</title>
<path fill="none" stroke="midnightblue" d="M1675.87,-146.01C1817.73,-141.04 2119.38,-127.72 2372.5,-98 2375.32,-97.67 2378.2,-97.31 2381.1,-96.92"/>
<polygon fill="midnightblue" stroke="midnightblue" points="1675.4,-142.52 1665.52,-146.37 1675.64,-149.52 1675.4,-142.52"/>
</g>
<!-- Node17 -->
<g id="node17" class="node">
<title>Node17</title>
<g id="a_node17"><a xlink:href="../../dc/de7/vfileproperty__p_8h.html" target="_top" xlink:title=" ">
<polygon fill="white" stroke="black" points="2551.5,-67.5 2551.5,-97.5 2693.5,-97.5 2693.5,-67.5 2551.5,-67.5"/>
<text text-anchor="start" x="2559.5" y="-85.5" font-family="Helvetica,sans-Serif" font-size="10.00">src/libs/vpropertyexplorer</text>
<text text-anchor="middle" x="2622.5" y="-74.5" font-family="Helvetica,sans-Serif" font-size="10.00">/vfileproperty_p.h</text>
</a>
</g>
</g>
<!-- Node1&#45;&gt;Node17 -->
<g id="edge16" class="edge">
<title>Node1&#45;&gt;Node17</title>
<path fill="none" stroke="midnightblue" d="M1675.54,-147.62C1839.68,-145.08 2223.01,-135.31 2542.5,-98 2545.44,-97.66 2548.44,-97.27 2551.47,-96.85"/>
<polygon fill="midnightblue" stroke="midnightblue" points="1675.46,-144.12 1665.52,-147.77 1675.57,-151.12 1675.46,-144.12"/>
</g>
<!-- Node18 -->
<g id="node18" class="node">
<title>Node18</title>
<g id="a_node18"><a xlink:href="../../d8/dd2/vproperty_8cpp.html" target="_top" xlink:title=" ">
<polygon fill="white" stroke="black" points="2711.5,-67.5 2711.5,-97.5 2853.5,-97.5 2853.5,-67.5 2711.5,-67.5"/>
<text text-anchor="start" x="2719.5" y="-85.5" font-family="Helvetica,sans-Serif" font-size="10.00">src/libs/vpropertyexplorer</text>
<text text-anchor="middle" x="2782.5" y="-74.5" font-family="Helvetica,sans-Serif" font-size="10.00">/vproperty.cpp</text>
</a>
</g>
</g>
<!-- Node1&#45;&gt;Node18 -->
<g id="edge18" class="edge">
<title>Node1&#45;&gt;Node18</title>
<path fill="none" stroke="midnightblue" d="M1675.85,-148.51C1859.51,-147.72 2320.1,-141.17 2702.5,-98 2705.45,-97.67 2708.45,-97.29 2711.47,-96.88"/>
<polygon fill="midnightblue" stroke="midnightblue" points="1675.72,-145.01 1665.73,-148.55 1675.74,-152.01 1675.72,-145.01"/>
</g>
<!-- Node19 -->
<g id="node19" class="node">
<title>Node19</title>
<g id="a_node19"><a xlink:href="../../d4/d5a/vwidgetproperty__p_8h.html" target="_top" xlink:title=" ">
<polygon fill="white" stroke="black" points="2871.5,-67.5 2871.5,-97.5 3013.5,-97.5 3013.5,-67.5 2871.5,-67.5"/>
<text text-anchor="start" x="2879.5" y="-85.5" font-family="Helvetica,sans-Serif" font-size="10.00">src/libs/vpropertyexplorer</text>
<text text-anchor="middle" x="2942.5" y="-74.5" font-family="Helvetica,sans-Serif" font-size="10.00">/vwidgetproperty_p.h</text>
</a>
</g>
</g>
<!-- Node1&#45;&gt;Node19 -->
<g id="edge19" class="edge">
<title>Node1&#45;&gt;Node19</title>
<path fill="none" stroke="midnightblue" d="M1675.76,-149.18C1877.36,-150.02 2416.39,-147.07 2862.5,-98 2865.45,-97.68 2868.45,-97.31 2871.48,-96.9"/>
<polygon fill="midnightblue" stroke="midnightblue" points="1675.57,-145.68 1665.56,-149.13 1675.54,-152.68 1675.57,-145.68"/>
</g>
<!-- Node17&#45;&gt;Node11 -->
<g id="edge17" class="edge">
<title>Node17&#45;&gt;Node11</title>
<path fill="none" stroke="midnightblue" d="M2541.46,-66.89C2418.43,-48.31 2286.87,-32.92 2207.81,-24.16"/>
<polygon fill="midnightblue" stroke="midnightblue" points="2541.02,-70.36 2551.43,-68.41 2542.07,-63.44 2541.02,-70.36"/>
</g>
<!-- Node20 -->
<g id="node20" class="node">
<title>Node20</title>
<g id="a_node20"><a xlink:href="../../dc/ddd/vwidgetproperty_8cpp.html" target="_top" xlink:title=" ">
<polygon fill="white" stroke="black" points="2864,-0.5 2864,-30.5 3021,-30.5 3021,-0.5 2864,-0.5"/>
<text text-anchor="start" x="2872" y="-18.5" font-family="Helvetica,sans-Serif" font-size="10.00">src/libs/vpropertyexplorer</text>
<text text-anchor="middle" x="2942.5" y="-7.5" font-family="Helvetica,sans-Serif" font-size="10.00">/plugins/vwidgetproperty.cpp</text>
</a>
</g>
</g>
<!-- Node19&#45;&gt;Node20 -->
<g id="edge20" class="edge">
<title>Node19&#45;&gt;Node20</title>
<path fill="none" stroke="midnightblue" d="M2942.5,-57.11C2942.5,-48.15 2942.5,-38.32 2942.5,-30.58"/>
<polygon fill="midnightblue" stroke="midnightblue" points="2939,-57.4 2942.5,-67.4 2946,-57.4 2939,-57.4"/>
</g>
</g>
</svg>
