<?xml version="1.0" encoding="UTF-8" standalone="no"?>
<!DOCTYPE svg PUBLIC "-//W3C//DTD SVG 1.1//EN"
 "http://www.w3.org/Graphics/SVG/1.1/DTD/svg11.dtd">
<!-- Generated by graphviz version 2.43.0 (0)
 -->
<!-- Title: src/libs/vpatterndb/variables/vincrement.h Pages: 1 -->
<svg width="6580pt" height="385pt"
 viewBox="0.00 0.00 6579.50 385.00" xmlns="http://www.w3.org/2000/svg" xmlns:xlink="http://www.w3.org/1999/xlink">
<g id="graph0" class="graph" transform="scale(1 1) rotate(0) translate(4 381)">
<title>src/libs/vpatterndb/variables/vincrement.h</title>
<polygon fill="white" stroke="transparent" points="-4,4 -4,-381 6575.5,-381 6575.5,4 -4,4"/>
<!-- Node1 -->
<g id="node1" class="node">
<title>Node1</title>
<g id="a_node1"><a xlink:title=" ">
<polygon fill="#bfbfbf" stroke="black" points="5292,-346.5 5292,-376.5 5424,-376.5 5424,-346.5 5292,-346.5"/>
<text text-anchor="start" x="5300" y="-364.5" font-family="Helvetica,sans-Serif" font-size="10.00">src/libs/vpatterndb</text>
<text text-anchor="middle" x="5358" y="-353.5" font-family="Helvetica,sans-Serif" font-size="10.00">/variables/vincrement.h</text>
</a>
</g>
</g>
<!-- Node2 -->
<g id="node2" class="node">
<title>Node2</title>
<g id="a_node2"><a xlink:href="../../d6/de6/vincrement_8cpp.html" target="_top" xlink:title=" ">
<polygon fill="white" stroke="black" points="5467.5,-67.5 5467.5,-97.5 5610.5,-97.5 5610.5,-67.5 5467.5,-67.5"/>
<text text-anchor="start" x="5475.5" y="-85.5" font-family="Helvetica,sans-Serif" font-size="10.00">src/libs/vpatterndb</text>
<text text-anchor="middle" x="5539" y="-74.5" font-family="Helvetica,sans-Serif" font-size="10.00">/variables/vincrement.cpp</text>
</a>
</g>
</g>
<!-- Node1&#45;&gt;Node2 -->
<g id="edge1" class="edge">
<title>Node1&#45;&gt;Node2</title>
<path fill="none" stroke="midnightblue" d="M5357.33,-336.24C5357.4,-290.95 5363.9,-192.82 5415,-134 5430.09,-116.63 5452.06,-105.14 5473.32,-97.58"/>
<polygon fill="midnightblue" stroke="midnightblue" points="5353.83,-336.35 5357.43,-346.31 5360.83,-336.28 5353.83,-336.35"/>
</g>
<!-- Node3 -->
<g id="node3" class="node">
<title>Node3</title>
<g id="a_node3"><a xlink:href="../../de/dca/variables_8h.html" target="_top" xlink:title=" ">
<polygon fill="white" stroke="black" points="5414.5,-279.5 5414.5,-309.5 5521.5,-309.5 5521.5,-279.5 5414.5,-279.5"/>
<text text-anchor="start" x="5422.5" y="-297.5" font-family="Helvetica,sans-Serif" font-size="10.00">src/libs/vpatterndb</text>
<text text-anchor="middle" x="5468" y="-286.5" font-family="Helvetica,sans-Serif" font-size="10.00">/variables.h</text>
</a>
</g>
</g>
<!-- Node1&#45;&gt;Node3 -->
<g id="edge2" class="edge">
<title>Node1&#45;&gt;Node3</title>
<path fill="none" stroke="midnightblue" d="M5390.5,-341.3C5407.71,-331.12 5428.48,-318.85 5444.18,-309.58"/>
<polygon fill="midnightblue" stroke="midnightblue" points="5388.7,-338.3 5381.87,-346.4 5392.26,-344.32 5388.7,-338.3"/>
</g>
<!-- Node36 -->
<g id="node31" class="node">
<title>Node36</title>
<g id="a_node31"><a xlink:href="../../d6/d46/vcontainer_8cpp.html" target="_top" xlink:title=" ">
<polygon fill="white" stroke="black" points="1321.5,-67.5 1321.5,-97.5 1428.5,-97.5 1428.5,-67.5 1321.5,-67.5"/>
<text text-anchor="start" x="1329.5" y="-85.5" font-family="Helvetica,sans-Serif" font-size="10.00">src/libs/vpatterndb</text>
<text text-anchor="middle" x="1375" y="-74.5" font-family="Helvetica,sans-Serif" font-size="10.00">/vcontainer.cpp</text>
</a>
</g>
</g>
<!-- Node1&#45;&gt;Node36 -->
<g id="edge61" class="edge">
<title>Node1&#45;&gt;Node36</title>
<path fill="none" stroke="midnightblue" d="M5281.53,-359.19C4820.76,-350.88 2409.78,-301.98 1682,-176 1581.63,-158.63 1467.88,-118.82 1411.17,-97.54"/>
<polygon fill="midnightblue" stroke="midnightblue" points="5281.67,-362.69 5291.73,-359.37 5281.79,-355.69 5281.67,-362.69"/>
</g>
<!-- Node4 -->
<g id="node4" class="node">
<title>Node4</title>
<g id="a_node4"><a xlink:href="../../d3/df7/vcontainer_8h.html" target="_top" xlink:title=" ">
<polygon fill="white" stroke="black" points="5492.5,-212.5 5492.5,-242.5 5599.5,-242.5 5599.5,-212.5 5492.5,-212.5"/>
<text text-anchor="start" x="5500.5" y="-230.5" font-family="Helvetica,sans-Serif" font-size="10.00">src/libs/vpatterndb</text>
<text text-anchor="middle" x="5546" y="-219.5" font-family="Helvetica,sans-Serif" font-size="10.00">/vcontainer.h</text>
</a>
</g>
</g>
<!-- Node3&#45;&gt;Node4 -->
<g id="edge3" class="edge">
<title>Node3&#45;&gt;Node4</title>
<path fill="none" stroke="midnightblue" d="M5492.74,-272.88C5504.59,-263.01 5518.48,-251.43 5529.11,-242.58"/>
<polygon fill="midnightblue" stroke="midnightblue" points="5490.37,-270.31 5484.92,-279.4 5494.85,-275.68 5490.37,-270.31"/>
</g>
<!-- Node5 -->
<g id="node5" class="node">
<title>Node5</title>
<g id="a_node5"><a xlink:href="../../dc/db7/measurements_8h.html" target="_top" xlink:title=" ">
<polygon fill="white" stroke="black" points="6392.5,-145.5 6392.5,-164.5 6571.5,-164.5 6571.5,-145.5 6392.5,-145.5"/>
<text text-anchor="middle" x="6482" y="-152.5" font-family="Helvetica,sans-Serif" font-size="10.00">src/libs/vformat/measurements.h</text>
</a>
</g>
</g>
<!-- Node4&#45;&gt;Node5 -->
<g id="edge4" class="edge">
<title>Node4&#45;&gt;Node5</title>
<path fill="none" stroke="midnightblue" d="M5609.87,-225.44C5749.64,-222.49 6092.96,-211.91 6378,-176 6399.89,-173.24 6424.11,-168.68 6443.67,-164.6"/>
<polygon fill="midnightblue" stroke="midnightblue" points="5609.68,-221.94 5599.76,-225.64 5609.83,-228.94 5609.68,-221.94"/>
</g>
<!-- Node6 -->
<g id="node6" class="node">
<title>Node6</title>
<g id="a_node6"><a xlink:href="../../d9/de3/measurements_8cpp.html" target="_top" xlink:title=" ">
<polygon fill="white" stroke="black" points="6328,-73 6328,-92 6518,-92 6518,-73 6328,-73"/>
<text text-anchor="middle" x="6423" y="-80" font-family="Helvetica,sans-Serif" font-size="10.00">src/libs/vformat/measurements.cpp</text>
</a>
</g>
</g>
<!-- Node4&#45;&gt;Node6 -->
<g id="edge6" class="edge">
<title>Node4&#45;&gt;Node6</title>
<path fill="none" stroke="midnightblue" d="M5609.82,-225.33C5787.66,-221.68 6280.08,-208.71 6345,-176 6354.66,-171.13 6399.28,-114.2 6416.34,-92.15"/>
<polygon fill="midnightblue" stroke="midnightblue" points="5609.5,-221.84 5599.57,-225.54 5609.64,-228.84 5609.5,-221.84"/>
</g>
<!-- Node7 -->
<g id="node7" class="node">
<title>Node7</title>
<g id="a_node7"><a xlink:href="../../d6/de0/vlayoutpiece_8h.html" target="_top" xlink:title=" ">
<polygon fill="white" stroke="black" points="645,-145.5 645,-164.5 811,-164.5 811,-145.5 645,-145.5"/>
<text text-anchor="middle" x="728" y="-152.5" font-family="Helvetica,sans-Serif" font-size="10.00">src/libs/vlayout/vlayoutpiece.h</text>
</a>
</g>
</g>
<!-- Node4&#45;&gt;Node7 -->
<g id="edge7" class="edge">
<title>Node4&#45;&gt;Node7</title>
<path fill="none" stroke="midnightblue" d="M5482.35,-225.71C5125.83,-221.25 3340.57,-198.69 1882,-176 1480.79,-169.76 1001.15,-161.04 811.27,-157.54"/>
<polygon fill="midnightblue" stroke="midnightblue" points="5482.43,-229.21 5492.48,-225.83 5482.52,-222.21 5482.43,-229.21"/>
</g>
<!-- Node17 -->
<g id="node16" class="node">
<title>Node17</title>
<g id="a_node16"><a xlink:href="../../d8/d70/vtextmanager_8cpp.html" target="_top" xlink:title=" ">
<polygon fill="white" stroke="black" points="1447,-73 1447,-92 1629,-92 1629,-73 1447,-73"/>
<text text-anchor="middle" x="1538" y="-80" font-family="Helvetica,sans-Serif" font-size="10.00">src/libs/vlayout/vtextmanager.cpp</text>
</a>
</g>
</g>
<!-- Node4&#45;&gt;Node17 -->
<g id="edge18" class="edge">
<title>Node4&#45;&gt;Node17</title>
<path fill="none" stroke="midnightblue" d="M5482.43,-225.48C5041.18,-218.23 2429.04,-172.69 1638,-98 1622.28,-96.52 1605.26,-94.28 1589.78,-92.01"/>
<polygon fill="midnightblue" stroke="midnightblue" points="5482.39,-228.98 5492.45,-225.64 5482.51,-221.98 5482.39,-228.98"/>
</g>
<!-- Node18 -->
<g id="node17" class="node">
<title>Node18</title>
<g id="a_node17"><a xlink:href="../../d5/d74/vabstractapplication_8h.html" target="_top" xlink:title=" ">
<polygon fill="white" stroke="red" points="3407.5,-145.5 3407.5,-164.5 3602.5,-164.5 3602.5,-145.5 3407.5,-145.5"/>
<text text-anchor="middle" x="3505" y="-152.5" font-family="Helvetica,sans-Serif" font-size="10.00">src/libs/vmisc/vabstractapplication.h</text>
</a>
</g>
</g>
<!-- Node4&#45;&gt;Node18 -->
<g id="edge19" class="edge">
<title>Node4&#45;&gt;Node18</title>
<path fill="none" stroke="midnightblue" d="M5482.39,-224.3C5188.35,-214.15 3959.86,-171.71 3602.75,-159.38"/>
<polygon fill="midnightblue" stroke="midnightblue" points="5482.34,-227.8 5492.46,-224.65 5482.58,-220.81 5482.34,-227.8"/>
</g>
<!-- Node4&#45;&gt;Node36 -->
<g id="edge53" class="edge">
<title>Node4&#45;&gt;Node36</title>
<path fill="none" stroke="midnightblue" d="M5482.25,-226.3C5078.33,-224.93 2870.28,-215.7 2196,-176 1857.92,-156.1 1772.1,-153.42 1438,-98 1434.9,-97.49 1431.72,-96.91 1428.53,-96.29"/>
<polygon fill="midnightblue" stroke="midnightblue" points="5482.28,-229.8 5492.29,-226.34 5482.3,-222.8 5482.28,-229.8"/>
</g>
<!-- Node37 -->
<g id="node32" class="node">
<title>Node37</title>
<g id="a_node32"><a xlink:href="../../db/d11/vformula_8cpp.html" target="_top" xlink:title=" ">
<polygon fill="white" stroke="black" points="5217.5,-67.5 5217.5,-97.5 5324.5,-97.5 5324.5,-67.5 5217.5,-67.5"/>
<text text-anchor="start" x="5225.5" y="-85.5" font-family="Helvetica,sans-Serif" font-size="10.00">src/libs/vpatterndb</text>
<text text-anchor="middle" x="5271" y="-74.5" font-family="Helvetica,sans-Serif" font-size="10.00">/vformula.cpp</text>
</a>
</g>
</g>
<!-- Node4&#45;&gt;Node37 -->
<g id="edge54" class="edge">
<title>Node4&#45;&gt;Node37</title>
<path fill="none" stroke="midnightblue" d="M5482.54,-210.42C5454.54,-202.08 5421.76,-190.55 5394,-176 5351.64,-153.8 5308.38,-117.42 5286.19,-97.54"/>
<polygon fill="midnightblue" stroke="midnightblue" points="5481.65,-213.81 5492.23,-213.24 5483.6,-207.09 5481.65,-213.81"/>
</g>
<!-- Node38 -->
<g id="node33" class="node">
<title>Node38</title>
<g id="a_node33"><a xlink:href="../../df/d7a/vpiece_8cpp.html" target="_top" xlink:title=" ">
<polygon fill="white" stroke="black" points="5342.5,-67.5 5342.5,-97.5 5449.5,-97.5 5449.5,-67.5 5342.5,-67.5"/>
<text text-anchor="start" x="5350.5" y="-85.5" font-family="Helvetica,sans-Serif" font-size="10.00">src/libs/vpatterndb</text>
<text text-anchor="middle" x="5396" y="-74.5" font-family="Helvetica,sans-Serif" font-size="10.00">/vpiece.cpp</text>
</a>
</g>
</g>
<!-- Node4&#45;&gt;Node38 -->
<g id="edge57" class="edge">
<title>Node4&#45;&gt;Node38</title>
<path fill="none" stroke="midnightblue" d="M5482.4,-215.54C5458.04,-208.24 5432.03,-196.11 5415,-176 5396.14,-153.73 5394.32,-117.71 5394.96,-97.83"/>
<polygon fill="midnightblue" stroke="midnightblue" points="5481.78,-219 5492.35,-218.3 5483.65,-212.26 5481.78,-219"/>
</g>
<!-- Node40 -->
<g id="node35" class="node">
<title>Node40</title>
<g id="a_node35"><a xlink:href="../../d8/dba/vpiecenode_8cpp.html" target="_top" xlink:title=" ">
<polygon fill="white" stroke="black" points="5338.5,-0.5 5338.5,-30.5 5445.5,-30.5 5445.5,-0.5 5338.5,-0.5"/>
<text text-anchor="start" x="5346.5" y="-18.5" font-family="Helvetica,sans-Serif" font-size="10.00">src/libs/vpatterndb</text>
<text text-anchor="middle" x="5392" y="-7.5" font-family="Helvetica,sans-Serif" font-size="10.00">/vpiecenode.cpp</text>
</a>
</g>
</g>
<!-- Node4&#45;&gt;Node40 -->
<g id="edge56" class="edge">
<title>Node4&#45;&gt;Node40</title>
<path fill="none" stroke="midnightblue" d="M5562.14,-203.97C5588.71,-165.57 5636.99,-89.43 5619,-67 5597.69,-40.43 5505.84,-26.94 5445.7,-20.84"/>
<polygon fill="midnightblue" stroke="midnightblue" points="5559.09,-202.23 5556.22,-212.43 5564.82,-206.25 5559.09,-202.23"/>
</g>
<!-- Node57 -->
<g id="node45" class="node">
<title>Node57</title>
<g id="a_node45"><a xlink:href="../../d7/d8a/measurement__variable__p_8h.html" target="_top" xlink:title=" ">
<polygon fill="white" stroke="red" points="5624,-134.5 5624,-175.5 5760,-175.5 5760,-134.5 5624,-134.5"/>
<text text-anchor="start" x="5632" y="-163.5" font-family="Helvetica,sans-Serif" font-size="10.00">src/libs/vpatterndb</text>
<text text-anchor="start" x="5632" y="-152.5" font-family="Helvetica,sans-Serif" font-size="10.00">/variables/measurement</text>
<text text-anchor="middle" x="5692" y="-141.5" font-family="Helvetica,sans-Serif" font-size="10.00">_variable_p.h</text>
</a>
</g>
</g>
<!-- Node4&#45;&gt;Node57 -->
<g id="edge50" class="edge">
<title>Node4&#45;&gt;Node57</title>
<path fill="none" stroke="midnightblue" d="M5584.32,-208C5605,-198.01 5630.52,-185.69 5651.52,-175.55"/>
<polygon fill="midnightblue" stroke="midnightblue" points="5582.68,-204.9 5575.19,-212.4 5585.72,-211.21 5582.68,-204.9"/>
</g>
<!-- Node59 -->
<g id="node46" class="node">
<title>Node59</title>
<g id="a_node46"><a xlink:href="../../d1/de1/vincrement__p_8h.html" target="_top" xlink:title=" ">
<polygon fill="white" stroke="black" points="5424.5,-140 5424.5,-170 5567.5,-170 5567.5,-140 5424.5,-140"/>
<text text-anchor="start" x="5432.5" y="-158" font-family="Helvetica,sans-Serif" font-size="10.00">src/libs/vpatterndb</text>
<text text-anchor="middle" x="5496" y="-147" font-family="Helvetica,sans-Serif" font-size="10.00">/variables/vincrement_p.h</text>
</a>
</g>
</g>
<!-- Node4&#45;&gt;Node59 -->
<g id="edge51" class="edge">
<title>Node4&#45;&gt;Node59</title>
<path fill="none" stroke="midnightblue" d="M5529.96,-203.89C5522.13,-192.84 5512.94,-179.89 5506.1,-170.25"/>
<polygon fill="midnightblue" stroke="midnightblue" points="5527.24,-206.1 5535.88,-212.23 5532.95,-202.05 5527.24,-206.1"/>
</g>
<!-- Node60 -->
<g id="node47" class="node">
<title>Node60</title>
<g id="a_node47"><a xlink:href="../../d6/d91/vnodedetail_8cpp.html" target="_top" xlink:title=" ">
<polygon fill="white" stroke="black" points="5778.5,-140 5778.5,-170 5885.5,-170 5885.5,-140 5778.5,-140"/>
<text text-anchor="start" x="5786.5" y="-158" font-family="Helvetica,sans-Serif" font-size="10.00">src/libs/vpatterndb</text>
<text text-anchor="middle" x="5832" y="-147" font-family="Helvetica,sans-Serif" font-size="10.00">/vnodedetail.cpp</text>
</a>
</g>
</g>
<!-- Node4&#45;&gt;Node60 -->
<g id="edge55" class="edge">
<title>Node4&#45;&gt;Node60</title>
<path fill="none" stroke="midnightblue" d="M5609.81,-213.55C5654.59,-204.1 5715.75,-190.45 5769,-176 5775.64,-174.2 5782.64,-172.14 5789.45,-170.05"/>
<polygon fill="midnightblue" stroke="midnightblue" points="5609,-210.14 5599.94,-215.62 5610.44,-216.99 5609,-210.14"/>
</g>
<!-- Node61 -->
<g id="node48" class="node">
<title>Node61</title>
<g id="a_node48"><a xlink:href="../../da/de1/vpiecepath_8cpp.html" target="_top" xlink:title=" ">
<polygon fill="white" stroke="black" points="5903.5,-140 5903.5,-170 6010.5,-170 6010.5,-140 5903.5,-140"/>
<text text-anchor="start" x="5911.5" y="-158" font-family="Helvetica,sans-Serif" font-size="10.00">src/libs/vpatterndb</text>
<text text-anchor="middle" x="5957" y="-147" font-family="Helvetica,sans-Serif" font-size="10.00">/vpiecepath.cpp</text>
</a>
</g>
</g>
<!-- Node4&#45;&gt;Node61 -->
<g id="edge58" class="edge">
<title>Node4&#45;&gt;Node61</title>
<path fill="none" stroke="midnightblue" d="M5609.58,-220.43C5679.79,-212.99 5795.89,-198.53 5894,-176 5901.16,-174.36 5908.67,-172.28 5915.92,-170.1"/>
<polygon fill="midnightblue" stroke="midnightblue" points="5609.14,-216.95 5599.56,-221.47 5609.87,-223.91 5609.14,-216.95"/>
</g>
<!-- Node62 -->
<g id="node49" class="node">
<title>Node62</title>
<g id="a_node49"><a xlink:href="../../d1/d3a/abstracttest_8cpp.html" target="_top" xlink:title=" ">
<polygon fill="white" stroke="black" points="6028.5,-145.5 6028.5,-164.5 6189.5,-164.5 6189.5,-145.5 6028.5,-145.5"/>
<text text-anchor="middle" x="6109" y="-152.5" font-family="Helvetica,sans-Serif" font-size="10.00">src/libs/vtest/abstracttest.cpp</text>
</a>
</g>
</g>
<!-- Node4&#45;&gt;Node62 -->
<g id="edge59" class="edge">
<title>Node4&#45;&gt;Node62</title>
<path fill="none" stroke="midnightblue" d="M5610,-221.96C5701.2,-214.97 5873.63,-199.84 6019,-176 6037.64,-172.94 6058.22,-168.46 6074.99,-164.51"/>
<polygon fill="midnightblue" stroke="midnightblue" points="5609.53,-218.49 5599.82,-222.73 5610.06,-225.47 5609.53,-218.49"/>
</g>
<!-- Node63 -->
<g id="node50" class="node">
<title>Node63</title>
<g id="a_node50"><a xlink:href="../../da/db4/piece__tablewidgetitem_8cpp.html" target="_top" xlink:title=" ">
<polygon fill="white" stroke="black" points="6208,-140 6208,-170 6336,-170 6336,-140 6208,-140"/>
<text text-anchor="start" x="6216" y="-158" font-family="Helvetica,sans-Serif" font-size="10.00">src/libs/vwidgets/piece</text>
<text text-anchor="middle" x="6272" y="-147" font-family="Helvetica,sans-Serif" font-size="10.00">_tablewidgetitem.cpp</text>
</a>
</g>
</g>
<!-- Node4&#45;&gt;Node63 -->
<g id="edge60" class="edge">
<title>Node4&#45;&gt;Node63</title>
<path fill="none" stroke="midnightblue" d="M5610.01,-225.58C5727.54,-222.99 5985.32,-213.18 6199,-176 6207.8,-174.47 6217.08,-172.34 6225.96,-170.04"/>
<polygon fill="midnightblue" stroke="midnightblue" points="5609.68,-222.08 5599.75,-225.79 5609.83,-229.08 5609.68,-222.08"/>
</g>
<!-- Node5&#45;&gt;Node6 -->
<g id="edge5" class="edge">
<title>Node5&#45;&gt;Node6</title>
<path fill="none" stroke="midnightblue" d="M6468.11,-137.4C6456.26,-123.24 6439.7,-103.46 6430.29,-92.22"/>
<polygon fill="midnightblue" stroke="midnightblue" points="6465.66,-139.93 6474.77,-145.36 6471.03,-135.44 6465.66,-139.93"/>
</g>
<!-- Node8 -->
<g id="node8" class="node">
<title>Node8</title>
<g id="a_node8"><a xlink:href="../../dd/d66/vdxfengine_8cpp.html" target="_top" xlink:title=" ">
<polygon fill="white" stroke="black" points="954,-73 954,-92 1108,-92 1108,-73 954,-73"/>
<text text-anchor="middle" x="1031" y="-80" font-family="Helvetica,sans-Serif" font-size="10.00">src/libs/vdxf/vdxfengine.cpp</text>
</a>
</g>
</g>
<!-- Node7&#45;&gt;Node8 -->
<g id="edge8" class="edge">
<title>Node7&#45;&gt;Node8</title>
<path fill="none" stroke="midnightblue" d="M774.58,-143.16C835.01,-129.1 939.19,-104.86 994.32,-92.03"/>
<polygon fill="midnightblue" stroke="midnightblue" points="773.5,-139.82 764.55,-145.5 775.08,-146.64 773.5,-139.82"/>
</g>
<!-- Node9 -->
<g id="node9" class="node">
<title>Node9</title>
<g id="a_node9"><a xlink:href="../../de/da8/vbank_8cpp.html" target="_top" xlink:title=" ">
<polygon fill="white" stroke="black" points="0,-73 0,-92 144,-92 144,-73 0,-73"/>
<text text-anchor="middle" x="72" y="-80" font-family="Helvetica,sans-Serif" font-size="10.00">src/libs/vlayout/vbank.cpp</text>
</a>
</g>
</g>
<!-- Node7&#45;&gt;Node9 -->
<g id="edge9" class="edge">
<title>Node7&#45;&gt;Node9</title>
<path fill="none" stroke="midnightblue" d="M634.83,-147.23C520.88,-138.42 322.26,-121.35 153,-98 140.97,-96.34 128,-94.18 116.04,-92.04"/>
<polygon fill="midnightblue" stroke="midnightblue" points="634.68,-150.73 644.91,-148.01 635.21,-143.75 634.68,-150.73"/>
</g>
<!-- Node10 -->
<g id="node10" class="node">
<title>Node10</title>
<g id="a_node10"><a xlink:href="../../df/d5d/vcontour_8cpp.html" target="_top" xlink:title=" ">
<polygon fill="white" stroke="black" points="162,-73 162,-92 318,-92 318,-73 162,-73"/>
<text text-anchor="middle" x="240" y="-80" font-family="Helvetica,sans-Serif" font-size="10.00">src/libs/vlayout/vcontour.cpp</text>
</a>
</g>
</g>
<!-- Node7&#45;&gt;Node10 -->
<g id="edge10" class="edge">
<title>Node7&#45;&gt;Node10</title>
<path fill="none" stroke="midnightblue" d="M652.92,-144.12C572.29,-133.36 440.44,-115.37 327,-98 314.89,-96.15 301.85,-94.03 289.65,-92.01"/>
<polygon fill="midnightblue" stroke="midnightblue" points="652.61,-147.61 662.98,-145.46 653.53,-140.67 652.61,-147.61"/>
</g>
<!-- Node11 -->
<g id="node11" class="node">
<title>Node11</title>
<g id="a_node11"><a xlink:href="../../d3/d39/vlayoutgenerator_8cpp.html" target="_top" xlink:title=" ">
<polygon fill="white" stroke="black" points="336.5,-73 336.5,-92 533.5,-92 533.5,-73 336.5,-73"/>
<text text-anchor="middle" x="435" y="-80" font-family="Helvetica,sans-Serif" font-size="10.00">src/libs/vlayout/vlayoutgenerator.cpp</text>
</a>
</g>
</g>
<!-- Node7&#45;&gt;Node11 -->
<g id="edge11" class="edge">
<title>Node7&#45;&gt;Node11</title>
<path fill="none" stroke="midnightblue" d="M682.6,-143.08C624.11,-129 523.67,-104.83 470.47,-92.03"/>
<polygon fill="midnightblue" stroke="midnightblue" points="682.12,-146.56 692.66,-145.5 683.75,-139.75 682.12,-146.56"/>
</g>
<!-- Node12 -->
<g id="node12" class="node">
<title>Node12</title>
<g id="a_node12"><a xlink:href="../../d2/d2d/vlayoutpaper__p_8h.html" target="_top" xlink:title=" ">
<polygon fill="white" stroke="black" points="756.5,-73 756.5,-92 935.5,-92 935.5,-73 756.5,-73"/>
<text text-anchor="middle" x="846" y="-80" font-family="Helvetica,sans-Serif" font-size="10.00">src/libs/vlayout/vlayoutpaper_p.h</text>
</a>
</g>
</g>
<!-- Node7&#45;&gt;Node12 -->
<g id="edge12" class="edge">
<title>Node7&#45;&gt;Node12</title>
<path fill="none" stroke="midnightblue" d="M751.23,-140.12C775.04,-125.89 811.35,-104.2 831.41,-92.22"/>
<polygon fill="midnightblue" stroke="midnightblue" points="749.26,-137.22 742.47,-145.36 752.85,-143.23 749.26,-137.22"/>
</g>
<!-- Node13 -->
<g id="node13" class="node">
<title>Node13</title>
<g id="a_node13"><a xlink:href="../../d1/dd1/vlayoutpaper_8cpp.html" target="_top" xlink:title=" ">
<polygon fill="white" stroke="black" points="639,-6 639,-25 817,-25 817,-6 639,-6"/>
<text text-anchor="middle" x="728" y="-13" font-family="Helvetica,sans-Serif" font-size="10.00">src/libs/vlayout/vlayoutpaper.cpp</text>
</a>
</g>
</g>
<!-- Node7&#45;&gt;Node13 -->
<g id="edge14" class="edge">
<title>Node7&#45;&gt;Node13</title>
<path fill="none" stroke="midnightblue" d="M728,-135.36C728,-105.23 728,-46.99 728,-25.1"/>
<polygon fill="midnightblue" stroke="midnightblue" points="724.5,-135.4 728,-145.4 731.5,-135.4 724.5,-135.4"/>
</g>
<!-- Node14 -->
<g id="node14" class="node">
<title>Node14</title>
<g id="a_node14"><a xlink:href="../../db/d5c/vposition_8h.html" target="_top" xlink:title=" ">
<polygon fill="white" stroke="red" points="552,-73 552,-92 700,-92 700,-73 552,-73"/>
<text text-anchor="middle" x="626" y="-80" font-family="Helvetica,sans-Serif" font-size="10.00">src/libs/vlayout/vposition.h</text>
</a>
</g>
</g>
<!-- Node7&#45;&gt;Node14 -->
<g id="edge15" class="edge">
<title>Node7&#45;&gt;Node14</title>
<path fill="none" stroke="midnightblue" d="M707.1,-139.55C686.5,-125.32 655.72,-104.04 638.61,-92.22"/>
<polygon fill="midnightblue" stroke="midnightblue" points="705.28,-142.55 715.49,-145.36 709.26,-136.79 705.28,-142.55"/>
</g>
<!-- Node16 -->
<g id="node15" class="node">
<title>Node16</title>
<g id="a_node15"><a xlink:href="../../dd/d70/vlayoutpiece_8cpp.html" target="_top" xlink:title=" ">
<polygon fill="white" stroke="black" points="1126.5,-73 1126.5,-92 1303.5,-92 1303.5,-73 1126.5,-73"/>
<text text-anchor="middle" x="1215" y="-80" font-family="Helvetica,sans-Serif" font-size="10.00">src/libs/vlayout/vlayoutpiece.cpp</text>
</a>
</g>
</g>
<!-- Node7&#45;&gt;Node16 -->
<g id="edge17" class="edge">
<title>Node7&#45;&gt;Node16</title>
<path fill="none" stroke="midnightblue" d="M797.82,-144.03C875.69,-132.9 1005.38,-114.29 1117,-98 1130.19,-96.07 1144.37,-93.99 1157.74,-92.01"/>
<polygon fill="midnightblue" stroke="midnightblue" points="797.06,-140.61 787.65,-145.49 798.05,-147.54 797.06,-140.61"/>
</g>
<!-- Node12&#45;&gt;Node13 -->
<g id="edge13" class="edge">
<title>Node12&#45;&gt;Node13</title>
<path fill="none" stroke="midnightblue" d="M821.11,-67.79C797.72,-54.9 763.44,-36.02 743.66,-25.13"/>
<polygon fill="midnightblue" stroke="midnightblue" points="819.64,-70.97 830.09,-72.73 823.02,-64.84 819.64,-70.97"/>
</g>
<!-- Node14&#45;&gt;Node13 -->
<g id="edge16" class="edge">
<title>Node14&#45;&gt;Node13</title>
<path fill="none" stroke="midnightblue" d="M648.33,-67.27C668.52,-54.4 697.59,-35.88 714.46,-25.13"/>
<polygon fill="midnightblue" stroke="midnightblue" points="646.31,-64.41 639.76,-72.73 650.07,-70.31 646.31,-64.41"/>
</g>
<!-- Node18&#45;&gt;Node16 -->
<g id="edge30" class="edge">
<title>Node18&#45;&gt;Node16</title>
<path fill="none" stroke="midnightblue" d="M3397.25,-153C3014.88,-149.19 1723.94,-133.91 1312,-98 1296.39,-96.64 1279.48,-94.38 1264.21,-92.05"/>
<polygon fill="midnightblue" stroke="midnightblue" points="3397.45,-156.51 3407.48,-153.1 3397.51,-149.51 3397.45,-156.51"/>
</g>
<!-- Node18&#45;&gt;Node17 -->
<g id="edge31" class="edge">
<title>Node18&#45;&gt;Node17</title>
<path fill="none" stroke="midnightblue" d="M3397.23,-150.19C3278.4,-146.03 3081.58,-139.26 2912,-134 2345.82,-116.45 2202.35,-146.72 1638,-98 1621.92,-96.61 1604.48,-94.35 1588.74,-92.02"/>
<polygon fill="midnightblue" stroke="midnightblue" points="3397.3,-153.69 3407.42,-150.55 3397.55,-146.7 3397.3,-153.69"/>
</g>
<!-- Node19 -->
<g id="node18" class="node">
<title>Node19</title>
<g id="a_node18"><a xlink:href="../../d4/d90/fvupdater_8cpp.html" target="_top" xlink:title=" ">
<polygon fill="white" stroke="black" points="3428.5,-73 3428.5,-92 3581.5,-92 3581.5,-73 3428.5,-73"/>
<text text-anchor="middle" x="3505" y="-80" font-family="Helvetica,sans-Serif" font-size="10.00">src/libs/fervor/fvupdater.cpp</text>
</a>
</g>
</g>
<!-- Node18&#45;&gt;Node19 -->
<g id="edge20" class="edge">
<title>Node18&#45;&gt;Node19</title>
<path fill="none" stroke="midnightblue" d="M3505,-134.94C3505,-121.03 3505,-102.82 3505,-92.22"/>
<polygon fill="midnightblue" stroke="midnightblue" points="3501.5,-135.36 3505,-145.36 3508.5,-135.36 3501.5,-135.36"/>
</g>
<!-- Node20 -->
<g id="node19" class="node">
<title>Node20</title>
<g id="a_node19"><a xlink:href="../../d9/dc8/dxiface_8cpp.html" target="_top" xlink:title=" ">
<polygon fill="white" stroke="black" points="3599.5,-73 3599.5,-92 3734.5,-92 3734.5,-73 3599.5,-73"/>
<text text-anchor="middle" x="3667" y="-80" font-family="Helvetica,sans-Serif" font-size="10.00">src/libs/vdxf/dxiface.cpp</text>
</a>
</g>
</g>
<!-- Node18&#45;&gt;Node20 -->
<g id="edge21" class="edge">
<title>Node18&#45;&gt;Node20</title>
<path fill="none" stroke="midnightblue" d="M3534.02,-141.37C3566.77,-127.12 3619.13,-104.33 3647.39,-92.03"/>
<polygon fill="midnightblue" stroke="midnightblue" points="3532.31,-138.3 3524.54,-145.5 3535.11,-144.71 3532.31,-138.3"/>
</g>
<!-- Node21 -->
<g id="node20" class="node">
<title>Node21</title>
<g id="a_node20"><a xlink:href="../../da/d75/vabstractarc__p_8h.html" target="_top" xlink:title=" ">
<polygon fill="white" stroke="red" points="3752.5,-67.5 3752.5,-97.5 3859.5,-97.5 3859.5,-67.5 3752.5,-67.5"/>
<text text-anchor="start" x="3760.5" y="-85.5" font-family="Helvetica,sans-Serif" font-size="10.00">src/libs/vgeometry</text>
<text text-anchor="middle" x="3806" y="-74.5" font-family="Helvetica,sans-Serif" font-size="10.00">/vabstractarc_p.h</text>
</a>
</g>
</g>
<!-- Node18&#45;&gt;Node21 -->
<g id="edge22" class="edge">
<title>Node18&#45;&gt;Node21</title>
<path fill="none" stroke="midnightblue" d="M3551.33,-143.15C3605.53,-130.45 3695.11,-109.47 3752.3,-96.08"/>
<polygon fill="midnightblue" stroke="midnightblue" points="3550.25,-139.81 3541.31,-145.5 3551.84,-146.62 3550.25,-139.81"/>
</g>
<!-- Node23 -->
<g id="node21" class="node">
<title>Node23</title>
<g id="a_node21"><a xlink:href="../../dc/da3/varc__p_8h.html" target="_top" xlink:title=" ">
<polygon fill="white" stroke="red" points="3877.5,-67.5 3877.5,-97.5 3984.5,-97.5 3984.5,-67.5 3877.5,-67.5"/>
<text text-anchor="start" x="3885.5" y="-85.5" font-family="Helvetica,sans-Serif" font-size="10.00">src/libs/vgeometry</text>
<text text-anchor="middle" x="3931" y="-74.5" font-family="Helvetica,sans-Serif" font-size="10.00">/varc_p.h</text>
</a>
</g>
</g>
<!-- Node18&#45;&gt;Node23 -->
<g id="edge23" class="edge">
<title>Node18&#45;&gt;Node23</title>
<path fill="none" stroke="midnightblue" d="M3579.94,-144.07C3653.53,-133.94 3768.86,-117.03 3868,-98 3871.09,-97.41 3874.25,-96.77 3877.44,-96.11"/>
<polygon fill="midnightblue" stroke="midnightblue" points="3579.27,-140.63 3569.83,-145.46 3580.22,-147.57 3579.27,-140.63"/>
</g>
<!-- Node25 -->
<g id="node22" class="node">
<title>Node25</title>
<g id="a_node22"><a xlink:href="../../d5/d8e/vcubicbezier__p_8h.html" target="_top" xlink:title=" ">
<polygon fill="white" stroke="red" points="4002.5,-67.5 4002.5,-97.5 4109.5,-97.5 4109.5,-67.5 4002.5,-67.5"/>
<text text-anchor="start" x="4010.5" y="-85.5" font-family="Helvetica,sans-Serif" font-size="10.00">src/libs/vgeometry</text>
<text text-anchor="middle" x="4056" y="-74.5" font-family="Helvetica,sans-Serif" font-size="10.00">/vcubicbezier_p.h</text>
</a>
</g>
</g>
<!-- Node18&#45;&gt;Node25 -->
<g id="edge24" class="edge">
<title>Node18&#45;&gt;Node25</title>
<path fill="none" stroke="midnightblue" d="M3612.71,-145.13C3711.92,-136.14 3862.99,-120.35 3993,-98 3996.1,-97.47 3999.27,-96.88 4002.47,-96.25"/>
<polygon fill="midnightblue" stroke="midnightblue" points="3612.32,-141.65 3602.68,-146.03 3612.95,-148.62 3612.32,-141.65"/>
</g>
<!-- Node27 -->
<g id="node23" class="node">
<title>Node27</title>
<g id="a_node23"><a xlink:href="../../df/dde/vellipticalarc__p_8h.html" target="_top" xlink:title=" ">
<polygon fill="white" stroke="black" points="4127.5,-67.5 4127.5,-97.5 4234.5,-97.5 4234.5,-67.5 4127.5,-67.5"/>
<text text-anchor="start" x="4135.5" y="-85.5" font-family="Helvetica,sans-Serif" font-size="10.00">src/libs/vgeometry</text>
<text text-anchor="middle" x="4181" y="-74.5" font-family="Helvetica,sans-Serif" font-size="10.00">/vellipticalarc_p.h</text>
</a>
</g>
</g>
<!-- Node18&#45;&gt;Node27 -->
<g id="edge25" class="edge">
<title>Node18&#45;&gt;Node27</title>
<path fill="none" stroke="midnightblue" d="M3612.81,-148.57C3735.68,-141.36 3942.23,-126.12 4118,-98 4121.1,-97.5 4124.28,-96.94 4127.48,-96.34"/>
<polygon fill="midnightblue" stroke="midnightblue" points="3612.43,-145.09 3602.65,-149.16 3612.84,-152.07 3612.43,-145.09"/>
</g>
<!-- Node28 -->
<g id="node24" class="node">
<title>Node28</title>
<g id="a_node24"><a xlink:href="../../d6/dfb/vellipticalarc_8cpp.html" target="_top" xlink:title=" ">
<polygon fill="white" stroke="black" points="2928.5,-0.5 2928.5,-30.5 3035.5,-30.5 3035.5,-0.5 2928.5,-0.5"/>
<text text-anchor="start" x="2936.5" y="-18.5" font-family="Helvetica,sans-Serif" font-size="10.00">src/libs/vgeometry</text>
<text text-anchor="middle" x="2982" y="-7.5" font-family="Helvetica,sans-Serif" font-size="10.00">/vellipticalarc.cpp</text>
</a>
</g>
</g>
<!-- Node18&#45;&gt;Node28 -->
<g id="edge27" class="edge">
<title>Node18&#45;&gt;Node28</title>
<path fill="none" stroke="midnightblue" d="M3397.23,-150.32C3278.4,-146.28 3081.56,-139.61 2912,-134 2850.33,-131.96 1844.91,-142.33 1802,-98 1792.42,-88.1 1792.47,-76.95 1802,-67 1841.43,-25.84 2702.74,-18.08 2928.32,-16.75"/>
<polygon fill="midnightblue" stroke="midnightblue" points="3397.3,-153.83 3407.41,-150.67 3397.54,-146.83 3397.3,-153.83"/>
</g>
<!-- Node29 -->
<g id="node25" class="node">
<title>Node29</title>
<g id="a_node25"><a xlink:href="../../d1/d76/vspline__p_8h.html" target="_top" xlink:title=" ">
<polygon fill="white" stroke="red" points="4252.5,-67.5 4252.5,-97.5 4359.5,-97.5 4359.5,-67.5 4252.5,-67.5"/>
<text text-anchor="start" x="4260.5" y="-85.5" font-family="Helvetica,sans-Serif" font-size="10.00">src/libs/vgeometry</text>
<text text-anchor="middle" x="4306" y="-74.5" font-family="Helvetica,sans-Serif" font-size="10.00">/vspline_p.h</text>
</a>
</g>
</g>
<!-- Node18&#45;&gt;Node29 -->
<g id="edge28" class="edge">
<title>Node18&#45;&gt;Node29</title>
<path fill="none" stroke="midnightblue" d="M3612.71,-150.9C3756.94,-145.6 4020.48,-131.85 4243,-98 4246.11,-97.53 4249.29,-96.98 4252.49,-96.39"/>
<polygon fill="midnightblue" stroke="midnightblue" points="3612.4,-147.41 3602.53,-151.27 3612.65,-154.41 3612.4,-147.41"/>
</g>
<!-- Node31 -->
<g id="node26" class="node">
<title>Node31</title>
<g id="a_node26"><a xlink:href="../../d9/d15/vabstractpiece_8cpp.html" target="_top" xlink:title=" ">
<polygon fill="white" stroke="black" points="4378,-73 4378,-92 4564,-92 4564,-73 4378,-73"/>
<text text-anchor="middle" x="4471" y="-80" font-family="Helvetica,sans-Serif" font-size="10.00">src/libs/vlayout/vabstractpiece.cpp</text>
</a>
</g>
</g>
<!-- Node18&#45;&gt;Node31 -->
<g id="edge29" class="edge">
<title>Node18&#45;&gt;Node31</title>
<path fill="none" stroke="midnightblue" d="M3612.65,-149.61C3776.17,-142.36 4096.81,-125.85 4368,-98 4383.63,-96.4 4400.53,-94.21 4416.04,-92.02"/>
<polygon fill="midnightblue" stroke="midnightblue" points="3612.43,-146.12 3602.59,-150.06 3612.73,-153.11 3612.43,-146.12"/>
</g>
<!-- Node32 -->
<g id="node27" class="node">
<title>Node32</title>
<g id="a_node27"><a xlink:href="../../db/d65/dialogexporttocsv_8cpp.html" target="_top" xlink:title=" ">
<polygon fill="white" stroke="black" points="4582.5,-67.5 4582.5,-97.5 4709.5,-97.5 4709.5,-67.5 4582.5,-67.5"/>
<text text-anchor="start" x="4590.5" y="-85.5" font-family="Helvetica,sans-Serif" font-size="10.00">src/libs/vmisc/dialogs</text>
<text text-anchor="middle" x="4646" y="-74.5" font-family="Helvetica,sans-Serif" font-size="10.00">/dialogexporttocsv.cpp</text>
</a>
</g>
</g>
<!-- Node18&#45;&gt;Node32 -->
<g id="edge32" class="edge">
<title>Node18&#45;&gt;Node32</title>
<path fill="none" stroke="midnightblue" d="M3612.75,-153.46C3805.93,-151.35 4223.67,-141.62 4573,-98 4576.08,-97.62 4579.22,-97.18 4582.39,-96.69"/>
<polygon fill="midnightblue" stroke="midnightblue" points="3612.56,-149.96 3602.6,-153.56 3612.64,-156.96 3612.56,-149.96"/>
</g>
<!-- Node33 -->
<g id="node28" class="node">
<title>Node33</title>
<g id="a_node28"><a xlink:href="../../d6/d0b/def_8cpp.html" target="_top" xlink:title=" ">
<polygon fill="white" stroke="black" points="4728,-73 4728,-92 4850,-92 4850,-73 4728,-73"/>
<text text-anchor="middle" x="4789" y="-80" font-family="Helvetica,sans-Serif" font-size="10.00">src/libs/vmisc/def.cpp</text>
</a>
</g>
</g>
<!-- Node18&#45;&gt;Node33 -->
<g id="edge33" class="edge">
<title>Node18&#45;&gt;Node33</title>
<path fill="none" stroke="midnightblue" d="M3612.74,-154.62C3825.07,-154.62 4312.26,-148.49 4718,-98 4729.36,-96.59 4741.62,-94.35 4752.69,-92.04"/>
<polygon fill="midnightblue" stroke="midnightblue" points="3612.53,-151.12 3602.53,-154.62 3612.52,-158.12 3612.53,-151.12"/>
</g>
<!-- Node34 -->
<g id="node29" class="node">
<title>Node34</title>
<g id="a_node29"><a xlink:href="../../d0/df6/vabstractapplication_8cpp.html" target="_top" xlink:title=" ">
<polygon fill="white" stroke="black" points="4868,-73 4868,-92 5074,-92 5074,-73 4868,-73"/>
<text text-anchor="middle" x="4971" y="-80" font-family="Helvetica,sans-Serif" font-size="10.00">src/libs/vmisc/vabstractapplication.cpp</text>
</a>
</g>
</g>
<!-- Node18&#45;&gt;Node34 -->
<g id="edge34" class="edge">
<title>Node18&#45;&gt;Node34</title>
<path fill="none" stroke="midnightblue" d="M3612.91,-152.74C3842.55,-149.35 4396.45,-137.43 4859,-98 4876.48,-96.51 4895.43,-94.29 4912.68,-92.03"/>
<polygon fill="midnightblue" stroke="midnightblue" points="3612.83,-149.24 3602.89,-152.88 3612.94,-156.24 3612.83,-149.24"/>
</g>
<!-- Node35 -->
<g id="node30" class="node">
<title>Node35</title>
<g id="a_node30"><a xlink:href="../../d4/d4f/pmsystems_8cpp.html" target="_top" xlink:title=" ">
<polygon fill="white" stroke="black" points="1647.5,-67.5 1647.5,-97.5 1754.5,-97.5 1754.5,-67.5 1647.5,-67.5"/>
<text text-anchor="start" x="1655.5" y="-85.5" font-family="Helvetica,sans-Serif" font-size="10.00">src/libs/vpatterndb</text>
<text text-anchor="middle" x="1701" y="-74.5" font-family="Helvetica,sans-Serif" font-size="10.00">/pmsystems.cpp</text>
</a>
</g>
</g>
<!-- Node18&#45;&gt;Node35 -->
<g id="edge35" class="edge">
<title>Node18&#45;&gt;Node35</title>
<path fill="none" stroke="midnightblue" d="M3397.23,-150.29C3278.4,-146.22 3081.57,-139.53 2912,-134 2404.02,-117.43 2273.55,-159.24 1769,-98 1764.33,-97.43 1759.5,-96.7 1754.67,-95.87"/>
<polygon fill="midnightblue" stroke="midnightblue" points="3397.3,-153.8 3407.41,-150.64 3397.54,-146.8 3397.3,-153.8"/>
</g>
<!-- Node18&#45;&gt;Node36 -->
<g id="edge36" class="edge">
<title>Node18&#45;&gt;Node36</title>
<path fill="none" stroke="midnightblue" d="M3397.12,-153.91C3028.77,-153.17 1822.45,-146.95 1438,-98 1434.99,-97.62 1431.92,-97.15 1428.83,-96.63"/>
<polygon fill="midnightblue" stroke="midnightblue" points="3397.24,-157.41 3407.24,-153.93 3397.25,-150.41 3397.24,-157.41"/>
</g>
<!-- Node18&#45;&gt;Node37 -->
<g id="edge37" class="edge">
<title>Node18&#45;&gt;Node37</title>
<path fill="none" stroke="midnightblue" d="M3613.01,-153.18C3937.05,-150.28 4897.68,-138.43 5208,-98 5211,-97.61 5214.08,-97.14 5217.17,-96.61"/>
<polygon fill="midnightblue" stroke="midnightblue" points="3612.65,-149.68 3602.68,-153.27 3612.71,-156.68 3612.65,-149.68"/>
</g>
<!-- Node18&#45;&gt;Node38 -->
<g id="edge38" class="edge">
<title>Node18&#45;&gt;Node38</title>
<path fill="none" stroke="midnightblue" d="M3612.67,-153.46C3952.11,-151.34 4997.19,-141.36 5333,-98 5336.01,-97.61 5339.08,-97.14 5342.17,-96.62"/>
<polygon fill="midnightblue" stroke="midnightblue" points="3612.57,-149.97 3602.59,-153.53 3612.61,-156.97 3612.57,-149.97"/>
</g>
<!-- Node39 -->
<g id="node34" class="node">
<title>Node39</title>
<g id="a_node34"><a xlink:href="../../df/dba/vpiecenode__p_8h.html" target="_top" xlink:title=" ">
<polygon fill="white" stroke="black" points="5092.5,-67.5 5092.5,-97.5 5199.5,-97.5 5199.5,-67.5 5092.5,-67.5"/>
<text text-anchor="start" x="5100.5" y="-85.5" font-family="Helvetica,sans-Serif" font-size="10.00">src/libs/vpatterndb</text>
<text text-anchor="middle" x="5146" y="-74.5" font-family="Helvetica,sans-Serif" font-size="10.00">/vpiecenode_p.h</text>
</a>
</g>
</g>
<!-- Node18&#45;&gt;Node39 -->
<g id="edge39" class="edge">
<title>Node18&#45;&gt;Node39</title>
<path fill="none" stroke="midnightblue" d="M3612.75,-152.85C3920.22,-149.15 4797.89,-135.52 5083,-98 5086,-97.6 5089.08,-97.13 5092.17,-96.6"/>
<polygon fill="midnightblue" stroke="midnightblue" points="3612.46,-149.36 3602.5,-152.98 3612.54,-156.36 3612.46,-149.36"/>
</g>
<!-- Node41 -->
<g id="node36" class="node">
<title>Node41</title>
<g id="a_node36"><a xlink:href="../../de/d3e/vtranslatevars_8cpp.html" target="_top" xlink:title=" ">
<polygon fill="white" stroke="black" points="1811,-67.5 1811,-97.5 1921,-97.5 1921,-67.5 1811,-67.5"/>
<text text-anchor="start" x="1819" y="-85.5" font-family="Helvetica,sans-Serif" font-size="10.00">src/libs/vpatterndb</text>
<text text-anchor="middle" x="1866" y="-74.5" font-family="Helvetica,sans-Serif" font-size="10.00">/vtranslatevars.cpp</text>
</a>
</g>
</g>
<!-- Node18&#45;&gt;Node41 -->
<g id="edge41" class="edge">
<title>Node18&#45;&gt;Node41</title>
<path fill="none" stroke="midnightblue" d="M3397.26,-150.3C3044.9,-138.19 1948.21,-100.37 1930,-98 1927.06,-97.62 1924.06,-97.16 1921.04,-96.66"/>
<polygon fill="midnightblue" stroke="midnightblue" points="3397.35,-153.81 3407.46,-150.65 3397.59,-146.81 3397.35,-153.81"/>
</g>
<!-- Node42 -->
<g id="node37" class="node">
<title>Node42</title>
<g id="a_node37"><a xlink:href="../../df/d40/export__format__combobox_8cpp.html" target="_top" xlink:title=" ">
<polygon fill="white" stroke="black" points="1939.5,-67.5 1939.5,-97.5 2072.5,-97.5 2072.5,-67.5 1939.5,-67.5"/>
<text text-anchor="start" x="1947.5" y="-85.5" font-family="Helvetica,sans-Serif" font-size="10.00">src/libs/vwidgets/export</text>
<text text-anchor="middle" x="2006" y="-74.5" font-family="Helvetica,sans-Serif" font-size="10.00">_format_combobox.cpp</text>
</a>
</g>
</g>
<!-- Node18&#45;&gt;Node42 -->
<g id="edge42" class="edge">
<title>Node18&#45;&gt;Node42</title>
<path fill="none" stroke="midnightblue" d="M3397.19,-150.2C3076.54,-138.83 2146.96,-105.43 2082,-98 2078.93,-97.65 2075.8,-97.24 2072.64,-96.8"/>
<polygon fill="midnightblue" stroke="midnightblue" points="3397.31,-153.7 3407.42,-150.56 3397.55,-146.71 3397.31,-153.7"/>
</g>
<!-- Node43 -->
<g id="node38" class="node">
<title>Node43</title>
<g id="a_node38"><a xlink:href="../../d3/d4f/mouse__coordinates_8cpp.html" target="_top" xlink:title=" ">
<polygon fill="white" stroke="black" points="2091,-67.5 2091,-97.5 2225,-97.5 2225,-67.5 2091,-67.5"/>
<text text-anchor="start" x="2099" y="-85.5" font-family="Helvetica,sans-Serif" font-size="10.00">src/libs/vwidgets/mouse</text>
<text text-anchor="middle" x="2158" y="-74.5" font-family="Helvetica,sans-Serif" font-size="10.00">_coordinates.cpp</text>
</a>
</g>
</g>
<!-- Node18&#45;&gt;Node43 -->
<g id="edge43" class="edge">
<title>Node18&#45;&gt;Node43</title>
<path fill="none" stroke="midnightblue" d="M3396.91,-150.14C3110.77,-139.78 2347.7,-111.28 2234,-98 2231.06,-97.66 2228.07,-97.27 2225.06,-96.84"/>
<polygon fill="midnightblue" stroke="midnightblue" points="3397.18,-153.65 3407.3,-150.51 3397.43,-146.65 3397.18,-153.65"/>
</g>
<!-- Node44 -->
<g id="node39" class="node">
<title>Node44</title>
<g id="a_node39"><a xlink:href="../../d2/d28/page__format__combobox_8cpp.html" target="_top" xlink:title=" ">
<polygon fill="white" stroke="black" points="2243.5,-67.5 2243.5,-97.5 2374.5,-97.5 2374.5,-67.5 2243.5,-67.5"/>
<text text-anchor="start" x="2251.5" y="-85.5" font-family="Helvetica,sans-Serif" font-size="10.00">src/libs/vwidgets/page</text>
<text text-anchor="middle" x="2309" y="-74.5" font-family="Helvetica,sans-Serif" font-size="10.00">_format_combobox.cpp</text>
</a>
</g>
</g>
<!-- Node18&#45;&gt;Node44 -->
<g id="edge44" class="edge">
<title>Node18&#45;&gt;Node44</title>
<path fill="none" stroke="midnightblue" d="M3397.11,-150.55C3155.69,-142.53 2577.93,-121.47 2384,-98 2380.97,-97.63 2377.88,-97.22 2374.77,-96.76"/>
<polygon fill="midnightblue" stroke="midnightblue" points="3397.19,-154.06 3407.3,-150.89 3397.42,-147.06 3397.19,-154.06"/>
</g>
<!-- Node45 -->
<g id="node40" class="node">
<title>Node45</title>
<g id="a_node40"><a xlink:href="../../d8/d76/scene__rect_8cpp.html" target="_top" xlink:title=" ">
<polygon fill="white" stroke="black" points="2393,-67.5 2393,-97.5 2523,-97.5 2523,-67.5 2393,-67.5"/>
<text text-anchor="start" x="2401" y="-85.5" font-family="Helvetica,sans-Serif" font-size="10.00">src/libs/vwidgets/scene</text>
<text text-anchor="middle" x="2458" y="-74.5" font-family="Helvetica,sans-Serif" font-size="10.00">_rect.cpp</text>
</a>
</g>
</g>
<!-- Node18&#45;&gt;Node45 -->
<g id="edge45" class="edge">
<title>Node18&#45;&gt;Node45</title>
<path fill="none" stroke="midnightblue" d="M3396.97,-152.57C3216.94,-149.12 2844.47,-137.42 2532,-98 2529.14,-97.64 2526.23,-97.23 2523.29,-96.79"/>
<polygon fill="midnightblue" stroke="midnightblue" points="3397.17,-156.08 3407.24,-152.76 3397.3,-149.08 3397.17,-156.08"/>
</g>
<!-- Node46 -->
<g id="node41" class="node">
<title>Node46</title>
<g id="a_node41"><a xlink:href="../../d7/d1b/pen__toolbar_8cpp.html" target="_top" xlink:title=" ">
<polygon fill="white" stroke="black" points="2541.5,-67.5 2541.5,-97.5 2660.5,-97.5 2660.5,-67.5 2541.5,-67.5"/>
<text text-anchor="start" x="2549.5" y="-85.5" font-family="Helvetica,sans-Serif" font-size="10.00">src/libs/vwidgets/pen</text>
<text text-anchor="middle" x="2601" y="-74.5" font-family="Helvetica,sans-Serif" font-size="10.00">_toolbar.cpp</text>
</a>
</g>
</g>
<!-- Node18&#45;&gt;Node46 -->
<g id="edge46" class="edge">
<title>Node18&#45;&gt;Node46</title>
<path fill="none" stroke="midnightblue" d="M3397.05,-151.7C3237.28,-147.19 2928.75,-134.2 2669,-98 2666.25,-97.62 2663.45,-97.19 2660.62,-96.72"/>
<polygon fill="midnightblue" stroke="midnightblue" points="3397.26,-155.21 3407.36,-151.99 3397.46,-148.21 3397.26,-155.21"/>
</g>
<!-- Node47 -->
<g id="node42" class="node">
<title>Node47</title>
<g id="a_node42"><a xlink:href="../../dd/df6/vabstractmainwindow_8cpp.html" target="_top" xlink:title=" ">
<polygon fill="white" stroke="black" points="2678.5,-73 2678.5,-92 2907.5,-92 2907.5,-73 2678.5,-73"/>
<text text-anchor="middle" x="2793" y="-80" font-family="Helvetica,sans-Serif" font-size="10.00">src/libs/vwidgets/vabstractmainwindow.cpp</text>
</a>
</g>
</g>
<!-- Node18&#45;&gt;Node47 -->
<g id="edge47" class="edge">
<title>Node18&#45;&gt;Node47</title>
<path fill="none" stroke="midnightblue" d="M3398.84,-144.58C3281.04,-133.97 3085.32,-115.85 2917,-98 2899.65,-96.16 2880.95,-94.04 2863.46,-92.01"/>
<polygon fill="midnightblue" stroke="midnightblue" points="3398.67,-148.08 3408.94,-145.49 3399.3,-141.11 3398.67,-148.08"/>
</g>
<!-- Node48 -->
<g id="node43" class="node">
<title>Node48</title>
<g id="a_node43"><a xlink:href="../../de/dec/vgraphicssimpletextitem_8cpp.html" target="_top" xlink:title=" ">
<polygon fill="white" stroke="black" points="2926,-73 2926,-92 3170,-92 3170,-73 2926,-73"/>
<text text-anchor="middle" x="3048" y="-80" font-family="Helvetica,sans-Serif" font-size="10.00">src/libs/vwidgets/vgraphicssimpletextitem.cpp</text>
</a>
</g>
</g>
<!-- Node18&#45;&gt;Node48 -->
<g id="edge48" class="edge">
<title>Node18&#45;&gt;Node48</title>
<path fill="none" stroke="midnightblue" d="M3439.76,-143.94C3349.48,-130.01 3188.02,-105.1 3103.32,-92.03"/>
<polygon fill="midnightblue" stroke="midnightblue" points="3439.46,-147.43 3449.88,-145.5 3440.53,-140.51 3439.46,-147.43"/>
</g>
<!-- Node49 -->
<g id="node44" class="node">
<title>Node49</title>
<g id="a_node44"><a xlink:href="../../d1/d88/vmaingraphicsscene_8cpp.html" target="_top" xlink:title=" ">
<polygon fill="white" stroke="black" points="3188,-73 3188,-92 3410,-92 3410,-73 3188,-73"/>
<text text-anchor="middle" x="3299" y="-80" font-family="Helvetica,sans-Serif" font-size="10.00">src/libs/vwidgets/vmaingraphicsscene.cpp</text>
</a>
</g>
</g>
<!-- Node18&#45;&gt;Node49 -->
<g id="edge49" class="edge">
<title>Node18&#45;&gt;Node49</title>
<path fill="none" stroke="midnightblue" d="M3470.49,-142.19C3429.05,-128.01 3360.57,-104.57 3323.94,-92.03"/>
<polygon fill="midnightblue" stroke="midnightblue" points="3469.56,-145.57 3480.15,-145.5 3471.82,-138.95 3469.56,-145.57"/>
</g>
<!-- Node27&#45;&gt;Node28 -->
<g id="edge26" class="edge">
<title>Node27&#45;&gt;Node28</title>
<path fill="none" stroke="midnightblue" d="M4117.1,-67.1C3885.14,-37.5 3228.06,-21.7 3035.57,-17.59"/>
<polygon fill="midnightblue" stroke="midnightblue" points="4116.79,-70.59 4127.16,-68.43 4117.71,-63.65 4116.79,-70.59"/>
</g>
<!-- Node39&#45;&gt;Node40 -->
<g id="edge40" class="edge">
<title>Node39&#45;&gt;Node40</title>
<path fill="none" stroke="midnightblue" d="M5208.76,-64.92C5248.9,-54.31 5300.42,-40.7 5338.6,-30.61"/>
<polygon fill="midnightblue" stroke="midnightblue" points="5207.85,-61.54 5199.08,-67.48 5209.64,-68.31 5207.85,-61.54"/>
</g>
<!-- Node59&#45;&gt;Node2 -->
<g id="edge52" class="edge">
<title>Node59&#45;&gt;Node2</title>
<path fill="none" stroke="midnightblue" d="M5509.99,-131.06C5516.69,-120.09 5524.49,-107.3 5530.31,-97.75"/>
<polygon fill="midnightblue" stroke="midnightblue" points="5506.92,-129.37 5504.7,-139.73 5512.9,-133.02 5506.92,-129.37"/>
</g>
</g>
</svg>
