<?xml version="1.0" encoding="UTF-8" standalone="no"?>
<!DOCTYPE svg PUBLIC "-//W3C//DTD SVG 1.1//EN"
 "http://www.w3.org/Graphics/SVG/1.1/DTD/svg11.dtd">
<!-- Generated by graphviz version 2.43.0 (0)
 -->
<!-- Title: src/libs/vpatterndb/variables/vincrement.h Pages: 1 -->
<svg width="6607pt" height="385pt"
 viewBox="0.00 0.00 6606.50 385.00" xmlns="http://www.w3.org/2000/svg" xmlns:xlink="http://www.w3.org/1999/xlink">
<g id="graph0" class="graph" transform="scale(1 1) rotate(0) translate(4 381)">
<title>src/libs/vpatterndb/variables/vincrement.h</title>
<polygon fill="white" stroke="transparent" points="-4,4 -4,-381 6602.5,-381 6602.5,4 -4,4"/>
<!-- Node1 -->
<g id="node1" class="node">
<title>Node1</title>
<g id="a_node1"><a xlink:title=" ">
<polygon fill="#bfbfbf" stroke="black" points="5373,-346.5 5373,-376.5 5505,-376.5 5505,-346.5 5373,-346.5"/>
<text text-anchor="start" x="5381" y="-364.5" font-family="Helvetica,sans-Serif" font-size="10.00">src/libs/vpatterndb</text>
<text text-anchor="middle" x="5439" y="-353.5" font-family="Helvetica,sans-Serif" font-size="10.00">/variables/vincrement.h</text>
</a>
</g>
</g>
<!-- Node2 -->
<g id="node2" class="node">
<title>Node2</title>
<g id="a_node2"><a xlink:href="../../d6/de6/vincrement_8cpp.html" target="_top" xlink:title=" ">
<polygon fill="white" stroke="black" points="6455.5,-67.5 6455.5,-97.5 6598.5,-97.5 6598.5,-67.5 6455.5,-67.5"/>
<text text-anchor="start" x="6463.5" y="-85.5" font-family="Helvetica,sans-Serif" font-size="10.00">src/libs/vpatterndb</text>
<text text-anchor="middle" x="6527" y="-74.5" font-family="Helvetica,sans-Serif" font-size="10.00">/variables/vincrement.cpp</text>
</a>
</g>
</g>
<!-- Node1&#45;&gt;Node2 -->
<g id="edge1" class="edge">
<title>Node1&#45;&gt;Node2</title>
<path fill="none" stroke="midnightblue" d="M5515.04,-354.59C5725.09,-337.07 6308.16,-280.04 6466,-176 6495.07,-156.84 6513.53,-118.53 6521.85,-97.73"/>
<polygon fill="midnightblue" stroke="midnightblue" points="5514.7,-351.1 5505.02,-355.42 5515.28,-358.08 5514.7,-351.1"/>
</g>
<!-- Node3 -->
<g id="node3" class="node">
<title>Node3</title>
<g id="a_node3"><a xlink:href="../../d6/d46/vcontainer_8cpp.html" target="_top" xlink:title=" ">
<polygon fill="white" stroke="black" points="1321.5,-67.5 1321.5,-97.5 1428.5,-97.5 1428.5,-67.5 1321.5,-67.5"/>
<text text-anchor="start" x="1329.5" y="-85.5" font-family="Helvetica,sans-Serif" font-size="10.00">src/libs/vpatterndb</text>
<text text-anchor="middle" x="1375" y="-74.5" font-family="Helvetica,sans-Serif" font-size="10.00">/vcontainer.cpp</text>
</a>
</g>
</g>
<!-- Node1&#45;&gt;Node3 -->
<g id="edge2" class="edge">
<title>Node1&#45;&gt;Node3</title>
<path fill="none" stroke="midnightblue" d="M5362.51,-359.21C4896.31,-350.96 2432.64,-301.98 1689,-176 1586.46,-158.63 1470.07,-118.83 1412.02,-97.54"/>
<polygon fill="midnightblue" stroke="midnightblue" points="5362.76,-362.71 5372.82,-359.39 5362.89,-355.71 5362.76,-362.71"/>
</g>
<!-- Node4 -->
<g id="node4" class="node">
<title>Node4</title>
<g id="a_node4"><a xlink:href="../../de/dca/variables_8h.html" target="_top" xlink:title=" ">
<polygon fill="white" stroke="black" points="5385.5,-279.5 5385.5,-309.5 5492.5,-309.5 5492.5,-279.5 5385.5,-279.5"/>
<text text-anchor="start" x="5393.5" y="-297.5" font-family="Helvetica,sans-Serif" font-size="10.00">src/libs/vpatterndb</text>
<text text-anchor="middle" x="5439" y="-286.5" font-family="Helvetica,sans-Serif" font-size="10.00">/variables.h</text>
</a>
</g>
</g>
<!-- Node1&#45;&gt;Node4 -->
<g id="edge3" class="edge">
<title>Node1&#45;&gt;Node4</title>
<path fill="none" stroke="midnightblue" d="M5439,-336.11C5439,-327.15 5439,-317.32 5439,-309.58"/>
<polygon fill="midnightblue" stroke="midnightblue" points="5435.5,-336.4 5439,-346.4 5442.5,-336.4 5435.5,-336.4"/>
</g>
<!-- Node5 -->
<g id="node5" class="node">
<title>Node5</title>
<g id="a_node5"><a xlink:href="../../d3/df7/vcontainer_8h.html" target="_top" xlink:title=" ">
<polygon fill="white" stroke="black" points="5385.5,-212.5 5385.5,-242.5 5492.5,-242.5 5492.5,-212.5 5385.5,-212.5"/>
<text text-anchor="start" x="5393.5" y="-230.5" font-family="Helvetica,sans-Serif" font-size="10.00">src/libs/vpatterndb</text>
<text text-anchor="middle" x="5439" y="-219.5" font-family="Helvetica,sans-Serif" font-size="10.00">/vcontainer.h</text>
</a>
</g>
</g>
<!-- Node4&#45;&gt;Node5 -->
<g id="edge4" class="edge">
<title>Node4&#45;&gt;Node5</title>
<path fill="none" stroke="midnightblue" d="M5439,-269.11C5439,-260.15 5439,-250.32 5439,-242.58"/>
<polygon fill="midnightblue" stroke="midnightblue" points="5435.5,-269.4 5439,-279.4 5442.5,-269.4 5435.5,-269.4"/>
</g>
<!-- Node5&#45;&gt;Node3 -->
<g id="edge55" class="edge">
<title>Node5&#45;&gt;Node3</title>
<path fill="none" stroke="midnightblue" d="M5375.22,-226.17C4983.75,-224.01 2902.14,-211.06 2265,-176 1896.37,-155.71 1802.46,-156.87 1438,-98 1434.9,-97.5 1431.72,-96.93 1428.52,-96.33"/>
<polygon fill="midnightblue" stroke="midnightblue" points="5375.21,-229.67 5385.23,-226.22 5375.25,-222.67 5375.21,-229.67"/>
</g>
<!-- Node6 -->
<g id="node6" class="node">
<title>Node6</title>
<g id="a_node6"><a xlink:href="../../dc/db7/measurements_8h.html" target="_top" xlink:title=" ">
<polygon fill="white" stroke="black" points="6259.5,-145.5 6259.5,-164.5 6438.5,-164.5 6438.5,-145.5 6259.5,-145.5"/>
<text text-anchor="middle" x="6349" y="-152.5" font-family="Helvetica,sans-Serif" font-size="10.00">src/libs/vformat/measurements.h</text>
</a>
</g>
</g>
<!-- Node5&#45;&gt;Node6 -->
<g id="edge5" class="edge">
<title>Node5&#45;&gt;Node6</title>
<path fill="none" stroke="midnightblue" d="M5503.21,-225.49C5640.71,-222.67 5973.62,-212.35 6250,-176 6271.04,-173.23 6294.3,-168.61 6312.99,-164.51"/>
<polygon fill="midnightblue" stroke="midnightblue" points="5502.79,-222 5492.86,-225.69 5502.93,-229 5502.79,-222"/>
</g>
<!-- Node7 -->
<g id="node7" class="node">
<title>Node7</title>
<g id="a_node7"><a xlink:href="../../d9/de3/measurements_8cpp.html" target="_top" xlink:title=" ">
<polygon fill="white" stroke="black" points="6247,-73 6247,-92 6437,-92 6437,-73 6247,-73"/>
<text text-anchor="middle" x="6342" y="-80" font-family="Helvetica,sans-Serif" font-size="10.00">src/libs/vformat/measurements.cpp</text>
</a>
</g>
</g>
<!-- Node5&#45;&gt;Node7 -->
<g id="edge7" class="edge">
<title>Node5&#45;&gt;Node7</title>
<path fill="none" stroke="midnightblue" d="M5502.86,-225.7C5719.44,-222.66 6414.4,-210.27 6447,-176 6459.86,-162.47 6456.94,-149.8 6447,-134 6433.06,-111.82 6406.35,-99.16 6383.36,-92.06"/>
<polygon fill="midnightblue" stroke="midnightblue" points="5502.56,-222.2 5492.61,-225.84 5502.66,-229.2 5502.56,-222.2"/>
</g>
<!-- Node8 -->
<g id="node8" class="node">
<title>Node8</title>
<g id="a_node8"><a xlink:href="../../d6/de0/vlayoutpiece_8h.html" target="_top" xlink:title=" ">
<polygon fill="white" stroke="black" points="645,-145.5 645,-164.5 811,-164.5 811,-145.5 645,-145.5"/>
<text text-anchor="middle" x="728" y="-152.5" font-family="Helvetica,sans-Serif" font-size="10.00">src/libs/vlayout/vlayoutpiece.h</text>
</a>
</g>
</g>
<!-- Node5&#45;&gt;Node8 -->
<g id="edge8" class="edge">
<title>Node5&#45;&gt;Node8</title>
<path fill="none" stroke="midnightblue" d="M5375.22,-225.67C5024.41,-221.09 3294.13,-198.31 1880,-176 1479.49,-169.68 1000.67,-161.01 811.12,-157.53"/>
<polygon fill="midnightblue" stroke="midnightblue" points="5375.39,-229.17 5385.44,-225.8 5375.48,-222.17 5375.39,-229.17"/>
</g>
<!-- Node18 -->
<g id="node17" class="node">
<title>Node18</title>
<g id="a_node17"><a xlink:href="../../d8/d70/vtextmanager_8cpp.html" target="_top" xlink:title=" ">
<polygon fill="white" stroke="black" points="1447,-73 1447,-92 1629,-92 1629,-73 1447,-73"/>
<text text-anchor="middle" x="1538" y="-80" font-family="Helvetica,sans-Serif" font-size="10.00">src/libs/vlayout/vtextmanager.cpp</text>
</a>
</g>
</g>
<!-- Node5&#45;&gt;Node18 -->
<g id="edge19" class="edge">
<title>Node5&#45;&gt;Node18</title>
<path fill="none" stroke="midnightblue" d="M5375.13,-225.4C4940.03,-217.75 2406.19,-170.61 1638,-98 1622.28,-96.51 1605.26,-94.28 1589.78,-92.01"/>
<polygon fill="midnightblue" stroke="midnightblue" points="5375.26,-228.9 5385.32,-225.58 5375.38,-221.9 5375.26,-228.9"/>
</g>
<!-- Node19 -->
<g id="node18" class="node">
<title>Node19</title>
<g id="a_node18"><a xlink:href="../../d5/d74/vabstractapplication_8h.html" target="_top" xlink:title=" ">
<polygon fill="white" stroke="red" points="3399.5,-145.5 3399.5,-164.5 3594.5,-164.5 3594.5,-145.5 3399.5,-145.5"/>
<text text-anchor="middle" x="3497" y="-152.5" font-family="Helvetica,sans-Serif" font-size="10.00">src/libs/vmisc/vabstractapplication.h</text>
</a>
</g>
</g>
<!-- Node5&#45;&gt;Node19 -->
<g id="edge20" class="edge">
<title>Node5&#45;&gt;Node19</title>
<path fill="none" stroke="midnightblue" d="M5375.15,-224.18C5090.8,-213.86 3938.68,-172.03 3594.53,-159.54"/>
<polygon fill="midnightblue" stroke="midnightblue" points="5375.17,-227.68 5385.29,-224.55 5375.42,-220.69 5375.17,-227.68"/>
</g>
<!-- Node37 -->
<g id="node32" class="node">
<title>Node37</title>
<g id="a_node32"><a xlink:href="../../db/d11/vformula_8cpp.html" target="_top" xlink:title=" ">
<polygon fill="white" stroke="black" points="5209.5,-67.5 5209.5,-97.5 5316.5,-97.5 5316.5,-67.5 5209.5,-67.5"/>
<text text-anchor="start" x="5217.5" y="-85.5" font-family="Helvetica,sans-Serif" font-size="10.00">src/libs/vpatterndb</text>
<text text-anchor="middle" x="5263" y="-74.5" font-family="Helvetica,sans-Serif" font-size="10.00">/vformula.cpp</text>
</a>
</g>
</g>
<!-- Node5&#45;&gt;Node37 -->
<g id="edge54" class="edge">
<title>Node5&#45;&gt;Node37</title>
<path fill="none" stroke="midnightblue" d="M5375.68,-209.96C5354.65,-202.19 5332.24,-191.2 5315,-176 5290.27,-154.19 5274.7,-117.66 5267.57,-97.65"/>
<polygon fill="midnightblue" stroke="midnightblue" points="5374.62,-213.3 5385.21,-213.3 5376.94,-206.69 5374.62,-213.3"/>
</g>
<!-- Node38 -->
<g id="node33" class="node">
<title>Node38</title>
<g id="a_node33"><a xlink:href="../../df/d7a/vpiece_8cpp.html" target="_top" xlink:title=" ">
<polygon fill="white" stroke="black" points="5334.5,-67.5 5334.5,-97.5 5441.5,-97.5 5441.5,-67.5 5334.5,-67.5"/>
<text text-anchor="start" x="5342.5" y="-85.5" font-family="Helvetica,sans-Serif" font-size="10.00">src/libs/vpatterndb</text>
<text text-anchor="middle" x="5388" y="-74.5" font-family="Helvetica,sans-Serif" font-size="10.00">/vpiece.cpp</text>
</a>
</g>
</g>
<!-- Node5&#45;&gt;Node38 -->
<g id="edge57" class="edge">
<title>Node5&#45;&gt;Node38</title>
<path fill="none" stroke="midnightblue" d="M5375.79,-212.95C5356.15,-205.44 5336.62,-193.85 5325,-176 5314.82,-160.35 5316.92,-150.83 5325,-134 5332.46,-118.46 5347.3,-106.19 5360.7,-97.64"/>
<polygon fill="midnightblue" stroke="midnightblue" points="5374.81,-216.31 5385.41,-216.31 5377.12,-209.7 5374.81,-216.31"/>
</g>
<!-- Node40 -->
<g id="node35" class="node">
<title>Node40</title>
<g id="a_node35"><a xlink:href="../../d8/dba/vpiecenode_8cpp.html" target="_top" xlink:title=" ">
<polygon fill="white" stroke="black" points="5250.5,-0.5 5250.5,-30.5 5357.5,-30.5 5357.5,-0.5 5250.5,-0.5"/>
<text text-anchor="start" x="5258.5" y="-18.5" font-family="Helvetica,sans-Serif" font-size="10.00">src/libs/vpatterndb</text>
<text text-anchor="middle" x="5304" y="-7.5" font-family="Helvetica,sans-Serif" font-size="10.00">/vpiecenode.cpp</text>
</a>
</g>
</g>
<!-- Node5&#45;&gt;Node40 -->
<g id="edge58" class="edge">
<title>Node5&#45;&gt;Node40</title>
<path fill="none" stroke="midnightblue" d="M5391.24,-207.45C5378.11,-199.74 5365.45,-189.42 5358,-176 5348.94,-159.68 5347.48,-149.42 5358,-134 5382.75,-97.73 5425.25,-134.27 5450,-98 5457.77,-86.62 5457.99,-78.22 5450,-67 5429.15,-37.73 5390.13,-25.26 5357.67,-20.03"/>
<polygon fill="midnightblue" stroke="midnightblue" points="5389.88,-210.69 5400.34,-212.37 5393.21,-204.54 5389.88,-210.69"/>
</g>
<!-- Node57 -->
<g id="node45" class="node">
<title>Node57</title>
<g id="a_node45"><a xlink:href="../../d7/d8a/measurement__variable__p_8h.html" target="_top" xlink:title=" ">
<polygon fill="white" stroke="red" points="5529,-134.5 5529,-175.5 5665,-175.5 5665,-134.5 5529,-134.5"/>
<text text-anchor="start" x="5537" y="-163.5" font-family="Helvetica,sans-Serif" font-size="10.00">src/libs/vpatterndb</text>
<text text-anchor="start" x="5537" y="-152.5" font-family="Helvetica,sans-Serif" font-size="10.00">/variables/measurement</text>
<text text-anchor="middle" x="5597" y="-141.5" font-family="Helvetica,sans-Serif" font-size="10.00">_variable_p.h</text>
</a>
</g>
</g>
<!-- Node5&#45;&gt;Node57 -->
<g id="edge51" class="edge">
<title>Node5&#45;&gt;Node57</title>
<path fill="none" stroke="midnightblue" d="M5479.87,-208.26C5502.35,-198.23 5530.26,-185.78 5553.19,-175.55"/>
<polygon fill="midnightblue" stroke="midnightblue" points="5478.3,-205.13 5470.59,-212.4 5481.15,-211.52 5478.3,-205.13"/>
</g>
<!-- Node59 -->
<g id="node46" class="node">
<title>Node59</title>
<g id="a_node46"><a xlink:href="../../d1/de1/vincrement__p_8h.html" target="_top" xlink:title=" ">
<polygon fill="white" stroke="black" points="5367.5,-140 5367.5,-170 5510.5,-170 5510.5,-140 5367.5,-140"/>
<text text-anchor="start" x="5375.5" y="-158" font-family="Helvetica,sans-Serif" font-size="10.00">src/libs/vpatterndb</text>
<text text-anchor="middle" x="5439" y="-147" font-family="Helvetica,sans-Serif" font-size="10.00">/variables/vincrement_p.h</text>
</a>
</g>
</g>
<!-- Node5&#45;&gt;Node59 -->
<g id="edge52" class="edge">
<title>Node5&#45;&gt;Node59</title>
<path fill="none" stroke="midnightblue" d="M5439,-202.23C5439,-191.57 5439,-179.41 5439,-170.25"/>
<polygon fill="midnightblue" stroke="midnightblue" points="5435.5,-202.23 5439,-212.23 5442.5,-202.23 5435.5,-202.23"/>
</g>
<!-- Node60 -->
<g id="node47" class="node">
<title>Node60</title>
<g id="a_node47"><a xlink:href="../../d6/d91/vnodedetail_8cpp.html" target="_top" xlink:title=" ">
<polygon fill="white" stroke="black" points="5683.5,-140 5683.5,-170 5790.5,-170 5790.5,-140 5683.5,-140"/>
<text text-anchor="start" x="5691.5" y="-158" font-family="Helvetica,sans-Serif" font-size="10.00">src/libs/vpatterndb</text>
<text text-anchor="middle" x="5737" y="-147" font-family="Helvetica,sans-Serif" font-size="10.00">/vnodedetail.cpp</text>
</a>
</g>
</g>
<!-- Node5&#45;&gt;Node60 -->
<g id="edge56" class="edge">
<title>Node5&#45;&gt;Node60</title>
<path fill="none" stroke="midnightblue" d="M5502.39,-214.59C5549.91,-205.25 5616.39,-191.3 5674,-176 5680.77,-174.2 5687.88,-172.13 5694.8,-170.01"/>
<polygon fill="midnightblue" stroke="midnightblue" points="5501.69,-211.16 5492.55,-216.51 5503.03,-218.03 5501.69,-211.16"/>
</g>
<!-- Node61 -->
<g id="node48" class="node">
<title>Node61</title>
<g id="a_node48"><a xlink:href="../../da/de1/vpiecepath_8cpp.html" target="_top" xlink:title=" ">
<polygon fill="white" stroke="black" points="5808.5,-140 5808.5,-170 5915.5,-170 5915.5,-140 5808.5,-140"/>
<text text-anchor="start" x="5816.5" y="-158" font-family="Helvetica,sans-Serif" font-size="10.00">src/libs/vpatterndb</text>
<text text-anchor="middle" x="5862" y="-147" font-family="Helvetica,sans-Serif" font-size="10.00">/vpiecepath.cpp</text>
</a>
</g>
</g>
<!-- Node5&#45;&gt;Node61 -->
<g id="edge59" class="edge">
<title>Node5&#45;&gt;Node61</title>
<path fill="none" stroke="midnightblue" d="M5502.9,-220.81C5575.33,-213.61 5696.64,-199.25 5799,-176 5806.27,-174.35 5813.92,-172.24 5821.27,-170.03"/>
<polygon fill="midnightblue" stroke="midnightblue" points="5502.19,-217.36 5492.57,-221.82 5502.87,-224.33 5502.19,-217.36"/>
</g>
<!-- Node62 -->
<g id="node49" class="node">
<title>Node62</title>
<g id="a_node49"><a xlink:href="../../d1/d3a/abstracttest_8cpp.html" target="_top" xlink:title=" ">
<polygon fill="white" stroke="black" points="5933.5,-145.5 5933.5,-164.5 6094.5,-164.5 6094.5,-145.5 5933.5,-145.5"/>
<text text-anchor="middle" x="6014" y="-152.5" font-family="Helvetica,sans-Serif" font-size="10.00">src/libs/vtest/abstracttest.cpp</text>
</a>
</g>
</g>
<!-- Node5&#45;&gt;Node62 -->
<g id="edge60" class="edge">
<title>Node5&#45;&gt;Node62</title>
<path fill="none" stroke="midnightblue" d="M5502.83,-222.2C5595.87,-215.41 5773.99,-200.39 5924,-176 5942.64,-172.97 5963.22,-168.48 5979.99,-164.53"/>
<polygon fill="midnightblue" stroke="midnightblue" points="5502.46,-218.72 5492.73,-222.93 5502.96,-225.7 5502.46,-218.72"/>
</g>
<!-- Node63 -->
<g id="node50" class="node">
<title>Node63</title>
<g id="a_node50"><a xlink:href="../../da/db4/piece__tablewidgetitem_8cpp.html" target="_top" xlink:title=" ">
<polygon fill="white" stroke="black" points="6113,-140 6113,-170 6241,-170 6241,-140 6113,-140"/>
<text text-anchor="start" x="6121" y="-158" font-family="Helvetica,sans-Serif" font-size="10.00">src/libs/vwidgets/piece</text>
<text text-anchor="middle" x="6177" y="-147" font-family="Helvetica,sans-Serif" font-size="10.00">_tablewidgetitem.cpp</text>
</a>
</g>
</g>
<!-- Node5&#45;&gt;Node63 -->
<g id="edge61" class="edge">
<title>Node5&#45;&gt;Node63</title>
<path fill="none" stroke="midnightblue" d="M5502.8,-225.63C5621.71,-223.12 5884.88,-213.43 6103,-176 6111.92,-174.47 6121.32,-172.34 6130.32,-170.04"/>
<polygon fill="midnightblue" stroke="midnightblue" points="5502.71,-222.13 5492.78,-225.83 5502.85,-229.13 5502.71,-222.13"/>
</g>
<!-- Node6&#45;&gt;Node7 -->
<g id="edge6" class="edge">
<title>Node6&#45;&gt;Node7</title>
<path fill="none" stroke="midnightblue" d="M6347.15,-135.36C6345.76,-121.4 6343.93,-102.93 6342.87,-92.22"/>
<polygon fill="midnightblue" stroke="midnightblue" points="6343.67,-135.75 6348.14,-145.36 6350.64,-135.06 6343.67,-135.75"/>
</g>
<!-- Node9 -->
<g id="node9" class="node">
<title>Node9</title>
<g id="a_node9"><a xlink:href="../../dd/d66/vdxfengine_8cpp.html" target="_top" xlink:title=" ">
<polygon fill="white" stroke="black" points="954,-73 954,-92 1108,-92 1108,-73 954,-73"/>
<text text-anchor="middle" x="1031" y="-80" font-family="Helvetica,sans-Serif" font-size="10.00">src/libs/vdxf/vdxfengine.cpp</text>
</a>
</g>
</g>
<!-- Node8&#45;&gt;Node9 -->
<g id="edge9" class="edge">
<title>Node8&#45;&gt;Node9</title>
<path fill="none" stroke="midnightblue" d="M774.58,-143.16C835.01,-129.1 939.19,-104.86 994.32,-92.03"/>
<polygon fill="midnightblue" stroke="midnightblue" points="773.5,-139.82 764.55,-145.5 775.08,-146.64 773.5,-139.82"/>
</g>
<!-- Node10 -->
<g id="node10" class="node">
<title>Node10</title>
<g id="a_node10"><a xlink:href="../../de/da8/vbank_8cpp.html" target="_top" xlink:title=" ">
<polygon fill="white" stroke="black" points="0,-73 0,-92 144,-92 144,-73 0,-73"/>
<text text-anchor="middle" x="72" y="-80" font-family="Helvetica,sans-Serif" font-size="10.00">src/libs/vlayout/vbank.cpp</text>
</a>
</g>
</g>
<!-- Node8&#45;&gt;Node10 -->
<g id="edge10" class="edge">
<title>Node8&#45;&gt;Node10</title>
<path fill="none" stroke="midnightblue" d="M634.83,-147.23C520.88,-138.42 322.26,-121.35 153,-98 140.97,-96.34 128,-94.18 116.04,-92.04"/>
<polygon fill="midnightblue" stroke="midnightblue" points="634.68,-150.73 644.91,-148.01 635.21,-143.75 634.68,-150.73"/>
</g>
<!-- Node11 -->
<g id="node11" class="node">
<title>Node11</title>
<g id="a_node11"><a xlink:href="../../df/d5d/vcontour_8cpp.html" target="_top" xlink:title=" ">
<polygon fill="white" stroke="black" points="162,-73 162,-92 318,-92 318,-73 162,-73"/>
<text text-anchor="middle" x="240" y="-80" font-family="Helvetica,sans-Serif" font-size="10.00">src/libs/vlayout/vcontour.cpp</text>
</a>
</g>
</g>
<!-- Node8&#45;&gt;Node11 -->
<g id="edge11" class="edge">
<title>Node8&#45;&gt;Node11</title>
<path fill="none" stroke="midnightblue" d="M652.92,-144.12C572.29,-133.36 440.44,-115.37 327,-98 314.89,-96.15 301.85,-94.03 289.65,-92.01"/>
<polygon fill="midnightblue" stroke="midnightblue" points="652.61,-147.61 662.98,-145.46 653.53,-140.67 652.61,-147.61"/>
</g>
<!-- Node12 -->
<g id="node12" class="node">
<title>Node12</title>
<g id="a_node12"><a xlink:href="../../d3/d39/vlayoutgenerator_8cpp.html" target="_top" xlink:title=" ">
<polygon fill="white" stroke="black" points="336.5,-73 336.5,-92 533.5,-92 533.5,-73 336.5,-73"/>
<text text-anchor="middle" x="435" y="-80" font-family="Helvetica,sans-Serif" font-size="10.00">src/libs/vlayout/vlayoutgenerator.cpp</text>
</a>
</g>
</g>
<!-- Node8&#45;&gt;Node12 -->
<g id="edge12" class="edge">
<title>Node8&#45;&gt;Node12</title>
<path fill="none" stroke="midnightblue" d="M682.6,-143.08C624.11,-129 523.67,-104.83 470.47,-92.03"/>
<polygon fill="midnightblue" stroke="midnightblue" points="682.12,-146.56 692.66,-145.5 683.75,-139.75 682.12,-146.56"/>
</g>
<!-- Node13 -->
<g id="node13" class="node">
<title>Node13</title>
<g id="a_node13"><a xlink:href="../../d1/dd1/vlayoutpaper_8cpp.html" target="_top" xlink:title=" ">
<polygon fill="white" stroke="black" points="639,-6 639,-25 817,-25 817,-6 639,-6"/>
<text text-anchor="middle" x="728" y="-13" font-family="Helvetica,sans-Serif" font-size="10.00">src/libs/vlayout/vlayoutpaper.cpp</text>
</a>
</g>
</g>
<!-- Node8&#45;&gt;Node13 -->
<g id="edge13" class="edge">
<title>Node8&#45;&gt;Node13</title>
<path fill="none" stroke="midnightblue" d="M728,-135.36C728,-105.23 728,-46.99 728,-25.1"/>
<polygon fill="midnightblue" stroke="midnightblue" points="724.5,-135.4 728,-145.4 731.5,-135.4 724.5,-135.4"/>
</g>
<!-- Node14 -->
<g id="node14" class="node">
<title>Node14</title>
<g id="a_node14"><a xlink:href="../../d2/d2d/vlayoutpaper__p_8h.html" target="_top" xlink:title=" ">
<polygon fill="white" stroke="black" points="756.5,-73 756.5,-92 935.5,-92 935.5,-73 756.5,-73"/>
<text text-anchor="middle" x="846" y="-80" font-family="Helvetica,sans-Serif" font-size="10.00">src/libs/vlayout/vlayoutpaper_p.h</text>
</a>
</g>
</g>
<!-- Node8&#45;&gt;Node14 -->
<g id="edge14" class="edge">
<title>Node8&#45;&gt;Node14</title>
<path fill="none" stroke="midnightblue" d="M751.23,-140.12C775.04,-125.89 811.35,-104.2 831.41,-92.22"/>
<polygon fill="midnightblue" stroke="midnightblue" points="749.26,-137.22 742.47,-145.36 752.85,-143.23 749.26,-137.22"/>
</g>
<!-- Node15 -->
<g id="node15" class="node">
<title>Node15</title>
<g id="a_node15"><a xlink:href="../../db/d5c/vposition_8h.html" target="_top" xlink:title=" ">
<polygon fill="white" stroke="red" points="552,-73 552,-92 700,-92 700,-73 552,-73"/>
<text text-anchor="middle" x="626" y="-80" font-family="Helvetica,sans-Serif" font-size="10.00">src/libs/vlayout/vposition.h</text>
</a>
</g>
</g>
<!-- Node8&#45;&gt;Node15 -->
<g id="edge16" class="edge">
<title>Node8&#45;&gt;Node15</title>
<path fill="none" stroke="midnightblue" d="M707.1,-139.55C686.5,-125.32 655.72,-104.04 638.61,-92.22"/>
<polygon fill="midnightblue" stroke="midnightblue" points="705.28,-142.55 715.49,-145.36 709.26,-136.79 705.28,-142.55"/>
</g>
<!-- Node17 -->
<g id="node16" class="node">
<title>Node17</title>
<g id="a_node16"><a xlink:href="../../dd/d70/vlayoutpiece_8cpp.html" target="_top" xlink:title=" ">
<polygon fill="white" stroke="black" points="1126.5,-73 1126.5,-92 1303.5,-92 1303.5,-73 1126.5,-73"/>
<text text-anchor="middle" x="1215" y="-80" font-family="Helvetica,sans-Serif" font-size="10.00">src/libs/vlayout/vlayoutpiece.cpp</text>
</a>
</g>
</g>
<!-- Node8&#45;&gt;Node17 -->
<g id="edge18" class="edge">
<title>Node8&#45;&gt;Node17</title>
<path fill="none" stroke="midnightblue" d="M797.82,-144.03C875.69,-132.9 1005.38,-114.29 1117,-98 1130.19,-96.07 1144.37,-93.99 1157.74,-92.01"/>
<polygon fill="midnightblue" stroke="midnightblue" points="797.06,-140.61 787.65,-145.49 798.05,-147.54 797.06,-140.61"/>
</g>
<!-- Node14&#45;&gt;Node13 -->
<g id="edge15" class="edge">
<title>Node14&#45;&gt;Node13</title>
<path fill="none" stroke="midnightblue" d="M821.11,-67.79C797.72,-54.9 763.44,-36.02 743.66,-25.13"/>
<polygon fill="midnightblue" stroke="midnightblue" points="819.64,-70.97 830.09,-72.73 823.02,-64.84 819.64,-70.97"/>
</g>
<!-- Node15&#45;&gt;Node13 -->
<g id="edge17" class="edge">
<title>Node15&#45;&gt;Node13</title>
<path fill="none" stroke="midnightblue" d="M648.33,-67.27C668.52,-54.4 697.59,-35.88 714.46,-25.13"/>
<polygon fill="midnightblue" stroke="midnightblue" points="646.31,-64.41 639.76,-72.73 650.07,-70.31 646.31,-64.41"/>
</g>
<!-- Node19&#45;&gt;Node3 -->
<g id="edge38" class="edge">
<title>Node19&#45;&gt;Node3</title>
<path fill="none" stroke="midnightblue" d="M3389.22,-153.9C3021.92,-153.11 1820.85,-146.77 1438,-98 1434.99,-97.62 1431.92,-97.15 1428.83,-96.63"/>
<polygon fill="midnightblue" stroke="midnightblue" points="3389.31,-157.4 3399.31,-153.92 3389.32,-150.4 3389.31,-157.4"/>
</g>
<!-- Node19&#45;&gt;Node17 -->
<g id="edge31" class="edge">
<title>Node19&#45;&gt;Node17</title>
<path fill="none" stroke="midnightblue" d="M3388.99,-152.99C3007.2,-149.14 1722.2,-133.78 1312,-98 1296.39,-96.64 1279.48,-94.38 1264.21,-92.05"/>
<polygon fill="midnightblue" stroke="midnightblue" points="3389.17,-156.49 3399.21,-153.09 3389.24,-149.49 3389.17,-156.49"/>
</g>
<!-- Node19&#45;&gt;Node18 -->
<g id="edge32" class="edge">
<title>Node19&#45;&gt;Node18</title>
<path fill="none" stroke="midnightblue" d="M3389.33,-150.18C3270.88,-146.02 3074.88,-139.25 2906,-134 2342.49,-116.47 2199.69,-146.53 1638,-98 1621.92,-96.61 1604.48,-94.35 1588.74,-92.02"/>
<polygon fill="midnightblue" stroke="midnightblue" points="3389.37,-153.68 3399.49,-150.54 3389.62,-146.69 3389.37,-153.68"/>
</g>
<!-- Node20 -->
<g id="node19" class="node">
<title>Node20</title>
<g id="a_node19"><a xlink:href="../../d4/d90/fvupdater_8cpp.html" target="_top" xlink:title=" ">
<polygon fill="white" stroke="black" points="3420.5,-73 3420.5,-92 3573.5,-92 3573.5,-73 3420.5,-73"/>
<text text-anchor="middle" x="3497" y="-80" font-family="Helvetica,sans-Serif" font-size="10.00">src/libs/fervor/fvupdater.cpp</text>
</a>
</g>
</g>
<!-- Node19&#45;&gt;Node20 -->
<g id="edge21" class="edge">
<title>Node19&#45;&gt;Node20</title>
<path fill="none" stroke="midnightblue" d="M3497,-134.94C3497,-121.03 3497,-102.82 3497,-92.22"/>
<polygon fill="midnightblue" stroke="midnightblue" points="3493.5,-135.36 3497,-145.36 3500.5,-135.36 3493.5,-135.36"/>
</g>
<!-- Node21 -->
<g id="node20" class="node">
<title>Node21</title>
<g id="a_node20"><a xlink:href="../../d9/dc8/dxiface_8cpp.html" target="_top" xlink:title=" ">
<polygon fill="white" stroke="black" points="3591.5,-73 3591.5,-92 3726.5,-92 3726.5,-73 3591.5,-73"/>
<text text-anchor="middle" x="3659" y="-80" font-family="Helvetica,sans-Serif" font-size="10.00">src/libs/vdxf/dxiface.cpp</text>
</a>
</g>
</g>
<!-- Node19&#45;&gt;Node21 -->
<g id="edge22" class="edge">
<title>Node19&#45;&gt;Node21</title>
<path fill="none" stroke="midnightblue" d="M3526.02,-141.37C3558.77,-127.12 3611.13,-104.33 3639.39,-92.03"/>
<polygon fill="midnightblue" stroke="midnightblue" points="3524.31,-138.3 3516.54,-145.5 3527.11,-144.71 3524.31,-138.3"/>
</g>
<!-- Node22 -->
<g id="node21" class="node">
<title>Node22</title>
<g id="a_node21"><a xlink:href="../../da/d75/vabstractarc__p_8h.html" target="_top" xlink:title=" ">
<polygon fill="white" stroke="red" points="3744.5,-67.5 3744.5,-97.5 3851.5,-97.5 3851.5,-67.5 3744.5,-67.5"/>
<text text-anchor="start" x="3752.5" y="-85.5" font-family="Helvetica,sans-Serif" font-size="10.00">src/libs/vgeometry</text>
<text text-anchor="middle" x="3798" y="-74.5" font-family="Helvetica,sans-Serif" font-size="10.00">/vabstractarc_p.h</text>
</a>
</g>
</g>
<!-- Node19&#45;&gt;Node22 -->
<g id="edge23" class="edge">
<title>Node19&#45;&gt;Node22</title>
<path fill="none" stroke="midnightblue" d="M3543.33,-143.15C3597.53,-130.45 3687.11,-109.47 3744.3,-96.08"/>
<polygon fill="midnightblue" stroke="midnightblue" points="3542.25,-139.81 3533.31,-145.5 3543.84,-146.62 3542.25,-139.81"/>
</g>
<!-- Node24 -->
<g id="node22" class="node">
<title>Node24</title>
<g id="a_node22"><a xlink:href="../../dc/da3/varc__p_8h.html" target="_top" xlink:title=" ">
<polygon fill="white" stroke="red" points="3869.5,-67.5 3869.5,-97.5 3976.5,-97.5 3976.5,-67.5 3869.5,-67.5"/>
<text text-anchor="start" x="3877.5" y="-85.5" font-family="Helvetica,sans-Serif" font-size="10.00">src/libs/vgeometry</text>
<text text-anchor="middle" x="3923" y="-74.5" font-family="Helvetica,sans-Serif" font-size="10.00">/varc_p.h</text>
</a>
</g>
</g>
<!-- Node19&#45;&gt;Node24 -->
<g id="edge24" class="edge">
<title>Node19&#45;&gt;Node24</title>
<path fill="none" stroke="midnightblue" d="M3571.94,-144.07C3645.53,-133.94 3760.86,-117.03 3860,-98 3863.09,-97.41 3866.25,-96.77 3869.44,-96.11"/>
<polygon fill="midnightblue" stroke="midnightblue" points="3571.27,-140.63 3561.83,-145.46 3572.22,-147.57 3571.27,-140.63"/>
</g>
<!-- Node26 -->
<g id="node23" class="node">
<title>Node26</title>
<g id="a_node23"><a xlink:href="../../d5/d8e/vcubicbezier__p_8h.html" target="_top" xlink:title=" ">
<polygon fill="white" stroke="red" points="3994.5,-67.5 3994.5,-97.5 4101.5,-97.5 4101.5,-67.5 3994.5,-67.5"/>
<text text-anchor="start" x="4002.5" y="-85.5" font-family="Helvetica,sans-Serif" font-size="10.00">src/libs/vgeometry</text>
<text text-anchor="middle" x="4048" y="-74.5" font-family="Helvetica,sans-Serif" font-size="10.00">/vcubicbezier_p.h</text>
</a>
</g>
</g>
<!-- Node19&#45;&gt;Node26 -->
<g id="edge25" class="edge">
<title>Node19&#45;&gt;Node26</title>
<path fill="none" stroke="midnightblue" d="M3604.71,-145.13C3703.92,-136.14 3854.99,-120.35 3985,-98 3988.1,-97.47 3991.27,-96.88 3994.47,-96.25"/>
<polygon fill="midnightblue" stroke="midnightblue" points="3604.32,-141.65 3594.68,-146.03 3604.95,-148.62 3604.32,-141.65"/>
</g>
<!-- Node28 -->
<g id="node24" class="node">
<title>Node28</title>
<g id="a_node24"><a xlink:href="../../df/dde/vellipticalarc__p_8h.html" target="_top" xlink:title=" ">
<polygon fill="white" stroke="black" points="4119.5,-67.5 4119.5,-97.5 4226.5,-97.5 4226.5,-67.5 4119.5,-67.5"/>
<text text-anchor="start" x="4127.5" y="-85.5" font-family="Helvetica,sans-Serif" font-size="10.00">src/libs/vgeometry</text>
<text text-anchor="middle" x="4173" y="-74.5" font-family="Helvetica,sans-Serif" font-size="10.00">/vellipticalarc_p.h</text>
</a>
</g>
</g>
<!-- Node19&#45;&gt;Node28 -->
<g id="edge26" class="edge">
<title>Node19&#45;&gt;Node28</title>
<path fill="none" stroke="midnightblue" d="M3604.81,-148.57C3727.68,-141.36 3934.23,-126.12 4110,-98 4113.1,-97.5 4116.28,-96.94 4119.48,-96.34"/>
<polygon fill="midnightblue" stroke="midnightblue" points="3604.43,-145.09 3594.65,-149.16 3604.84,-152.07 3604.43,-145.09"/>
</g>
<!-- Node29 -->
<g id="node25" class="node">
<title>Node29</title>
<g id="a_node25"><a xlink:href="../../d6/dfb/vellipticalarc_8cpp.html" target="_top" xlink:title=" ">
<polygon fill="white" stroke="black" points="2924.5,-0.5 2924.5,-30.5 3031.5,-30.5 3031.5,-0.5 2924.5,-0.5"/>
<text text-anchor="start" x="2932.5" y="-18.5" font-family="Helvetica,sans-Serif" font-size="10.00">src/libs/vgeometry</text>
<text text-anchor="middle" x="2978" y="-7.5" font-family="Helvetica,sans-Serif" font-size="10.00">/vellipticalarc.cpp</text>
</a>
</g>
</g>
<!-- Node19&#45;&gt;Node29 -->
<g id="edge28" class="edge">
<title>Node19&#45;&gt;Node29</title>
<path fill="none" stroke="midnightblue" d="M3389.33,-150.32C3270.87,-146.27 3074.87,-139.61 2906,-134 2844.67,-131.96 1844.68,-142.09 1802,-98 1792.42,-88.1 1792.47,-76.95 1802,-67 1841.3,-25.98 2699.68,-18.12 2924.5,-16.76"/>
<polygon fill="midnightblue" stroke="midnightblue" points="3389.37,-153.82 3399.48,-150.66 3389.61,-146.82 3389.37,-153.82"/>
</g>
<!-- Node30 -->
<g id="node26" class="node">
<title>Node30</title>
<g id="a_node26"><a xlink:href="../../d1/d76/vspline__p_8h.html" target="_top" xlink:title=" ">
<polygon fill="white" stroke="red" points="4244.5,-67.5 4244.5,-97.5 4351.5,-97.5 4351.5,-67.5 4244.5,-67.5"/>
<text text-anchor="start" x="4252.5" y="-85.5" font-family="Helvetica,sans-Serif" font-size="10.00">src/libs/vgeometry</text>
<text text-anchor="middle" x="4298" y="-74.5" font-family="Helvetica,sans-Serif" font-size="10.00">/vspline_p.h</text>
</a>
</g>
</g>
<!-- Node19&#45;&gt;Node30 -->
<g id="edge29" class="edge">
<title>Node19&#45;&gt;Node30</title>
<path fill="none" stroke="midnightblue" d="M3604.71,-150.9C3748.94,-145.6 4012.48,-131.85 4235,-98 4238.11,-97.53 4241.29,-96.98 4244.49,-96.39"/>
<polygon fill="midnightblue" stroke="midnightblue" points="3604.4,-147.41 3594.53,-151.27 3604.65,-154.41 3604.4,-147.41"/>
</g>
<!-- Node32 -->
<g id="node27" class="node">
<title>Node32</title>
<g id="a_node27"><a xlink:href="../../d9/d15/vabstractpiece_8cpp.html" target="_top" xlink:title=" ">
<polygon fill="white" stroke="black" points="4370,-73 4370,-92 4556,-92 4556,-73 4370,-73"/>
<text text-anchor="middle" x="4463" y="-80" font-family="Helvetica,sans-Serif" font-size="10.00">src/libs/vlayout/vabstractpiece.cpp</text>
</a>
</g>
</g>
<!-- Node19&#45;&gt;Node32 -->
<g id="edge30" class="edge">
<title>Node19&#45;&gt;Node32</title>
<path fill="none" stroke="midnightblue" d="M3604.65,-149.61C3768.17,-142.36 4088.81,-125.85 4360,-98 4375.63,-96.4 4392.53,-94.21 4408.04,-92.02"/>
<polygon fill="midnightblue" stroke="midnightblue" points="3604.43,-146.12 3594.59,-150.06 3604.73,-153.11 3604.43,-146.12"/>
</g>
<!-- Node33 -->
<g id="node28" class="node">
<title>Node33</title>
<g id="a_node28"><a xlink:href="../../db/d65/dialogexporttocsv_8cpp.html" target="_top" xlink:title=" ">
<polygon fill="white" stroke="black" points="4574.5,-67.5 4574.5,-97.5 4701.5,-97.5 4701.5,-67.5 4574.5,-67.5"/>
<text text-anchor="start" x="4582.5" y="-85.5" font-family="Helvetica,sans-Serif" font-size="10.00">src/libs/vmisc/dialogs</text>
<text text-anchor="middle" x="4638" y="-74.5" font-family="Helvetica,sans-Serif" font-size="10.00">/dialogexporttocsv.cpp</text>
</a>
</g>
</g>
<!-- Node19&#45;&gt;Node33 -->
<g id="edge33" class="edge">
<title>Node19&#45;&gt;Node33</title>
<path fill="none" stroke="midnightblue" d="M3604.75,-153.46C3797.93,-151.35 4215.67,-141.62 4565,-98 4568.08,-97.62 4571.22,-97.18 4574.39,-96.69"/>
<polygon fill="midnightblue" stroke="midnightblue" points="3604.56,-149.96 3594.6,-153.56 3604.64,-156.96 3604.56,-149.96"/>
</g>
<!-- Node34 -->
<g id="node29" class="node">
<title>Node34</title>
<g id="a_node29"><a xlink:href="../../d6/d0b/def_8cpp.html" target="_top" xlink:title=" ">
<polygon fill="white" stroke="black" points="4720,-73 4720,-92 4842,-92 4842,-73 4720,-73"/>
<text text-anchor="middle" x="4781" y="-80" font-family="Helvetica,sans-Serif" font-size="10.00">src/libs/vmisc/def.cpp</text>
</a>
</g>
</g>
<!-- Node19&#45;&gt;Node34 -->
<g id="edge34" class="edge">
<title>Node19&#45;&gt;Node34</title>
<path fill="none" stroke="midnightblue" d="M3604.74,-154.62C3817.07,-154.62 4304.26,-148.49 4710,-98 4721.36,-96.59 4733.62,-94.35 4744.69,-92.04"/>
<polygon fill="midnightblue" stroke="midnightblue" points="3604.53,-151.12 3594.53,-154.62 3604.52,-158.12 3604.53,-151.12"/>
</g>
<!-- Node35 -->
<g id="node30" class="node">
<title>Node35</title>
<g id="a_node30"><a xlink:href="../../d0/df6/vabstractapplication_8cpp.html" target="_top" xlink:title=" ">
<polygon fill="white" stroke="black" points="4860,-73 4860,-92 5066,-92 5066,-73 4860,-73"/>
<text text-anchor="middle" x="4963" y="-80" font-family="Helvetica,sans-Serif" font-size="10.00">src/libs/vmisc/vabstractapplication.cpp</text>
</a>
</g>
</g>
<!-- Node19&#45;&gt;Node35 -->
<g id="edge35" class="edge">
<title>Node19&#45;&gt;Node35</title>
<path fill="none" stroke="midnightblue" d="M3604.91,-152.74C3834.55,-149.35 4388.45,-137.43 4851,-98 4868.48,-96.51 4887.43,-94.29 4904.68,-92.03"/>
<polygon fill="midnightblue" stroke="midnightblue" points="3604.83,-149.24 3594.89,-152.88 3604.94,-156.24 3604.83,-149.24"/>
</g>
<!-- Node36 -->
<g id="node31" class="node">
<title>Node36</title>
<g id="a_node31"><a xlink:href="../../d4/d4f/pmsystems_8cpp.html" target="_top" xlink:title=" ">
<polygon fill="white" stroke="black" points="1647.5,-67.5 1647.5,-97.5 1754.5,-97.5 1754.5,-67.5 1647.5,-67.5"/>
<text text-anchor="start" x="1655.5" y="-85.5" font-family="Helvetica,sans-Serif" font-size="10.00">src/libs/vpatterndb</text>
<text text-anchor="middle" x="1701" y="-74.5" font-family="Helvetica,sans-Serif" font-size="10.00">/pmsystems.cpp</text>
</a>
</g>
</g>
<!-- Node19&#45;&gt;Node36 -->
<g id="edge36" class="edge">
<title>Node19&#45;&gt;Node36</title>
<path fill="none" stroke="midnightblue" d="M3389.33,-150.29C3270.87,-146.22 3074.87,-139.53 2906,-134 2400.68,-117.45 2270.9,-158.96 1769,-98 1764.33,-97.43 1759.5,-96.7 1754.67,-95.87"/>
<polygon fill="midnightblue" stroke="midnightblue" points="3389.37,-153.79 3399.48,-150.63 3389.61,-146.79 3389.37,-153.79"/>
</g>
<!-- Node19&#45;&gt;Node37 -->
<g id="edge37" class="edge">
<title>Node19&#45;&gt;Node37</title>
<path fill="none" stroke="midnightblue" d="M3605.01,-153.18C3929.05,-150.28 4889.68,-138.43 5200,-98 5203,-97.61 5206.08,-97.14 5209.17,-96.61"/>
<polygon fill="midnightblue" stroke="midnightblue" points="3604.65,-149.68 3594.68,-153.27 3604.71,-156.68 3604.65,-149.68"/>
</g>
<!-- Node19&#45;&gt;Node38 -->
<g id="edge39" class="edge">
<title>Node19&#45;&gt;Node38</title>
<path fill="none" stroke="midnightblue" d="M3604.67,-153.46C3944.11,-151.34 4989.19,-141.36 5325,-98 5328.01,-97.61 5331.08,-97.14 5334.17,-96.62"/>
<polygon fill="midnightblue" stroke="midnightblue" points="3604.57,-149.97 3594.59,-153.53 3604.61,-156.97 3604.57,-149.97"/>
</g>
<!-- Node39 -->
<g id="node34" class="node">
<title>Node39</title>
<g id="a_node34"><a xlink:href="../../df/dba/vpiecenode__p_8h.html" target="_top" xlink:title=" ">
<polygon fill="white" stroke="black" points="5084.5,-67.5 5084.5,-97.5 5191.5,-97.5 5191.5,-67.5 5084.5,-67.5"/>
<text text-anchor="start" x="5092.5" y="-85.5" font-family="Helvetica,sans-Serif" font-size="10.00">src/libs/vpatterndb</text>
<text text-anchor="middle" x="5138" y="-74.5" font-family="Helvetica,sans-Serif" font-size="10.00">/vpiecenode_p.h</text>
</a>
</g>
</g>
<!-- Node19&#45;&gt;Node39 -->
<g id="edge40" class="edge">
<title>Node19&#45;&gt;Node39</title>
<path fill="none" stroke="midnightblue" d="M3604.75,-152.85C3912.22,-149.15 4789.89,-135.52 5075,-98 5078,-97.6 5081.08,-97.13 5084.17,-96.6"/>
<polygon fill="midnightblue" stroke="midnightblue" points="3604.46,-149.36 3594.5,-152.98 3604.54,-156.36 3604.46,-149.36"/>
</g>
<!-- Node41 -->
<g id="node36" class="node">
<title>Node41</title>
<g id="a_node36"><a xlink:href="../../de/d3e/vtranslatevars_8cpp.html" target="_top" xlink:title=" ">
<polygon fill="white" stroke="black" points="1811,-67.5 1811,-97.5 1921,-97.5 1921,-67.5 1811,-67.5"/>
<text text-anchor="start" x="1819" y="-85.5" font-family="Helvetica,sans-Serif" font-size="10.00">src/libs/vpatterndb</text>
<text text-anchor="middle" x="1866" y="-74.5" font-family="Helvetica,sans-Serif" font-size="10.00">/vtranslatevars.cpp</text>
</a>
</g>
</g>
<!-- Node19&#45;&gt;Node41 -->
<g id="edge42" class="edge">
<title>Node19&#45;&gt;Node41</title>
<path fill="none" stroke="midnightblue" d="M3389.2,-150.28C3037.98,-138.15 1948.11,-100.35 1930,-98 1927.06,-97.62 1924.06,-97.16 1921.04,-96.66"/>
<polygon fill="midnightblue" stroke="midnightblue" points="3389.26,-153.78 3399.37,-150.63 3389.5,-146.79 3389.26,-153.78"/>
</g>
<!-- Node42 -->
<g id="node37" class="node">
<title>Node42</title>
<g id="a_node37"><a xlink:href="../../df/d40/export__format__combobox_8cpp.html" target="_top" xlink:title=" ">
<polygon fill="white" stroke="black" points="1939.5,-67.5 1939.5,-97.5 2072.5,-97.5 2072.5,-67.5 1939.5,-67.5"/>
<text text-anchor="start" x="1947.5" y="-85.5" font-family="Helvetica,sans-Serif" font-size="10.00">src/libs/vwidgets/export</text>
<text text-anchor="middle" x="2006" y="-74.5" font-family="Helvetica,sans-Serif" font-size="10.00">_format_combobox.cpp</text>
</a>
</g>
</g>
<!-- Node19&#45;&gt;Node42 -->
<g id="edge43" class="edge">
<title>Node19&#45;&gt;Node42</title>
<path fill="none" stroke="midnightblue" d="M3389.16,-150.18C3069.56,-138.81 2145.6,-105.48 2081,-98 2078.23,-97.68 2075.42,-97.31 2072.57,-96.91"/>
<polygon fill="midnightblue" stroke="midnightblue" points="3389.24,-153.69 3399.36,-150.55 3389.49,-146.69 3389.24,-153.69"/>
</g>
<!-- Node43 -->
<g id="node38" class="node">
<title>Node43</title>
<g id="a_node38"><a xlink:href="../../d2/d28/page__format__combobox_8cpp.html" target="_top" xlink:title=" ">
<polygon fill="white" stroke="black" points="2090.5,-67.5 2090.5,-97.5 2221.5,-97.5 2221.5,-67.5 2090.5,-67.5"/>
<text text-anchor="start" x="2098.5" y="-85.5" font-family="Helvetica,sans-Serif" font-size="10.00">src/libs/vwidgets/page</text>
<text text-anchor="middle" x="2156" y="-74.5" font-family="Helvetica,sans-Serif" font-size="10.00">_format_combobox.cpp</text>
</a>
</g>
</g>
<!-- Node19&#45;&gt;Node43 -->
<g id="edge44" class="edge">
<title>Node19&#45;&gt;Node43</title>
<path fill="none" stroke="midnightblue" d="M3388.74,-150.14C3103.1,-139.84 2343.24,-111.52 2230,-98 2227.27,-97.67 2224.49,-97.3 2221.69,-96.9"/>
<polygon fill="midnightblue" stroke="midnightblue" points="3388.99,-153.65 3399.11,-150.52 3389.24,-146.66 3388.99,-153.65"/>
</g>
<!-- Node44 -->
<g id="node39" class="node">
<title>Node44</title>
<g id="a_node39"><a xlink:href="../../d7/d1b/pen__toolbar_8cpp.html" target="_top" xlink:title=" ">
<polygon fill="white" stroke="black" points="2239.5,-67.5 2239.5,-97.5 2358.5,-97.5 2358.5,-67.5 2239.5,-67.5"/>
<text text-anchor="start" x="2247.5" y="-85.5" font-family="Helvetica,sans-Serif" font-size="10.00">src/libs/vwidgets/pen</text>
<text text-anchor="middle" x="2299" y="-74.5" font-family="Helvetica,sans-Serif" font-size="10.00">_toolbar.cpp</text>
</a>
</g>
</g>
<!-- Node19&#45;&gt;Node44 -->
<g id="edge45" class="edge">
<title>Node19&#45;&gt;Node44</title>
<path fill="none" stroke="midnightblue" d="M3389.21,-150.82C3146.54,-143.32 2563.36,-123.21 2368,-98 2364.96,-97.61 2361.86,-97.15 2358.74,-96.66"/>
<polygon fill="midnightblue" stroke="midnightblue" points="3389.35,-154.33 3399.45,-151.14 3389.56,-147.33 3389.35,-154.33"/>
</g>
<!-- Node45 -->
<g id="node40" class="node">
<title>Node45</title>
<g id="a_node40"><a xlink:href="../../d3/d4f/mouse__coordinates_8cpp.html" target="_top" xlink:title=" ">
<polygon fill="white" stroke="black" points="2377,-67.5 2377,-97.5 2511,-97.5 2511,-67.5 2377,-67.5"/>
<text text-anchor="start" x="2385" y="-85.5" font-family="Helvetica,sans-Serif" font-size="10.00">src/libs/vwidgets/mouse</text>
<text text-anchor="middle" x="2444" y="-74.5" font-family="Helvetica,sans-Serif" font-size="10.00">_coordinates.cpp</text>
</a>
</g>
</g>
<!-- Node19&#45;&gt;Node45 -->
<g id="edge46" class="edge">
<title>Node19&#45;&gt;Node45</title>
<path fill="none" stroke="midnightblue" d="M3389.18,-152.44C3208.68,-148.79 2834.22,-136.81 2520,-98 2517.07,-97.64 2514.08,-97.23 2511.06,-96.79"/>
<polygon fill="midnightblue" stroke="midnightblue" points="3389.14,-155.94 3399.2,-152.64 3389.27,-148.94 3389.14,-155.94"/>
</g>
<!-- Node46 -->
<g id="node41" class="node">
<title>Node46</title>
<g id="a_node41"><a xlink:href="../../d8/d76/scene__rect_8cpp.html" target="_top" xlink:title=" ">
<polygon fill="white" stroke="black" points="2529,-67.5 2529,-97.5 2659,-97.5 2659,-67.5 2529,-67.5"/>
<text text-anchor="start" x="2537" y="-85.5" font-family="Helvetica,sans-Serif" font-size="10.00">src/libs/vwidgets/scene</text>
<text text-anchor="middle" x="2594" y="-74.5" font-family="Helvetica,sans-Serif" font-size="10.00">_rect.cpp</text>
</a>
</g>
</g>
<!-- Node19&#45;&gt;Node46 -->
<g id="edge47" class="edge">
<title>Node19&#45;&gt;Node46</title>
<path fill="none" stroke="midnightblue" d="M3389.06,-151.05C3230.45,-145.73 2925.34,-131.77 2668,-98 2665.14,-97.63 2662.23,-97.21 2659.3,-96.76"/>
<polygon fill="midnightblue" stroke="midnightblue" points="3389.18,-154.55 3399.29,-151.39 3389.42,-147.56 3389.18,-154.55"/>
</g>
<!-- Node47 -->
<g id="node42" class="node">
<title>Node47</title>
<g id="a_node42"><a xlink:href="../../dd/df6/vabstractmainwindow_8cpp.html" target="_top" xlink:title=" ">
<polygon fill="white" stroke="black" points="2677.5,-73 2677.5,-92 2906.5,-92 2906.5,-73 2677.5,-73"/>
<text text-anchor="middle" x="2792" y="-80" font-family="Helvetica,sans-Serif" font-size="10.00">src/libs/vwidgets/vabstractmainwindow.cpp</text>
</a>
</g>
</g>
<!-- Node19&#45;&gt;Node47 -->
<g id="edge48" class="edge">
<title>Node19&#45;&gt;Node47</title>
<path fill="none" stroke="midnightblue" d="M3391.93,-144.57C3275.32,-133.95 3081.6,-115.83 2915,-98 2897.79,-96.16 2879.24,-94.04 2861.9,-92"/>
<polygon fill="midnightblue" stroke="midnightblue" points="3391.65,-148.06 3401.92,-145.48 3392.28,-141.09 3391.65,-148.06"/>
</g>
<!-- Node48 -->
<g id="node43" class="node">
<title>Node48</title>
<g id="a_node43"><a xlink:href="../../de/d45/vcontrolpointspline_8cpp.html" target="_top" xlink:title=" ">
<polygon fill="white" stroke="black" points="2924.5,-73 2924.5,-92 3139.5,-92 3139.5,-73 2924.5,-73"/>
<text text-anchor="middle" x="3032" y="-80" font-family="Helvetica,sans-Serif" font-size="10.00">src/libs/vwidgets/vcontrolpointspline.cpp</text>
</a>
</g>
</g>
<!-- Node19&#45;&gt;Node48 -->
<g id="edge49" class="edge">
<title>Node19&#45;&gt;Node48</title>
<path fill="none" stroke="midnightblue" d="M3430.9,-143.98C3339.09,-130.06 3174.56,-105.11 3088.29,-92.03"/>
<polygon fill="midnightblue" stroke="midnightblue" points="3430.5,-147.46 3440.91,-145.5 3431.55,-140.54 3430.5,-147.46"/>
</g>
<!-- Node49 -->
<g id="node44" class="node">
<title>Node49</title>
<g id="a_node44"><a xlink:href="../../de/dec/vgraphicssimpletextitem_8cpp.html" target="_top" xlink:title=" ">
<polygon fill="white" stroke="black" points="3158,-73 3158,-92 3402,-92 3402,-73 3158,-73"/>
<text text-anchor="middle" x="3280" y="-80" font-family="Helvetica,sans-Serif" font-size="10.00">src/libs/vwidgets/vgraphicssimpletextitem.cpp</text>
</a>
</g>
</g>
<!-- Node19&#45;&gt;Node49 -->
<g id="edge50" class="edge">
<title>Node19&#45;&gt;Node49</title>
<path fill="none" stroke="midnightblue" d="M3461.2,-142.37C3417.6,-128.21 3345.02,-104.62 3306.27,-92.03"/>
<polygon fill="midnightblue" stroke="midnightblue" points="3460.23,-145.73 3470.82,-145.5 3462.4,-139.08 3460.23,-145.73"/>
</g>
<!-- Node28&#45;&gt;Node29 -->
<g id="edge27" class="edge">
<title>Node28&#45;&gt;Node29</title>
<path fill="none" stroke="midnightblue" d="M4109.14,-67.11C3878.1,-37.6 3223.96,-21.74 3031.71,-17.6"/>
<polygon fill="midnightblue" stroke="midnightblue" points="4108.79,-70.59 4119.16,-68.43 4109.71,-63.65 4108.79,-70.59"/>
</g>
<!-- Node39&#45;&gt;Node40 -->
<g id="edge41" class="edge">
<title>Node39&#45;&gt;Node40</title>
<path fill="none" stroke="midnightblue" d="M5183.51,-63.68C5210.13,-53.26 5243.27,-40.28 5268.05,-30.58"/>
<polygon fill="midnightblue" stroke="midnightblue" points="5182.05,-60.49 5174.02,-67.4 5184.61,-67.01 5182.05,-60.49"/>
</g>
<!-- Node59&#45;&gt;Node2 -->
<g id="edge53" class="edge">
<title>Node59&#45;&gt;Node2</title>
<path fill="none" stroke="midnightblue" d="M5499.32,-137.68C5506.25,-136.23 5513.25,-134.95 5520,-134 5927.81,-76.34 6036.53,-142.39 6446,-98 6448.98,-97.68 6452.02,-97.31 6455.09,-96.91"/>
<polygon fill="midnightblue" stroke="midnightblue" points="5498.25,-134.34 5489.24,-139.92 5499.76,-141.17 5498.25,-134.34"/>
</g>
</g>
</svg>
