<?xml version="1.0" encoding="UTF-8" standalone="no"?>
<!DOCTYPE svg PUBLIC "-//W3C//DTD SVG 1.1//EN"
 "http://www.w3.org/Graphics/SVG/1.1/DTD/svg11.dtd">
<!-- Generated by graphviz version 2.43.0 (0)
 -->
<!-- Title: src/libs/vpatterndb/variables/vincrement.h Pages: 1 -->
<svg width="5838pt" height="385pt"
 viewBox="0.00 0.00 5838.00 385.00" xmlns="http://www.w3.org/2000/svg" xmlns:xlink="http://www.w3.org/1999/xlink">
<g id="graph0" class="graph" transform="scale(1 1) rotate(0) translate(4 381)">
<title>src/libs/vpatterndb/variables/vincrement.h</title>
<polygon fill="white" stroke="transparent" points="-4,4 -4,-381 5834,-381 5834,4 -4,4"/>
<!-- Node1 -->
<g id="node1" class="node">
<title>Node1</title>
<g id="a_node1"><a xlink:title=" ">
<polygon fill="#bfbfbf" stroke="black" points="4866.5,-346.5 4866.5,-376.5 4998.5,-376.5 4998.5,-346.5 4866.5,-346.5"/>
<text text-anchor="start" x="4874.5" y="-364.5" font-family="Helvetica,sans-Serif" font-size="10.00">src/libs/vpatterndb</text>
<text text-anchor="middle" x="4932.5" y="-353.5" font-family="Helvetica,sans-Serif" font-size="10.00">/variables/vincrement.h</text>
</a>
</g>
</g>
<!-- Node2 -->
<g id="node2" class="node">
<title>Node2</title>
<g id="a_node2"><a xlink:href="../../d6/de6/vincrement_8cpp.html" target="_top" xlink:title=" ">
<polygon fill="white" stroke="black" points="0,-67.5 0,-97.5 143,-97.5 143,-67.5 0,-67.5"/>
<text text-anchor="start" x="8" y="-85.5" font-family="Helvetica,sans-Serif" font-size="10.00">src/libs/vpatterndb</text>
<text text-anchor="middle" x="71.5" y="-74.5" font-family="Helvetica,sans-Serif" font-size="10.00">/variables/vincrement.cpp</text>
</a>
</g>
</g>
<!-- Node1&#45;&gt;Node2 -->
<g id="edge1" class="edge">
<title>Node1&#45;&gt;Node2</title>
<path fill="none" stroke="midnightblue" d="M4856.39,-360.31C4333.75,-358.56 1269.11,-341.3 353.5,-176 260.46,-159.2 155.91,-118.96 104.15,-97.51"/>
<polygon fill="midnightblue" stroke="midnightblue" points="4856.45,-363.81 4866.46,-360.34 4856.47,-356.81 4856.45,-363.81"/>
</g>
<!-- Node3 -->
<g id="node3" class="node">
<title>Node3</title>
<g id="a_node3"><a xlink:href="../../de/dca/variables_8h.html" target="_top" xlink:title=" ">
<polygon fill="white" stroke="black" points="4879,-279.5 4879,-309.5 4986,-309.5 4986,-279.5 4879,-279.5"/>
<text text-anchor="start" x="4887" y="-297.5" font-family="Helvetica,sans-Serif" font-size="10.00">src/libs/vpatterndb</text>
<text text-anchor="middle" x="4932.5" y="-286.5" font-family="Helvetica,sans-Serif" font-size="10.00">/variables.h</text>
</a>
</g>
</g>
<!-- Node1&#45;&gt;Node3 -->
<g id="edge2" class="edge">
<title>Node1&#45;&gt;Node3</title>
<path fill="none" stroke="midnightblue" d="M4932.5,-336.11C4932.5,-327.15 4932.5,-317.32 4932.5,-309.58"/>
<polygon fill="midnightblue" stroke="midnightblue" points="4929,-336.4 4932.5,-346.4 4936,-336.4 4929,-336.4"/>
</g>
<!-- Node40 -->
<g id="node35" class="node">
<title>Node40</title>
<g id="a_node35"><a xlink:href="../../d6/d46/vcontainer_8cpp.html" target="_top" xlink:title=" ">
<polygon fill="white" stroke="black" points="5723,-67.5 5723,-97.5 5830,-97.5 5830,-67.5 5723,-67.5"/>
<text text-anchor="start" x="5731" y="-85.5" font-family="Helvetica,sans-Serif" font-size="10.00">src/libs/vpatterndb</text>
<text text-anchor="middle" x="5776.5" y="-74.5" font-family="Helvetica,sans-Serif" font-size="10.00">/vcontainer.cpp</text>
</a>
</g>
</g>
<!-- Node1&#45;&gt;Node40 -->
<g id="edge61" class="edge">
<title>Node1&#45;&gt;Node40</title>
<path fill="none" stroke="midnightblue" d="M5008.75,-353.88C5192.57,-336.35 5652.75,-282.59 5757.5,-176 5778.18,-154.95 5779.17,-117.77 5777.94,-97.55"/>
<polygon fill="midnightblue" stroke="midnightblue" points="5008.25,-350.41 4998.62,-354.84 5008.91,-357.38 5008.25,-350.41"/>
</g>
<!-- Node4 -->
<g id="node4" class="node">
<title>Node4</title>
<g id="a_node4"><a xlink:href="../../d3/df7/vcontainer_8h.html" target="_top" xlink:title=" ">
<polygon fill="white" stroke="black" points="4879,-212.5 4879,-242.5 4986,-242.5 4986,-212.5 4879,-212.5"/>
<text text-anchor="start" x="4887" y="-230.5" font-family="Helvetica,sans-Serif" font-size="10.00">src/libs/vpatterndb</text>
<text text-anchor="middle" x="4932.5" y="-219.5" font-family="Helvetica,sans-Serif" font-size="10.00">/vcontainer.h</text>
</a>
</g>
</g>
<!-- Node3&#45;&gt;Node4 -->
<g id="edge3" class="edge">
<title>Node3&#45;&gt;Node4</title>
<path fill="none" stroke="midnightblue" d="M4932.5,-269.11C4932.5,-260.15 4932.5,-250.32 4932.5,-242.58"/>
<polygon fill="midnightblue" stroke="midnightblue" points="4929,-269.4 4932.5,-279.4 4936,-269.4 4929,-269.4"/>
</g>
<!-- Node5 -->
<g id="node5" class="node">
<title>Node5</title>
<g id="a_node5"><a xlink:href="../../dc/db7/measurements_8h.html" target="_top" xlink:title=" ">
<polygon fill="white" stroke="black" points="738,-145.5 738,-164.5 917,-164.5 917,-145.5 738,-145.5"/>
<text text-anchor="middle" x="827.5" y="-152.5" font-family="Helvetica,sans-Serif" font-size="10.00">src/libs/vformat/measurements.h</text>
</a>
</g>
</g>
<!-- Node4&#45;&gt;Node5 -->
<g id="edge4" class="edge">
<title>Node4&#45;&gt;Node5</title>
<path fill="none" stroke="midnightblue" d="M4868.7,-226.24C4389.45,-224.21 1360.84,-210.07 955.5,-176 927.48,-173.65 896.31,-168.82 871.74,-164.5"/>
<polygon fill="midnightblue" stroke="midnightblue" points="4868.88,-229.74 4878.89,-226.28 4868.91,-222.74 4868.88,-229.74"/>
</g>
<!-- Node6 -->
<g id="node6" class="node">
<title>Node6</title>
<g id="a_node6"><a xlink:href="../../d9/de3/measurements_8cpp.html" target="_top" xlink:title=" ">
<polygon fill="white" stroke="black" points="161.5,-73 161.5,-92 351.5,-92 351.5,-73 161.5,-73"/>
<text text-anchor="middle" x="256.5" y="-80" font-family="Helvetica,sans-Serif" font-size="10.00">src/libs/vformat/measurements.cpp</text>
</a>
</g>
</g>
<!-- Node4&#45;&gt;Node6 -->
<g id="edge6" class="edge">
<title>Node4&#45;&gt;Node6</title>
<path fill="none" stroke="midnightblue" d="M4868.58,-226.43C4373.41,-225.84 1157.22,-220.27 728.5,-176 632.09,-166.04 609.62,-152.64 514.5,-134 439.25,-119.25 351.66,-102.11 300.33,-92.07"/>
<polygon fill="midnightblue" stroke="midnightblue" points="4868.75,-229.94 4878.76,-226.45 4868.76,-222.94 4868.75,-229.94"/>
</g>
<!-- Node7 -->
<g id="node7" class="node">
<title>Node7</title>
<g id="a_node7"><a xlink:href="../../d6/de0/vlayoutpiece_8h.html" target="_top" xlink:title=" ">
<polygon fill="white" stroke="black" points="964.5,-145.5 964.5,-164.5 1130.5,-164.5 1130.5,-145.5 964.5,-145.5"/>
<text text-anchor="middle" x="1047.5" y="-152.5" font-family="Helvetica,sans-Serif" font-size="10.00">src/libs/vlayout/vlayoutpiece.h</text>
</a>
</g>
</g>
<!-- Node4&#45;&gt;Node7 -->
<g id="edge7" class="edge">
<title>Node4&#45;&gt;Node7</title>
<path fill="none" stroke="midnightblue" d="M4868.65,-225.34C4412.13,-217.06 1647.2,-166.88 1130.6,-157.51"/>
<polygon fill="midnightblue" stroke="midnightblue" points="4868.63,-228.84 4878.69,-225.52 4868.76,-221.84 4868.63,-228.84"/>
</g>
<!-- Node17 -->
<g id="node16" class="node">
<title>Node17</title>
<g id="a_node16"><a xlink:href="../../d8/d70/vtextmanager_8cpp.html" target="_top" xlink:title=" ">
<polygon fill="white" stroke="black" points="1691.5,-73 1691.5,-92 1873.5,-92 1873.5,-73 1691.5,-73"/>
<text text-anchor="middle" x="1782.5" y="-80" font-family="Helvetica,sans-Serif" font-size="10.00">src/libs/vlayout/vtextmanager.cpp</text>
</a>
</g>
</g>
<!-- Node4&#45;&gt;Node17 -->
<g id="edge18" class="edge">
<title>Node4&#45;&gt;Node17</title>
<path fill="none" stroke="midnightblue" d="M4868.59,-224.42C4671.14,-217.95 4053.26,-197.32 3541.5,-176 2803.99,-145.28 2617.29,-168.38 1882.5,-98 1866.87,-96.5 1849.95,-94.28 1834.54,-92.02"/>
<polygon fill="midnightblue" stroke="midnightblue" points="4868.68,-227.93 4878.79,-224.76 4868.91,-220.93 4868.68,-227.93"/>
</g>
<!-- Node18 -->
<g id="node17" class="node">
<title>Node18</title>
<g id="a_node17"><a xlink:href="../../d5/d74/vabstractapplication_8h.html" target="_top" xlink:title=" ">
<polygon fill="white" stroke="red" points="3551,-145.5 3551,-164.5 3746,-164.5 3746,-145.5 3551,-145.5"/>
<text text-anchor="middle" x="3648.5" y="-152.5" font-family="Helvetica,sans-Serif" font-size="10.00">src/libs/vmisc/vabstractapplication.h</text>
</a>
</g>
</g>
<!-- Node4&#45;&gt;Node18 -->
<g id="edge19" class="edge">
<title>Node4&#45;&gt;Node18</title>
<path fill="none" stroke="midnightblue" d="M4868.8,-223C4660.33,-211.56 3997.47,-175.16 3746.27,-161.37"/>
<polygon fill="midnightblue" stroke="midnightblue" points="4868.79,-226.51 4878.96,-223.56 4869.17,-219.52 4868.79,-226.51"/>
</g>
<!-- Node36 -->
<g id="node31" class="node">
<title>Node36</title>
<g id="a_node31"><a xlink:href="../../db/d11/vformula_8cpp.html" target="_top" xlink:title=" ">
<polygon fill="white" stroke="black" points="5434,-67.5 5434,-97.5 5541,-97.5 5541,-67.5 5434,-67.5"/>
<text text-anchor="start" x="5442" y="-85.5" font-family="Helvetica,sans-Serif" font-size="10.00">src/libs/vpatterndb</text>
<text text-anchor="middle" x="5487.5" y="-74.5" font-family="Helvetica,sans-Serif" font-size="10.00">/vformula.cpp</text>
</a>
</g>
</g>
<!-- Node4&#45;&gt;Node36 -->
<g id="edge53" class="edge">
<title>Node4&#45;&gt;Node36</title>
<path fill="none" stroke="midnightblue" d="M4919.58,-203.08C4910.04,-182.26 4901.39,-152.37 4918.5,-134 4956.92,-92.75 5368.76,-106.35 5424.5,-98 5427.61,-97.53 5430.79,-97 5433.99,-96.41"/>
<polygon fill="midnightblue" stroke="midnightblue" points="4916.52,-204.78 4924.08,-212.2 4922.8,-201.69 4916.52,-204.78"/>
</g>
<!-- Node37 -->
<g id="node32" class="node">
<title>Node37</title>
<g id="a_node32"><a xlink:href="../../df/d7a/vpiece_8cpp.html" target="_top" xlink:title=" ">
<polygon fill="white" stroke="black" points="5559,-67.5 5559,-97.5 5666,-97.5 5666,-67.5 5559,-67.5"/>
<text text-anchor="start" x="5567" y="-85.5" font-family="Helvetica,sans-Serif" font-size="10.00">src/libs/vpatterndb</text>
<text text-anchor="middle" x="5612.5" y="-74.5" font-family="Helvetica,sans-Serif" font-size="10.00">/vpiece.cpp</text>
</a>
</g>
</g>
<!-- Node4&#45;&gt;Node37 -->
<g id="edge56" class="edge">
<title>Node4&#45;&gt;Node37</title>
<path fill="none" stroke="midnightblue" d="M4931.49,-202.23C4932.05,-180.74 4936.67,-150.33 4956.5,-134 5007.46,-92.04 5484.17,-107.44 5549.5,-98 5552.61,-97.55 5555.79,-97.03 5559,-96.45"/>
<polygon fill="midnightblue" stroke="midnightblue" points="4927.99,-202.25 4931.5,-212.25 4934.99,-202.24 4927.99,-202.25"/>
</g>
<!-- Node39 -->
<g id="node34" class="node">
<title>Node39</title>
<g id="a_node34"><a xlink:href="../../d8/dba/vpiecenode_8cpp.html" target="_top" xlink:title=" ">
<polygon fill="white" stroke="black" points="4680,-0.5 4680,-30.5 4787,-30.5 4787,-0.5 4680,-0.5"/>
<text text-anchor="start" x="4688" y="-18.5" font-family="Helvetica,sans-Serif" font-size="10.00">src/libs/vpatterndb</text>
<text text-anchor="middle" x="4733.5" y="-7.5" font-family="Helvetica,sans-Serif" font-size="10.00">/vpiecenode.cpp</text>
</a>
</g>
</g>
<!-- Node4&#45;&gt;Node39 -->
<g id="edge55" class="edge">
<title>Node4&#45;&gt;Node39</title>
<path fill="none" stroke="midnightblue" d="M4944.27,-202.89C4957.47,-176.86 4977.91,-138.09 4984.5,-134 5115.4,-52.77 5780.47,-178.81 5674.5,-67 5643.81,-34.62 4982.26,-20.76 4787.18,-17.36"/>
<polygon fill="midnightblue" stroke="midnightblue" points="4940.98,-201.64 4939.6,-212.15 4947.23,-204.79 4940.98,-201.64"/>
</g>
<!-- Node4&#45;&gt;Node40 -->
<g id="edge58" class="edge">
<title>Node4&#45;&gt;Node40</title>
<path fill="none" stroke="midnightblue" d="M4954.43,-205.23C4963.71,-196.22 4974.64,-185.6 4984.5,-176 5003.64,-157.36 5003.03,-144.73 5027.5,-134 5166.29,-73.15 5558.26,-117.86 5708.5,-98 5713.17,-97.38 5717.99,-96.62 5722.81,-95.76"/>
<polygon fill="midnightblue" stroke="midnightblue" points="4951.82,-202.89 4947.08,-212.36 4956.69,-207.91 4951.82,-202.89"/>
</g>
<!-- Node57 -->
<g id="node45" class="node">
<title>Node57</title>
<g id="a_node45"><a xlink:href="../../d7/d8a/measurement__variable__p_8h.html" target="_top" xlink:title=" ">
<polygon fill="white" stroke="red" points="5036.5,-134.5 5036.5,-175.5 5172.5,-175.5 5172.5,-134.5 5036.5,-134.5"/>
<text text-anchor="start" x="5044.5" y="-163.5" font-family="Helvetica,sans-Serif" font-size="10.00">src/libs/vpatterndb</text>
<text text-anchor="start" x="5044.5" y="-152.5" font-family="Helvetica,sans-Serif" font-size="10.00">/variables/measurement</text>
<text text-anchor="middle" x="5104.5" y="-141.5" font-family="Helvetica,sans-Serif" font-size="10.00">_variable_p.h</text>
</a>
</g>
</g>
<!-- Node4&#45;&gt;Node57 -->
<g id="edge50" class="edge">
<title>Node4&#45;&gt;Node57</title>
<path fill="none" stroke="midnightblue" d="M4976.34,-208.53C5000.92,-198.45 5031.62,-185.87 5056.81,-175.55"/>
<polygon fill="midnightblue" stroke="midnightblue" points="4974.82,-205.37 4966.89,-212.4 4977.47,-211.85 4974.82,-205.37"/>
</g>
<!-- Node59 -->
<g id="node46" class="node">
<title>Node59</title>
<g id="a_node46"><a xlink:href="../../d1/de1/vincrement__p_8h.html" target="_top" xlink:title=" ">
<polygon fill="white" stroke="black" points="363,-140 363,-170 506,-170 506,-140 363,-140"/>
<text text-anchor="start" x="371" y="-158" font-family="Helvetica,sans-Serif" font-size="10.00">src/libs/vpatterndb</text>
<text text-anchor="middle" x="434.5" y="-147" font-family="Helvetica,sans-Serif" font-size="10.00">/variables/vincrement_p.h</text>
</a>
</g>
</g>
<!-- Node4&#45;&gt;Node59 -->
<g id="edge51" class="edge">
<title>Node4&#45;&gt;Node59</title>
<path fill="none" stroke="midnightblue" d="M4868.69,-226.51C4402.31,-226.46 1512.69,-224.17 637.5,-176 593.83,-173.6 545.05,-168.86 506.25,-164.6"/>
<polygon fill="midnightblue" stroke="midnightblue" points="4868.93,-230.01 4878.93,-226.51 4868.93,-223.01 4868.93,-230.01"/>
</g>
<!-- Node60 -->
<g id="node47" class="node">
<title>Node60</title>
<g id="a_node47"><a xlink:href="../../d6/d91/vnodedetail_8cpp.html" target="_top" xlink:title=" ">
<polygon fill="white" stroke="black" points="5191,-140 5191,-170 5298,-170 5298,-140 5191,-140"/>
<text text-anchor="start" x="5199" y="-158" font-family="Helvetica,sans-Serif" font-size="10.00">src/libs/vpatterndb</text>
<text text-anchor="middle" x="5244.5" y="-147" font-family="Helvetica,sans-Serif" font-size="10.00">/vnodedetail.cpp</text>
</a>
</g>
</g>
<!-- Node4&#45;&gt;Node60 -->
<g id="edge54" class="edge">
<title>Node4&#45;&gt;Node60</title>
<path fill="none" stroke="midnightblue" d="M4996.44,-215.49C5046.99,-206.31 5119.19,-192.16 5181.5,-176 5188.28,-174.24 5195.4,-172.19 5202.32,-170.08"/>
<polygon fill="midnightblue" stroke="midnightblue" points="4995.53,-212.09 4986.31,-217.31 4996.77,-218.98 4995.53,-212.09"/>
</g>
<!-- Node61 -->
<g id="node48" class="node">
<title>Node61</title>
<g id="a_node48"><a xlink:href="../../da/de1/vpiecepath_8cpp.html" target="_top" xlink:title=" ">
<polygon fill="white" stroke="black" points="5316,-140 5316,-170 5423,-170 5423,-140 5316,-140"/>
<text text-anchor="start" x="5324" y="-158" font-family="Helvetica,sans-Serif" font-size="10.00">src/libs/vpatterndb</text>
<text text-anchor="middle" x="5369.5" y="-147" font-family="Helvetica,sans-Serif" font-size="10.00">/vpiecepath.cpp</text>
</a>
</g>
</g>
<!-- Node4&#45;&gt;Node61 -->
<g id="edge57" class="edge">
<title>Node4&#45;&gt;Node61</title>
<path fill="none" stroke="midnightblue" d="M4996.5,-221.26C5071.45,-214.34 5199.04,-200.12 5306.5,-176 5313.78,-174.37 5321.42,-172.27 5328.78,-170.06"/>
<polygon fill="midnightblue" stroke="midnightblue" points="4995.92,-217.8 4986.28,-222.19 4996.56,-224.77 4995.92,-217.8"/>
</g>
<!-- Node62 -->
<g id="node49" class="node">
<title>Node62</title>
<g id="a_node49"><a xlink:href="../../d1/d3a/abstracttest_8cpp.html" target="_top" xlink:title=" ">
<polygon fill="white" stroke="black" points="5441,-145.5 5441,-164.5 5602,-164.5 5602,-145.5 5441,-145.5"/>
<text text-anchor="middle" x="5521.5" y="-152.5" font-family="Helvetica,sans-Serif" font-size="10.00">src/libs/vtest/abstracttest.cpp</text>
</a>
</g>
</g>
<!-- Node4&#45;&gt;Node62 -->
<g id="edge59" class="edge">
<title>Node4&#45;&gt;Node62</title>
<path fill="none" stroke="midnightblue" d="M4996.35,-222.46C5091.56,-215.88 5276.19,-201.03 5431.5,-176 5450.15,-173 5470.73,-168.51 5487.49,-164.55"/>
<polygon fill="midnightblue" stroke="midnightblue" points="4996.05,-218.97 4986.31,-223.14 4996.52,-225.95 4996.05,-218.97"/>
</g>
<!-- Node63 -->
<g id="node50" class="node">
<title>Node63</title>
<g id="a_node50"><a xlink:href="../../da/db4/piece__tablewidgetitem_8cpp.html" target="_top" xlink:title=" ">
<polygon fill="white" stroke="black" points="5620.5,-140 5620.5,-170 5748.5,-170 5748.5,-140 5620.5,-140"/>
<text text-anchor="start" x="5628.5" y="-158" font-family="Helvetica,sans-Serif" font-size="10.00">src/libs/vwidgets/piece</text>
<text text-anchor="middle" x="5684.5" y="-147" font-family="Helvetica,sans-Serif" font-size="10.00">_tablewidgetitem.cpp</text>
</a>
</g>
</g>
<!-- Node4&#45;&gt;Node63 -->
<g id="edge60" class="edge">
<title>Node4&#45;&gt;Node63</title>
<path fill="none" stroke="midnightblue" d="M4996.27,-225.77C5117.01,-223.5 5386.93,-214.18 5610.5,-176 5619.42,-174.48 5628.82,-172.35 5637.82,-170.05"/>
<polygon fill="midnightblue" stroke="midnightblue" points="4996.03,-222.27 4986.1,-225.95 4996.16,-229.27 4996.03,-222.27"/>
</g>
<!-- Node5&#45;&gt;Node6 -->
<g id="edge5" class="edge">
<title>Node5&#45;&gt;Node6</title>
<path fill="none" stroke="midnightblue" d="M748.95,-144.22C722.44,-140.94 692.69,-137.28 665.5,-134 529.99,-117.64 495.88,-115.43 360.5,-98 346.13,-96.15 330.65,-94.05 316.14,-92.03"/>
<polygon fill="midnightblue" stroke="midnightblue" points="748.58,-147.7 758.93,-145.45 749.44,-140.75 748.58,-147.7"/>
</g>
<!-- Node8 -->
<g id="node8" class="node">
<title>Node8</title>
<g id="a_node8"><a xlink:href="../../dd/d66/vdxfengine_8cpp.html" target="_top" xlink:title=" ">
<polygon fill="white" stroke="black" points="369.5,-73 369.5,-92 523.5,-92 523.5,-73 369.5,-73"/>
<text text-anchor="middle" x="446.5" y="-80" font-family="Helvetica,sans-Serif" font-size="10.00">src/libs/vdxf/vdxfengine.cpp</text>
</a>
</g>
</g>
<!-- Node7&#45;&gt;Node8 -->
<g id="edge8" class="edge">
<title>Node7&#45;&gt;Node8</title>
<path fill="none" stroke="midnightblue" d="M990.31,-143.76C969.91,-140.34 946.72,-136.71 925.5,-134 751.51,-111.8 706.44,-120.6 532.5,-98 519.74,-96.34 505.97,-94.19 493.27,-92.05"/>
<polygon fill="midnightblue" stroke="midnightblue" points="989.95,-147.25 1000.4,-145.48 991.12,-140.35 989.95,-147.25"/>
</g>
<!-- Node9 -->
<g id="node9" class="node">
<title>Node9</title>
<g id="a_node9"><a xlink:href="../../de/da8/vbank_8cpp.html" target="_top" xlink:title=" ">
<polygon fill="white" stroke="black" points="541.5,-73 541.5,-92 685.5,-92 685.5,-73 541.5,-73"/>
<text text-anchor="middle" x="613.5" y="-80" font-family="Helvetica,sans-Serif" font-size="10.00">src/libs/vlayout/vbank.cpp</text>
</a>
</g>
</g>
<!-- Node7&#45;&gt;Node9 -->
<g id="edge9" class="edge">
<title>Node7&#45;&gt;Node9</title>
<path fill="none" stroke="midnightblue" d="M986.23,-143.86C966.81,-140.67 945.26,-137.16 925.5,-134 822.9,-117.6 796.98,-115.16 694.5,-98 683.37,-96.14 671.39,-94.04 660.16,-92.04"/>
<polygon fill="midnightblue" stroke="midnightblue" points="985.73,-147.32 996.17,-145.49 986.87,-140.42 985.73,-147.32"/>
</g>
<!-- Node10 -->
<g id="node10" class="node">
<title>Node10</title>
<g id="a_node10"><a xlink:href="../../d3/d39/vlayoutgenerator_8cpp.html" target="_top" xlink:title=" ">
<polygon fill="white" stroke="black" points="704,-73 704,-92 901,-92 901,-73 704,-73"/>
<text text-anchor="middle" x="802.5" y="-80" font-family="Helvetica,sans-Serif" font-size="10.00">src/libs/vlayout/vlayoutgenerator.cpp</text>
</a>
</g>
</g>
<!-- Node7&#45;&gt;Node10 -->
<g id="edge10" class="edge">
<title>Node7&#45;&gt;Node10</title>
<path fill="none" stroke="midnightblue" d="M1008.31,-142.72C959.24,-128.6 876.27,-104.73 832.16,-92.03"/>
<polygon fill="midnightblue" stroke="midnightblue" points="1007.37,-146.09 1017.95,-145.5 1009.31,-139.37 1007.37,-146.09"/>
</g>
<!-- Node11 -->
<g id="node11" class="node">
<title>Node11</title>
<g id="a_node11"><a xlink:href="../../d2/d2d/vlayoutpaper__p_8h.html" target="_top" xlink:title=" ">
<polygon fill="white" stroke="black" points="958,-73 958,-92 1137,-92 1137,-73 958,-73"/>
<text text-anchor="middle" x="1047.5" y="-80" font-family="Helvetica,sans-Serif" font-size="10.00">src/libs/vlayout/vlayoutpaper_p.h</text>
</a>
</g>
</g>
<!-- Node7&#45;&gt;Node11 -->
<g id="edge11" class="edge">
<title>Node7&#45;&gt;Node11</title>
<path fill="none" stroke="midnightblue" d="M1047.5,-134.94C1047.5,-121.03 1047.5,-102.82 1047.5,-92.22"/>
<polygon fill="midnightblue" stroke="midnightblue" points="1044,-135.36 1047.5,-145.36 1051,-135.36 1044,-135.36"/>
</g>
<!-- Node12 -->
<g id="node12" class="node">
<title>Node12</title>
<g id="a_node12"><a xlink:href="../../d1/dd1/vlayoutpaper_8cpp.html" target="_top" xlink:title=" ">
<polygon fill="white" stroke="black" points="958.5,-6 958.5,-25 1136.5,-25 1136.5,-6 958.5,-6"/>
<text text-anchor="middle" x="1047.5" y="-13" font-family="Helvetica,sans-Serif" font-size="10.00">src/libs/vlayout/vlayoutpaper.cpp</text>
</a>
</g>
</g>
<!-- Node7&#45;&gt;Node12 -->
<g id="edge13" class="edge">
<title>Node7&#45;&gt;Node12</title>
<path fill="none" stroke="midnightblue" d="M1006.41,-141.92C985.11,-133.34 961.01,-119.45 948.5,-98 941.56,-86.1 941.3,-78.75 948.5,-67 961.9,-45.12 988.1,-32.34 1010.18,-25.12"/>
<polygon fill="midnightblue" stroke="midnightblue" points="1005.35,-145.26 1015.94,-145.5 1007.81,-138.71 1005.35,-145.26"/>
</g>
<!-- Node13 -->
<g id="node13" class="node">
<title>Node13</title>
<g id="a_node13"><a xlink:href="../../df/d5d/vcontour_8cpp.html" target="_top" xlink:title=" ">
<polygon fill="white" stroke="black" points="1321.5,-73 1321.5,-92 1477.5,-92 1477.5,-73 1321.5,-73"/>
<text text-anchor="middle" x="1399.5" y="-80" font-family="Helvetica,sans-Serif" font-size="10.00">src/libs/vlayout/vcontour.cpp</text>
</a>
</g>
</g>
<!-- Node7&#45;&gt;Node13 -->
<g id="edge14" class="edge">
<title>Node7&#45;&gt;Node13</title>
<path fill="none" stroke="midnightblue" d="M1099.88,-143.51C1169.81,-129.5 1292.32,-104.97 1356.89,-92.03"/>
<polygon fill="midnightblue" stroke="midnightblue" points="1099.08,-140.1 1089.96,-145.5 1100.45,-146.96 1099.08,-140.1"/>
</g>
<!-- Node14 -->
<g id="node14" class="node">
<title>Node14</title>
<g id="a_node14"><a xlink:href="../../db/d5c/vposition_8h.html" target="_top" xlink:title=" ">
<polygon fill="white" stroke="red" points="1155.5,-73 1155.5,-92 1303.5,-92 1303.5,-73 1155.5,-73"/>
<text text-anchor="middle" x="1229.5" y="-80" font-family="Helvetica,sans-Serif" font-size="10.00">src/libs/vlayout/vposition.h</text>
</a>
</g>
</g>
<!-- Node7&#45;&gt;Node14 -->
<g id="edge15" class="edge">
<title>Node7&#45;&gt;Node14</title>
<path fill="none" stroke="midnightblue" d="M1079.16,-141.74C1115.88,-127.51 1175.45,-104.44 1207.47,-92.03"/>
<polygon fill="midnightblue" stroke="midnightblue" points="1077.51,-138.62 1069.45,-145.5 1080.04,-145.15 1077.51,-138.62"/>
</g>
<!-- Node16 -->
<g id="node15" class="node">
<title>Node16</title>
<g id="a_node15"><a xlink:href="../../dd/d70/vlayoutpiece_8cpp.html" target="_top" xlink:title=" ">
<polygon fill="white" stroke="black" points="1496,-73 1496,-92 1673,-92 1673,-73 1496,-73"/>
<text text-anchor="middle" x="1584.5" y="-80" font-family="Helvetica,sans-Serif" font-size="10.00">src/libs/vlayout/vlayoutpiece.cpp</text>
</a>
</g>
</g>
<!-- Node7&#45;&gt;Node16 -->
<g id="edge17" class="edge">
<title>Node7&#45;&gt;Node16</title>
<path fill="none" stroke="midnightblue" d="M1128.08,-144.21C1216.18,-133.4 1361.48,-115.22 1486.5,-98 1500.05,-96.13 1514.63,-94.03 1528.3,-92.01"/>
<polygon fill="midnightblue" stroke="midnightblue" points="1127.39,-140.77 1117.89,-145.46 1128.24,-147.72 1127.39,-140.77"/>
</g>
<!-- Node11&#45;&gt;Node12 -->
<g id="edge12" class="edge">
<title>Node11&#45;&gt;Node12</title>
<path fill="none" stroke="midnightblue" d="M1047.5,-62.54C1047.5,-50.17 1047.5,-34.62 1047.5,-25.13"/>
<polygon fill="midnightblue" stroke="midnightblue" points="1044,-62.73 1047.5,-72.73 1051,-62.73 1044,-62.73"/>
</g>
<!-- Node14&#45;&gt;Node12 -->
<g id="edge16" class="edge">
<title>Node14&#45;&gt;Node12</title>
<path fill="none" stroke="midnightblue" d="M1195.72,-69.44C1159.62,-56.54 1103.29,-36.42 1071.48,-25.06"/>
<polygon fill="midnightblue" stroke="midnightblue" points="1194.74,-72.8 1205.33,-72.87 1197.09,-66.21 1194.74,-72.8"/>
</g>
<!-- Node18&#45;&gt;Node16 -->
<g id="edge30" class="edge">
<title>Node18&#45;&gt;Node16</title>
<path fill="none" stroke="midnightblue" d="M3540.87,-152.62C3184.96,-147.77 2047.94,-130.13 1682.5,-98 1666.74,-96.61 1649.65,-94.35 1634.22,-92.02"/>
<polygon fill="midnightblue" stroke="midnightblue" points="3540.87,-156.12 3550.92,-152.75 3540.97,-149.12 3540.87,-156.12"/>
</g>
<!-- Node18&#45;&gt;Node17 -->
<g id="edge31" class="edge">
<title>Node18&#45;&gt;Node17</title>
<path fill="none" stroke="midnightblue" d="M3540.92,-152.17C3209.53,-146.3 2207.15,-126.59 1882.5,-98 1866.51,-96.59 1849.18,-94.34 1833.5,-92.02"/>
<polygon fill="midnightblue" stroke="midnightblue" points="3540.94,-155.68 3551,-152.35 3541.06,-148.68 3540.94,-155.68"/>
</g>
<!-- Node19 -->
<g id="node18" class="node">
<title>Node19</title>
<g id="a_node18"><a xlink:href="../../d4/d90/fvupdater_8cpp.html" target="_top" xlink:title=" ">
<polygon fill="white" stroke="black" points="1892,-73 1892,-92 2045,-92 2045,-73 1892,-73"/>
<text text-anchor="middle" x="1968.5" y="-80" font-family="Helvetica,sans-Serif" font-size="10.00">src/libs/fervor/fvupdater.cpp</text>
</a>
</g>
</g>
<!-- Node18&#45;&gt;Node19 -->
<g id="edge20" class="edge">
<title>Node18&#45;&gt;Node19</title>
<path fill="none" stroke="midnightblue" d="M3540.5,-152.09C3230.72,-146.33 2342.91,-127.63 2053.5,-98 2039.8,-96.6 2024.97,-94.33 2011.59,-92"/>
<polygon fill="midnightblue" stroke="midnightblue" points="3540.77,-155.6 3550.83,-152.29 3540.9,-148.6 3540.77,-155.6"/>
</g>
<!-- Node20 -->
<g id="node19" class="node">
<title>Node20</title>
<g id="a_node19"><a xlink:href="../../d9/dc8/dxiface_8cpp.html" target="_top" xlink:title=" ">
<polygon fill="white" stroke="black" points="2063,-73 2063,-92 2198,-92 2198,-73 2063,-73"/>
<text text-anchor="middle" x="2130.5" y="-80" font-family="Helvetica,sans-Serif" font-size="10.00">src/libs/vdxf/dxiface.cpp</text>
</a>
</g>
</g>
<!-- Node18&#45;&gt;Node20 -->
<g id="edge21" class="edge">
<title>Node18&#45;&gt;Node20</title>
<path fill="none" stroke="midnightblue" d="M3540.81,-151.91C3252.02,-145.97 2464.8,-127.49 2206.5,-98 2194.22,-96.6 2180.95,-94.33 2168.99,-92"/>
<polygon fill="midnightblue" stroke="midnightblue" points="3540.8,-155.41 3550.87,-152.12 3540.95,-148.41 3540.8,-155.41"/>
</g>
<!-- Node21 -->
<g id="node20" class="node">
<title>Node21</title>
<g id="a_node20"><a xlink:href="../../da/d75/vabstractarc__p_8h.html" target="_top" xlink:title=" ">
<polygon fill="white" stroke="red" points="2216,-67.5 2216,-97.5 2323,-97.5 2323,-67.5 2216,-67.5"/>
<text text-anchor="start" x="2224" y="-85.5" font-family="Helvetica,sans-Serif" font-size="10.00">src/libs/vgeometry</text>
<text text-anchor="middle" x="2269.5" y="-74.5" font-family="Helvetica,sans-Serif" font-size="10.00">/vabstractarc_p.h</text>
</a>
</g>
</g>
<!-- Node18&#45;&gt;Node21 -->
<g id="edge22" class="edge">
<title>Node18&#45;&gt;Node21</title>
<path fill="none" stroke="midnightblue" d="M3540.64,-152.02C3269.4,-146.61 2564.03,-129.85 2331.5,-98 2328.76,-97.62 2325.97,-97.18 2323.15,-96.7"/>
<polygon fill="midnightblue" stroke="midnightblue" points="3540.81,-155.52 3550.88,-152.22 3540.95,-148.52 3540.81,-155.52"/>
</g>
<!-- Node23 -->
<g id="node21" class="node">
<title>Node23</title>
<g id="a_node21"><a xlink:href="../../dc/da3/varc__p_8h.html" target="_top" xlink:title=" ">
<polygon fill="white" stroke="red" points="2341,-67.5 2341,-97.5 2448,-97.5 2448,-67.5 2341,-67.5"/>
<text text-anchor="start" x="2349" y="-85.5" font-family="Helvetica,sans-Serif" font-size="10.00">src/libs/vgeometry</text>
<text text-anchor="middle" x="2394.5" y="-74.5" font-family="Helvetica,sans-Serif" font-size="10.00">/varc_p.h</text>
</a>
</g>
</g>
<!-- Node18&#45;&gt;Node23 -->
<g id="edge23" class="edge">
<title>Node18&#45;&gt;Node23</title>
<path fill="none" stroke="midnightblue" d="M3540.63,-151.46C3288.07,-145.1 2664.07,-126.9 2456.5,-98 2453.76,-97.62 2450.97,-97.17 2448.16,-96.68"/>
<polygon fill="midnightblue" stroke="midnightblue" points="3540.83,-154.96 3550.92,-151.72 3541.01,-147.97 3540.83,-154.96"/>
</g>
<!-- Node25 -->
<g id="node22" class="node">
<title>Node25</title>
<g id="a_node22"><a xlink:href="../../d5/d8e/vcubicbezier__p_8h.html" target="_top" xlink:title=" ">
<polygon fill="white" stroke="red" points="2466,-67.5 2466,-97.5 2573,-97.5 2573,-67.5 2466,-67.5"/>
<text text-anchor="start" x="2474" y="-85.5" font-family="Helvetica,sans-Serif" font-size="10.00">src/libs/vgeometry</text>
<text text-anchor="middle" x="2519.5" y="-74.5" font-family="Helvetica,sans-Serif" font-size="10.00">/vcubicbezier_p.h</text>
</a>
</g>
</g>
<!-- Node18&#45;&gt;Node25 -->
<g id="edge24" class="edge">
<title>Node18&#45;&gt;Node25</title>
<path fill="none" stroke="midnightblue" d="M3540.64,-153.9C3348.3,-152.47 2933.78,-143.77 2587.5,-98 2582.83,-97.38 2578.01,-96.62 2573.19,-95.76"/>
<polygon fill="midnightblue" stroke="midnightblue" points="3540.73,-157.4 3550.75,-153.97 3540.78,-150.4 3540.73,-157.4"/>
</g>
<!-- Node27 -->
<g id="node23" class="node">
<title>Node27</title>
<g id="a_node23"><a xlink:href="../../df/dde/vellipticalarc__p_8h.html" target="_top" xlink:title=" ">
<polygon fill="white" stroke="black" points="2630,-67.5 2630,-97.5 2737,-97.5 2737,-67.5 2630,-67.5"/>
<text text-anchor="start" x="2638" y="-85.5" font-family="Helvetica,sans-Serif" font-size="10.00">src/libs/vgeometry</text>
<text text-anchor="middle" x="2683.5" y="-74.5" font-family="Helvetica,sans-Serif" font-size="10.00">/vellipticalarc_p.h</text>
</a>
</g>
</g>
<!-- Node18&#45;&gt;Node27 -->
<g id="edge25" class="edge">
<title>Node18&#45;&gt;Node27</title>
<path fill="none" stroke="midnightblue" d="M3540.53,-153.14C3370.53,-150.48 3030.48,-139.86 2745.5,-98 2742.77,-97.6 2739.97,-97.14 2737.16,-96.63"/>
<polygon fill="midnightblue" stroke="midnightblue" points="3540.68,-156.65 3550.73,-153.3 3540.78,-149.65 3540.68,-156.65"/>
</g>
<!-- Node28 -->
<g id="node24" class="node">
<title>Node28</title>
<g id="a_node24"><a xlink:href="../../d6/dfb/vellipticalarc_8cpp.html" target="_top" xlink:title=" ">
<polygon fill="white" stroke="black" points="2589,-0.5 2589,-30.5 2696,-30.5 2696,-0.5 2589,-0.5"/>
<text text-anchor="start" x="2597" y="-18.5" font-family="Helvetica,sans-Serif" font-size="10.00">src/libs/vgeometry</text>
<text text-anchor="middle" x="2642.5" y="-7.5" font-family="Helvetica,sans-Serif" font-size="10.00">/vellipticalarc.cpp</text>
</a>
</g>
</g>
<!-- Node18&#45;&gt;Node28 -->
<g id="edge27" class="edge">
<title>Node18&#45;&gt;Node28</title>
<path fill="none" stroke="midnightblue" d="M3540.59,-152.07C3283.11,-146.93 2651.77,-131.02 2620.5,-98 2602.97,-79.48 2619.43,-48.49 2631.78,-30.53"/>
<polygon fill="midnightblue" stroke="midnightblue" points="3540.64,-155.57 3550.71,-152.27 3540.78,-148.57 3540.64,-155.57"/>
</g>
<!-- Node29 -->
<g id="node25" class="node">
<title>Node29</title>
<g id="a_node25"><a xlink:href="../../d1/d76/vspline__p_8h.html" target="_top" xlink:title=" ">
<polygon fill="white" stroke="red" points="2755,-67.5 2755,-97.5 2862,-97.5 2862,-67.5 2755,-67.5"/>
<text text-anchor="start" x="2763" y="-85.5" font-family="Helvetica,sans-Serif" font-size="10.00">src/libs/vgeometry</text>
<text text-anchor="middle" x="2808.5" y="-74.5" font-family="Helvetica,sans-Serif" font-size="10.00">/vspline_p.h</text>
</a>
</g>
</g>
<!-- Node18&#45;&gt;Node29 -->
<g id="edge28" class="edge">
<title>Node18&#45;&gt;Node29</title>
<path fill="none" stroke="midnightblue" d="M3540.59,-151.47C3390,-146.76 3108.63,-133.62 2871.5,-98 2868.39,-97.53 2865.21,-97 2862.01,-96.41"/>
<polygon fill="midnightblue" stroke="midnightblue" points="3540.65,-154.98 3550.76,-151.79 3540.87,-147.98 3540.65,-154.98"/>
</g>
<!-- Node31 -->
<g id="node26" class="node">
<title>Node31</title>
<g id="a_node26"><a xlink:href="../../d9/d15/vabstractpiece_8cpp.html" target="_top" xlink:title=" ">
<polygon fill="white" stroke="black" points="2880.5,-73 2880.5,-92 3066.5,-92 3066.5,-73 2880.5,-73"/>
<text text-anchor="middle" x="2973.5" y="-80" font-family="Helvetica,sans-Serif" font-size="10.00">src/libs/vlayout/vabstractpiece.cpp</text>
</a>
</g>
</g>
<!-- Node18&#45;&gt;Node31 -->
<g id="edge29" class="edge">
<title>Node18&#45;&gt;Node31</title>
<path fill="none" stroke="midnightblue" d="M3540.54,-144.87C3425.23,-134.78 3237.22,-117.39 3075.5,-98 3060.85,-96.24 3045.05,-94.11 3030.36,-92.03"/>
<polygon fill="midnightblue" stroke="midnightblue" points="3540.51,-148.38 3550.77,-145.76 3541.12,-141.41 3540.51,-148.38"/>
</g>
<!-- Node32 -->
<g id="node27" class="node">
<title>Node32</title>
<g id="a_node27"><a xlink:href="../../d6/d0b/def_8cpp.html" target="_top" xlink:title=" ">
<polygon fill="white" stroke="black" points="3084.5,-73 3084.5,-92 3206.5,-92 3206.5,-73 3084.5,-73"/>
<text text-anchor="middle" x="3145.5" y="-80" font-family="Helvetica,sans-Serif" font-size="10.00">src/libs/vmisc/def.cpp</text>
</a>
</g>
</g>
<!-- Node18&#45;&gt;Node32 -->
<g id="edge32" class="edge">
<title>Node18&#45;&gt;Node32</title>
<path fill="none" stroke="midnightblue" d="M3558.23,-144.34C3470.44,-134.47 3333.42,-117.81 3215.5,-98 3205.22,-96.27 3194.15,-94.12 3183.91,-92"/>
<polygon fill="midnightblue" stroke="midnightblue" points="3558.1,-147.85 3568.43,-145.48 3558.88,-140.89 3558.1,-147.85"/>
</g>
<!-- Node33 -->
<g id="node28" class="node">
<title>Node33</title>
<g id="a_node28"><a xlink:href="../../db/d65/dialogexporttocsv_8cpp.html" target="_top" xlink:title=" ">
<polygon fill="white" stroke="black" points="3225,-67.5 3225,-97.5 3352,-97.5 3352,-67.5 3225,-67.5"/>
<text text-anchor="start" x="3233" y="-85.5" font-family="Helvetica,sans-Serif" font-size="10.00">src/libs/vmisc/dialogs</text>
<text text-anchor="middle" x="3288.5" y="-74.5" font-family="Helvetica,sans-Serif" font-size="10.00">/dialogexporttocsv.cpp</text>
</a>
</g>
</g>
<!-- Node18&#45;&gt;Node33 -->
<g id="edge33" class="edge">
<title>Node18&#45;&gt;Node33</title>
<path fill="none" stroke="midnightblue" d="M3594.25,-143.47C3536.53,-132.26 3442.56,-113.96 3361.5,-98 3358.46,-97.4 3355.34,-96.79 3352.2,-96.17"/>
<polygon fill="midnightblue" stroke="midnightblue" points="3593.76,-146.94 3604.24,-145.41 3595.09,-140.07 3593.76,-146.94"/>
</g>
<!-- Node34 -->
<g id="node29" class="node">
<title>Node34</title>
<g id="a_node29"><a xlink:href="../../d0/df6/vabstractapplication_8cpp.html" target="_top" xlink:title=" ">
<polygon fill="white" stroke="black" points="3370.5,-73 3370.5,-92 3576.5,-92 3576.5,-73 3370.5,-73"/>
<text text-anchor="middle" x="3473.5" y="-80" font-family="Helvetica,sans-Serif" font-size="10.00">src/libs/vmisc/vabstractapplication.cpp</text>
</a>
</g>
</g>
<!-- Node18&#45;&gt;Node34 -->
<g id="edge34" class="edge">
<title>Node18&#45;&gt;Node34</title>
<path fill="none" stroke="midnightblue" d="M3618.06,-141.74C3582.75,-127.51 3525.47,-104.44 3494.68,-92.03"/>
<polygon fill="midnightblue" stroke="midnightblue" points="3616.81,-145.01 3627.39,-145.5 3619.42,-138.51 3616.81,-145.01"/>
</g>
<!-- Node35 -->
<g id="node30" class="node">
<title>Node35</title>
<g id="a_node30"><a xlink:href="../../d4/d4f/pmsystems_8cpp.html" target="_top" xlink:title=" ">
<polygon fill="white" stroke="black" points="3595,-67.5 3595,-97.5 3702,-97.5 3702,-67.5 3595,-67.5"/>
<text text-anchor="start" x="3603" y="-85.5" font-family="Helvetica,sans-Serif" font-size="10.00">src/libs/vpatterndb</text>
<text text-anchor="middle" x="3648.5" y="-74.5" font-family="Helvetica,sans-Serif" font-size="10.00">/pmsystems.cpp</text>
</a>
</g>
</g>
<!-- Node18&#45;&gt;Node35 -->
<g id="edge35" class="edge">
<title>Node18&#45;&gt;Node35</title>
<path fill="none" stroke="midnightblue" d="M3648.5,-135.24C3648.5,-123.41 3648.5,-108.38 3648.5,-97.58"/>
<polygon fill="midnightblue" stroke="midnightblue" points="3645,-135.36 3648.5,-145.36 3652,-135.36 3645,-135.36"/>
</g>
<!-- Node18&#45;&gt;Node36 -->
<g id="edge36" class="edge">
<title>Node18&#45;&gt;Node36</title>
<path fill="none" stroke="midnightblue" d="M3756.24,-153.35C4089.27,-150.91 5099.28,-140.14 5424.5,-98 5427.51,-97.61 5430.58,-97.14 5433.67,-96.62"/>
<polygon fill="midnightblue" stroke="midnightblue" points="3756.08,-149.85 3746.11,-153.42 3756.13,-156.85 3756.08,-149.85"/>
</g>
<!-- Node18&#45;&gt;Node37 -->
<g id="edge37" class="edge">
<title>Node18&#45;&gt;Node37</title>
<path fill="none" stroke="midnightblue" d="M3756.22,-152.07C4132.05,-145.14 5372.03,-120.81 5549.5,-98 5552.51,-97.61 5555.58,-97.15 5558.67,-96.62"/>
<polygon fill="midnightblue" stroke="midnightblue" points="3756.09,-148.57 3746.16,-152.25 3756.22,-155.57 3756.09,-148.57"/>
</g>
<!-- Node38 -->
<g id="node33" class="node">
<title>Node38</title>
<g id="a_node33"><a xlink:href="../../df/dba/vpiecenode__p_8h.html" target="_top" xlink:title=" ">
<polygon fill="white" stroke="black" points="3720,-67.5 3720,-97.5 3827,-97.5 3827,-67.5 3720,-67.5"/>
<text text-anchor="start" x="3728" y="-85.5" font-family="Helvetica,sans-Serif" font-size="10.00">src/libs/vpatterndb</text>
<text text-anchor="middle" x="3773.5" y="-74.5" font-family="Helvetica,sans-Serif" font-size="10.00">/vpiecenode_p.h</text>
</a>
</g>
</g>
<!-- Node18&#45;&gt;Node38 -->
<g id="edge38" class="edge">
<title>Node18&#45;&gt;Node38</title>
<path fill="none" stroke="midnightblue" d="M3672.79,-140.3C3694.61,-127.99 3726.52,-110 3748.54,-97.58"/>
<polygon fill="midnightblue" stroke="midnightblue" points="3670.82,-137.39 3663.83,-145.36 3674.26,-143.49 3670.82,-137.39"/>
</g>
<!-- Node18&#45;&gt;Node40 -->
<g id="edge40" class="edge">
<title>Node18&#45;&gt;Node40</title>
<path fill="none" stroke="midnightblue" d="M3756.26,-152.64C4119.4,-147.8 5296.73,-129.97 5674.5,-98 5690.27,-96.67 5707.33,-94.52 5722.9,-92.29"/>
<polygon fill="midnightblue" stroke="midnightblue" points="3755.96,-149.14 3746.01,-152.77 3756.06,-156.14 3755.96,-149.14"/>
</g>
<!-- Node41 -->
<g id="node36" class="node">
<title>Node41</title>
<g id="a_node36"><a xlink:href="../../de/d3e/vtranslatevars_8cpp.html" target="_top" xlink:title=" ">
<polygon fill="white" stroke="black" points="3845.5,-67.5 3845.5,-97.5 3955.5,-97.5 3955.5,-67.5 3845.5,-67.5"/>
<text text-anchor="start" x="3853.5" y="-85.5" font-family="Helvetica,sans-Serif" font-size="10.00">src/libs/vpatterndb</text>
<text text-anchor="middle" x="3900.5" y="-74.5" font-family="Helvetica,sans-Serif" font-size="10.00">/vtranslatevars.cpp</text>
</a>
</g>
</g>
<!-- Node18&#45;&gt;Node41 -->
<g id="edge41" class="edge">
<title>Node18&#45;&gt;Node41</title>
<path fill="none" stroke="midnightblue" d="M3688.65,-142.77C3732.55,-130.49 3802.96,-110.79 3850.44,-97.51"/>
<polygon fill="midnightblue" stroke="midnightblue" points="3687.58,-139.43 3678.9,-145.5 3689.47,-146.17 3687.58,-139.43"/>
</g>
<!-- Node42 -->
<g id="node37" class="node">
<title>Node42</title>
<g id="a_node37"><a xlink:href="../../df/d40/export__format__combobox_8cpp.html" target="_top" xlink:title=" ">
<polygon fill="white" stroke="black" points="3974,-67.5 3974,-97.5 4107,-97.5 4107,-67.5 3974,-67.5"/>
<text text-anchor="start" x="3982" y="-85.5" font-family="Helvetica,sans-Serif" font-size="10.00">src/libs/vwidgets/export</text>
<text text-anchor="middle" x="4040.5" y="-74.5" font-family="Helvetica,sans-Serif" font-size="10.00">_format_combobox.cpp</text>
</a>
</g>
</g>
<!-- Node18&#45;&gt;Node42 -->
<g id="edge42" class="edge">
<title>Node18&#45;&gt;Node42</title>
<path fill="none" stroke="midnightblue" d="M3708.03,-143.69C3771.58,-132.63 3875.22,-114.43 3964.5,-98 3967.54,-97.44 3970.64,-96.87 3973.78,-96.28"/>
<polygon fill="midnightblue" stroke="midnightblue" points="3707.05,-140.31 3697.8,-145.47 3708.25,-147.2 3707.05,-140.31"/>
</g>
<!-- Node43 -->
<g id="node38" class="node">
<title>Node43</title>
<g id="a_node38"><a xlink:href="../../d3/d4f/mouse__coordinates_8cpp.html" target="_top" xlink:title=" ">
<polygon fill="white" stroke="black" points="4125.5,-67.5 4125.5,-97.5 4259.5,-97.5 4259.5,-67.5 4125.5,-67.5"/>
<text text-anchor="start" x="4133.5" y="-85.5" font-family="Helvetica,sans-Serif" font-size="10.00">src/libs/vwidgets/mouse</text>
<text text-anchor="middle" x="4192.5" y="-74.5" font-family="Helvetica,sans-Serif" font-size="10.00">_coordinates.cpp</text>
</a>
</g>
</g>
<!-- Node18&#45;&gt;Node43 -->
<g id="edge43" class="edge">
<title>Node18&#45;&gt;Node43</title>
<path fill="none" stroke="midnightblue" d="M3744.07,-144.43C3838.64,-134.51 3987.41,-117.72 4115.5,-98 4118.73,-97.5 4122.03,-96.97 4125.35,-96.42"/>
<polygon fill="midnightblue" stroke="midnightblue" points="3743.53,-140.96 3733.95,-145.48 3744.26,-147.93 3743.53,-140.96"/>
</g>
<!-- Node44 -->
<g id="node39" class="node">
<title>Node44</title>
<g id="a_node39"><a xlink:href="../../d2/d28/page__format__combobox_8cpp.html" target="_top" xlink:title=" ">
<polygon fill="white" stroke="black" points="4278,-67.5 4278,-97.5 4409,-97.5 4409,-67.5 4278,-67.5"/>
<text text-anchor="start" x="4286" y="-85.5" font-family="Helvetica,sans-Serif" font-size="10.00">src/libs/vwidgets/page</text>
<text text-anchor="middle" x="4343.5" y="-74.5" font-family="Helvetica,sans-Serif" font-size="10.00">_format_combobox.cpp</text>
</a>
</g>
</g>
<!-- Node18&#45;&gt;Node44 -->
<g id="edge44" class="edge">
<title>Node18&#45;&gt;Node44</title>
<path fill="none" stroke="midnightblue" d="M3756.29,-147.58C3880.26,-139.42 4089.73,-123.29 4268.5,-98 4271.52,-97.57 4274.6,-97.11 4277.71,-96.61"/>
<polygon fill="midnightblue" stroke="midnightblue" points="3755.79,-144.1 3746.04,-148.24 3756.24,-151.09 3755.79,-144.1"/>
</g>
<!-- Node45 -->
<g id="node40" class="node">
<title>Node45</title>
<g id="a_node40"><a xlink:href="../../d7/d1b/pen__toolbar_8cpp.html" target="_top" xlink:title=" ">
<polygon fill="white" stroke="black" points="4427,-67.5 4427,-97.5 4546,-97.5 4546,-67.5 4427,-67.5"/>
<text text-anchor="start" x="4435" y="-85.5" font-family="Helvetica,sans-Serif" font-size="10.00">src/libs/vwidgets/pen</text>
<text text-anchor="middle" x="4486.5" y="-74.5" font-family="Helvetica,sans-Serif" font-size="10.00">_toolbar.cpp</text>
</a>
</g>
</g>
<!-- Node18&#45;&gt;Node45 -->
<g id="edge45" class="edge">
<title>Node18&#45;&gt;Node45</title>
<path fill="none" stroke="midnightblue" d="M3756.14,-150.73C3905.29,-145.15 4182.97,-131.03 4417.5,-98 4420.53,-97.57 4423.63,-97.09 4426.75,-96.57"/>
<polygon fill="midnightblue" stroke="midnightblue" points="3755.92,-147.23 3746.06,-151.1 3756.18,-154.23 3755.92,-147.23"/>
</g>
<!-- Node46 -->
<g id="node41" class="node">
<title>Node46</title>
<g id="a_node41"><a xlink:href="../../d8/d76/scene__rect_8cpp.html" target="_top" xlink:title=" ">
<polygon fill="white" stroke="black" points="4564.5,-67.5 4564.5,-97.5 4694.5,-97.5 4694.5,-67.5 4564.5,-67.5"/>
<text text-anchor="start" x="4572.5" y="-85.5" font-family="Helvetica,sans-Serif" font-size="10.00">src/libs/vwidgets/scene</text>
<text text-anchor="middle" x="4629.5" y="-74.5" font-family="Helvetica,sans-Serif" font-size="10.00">_rect.cpp</text>
</a>
</g>
</g>
<!-- Node18&#45;&gt;Node46 -->
<g id="edge46" class="edge">
<title>Node18&#45;&gt;Node46</title>
<path fill="none" stroke="midnightblue" d="M3756.31,-151.84C3926.51,-147.41 4267.62,-134.44 4554.5,-98 4557.66,-97.6 4560.88,-97.15 4564.13,-96.65"/>
<polygon fill="midnightblue" stroke="midnightblue" points="3756,-148.34 3746.09,-152.1 3756.18,-155.34 3756,-148.34"/>
</g>
<!-- Node47 -->
<g id="node42" class="node">
<title>Node47</title>
<g id="a_node42"><a xlink:href="../../dd/df6/vabstractmainwindow_8cpp.html" target="_top" xlink:title=" ">
<polygon fill="white" stroke="black" points="4713,-73 4713,-92 4942,-92 4942,-73 4713,-73"/>
<text text-anchor="middle" x="4827.5" y="-80" font-family="Helvetica,sans-Serif" font-size="10.00">src/libs/vwidgets/vabstractmainwindow.cpp</text>
</a>
</g>
</g>
<!-- Node18&#45;&gt;Node47 -->
<g id="edge47" class="edge">
<title>Node18&#45;&gt;Node47</title>
<path fill="none" stroke="midnightblue" d="M3756.13,-150.54C3947.15,-143.9 4357.87,-127.35 4703.5,-98 4722.29,-96.4 4742.63,-94.22 4761.3,-92.03"/>
<polygon fill="midnightblue" stroke="midnightblue" points="3755.97,-147.04 3746.09,-150.89 3756.21,-154.04 3755.97,-147.04"/>
</g>
<!-- Node48 -->
<g id="node43" class="node">
<title>Node48</title>
<g id="a_node43"><a xlink:href="../../d1/d90/vgrainlineitem_8cpp.html" target="_top" xlink:title=" ">
<polygon fill="white" stroke="black" points="4960,-73 4960,-92 5153,-92 5153,-73 4960,-73"/>
<text text-anchor="middle" x="5056.5" y="-80" font-family="Helvetica,sans-Serif" font-size="10.00">src/libs/vwidgets/vgrainlineitem.cpp</text>
</a>
</g>
</g>
<!-- Node18&#45;&gt;Node48 -->
<g id="edge48" class="edge">
<title>Node18&#45;&gt;Node48</title>
<path fill="none" stroke="midnightblue" d="M3756.37,-152.75C3979.66,-149.41 4508.57,-137.64 4950.5,-98 4967.06,-96.51 4984.99,-94.3 5001.32,-92.04"/>
<polygon fill="midnightblue" stroke="midnightblue" points="3756.24,-149.25 3746.29,-152.9 3756.35,-156.25 3756.24,-149.25"/>
</g>
<!-- Node49 -->
<g id="node44" class="node">
<title>Node49</title>
<g id="a_node44"><a xlink:href="../../de/dec/vgraphicssimpletextitem_8cpp.html" target="_top" xlink:title=" ">
<polygon fill="white" stroke="black" points="5171.5,-73 5171.5,-92 5415.5,-92 5415.5,-73 5171.5,-73"/>
<text text-anchor="middle" x="5293.5" y="-80" font-family="Helvetica,sans-Serif" font-size="10.00">src/libs/vwidgets/vgraphicssimpletextitem.cpp</text>
</a>
</g>
</g>
<!-- Node18&#45;&gt;Node49 -->
<g id="edge49" class="edge">
<title>Node18&#45;&gt;Node49</title>
<path fill="none" stroke="midnightblue" d="M3756.54,-152.69C4004.92,-149.08 4635.64,-136.56 5161.5,-98 5182.08,-96.49 5204.4,-94.26 5224.74,-92.01"/>
<polygon fill="midnightblue" stroke="midnightblue" points="3756.38,-149.19 3746.43,-152.83 3756.48,-156.19 3756.38,-149.19"/>
</g>
<!-- Node27&#45;&gt;Node28 -->
<g id="edge26" class="edge">
<title>Node27&#45;&gt;Node28</title>
<path fill="none" stroke="midnightblue" d="M2669.22,-58.87C2663.29,-49.46 2656.59,-38.83 2651.38,-30.58"/>
<polygon fill="midnightblue" stroke="midnightblue" points="2666.31,-60.81 2674.6,-67.4 2672.23,-57.07 2666.31,-60.81"/>
</g>
<!-- Node38&#45;&gt;Node39 -->
<g id="edge39" class="edge">
<title>Node38&#45;&gt;Node39</title>
<path fill="none" stroke="midnightblue" d="M3837.08,-67.11C4161.93,-21.75 4541.61,-16.65 4679.86,-16.35"/>
<polygon fill="midnightblue" stroke="midnightblue" points="3836.41,-63.67 3827,-68.54 3837.39,-70.6 3836.41,-63.67"/>
</g>
<!-- Node59&#45;&gt;Node2 -->
<g id="edge52" class="edge">
<title>Node59&#45;&gt;Node2</title>
<path fill="none" stroke="midnightblue" d="M352.87,-138.15C289.83,-125.9 203.43,-109.12 143.07,-97.4"/>
<polygon fill="midnightblue" stroke="midnightblue" points="352.3,-141.6 362.78,-140.07 353.63,-134.73 352.3,-141.6"/>
</g>
</g>
</svg>
