<?xml version="1.0" encoding="UTF-8" standalone="no"?>
<!DOCTYPE svg PUBLIC "-//W3C//DTD SVG 1.1//EN"
 "http://www.w3.org/Graphics/SVG/1.1/DTD/svg11.dtd">
<!-- Generated by graphviz version 2.43.0 (0)
 -->
<!-- Title: src/libs/vlayout/vbank.h Pages: 1 -->
<svg width="6156pt" height="341pt"
 viewBox="0.00 0.00 6156.00 341.00" xmlns="http://www.w3.org/2000/svg" xmlns:xlink="http://www.w3.org/1999/xlink">
<g id="graph0" class="graph" transform="scale(1 1) rotate(0) translate(4 337)">
<title>src/libs/vlayout/vbank.h</title>
<polygon fill="white" stroke="transparent" points="-4,4 -4,-337 6152,-337 6152,4 -4,4"/>
<!-- Node1 -->
<g id="node1" class="node">
<title>Node1</title>
<g id="a_node1"><a xlink:title=" ">
<polygon fill="#bfbfbf" stroke="black" points="2907,-313.5 2907,-332.5 3040,-332.5 3040,-313.5 2907,-313.5"/>
<text text-anchor="middle" x="2973.5" y="-320.5" font-family="Helvetica,sans-Serif" font-size="10.00">src/libs/vlayout/vbank.h</text>
</a>
</g>
</g>
<!-- Node2 -->
<g id="node2" class="node">
<title>Node2</title>
<g id="a_node2"><a xlink:href="../../de/da8/vbank_8cpp.html" target="_top" xlink:title=" ">
<polygon fill="white" stroke="black" points="2617.5,-257.5 2617.5,-276.5 2761.5,-276.5 2761.5,-257.5 2617.5,-257.5"/>
<text text-anchor="middle" x="2689.5" y="-264.5" font-family="Helvetica,sans-Serif" font-size="10.00">src/libs/vlayout/vbank.cpp</text>
</a>
</g>
</g>
<!-- Node1&#45;&gt;Node2 -->
<g id="edge1" class="edge">
<title>Node1&#45;&gt;Node2</title>
<path fill="none" stroke="midnightblue" d="M2918.47,-311.54C2864.8,-301.33 2784.16,-286 2734.29,-276.52"/>
<polygon fill="midnightblue" stroke="midnightblue" points="2918.02,-315.01 2928.5,-313.44 2919.33,-308.14 2918.02,-315.01"/>
</g>
<!-- Node3 -->
<g id="node3" class="node">
<title>Node3</title>
<g id="a_node3"><a xlink:href="../../dc/d3c/vlayoutgenerator_8h.html" target="_top" xlink:title=" ">
<polygon fill="white" stroke="black" points="2779.5,-257.5 2779.5,-276.5 2965.5,-276.5 2965.5,-257.5 2779.5,-257.5"/>
<text text-anchor="middle" x="2872.5" y="-264.5" font-family="Helvetica,sans-Serif" font-size="10.00">src/libs/vlayout/vlayoutgenerator.h</text>
</a>
</g>
</g>
<!-- Node1&#45;&gt;Node3 -->
<g id="edge2" class="edge">
<title>Node1&#45;&gt;Node3</title>
<path fill="none" stroke="midnightblue" d="M2948.42,-308.59C2929.74,-298.61 2904.8,-285.27 2888.69,-276.65"/>
<polygon fill="midnightblue" stroke="midnightblue" points="2946.8,-311.7 2957.27,-313.32 2950.1,-305.52 2946.8,-311.7"/>
</g>
<!-- Node5 -->
<g id="node5" class="node">
<title>Node5</title>
<g id="a_node5"><a xlink:href="../../d4/d5c/vcommonsettings_8h.html" target="_top" xlink:title=" ">
<polygon fill="white" stroke="black" points="2984,-257.5 2984,-276.5 3167,-276.5 3167,-257.5 2984,-257.5"/>
<text text-anchor="middle" x="3075.5" y="-264.5" font-family="Helvetica,sans-Serif" font-size="10.00">src/libs/vmisc/vcommonsettings.h</text>
</a>
</g>
</g>
<!-- Node1&#45;&gt;Node5 -->
<g id="edge4" class="edge">
<title>Node1&#45;&gt;Node5</title>
<path fill="none" stroke="midnightblue" d="M2998.83,-308.59C3017.69,-298.61 3042.88,-285.27 3059.15,-276.65"/>
<polygon fill="midnightblue" stroke="midnightblue" points="2997.09,-305.55 2989.89,-313.32 3000.36,-311.74 2997.09,-305.55"/>
</g>
<!-- Node50 -->
<g id="node46" class="node">
<title>Node50</title>
<g id="a_node46"><a xlink:href="../../dd/db2/vsettings_8h.html" target="_top" xlink:title=" ">
<polygon fill="white" stroke="black" points="5163.5,-201.5 5163.5,-220.5 5303.5,-220.5 5303.5,-201.5 5163.5,-201.5"/>
<text text-anchor="middle" x="5233.5" y="-208.5" font-family="Helvetica,sans-Serif" font-size="10.00">src/libs/vmisc/vsettings.h</text>
</a>
</g>
</g>
<!-- Node1&#45;&gt;Node50 -->
<g id="edge63" class="edge">
<title>Node1&#45;&gt;Node50</title>
<path fill="none" stroke="midnightblue" d="M3050.6,-318.58C3325.89,-306.31 4286.27,-263.01 5078.5,-221 5106.22,-219.53 5136.73,-217.79 5163.29,-216.23"/>
<polygon fill="midnightblue" stroke="midnightblue" points="3050.15,-315.1 3040.32,-319.04 3050.46,-322.09 3050.15,-315.1"/>
</g>
<!-- Node4 -->
<g id="node4" class="node">
<title>Node4</title>
<g id="a_node4"><a xlink:href="../../d3/d39/vlayoutgenerator_8cpp.html" target="_top" xlink:title=" ">
<polygon fill="white" stroke="black" points="2397,-201.5 2397,-220.5 2594,-220.5 2594,-201.5 2397,-201.5"/>
<text text-anchor="middle" x="2495.5" y="-208.5" font-family="Helvetica,sans-Serif" font-size="10.00">src/libs/vlayout/vlayoutgenerator.cpp</text>
</a>
</g>
</g>
<!-- Node3&#45;&gt;Node4 -->
<g id="edge3" class="edge">
<title>Node3&#45;&gt;Node4</title>
<path fill="none" stroke="midnightblue" d="M2802.54,-255.98C2731.33,-245.78 2622.12,-230.14 2554.96,-220.52"/>
<polygon fill="midnightblue" stroke="midnightblue" points="2802.37,-259.49 2812.76,-257.44 2803.36,-252.56 2802.37,-259.49"/>
</g>
<!-- Node6 -->
<g id="node6" class="node">
<title>Node6</title>
<g id="a_node6"><a xlink:href="../../d4/d90/fvupdater_8cpp.html" target="_top" xlink:title=" ">
<polygon fill="white" stroke="black" points="541,-73 541,-92 694,-92 694,-73 541,-73"/>
<text text-anchor="middle" x="617.5" y="-80" font-family="Helvetica,sans-Serif" font-size="10.00">src/libs/fervor/fvupdater.cpp</text>
</a>
</g>
</g>
<!-- Node5&#45;&gt;Node6 -->
<g id="edge5" class="edge">
<title>Node5&#45;&gt;Node6</title>
<path fill="none" stroke="midnightblue" d="M2990.96,-256.25C2910.61,-246.47 2799.43,-231.41 2781.5,-221 2738.82,-196.22 2756.74,-155.87 2712.5,-134 2612.38,-84.51 813.7,-108.42 702.5,-98 688.64,-96.7 673.63,-94.43 660.14,-92.07"/>
<polygon fill="midnightblue" stroke="midnightblue" points="2990.74,-259.75 3001.09,-257.48 2991.58,-252.8 2990.74,-259.75"/>
</g>
<!-- Node7 -->
<g id="node7" class="node">
<title>Node7</title>
<g id="a_node7"><a xlink:href="../../dd/d70/vlayoutpiece_8cpp.html" target="_top" xlink:title=" ">
<polygon fill="white" stroke="black" points="5177,-73 5177,-92 5354,-92 5354,-73 5177,-73"/>
<text text-anchor="middle" x="5265.5" y="-80" font-family="Helvetica,sans-Serif" font-size="10.00">src/libs/vlayout/vlayoutpiece.cpp</text>
</a>
</g>
</g>
<!-- Node5&#45;&gt;Node7 -->
<g id="edge6" class="edge">
<title>Node5&#45;&gt;Node7</title>
<path fill="none" stroke="midnightblue" d="M3110.57,-254.28C3155.01,-239.84 3234.15,-215.44 3303.5,-201 3523.43,-155.2 3580.56,-151.88 3804.5,-134 4409.01,-85.74 4564.38,-150.93 5168.5,-98 5184.11,-96.63 5201.02,-94.38 5216.29,-92.04"/>
<polygon fill="midnightblue" stroke="midnightblue" points="3109.26,-251.03 3100.84,-257.47 3111.44,-257.68 3109.26,-251.03"/>
</g>
<!-- Node8 -->
<g id="node8" class="node">
<title>Node8</title>
<g id="a_node8"><a xlink:href="../../d5/d74/vabstractapplication_8h.html" target="_top" xlink:title=" ">
<polygon fill="white" stroke="black" points="3062,-140 3062,-159 3257,-159 3257,-140 3062,-140"/>
<text text-anchor="middle" x="3159.5" y="-147" font-family="Helvetica,sans-Serif" font-size="10.00">src/libs/vmisc/vabstractapplication.h</text>
</a>
</g>
</g>
<!-- Node5&#45;&gt;Node8 -->
<g id="edge7" class="edge">
<title>Node5&#45;&gt;Node8</title>
<path fill="none" stroke="midnightblue" d="M3087.74,-249.17C3105.86,-224.26 3139.18,-178.44 3153.11,-159.28"/>
<polygon fill="midnightblue" stroke="midnightblue" points="3084.86,-247.17 3081.81,-257.32 3090.53,-251.29 3084.86,-247.17"/>
</g>
<!-- Node27 -->
<g id="node23" class="node">
<title>Node27</title>
<g id="a_node23"><a xlink:href="../../db/d11/vformula_8cpp.html" target="_top" xlink:title=" ">
<polygon fill="white" stroke="black" points="5372,-67.5 5372,-97.5 5479,-97.5 5479,-67.5 5372,-67.5"/>
<text text-anchor="start" x="5380" y="-85.5" font-family="Helvetica,sans-Serif" font-size="10.00">src/libs/vpatterndb</text>
<text text-anchor="middle" x="5425.5" y="-74.5" font-family="Helvetica,sans-Serif" font-size="10.00">/vformula.cpp</text>
</a>
</g>
</g>
<!-- Node5&#45;&gt;Node27 -->
<g id="edge55" class="edge">
<title>Node5&#45;&gt;Node27</title>
<path fill="none" stroke="midnightblue" d="M3177.33,-257.95C3266.7,-250.33 3400.05,-237.58 3515.5,-221 3725.35,-190.86 3773.66,-156.17 3984.5,-134 4594.24,-69.89 4755.41,-176.21 5363.5,-98 5366.24,-97.65 5369.04,-97.23 5371.85,-96.75"/>
<polygon fill="midnightblue" stroke="midnightblue" points="3176.87,-254.48 3167.2,-258.81 3177.46,-261.46 3176.87,-254.48"/>
</g>
<!-- Node29 -->
<g id="node25" class="node">
<title>Node29</title>
<g id="a_node25"><a xlink:href="../../df/dba/vpiecenode__p_8h.html" target="_top" xlink:title=" ">
<polygon fill="white" stroke="black" points="5497,-67.5 5497,-97.5 5604,-97.5 5604,-67.5 5497,-67.5"/>
<text text-anchor="start" x="5505" y="-85.5" font-family="Helvetica,sans-Serif" font-size="10.00">src/libs/vpatterndb</text>
<text text-anchor="middle" x="5550.5" y="-74.5" font-family="Helvetica,sans-Serif" font-size="10.00">/vpiecenode_p.h</text>
</a>
</g>
</g>
<!-- Node5&#45;&gt;Node29 -->
<g id="edge56" class="edge">
<title>Node5&#45;&gt;Node29</title>
<path fill="none" stroke="midnightblue" d="M3177.49,-259.36C3621.93,-230.35 5372.56,-115.48 5488.5,-98 5491.23,-97.59 5494.02,-97.12 5496.83,-96.61"/>
<polygon fill="midnightblue" stroke="midnightblue" points="3176.98,-255.88 3167.23,-260.03 3177.44,-262.87 3176.98,-255.88"/>
</g>
<!-- Node32 -->
<g id="node28" class="node">
<title>Node32</title>
<g id="a_node28"><a xlink:href="../../df/d40/export__format__combobox_8cpp.html" target="_top" xlink:title=" ">
<polygon fill="white" stroke="black" points="0,-67.5 0,-97.5 133,-97.5 133,-67.5 0,-67.5"/>
<text text-anchor="start" x="8" y="-85.5" font-family="Helvetica,sans-Serif" font-size="10.00">src/libs/vwidgets/export</text>
<text text-anchor="middle" x="66.5" y="-74.5" font-family="Helvetica,sans-Serif" font-size="10.00">_format_combobox.cpp</text>
</a>
</g>
</g>
<!-- Node5&#45;&gt;Node32 -->
<g id="edge57" class="edge">
<title>Node5&#45;&gt;Node32</title>
<path fill="none" stroke="midnightblue" d="M2978.32,-256.45C2902.66,-248.5 2795.12,-236.06 2701.5,-221 2657.18,-213.87 2647.06,-206.4 2602.5,-201 1515.71,-69.31 1228.83,-225.14 141.5,-98 138.73,-97.68 135.92,-97.31 133.08,-96.91"/>
<polygon fill="midnightblue" stroke="midnightblue" points="2978.01,-259.94 2988.32,-257.5 2978.74,-252.98 2978.01,-259.94"/>
</g>
<!-- Node34 -->
<g id="node30" class="node">
<title>Node34</title>
<g id="a_node30"><a xlink:href="../../d2/d28/page__format__combobox_8cpp.html" target="_top" xlink:title=" ">
<polygon fill="white" stroke="black" points="151,-67.5 151,-97.5 282,-97.5 282,-67.5 151,-67.5"/>
<text text-anchor="start" x="159" y="-85.5" font-family="Helvetica,sans-Serif" font-size="10.00">src/libs/vwidgets/page</text>
<text text-anchor="middle" x="216.5" y="-74.5" font-family="Helvetica,sans-Serif" font-size="10.00">_format_combobox.cpp</text>
</a>
</g>
</g>
<!-- Node5&#45;&gt;Node34 -->
<g id="edge58" class="edge">
<title>Node5&#45;&gt;Node34</title>
<path fill="none" stroke="midnightblue" d="M2977.81,-256.45C2883.14,-246.7 2750.67,-231.53 2728.5,-221 2703.08,-208.93 2662.56,-144.6 2636.5,-134 2515.81,-84.9 421.1,-111.42 291.5,-98 288.47,-97.69 285.37,-97.31 282.25,-96.89"/>
<polygon fill="midnightblue" stroke="midnightblue" points="2977.7,-259.96 2988,-257.5 2978.41,-252.99 2977.7,-259.96"/>
</g>
<!-- Node39 -->
<g id="node35" class="node">
<title>Node39</title>
<g id="a_node35"><a xlink:href="../../d1/d88/vmaingraphicsscene_8cpp.html" target="_top" xlink:title=" ">
<polygon fill="white" stroke="black" points="300.5,-73 300.5,-92 522.5,-92 522.5,-73 300.5,-73"/>
<text text-anchor="middle" x="411.5" y="-80" font-family="Helvetica,sans-Serif" font-size="10.00">src/libs/vwidgets/vmaingraphicsscene.cpp</text>
</a>
</g>
</g>
<!-- Node5&#45;&gt;Node39 -->
<g id="edge59" class="edge">
<title>Node5&#45;&gt;Node39</title>
<path fill="none" stroke="midnightblue" d="M2985.16,-256.35C2898.05,-246.55 2776.54,-231.37 2756.5,-221 2709.31,-196.58 2723.11,-155.47 2674.5,-134 2565.58,-85.89 650.29,-106.15 531.5,-98 512.03,-96.66 490.87,-94.38 471.82,-92.02"/>
<polygon fill="midnightblue" stroke="midnightblue" points="2985.01,-259.85 2995.34,-257.49 2985.79,-252.9 2985.01,-259.85"/>
</g>
<!-- Node42 -->
<g id="node38" class="node">
<title>Node42</title>
<g id="a_node38"><a xlink:href="../../d2/d31/vmaingraphicsview_8cpp.html" target="_top" xlink:title=" ">
<polygon fill="white" stroke="black" points="5622.5,-73 5622.5,-92 5838.5,-92 5838.5,-73 5622.5,-73"/>
<text text-anchor="middle" x="5730.5" y="-80" font-family="Helvetica,sans-Serif" font-size="10.00">src/libs/vwidgets/vmaingraphicsview.cpp</text>
</a>
</g>
</g>
<!-- Node5&#45;&gt;Node42 -->
<g id="edge60" class="edge">
<title>Node5&#45;&gt;Node42</title>
<path fill="none" stroke="midnightblue" d="M3177.3,-260.87C3336.8,-252.77 3655.35,-236.36 3925.5,-221 4676.5,-178.29 4865.45,-177 5613.5,-98 5630.29,-96.23 5648.41,-94.09 5665.26,-92.01"/>
<polygon fill="midnightblue" stroke="midnightblue" points="3176.83,-257.39 3167.02,-261.39 3177.19,-264.38 3176.83,-257.39"/>
</g>
<!-- Node44 -->
<g id="node40" class="node">
<title>Node44</title>
<g id="a_node40"><a xlink:href="../../d1/d90/vgrainlineitem_8cpp.html" target="_top" xlink:title=" ">
<polygon fill="white" stroke="black" points="712,-73 712,-92 905,-92 905,-73 712,-73"/>
<text text-anchor="middle" x="808.5" y="-80" font-family="Helvetica,sans-Serif" font-size="10.00">src/libs/vwidgets/vgrainlineitem.cpp</text>
</a>
</g>
</g>
<!-- Node5&#45;&gt;Node44 -->
<g id="edge61" class="edge">
<title>Node5&#45;&gt;Node44</title>
<path fill="none" stroke="midnightblue" d="M2994.45,-256.15C2919.8,-246.51 2818.29,-231.75 2802.5,-221 2765.26,-195.65 2789.46,-156.61 2750.5,-134 2662.21,-82.77 1015.26,-106 913.5,-98 896.44,-96.66 877.92,-94.38 861.25,-92.02"/>
<polygon fill="midnightblue" stroke="midnightblue" points="2994.42,-259.67 3004.79,-257.47 2995.31,-252.73 2994.42,-259.67"/>
</g>
<!-- Node46 -->
<g id="node42" class="node">
<title>Node46</title>
<g id="a_node42"><a xlink:href="../../df/df5/vtextgraphicsitem_8cpp.html" target="_top" xlink:title=" ">
<polygon fill="white" stroke="black" points="923,-73 923,-92 1134,-92 1134,-73 923,-73"/>
<text text-anchor="middle" x="1028.5" y="-80" font-family="Helvetica,sans-Serif" font-size="10.00">src/libs/vwidgets/vtextgraphicsitem.cpp</text>
</a>
</g>
</g>
<!-- Node5&#45;&gt;Node46 -->
<g id="edge62" class="edge">
<title>Node5&#45;&gt;Node46</title>
<path fill="none" stroke="midnightblue" d="M3073.08,-247.22C3068.1,-217.3 3053.67,-159.58 3014.5,-134 2970.96,-105.56 1194.37,-101.79 1142.5,-98 1123.99,-96.65 1103.89,-94.37 1085.79,-92.01"/>
<polygon fill="midnightblue" stroke="midnightblue" points="3069.63,-247.82 3074.55,-257.2 3076.55,-246.8 3069.63,-247.82"/>
</g>
<!-- Node47 -->
<g id="node43" class="node">
<title>Node47</title>
<g id="a_node43"><a xlink:href="../../df/da4/vseamlymesettings_8h.html" target="_top" xlink:title=" ">
<polygon fill="white" stroke="black" points="2811.5,-201.5 2811.5,-220.5 3003.5,-220.5 3003.5,-201.5 2811.5,-201.5"/>
<text text-anchor="middle" x="2907.5" y="-208.5" font-family="Helvetica,sans-Serif" font-size="10.00">src/libs/vmisc/vseamlymesettings.h</text>
</a>
</g>
</g>
<!-- Node5&#45;&gt;Node47 -->
<g id="edge45" class="edge">
<title>Node5&#45;&gt;Node47</title>
<path fill="none" stroke="midnightblue" d="M3039.11,-254.3C3007.46,-244.13 2962.33,-229.62 2934,-220.52"/>
<polygon fill="midnightblue" stroke="midnightblue" points="3038.29,-257.72 3048.88,-257.44 3040.43,-251.05 3038.29,-257.72"/>
</g>
<!-- Node49 -->
<g id="node45" class="node">
<title>Node49</title>
<g id="a_node45"><a xlink:href="../../d4/d11/vcommonsettings_8cpp.html" target="_top" xlink:title=" ">
<polygon fill="white" stroke="black" points="3312.5,-201.5 3312.5,-220.5 3506.5,-220.5 3506.5,-201.5 3312.5,-201.5"/>
<text text-anchor="middle" x="3409.5" y="-208.5" font-family="Helvetica,sans-Serif" font-size="10.00">src/libs/vmisc/vcommonsettings.cpp</text>
</a>
</g>
</g>
<!-- Node5&#45;&gt;Node49 -->
<g id="edge47" class="edge">
<title>Node5&#45;&gt;Node49</title>
<path fill="none" stroke="midnightblue" d="M3138.65,-255.79C3201.76,-245.59 3297.68,-230.08 3356.82,-220.52"/>
<polygon fill="midnightblue" stroke="midnightblue" points="3137.74,-252.39 3128.42,-257.44 3138.85,-259.3 3137.74,-252.39"/>
</g>
<!-- Node5&#45;&gt;Node50 -->
<g id="edge48" class="edge">
<title>Node5&#45;&gt;Node50</title>
<path fill="none" stroke="midnightblue" d="M3177.35,-264.99C3471.91,-261.79 4350.12,-250.32 5078.5,-221 5106.24,-219.88 5136.75,-218.21 5163.31,-216.61"/>
<polygon fill="midnightblue" stroke="midnightblue" points="3177.08,-261.49 3167.12,-265.1 3177.16,-268.49 3177.08,-261.49"/>
</g>
<!-- Node8&#45;&gt;Node6 -->
<g id="edge8" class="edge">
<title>Node8&#45;&gt;Node6</title>
<path fill="none" stroke="midnightblue" d="M3076.44,-138.98C3056.2,-137 3034.59,-135.16 3014.5,-134 2501.51,-104.41 1214.15,-145.34 702.5,-98 688.49,-96.7 673.31,-94.4 659.7,-92.01"/>
<polygon fill="midnightblue" stroke="midnightblue" points="3076.27,-142.48 3086.57,-140 3076.97,-135.52 3076.27,-142.48"/>
</g>
<!-- Node8&#45;&gt;Node7 -->
<g id="edge18" class="edge">
<title>Node8&#45;&gt;Node7</title>
<path fill="none" stroke="midnightblue" d="M3225.37,-138.67C3240.19,-136.8 3255.86,-135.09 3270.5,-134 4111.87,-71.26 4327.74,-168.52 5168.5,-98 5184.28,-96.68 5201.4,-94.4 5216.8,-92.04"/>
<polygon fill="midnightblue" stroke="midnightblue" points="3224.74,-135.22 3215.27,-139.99 3225.64,-142.17 3224.74,-135.22"/>
</g>
<!-- Node9 -->
<g id="node9" class="node">
<title>Node9</title>
<g id="a_node9"><a xlink:href="../../d9/dc8/dxiface_8cpp.html" target="_top" xlink:title=" ">
<polygon fill="white" stroke="black" points="2504,-73 2504,-92 2639,-92 2639,-73 2504,-73"/>
<text text-anchor="middle" x="2571.5" y="-80" font-family="Helvetica,sans-Serif" font-size="10.00">src/libs/vdxf/dxiface.cpp</text>
</a>
</g>
</g>
<!-- Node8&#45;&gt;Node9 -->
<g id="edge9" class="edge">
<title>Node8&#45;&gt;Node9</title>
<path fill="none" stroke="midnightblue" d="M3087.36,-138.65C3074.43,-137 3061.08,-135.39 3048.5,-134 2870.64,-114.41 2824.71,-122.8 2647.5,-98 2636.06,-96.4 2623.73,-94.24 2612.4,-92.07"/>
<polygon fill="midnightblue" stroke="midnightblue" points="3087.25,-142.16 3097.61,-139.97 3088.14,-135.22 3087.25,-142.16"/>
</g>
<!-- Node10 -->
<g id="node10" class="node">
<title>Node10</title>
<g id="a_node10"><a xlink:href="../../da/d75/vabstractarc__p_8h.html" target="_top" xlink:title=" ">
<polygon fill="white" stroke="red" points="2657,-67.5 2657,-97.5 2764,-97.5 2764,-67.5 2657,-67.5"/>
<text text-anchor="start" x="2665" y="-85.5" font-family="Helvetica,sans-Serif" font-size="10.00">src/libs/vgeometry</text>
<text text-anchor="middle" x="2710.5" y="-74.5" font-family="Helvetica,sans-Serif" font-size="10.00">/vabstractarc_p.h</text>
</a>
</g>
</g>
<!-- Node8&#45;&gt;Node10 -->
<g id="edge10" class="edge">
<title>Node8&#45;&gt;Node10</title>
<path fill="none" stroke="midnightblue" d="M3084.36,-138.68C3072.37,-137.12 3060.09,-135.51 3048.5,-134 2925.83,-117.99 2894.21,-120.11 2772.5,-98 2769.78,-97.51 2767,-96.97 2764.2,-96.41"/>
<polygon fill="midnightblue" stroke="midnightblue" points="3083.98,-142.16 3094.35,-139.99 3084.89,-135.22 3083.98,-142.16"/>
</g>
<!-- Node12 -->
<g id="node11" class="node">
<title>Node12</title>
<g id="a_node11"><a xlink:href="../../dc/da3/varc__p_8h.html" target="_top" xlink:title=" ">
<polygon fill="white" stroke="red" points="2782,-67.5 2782,-97.5 2889,-97.5 2889,-67.5 2782,-67.5"/>
<text text-anchor="start" x="2790" y="-85.5" font-family="Helvetica,sans-Serif" font-size="10.00">src/libs/vgeometry</text>
<text text-anchor="middle" x="2835.5" y="-74.5" font-family="Helvetica,sans-Serif" font-size="10.00">/varc_p.h</text>
</a>
</g>
</g>
<!-- Node8&#45;&gt;Node12 -->
<g id="edge11" class="edge">
<title>Node8&#45;&gt;Node12</title>
<path fill="none" stroke="midnightblue" d="M3102.14,-138.11C3048.97,-128.33 2967.73,-112.97 2897.5,-98 2894.8,-97.42 2892.03,-96.82 2889.24,-96.2"/>
<polygon fill="midnightblue" stroke="midnightblue" points="3101.59,-141.57 3112.06,-139.94 3102.85,-134.69 3101.59,-141.57"/>
</g>
<!-- Node14 -->
<g id="node12" class="node">
<title>Node14</title>
<g id="a_node12"><a xlink:href="../../d5/d8e/vcubicbezier__p_8h.html" target="_top" xlink:title=" ">
<polygon fill="white" stroke="red" points="2907,-67.5 2907,-97.5 3014,-97.5 3014,-67.5 2907,-67.5"/>
<text text-anchor="start" x="2915" y="-85.5" font-family="Helvetica,sans-Serif" font-size="10.00">src/libs/vgeometry</text>
<text text-anchor="middle" x="2960.5" y="-74.5" font-family="Helvetica,sans-Serif" font-size="10.00">/vcubicbezier_p.h</text>
</a>
</g>
</g>
<!-- Node8&#45;&gt;Node14 -->
<g id="edge12" class="edge">
<title>Node8&#45;&gt;Node14</title>
<path fill="none" stroke="midnightblue" d="M3123.17,-136.63C3089.43,-125.61 3039.16,-109.19 3003.45,-97.53"/>
<polygon fill="midnightblue" stroke="midnightblue" points="3122.48,-140.09 3133.07,-139.87 3124.66,-133.44 3122.48,-140.09"/>
</g>
<!-- Node16 -->
<g id="node13" class="node">
<title>Node16</title>
<g id="a_node13"><a xlink:href="../../df/dde/vellipticalarc__p_8h.html" target="_top" xlink:title=" ">
<polygon fill="white" stroke="black" points="3071,-67.5 3071,-97.5 3178,-97.5 3178,-67.5 3071,-67.5"/>
<text text-anchor="start" x="3079" y="-85.5" font-family="Helvetica,sans-Serif" font-size="10.00">src/libs/vgeometry</text>
<text text-anchor="middle" x="3124.5" y="-74.5" font-family="Helvetica,sans-Serif" font-size="10.00">/vellipticalarc_p.h</text>
</a>
</g>
</g>
<!-- Node8&#45;&gt;Node16 -->
<g id="edge13" class="edge">
<title>Node8&#45;&gt;Node16</title>
<path fill="none" stroke="midnightblue" d="M3149.92,-130.71C3144.31,-120.29 3137.32,-107.3 3132.09,-97.59"/>
<polygon fill="midnightblue" stroke="midnightblue" points="3146.96,-132.59 3154.78,-139.73 3153.12,-129.27 3146.96,-132.59"/>
</g>
<!-- Node17 -->
<g id="node14" class="node">
<title>Node17</title>
<g id="a_node14"><a xlink:href="../../d6/dfb/vellipticalarc_8cpp.html" target="_top" xlink:title=" ">
<polygon fill="white" stroke="black" points="3030,-0.5 3030,-30.5 3137,-30.5 3137,-0.5 3030,-0.5"/>
<text text-anchor="start" x="3038" y="-18.5" font-family="Helvetica,sans-Serif" font-size="10.00">src/libs/vgeometry</text>
<text text-anchor="middle" x="3083.5" y="-7.5" font-family="Helvetica,sans-Serif" font-size="10.00">/vellipticalarc.cpp</text>
</a>
</g>
</g>
<!-- Node8&#45;&gt;Node17 -->
<g id="edge15" class="edge">
<title>Node8&#45;&gt;Node17</title>
<path fill="none" stroke="midnightblue" d="M3113.76,-136.33C3094.42,-128.68 3073.79,-116.61 3062.5,-98 3049.61,-76.76 3063.1,-47.79 3073.62,-30.72"/>
<polygon fill="midnightblue" stroke="midnightblue" points="3112.81,-139.71 3123.4,-139.84 3115.2,-133.13 3112.81,-139.71"/>
</g>
<!-- Node18 -->
<g id="node15" class="node">
<title>Node18</title>
<g id="a_node15"><a xlink:href="../../d1/d76/vspline__p_8h.html" target="_top" xlink:title=" ">
<polygon fill="white" stroke="red" points="3196,-67.5 3196,-97.5 3303,-97.5 3303,-67.5 3196,-67.5"/>
<text text-anchor="start" x="3204" y="-85.5" font-family="Helvetica,sans-Serif" font-size="10.00">src/libs/vgeometry</text>
<text text-anchor="middle" x="3249.5" y="-74.5" font-family="Helvetica,sans-Serif" font-size="10.00">/vspline_p.h</text>
</a>
</g>
</g>
<!-- Node8&#45;&gt;Node18 -->
<g id="edge16" class="edge">
<title>Node8&#45;&gt;Node18</title>
<path fill="none" stroke="midnightblue" d="M3179.79,-133.85C3194.81,-123 3215.16,-108.3 3229.99,-97.59"/>
<polygon fill="midnightblue" stroke="midnightblue" points="3177.7,-131.04 3171.64,-139.73 3181.79,-136.72 3177.7,-131.04"/>
</g>
<!-- Node20 -->
<g id="node16" class="node">
<title>Node20</title>
<g id="a_node16"><a xlink:href="../../d9/d15/vabstractpiece_8cpp.html" target="_top" xlink:title=" ">
<polygon fill="white" stroke="black" points="3321.5,-73 3321.5,-92 3507.5,-92 3507.5,-73 3321.5,-73"/>
<text text-anchor="middle" x="3414.5" y="-80" font-family="Helvetica,sans-Serif" font-size="10.00">src/libs/vlayout/vabstractpiece.cpp</text>
</a>
</g>
</g>
<!-- Node8&#45;&gt;Node20 -->
<g id="edge17" class="edge">
<title>Node8&#45;&gt;Node20</title>
<path fill="none" stroke="midnightblue" d="M3203.03,-137.4C3253.36,-124.58 3335.11,-103.74 3380.83,-92.08"/>
<polygon fill="midnightblue" stroke="midnightblue" points="3201.92,-134.07 3193.1,-139.94 3203.65,-140.86 3201.92,-134.07"/>
</g>
<!-- Node21 -->
<g id="node17" class="node">
<title>Node21</title>
<g id="a_node17"><a xlink:href="../../d8/d70/vtextmanager_8cpp.html" target="_top" xlink:title=" ">
<polygon fill="white" stroke="black" points="3525.5,-73 3525.5,-92 3707.5,-92 3707.5,-73 3525.5,-73"/>
<text text-anchor="middle" x="3616.5" y="-80" font-family="Helvetica,sans-Serif" font-size="10.00">src/libs/vlayout/vtextmanager.cpp</text>
</a>
</g>
</g>
<!-- Node8&#45;&gt;Node21 -->
<g id="edge19" class="edge">
<title>Node8&#45;&gt;Node21</title>
<path fill="none" stroke="midnightblue" d="M3230.46,-138.54C3302.51,-128.4 3417.28,-112.21 3516.5,-98 3529.96,-96.07 3544.43,-93.98 3558.07,-92.01"/>
<polygon fill="midnightblue" stroke="midnightblue" points="3229.56,-135.13 3220.15,-139.99 3230.54,-142.06 3229.56,-135.13"/>
</g>
<!-- Node22 -->
<g id="node18" class="node">
<title>Node22</title>
<g id="a_node18"><a xlink:href="../../db/d65/dialogexporttocsv_8cpp.html" target="_top" xlink:title=" ">
<polygon fill="white" stroke="black" points="3726,-67.5 3726,-97.5 3853,-97.5 3853,-67.5 3726,-67.5"/>
<text text-anchor="start" x="3734" y="-85.5" font-family="Helvetica,sans-Serif" font-size="10.00">src/libs/vmisc/dialogs</text>
<text text-anchor="middle" x="3789.5" y="-74.5" font-family="Helvetica,sans-Serif" font-size="10.00">/dialogexporttocsv.cpp</text>
</a>
</g>
</g>
<!-- Node8&#45;&gt;Node22 -->
<g id="edge20" class="edge">
<title>Node8&#45;&gt;Node22</title>
<path fill="none" stroke="midnightblue" d="M3230.53,-138.69C3243.8,-137.01 3257.56,-135.37 3270.5,-134 3468.27,-113.11 3519.53,-125.42 3716.5,-98 3719.57,-97.57 3722.71,-97.1 3725.87,-96.59"/>
<polygon fill="midnightblue" stroke="midnightblue" points="3229.98,-135.23 3220.5,-139.98 3230.87,-142.18 3229.98,-135.23"/>
</g>
<!-- Node23 -->
<g id="node19" class="node">
<title>Node23</title>
<g id="a_node19"><a xlink:href="../../d6/d0b/def_8cpp.html" target="_top" xlink:title=" ">
<polygon fill="white" stroke="black" points="3871.5,-73 3871.5,-92 3993.5,-92 3993.5,-73 3871.5,-73"/>
<text text-anchor="middle" x="3932.5" y="-80" font-family="Helvetica,sans-Serif" font-size="10.00">src/libs/vmisc/def.cpp</text>
</a>
</g>
</g>
<!-- Node8&#45;&gt;Node23 -->
<g id="edge21" class="edge">
<title>Node8&#45;&gt;Node23</title>
<path fill="none" stroke="midnightblue" d="M3228.69,-138.71C3242.52,-136.97 3256.96,-135.29 3270.5,-134 3532.9,-108.91 3601.21,-132.82 3862.5,-98 3873.57,-96.52 3885.51,-94.29 3896.34,-92.02"/>
<polygon fill="midnightblue" stroke="midnightblue" points="3228.22,-135.24 3218.75,-139.99 3229.11,-142.18 3228.22,-135.24"/>
</g>
<!-- Node24 -->
<g id="node20" class="node">
<title>Node24</title>
<g id="a_node20"><a xlink:href="../../d0/df6/vabstractapplication_8cpp.html" target="_top" xlink:title=" ">
<polygon fill="white" stroke="black" points="4011.5,-73 4011.5,-92 4217.5,-92 4217.5,-73 4011.5,-73"/>
<text text-anchor="middle" x="4114.5" y="-80" font-family="Helvetica,sans-Serif" font-size="10.00">src/libs/vmisc/vabstractapplication.cpp</text>
</a>
</g>
</g>
<!-- Node8&#45;&gt;Node24 -->
<g id="edge22" class="edge">
<title>Node8&#45;&gt;Node24</title>
<path fill="none" stroke="midnightblue" d="M3227.96,-138.68C3242.01,-136.91 3256.72,-135.24 3270.5,-134 3594.92,-104.88 3678.06,-126.93 4002.5,-98 4019.78,-96.46 4038.5,-94.25 4055.6,-92.02"/>
<polygon fill="midnightblue" stroke="midnightblue" points="3227.34,-135.23 3217.87,-139.98 3228.24,-142.17 3227.34,-135.23"/>
</g>
<!-- Node25 -->
<g id="node21" class="node">
<title>Node25</title>
<g id="a_node21"><a xlink:href="../../d4/d4f/pmsystems_8cpp.html" target="_top" xlink:title=" ">
<polygon fill="white" stroke="black" points="4236,-67.5 4236,-97.5 4343,-97.5 4343,-67.5 4236,-67.5"/>
<text text-anchor="start" x="4244" y="-85.5" font-family="Helvetica,sans-Serif" font-size="10.00">src/libs/vpatterndb</text>
<text text-anchor="middle" x="4289.5" y="-74.5" font-family="Helvetica,sans-Serif" font-size="10.00">/pmsystems.cpp</text>
</a>
</g>
</g>
<!-- Node8&#45;&gt;Node25 -->
<g id="edge23" class="edge">
<title>Node8&#45;&gt;Node25</title>
<path fill="none" stroke="midnightblue" d="M3227.24,-138.64C3241.5,-136.85 3256.47,-135.18 3270.5,-134 3694.2,-98.42 3805,-153.93 4226.5,-98 4229.5,-97.6 4232.58,-97.13 4235.67,-96.59"/>
<polygon fill="midnightblue" stroke="midnightblue" points="3226.47,-135.21 3217,-139.96 3227.37,-142.15 3226.47,-135.21"/>
</g>
<!-- Node26 -->
<g id="node22" class="node">
<title>Node26</title>
<g id="a_node22"><a xlink:href="../../d6/d46/vcontainer_8cpp.html" target="_top" xlink:title=" ">
<polygon fill="white" stroke="black" points="4361,-67.5 4361,-97.5 4468,-97.5 4468,-67.5 4361,-67.5"/>
<text text-anchor="start" x="4369" y="-85.5" font-family="Helvetica,sans-Serif" font-size="10.00">src/libs/vpatterndb</text>
<text text-anchor="middle" x="4414.5" y="-74.5" font-family="Helvetica,sans-Serif" font-size="10.00">/vcontainer.cpp</text>
</a>
</g>
</g>
<!-- Node8&#45;&gt;Node26 -->
<g id="edge24" class="edge">
<title>Node8&#45;&gt;Node26</title>
<path fill="none" stroke="midnightblue" d="M3226.76,-138.65C3241.16,-136.84 3256.32,-135.16 3270.5,-134 3750.05,-94.79 3875.5,-161.09 4352.5,-98 4355.24,-97.64 4358.04,-97.21 4360.85,-96.73"/>
<polygon fill="midnightblue" stroke="midnightblue" points="3225.9,-135.24 3216.43,-139.99 3226.79,-142.18 3225.9,-135.24"/>
</g>
<!-- Node8&#45;&gt;Node27 -->
<g id="edge25" class="edge">
<title>Node8&#45;&gt;Node27</title>
<path fill="none" stroke="midnightblue" d="M3267.29,-146.07C3708.9,-136.1 5356.92,-98.84 5363.5,-98 5366.24,-97.65 5369.04,-97.23 5371.86,-96.76"/>
<polygon fill="midnightblue" stroke="midnightblue" points="3267,-142.57 3257.08,-146.3 3267.16,-149.57 3267,-142.57"/>
</g>
<!-- Node28 -->
<g id="node24" class="node">
<title>Node28</title>
<g id="a_node24"><a xlink:href="../../df/d7a/vpiece_8cpp.html" target="_top" xlink:title=" ">
<polygon fill="white" stroke="black" points="4486,-67.5 4486,-97.5 4593,-97.5 4593,-67.5 4486,-67.5"/>
<text text-anchor="start" x="4494" y="-85.5" font-family="Helvetica,sans-Serif" font-size="10.00">src/libs/vpatterndb</text>
<text text-anchor="middle" x="4539.5" y="-74.5" font-family="Helvetica,sans-Serif" font-size="10.00">/vpiece.cpp</text>
</a>
</g>
</g>
<!-- Node8&#45;&gt;Node28 -->
<g id="edge26" class="edge">
<title>Node8&#45;&gt;Node28</title>
<path fill="none" stroke="midnightblue" d="M3226.1,-138.7C3240.7,-136.86 3256.1,-135.15 3270.5,-134 3805.47,-91.19 3945.33,-167.46 4477.5,-98 4480.24,-97.64 4483.04,-97.22 4485.85,-96.74"/>
<polygon fill="midnightblue" stroke="midnightblue" points="3225.61,-135.23 3216.14,-139.99 3226.51,-142.18 3225.61,-135.23"/>
</g>
<!-- Node8&#45;&gt;Node29 -->
<g id="edge27" class="edge">
<title>Node8&#45;&gt;Node29</title>
<path fill="none" stroke="midnightblue" d="M3267.4,-146.46C3718.53,-137.92 5432.77,-105.04 5488.5,-98 5491.24,-97.65 5494.04,-97.24 5496.86,-96.77"/>
<polygon fill="midnightblue" stroke="midnightblue" points="3267.24,-142.97 3257.3,-146.66 3267.37,-149.97 3267.24,-142.97"/>
</g>
<!-- Node31 -->
<g id="node27" class="node">
<title>Node31</title>
<g id="a_node27"><a xlink:href="../../de/d3e/vtranslatevars_8cpp.html" target="_top" xlink:title=" ">
<polygon fill="white" stroke="black" points="4611.5,-67.5 4611.5,-97.5 4721.5,-97.5 4721.5,-67.5 4611.5,-67.5"/>
<text text-anchor="start" x="4619.5" y="-85.5" font-family="Helvetica,sans-Serif" font-size="10.00">src/libs/vpatterndb</text>
<text text-anchor="middle" x="4666.5" y="-74.5" font-family="Helvetica,sans-Serif" font-size="10.00">/vtranslatevars.cpp</text>
</a>
</g>
</g>
<!-- Node8&#45;&gt;Node31 -->
<g id="edge29" class="edge">
<title>Node8&#45;&gt;Node31</title>
<path fill="none" stroke="midnightblue" d="M3225.86,-138.7C3240.53,-136.85 3256.02,-135.14 3270.5,-134 3860.89,-87.58 4014.9,-171.78 4602.5,-98 4605.44,-97.63 4608.44,-97.19 4611.46,-96.69"/>
<polygon fill="midnightblue" stroke="midnightblue" points="3225.32,-135.24 3215.85,-140 3226.22,-142.18 3225.32,-135.24"/>
</g>
<!-- Node8&#45;&gt;Node32 -->
<g id="edge30" class="edge">
<title>Node8&#45;&gt;Node32</title>
<path fill="none" stroke="midnightblue" d="M3076.77,-138.97C3056.44,-136.98 3034.7,-135.13 3014.5,-134 2377.01,-98.2 776.69,-162.86 141.5,-98 138.73,-97.72 135.91,-97.38 133.06,-97.01"/>
<polygon fill="midnightblue" stroke="midnightblue" points="3076.65,-142.48 3086.95,-139.99 3077.35,-135.51 3076.65,-142.48"/>
</g>
<!-- Node33 -->
<g id="node29" class="node">
<title>Node33</title>
<g id="a_node29"><a xlink:href="../../d3/d4f/mouse__coordinates_8cpp.html" target="_top" xlink:title=" ">
<polygon fill="white" stroke="black" points="4739.5,-67.5 4739.5,-97.5 4873.5,-97.5 4873.5,-67.5 4739.5,-67.5"/>
<text text-anchor="start" x="4747.5" y="-85.5" font-family="Helvetica,sans-Serif" font-size="10.00">src/libs/vwidgets/mouse</text>
<text text-anchor="middle" x="4806.5" y="-74.5" font-family="Helvetica,sans-Serif" font-size="10.00">_coordinates.cpp</text>
</a>
</g>
</g>
<!-- Node8&#45;&gt;Node33 -->
<g id="edge31" class="edge">
<title>Node8&#45;&gt;Node33</title>
<path fill="none" stroke="midnightblue" d="M3225.85,-138.67C3240.53,-136.82 3256.02,-135.12 3270.5,-134 3917.65,-83.89 4085.1,-167.05 4730.5,-98 4733.44,-97.69 4736.43,-97.32 4739.45,-96.91"/>
<polygon fill="midnightblue" stroke="midnightblue" points="3225.32,-135.21 3215.85,-139.97 3226.22,-142.16 3225.32,-135.21"/>
</g>
<!-- Node8&#45;&gt;Node34 -->
<g id="edge32" class="edge">
<title>Node8&#45;&gt;Node34</title>
<path fill="none" stroke="midnightblue" d="M3076.45,-138.95C3056.21,-136.97 3034.6,-135.14 3014.5,-134 2410.3,-99.86 893.51,-159.68 291.5,-98 288.47,-97.69 285.37,-97.32 282.25,-96.9"/>
<polygon fill="midnightblue" stroke="midnightblue" points="3076.28,-142.45 3086.57,-139.96 3076.97,-135.48 3076.28,-142.45"/>
</g>
<!-- Node35 -->
<g id="node31" class="node">
<title>Node35</title>
<g id="a_node31"><a xlink:href="../../d8/d76/scene__rect_8cpp.html" target="_top" xlink:title=" ">
<polygon fill="white" stroke="black" points="4891.5,-67.5 4891.5,-97.5 5021.5,-97.5 5021.5,-67.5 4891.5,-67.5"/>
<text text-anchor="start" x="4899.5" y="-85.5" font-family="Helvetica,sans-Serif" font-size="10.00">src/libs/vwidgets/scene</text>
<text text-anchor="middle" x="4956.5" y="-74.5" font-family="Helvetica,sans-Serif" font-size="10.00">_rect.cpp</text>
</a>
</g>
</g>
<!-- Node8&#45;&gt;Node35 -->
<g id="edge33" class="edge">
<title>Node8&#45;&gt;Node35</title>
<path fill="none" stroke="midnightblue" d="M3225.61,-138.68C3240.36,-136.82 3255.94,-135.11 3270.5,-134 3985.05,-79.51 4170.05,-175.18 4882.5,-98 4885.36,-97.69 4888.28,-97.33 4891.22,-96.92"/>
<polygon fill="midnightblue" stroke="midnightblue" points="3225.03,-135.22 3215.56,-139.98 3225.93,-142.17 3225.03,-135.22"/>
</g>
<!-- Node36 -->
<g id="node32" class="node">
<title>Node36</title>
<g id="a_node32"><a xlink:href="../../d7/d1b/pen__toolbar_8cpp.html" target="_top" xlink:title=" ">
<polygon fill="white" stroke="black" points="5040,-67.5 5040,-97.5 5159,-97.5 5159,-67.5 5040,-67.5"/>
<text text-anchor="start" x="5048" y="-85.5" font-family="Helvetica,sans-Serif" font-size="10.00">src/libs/vwidgets/pen</text>
<text text-anchor="middle" x="5099.5" y="-74.5" font-family="Helvetica,sans-Serif" font-size="10.00">_toolbar.cpp</text>
</a>
</g>
</g>
<!-- Node8&#45;&gt;Node36 -->
<g id="edge34" class="edge">
<title>Node8&#45;&gt;Node36</title>
<path fill="none" stroke="midnightblue" d="M3225.61,-138.66C3240.35,-136.8 3255.93,-135.1 3270.5,-134 4050.68,-75.24 4253.17,-186.84 5030.5,-98 5033.54,-97.65 5036.65,-97.23 5039.77,-96.76"/>
<polygon fill="midnightblue" stroke="midnightblue" points="3225.03,-135.2 3215.56,-139.96 3225.93,-142.15 3225.03,-135.2"/>
</g>
<!-- Node37 -->
<g id="node33" class="node">
<title>Node37</title>
<g id="a_node33"><a xlink:href="../../dd/df6/vabstractmainwindow_8cpp.html" target="_top" xlink:title=" ">
<polygon fill="white" stroke="black" points="1152,-73 1152,-92 1381,-92 1381,-73 1152,-73"/>
<text text-anchor="middle" x="1266.5" y="-80" font-family="Helvetica,sans-Serif" font-size="10.00">src/libs/vwidgets/vabstractmainwindow.cpp</text>
</a>
</g>
</g>
<!-- Node8&#45;&gt;Node37 -->
<g id="edge35" class="edge">
<title>Node8&#45;&gt;Node37</title>
<path fill="none" stroke="midnightblue" d="M3093.39,-138.67C3078.64,-136.81 3063.06,-135.11 3048.5,-134 2313.55,-78.18 2125.81,-148.86 1390.5,-98 1370.61,-96.62 1349,-94.36 1329.47,-92.03"/>
<polygon fill="midnightblue" stroke="midnightblue" points="3093.07,-142.16 3103.44,-139.98 3093.97,-135.22 3093.07,-142.16"/>
</g>
<!-- Node38 -->
<g id="node34" class="node">
<title>Node38</title>
<g id="a_node34"><a xlink:href="../../de/dec/vgraphicssimpletextitem_8cpp.html" target="_top" xlink:title=" ">
<polygon fill="white" stroke="black" points="1399.5,-73 1399.5,-92 1643.5,-92 1643.5,-73 1399.5,-73"/>
<text text-anchor="middle" x="1521.5" y="-80" font-family="Helvetica,sans-Serif" font-size="10.00">src/libs/vwidgets/vgraphicssimpletextitem.cpp</text>
</a>
</g>
</g>
<!-- Node8&#45;&gt;Node38 -->
<g id="edge36" class="edge">
<title>Node8&#45;&gt;Node38</title>
<path fill="none" stroke="midnightblue" d="M3093.15,-138.69C3078.47,-136.84 3062.98,-135.13 3048.5,-134 2429.73,-85.74 2271.72,-140.18 1652.5,-98 1631.61,-96.58 1608.92,-94.32 1588.38,-92"/>
<polygon fill="midnightblue" stroke="midnightblue" points="3092.78,-142.17 3103.15,-139.98 3093.68,-135.23 3092.78,-142.17"/>
</g>
<!-- Node8&#45;&gt;Node39 -->
<g id="edge37" class="edge">
<title>Node8&#45;&gt;Node39</title>
<path fill="none" stroke="midnightblue" d="M3076.45,-138.97C3056.2,-136.98 3034.59,-135.15 3014.5,-134 1912.63,-71.03 1632.67,-172.3 531.5,-98 511.92,-96.68 490.64,-94.39 471.51,-92.01"/>
<polygon fill="midnightblue" stroke="midnightblue" points="3076.27,-142.47 3086.57,-139.98 3076.97,-135.5 3076.27,-142.47"/>
</g>
<!-- Node40 -->
<g id="node36" class="node">
<title>Node40</title>
<g id="a_node36"><a xlink:href="../../de/d45/vcontrolpointspline_8cpp.html" target="_top" xlink:title=" ">
<polygon fill="white" stroke="black" points="1662,-73 1662,-92 1877,-92 1877,-73 1662,-73"/>
<text text-anchor="middle" x="1769.5" y="-80" font-family="Helvetica,sans-Serif" font-size="10.00">src/libs/vwidgets/vcontrolpointspline.cpp</text>
</a>
</g>
</g>
<!-- Node8&#45;&gt;Node40 -->
<g id="edge38" class="edge">
<title>Node8&#45;&gt;Node40</title>
<path fill="none" stroke="midnightblue" d="M3092.24,-138.63C3077.84,-136.82 3062.69,-135.14 3048.5,-134 2533.03,-92.46 2401.08,-138.12 1885.5,-98 1867.09,-96.57 1847.11,-94.32 1829,-92.02"/>
<polygon fill="midnightblue" stroke="midnightblue" points="3092.21,-142.15 3102.58,-139.96 3093.11,-135.21 3092.21,-142.15"/>
</g>
<!-- Node41 -->
<g id="node37" class="node">
<title>Node41</title>
<g id="a_node37"><a xlink:href="../../d0/d5d/vscenepoint_8cpp.html" target="_top" xlink:title=" ">
<polygon fill="white" stroke="black" points="1895,-73 1895,-92 2076,-92 2076,-73 1895,-73"/>
<text text-anchor="middle" x="1985.5" y="-80" font-family="Helvetica,sans-Serif" font-size="10.00">src/libs/vwidgets/vscenepoint.cpp</text>
</a>
</g>
</g>
<!-- Node8&#45;&gt;Node41 -->
<g id="edge39" class="edge">
<title>Node8&#45;&gt;Node41</title>
<path fill="none" stroke="midnightblue" d="M3092,-138.67C3077.67,-136.87 3062.6,-135.18 3048.5,-134 2621.7,-98.22 2512.04,-136.79 2085.5,-98 2069.6,-96.55 2052.37,-94.3 2036.76,-92"/>
<polygon fill="midnightblue" stroke="midnightblue" points="3091.92,-142.19 3102.28,-140 3092.81,-135.24 3091.92,-142.19"/>
</g>
<!-- Node8&#45;&gt;Node42 -->
<g id="edge40" class="edge">
<title>Node8&#45;&gt;Node42</title>
<path fill="none" stroke="midnightblue" d="M3267.32,-147.76C3678.36,-144.69 5147.35,-131.59 5613.5,-98 5632.38,-96.64 5652.9,-94.37 5671.4,-92.02"/>
<polygon fill="midnightblue" stroke="midnightblue" points="3267.19,-144.26 3257.22,-147.83 3267.25,-151.26 3267.19,-144.26"/>
</g>
<!-- Node43 -->
<g id="node39" class="node">
<title>Node43</title>
<g id="a_node39"><a xlink:href="../../de/d22/vsimplecurve_8cpp.html" target="_top" xlink:title=" ">
<polygon fill="white" stroke="black" points="2094.5,-73 2094.5,-92 2282.5,-92 2282.5,-73 2094.5,-73"/>
<text text-anchor="middle" x="2188.5" y="-80" font-family="Helvetica,sans-Serif" font-size="10.00">src/libs/vwidgets/vsimplecurve.cpp</text>
</a>
</g>
</g>
<!-- Node8&#45;&gt;Node43 -->
<g id="edge41" class="edge">
<title>Node8&#45;&gt;Node43</title>
<path fill="none" stroke="midnightblue" d="M3091.28,-138.69C3077.16,-136.91 3062.36,-135.23 3048.5,-134 2713,-104.16 2626.85,-129.51 2291.5,-98 2275.41,-96.49 2257.98,-94.26 2242.11,-92"/>
<polygon fill="midnightblue" stroke="midnightblue" points="3091.05,-142.19 3101.41,-140 3091.94,-135.25 3091.05,-142.19"/>
</g>
<!-- Node8&#45;&gt;Node44 -->
<g id="edge42" class="edge">
<title>Node8&#45;&gt;Node44</title>
<path fill="none" stroke="midnightblue" d="M3076.12,-138.97C3055.97,-137 3034.49,-135.17 3014.5,-134 2082.18,-79.49 1844.63,-170.01 913.5,-98 896.35,-96.67 877.71,-94.38 860.98,-92.01"/>
<polygon fill="midnightblue" stroke="midnightblue" points="3075.9,-142.47 3086.2,-139.98 3076.6,-135.5 3075.9,-142.47"/>
</g>
<!-- Node45 -->
<g id="node41" class="node">
<title>Node45</title>
<g id="a_node41"><a xlink:href="../../df/d38/vsimplepoint_8cpp.html" target="_top" xlink:title=" ">
<polygon fill="white" stroke="black" points="2301,-73 2301,-92 2486,-92 2486,-73 2301,-73"/>
<text text-anchor="middle" x="2393.5" y="-80" font-family="Helvetica,sans-Serif" font-size="10.00">src/libs/vwidgets/vsimplepoint.cpp</text>
</a>
</g>
</g>
<!-- Node8&#45;&gt;Node45 -->
<g id="edge43" class="edge">
<title>Node8&#45;&gt;Node45</title>
<path fill="none" stroke="midnightblue" d="M3089.67,-138.67C3076.03,-136.96 3061.83,-135.3 3048.5,-134 2802.93,-110.01 2739.91,-123.55 2494.5,-98 2479.17,-96.4 2462.6,-94.22 2447.39,-92.03"/>
<polygon fill="midnightblue" stroke="midnightblue" points="3089.59,-142.19 3099.96,-140 3090.49,-135.25 3089.59,-142.19"/>
</g>
<!-- Node8&#45;&gt;Node46 -->
<g id="edge44" class="edge">
<title>Node8&#45;&gt;Node46</title>
<path fill="none" stroke="midnightblue" d="M3093.63,-138.67C3078.81,-136.8 3063.14,-135.09 3048.5,-134 2203.58,-71.03 1987.52,-159.54 1142.5,-98 1123.99,-96.65 1103.89,-94.37 1085.79,-92.01"/>
<polygon fill="midnightblue" stroke="midnightblue" points="3093.36,-142.16 3103.73,-139.98 3094.26,-135.22 3093.36,-142.16"/>
</g>
<!-- Node16&#45;&gt;Node17 -->
<g id="edge14" class="edge">
<title>Node16&#45;&gt;Node17</title>
<path fill="none" stroke="midnightblue" d="M3110.22,-58.87C3104.29,-49.46 3097.59,-38.83 3092.38,-30.58"/>
<polygon fill="midnightblue" stroke="midnightblue" points="3107.31,-60.81 3115.6,-67.4 3113.23,-57.07 3107.31,-60.81"/>
</g>
<!-- Node30 -->
<g id="node26" class="node">
<title>Node30</title>
<g id="a_node26"><a xlink:href="../../d8/dba/vpiecenode_8cpp.html" target="_top" xlink:title=" ">
<polygon fill="white" stroke="black" points="5497,-0.5 5497,-30.5 5604,-30.5 5604,-0.5 5497,-0.5"/>
<text text-anchor="start" x="5505" y="-18.5" font-family="Helvetica,sans-Serif" font-size="10.00">src/libs/vpatterndb</text>
<text text-anchor="middle" x="5550.5" y="-7.5" font-family="Helvetica,sans-Serif" font-size="10.00">/vpiecenode.cpp</text>
</a>
</g>
</g>
<!-- Node29&#45;&gt;Node30 -->
<g id="edge28" class="edge">
<title>Node29&#45;&gt;Node30</title>
<path fill="none" stroke="midnightblue" d="M5550.5,-57.11C5550.5,-48.15 5550.5,-38.32 5550.5,-30.58"/>
<polygon fill="midnightblue" stroke="midnightblue" points="5547,-57.4 5550.5,-67.4 5554,-57.4 5547,-57.4"/>
</g>
<!-- Node48 -->
<g id="node44" class="node">
<title>Node48</title>
<g id="a_node44"><a xlink:href="../../df/dba/vseamlymesettings_8cpp.html" target="_top" xlink:title=" ">
<polygon fill="white" stroke="black" points="2803,-140 2803,-159 3006,-159 3006,-140 2803,-140"/>
<text text-anchor="middle" x="2904.5" y="-147" font-family="Helvetica,sans-Serif" font-size="10.00">src/libs/vmisc/vseamlymesettings.cpp</text>
</a>
</g>
</g>
<!-- Node47&#45;&gt;Node48 -->
<g id="edge46" class="edge">
<title>Node47&#45;&gt;Node48</title>
<path fill="none" stroke="midnightblue" d="M2906.56,-191.32C2906.01,-180.5 2905.35,-167.4 2904.93,-159.01"/>
<polygon fill="midnightblue" stroke="midnightblue" points="2903.07,-191.66 2907.07,-201.48 2910.06,-191.31 2903.07,-191.66"/>
</g>
<!-- Node50&#45;&gt;Node8 -->
<g id="edge52" class="edge">
<title>Node50&#45;&gt;Node8</title>
<path fill="none" stroke="midnightblue" d="M5153.03,-207.69C4827.93,-198.36 3611.95,-163.48 3257.22,-153.3"/>
<polygon fill="midnightblue" stroke="midnightblue" points="5153.21,-211.2 5163.31,-207.99 5153.41,-204.2 5153.21,-211.2"/>
</g>
<!-- Node50&#45;&gt;Node42 -->
<g id="edge54" class="edge">
<title>Node50&#45;&gt;Node42</title>
<path fill="none" stroke="midnightblue" d="M5277.12,-198.9C5374.85,-174.02 5609.65,-114.26 5697.01,-92.02"/>
<polygon fill="midnightblue" stroke="midnightblue" points="5276.1,-195.55 5267.27,-201.4 5277.82,-202.33 5276.1,-195.55"/>
</g>
<!-- Node51 -->
<g id="node47" class="node">
<title>Node51</title>
<g id="a_node47"><a xlink:href="../../d9/d02/vapplication_8h.html" target="_top" xlink:title=" ">
<polygon fill="white" stroke="red" points="5848,-134.5 5848,-164.5 5975,-164.5 5975,-134.5 5848,-134.5"/>
<text text-anchor="start" x="5856" y="-152.5" font-family="Helvetica,sans-Serif" font-size="10.00">src/app/seamly2d/core</text>
<text text-anchor="middle" x="5911.5" y="-141.5" font-family="Helvetica,sans-Serif" font-size="10.00">/vapplication.h</text>
</a>
</g>
</g>
<!-- Node50&#45;&gt;Node51 -->
<g id="edge49" class="edge">
<title>Node50&#45;&gt;Node51</title>
<path fill="none" stroke="midnightblue" d="M5313.87,-202.95C5450.16,-190.99 5723.84,-166.97 5847.84,-156.09"/>
<polygon fill="midnightblue" stroke="midnightblue" points="5313.16,-199.5 5303.5,-203.86 5313.77,-206.47 5313.16,-199.5"/>
</g>
<!-- Node74 -->
<g id="node50" class="node">
<title>Node74</title>
<g id="a_node50"><a xlink:href="../../db/d28/vsettings_8cpp.html" target="_top" xlink:title=" ">
<polygon fill="white" stroke="black" points="5993.5,-140 5993.5,-159 6145.5,-159 6145.5,-140 5993.5,-140"/>
<text text-anchor="middle" x="6069.5" y="-147" font-family="Helvetica,sans-Serif" font-size="10.00">src/libs/vmisc/vsettings.cpp</text>
</a>
</g>
</g>
<!-- Node50&#45;&gt;Node74 -->
<g id="edge53" class="edge">
<title>Node50&#45;&gt;Node74</title>
<path fill="none" stroke="midnightblue" d="M5313.65,-208.07C5451.25,-204.11 5741.12,-192.97 5984.5,-165 5997.74,-163.48 6012.04,-161.26 6025.08,-159.02"/>
<polygon fill="midnightblue" stroke="midnightblue" points="5313.51,-204.57 5303.61,-208.35 5313.7,-211.57 5313.51,-204.57"/>
</g>
<!-- Node52 -->
<g id="node48" class="node">
<title>Node52</title>
<g id="a_node48"><a xlink:href="../../dd/db4/abstractlayout__dialog_8cpp.html" target="_top" xlink:title=" ">
<polygon fill="white" stroke="black" points="5856.5,-67.5 5856.5,-97.5 6002.5,-97.5 6002.5,-67.5 5856.5,-67.5"/>
<text text-anchor="start" x="5864.5" y="-85.5" font-family="Helvetica,sans-Serif" font-size="10.00">src/app/seamly2d/dialogs</text>
<text text-anchor="middle" x="5929.5" y="-74.5" font-family="Helvetica,sans-Serif" font-size="10.00">/abstractlayout_dialog.cpp</text>
</a>
</g>
</g>
<!-- Node51&#45;&gt;Node52 -->
<g id="edge50" class="edge">
<title>Node51&#45;&gt;Node52</title>
<path fill="none" stroke="midnightblue" d="M5918.09,-124.7C5920.61,-115.59 5923.41,-105.49 5925.6,-97.58"/>
<polygon fill="midnightblue" stroke="midnightblue" points="5914.7,-123.82 5915.41,-134.4 5921.45,-125.69 5914.7,-123.82"/>
</g>
<!-- Node53 -->
<g id="node49" class="node">
<title>Node53</title>
<g id="a_node49"><a xlink:href="../../d3/dd8/vapplication_8cpp.html" target="_top" xlink:title=" ">
<polygon fill="white" stroke="black" points="6021,-67.5 6021,-97.5 6148,-97.5 6148,-67.5 6021,-67.5"/>
<text text-anchor="start" x="6029" y="-85.5" font-family="Helvetica,sans-Serif" font-size="10.00">src/app/seamly2d/core</text>
<text text-anchor="middle" x="6084.5" y="-74.5" font-family="Helvetica,sans-Serif" font-size="10.00">/vapplication.cpp</text>
</a>
</g>
</g>
<!-- Node51&#45;&gt;Node53 -->
<g id="edge51" class="edge">
<title>Node51&#45;&gt;Node53</title>
<path fill="none" stroke="midnightblue" d="M5958.56,-130.82C5986.37,-120.37 6021.09,-107.32 6047.03,-97.58"/>
<polygon fill="midnightblue" stroke="midnightblue" points="5957.17,-127.6 5949.04,-134.4 5959.63,-134.16 5957.17,-127.6"/>
</g>
</g>
</svg>
